<?xml version="1.0" encoding="utf-8" standalone="no"?>
<!DOCTYPE svg PUBLIC "-//W3C//DTD SVG 1.1//EN"
  "http://www.w3.org/Graphics/SVG/1.1/DTD/svg11.dtd">
<svg xmlns:xlink="http://www.w3.org/1999/xlink" width="734.874219pt" height="403.787187pt" viewBox="0 0 734.874219 403.787187" xmlns="http://www.w3.org/2000/svg" version="1.1">
 <metadata>
  <rdf:RDF xmlns:dc="http://purl.org/dc/elements/1.1/" xmlns:cc="http://creativecommons.org/ns#" xmlns:rdf="http://www.w3.org/1999/02/22-rdf-syntax-ns#">
   <cc:Work>
    <dc:type rdf:resource="http://purl.org/dc/dcmitype/StillImage"/>
    <dc:date>2023-10-16T23:08:48.572236</dc:date>
    <dc:format>image/svg+xml</dc:format>
    <dc:creator>
     <cc:Agent>
      <dc:title>Matplotlib v3.8.0, https://matplotlib.org/</dc:title>
     </cc:Agent>
    </dc:creator>
   </cc:Work>
  </rdf:RDF>
 </metadata>
 <defs>
  <style type="text/css">*{stroke-linejoin: round; stroke-linecap: butt}</style>
 </defs>
 <g id="figure_1">
  <g id="patch_1">
   <path d="M 0 403.787187 
L 734.874219 403.787187 
L 734.874219 0 
L 0 0 
z
" style="fill: #ffffff"/>
  </g>
  <g id="axes_1">
   <g id="patch_2">
    <path d="M 58.074219 358.33875 
L 727.674219 358.33875 
L 727.674219 25.69875 
L 58.074219 25.69875 
z
" style="fill: #ffffff"/>
   </g>
   <g id="patch_3">
    <path d="M 233.933018 358.33875 
L 243.199115 358.33875 
L 243.199115 356.38721 
L 233.933018 356.38721 
z
" clip-path="url(#p83fb436ba6)" style="fill: #0000ff"/>
   </g>
   <g id="patch_4">
    <path d="M 243.199115 358.33875 
L 252.465212 358.33875 
L 252.465212 357.688237 
L 243.199115 357.688237 
z
" clip-path="url(#p83fb436ba6)" style="fill: #0000ff"/>
   </g>
   <g id="patch_5">
    <path d="M 252.465212 358.33875 
L 261.731309 358.33875 
L 261.731309 355.086183 
L 252.465212 355.086183 
z
" clip-path="url(#p83fb436ba6)" style="fill: #0000ff"/>
   </g>
   <g id="patch_6">
    <path d="M 261.731309 358.33875 
L 270.997405 358.33875 
L 270.997405 354.43567 
L 261.731309 354.43567 
z
" clip-path="url(#p83fb436ba6)" style="fill: #0000ff"/>
   </g>
   <g id="patch_7">
    <path d="M 270.997405 358.33875 
L 280.263502 358.33875 
L 280.263502 346.62951 
L 270.997405 346.62951 
z
" clip-path="url(#p83fb436ba6)" style="fill: #0000ff"/>
   </g>
   <g id="patch_8">
    <path d="M 280.263502 358.33875 
L 289.529599 358.33875 
L 289.529599 346.62951 
L 280.263502 346.62951 
z
" clip-path="url(#p83fb436ba6)" style="fill: #0000ff"/>
   </g>
   <g id="patch_9">
    <path d="M 289.529599 358.33875 
L 298.795696 358.33875 
L 298.795696 341.425403 
L 289.529599 341.425403 
z
" clip-path="url(#p83fb436ba6)" style="fill: #0000ff"/>
   </g>
   <g id="patch_10">
    <path d="M 298.795696 358.33875 
L 308.061792 358.33875 
L 308.061792 330.366676 
L 298.795696 330.366676 
z
" clip-path="url(#p83fb436ba6)" style="fill: #0000ff"/>
   </g>
   <g id="patch_11">
    <path d="M 308.061792 358.33875 
L 317.327889 358.33875 
L 317.327889 334.269756 
L 308.061792 334.269756 
z
" clip-path="url(#p83fb436ba6)" style="fill: #0000ff"/>
   </g>
   <g id="patch_12">
    <path d="M 317.327889 358.33875 
L 326.593986 358.33875 
L 326.593986 317.356409 
L 317.327889 317.356409 
z
" clip-path="url(#p83fb436ba6)" style="fill: #0000ff"/>
   </g>
   <g id="patch_13">
    <path d="M 326.593986 358.33875 
L 335.860083 358.33875 
L 335.860083 297.841009 
L 326.593986 297.841009 
z
" clip-path="url(#p83fb436ba6)" style="fill: #0000ff"/>
   </g>
   <g id="patch_14">
    <path d="M 335.860083 358.33875 
L 345.126179 358.33875 
L 345.126179 295.238955 
L 335.860083 295.238955 
z
" clip-path="url(#p83fb436ba6)" style="fill: #0000ff"/>
   </g>
   <g id="patch_15">
    <path d="M 345.126179 358.33875 
L 354.392276 358.33875 
L 354.392276 267.917395 
L 345.126179 267.917395 
z
" clip-path="url(#p83fb436ba6)" style="fill: #0000ff"/>
   </g>
   <g id="patch_16">
    <path d="M 354.392276 358.33875 
L 363.658373 358.33875 
L 363.658373 242.547374 
L 354.392276 242.547374 
z
" clip-path="url(#p83fb436ba6)" style="fill: #0000ff"/>
   </g>
   <g id="patch_17">
    <path d="M 363.658373 358.33875 
L 372.924469 358.33875 
L 372.924469 216.52684 
L 363.658373 216.52684 
z
" clip-path="url(#p83fb436ba6)" style="fill: #0000ff"/>
   </g>
   <g id="patch_18">
    <path d="M 372.924469 358.33875 
L 382.190566 358.33875 
L 382.190566 198.96298 
L 372.924469 198.96298 
z
" clip-path="url(#p83fb436ba6)" style="fill: #0000ff"/>
   </g>
   <g id="patch_19">
    <path d="M 382.190566 358.33875 
L 391.456663 358.33875 
L 391.456663 160.582693 
L 382.190566 160.582693 
z
" clip-path="url(#p83fb436ba6)" style="fill: #0000ff"/>
   </g>
   <g id="patch_20">
    <path d="M 391.456663 358.33875 
L 400.72276 358.33875 
L 400.72276 131.960105 
L 391.456663 131.960105 
z
" clip-path="url(#p83fb436ba6)" style="fill: #0000ff"/>
   </g>
   <g id="patch_21">
    <path d="M 400.72276 358.33875 
L 409.988856 358.33875 
L 409.988856 120.250865 
L 400.72276 120.250865 
z
" clip-path="url(#p83fb436ba6)" style="fill: #0000ff"/>
   </g>
   <g id="patch_22">
    <path d="M 409.988856 358.33875 
L 419.254953 358.33875 
L 419.254953 107.891111 
L 409.988856 107.891111 
z
" clip-path="url(#p83fb436ba6)" style="fill: #0000ff"/>
   </g>
   <g id="patch_23">
    <path d="M 419.254953 358.33875 
L 428.52105 358.33875 
L 428.52105 71.462364 
L 419.254953 71.462364 
z
" clip-path="url(#p83fb436ba6)" style="fill: #0000ff"/>
   </g>
   <g id="patch_24">
    <path d="M 428.52105 358.33875 
L 437.787147 358.33875 
L 437.787147 54.549017 
L 428.52105 54.549017 
z
" clip-path="url(#p83fb436ba6)" style="fill: #0000ff"/>
   </g>
   <g id="patch_25">
    <path d="M 437.787147 358.33875 
L 447.053243 358.33875 
L 447.053243 70.161337 
L 437.787147 70.161337 
z
" clip-path="url(#p83fb436ba6)" style="fill: #0000ff"/>
   </g>
   <g id="patch_26">
    <path d="M 447.053243 358.33875 
L 456.31934 358.33875 
L 456.31934 44.791317 
L 447.053243 44.791317 
z
" clip-path="url(#p83fb436ba6)" style="fill: #0000ff"/>
   </g>
   <g id="patch_27">
    <path d="M 456.31934 358.33875 
L 465.585437 358.33875 
L 465.585437 57.801584 
L 456.31934 57.801584 
z
" clip-path="url(#p83fb436ba6)" style="fill: #0000ff"/>
   </g>
   <g id="patch_28">
    <path d="M 465.585437 358.33875 
L 474.851534 358.33875 
L 474.851534 41.53875 
L 465.585437 41.53875 
z
" clip-path="url(#p83fb436ba6)" style="fill: #0000ff"/>
   </g>
   <g id="patch_29">
    <path d="M 474.851534 358.33875 
L 484.11763 358.33875 
L 484.11763 77.316984 
L 474.851534 77.316984 
z
" clip-path="url(#p83fb436ba6)" style="fill: #0000ff"/>
   </g>
   <g id="patch_30">
    <path d="M 484.11763 358.33875 
L 493.383727 358.33875 
L 493.383727 105.939571 
L 484.11763 105.939571 
z
" clip-path="url(#p83fb436ba6)" style="fill: #0000ff"/>
   </g>
   <g id="patch_31">
    <path d="M 493.383727 358.33875 
L 502.649824 358.33875 
L 502.649824 105.939571 
L 493.383727 105.939571 
z
" clip-path="url(#p83fb436ba6)" style="fill: #0000ff"/>
   </g>
   <g id="patch_32">
    <path d="M 502.649824 358.33875 
L 511.91592 358.33875 
L 511.91592 150.174479 
L 502.649824 150.174479 
z
" clip-path="url(#p83fb436ba6)" style="fill: #0000ff"/>
   </g>
   <g id="patch_33">
    <path d="M 511.91592 358.33875 
L 521.182017 358.33875 
L 521.182017 194.409387 
L 511.91592 194.409387 
z
" clip-path="url(#p83fb436ba6)" style="fill: #0000ff"/>
   </g>
   <g id="patch_34">
    <path d="M 521.182017 358.33875 
L 530.448114 358.33875 
L 530.448114 176.845526 
L 521.182017 176.845526 
z
" clip-path="url(#p83fb436ba6)" style="fill: #0000ff"/>
   </g>
   <g id="patch_35">
    <path d="M 530.448114 358.33875 
L 539.714211 358.33875 
L 539.714211 221.730947 
L 530.448114 221.730947 
z
" clip-path="url(#p83fb436ba6)" style="fill: #0000ff"/>
   </g>
   <g id="patch_36">
    <path d="M 539.714211 358.33875 
L 548.980307 358.33875 
L 548.980307 247.751481 
L 539.714211 247.751481 
z
" clip-path="url(#p83fb436ba6)" style="fill: #0000ff"/>
   </g>
   <g id="patch_37">
    <path d="M 548.980307 358.33875 
L 558.246404 358.33875 
L 558.246404 259.460721 
L 548.980307 259.460721 
z
" clip-path="url(#p83fb436ba6)" style="fill: #0000ff"/>
   </g>
   <g id="patch_38">
    <path d="M 558.246404 358.33875 
L 567.512501 358.33875 
L 567.512501 275.073042 
L 558.246404 275.073042 
z
" clip-path="url(#p83fb436ba6)" style="fill: #0000ff"/>
   </g>
   <g id="patch_39">
    <path d="M 567.512501 358.33875 
L 576.778598 358.33875 
L 576.778598 291.986389 
L 567.512501 291.986389 
z
" clip-path="url(#p83fb436ba6)" style="fill: #0000ff"/>
   </g>
   <g id="patch_40">
    <path d="M 576.778598 358.33875 
L 586.044694 358.33875 
L 586.044694 310.851276 
L 576.778598 310.851276 
z
" clip-path="url(#p83fb436ba6)" style="fill: #0000ff"/>
   </g>
   <g id="patch_41">
    <path d="M 586.044694 358.33875 
L 595.310791 358.33875 
L 595.310791 317.356409 
L 586.044694 317.356409 
z
" clip-path="url(#p83fb436ba6)" style="fill: #0000ff"/>
   </g>
   <g id="patch_42">
    <path d="M 595.310791 358.33875 
L 604.576888 358.33875 
L 604.576888 329.065649 
L 595.310791 329.065649 
z
" clip-path="url(#p83fb436ba6)" style="fill: #0000ff"/>
   </g>
   <g id="patch_43">
    <path d="M 604.576888 358.33875 
L 613.842985 358.33875 
L 613.842985 332.968729 
L 604.576888 332.968729 
z
" clip-path="url(#p83fb436ba6)" style="fill: #0000ff"/>
   </g>
   <g id="patch_44">
    <path d="M 613.842985 358.33875 
L 623.109081 358.33875 
L 623.109081 336.87181 
L 613.842985 336.87181 
z
" clip-path="url(#p83fb436ba6)" style="fill: #0000ff"/>
   </g>
   <g id="patch_45">
    <path d="M 623.109081 358.33875 
L 632.375178 358.33875 
L 632.375178 347.280023 
L 623.109081 347.280023 
z
" clip-path="url(#p83fb436ba6)" style="fill: #0000ff"/>
   </g>
   <g id="patch_46">
    <path d="M 632.375178 358.33875 
L 641.641275 358.33875 
L 641.641275 349.882076 
L 632.375178 349.882076 
z
" clip-path="url(#p83fb436ba6)" style="fill: #0000ff"/>
   </g>
   <g id="patch_47">
    <path d="M 641.641275 358.33875 
L 650.907371 358.33875 
L 650.907371 354.43567 
L 641.641275 354.43567 
z
" clip-path="url(#p83fb436ba6)" style="fill: #0000ff"/>
   </g>
   <g id="patch_48">
    <path d="M 650.907371 358.33875 
L 660.173468 358.33875 
L 660.173468 357.037723 
L 650.907371 357.037723 
z
" clip-path="url(#p83fb436ba6)" style="fill: #0000ff"/>
   </g>
   <g id="patch_49">
    <path d="M 660.173468 358.33875 
L 669.439565 358.33875 
L 669.439565 354.43567 
L 660.173468 354.43567 
z
" clip-path="url(#p83fb436ba6)" style="fill: #0000ff"/>
   </g>
   <g id="patch_50">
    <path d="M 669.439565 358.33875 
L 678.705662 358.33875 
L 678.705662 356.38721 
L 669.439565 356.38721 
z
" clip-path="url(#p83fb436ba6)" style="fill: #0000ff"/>
   </g>
   <g id="patch_51">
    <path d="M 678.705662 358.33875 
L 687.971758 358.33875 
L 687.971758 357.037723 
L 678.705662 357.037723 
z
" clip-path="url(#p83fb436ba6)" style="fill: #0000ff"/>
   </g>
   <g id="patch_52">
    <path d="M 687.971758 358.33875 
L 697.237855 358.33875 
L 697.237855 357.037723 
L 687.971758 357.037723 
z
" clip-path="url(#p83fb436ba6)" style="fill: #0000ff"/>
   </g>
   <g id="patch_53">
    <path d="M 88.510582 358.33875 
L 99.358169 358.33875 
L 99.358169 357.227402 
L 88.510582 357.227402 
z
" clip-path="url(#p83fb436ba6)" style="fill: #ffa500"/>
   </g>
   <g id="patch_54">
    <path d="M 99.358169 358.33875 
L 110.205756 358.33875 
L 110.205756 358.33875 
L 99.358169 358.33875 
z
" clip-path="url(#p83fb436ba6)" style="fill: #ffa500"/>
   </g>
   <g id="patch_55">
    <path d="M 110.205756 358.33875 
L 121.053343 358.33875 
L 121.053343 358.33875 
L 110.205756 358.33875 
z
" clip-path="url(#p83fb436ba6)" style="fill: #ffa500"/>
   </g>
   <g id="patch_56">
    <path d="M 121.053343 358.33875 
L 131.90093 358.33875 
L 131.90093 357.227402 
L 121.053343 357.227402 
z
" clip-path="url(#p83fb436ba6)" style="fill: #ffa500"/>
   </g>
   <g id="patch_57">
    <path d="M 131.90093 358.33875 
L 142.748516 358.33875 
L 142.748516 357.227402 
L 131.90093 357.227402 
z
" clip-path="url(#p83fb436ba6)" style="fill: #ffa500"/>
   </g>
   <g id="patch_58">
    <path d="M 142.748516 358.33875 
L 153.596103 358.33875 
L 153.596103 356.671729 
L 142.748516 356.671729 
z
" clip-path="url(#p83fb436ba6)" style="fill: #ffa500"/>
   </g>
   <g id="patch_59">
    <path d="M 153.596103 358.33875 
L 164.44369 358.33875 
L 164.44369 356.671729 
L 153.596103 356.671729 
z
" clip-path="url(#p83fb436ba6)" style="fill: #ffa500"/>
   </g>
   <g id="patch_60">
    <path d="M 164.44369 358.33875 
L 175.291277 358.33875 
L 175.291277 357.227402 
L 164.44369 357.227402 
z
" clip-path="url(#p83fb436ba6)" style="fill: #ffa500"/>
   </g>
   <g id="patch_61">
    <path d="M 175.291277 358.33875 
L 186.138864 358.33875 
L 186.138864 353.337686 
L 175.291277 353.337686 
z
" clip-path="url(#p83fb436ba6)" style="fill: #ffa500"/>
   </g>
   <g id="patch_62">
    <path d="M 186.138864 358.33875 
L 196.98645 358.33875 
L 196.98645 351.114991 
L 186.138864 351.114991 
z
" clip-path="url(#p83fb436ba6)" style="fill: #ffa500"/>
   </g>
   <g id="patch_63">
    <path d="M 196.98645 358.33875 
L 207.834037 358.33875 
L 207.834037 342.22421 
L 196.98645 342.22421 
z
" clip-path="url(#p83fb436ba6)" style="fill: #ffa500"/>
   </g>
   <g id="patch_64">
    <path d="M 207.834037 358.33875 
L 218.681624 358.33875 
L 218.681624 335.000451 
L 207.834037 335.000451 
z
" clip-path="url(#p83fb436ba6)" style="fill: #ffa500"/>
   </g>
   <g id="patch_65">
    <path d="M 218.681624 358.33875 
L 229.529211 358.33875 
L 229.529211 324.442649 
L 218.681624 324.442649 
z
" clip-path="url(#p83fb436ba6)" style="fill: #ffa500"/>
   </g>
   <g id="patch_66">
    <path d="M 229.529211 358.33875 
L 240.376798 358.33875 
L 240.376798 313.884847 
L 229.529211 313.884847 
z
" clip-path="url(#p83fb436ba6)" style="fill: #ffa500"/>
   </g>
   <g id="patch_67">
    <path d="M 240.376798 358.33875 
L 251.224384 358.33875 
L 251.224384 307.772436 
L 240.376798 307.772436 
z
" clip-path="url(#p83fb436ba6)" style="fill: #ffa500"/>
   </g>
   <g id="patch_68">
    <path d="M 251.224384 358.33875 
L 262.071971 358.33875 
L 262.071971 287.212506 
L 251.224384 287.212506 
z
" clip-path="url(#p83fb436ba6)" style="fill: #ffa500"/>
   </g>
   <g id="patch_69">
    <path d="M 262.071971 358.33875 
L 272.919558 358.33875 
L 272.919558 273.876335 
L 262.071971 273.876335 
z
" clip-path="url(#p83fb436ba6)" style="fill: #ffa500"/>
   </g>
   <g id="patch_70">
    <path d="M 272.919558 358.33875 
L 283.767145 358.33875 
L 283.767145 254.983426 
L 272.919558 254.983426 
z
" clip-path="url(#p83fb436ba6)" style="fill: #ffa500"/>
   </g>
   <g id="patch_71">
    <path d="M 283.767145 358.33875 
L 294.614732 358.33875 
L 294.614732 225.532716 
L 283.767145 225.532716 
z
" clip-path="url(#p83fb436ba6)" style="fill: #ffa500"/>
   </g>
   <g id="patch_72">
    <path d="M 294.614732 358.33875 
L 305.462318 358.33875 
L 305.462318 188.302572 
L 294.614732 188.302572 
z
" clip-path="url(#p83fb436ba6)" style="fill: #ffa500"/>
   </g>
   <g id="patch_73">
    <path d="M 305.462318 358.33875 
L 316.309905 358.33875 
L 316.309905 171.076685 
L 305.462318 171.076685 
z
" clip-path="url(#p83fb436ba6)" style="fill: #ffa500"/>
   </g>
   <g id="patch_74">
    <path d="M 316.309905 358.33875 
L 327.157492 358.33875 
L 327.157492 138.847606 
L 316.309905 138.847606 
z
" clip-path="url(#p83fb436ba6)" style="fill: #ffa500"/>
   </g>
   <g id="patch_75">
    <path d="M 327.157492 358.33875 
L 338.005079 358.33875 
L 338.005079 116.620654 
L 327.157492 116.620654 
z
" clip-path="url(#p83fb436ba6)" style="fill: #ffa500"/>
   </g>
   <g id="patch_76">
    <path d="M 338.005079 358.33875 
L 348.852666 358.33875 
L 348.852666 77.167816 
L 338.005079 77.167816 
z
" clip-path="url(#p83fb436ba6)" style="fill: #ffa500"/>
   </g>
   <g id="patch_77">
    <path d="M 348.852666 358.33875 
L 359.700252 358.33875 
L 359.700252 58.830581 
L 348.852666 58.830581 
z
" clip-path="url(#p83fb436ba6)" style="fill: #ffa500"/>
   </g>
   <g id="patch_78">
    <path d="M 359.700252 358.33875 
L 370.547839 358.33875 
L 370.547839 46.050084 
L 359.700252 46.050084 
z
" clip-path="url(#p83fb436ba6)" style="fill: #ffa500"/>
   </g>
   <g id="patch_79">
    <path d="M 370.547839 358.33875 
L 381.395426 358.33875 
L 381.395426 61.053276 
L 370.547839 61.053276 
z
" clip-path="url(#p83fb436ba6)" style="fill: #ffa500"/>
   </g>
   <g id="patch_80">
    <path d="M 381.395426 358.33875 
L 392.243013 358.33875 
L 392.243013 48.828453 
L 381.395426 48.828453 
z
" clip-path="url(#p83fb436ba6)" style="fill: #ffa500"/>
   </g>
   <g id="patch_81">
    <path d="M 392.243013 358.33875 
L 403.0906 358.33875 
L 403.0906 65.498666 
L 392.243013 65.498666 
z
" clip-path="url(#p83fb436ba6)" style="fill: #ffa500"/>
   </g>
   <g id="patch_82">
    <path d="M 403.0906 358.33875 
L 413.938186 358.33875 
L 413.938186 94.949377 
L 403.0906 94.949377 
z
" clip-path="url(#p83fb436ba6)" style="fill: #ffa500"/>
   </g>
   <g id="patch_83">
    <path d="M 413.938186 358.33875 
L 424.785773 358.33875 
L 424.785773 119.399023 
L 413.938186 119.399023 
z
" clip-path="url(#p83fb436ba6)" style="fill: #ffa500"/>
   </g>
   <g id="patch_84">
    <path d="M 424.785773 358.33875 
L 435.63336 358.33875 
L 435.63336 152.183776 
L 424.785773 152.183776 
z
" clip-path="url(#p83fb436ba6)" style="fill: #ffa500"/>
   </g>
   <g id="patch_85">
    <path d="M 435.63336 358.33875 
L 446.480947 358.33875 
L 446.480947 159.963209 
L 435.63336 159.963209 
z
" clip-path="url(#p83fb436ba6)" style="fill: #ffa500"/>
   </g>
   <g id="patch_86">
    <path d="M 446.480947 358.33875 
L 457.328534 358.33875 
L 457.328534 194.970658 
L 446.480947 194.970658 
z
" clip-path="url(#p83fb436ba6)" style="fill: #ffa500"/>
   </g>
   <g id="patch_87">
    <path d="M 457.328534 358.33875 
L 468.176121 358.33875 
L 468.176121 230.53378 
L 457.328534 230.53378 
z
" clip-path="url(#p83fb436ba6)" style="fill: #ffa500"/>
   </g>
   <g id="patch_88">
    <path d="M 468.176121 358.33875 
L 479.023707 358.33875 
L 479.023707 252.205057 
L 468.176121 252.205057 
z
" clip-path="url(#p83fb436ba6)" style="fill: #ffa500"/>
   </g>
   <g id="patch_89">
    <path d="M 479.023707 358.33875 
L 489.871294 358.33875 
L 489.871294 289.990875 
L 479.023707 289.990875 
z
" clip-path="url(#p83fb436ba6)" style="fill: #ffa500"/>
   </g>
   <g id="patch_90">
    <path d="M 489.871294 358.33875 
L 500.718881 358.33875 
L 500.718881 313.329174 
L 489.871294 313.329174 
z
" clip-path="url(#p83fb436ba6)" style="fill: #ffa500"/>
   </g>
   <g id="patch_91">
    <path d="M 500.718881 358.33875 
L 511.566468 358.33875 
L 511.566468 321.66428 
L 500.718881 321.66428 
z
" clip-path="url(#p83fb436ba6)" style="fill: #ffa500"/>
   </g>
   <g id="patch_92">
    <path d="M 511.566468 358.33875 
L 522.414055 358.33875 
L 522.414055 326.109671 
L 511.566468 326.109671 
z
" clip-path="url(#p83fb436ba6)" style="fill: #ffa500"/>
   </g>
   <g id="patch_93">
    <path d="M 522.414055 358.33875 
L 533.261641 358.33875 
L 533.261641 339.445841 
L 522.414055 339.445841 
z
" clip-path="url(#p83fb436ba6)" style="fill: #ffa500"/>
   </g>
   <g id="patch_94">
    <path d="M 533.261641 358.33875 
L 544.109228 358.33875 
L 544.109228 350.003643 
L 533.261641 350.003643 
z
" clip-path="url(#p83fb436ba6)" style="fill: #ffa500"/>
   </g>
   <g id="patch_95">
    <path d="M 544.109228 358.33875 
L 554.956815 358.33875 
L 554.956815 352.782012 
L 544.109228 352.782012 
z
" clip-path="url(#p83fb436ba6)" style="fill: #ffa500"/>
   </g>
   <g id="patch_96">
    <path d="M 554.956815 358.33875 
L 565.804402 358.33875 
L 565.804402 353.337686 
L 554.956815 353.337686 
z
" clip-path="url(#p83fb436ba6)" style="fill: #ffa500"/>
   </g>
   <g id="patch_97">
    <path d="M 565.804402 358.33875 
L 576.651989 358.33875 
L 576.651989 355.004707 
L 565.804402 355.004707 
z
" clip-path="url(#p83fb436ba6)" style="fill: #ffa500"/>
   </g>
   <g id="patch_98">
    <path d="M 576.651989 358.33875 
L 587.499575 358.33875 
L 587.499575 357.227402 
L 576.651989 357.227402 
z
" clip-path="url(#p83fb436ba6)" style="fill: #ffa500"/>
   </g>
   <g id="patch_99">
    <path d="M 587.499575 358.33875 
L 598.347162 358.33875 
L 598.347162 355.560381 
L 587.499575 355.560381 
z
" clip-path="url(#p83fb436ba6)" style="fill: #ffa500"/>
   </g>
   <g id="patch_100">
    <path d="M 598.347162 358.33875 
L 609.194749 358.33875 
L 609.194749 358.33875 
L 598.347162 358.33875 
z
" clip-path="url(#p83fb436ba6)" style="fill: #ffa500"/>
   </g>
   <g id="patch_101">
    <path d="M 609.194749 358.33875 
L 620.042336 358.33875 
L 620.042336 358.33875 
L 609.194749 358.33875 
z
" clip-path="url(#p83fb436ba6)" style="fill: #ffa500"/>
   </g>
   <g id="patch_102">
    <path d="M 620.042336 358.33875 
L 630.889923 358.33875 
L 630.889923 357.783076 
L 620.042336 357.783076 
z
" clip-path="url(#p83fb436ba6)" style="fill: #ffa500"/>
   </g>
   <g id="matplotlib.axis_1">
    <g id="xtick_1">
     <g id="line2d_1">
      <defs>
       <path id="m2271e8fa84" d="M 0 0 
L 0 3.5 
" style="stroke: #000000; stroke-width: 0.8"/>
      </defs>
      <g>
       <use xlink:href="#m2271e8fa84" x="78.902913" y="358.33875" style="stroke: #000000; stroke-width: 0.8"/>
      </g>
     </g>
     <g id="text_1">
      <!-- −10 -->
      <g transform="translate(67.173616 375.754375) scale(0.15 -0.15)">
       <defs>
        <path id="TimesNewRomanPSMT-2212" d="M 3484 2000 
L 116 2000 
L 116 2256 
L 3484 2256 
L 3484 2000 
z
" transform="scale(0.015625)"/>
        <path id="TimesNewRomanPSMT-31" d="M 750 3822 
L 1781 4325 
L 1884 4325 
L 1884 747 
Q 1884 391 1914 303 
Q 1944 216 2037 169 
Q 2131 122 2419 116 
L 2419 0 
L 825 0 
L 825 116 
Q 1125 122 1212 167 
Q 1300 213 1334 289 
Q 1369 366 1369 747 
L 1369 3034 
Q 1369 3497 1338 3628 
Q 1316 3728 1258 3775 
Q 1200 3822 1119 3822 
Q 1003 3822 797 3725 
L 750 3822 
z
" transform="scale(0.015625)"/>
        <path id="TimesNewRomanPSMT-30" d="M 231 2094 
Q 231 2819 450 3342 
Q 669 3866 1031 4122 
Q 1313 4325 1613 4325 
Q 2100 4325 2488 3828 
Q 2972 3213 2972 2159 
Q 2972 1422 2759 906 
Q 2547 391 2217 158 
Q 1888 -75 1581 -75 
Q 975 -75 572 641 
Q 231 1244 231 2094 
z
M 844 2016 
Q 844 1141 1059 588 
Q 1238 122 1591 122 
Q 1759 122 1940 273 
Q 2122 425 2216 781 
Q 2359 1319 2359 2297 
Q 2359 3022 2209 3506 
Q 2097 3866 1919 4016 
Q 1791 4119 1609 4119 
Q 1397 4119 1231 3928 
Q 1006 3669 925 3112 
Q 844 2556 844 2016 
z
" transform="scale(0.015625)"/>
       </defs>
       <use xlink:href="#TimesNewRomanPSMT-2212"/>
       <use xlink:href="#TimesNewRomanPSMT-31" x="56.396484"/>
       <use xlink:href="#TimesNewRomanPSMT-30" x="106.396484"/>
      </g>
     </g>
    </g>
    <g id="xtick_2">
     <g id="line2d_2">
      <g>
       <use xlink:href="#m2271e8fa84" x="174.179404" y="358.33875" style="stroke: #000000; stroke-width: 0.8"/>
      </g>
     </g>
     <g id="text_2">
      <!-- 0 -->
      <g transform="translate(170.429404 375.754375) scale(0.15 -0.15)">
       <use xlink:href="#TimesNewRomanPSMT-30"/>
      </g>
     </g>
    </g>
    <g id="xtick_3">
     <g id="line2d_3">
      <g>
       <use xlink:href="#m2271e8fa84" x="269.455895" y="358.33875" style="stroke: #000000; stroke-width: 0.8"/>
      </g>
     </g>
     <g id="text_3">
      <!-- 10 -->
      <g transform="translate(261.955895 375.754375) scale(0.15 -0.15)">
       <use xlink:href="#TimesNewRomanPSMT-31"/>
       <use xlink:href="#TimesNewRomanPSMT-30" x="50"/>
      </g>
     </g>
    </g>
    <g id="xtick_4">
     <g id="line2d_4">
      <g>
       <use xlink:href="#m2271e8fa84" x="364.732386" y="358.33875" style="stroke: #000000; stroke-width: 0.8"/>
      </g>
     </g>
     <g id="text_4">
      <!-- 20 -->
      <g transform="translate(357.232386 375.754375) scale(0.15 -0.15)">
       <defs>
        <path id="TimesNewRomanPSMT-32" d="M 2934 816 
L 2638 0 
L 138 0 
L 138 116 
Q 1241 1122 1691 1759 
Q 2141 2397 2141 2925 
Q 2141 3328 1894 3587 
Q 1647 3847 1303 3847 
Q 991 3847 742 3664 
Q 494 3481 375 3128 
L 259 3128 
Q 338 3706 661 4015 
Q 984 4325 1469 4325 
Q 1984 4325 2329 3994 
Q 2675 3663 2675 3213 
Q 2675 2891 2525 2569 
Q 2294 2063 1775 1497 
Q 997 647 803 472 
L 1909 472 
Q 2247 472 2383 497 
Q 2519 522 2628 598 
Q 2738 675 2819 816 
L 2934 816 
z
" transform="scale(0.015625)"/>
       </defs>
       <use xlink:href="#TimesNewRomanPSMT-32"/>
       <use xlink:href="#TimesNewRomanPSMT-30" x="50"/>
      </g>
     </g>
    </g>
    <g id="xtick_5">
     <g id="line2d_5">
      <g>
       <use xlink:href="#m2271e8fa84" x="460.008877" y="358.33875" style="stroke: #000000; stroke-width: 0.8"/>
      </g>
     </g>
     <g id="text_5">
      <!-- 30 -->
      <g transform="translate(452.508877 375.754375) scale(0.15 -0.15)">
       <defs>
        <path id="TimesNewRomanPSMT-33" d="M 325 3431 
Q 506 3859 782 4092 
Q 1059 4325 1472 4325 
Q 1981 4325 2253 3994 
Q 2459 3747 2459 3466 
Q 2459 3003 1878 2509 
Q 2269 2356 2469 2072 
Q 2669 1788 2669 1403 
Q 2669 853 2319 450 
Q 1863 -75 997 -75 
Q 569 -75 414 31 
Q 259 138 259 259 
Q 259 350 332 419 
Q 406 488 509 488 
Q 588 488 669 463 
Q 722 447 909 348 
Q 1097 250 1169 231 
Q 1284 197 1416 197 
Q 1734 197 1970 444 
Q 2206 691 2206 1028 
Q 2206 1275 2097 1509 
Q 2016 1684 1919 1775 
Q 1784 1900 1550 2001 
Q 1316 2103 1072 2103 
L 972 2103 
L 972 2197 
Q 1219 2228 1467 2375 
Q 1716 2522 1828 2728 
Q 1941 2934 1941 3181 
Q 1941 3503 1739 3701 
Q 1538 3900 1238 3900 
Q 753 3900 428 3381 
L 325 3431 
z
" transform="scale(0.015625)"/>
       </defs>
       <use xlink:href="#TimesNewRomanPSMT-33"/>
       <use xlink:href="#TimesNewRomanPSMT-30" x="50"/>
      </g>
     </g>
    </g>
    <g id="xtick_6">
     <g id="line2d_6">
      <g>
       <use xlink:href="#m2271e8fa84" x="555.285368" y="358.33875" style="stroke: #000000; stroke-width: 0.8"/>
      </g>
     </g>
     <g id="text_6">
      <!-- 40 -->
      <g transform="translate(547.785368 375.754375) scale(0.15 -0.15)">
       <defs>
        <path id="TimesNewRomanPSMT-34" d="M 2978 1563 
L 2978 1119 
L 2409 1119 
L 2409 0 
L 1894 0 
L 1894 1119 
L 100 1119 
L 100 1519 
L 2066 4325 
L 2409 4325 
L 2409 1563 
L 2978 1563 
z
M 1894 1563 
L 1894 3666 
L 406 1563 
L 1894 1563 
z
" transform="scale(0.015625)"/>
       </defs>
       <use xlink:href="#TimesNewRomanPSMT-34"/>
       <use xlink:href="#TimesNewRomanPSMT-30" x="50"/>
      </g>
     </g>
    </g>
    <g id="xtick_7">
     <g id="line2d_7">
      <g>
       <use xlink:href="#m2271e8fa84" x="650.561859" y="358.33875" style="stroke: #000000; stroke-width: 0.8"/>
      </g>
     </g>
     <g id="text_7">
      <!-- 50 -->
      <g transform="translate(643.061859 375.754375) scale(0.15 -0.15)">
       <defs>
        <path id="TimesNewRomanPSMT-35" d="M 2778 4238 
L 2534 3706 
L 1259 3706 
L 981 3138 
Q 1809 3016 2294 2522 
Q 2709 2097 2709 1522 
Q 2709 1188 2573 903 
Q 2438 619 2231 419 
Q 2025 219 1772 97 
Q 1413 -75 1034 -75 
Q 653 -75 479 54 
Q 306 184 306 341 
Q 306 428 378 495 
Q 450 563 559 563 
Q 641 563 702 538 
Q 763 513 909 409 
Q 1144 247 1384 247 
Q 1750 247 2026 523 
Q 2303 800 2303 1197 
Q 2303 1581 2056 1914 
Q 1809 2247 1375 2428 
Q 1034 2569 447 2591 
L 1259 4238 
L 2778 4238 
z
" transform="scale(0.015625)"/>
       </defs>
       <use xlink:href="#TimesNewRomanPSMT-35"/>
       <use xlink:href="#TimesNewRomanPSMT-30" x="50"/>
      </g>
     </g>
    </g>
    <g id="text_8">
     <!-- s1, s2 -->
     <g transform="translate(375.785937 393.378594) scale(0.15 -0.15)">
      <defs>
       <path id="TimesNewRomanPSMT-73" d="M 2050 2947 
L 2050 1972 
L 1947 1972 
Q 1828 2431 1642 2597 
Q 1456 2763 1169 2763 
Q 950 2763 815 2647 
Q 681 2531 681 2391 
Q 681 2216 781 2091 
Q 878 1963 1175 1819 
L 1631 1597 
Q 2266 1288 2266 781 
Q 2266 391 1970 151 
Q 1675 -88 1309 -88 
Q 1047 -88 709 6 
Q 606 38 541 38 
Q 469 38 428 -44 
L 325 -44 
L 325 978 
L 428 978 
Q 516 541 762 319 
Q 1009 97 1316 97 
Q 1531 97 1667 223 
Q 1803 350 1803 528 
Q 1803 744 1651 891 
Q 1500 1038 1047 1263 
Q 594 1488 453 1669 
Q 313 1847 313 2119 
Q 313 2472 555 2709 
Q 797 2947 1181 2947 
Q 1350 2947 1591 2875 
Q 1750 2828 1803 2828 
Q 1853 2828 1881 2850 
Q 1909 2872 1947 2947 
L 2050 2947 
z
" transform="scale(0.015625)"/>
       <path id="TimesNewRomanPSMT-2c" d="M 344 -1066 
L 344 -928 
Q 666 -822 842 -598 
Q 1019 -375 1019 -125 
Q 1019 -66 991 -25 
Q 969 3 947 3 
Q 913 3 797 -59 
Q 741 -88 678 -88 
Q 525 -88 434 3 
Q 344 94 344 253 
Q 344 406 461 515 
Q 578 625 747 625 
Q 953 625 1114 445 
Q 1275 266 1275 -31 
Q 1275 -353 1051 -629 
Q 828 -906 344 -1066 
z
" transform="scale(0.015625)"/>
       <path id="TimesNewRomanPSMT-20" transform="scale(0.015625)"/>
      </defs>
      <use xlink:href="#TimesNewRomanPSMT-73"/>
      <use xlink:href="#TimesNewRomanPSMT-31" x="38.916016"/>
      <use xlink:href="#TimesNewRomanPSMT-2c" x="88.916016"/>
      <use xlink:href="#TimesNewRomanPSMT-20" x="113.916016"/>
      <use xlink:href="#TimesNewRomanPSMT-73" x="138.916016"/>
      <use xlink:href="#TimesNewRomanPSMT-32" x="177.832031"/>
     </g>
    </g>
   </g>
   <g id="matplotlib.axis_2">
    <g id="ytick_1">
     <g id="line2d_8">
      <defs>
       <path id="mac3dee6eef" d="M 0 0 
L -3.5 0 
" style="stroke: #000000; stroke-width: 0.8"/>
      </defs>
      <g>
       <use xlink:href="#mac3dee6eef" x="58.074219" y="358.33875" style="stroke: #000000; stroke-width: 0.8"/>
      </g>
     </g>
     <g id="text_9">
      <!-- 0.00 -->
      <g transform="translate(24.824219 363.546562) scale(0.15 -0.15)">
       <defs>
        <path id="TimesNewRomanPSMT-2e" d="M 800 606 
Q 947 606 1047 504 
Q 1147 403 1147 259 
Q 1147 116 1045 14 
Q 944 -88 800 -88 
Q 656 -88 554 14 
Q 453 116 453 259 
Q 453 406 554 506 
Q 656 606 800 606 
z
" transform="scale(0.015625)"/>
       </defs>
       <use xlink:href="#TimesNewRomanPSMT-30"/>
       <use xlink:href="#TimesNewRomanPSMT-2e" x="50"/>
       <use xlink:href="#TimesNewRomanPSMT-30" x="75"/>
       <use xlink:href="#TimesNewRomanPSMT-30" x="125"/>
      </g>
     </g>
    </g>
    <g id="ytick_2">
     <g id="line2d_9">
      <g>
       <use xlink:href="#mac3dee6eef" x="58.074219" y="304.563033" style="stroke: #000000; stroke-width: 0.8"/>
      </g>
     </g>
     <g id="text_10">
      <!-- 0.01 -->
      <g transform="translate(24.824219 309.770845) scale(0.15 -0.15)">
       <use xlink:href="#TimesNewRomanPSMT-30"/>
       <use xlink:href="#TimesNewRomanPSMT-2e" x="50"/>
       <use xlink:href="#TimesNewRomanPSMT-30" x="75"/>
       <use xlink:href="#TimesNewRomanPSMT-31" x="125"/>
      </g>
     </g>
    </g>
    <g id="ytick_3">
     <g id="line2d_10">
      <g>
       <use xlink:href="#mac3dee6eef" x="58.074219" y="250.787315" style="stroke: #000000; stroke-width: 0.8"/>
      </g>
     </g>
     <g id="text_11">
      <!-- 0.02 -->
      <g transform="translate(24.824219 255.995128) scale(0.15 -0.15)">
       <use xlink:href="#TimesNewRomanPSMT-30"/>
       <use xlink:href="#TimesNewRomanPSMT-2e" x="50"/>
       <use xlink:href="#TimesNewRomanPSMT-30" x="75"/>
       <use xlink:href="#TimesNewRomanPSMT-32" x="125"/>
      </g>
     </g>
    </g>
    <g id="ytick_4">
     <g id="line2d_11">
      <g>
       <use xlink:href="#mac3dee6eef" x="58.074219" y="197.011598" style="stroke: #000000; stroke-width: 0.8"/>
      </g>
     </g>
     <g id="text_12">
      <!-- 0.03 -->
      <g transform="translate(24.824219 202.21941) scale(0.15 -0.15)">
       <use xlink:href="#TimesNewRomanPSMT-30"/>
       <use xlink:href="#TimesNewRomanPSMT-2e" x="50"/>
       <use xlink:href="#TimesNewRomanPSMT-30" x="75"/>
       <use xlink:href="#TimesNewRomanPSMT-33" x="125"/>
      </g>
     </g>
    </g>
    <g id="ytick_5">
     <g id="line2d_12">
      <g>
       <use xlink:href="#mac3dee6eef" x="58.074219" y="143.23588" style="stroke: #000000; stroke-width: 0.8"/>
      </g>
     </g>
     <g id="text_13">
      <!-- 0.04 -->
      <g transform="translate(24.824219 148.443693) scale(0.15 -0.15)">
       <use xlink:href="#TimesNewRomanPSMT-30"/>
       <use xlink:href="#TimesNewRomanPSMT-2e" x="50"/>
       <use xlink:href="#TimesNewRomanPSMT-30" x="75"/>
       <use xlink:href="#TimesNewRomanPSMT-34" x="125"/>
      </g>
     </g>
    </g>
    <g id="ytick_6">
     <g id="line2d_13">
      <g>
       <use xlink:href="#mac3dee6eef" x="58.074219" y="89.460163" style="stroke: #000000; stroke-width: 0.8"/>
      </g>
     </g>
     <g id="text_14">
      <!-- 0.05 -->
      <g transform="translate(24.824219 94.667975) scale(0.15 -0.15)">
       <use xlink:href="#TimesNewRomanPSMT-30"/>
       <use xlink:href="#TimesNewRomanPSMT-2e" x="50"/>
       <use xlink:href="#TimesNewRomanPSMT-30" x="75"/>
       <use xlink:href="#TimesNewRomanPSMT-35" x="125"/>
      </g>
     </g>
    </g>
    <g id="ytick_7">
     <g id="line2d_14">
      <g>
       <use xlink:href="#mac3dee6eef" x="58.074219" y="35.684446" style="stroke: #000000; stroke-width: 0.8"/>
      </g>
     </g>
     <g id="text_15">
      <!-- 0.06 -->
      <g transform="translate(24.824219 40.892258) scale(0.15 -0.15)">
       <defs>
        <path id="TimesNewRomanPSMT-36" d="M 2869 4325 
L 2869 4209 
Q 2456 4169 2195 4045 
Q 1934 3922 1679 3669 
Q 1425 3416 1258 3105 
Q 1091 2794 978 2366 
Q 1428 2675 1881 2675 
Q 2316 2675 2634 2325 
Q 2953 1975 2953 1425 
Q 2953 894 2631 456 
Q 2244 -75 1606 -75 
Q 1172 -75 869 213 
Q 275 772 275 1663 
Q 275 2231 503 2743 
Q 731 3256 1154 3653 
Q 1578 4050 1965 4187 
Q 2353 4325 2688 4325 
L 2869 4325 
z
M 925 2138 
Q 869 1716 869 1456 
Q 869 1156 980 804 
Q 1091 453 1309 247 
Q 1469 100 1697 100 
Q 1969 100 2183 356 
Q 2397 613 2397 1088 
Q 2397 1622 2184 2012 
Q 1972 2403 1581 2403 
Q 1463 2403 1327 2353 
Q 1191 2303 925 2138 
z
" transform="scale(0.015625)"/>
       </defs>
       <use xlink:href="#TimesNewRomanPSMT-30"/>
       <use xlink:href="#TimesNewRomanPSMT-2e" x="50"/>
       <use xlink:href="#TimesNewRomanPSMT-30" x="75"/>
       <use xlink:href="#TimesNewRomanPSMT-36" x="125"/>
      </g>
     </g>
    </g>
    <g id="text_16">
     <!-- Frequency -->
     <g transform="translate(17.5875 223.674609) rotate(-90) scale(0.15 -0.15)">
      <defs>
       <path id="TimesNewRomanPSMT-46" d="M 1309 4006 
L 1309 2341 
L 2081 2341 
Q 2347 2341 2470 2458 
Q 2594 2575 2634 2922 
L 2750 2922 
L 2750 1488 
L 2634 1488 
Q 2631 1734 2570 1850 
Q 2509 1966 2401 2023 
Q 2294 2081 2081 2081 
L 1309 2081 
L 1309 750 
Q 1309 428 1350 325 
Q 1381 247 1481 191 
Q 1619 116 1769 116 
L 1922 116 
L 1922 0 
L 103 0 
L 103 116 
L 253 116 
Q 516 116 634 269 
Q 709 369 709 750 
L 709 3488 
Q 709 3809 669 3913 
Q 638 3991 541 4047 
Q 406 4122 253 4122 
L 103 4122 
L 103 4238 
L 3256 4238 
L 3297 3306 
L 3188 3306 
Q 3106 3603 2998 3742 
Q 2891 3881 2733 3943 
Q 2575 4006 2244 4006 
L 1309 4006 
z
" transform="scale(0.015625)"/>
       <path id="TimesNewRomanPSMT-72" d="M 1038 2947 
L 1038 2303 
Q 1397 2947 1775 2947 
Q 1947 2947 2059 2842 
Q 2172 2738 2172 2600 
Q 2172 2478 2090 2393 
Q 2009 2309 1897 2309 
Q 1788 2309 1652 2417 
Q 1516 2525 1450 2525 
Q 1394 2525 1328 2463 
Q 1188 2334 1038 2041 
L 1038 669 
Q 1038 431 1097 309 
Q 1138 225 1241 169 
Q 1344 113 1538 113 
L 1538 0 
L 72 0 
L 72 113 
Q 291 113 397 181 
Q 475 231 506 341 
Q 522 394 522 644 
L 522 1753 
Q 522 2253 501 2348 
Q 481 2444 426 2487 
Q 372 2531 291 2531 
Q 194 2531 72 2484 
L 41 2597 
L 906 2947 
L 1038 2947 
z
" transform="scale(0.015625)"/>
       <path id="TimesNewRomanPSMT-65" d="M 681 1784 
Q 678 1147 991 784 
Q 1303 422 1725 422 
Q 2006 422 2214 576 
Q 2422 731 2563 1106 
L 2659 1044 
Q 2594 616 2278 264 
Q 1963 -88 1488 -88 
Q 972 -88 605 314 
Q 238 716 238 1394 
Q 238 2128 614 2539 
Q 991 2950 1559 2950 
Q 2041 2950 2350 2633 
Q 2659 2316 2659 1784 
L 681 1784 
z
M 681 1966 
L 2006 1966 
Q 1991 2241 1941 2353 
Q 1863 2528 1708 2628 
Q 1553 2728 1384 2728 
Q 1125 2728 920 2526 
Q 716 2325 681 1966 
z
" transform="scale(0.015625)"/>
       <path id="TimesNewRomanPSMT-71" d="M 2734 2947 
L 2734 -734 
Q 2734 -1009 2771 -1087 
Q 2809 -1166 2889 -1209 
Q 2969 -1253 3200 -1253 
L 3200 -1369 
L 1756 -1369 
L 1756 -1253 
L 1816 -1253 
Q 1991 -1253 2081 -1203 
Q 2144 -1169 2181 -1080 
Q 2219 -991 2219 -734 
L 2219 497 
Q 1934 159 1721 35 
Q 1509 -88 1281 -88 
Q 866 -88 539 290 
Q 213 669 213 1303 
Q 213 2031 644 2489 
Q 1075 2947 1684 2947 
Q 1863 2947 2013 2897 
Q 2163 2847 2281 2747 
Q 2463 2834 2628 2947 
L 2734 2947 
z
M 2219 694 
L 2219 2038 
Q 2219 2272 2158 2406 
Q 2097 2541 1940 2634 
Q 1784 2728 1588 2728 
Q 1238 2728 988 2431 
Q 738 2134 738 1531 
Q 738 953 992 653 
Q 1247 353 1606 353 
Q 1791 353 1934 433 
Q 2078 513 2219 694 
z
" transform="scale(0.015625)"/>
       <path id="TimesNewRomanPSMT-75" d="M 2709 2863 
L 2709 1128 
Q 2709 631 2732 520 
Q 2756 409 2807 365 
Q 2859 322 2928 322 
Q 3025 322 3147 375 
L 3191 266 
L 2334 -88 
L 2194 -88 
L 2194 519 
Q 1825 119 1631 15 
Q 1438 -88 1222 -88 
Q 981 -88 804 51 
Q 628 191 559 409 
Q 491 628 491 1028 
L 491 2306 
Q 491 2509 447 2587 
Q 403 2666 317 2708 
Q 231 2750 6 2747 
L 6 2863 
L 1009 2863 
L 1009 947 
Q 1009 547 1148 422 
Q 1288 297 1484 297 
Q 1619 297 1789 381 
Q 1959 466 2194 703 
L 2194 2325 
Q 2194 2569 2105 2655 
Q 2016 2741 1734 2747 
L 1734 2863 
L 2709 2863 
z
" transform="scale(0.015625)"/>
       <path id="TimesNewRomanPSMT-6e" d="M 1034 2341 
Q 1538 2947 1994 2947 
Q 2228 2947 2397 2830 
Q 2566 2713 2666 2444 
Q 2734 2256 2734 1869 
L 2734 647 
Q 2734 375 2778 278 
Q 2813 200 2889 156 
Q 2966 113 3172 113 
L 3172 0 
L 1756 0 
L 1756 113 
L 1816 113 
Q 2016 113 2095 173 
Q 2175 234 2206 353 
Q 2219 400 2219 647 
L 2219 1819 
Q 2219 2209 2117 2386 
Q 2016 2563 1775 2563 
Q 1403 2563 1034 2156 
L 1034 647 
Q 1034 356 1069 288 
Q 1113 197 1189 155 
Q 1266 113 1500 113 
L 1500 0 
L 84 0 
L 84 113 
L 147 113 
Q 366 113 442 223 
Q 519 334 519 647 
L 519 1709 
Q 519 2225 495 2337 
Q 472 2450 423 2490 
Q 375 2531 294 2531 
Q 206 2531 84 2484 
L 38 2597 
L 900 2947 
L 1034 2947 
L 1034 2341 
z
" transform="scale(0.015625)"/>
       <path id="TimesNewRomanPSMT-63" d="M 2631 1088 
Q 2516 522 2178 217 
Q 1841 -88 1431 -88 
Q 944 -88 581 321 
Q 219 731 219 1428 
Q 219 2103 620 2525 
Q 1022 2947 1584 2947 
Q 2006 2947 2278 2723 
Q 2550 2500 2550 2259 
Q 2550 2141 2473 2067 
Q 2397 1994 2259 1994 
Q 2075 1994 1981 2113 
Q 1928 2178 1911 2362 
Q 1894 2547 1784 2644 
Q 1675 2738 1481 2738 
Q 1169 2738 978 2506 
Q 725 2200 725 1697 
Q 725 1184 976 792 
Q 1228 400 1656 400 
Q 1963 400 2206 609 
Q 2378 753 2541 1131 
L 2631 1088 
z
" transform="scale(0.015625)"/>
       <path id="TimesNewRomanPSMT-79" d="M 38 2863 
L 1372 2863 
L 1372 2747 
L 1306 2747 
Q 1166 2747 1095 2686 
Q 1025 2625 1025 2534 
Q 1025 2413 1128 2197 
L 1825 753 
L 2466 2334 
Q 2519 2463 2519 2588 
Q 2519 2644 2497 2672 
Q 2472 2706 2419 2726 
Q 2366 2747 2231 2747 
L 2231 2863 
L 3163 2863 
L 3163 2747 
Q 3047 2734 2984 2696 
Q 2922 2659 2847 2556 
Q 2819 2513 2741 2316 
L 1575 -541 
Q 1406 -956 1132 -1168 
Q 859 -1381 606 -1381 
Q 422 -1381 303 -1275 
Q 184 -1169 184 -1031 
Q 184 -900 270 -820 
Q 356 -741 506 -741 
Q 609 -741 788 -809 
Q 913 -856 944 -856 
Q 1038 -856 1148 -759 
Q 1259 -663 1372 -384 
L 1575 113 
L 547 2272 
Q 500 2369 397 2513 
Q 319 2622 269 2659 
Q 197 2709 38 2747 
L 38 2863 
z
" transform="scale(0.015625)"/>
      </defs>
      <use xlink:href="#TimesNewRomanPSMT-46"/>
      <use xlink:href="#TimesNewRomanPSMT-72" x="55.615234"/>
      <use xlink:href="#TimesNewRomanPSMT-65" x="88.916016"/>
      <use xlink:href="#TimesNewRomanPSMT-71" x="133.300781"/>
      <use xlink:href="#TimesNewRomanPSMT-75" x="183.300781"/>
      <use xlink:href="#TimesNewRomanPSMT-65" x="233.300781"/>
      <use xlink:href="#TimesNewRomanPSMT-6e" x="277.685547"/>
      <use xlink:href="#TimesNewRomanPSMT-63" x="327.685547"/>
      <use xlink:href="#TimesNewRomanPSMT-79" x="372.070312"/>
     </g>
    </g>
   </g>
   <g id="line2d_15">
    <path d="M 174.179404 358.293597 
L 178.991348 358.277822 
L 183.803292 358.256961 
L 188.615236 358.229524 
L 193.42718 358.193637 
L 198.239124 358.146954 
L 203.051068 358.086561 
L 207.863012 358.008866 
L 212.674956 357.909461 
L 217.4869 357.782989 
L 222.298844 357.622972 
L 227.110788 357.421643 
L 231.922732 357.169754 
L 236.734676 356.856377 
L 241.54662 356.468701 
L 246.358564 355.991821 
L 251.170508 355.408544 
L 255.982452 354.699199 
L 260.794396 353.841482 
L 265.60634 352.81033 
L 270.418284 351.577848 
L 275.230228 350.113302 
L 280.042172 348.383186 
L 284.854116 346.351393 
L 289.66606 343.979479 
L 294.478004 341.22707 
L 299.289948 338.052384 
L 304.101892 334.41291 
L 308.913836 330.266226 
L 313.72578 325.570967 
L 318.537724 320.287933 
L 323.349668 314.381325 
L 328.161612 307.820088 
L 332.973556 300.579338 
L 337.7855 292.641828 
L 342.597444 283.999425 
L 347.409388 274.654538 
L 352.221332 264.621446 
L 357.033275 253.927481 
L 361.845219 242.613989 
L 366.657163 230.737026 
L 371.469107 218.367731 
L 376.281051 205.592331 
L 381.092995 192.511735 
L 385.904939 179.240698 
L 390.716883 165.906537 
L 395.528827 152.647406 
L 400.340771 139.610141 
L 405.152715 126.947731 
L 409.964659 114.81645 
L 414.776603 103.372728 
L 419.588547 92.769852 
L 424.400491 83.154581 
L 429.212435 74.663782 
L 434.024379 67.421205 
L 438.836323 61.53448 
L 443.648267 57.092459 
L 448.460211 54.162988 
L 453.272155 52.791181 
L 458.084099 52.998264 
L 462.896043 54.781028 
L 467.707987 58.111914 
L 472.519931 62.93972 
L 477.331875 69.190909 
L 482.143819 76.771477 
L 486.955763 85.5693 
L 491.767707 95.456894 
L 496.579651 106.29448 
L 501.391595 117.933262 
L 506.203539 130.218805 
L 511.015483 142.994405 
L 515.827427 156.104356 
L 520.639371 169.397017 
L 525.451315 182.727593 
L 530.263259 195.960579 
L 535.075203 208.971798 
L 539.887147 221.650015 
L 544.699091 233.898102 
L 549.511035 245.633763 
L 554.322979 256.789824 
L 559.134923 267.314131 
L 563.946867 277.169088 
L 568.758811 286.330885 
L 573.570755 294.78847 
L 578.382699 302.542331 
L 583.194643 309.603127 
L 588.006587 315.990248 
L 592.818531 321.730336 
L 597.630475 326.855823 
L 602.442419 331.403524 
L 607.254363 335.413321 
L 612.066307 338.926956 
L 616.878251 341.986964 
L 621.690195 344.635738 
L 626.502139 346.914749 
L 631.314083 348.863913 
L 636.126027 350.521094 
L 640.937971 351.921739 
L 645.749915 353.098642 
L 650.561859 354.081794 
" clip-path="url(#p83fb436ba6)" style="fill: none; stroke: #ff0000; stroke-width: 1.5; stroke-linecap: square"/>
   </g>
   <g id="line2d_16">
    <path d="M 174.179404 354.156999 
L 178.991348 353.195622 
L 183.803292 352.045527 
L 188.615236 350.677573 
L 193.42718 349.059895 
L 198.239124 347.158029 
L 203.051068 344.935138 
L 207.863012 342.35236 
L 212.674956 339.369265 
L 217.4869 335.944463 
L 222.298844 332.036344 
L 227.110788 327.603957 
L 231.922732 322.608039 
L 236.734676 317.012158 
L 241.54662 310.78398 
L 246.358564 303.896617 
L 251.170508 296.330034 
L 255.982452 288.072479 
L 260.794396 279.121889 
L 265.60634 269.487219 
L 270.418284 259.189653 
L 275.230228 248.26363 
L 280.042172 236.757632 
L 284.854116 224.73469 
L 289.66606 212.272547 
L 294.478004 199.46345 
L 299.289948 186.413531 
L 304.101892 173.241763 
L 308.913836 160.07849 
L 313.72578 147.063535 
L 318.537724 134.34392 
L 323.349668 122.071246 
L 328.161612 110.398775 
L 332.973556 99.478317 
L 337.7855 89.456984 
L 342.597444 80.473913 
L 347.409388 72.657072 
L 352.221332 66.120224 
L 357.033275 60.960184 
L 361.845219 57.254429 
L 366.657163 55.059166 
L 371.469107 54.407909 
L 376.281051 55.310633 
L 381.092995 57.753517 
L 385.904939 61.699294 
L 390.716883 67.088203 
L 395.528827 73.839489 
L 400.340771 81.853419 
L 405.152715 91.013731 
L 409.964659 101.190437 
L 414.776603 112.242889 
L 419.588547 124.02299 
L 424.400491 136.378477 
L 429.212435 149.156148 
L 434.024379 162.204956 
L 438.836323 175.378873 
L 443.648267 188.539469 
L 448.460211 201.558124 
L 453.272155 214.317856 
L 458.084099 226.714724 
L 462.896043 238.658801 
L 467.707987 250.074722 
L 472.519931 260.901834 
L 477.331875 271.093974 
L 482.143819 280.61891 
L 486.955763 289.457516 
L 491.767707 297.602706 
L 496.579651 305.058206 
L 501.391595 311.837208 
L 506.203539 317.960954 
L 511.015483 323.457308 
L 515.827427 328.359358 
L 520.639371 332.704079 
L 525.451315 336.531081 
L 530.263259 339.881486 
L 535.075203 342.796928 
L 539.887147 345.318686 
L 544.699091 347.486973 
L 549.511035 349.340353 
L 554.322979 350.915296 
L 559.134923 352.245859 
L 563.946867 353.363471 
L 568.758811 354.296828 
L 573.570755 355.071856 
L 578.382699 355.711758 
L 583.194643 356.237107 
L 588.006587 356.665982 
L 592.818531 357.014137 
L 597.630475 357.295186 
L 602.442419 357.520803 
L 607.254363 357.700915 
L 612.066307 357.843906 
L 616.878251 357.956802 
L 621.690195 358.045447 
L 626.502139 358.114668 
L 631.314083 358.168428 
L 636.126027 358.20995 
L 640.937971 358.241848 
L 645.749915 358.266218 
L 650.561859 358.284737 
" clip-path="url(#p83fb436ba6)" style="fill: none; stroke: #008000; stroke-width: 1.5; stroke-linecap: square"/>
   </g>
   <g id="patch_103">
    <path d="M 58.074219 358.33875 
L 58.074219 25.69875 
" style="fill: none; stroke: #000000; stroke-width: 0.8; stroke-linejoin: miter; stroke-linecap: square"/>
   </g>
   <g id="patch_104">
    <path d="M 727.674219 358.33875 
L 727.674219 25.69875 
" style="fill: none; stroke: #000000; stroke-width: 0.8; stroke-linejoin: miter; stroke-linecap: square"/>
   </g>
   <g id="patch_105">
    <path d="M 58.074219 358.33875 
L 727.674219 358.33875 
" style="fill: none; stroke: #000000; stroke-width: 0.8; stroke-linejoin: miter; stroke-linecap: square"/>
   </g>
   <g id="patch_106">
    <path d="M 58.074219 25.69875 
L 727.674219 25.69875 
" style="fill: none; stroke: #000000; stroke-width: 0.8; stroke-linejoin: miter; stroke-linecap: square"/>
   </g>
   <g id="text_17">
    <!-- Histogram and Gaussian approx. of s1 and s2 -->
    <g transform="translate(229.397656 19.69875) scale(0.18 -0.18)">
     <defs>
      <path id="TimesNewRomanPSMT-48" d="M 1316 2272 
L 3284 2272 
L 3284 3484 
Q 3284 3809 3244 3913 
Q 3213 3991 3113 4047 
Q 2978 4122 2828 4122 
L 2678 4122 
L 2678 4238 
L 4491 4238 
L 4491 4122 
L 4341 4122 
Q 4191 4122 4056 4050 
Q 3956 4000 3920 3898 
Q 3884 3797 3884 3484 
L 3884 750 
Q 3884 428 3925 325 
Q 3956 247 4053 191 
Q 4191 116 4341 116 
L 4491 116 
L 4491 0 
L 2678 0 
L 2678 116 
L 2828 116 
Q 3088 116 3206 269 
Q 3284 369 3284 750 
L 3284 2041 
L 1316 2041 
L 1316 750 
Q 1316 428 1356 325 
Q 1388 247 1488 191 
Q 1622 116 1772 116 
L 1925 116 
L 1925 0 
L 109 0 
L 109 116 
L 259 116 
Q 522 116 641 269 
Q 716 369 716 750 
L 716 3484 
Q 716 3809 675 3913 
Q 644 3991 547 4047 
Q 409 4122 259 4122 
L 109 4122 
L 109 4238 
L 1925 4238 
L 1925 4122 
L 1772 4122 
Q 1622 4122 1488 4050 
Q 1391 4000 1353 3898 
Q 1316 3797 1316 3484 
L 1316 2272 
z
" transform="scale(0.015625)"/>
      <path id="TimesNewRomanPSMT-69" d="M 928 4444 
Q 1059 4444 1151 4351 
Q 1244 4259 1244 4128 
Q 1244 3997 1151 3903 
Q 1059 3809 928 3809 
Q 797 3809 703 3903 
Q 609 3997 609 4128 
Q 609 4259 701 4351 
Q 794 4444 928 4444 
z
M 1188 2947 
L 1188 647 
Q 1188 378 1227 289 
Q 1266 200 1342 156 
Q 1419 113 1622 113 
L 1622 0 
L 231 0 
L 231 113 
Q 441 113 512 153 
Q 584 194 626 287 
Q 669 381 669 647 
L 669 1750 
Q 669 2216 641 2353 
Q 619 2453 572 2492 
Q 525 2531 444 2531 
Q 356 2531 231 2484 
L 188 2597 
L 1050 2947 
L 1188 2947 
z
" transform="scale(0.015625)"/>
      <path id="TimesNewRomanPSMT-74" d="M 1031 3803 
L 1031 2863 
L 1700 2863 
L 1700 2644 
L 1031 2644 
L 1031 788 
Q 1031 509 1111 412 
Q 1191 316 1316 316 
Q 1419 316 1516 380 
Q 1613 444 1666 569 
L 1788 569 
Q 1678 263 1478 108 
Q 1278 -47 1066 -47 
Q 922 -47 784 33 
Q 647 113 581 261 
Q 516 409 516 719 
L 516 2644 
L 63 2644 
L 63 2747 
Q 234 2816 414 2980 
Q 594 3144 734 3369 
Q 806 3488 934 3803 
L 1031 3803 
z
" transform="scale(0.015625)"/>
      <path id="TimesNewRomanPSMT-6f" d="M 1600 2947 
Q 2250 2947 2644 2453 
Q 2978 2031 2978 1484 
Q 2978 1100 2793 706 
Q 2609 313 2286 112 
Q 1963 -88 1566 -88 
Q 919 -88 538 428 
Q 216 863 216 1403 
Q 216 1797 411 2186 
Q 606 2575 925 2761 
Q 1244 2947 1600 2947 
z
M 1503 2744 
Q 1338 2744 1170 2645 
Q 1003 2547 900 2300 
Q 797 2053 797 1666 
Q 797 1041 1045 587 
Q 1294 134 1700 134 
Q 2003 134 2200 384 
Q 2397 634 2397 1244 
Q 2397 2006 2069 2444 
Q 1847 2744 1503 2744 
z
" transform="scale(0.015625)"/>
      <path id="TimesNewRomanPSMT-67" d="M 966 1044 
Q 703 1172 562 1401 
Q 422 1631 422 1909 
Q 422 2334 742 2640 
Q 1063 2947 1563 2947 
Q 1972 2947 2272 2747 
L 2878 2747 
Q 3013 2747 3034 2739 
Q 3056 2731 3066 2713 
Q 3084 2684 3084 2613 
Q 3084 2531 3069 2500 
Q 3059 2484 3036 2475 
Q 3013 2466 2878 2466 
L 2506 2466 
Q 2681 2241 2681 1891 
Q 2681 1491 2375 1206 
Q 2069 922 1553 922 
Q 1341 922 1119 984 
Q 981 866 932 777 
Q 884 688 884 625 
Q 884 572 936 522 
Q 988 472 1138 450 
Q 1225 438 1575 428 
Q 2219 413 2409 384 
Q 2700 344 2873 169 
Q 3047 -6 3047 -263 
Q 3047 -616 2716 -925 
Q 2228 -1381 1444 -1381 
Q 841 -1381 425 -1109 
Q 191 -953 191 -784 
Q 191 -709 225 -634 
Q 278 -519 444 -313 
Q 466 -284 763 25 
Q 600 122 533 198 
Q 466 275 466 372 
Q 466 481 555 628 
Q 644 775 966 1044 
z
M 1509 2797 
Q 1278 2797 1122 2612 
Q 966 2428 966 2047 
Q 966 1553 1178 1281 
Q 1341 1075 1591 1075 
Q 1828 1075 1981 1253 
Q 2134 1431 2134 1813 
Q 2134 2309 1919 2591 
Q 1759 2797 1509 2797 
z
M 934 0 
Q 788 -159 713 -296 
Q 638 -434 638 -550 
Q 638 -700 819 -813 
Q 1131 -1006 1722 -1006 
Q 2284 -1006 2551 -807 
Q 2819 -609 2819 -384 
Q 2819 -222 2659 -153 
Q 2497 -84 2016 -72 
Q 1313 -53 934 0 
z
" transform="scale(0.015625)"/>
      <path id="TimesNewRomanPSMT-61" d="M 1822 413 
Q 1381 72 1269 19 
Q 1100 -59 909 -59 
Q 613 -59 420 144 
Q 228 347 228 678 
Q 228 888 322 1041 
Q 450 1253 767 1440 
Q 1084 1628 1822 1897 
L 1822 2009 
Q 1822 2438 1686 2597 
Q 1550 2756 1291 2756 
Q 1094 2756 978 2650 
Q 859 2544 859 2406 
L 866 2225 
Q 866 2081 792 2003 
Q 719 1925 600 1925 
Q 484 1925 411 2006 
Q 338 2088 338 2228 
Q 338 2497 613 2722 
Q 888 2947 1384 2947 
Q 1766 2947 2009 2819 
Q 2194 2722 2281 2516 
Q 2338 2381 2338 1966 
L 2338 994 
Q 2338 584 2353 492 
Q 2369 400 2405 369 
Q 2441 338 2488 338 
Q 2538 338 2575 359 
Q 2641 400 2828 588 
L 2828 413 
Q 2478 -56 2159 -56 
Q 2006 -56 1915 50 
Q 1825 156 1822 413 
z
M 1822 616 
L 1822 1706 
Q 1350 1519 1213 1441 
Q 966 1303 859 1153 
Q 753 1003 753 825 
Q 753 600 887 451 
Q 1022 303 1197 303 
Q 1434 303 1822 616 
z
" transform="scale(0.015625)"/>
      <path id="TimesNewRomanPSMT-6d" d="M 1050 2338 
Q 1363 2650 1419 2697 
Q 1559 2816 1721 2881 
Q 1884 2947 2044 2947 
Q 2313 2947 2506 2790 
Q 2700 2634 2766 2338 
Q 3088 2713 3309 2830 
Q 3531 2947 3766 2947 
Q 3994 2947 4170 2830 
Q 4347 2713 4450 2447 
Q 4519 2266 4519 1878 
L 4519 647 
Q 4519 378 4559 278 
Q 4591 209 4675 161 
Q 4759 113 4950 113 
L 4950 0 
L 3538 0 
L 3538 113 
L 3597 113 
Q 3781 113 3884 184 
Q 3956 234 3988 344 
Q 4000 397 4000 647 
L 4000 1878 
Q 4000 2228 3916 2372 
Q 3794 2572 3525 2572 
Q 3359 2572 3192 2489 
Q 3025 2406 2788 2181 
L 2781 2147 
L 2788 2013 
L 2788 647 
Q 2788 353 2820 281 
Q 2853 209 2943 161 
Q 3034 113 3253 113 
L 3253 0 
L 1806 0 
L 1806 113 
Q 2044 113 2133 169 
Q 2222 225 2256 338 
Q 2272 391 2272 647 
L 2272 1878 
Q 2272 2228 2169 2381 
Q 2031 2581 1784 2581 
Q 1616 2581 1450 2491 
Q 1191 2353 1050 2181 
L 1050 647 
Q 1050 366 1089 281 
Q 1128 197 1204 155 
Q 1281 113 1516 113 
L 1516 0 
L 100 0 
L 100 113 
Q 297 113 375 155 
Q 453 197 493 289 
Q 534 381 534 647 
L 534 1741 
Q 534 2213 506 2350 
Q 484 2453 437 2492 
Q 391 2531 309 2531 
Q 222 2531 100 2484 
L 53 2597 
L 916 2947 
L 1050 2947 
L 1050 2338 
z
" transform="scale(0.015625)"/>
      <path id="TimesNewRomanPSMT-64" d="M 2222 322 
Q 2013 103 1813 7 
Q 1613 -88 1381 -88 
Q 913 -88 563 304 
Q 213 697 213 1313 
Q 213 1928 600 2439 
Q 988 2950 1597 2950 
Q 1975 2950 2222 2709 
L 2222 3238 
Q 2222 3728 2198 3840 
Q 2175 3953 2125 3993 
Q 2075 4034 2000 4034 
Q 1919 4034 1784 3984 
L 1744 4094 
L 2597 4444 
L 2738 4444 
L 2738 1134 
Q 2738 631 2761 520 
Q 2784 409 2836 365 
Q 2888 322 2956 322 
Q 3041 322 3181 375 
L 3216 266 
L 2366 -88 
L 2222 -88 
L 2222 322 
z
M 2222 541 
L 2222 2016 
Q 2203 2228 2109 2403 
Q 2016 2578 1861 2667 
Q 1706 2756 1559 2756 
Q 1284 2756 1069 2509 
Q 784 2184 784 1559 
Q 784 928 1059 592 
Q 1334 256 1672 256 
Q 1956 256 2222 541 
z
" transform="scale(0.015625)"/>
      <path id="TimesNewRomanPSMT-47" d="M 3928 4334 
L 4038 2997 
L 3928 2997 
Q 3763 3497 3500 3750 
Q 3122 4116 2528 4116 
Q 1719 4116 1297 3475 
Q 944 2934 944 2188 
Q 944 1581 1178 1081 
Q 1413 581 1792 348 
Q 2172 116 2572 116 
Q 2806 116 3025 175 
Q 3244 234 3447 350 
L 3447 1575 
Q 3447 1894 3398 1992 
Q 3350 2091 3248 2142 
Q 3147 2194 2891 2194 
L 2891 2313 
L 4531 2313 
L 4531 2194 
L 4453 2194 
Q 4209 2194 4119 2031 
Q 4056 1916 4056 1575 
L 4056 278 
Q 3697 84 3347 -6 
Q 2997 -97 2569 -97 
Q 1341 -97 703 691 
Q 225 1281 225 2053 
Q 225 2613 494 3125 
Q 813 3734 1369 4063 
Q 1834 4334 2469 4334 
Q 2700 4334 2889 4296 
Q 3078 4259 3425 4131 
Q 3600 4066 3659 4066 
Q 3719 4066 3761 4120 
Q 3803 4175 3813 4334 
L 3928 4334 
z
" transform="scale(0.015625)"/>
      <path id="TimesNewRomanPSMT-70" d="M -6 2578 
L 875 2934 
L 994 2934 
L 994 2266 
Q 1216 2644 1439 2795 
Q 1663 2947 1909 2947 
Q 2341 2947 2628 2609 
Q 2981 2197 2981 1534 
Q 2981 794 2556 309 
Q 2206 -88 1675 -88 
Q 1444 -88 1275 -22 
Q 1150 25 994 166 
L 994 -706 
Q 994 -1000 1030 -1079 
Q 1066 -1159 1155 -1206 
Q 1244 -1253 1478 -1253 
L 1478 -1369 
L -22 -1369 
L -22 -1253 
L 56 -1253 
Q 228 -1256 350 -1188 
Q 409 -1153 442 -1076 
Q 475 -1000 475 -688 
L 475 2019 
Q 475 2297 450 2372 
Q 425 2447 370 2484 
Q 316 2522 222 2522 
Q 147 2522 31 2478 
L -6 2578 
z
M 994 2081 
L 994 1013 
Q 994 666 1022 556 
Q 1066 375 1236 237 
Q 1406 100 1666 100 
Q 1978 100 2172 344 
Q 2425 663 2425 1241 
Q 2425 1897 2138 2250 
Q 1938 2494 1663 2494 
Q 1513 2494 1366 2419 
Q 1253 2363 994 2081 
z
" transform="scale(0.015625)"/>
      <path id="TimesNewRomanPSMT-78" d="M 84 2863 
L 1431 2863 
L 1431 2747 
Q 1303 2747 1251 2703 
Q 1200 2659 1200 2588 
Q 1200 2513 1309 2356 
Q 1344 2306 1413 2200 
L 1616 1875 
L 1850 2200 
Q 2075 2509 2075 2591 
Q 2075 2656 2022 2701 
Q 1969 2747 1850 2747 
L 1850 2863 
L 2819 2863 
L 2819 2747 
Q 2666 2738 2553 2663 
Q 2400 2556 2134 2200 
L 1744 1678 
L 2456 653 
Q 2719 275 2831 198 
Q 2944 122 3122 113 
L 3122 0 
L 1772 0 
L 1772 113 
Q 1913 113 1991 175 
Q 2050 219 2050 291 
Q 2050 363 1850 653 
L 1431 1266 
L 972 653 
Q 759 369 759 316 
Q 759 241 829 180 
Q 900 119 1041 113 
L 1041 0 
L 106 0 
L 106 113 
Q 219 128 303 191 
Q 422 281 703 653 
L 1303 1450 
L 759 2238 
Q 528 2575 401 2661 
Q 275 2747 84 2747 
L 84 2863 
z
" transform="scale(0.015625)"/>
      <path id="TimesNewRomanPSMT-66" d="M 1319 2638 
L 1319 756 
Q 1319 356 1406 250 
Q 1522 113 1716 113 
L 1975 113 
L 1975 0 
L 266 0 
L 266 113 
L 394 113 
Q 519 113 622 175 
Q 725 238 764 344 
Q 803 450 803 756 
L 803 2638 
L 247 2638 
L 247 2863 
L 803 2863 
L 803 3050 
Q 803 3478 940 3775 
Q 1078 4072 1361 4255 
Q 1644 4438 1997 4438 
Q 2325 4438 2600 4225 
Q 2781 4084 2781 3909 
Q 2781 3816 2700 3733 
Q 2619 3650 2525 3650 
Q 2453 3650 2373 3701 
Q 2294 3753 2178 3923 
Q 2063 4094 1966 4153 
Q 1869 4213 1750 4213 
Q 1606 4213 1506 4136 
Q 1406 4059 1362 3898 
Q 1319 3738 1319 3069 
L 1319 2863 
L 2056 2863 
L 2056 2638 
L 1319 2638 
z
" transform="scale(0.015625)"/>
     </defs>
     <use xlink:href="#TimesNewRomanPSMT-48"/>
     <use xlink:href="#TimesNewRomanPSMT-69" x="72.216797"/>
     <use xlink:href="#TimesNewRomanPSMT-73" x="100"/>
     <use xlink:href="#TimesNewRomanPSMT-74" x="138.916016"/>
     <use xlink:href="#TimesNewRomanPSMT-6f" x="166.699219"/>
     <use xlink:href="#TimesNewRomanPSMT-67" x="216.699219"/>
     <use xlink:href="#TimesNewRomanPSMT-72" x="266.699219"/>
     <use xlink:href="#TimesNewRomanPSMT-61" x="300"/>
     <use xlink:href="#TimesNewRomanPSMT-6d" x="344.384766"/>
     <use xlink:href="#TimesNewRomanPSMT-20" x="422.167969"/>
     <use xlink:href="#TimesNewRomanPSMT-61" x="447.167969"/>
     <use xlink:href="#TimesNewRomanPSMT-6e" x="491.552734"/>
     <use xlink:href="#TimesNewRomanPSMT-64" x="541.552734"/>
     <use xlink:href="#TimesNewRomanPSMT-20" x="591.552734"/>
     <use xlink:href="#TimesNewRomanPSMT-47" x="616.552734"/>
     <use xlink:href="#TimesNewRomanPSMT-61" x="688.769531"/>
     <use xlink:href="#TimesNewRomanPSMT-75" x="733.154297"/>
     <use xlink:href="#TimesNewRomanPSMT-73" x="783.154297"/>
     <use xlink:href="#TimesNewRomanPSMT-73" x="822.070312"/>
     <use xlink:href="#TimesNewRomanPSMT-69" x="860.986328"/>
     <use xlink:href="#TimesNewRomanPSMT-61" x="888.769531"/>
     <use xlink:href="#TimesNewRomanPSMT-6e" x="933.154297"/>
     <use xlink:href="#TimesNewRomanPSMT-20" x="983.154297"/>
     <use xlink:href="#TimesNewRomanPSMT-61" x="1008.154297"/>
     <use xlink:href="#TimesNewRomanPSMT-70" x="1052.539062"/>
     <use xlink:href="#TimesNewRomanPSMT-70" x="1102.539062"/>
     <use xlink:href="#TimesNewRomanPSMT-72" x="1152.539062"/>
     <use xlink:href="#TimesNewRomanPSMT-6f" x="1185.839844"/>
     <use xlink:href="#TimesNewRomanPSMT-78" x="1235.839844"/>
     <use xlink:href="#TimesNewRomanPSMT-2e" x="1285.839844"/>
     <use xlink:href="#TimesNewRomanPSMT-20" x="1310.839844"/>
     <use xlink:href="#TimesNewRomanPSMT-6f" x="1335.839844"/>
     <use xlink:href="#TimesNewRomanPSMT-66" x="1385.839844"/>
     <use xlink:href="#TimesNewRomanPSMT-20" x="1419.140625"/>
     <use xlink:href="#TimesNewRomanPSMT-73" x="1444.140625"/>
     <use xlink:href="#TimesNewRomanPSMT-31" x="1483.056641"/>
     <use xlink:href="#TimesNewRomanPSMT-20" x="1533.056641"/>
     <use xlink:href="#TimesNewRomanPSMT-61" x="1558.056641"/>
     <use xlink:href="#TimesNewRomanPSMT-6e" x="1602.441406"/>
     <use xlink:href="#TimesNewRomanPSMT-64" x="1652.441406"/>
     <use xlink:href="#TimesNewRomanPSMT-20" x="1702.441406"/>
     <use xlink:href="#TimesNewRomanPSMT-73" x="1727.441406"/>
     <use xlink:href="#TimesNewRomanPSMT-32" x="1766.357422"/>
    </g>
   </g>
   <g id="legend_1">
    <g id="patch_107">
     <path d="M 68.574219 122.533125 
L 279.886719 122.533125 
Q 282.886719 122.533125 282.886719 119.533125 
L 282.886719 36.19875 
Q 282.886719 33.19875 279.886719 33.19875 
L 68.574219 33.19875 
Q 65.574219 33.19875 65.574219 36.19875 
L 65.574219 119.533125 
Q 65.574219 122.533125 68.574219 122.533125 
z
" style="fill: #ffffff; opacity: 0.8; stroke: #cccccc; stroke-linejoin: miter"/>
    </g>
    <g id="patch_108">
     <path d="M 71.574219 49.69875 
L 101.574219 49.69875 
L 101.574219 39.19875 
L 71.574219 39.19875 
z
" style="fill: #0000ff"/>
    </g>
    <g id="text_18">
     <!-- s1 samples -->
     <g transform="translate(113.574219 49.69875) scale(0.15 -0.15)">
      <defs>
       <path id="TimesNewRomanPSMT-6c" d="M 1184 4444 
L 1184 647 
Q 1184 378 1223 290 
Q 1263 203 1344 158 
Q 1425 113 1647 113 
L 1647 0 
L 244 0 
L 244 113 
Q 441 113 512 153 
Q 584 194 625 287 
Q 666 381 666 647 
L 666 3247 
Q 666 3731 644 3842 
Q 622 3953 573 3993 
Q 525 4034 450 4034 
Q 369 4034 244 3984 
L 191 4094 
L 1044 4444 
L 1184 4444 
z
" transform="scale(0.015625)"/>
      </defs>
      <use xlink:href="#TimesNewRomanPSMT-73"/>
      <use xlink:href="#TimesNewRomanPSMT-31" x="38.916016"/>
      <use xlink:href="#TimesNewRomanPSMT-20" x="88.916016"/>
      <use xlink:href="#TimesNewRomanPSMT-73" x="113.916016"/>
      <use xlink:href="#TimesNewRomanPSMT-61" x="152.832031"/>
      <use xlink:href="#TimesNewRomanPSMT-6d" x="197.216797"/>
      <use xlink:href="#TimesNewRomanPSMT-70" x="275"/>
      <use xlink:href="#TimesNewRomanPSMT-6c" x="325"/>
      <use xlink:href="#TimesNewRomanPSMT-65" x="352.783203"/>
      <use xlink:href="#TimesNewRomanPSMT-73" x="397.167969"/>
     </g>
    </g>
    <g id="line2d_17">
     <path d="M 71.574219 65.657344 
L 86.574219 65.657344 
L 101.574219 65.657344 
" style="fill: none; stroke: #ff0000; stroke-width: 1.5; stroke-linecap: square"/>
    </g>
    <g id="text_19">
     <!-- s1 Gaussian approximation -->
     <g transform="translate(113.574219 70.907344) scale(0.15 -0.15)">
      <use xlink:href="#TimesNewRomanPSMT-73"/>
      <use xlink:href="#TimesNewRomanPSMT-31" x="38.916016"/>
      <use xlink:href="#TimesNewRomanPSMT-20" x="88.916016"/>
      <use xlink:href="#TimesNewRomanPSMT-47" x="113.916016"/>
      <use xlink:href="#TimesNewRomanPSMT-61" x="186.132812"/>
      <use xlink:href="#TimesNewRomanPSMT-75" x="230.517578"/>
      <use xlink:href="#TimesNewRomanPSMT-73" x="280.517578"/>
      <use xlink:href="#TimesNewRomanPSMT-73" x="319.433594"/>
      <use xlink:href="#TimesNewRomanPSMT-69" x="358.349609"/>
      <use xlink:href="#TimesNewRomanPSMT-61" x="386.132812"/>
      <use xlink:href="#TimesNewRomanPSMT-6e" x="430.517578"/>
      <use xlink:href="#TimesNewRomanPSMT-20" x="480.517578"/>
      <use xlink:href="#TimesNewRomanPSMT-61" x="505.517578"/>
      <use xlink:href="#TimesNewRomanPSMT-70" x="549.902344"/>
      <use xlink:href="#TimesNewRomanPSMT-70" x="599.902344"/>
      <use xlink:href="#TimesNewRomanPSMT-72" x="649.902344"/>
      <use xlink:href="#TimesNewRomanPSMT-6f" x="683.203125"/>
      <use xlink:href="#TimesNewRomanPSMT-78" x="733.203125"/>
      <use xlink:href="#TimesNewRomanPSMT-69" x="783.203125"/>
      <use xlink:href="#TimesNewRomanPSMT-6d" x="810.986328"/>
      <use xlink:href="#TimesNewRomanPSMT-61" x="888.769531"/>
      <use xlink:href="#TimesNewRomanPSMT-74" x="933.154297"/>
      <use xlink:href="#TimesNewRomanPSMT-69" x="960.9375"/>
      <use xlink:href="#TimesNewRomanPSMT-6f" x="988.720703"/>
      <use xlink:href="#TimesNewRomanPSMT-6e" x="1038.720703"/>
     </g>
    </g>
    <g id="patch_109">
     <path d="M 71.574219 92.115937 
L 101.574219 92.115937 
L 101.574219 81.615937 
L 71.574219 81.615937 
z
" style="fill: #ffa500"/>
    </g>
    <g id="text_20">
     <!-- s2 samples -->
     <g transform="translate(113.574219 92.115937) scale(0.15 -0.15)">
      <use xlink:href="#TimesNewRomanPSMT-73"/>
      <use xlink:href="#TimesNewRomanPSMT-32" x="38.916016"/>
      <use xlink:href="#TimesNewRomanPSMT-20" x="88.916016"/>
      <use xlink:href="#TimesNewRomanPSMT-73" x="113.916016"/>
      <use xlink:href="#TimesNewRomanPSMT-61" x="152.832031"/>
      <use xlink:href="#TimesNewRomanPSMT-6d" x="197.216797"/>
      <use xlink:href="#TimesNewRomanPSMT-70" x="275"/>
      <use xlink:href="#TimesNewRomanPSMT-6c" x="325"/>
      <use xlink:href="#TimesNewRomanPSMT-65" x="352.783203"/>
      <use xlink:href="#TimesNewRomanPSMT-73" x="397.167969"/>
     </g>
    </g>
    <g id="line2d_18">
     <path d="M 71.574219 108.074531 
L 86.574219 108.074531 
L 101.574219 108.074531 
" style="fill: none; stroke: #008000; stroke-width: 1.5; stroke-linecap: square"/>
    </g>
    <g id="text_21">
     <!-- s2 Gaussian approximation -->
     <g transform="translate(113.574219 113.324531) scale(0.15 -0.15)">
      <use xlink:href="#TimesNewRomanPSMT-73"/>
      <use xlink:href="#TimesNewRomanPSMT-32" x="38.916016"/>
      <use xlink:href="#TimesNewRomanPSMT-20" x="88.916016"/>
      <use xlink:href="#TimesNewRomanPSMT-47" x="113.916016"/>
      <use xlink:href="#TimesNewRomanPSMT-61" x="186.132812"/>
      <use xlink:href="#TimesNewRomanPSMT-75" x="230.517578"/>
      <use xlink:href="#TimesNewRomanPSMT-73" x="280.517578"/>
      <use xlink:href="#TimesNewRomanPSMT-73" x="319.433594"/>
      <use xlink:href="#TimesNewRomanPSMT-69" x="358.349609"/>
      <use xlink:href="#TimesNewRomanPSMT-61" x="386.132812"/>
      <use xlink:href="#TimesNewRomanPSMT-6e" x="430.517578"/>
      <use xlink:href="#TimesNewRomanPSMT-20" x="480.517578"/>
      <use xlink:href="#TimesNewRomanPSMT-61" x="505.517578"/>
      <use xlink:href="#TimesNewRomanPSMT-70" x="549.902344"/>
      <use xlink:href="#TimesNewRomanPSMT-70" x="599.902344"/>
      <use xlink:href="#TimesNewRomanPSMT-72" x="649.902344"/>
      <use xlink:href="#TimesNewRomanPSMT-6f" x="683.203125"/>
      <use xlink:href="#TimesNewRomanPSMT-78" x="733.203125"/>
      <use xlink:href="#TimesNewRomanPSMT-69" x="783.203125"/>
      <use xlink:href="#TimesNewRomanPSMT-6d" x="810.986328"/>
      <use xlink:href="#TimesNewRomanPSMT-61" x="888.769531"/>
      <use xlink:href="#TimesNewRomanPSMT-74" x="933.154297"/>
      <use xlink:href="#TimesNewRomanPSMT-69" x="960.9375"/>
      <use xlink:href="#TimesNewRomanPSMT-6f" x="988.720703"/>
      <use xlink:href="#TimesNewRomanPSMT-6e" x="1038.720703"/>
     </g>
    </g>
   </g>
  </g>
 </g>
 <defs>
  <clipPath id="p83fb436ba6">
   <rect x="58.074219" y="25.69875" width="669.6" height="332.64"/>
  </clipPath>
 </defs>
</svg>
