<?xml version="1.0" encoding="utf-8" standalone="no"?>
<!DOCTYPE svg PUBLIC "-//W3C//DTD SVG 1.1//EN"
  "http://www.w3.org/Graphics/SVG/1.1/DTD/svg11.dtd">
<svg xmlns:xlink="http://www.w3.org/1999/xlink" width="734.874219pt" height="403.787187pt" viewBox="0 0 734.874219 403.787187" xmlns="http://www.w3.org/2000/svg" version="1.1">
 <metadata>
  <rdf:RDF xmlns:dc="http://purl.org/dc/elements/1.1/" xmlns:cc="http://creativecommons.org/ns#" xmlns:rdf="http://www.w3.org/1999/02/22-rdf-syntax-ns#">
   <cc:Work>
    <dc:type rdf:resource="http://purl.org/dc/dcmitype/StillImage"/>
    <dc:date>2023-10-16T23:08:45.965711</dc:date>
    <dc:format>image/svg+xml</dc:format>
    <dc:creator>
     <cc:Agent>
      <dc:title>Matplotlib v3.8.0, https://matplotlib.org/</dc:title>
     </cc:Agent>
    </dc:creator>
   </cc:Work>
  </rdf:RDF>
 </metadata>
 <defs>
  <style type="text/css">*{stroke-linejoin: round; stroke-linecap: butt}</style>
 </defs>
 <g id="figure_1">
  <g id="patch_1">
   <path d="M 0 403.787187 
L 734.874219 403.787187 
L 734.874219 0 
L 0 0 
z
" style="fill: #ffffff"/>
  </g>
  <g id="axes_1">
   <g id="patch_2">
    <path d="M 58.074219 358.33875 
L 727.674219 358.33875 
L 727.674219 25.69875 
L 58.074219 25.69875 
z
" style="fill: #ffffff"/>
   </g>
   <g id="patch_3">
    <path d="M 148.159031 358.33875 
L 159.140607 358.33875 
L 159.140607 357.226546 
L 148.159031 357.226546 
z
" clip-path="url(#p17bb0e2967)" style="fill: #0000ff"/>
   </g>
   <g id="patch_4">
    <path d="M 159.140607 358.33875 
L 170.122184 358.33875 
L 170.122184 357.226546 
L 159.140607 357.226546 
z
" clip-path="url(#p17bb0e2967)" style="fill: #0000ff"/>
   </g>
   <g id="patch_5">
    <path d="M 170.122184 358.33875 
L 181.10376 358.33875 
L 181.10376 358.33875 
L 170.122184 358.33875 
z
" clip-path="url(#p17bb0e2967)" style="fill: #0000ff"/>
   </g>
   <g id="patch_6">
    <path d="M 181.10376 358.33875 
L 192.085337 358.33875 
L 192.085337 355.002138 
L 181.10376 355.002138 
z
" clip-path="url(#p17bb0e2967)" style="fill: #0000ff"/>
   </g>
   <g id="patch_7">
    <path d="M 192.085337 358.33875 
L 203.066913 358.33875 
L 203.066913 356.114342 
L 192.085337 356.114342 
z
" clip-path="url(#p17bb0e2967)" style="fill: #0000ff"/>
   </g>
   <g id="patch_8">
    <path d="M 203.066913 358.33875 
L 214.048489 358.33875 
L 214.048489 355.002138 
L 203.066913 355.002138 
z
" clip-path="url(#p17bb0e2967)" style="fill: #0000ff"/>
   </g>
   <g id="patch_9">
    <path d="M 214.048489 358.33875 
L 225.030066 358.33875 
L 225.030066 352.77773 
L 214.048489 352.77773 
z
" clip-path="url(#p17bb0e2967)" style="fill: #0000ff"/>
   </g>
   <g id="patch_10">
    <path d="M 225.030066 358.33875 
L 236.011642 358.33875 
L 236.011642 349.441118 
L 225.030066 349.441118 
z
" clip-path="url(#p17bb0e2967)" style="fill: #0000ff"/>
   </g>
   <g id="patch_11">
    <path d="M 236.011642 358.33875 
L 246.993219 358.33875 
L 246.993219 342.767895 
L 236.011642 342.767895 
z
" clip-path="url(#p17bb0e2967)" style="fill: #0000ff"/>
   </g>
   <g id="patch_12">
    <path d="M 246.993219 358.33875 
L 257.974795 358.33875 
L 257.974795 339.431283 
L 246.993219 339.431283 
z
" clip-path="url(#p17bb0e2967)" style="fill: #0000ff"/>
   </g>
   <g id="patch_13">
    <path d="M 257.974795 358.33875 
L 268.956372 358.33875 
L 268.956372 317.187204 
L 257.974795 317.187204 
z
" clip-path="url(#p17bb0e2967)" style="fill: #0000ff"/>
   </g>
   <g id="patch_14">
    <path d="M 268.956372 358.33875 
L 279.937948 358.33875 
L 279.937948 299.391941 
L 268.956372 299.391941 
z
" clip-path="url(#p17bb0e2967)" style="fill: #0000ff"/>
   </g>
   <g id="patch_15">
    <path d="M 279.937948 358.33875 
L 290.919525 358.33875 
L 290.919525 290.49431 
L 279.937948 290.49431 
z
" clip-path="url(#p17bb0e2967)" style="fill: #0000ff"/>
   </g>
   <g id="patch_16">
    <path d="M 290.919525 358.33875 
L 301.901101 358.33875 
L 301.901101 257.128191 
L 290.919525 257.128191 
z
" clip-path="url(#p17bb0e2967)" style="fill: #0000ff"/>
   </g>
   <g id="patch_17">
    <path d="M 301.901101 358.33875 
L 312.882678 358.33875 
L 312.882678 243.781744 
L 301.901101 243.781744 
z
" clip-path="url(#p17bb0e2967)" style="fill: #0000ff"/>
   </g>
   <g id="patch_18">
    <path d="M 312.882678 358.33875 
L 323.864254 358.33875 
L 323.864254 205.96681 
L 312.882678 205.96681 
z
" clip-path="url(#p17bb0e2967)" style="fill: #0000ff"/>
   </g>
   <g id="patch_19">
    <path d="M 323.864254 358.33875 
L 334.845831 358.33875 
L 334.845831 208.191218 
L 323.864254 208.191218 
z
" clip-path="url(#p17bb0e2967)" style="fill: #0000ff"/>
   </g>
   <g id="patch_20">
    <path d="M 334.845831 358.33875 
L 345.827407 358.33875 
L 345.827407 152.581021 
L 334.845831 152.581021 
z
" clip-path="url(#p17bb0e2967)" style="fill: #0000ff"/>
   </g>
   <g id="patch_21">
    <path d="M 345.827407 358.33875 
L 356.808984 358.33875 
L 356.808984 112.541679 
L 345.827407 112.541679 
z
" clip-path="url(#p17bb0e2967)" style="fill: #0000ff"/>
   </g>
   <g id="patch_22">
    <path d="M 356.808984 358.33875 
L 367.79056 358.33875 
L 367.79056 122.551515 
L 356.808984 122.551515 
z
" clip-path="url(#p17bb0e2967)" style="fill: #0000ff"/>
   </g>
   <g id="patch_23">
    <path d="M 367.79056 358.33875 
L 378.772137 358.33875 
L 378.772137 76.951153 
L 367.79056 76.951153 
z
" clip-path="url(#p17bb0e2967)" style="fill: #0000ff"/>
   </g>
   <g id="patch_24">
    <path d="M 378.772137 358.33875 
L 389.753713 358.33875 
L 389.753713 71.390133 
L 378.772137 71.390133 
z
" clip-path="url(#p17bb0e2967)" style="fill: #0000ff"/>
   </g>
   <g id="patch_25">
    <path d="M 389.753713 358.33875 
L 400.73529 358.33875 
L 400.73529 83.624377 
L 389.753713 83.624377 
z
" clip-path="url(#p17bb0e2967)" style="fill: #0000ff"/>
   </g>
   <g id="patch_26">
    <path d="M 400.73529 358.33875 
L 411.716866 358.33875 
L 411.716866 54.707074 
L 400.73529 54.707074 
z
" clip-path="url(#p17bb0e2967)" style="fill: #0000ff"/>
   </g>
   <g id="patch_27">
    <path d="M 411.716866 358.33875 
L 422.698443 358.33875 
L 422.698443 79.175561 
L 411.716866 79.175561 
z
" clip-path="url(#p17bb0e2967)" style="fill: #0000ff"/>
   </g>
   <g id="patch_28">
    <path d="M 422.698443 358.33875 
L 433.680019 358.33875 
L 433.680019 85.848785 
L 422.698443 85.848785 
z
" clip-path="url(#p17bb0e2967)" style="fill: #0000ff"/>
   </g>
   <g id="patch_29">
    <path d="M 433.680019 358.33875 
L 444.661596 358.33875 
L 444.661596 116.990495 
L 433.680019 116.990495 
z
" clip-path="url(#p17bb0e2967)" style="fill: #0000ff"/>
   </g>
   <g id="patch_30">
    <path d="M 444.661596 358.33875 
L 455.643172 358.33875 
L 455.643172 170.376284 
L 444.661596 170.376284 
z
" clip-path="url(#p17bb0e2967)" style="fill: #0000ff"/>
   </g>
   <g id="patch_31">
    <path d="M 455.643172 358.33875 
L 466.624749 358.33875 
L 466.624749 165.927468 
L 455.643172 165.927468 
z
" clip-path="url(#p17bb0e2967)" style="fill: #0000ff"/>
   </g>
   <g id="patch_32">
    <path d="M 466.624749 358.33875 
L 477.606325 358.33875 
L 477.606325 183.722731 
L 466.624749 183.722731 
z
" clip-path="url(#p17bb0e2967)" style="fill: #0000ff"/>
   </g>
   <g id="patch_33">
    <path d="M 477.606325 358.33875 
L 488.587902 358.33875 
L 488.587902 231.547501 
L 477.606325 231.547501 
z
" clip-path="url(#p17bb0e2967)" style="fill: #0000ff"/>
   </g>
   <g id="patch_34">
    <path d="M 488.587902 358.33875 
L 499.569478 358.33875 
L 499.569478 274.923454 
L 488.587902 274.923454 
z
" clip-path="url(#p17bb0e2967)" style="fill: #0000ff"/>
   </g>
   <g id="patch_35">
    <path d="M 499.569478 358.33875 
L 510.551055 358.33875 
L 510.551055 272.699047 
L 499.569478 272.699047 
z
" clip-path="url(#p17bb0e2967)" style="fill: #0000ff"/>
   </g>
   <g id="patch_36">
    <path d="M 510.551055 358.33875 
L 521.532631 358.33875 
L 521.532631 303.840757 
L 510.551055 303.840757 
z
" clip-path="url(#p17bb0e2967)" style="fill: #0000ff"/>
   </g>
   <g id="patch_37">
    <path d="M 521.532631 358.33875 
L 532.514208 358.33875 
L 532.514208 291.606514 
L 521.532631 291.606514 
z
" clip-path="url(#p17bb0e2967)" style="fill: #0000ff"/>
   </g>
   <g id="patch_38">
    <path d="M 532.514208 358.33875 
L 543.495784 358.33875 
L 543.495784 324.972632 
L 532.514208 324.972632 
z
" clip-path="url(#p17bb0e2967)" style="fill: #0000ff"/>
   </g>
   <g id="patch_39">
    <path d="M 543.495784 358.33875 
L 554.477361 358.33875 
L 554.477361 333.870263 
L 543.495784 333.870263 
z
" clip-path="url(#p17bb0e2967)" style="fill: #0000ff"/>
   </g>
   <g id="patch_40">
    <path d="M 554.477361 358.33875 
L 565.458937 358.33875 
L 565.458937 349.441118 
L 554.477361 349.441118 
z
" clip-path="url(#p17bb0e2967)" style="fill: #0000ff"/>
   </g>
   <g id="patch_41">
    <path d="M 565.458937 358.33875 
L 576.440514 358.33875 
L 576.440514 342.767895 
L 565.458937 342.767895 
z
" clip-path="url(#p17bb0e2967)" style="fill: #0000ff"/>
   </g>
   <g id="patch_42">
    <path d="M 576.440514 358.33875 
L 587.42209 358.33875 
L 587.42209 348.328915 
L 576.440514 348.328915 
z
" clip-path="url(#p17bb0e2967)" style="fill: #0000ff"/>
   </g>
   <g id="patch_43">
    <path d="M 587.42209 358.33875 
L 598.403667 358.33875 
L 598.403667 356.114342 
L 587.42209 356.114342 
z
" clip-path="url(#p17bb0e2967)" style="fill: #0000ff"/>
   </g>
   <g id="patch_44">
    <path d="M 598.403667 358.33875 
L 609.385243 358.33875 
L 609.385243 356.114342 
L 598.403667 356.114342 
z
" clip-path="url(#p17bb0e2967)" style="fill: #0000ff"/>
   </g>
   <g id="patch_45">
    <path d="M 609.385243 358.33875 
L 620.36682 358.33875 
L 620.36682 355.002138 
L 609.385243 355.002138 
z
" clip-path="url(#p17bb0e2967)" style="fill: #0000ff"/>
   </g>
   <g id="patch_46">
    <path d="M 620.36682 358.33875 
L 631.348396 358.33875 
L 631.348396 357.226546 
L 620.36682 357.226546 
z
" clip-path="url(#p17bb0e2967)" style="fill: #0000ff"/>
   </g>
   <g id="patch_47">
    <path d="M 631.348396 358.33875 
L 642.329973 358.33875 
L 642.329973 358.33875 
L 631.348396 358.33875 
z
" clip-path="url(#p17bb0e2967)" style="fill: #0000ff"/>
   </g>
   <g id="patch_48">
    <path d="M 642.329973 358.33875 
L 653.311549 358.33875 
L 653.311549 357.226546 
L 642.329973 357.226546 
z
" clip-path="url(#p17bb0e2967)" style="fill: #0000ff"/>
   </g>
   <g id="patch_49">
    <path d="M 653.311549 358.33875 
L 664.293126 358.33875 
L 664.293126 358.33875 
L 653.311549 358.33875 
z
" clip-path="url(#p17bb0e2967)" style="fill: #0000ff"/>
   </g>
   <g id="patch_50">
    <path d="M 664.293126 358.33875 
L 675.274702 358.33875 
L 675.274702 358.33875 
L 664.293126 358.33875 
z
" clip-path="url(#p17bb0e2967)" style="fill: #0000ff"/>
   </g>
   <g id="patch_51">
    <path d="M 675.274702 358.33875 
L 686.256279 358.33875 
L 686.256279 358.33875 
L 675.274702 358.33875 
z
" clip-path="url(#p17bb0e2967)" style="fill: #0000ff"/>
   </g>
   <g id="patch_52">
    <path d="M 686.256279 358.33875 
L 697.237855 358.33875 
L 697.237855 357.226546 
L 686.256279 357.226546 
z
" clip-path="url(#p17bb0e2967)" style="fill: #0000ff"/>
   </g>
   <g id="patch_53">
    <path d="M 88.510582 358.33875 
L 97.840532 358.33875 
L 97.840532 353.102386 
L 88.510582 353.102386 
z
" clip-path="url(#p17bb0e2967)" style="fill: #ffa500"/>
   </g>
   <g id="patch_54">
    <path d="M 97.840532 358.33875 
L 107.170482 358.33875 
L 107.170482 358.33875 
L 97.840532 358.33875 
z
" clip-path="url(#p17bb0e2967)" style="fill: #ffa500"/>
   </g>
   <g id="patch_55">
    <path d="M 107.170482 358.33875 
L 116.500432 358.33875 
L 116.500432 357.029659 
L 107.170482 357.029659 
z
" clip-path="url(#p17bb0e2967)" style="fill: #ffa500"/>
   </g>
   <g id="patch_56">
    <path d="M 116.500432 358.33875 
L 125.830382 358.33875 
L 125.830382 346.556932 
L 116.500432 346.556932 
z
" clip-path="url(#p17bb0e2967)" style="fill: #ffa500"/>
   </g>
   <g id="patch_57">
    <path d="M 125.830382 358.33875 
L 135.160332 358.33875 
L 135.160332 353.102386 
L 125.830382 353.102386 
z
" clip-path="url(#p17bb0e2967)" style="fill: #ffa500"/>
   </g>
   <g id="patch_58">
    <path d="M 135.160332 358.33875 
L 144.490282 358.33875 
L 144.490282 350.484205 
L 135.160332 350.484205 
z
" clip-path="url(#p17bb0e2967)" style="fill: #ffa500"/>
   </g>
   <g id="patch_59">
    <path d="M 144.490282 358.33875 
L 153.820232 358.33875 
L 153.820232 342.629659 
L 144.490282 342.629659 
z
" clip-path="url(#p17bb0e2967)" style="fill: #ffa500"/>
   </g>
   <g id="patch_60">
    <path d="M 153.820232 358.33875 
L 163.150182 358.33875 
L 163.150182 337.393295 
L 153.820232 337.393295 
z
" clip-path="url(#p17bb0e2967)" style="fill: #ffa500"/>
   </g>
   <g id="patch_61">
    <path d="M 163.150182 358.33875 
L 172.480132 358.33875 
L 172.480132 333.466023 
L 163.150182 333.466023 
z
" clip-path="url(#p17bb0e2967)" style="fill: #ffa500"/>
   </g>
   <g id="patch_62">
    <path d="M 172.480132 358.33875 
L 181.810082 358.33875 
L 181.810082 315.13875 
L 172.480132 315.13875 
z
" clip-path="url(#p17bb0e2967)" style="fill: #ffa500"/>
   </g>
   <g id="patch_63">
    <path d="M 181.810082 358.33875 
L 191.140032 358.33875 
L 191.140032 317.756932 
L 181.810082 317.756932 
z
" clip-path="url(#p17bb0e2967)" style="fill: #ffa500"/>
   </g>
   <g id="patch_64">
    <path d="M 191.140032 358.33875 
L 200.469982 358.33875 
L 200.469982 294.193295 
L 191.140032 294.193295 
z
" clip-path="url(#p17bb0e2967)" style="fill: #ffa500"/>
   </g>
   <g id="patch_65">
    <path d="M 200.469982 358.33875 
L 209.799932 358.33875 
L 209.799932 281.102386 
L 200.469982 281.102386 
z
" clip-path="url(#p17bb0e2967)" style="fill: #ffa500"/>
   </g>
   <g id="patch_66">
    <path d="M 209.799932 358.33875 
L 219.129882 358.33875 
L 219.129882 268.011477 
L 209.799932 268.011477 
z
" clip-path="url(#p17bb0e2967)" style="fill: #ffa500"/>
   </g>
   <g id="patch_67">
    <path d="M 219.129882 358.33875 
L 228.459831 358.33875 
L 228.459831 241.829659 
L 219.129882 241.829659 
z
" clip-path="url(#p17bb0e2967)" style="fill: #ffa500"/>
   </g>
   <g id="patch_68">
    <path d="M 228.459831 358.33875 
L 237.789781 358.33875 
L 237.789781 231.356932 
L 228.459831 231.356932 
z
" clip-path="url(#p17bb0e2967)" style="fill: #ffa500"/>
   </g>
   <g id="patch_69">
    <path d="M 237.789781 358.33875 
L 247.119731 358.33875 
L 247.119731 206.484205 
L 237.789781 206.484205 
z
" clip-path="url(#p17bb0e2967)" style="fill: #ffa500"/>
   </g>
   <g id="patch_70">
    <path d="M 247.119731 358.33875 
L 256.449681 358.33875 
L 256.449681 198.629659 
L 247.119731 198.629659 
z
" clip-path="url(#p17bb0e2967)" style="fill: #ffa500"/>
   </g>
   <g id="patch_71">
    <path d="M 256.449681 358.33875 
L 265.779631 358.33875 
L 265.779631 189.466023 
L 256.449681 189.466023 
z
" clip-path="url(#p17bb0e2967)" style="fill: #ffa500"/>
   </g>
   <g id="patch_72">
    <path d="M 265.779631 358.33875 
L 275.109581 358.33875 
L 275.109581 127.93875 
L 265.779631 127.93875 
z
" clip-path="url(#p17bb0e2967)" style="fill: #ffa500"/>
   </g>
   <g id="patch_73">
    <path d="M 275.109581 358.33875 
L 284.439531 358.33875 
L 284.439531 95.211477 
L 275.109581 95.211477 
z
" clip-path="url(#p17bb0e2967)" style="fill: #ffa500"/>
   </g>
   <g id="patch_74">
    <path d="M 284.439531 358.33875 
L 293.769481 358.33875 
L 293.769481 76.884205 
L 284.439531 76.884205 
z
" clip-path="url(#p17bb0e2967)" style="fill: #ffa500"/>
   </g>
   <g id="patch_75">
    <path d="M 293.769481 358.33875 
L 303.099431 358.33875 
L 303.099431 53.320568 
L 293.769481 53.320568 
z
" clip-path="url(#p17bb0e2967)" style="fill: #ffa500"/>
   </g>
   <g id="patch_76">
    <path d="M 303.099431 358.33875 
L 312.429381 358.33875 
L 312.429381 59.866023 
L 303.099431 59.866023 
z
" clip-path="url(#p17bb0e2967)" style="fill: #ffa500"/>
   </g>
   <g id="patch_77">
    <path d="M 312.429381 358.33875 
L 321.759331 358.33875 
L 321.759331 41.53875 
L 312.429381 41.53875 
z
" clip-path="url(#p17bb0e2967)" style="fill: #ffa500"/>
   </g>
   <g id="patch_78">
    <path d="M 321.759331 358.33875 
L 331.089281 358.33875 
L 331.089281 67.720568 
L 321.759331 67.720568 
z
" clip-path="url(#p17bb0e2967)" style="fill: #ffa500"/>
   </g>
   <g id="patch_79">
    <path d="M 331.089281 358.33875 
L 340.419231 358.33875 
L 340.419231 88.666023 
L 331.089281 88.666023 
z
" clip-path="url(#p17bb0e2967)" style="fill: #ffa500"/>
   </g>
   <g id="patch_80">
    <path d="M 340.419231 358.33875 
L 349.749181 358.33875 
L 349.749181 99.13875 
L 340.419231 99.13875 
z
" clip-path="url(#p17bb0e2967)" style="fill: #ffa500"/>
   </g>
   <g id="patch_81">
    <path d="M 349.749181 358.33875 
L 359.079131 358.33875 
L 359.079131 121.393295 
L 349.749181 121.393295 
z
" clip-path="url(#p17bb0e2967)" style="fill: #ffa500"/>
   </g>
   <g id="patch_82">
    <path d="M 359.079131 358.33875 
L 368.409081 358.33875 
L 368.409081 160.666023 
L 359.079131 160.666023 
z
" clip-path="url(#p17bb0e2967)" style="fill: #ffa500"/>
   </g>
   <g id="patch_83">
    <path d="M 368.409081 358.33875 
L 377.73903 358.33875 
L 377.73903 135.793295 
L 368.409081 135.793295 
z
" clip-path="url(#p17bb0e2967)" style="fill: #ffa500"/>
   </g>
   <g id="patch_84">
    <path d="M 377.73903 358.33875 
L 387.06898 358.33875 
L 387.06898 201.247841 
L 377.73903 201.247841 
z
" clip-path="url(#p17bb0e2967)" style="fill: #ffa500"/>
   </g>
   <g id="patch_85">
    <path d="M 387.06898 358.33875 
L 396.39893 358.33875 
L 396.39893 205.175114 
L 387.06898 205.175114 
z
" clip-path="url(#p17bb0e2967)" style="fill: #ffa500"/>
   </g>
   <g id="patch_86">
    <path d="M 396.39893 358.33875 
L 405.72888 358.33875 
L 405.72888 227.429659 
L 396.39893 227.429659 
z
" clip-path="url(#p17bb0e2967)" style="fill: #ffa500"/>
   </g>
   <g id="patch_87">
    <path d="M 405.72888 358.33875 
L 415.05883 358.33875 
L 415.05883 249.684205 
L 405.72888 249.684205 
z
" clip-path="url(#p17bb0e2967)" style="fill: #ffa500"/>
   </g>
   <g id="patch_88">
    <path d="M 415.05883 358.33875 
L 424.38878 358.33875 
L 424.38878 266.702386 
L 415.05883 266.702386 
z
" clip-path="url(#p17bb0e2967)" style="fill: #ffa500"/>
   </g>
   <g id="patch_89">
    <path d="M 424.38878 358.33875 
L 433.71873 358.33875 
L 433.71873 273.247841 
L 424.38878 273.247841 
z
" clip-path="url(#p17bb0e2967)" style="fill: #ffa500"/>
   </g>
   <g id="patch_90">
    <path d="M 433.71873 358.33875 
L 443.04868 358.33875 
L 443.04868 294.193295 
L 433.71873 294.193295 
z
" clip-path="url(#p17bb0e2967)" style="fill: #ffa500"/>
   </g>
   <g id="patch_91">
    <path d="M 443.04868 358.33875 
L 452.37863 358.33875 
L 452.37863 326.920568 
L 443.04868 326.920568 
z
" clip-path="url(#p17bb0e2967)" style="fill: #ffa500"/>
   </g>
   <g id="patch_92">
    <path d="M 452.37863 358.33875 
L 461.70858 358.33875 
L 461.70858 326.920568 
L 452.37863 326.920568 
z
" clip-path="url(#p17bb0e2967)" style="fill: #ffa500"/>
   </g>
   <g id="patch_93">
    <path d="M 461.70858 358.33875 
L 471.03853 358.33875 
L 471.03853 326.920568 
L 461.70858 326.920568 
z
" clip-path="url(#p17bb0e2967)" style="fill: #ffa500"/>
   </g>
   <g id="patch_94">
    <path d="M 471.03853 358.33875 
L 480.36848 358.33875 
L 480.36848 342.629659 
L 471.03853 342.629659 
z
" clip-path="url(#p17bb0e2967)" style="fill: #ffa500"/>
   </g>
   <g id="patch_95">
    <path d="M 480.36848 358.33875 
L 489.69843 358.33875 
L 489.69843 343.93875 
L 480.36848 343.93875 
z
" clip-path="url(#p17bb0e2967)" style="fill: #ffa500"/>
   </g>
   <g id="patch_96">
    <path d="M 489.69843 358.33875 
L 499.02838 358.33875 
L 499.02838 351.793295 
L 489.69843 351.793295 
z
" clip-path="url(#p17bb0e2967)" style="fill: #ffa500"/>
   </g>
   <g id="patch_97">
    <path d="M 499.02838 358.33875 
L 508.35833 358.33875 
L 508.35833 354.411477 
L 499.02838 354.411477 
z
" clip-path="url(#p17bb0e2967)" style="fill: #ffa500"/>
   </g>
   <g id="patch_98">
    <path d="M 508.35833 358.33875 
L 517.68828 358.33875 
L 517.68828 354.411477 
L 508.35833 354.411477 
z
" clip-path="url(#p17bb0e2967)" style="fill: #ffa500"/>
   </g>
   <g id="patch_99">
    <path d="M 517.68828 358.33875 
L 527.018229 358.33875 
L 527.018229 358.33875 
L 517.68828 358.33875 
z
" clip-path="url(#p17bb0e2967)" style="fill: #ffa500"/>
   </g>
   <g id="patch_100">
    <path d="M 527.018229 358.33875 
L 536.348179 358.33875 
L 536.348179 357.029659 
L 527.018229 357.029659 
z
" clip-path="url(#p17bb0e2967)" style="fill: #ffa500"/>
   </g>
   <g id="patch_101">
    <path d="M 536.348179 358.33875 
L 545.678129 358.33875 
L 545.678129 358.33875 
L 536.348179 358.33875 
z
" clip-path="url(#p17bb0e2967)" style="fill: #ffa500"/>
   </g>
   <g id="patch_102">
    <path d="M 545.678129 358.33875 
L 555.008079 358.33875 
L 555.008079 357.029659 
L 545.678129 357.029659 
z
" clip-path="url(#p17bb0e2967)" style="fill: #ffa500"/>
   </g>
   <g id="matplotlib.axis_1">
    <g id="xtick_1">
     <g id="line2d_1">
      <defs>
       <path id="m9f26cb1b13" d="M 0 0 
L 0 3.5 
" style="stroke: #000000; stroke-width: 0.8"/>
      </defs>
      <g>
       <use xlink:href="#m9f26cb1b13" x="120.001185" y="358.33875" style="stroke: #000000; stroke-width: 0.8"/>
      </g>
     </g>
     <g id="text_1">
      <!-- 0 -->
      <g transform="translate(116.251185 375.754375) scale(0.15 -0.15)">
       <defs>
        <path id="TimesNewRomanPSMT-30" d="M 231 2094 
Q 231 2819 450 3342 
Q 669 3866 1031 4122 
Q 1313 4325 1613 4325 
Q 2100 4325 2488 3828 
Q 2972 3213 2972 2159 
Q 2972 1422 2759 906 
Q 2547 391 2217 158 
Q 1888 -75 1581 -75 
Q 975 -75 572 641 
Q 231 1244 231 2094 
z
M 844 2016 
Q 844 1141 1059 588 
Q 1238 122 1591 122 
Q 1759 122 1940 273 
Q 2122 425 2216 781 
Q 2359 1319 2359 2297 
Q 2359 3022 2209 3506 
Q 2097 3866 1919 4016 
Q 1791 4119 1609 4119 
Q 1397 4119 1231 3928 
Q 1006 3669 925 3112 
Q 844 2556 844 2016 
z
" transform="scale(0.015625)"/>
       </defs>
       <use xlink:href="#TimesNewRomanPSMT-30"/>
      </g>
     </g>
    </g>
    <g id="xtick_2">
     <g id="line2d_2">
      <g>
       <use xlink:href="#m9f26cb1b13" x="214.591826" y="358.33875" style="stroke: #000000; stroke-width: 0.8"/>
      </g>
     </g>
     <g id="text_2">
      <!-- 10 -->
      <g transform="translate(207.091826 375.754375) scale(0.15 -0.15)">
       <defs>
        <path id="TimesNewRomanPSMT-31" d="M 750 3822 
L 1781 4325 
L 1884 4325 
L 1884 747 
Q 1884 391 1914 303 
Q 1944 216 2037 169 
Q 2131 122 2419 116 
L 2419 0 
L 825 0 
L 825 116 
Q 1125 122 1212 167 
Q 1300 213 1334 289 
Q 1369 366 1369 747 
L 1369 3034 
Q 1369 3497 1338 3628 
Q 1316 3728 1258 3775 
Q 1200 3822 1119 3822 
Q 1003 3822 797 3725 
L 750 3822 
z
" transform="scale(0.015625)"/>
       </defs>
       <use xlink:href="#TimesNewRomanPSMT-31"/>
       <use xlink:href="#TimesNewRomanPSMT-30" x="50"/>
      </g>
     </g>
    </g>
    <g id="xtick_3">
     <g id="line2d_3">
      <g>
       <use xlink:href="#m9f26cb1b13" x="309.182466" y="358.33875" style="stroke: #000000; stroke-width: 0.8"/>
      </g>
     </g>
     <g id="text_3">
      <!-- 20 -->
      <g transform="translate(301.682466 375.754375) scale(0.15 -0.15)">
       <defs>
        <path id="TimesNewRomanPSMT-32" d="M 2934 816 
L 2638 0 
L 138 0 
L 138 116 
Q 1241 1122 1691 1759 
Q 2141 2397 2141 2925 
Q 2141 3328 1894 3587 
Q 1647 3847 1303 3847 
Q 991 3847 742 3664 
Q 494 3481 375 3128 
L 259 3128 
Q 338 3706 661 4015 
Q 984 4325 1469 4325 
Q 1984 4325 2329 3994 
Q 2675 3663 2675 3213 
Q 2675 2891 2525 2569 
Q 2294 2063 1775 1497 
Q 997 647 803 472 
L 1909 472 
Q 2247 472 2383 497 
Q 2519 522 2628 598 
Q 2738 675 2819 816 
L 2934 816 
z
" transform="scale(0.015625)"/>
       </defs>
       <use xlink:href="#TimesNewRomanPSMT-32"/>
       <use xlink:href="#TimesNewRomanPSMT-30" x="50"/>
      </g>
     </g>
    </g>
    <g id="xtick_4">
     <g id="line2d_4">
      <g>
       <use xlink:href="#m9f26cb1b13" x="403.773107" y="358.33875" style="stroke: #000000; stroke-width: 0.8"/>
      </g>
     </g>
     <g id="text_4">
      <!-- 30 -->
      <g transform="translate(396.273107 375.754375) scale(0.15 -0.15)">
       <defs>
        <path id="TimesNewRomanPSMT-33" d="M 325 3431 
Q 506 3859 782 4092 
Q 1059 4325 1472 4325 
Q 1981 4325 2253 3994 
Q 2459 3747 2459 3466 
Q 2459 3003 1878 2509 
Q 2269 2356 2469 2072 
Q 2669 1788 2669 1403 
Q 2669 853 2319 450 
Q 1863 -75 997 -75 
Q 569 -75 414 31 
Q 259 138 259 259 
Q 259 350 332 419 
Q 406 488 509 488 
Q 588 488 669 463 
Q 722 447 909 348 
Q 1097 250 1169 231 
Q 1284 197 1416 197 
Q 1734 197 1970 444 
Q 2206 691 2206 1028 
Q 2206 1275 2097 1509 
Q 2016 1684 1919 1775 
Q 1784 1900 1550 2001 
Q 1316 2103 1072 2103 
L 972 2103 
L 972 2197 
Q 1219 2228 1467 2375 
Q 1716 2522 1828 2728 
Q 1941 2934 1941 3181 
Q 1941 3503 1739 3701 
Q 1538 3900 1238 3900 
Q 753 3900 428 3381 
L 325 3431 
z
" transform="scale(0.015625)"/>
       </defs>
       <use xlink:href="#TimesNewRomanPSMT-33"/>
       <use xlink:href="#TimesNewRomanPSMT-30" x="50"/>
      </g>
     </g>
    </g>
    <g id="xtick_5">
     <g id="line2d_5">
      <g>
       <use xlink:href="#m9f26cb1b13" x="498.363747" y="358.33875" style="stroke: #000000; stroke-width: 0.8"/>
      </g>
     </g>
     <g id="text_5">
      <!-- 40 -->
      <g transform="translate(490.863747 375.754375) scale(0.15 -0.15)">
       <defs>
        <path id="TimesNewRomanPSMT-34" d="M 2978 1563 
L 2978 1119 
L 2409 1119 
L 2409 0 
L 1894 0 
L 1894 1119 
L 100 1119 
L 100 1519 
L 2066 4325 
L 2409 4325 
L 2409 1563 
L 2978 1563 
z
M 1894 1563 
L 1894 3666 
L 406 1563 
L 1894 1563 
z
" transform="scale(0.015625)"/>
       </defs>
       <use xlink:href="#TimesNewRomanPSMT-34"/>
       <use xlink:href="#TimesNewRomanPSMT-30" x="50"/>
      </g>
     </g>
    </g>
    <g id="xtick_6">
     <g id="line2d_6">
      <g>
       <use xlink:href="#m9f26cb1b13" x="592.954387" y="358.33875" style="stroke: #000000; stroke-width: 0.8"/>
      </g>
     </g>
     <g id="text_6">
      <!-- 50 -->
      <g transform="translate(585.454387 375.754375) scale(0.15 -0.15)">
       <defs>
        <path id="TimesNewRomanPSMT-35" d="M 2778 4238 
L 2534 3706 
L 1259 3706 
L 981 3138 
Q 1809 3016 2294 2522 
Q 2709 2097 2709 1522 
Q 2709 1188 2573 903 
Q 2438 619 2231 419 
Q 2025 219 1772 97 
Q 1413 -75 1034 -75 
Q 653 -75 479 54 
Q 306 184 306 341 
Q 306 428 378 495 
Q 450 563 559 563 
Q 641 563 702 538 
Q 763 513 909 409 
Q 1144 247 1384 247 
Q 1750 247 2026 523 
Q 2303 800 2303 1197 
Q 2303 1581 2056 1914 
Q 1809 2247 1375 2428 
Q 1034 2569 447 2591 
L 1259 4238 
L 2778 4238 
z
" transform="scale(0.015625)"/>
       </defs>
       <use xlink:href="#TimesNewRomanPSMT-35"/>
       <use xlink:href="#TimesNewRomanPSMT-30" x="50"/>
      </g>
     </g>
    </g>
    <g id="xtick_7">
     <g id="line2d_7">
      <g>
       <use xlink:href="#m9f26cb1b13" x="687.545028" y="358.33875" style="stroke: #000000; stroke-width: 0.8"/>
      </g>
     </g>
     <g id="text_7">
      <!-- 60 -->
      <g transform="translate(680.045028 375.754375) scale(0.15 -0.15)">
       <defs>
        <path id="TimesNewRomanPSMT-36" d="M 2869 4325 
L 2869 4209 
Q 2456 4169 2195 4045 
Q 1934 3922 1679 3669 
Q 1425 3416 1258 3105 
Q 1091 2794 978 2366 
Q 1428 2675 1881 2675 
Q 2316 2675 2634 2325 
Q 2953 1975 2953 1425 
Q 2953 894 2631 456 
Q 2244 -75 1606 -75 
Q 1172 -75 869 213 
Q 275 772 275 1663 
Q 275 2231 503 2743 
Q 731 3256 1154 3653 
Q 1578 4050 1965 4187 
Q 2353 4325 2688 4325 
L 2869 4325 
z
M 925 2138 
Q 869 1716 869 1456 
Q 869 1156 980 804 
Q 1091 453 1309 247 
Q 1469 100 1697 100 
Q 1969 100 2183 356 
Q 2397 613 2397 1088 
Q 2397 1622 2184 2012 
Q 1972 2403 1581 2403 
Q 1463 2403 1327 2353 
Q 1191 2303 925 2138 
z
" transform="scale(0.015625)"/>
       </defs>
       <use xlink:href="#TimesNewRomanPSMT-36"/>
       <use xlink:href="#TimesNewRomanPSMT-30" x="50"/>
      </g>
     </g>
    </g>
    <g id="text_8">
     <!-- s1, s2 -->
     <g transform="translate(375.785937 393.378594) scale(0.15 -0.15)">
      <defs>
       <path id="TimesNewRomanPSMT-73" d="M 2050 2947 
L 2050 1972 
L 1947 1972 
Q 1828 2431 1642 2597 
Q 1456 2763 1169 2763 
Q 950 2763 815 2647 
Q 681 2531 681 2391 
Q 681 2216 781 2091 
Q 878 1963 1175 1819 
L 1631 1597 
Q 2266 1288 2266 781 
Q 2266 391 1970 151 
Q 1675 -88 1309 -88 
Q 1047 -88 709 6 
Q 606 38 541 38 
Q 469 38 428 -44 
L 325 -44 
L 325 978 
L 428 978 
Q 516 541 762 319 
Q 1009 97 1316 97 
Q 1531 97 1667 223 
Q 1803 350 1803 528 
Q 1803 744 1651 891 
Q 1500 1038 1047 1263 
Q 594 1488 453 1669 
Q 313 1847 313 2119 
Q 313 2472 555 2709 
Q 797 2947 1181 2947 
Q 1350 2947 1591 2875 
Q 1750 2828 1803 2828 
Q 1853 2828 1881 2850 
Q 1909 2872 1947 2947 
L 2050 2947 
z
" transform="scale(0.015625)"/>
       <path id="TimesNewRomanPSMT-2c" d="M 344 -1066 
L 344 -928 
Q 666 -822 842 -598 
Q 1019 -375 1019 -125 
Q 1019 -66 991 -25 
Q 969 3 947 3 
Q 913 3 797 -59 
Q 741 -88 678 -88 
Q 525 -88 434 3 
Q 344 94 344 253 
Q 344 406 461 515 
Q 578 625 747 625 
Q 953 625 1114 445 
Q 1275 266 1275 -31 
Q 1275 -353 1051 -629 
Q 828 -906 344 -1066 
z
" transform="scale(0.015625)"/>
       <path id="TimesNewRomanPSMT-20" transform="scale(0.015625)"/>
      </defs>
      <use xlink:href="#TimesNewRomanPSMT-73"/>
      <use xlink:href="#TimesNewRomanPSMT-31" x="38.916016"/>
      <use xlink:href="#TimesNewRomanPSMT-2c" x="88.916016"/>
      <use xlink:href="#TimesNewRomanPSMT-20" x="113.916016"/>
      <use xlink:href="#TimesNewRomanPSMT-73" x="138.916016"/>
      <use xlink:href="#TimesNewRomanPSMT-32" x="177.832031"/>
     </g>
    </g>
   </g>
   <g id="matplotlib.axis_2">
    <g id="ytick_1">
     <g id="line2d_8">
      <defs>
       <path id="mefb2d93b87" d="M 0 0 
L -3.5 0 
" style="stroke: #000000; stroke-width: 0.8"/>
      </defs>
      <g>
       <use xlink:href="#mefb2d93b87" x="58.074219" y="358.33875" style="stroke: #000000; stroke-width: 0.8"/>
      </g>
     </g>
     <g id="text_9">
      <!-- 0.00 -->
      <g transform="translate(24.824219 363.546562) scale(0.15 -0.15)">
       <defs>
        <path id="TimesNewRomanPSMT-2e" d="M 800 606 
Q 947 606 1047 504 
Q 1147 403 1147 259 
Q 1147 116 1045 14 
Q 944 -88 800 -88 
Q 656 -88 554 14 
Q 453 116 453 259 
Q 453 406 554 506 
Q 656 606 800 606 
z
" transform="scale(0.015625)"/>
       </defs>
       <use xlink:href="#TimesNewRomanPSMT-30"/>
       <use xlink:href="#TimesNewRomanPSMT-2e" x="50"/>
       <use xlink:href="#TimesNewRomanPSMT-30" x="75"/>
       <use xlink:href="#TimesNewRomanPSMT-30" x="125"/>
      </g>
     </g>
    </g>
    <g id="ytick_2">
     <g id="line2d_9">
      <g>
       <use xlink:href="#mefb2d93b87" x="58.074219" y="306.689866" style="stroke: #000000; stroke-width: 0.8"/>
      </g>
     </g>
     <g id="text_10">
      <!-- 0.01 -->
      <g transform="translate(24.824219 311.897678) scale(0.15 -0.15)">
       <use xlink:href="#TimesNewRomanPSMT-30"/>
       <use xlink:href="#TimesNewRomanPSMT-2e" x="50"/>
       <use xlink:href="#TimesNewRomanPSMT-30" x="75"/>
       <use xlink:href="#TimesNewRomanPSMT-31" x="125"/>
      </g>
     </g>
    </g>
    <g id="ytick_3">
     <g id="line2d_10">
      <g>
       <use xlink:href="#mefb2d93b87" x="58.074219" y="255.040981" style="stroke: #000000; stroke-width: 0.8"/>
      </g>
     </g>
     <g id="text_11">
      <!-- 0.02 -->
      <g transform="translate(24.824219 260.248794) scale(0.15 -0.15)">
       <use xlink:href="#TimesNewRomanPSMT-30"/>
       <use xlink:href="#TimesNewRomanPSMT-2e" x="50"/>
       <use xlink:href="#TimesNewRomanPSMT-30" x="75"/>
       <use xlink:href="#TimesNewRomanPSMT-32" x="125"/>
      </g>
     </g>
    </g>
    <g id="ytick_4">
     <g id="line2d_11">
      <g>
       <use xlink:href="#mefb2d93b87" x="58.074219" y="203.392097" style="stroke: #000000; stroke-width: 0.8"/>
      </g>
     </g>
     <g id="text_12">
      <!-- 0.03 -->
      <g transform="translate(24.824219 208.599909) scale(0.15 -0.15)">
       <use xlink:href="#TimesNewRomanPSMT-30"/>
       <use xlink:href="#TimesNewRomanPSMT-2e" x="50"/>
       <use xlink:href="#TimesNewRomanPSMT-30" x="75"/>
       <use xlink:href="#TimesNewRomanPSMT-33" x="125"/>
      </g>
     </g>
    </g>
    <g id="ytick_5">
     <g id="line2d_12">
      <g>
       <use xlink:href="#mefb2d93b87" x="58.074219" y="151.743212" style="stroke: #000000; stroke-width: 0.8"/>
      </g>
     </g>
     <g id="text_13">
      <!-- 0.04 -->
      <g transform="translate(24.824219 156.951025) scale(0.15 -0.15)">
       <use xlink:href="#TimesNewRomanPSMT-30"/>
       <use xlink:href="#TimesNewRomanPSMT-2e" x="50"/>
       <use xlink:href="#TimesNewRomanPSMT-30" x="75"/>
       <use xlink:href="#TimesNewRomanPSMT-34" x="125"/>
      </g>
     </g>
    </g>
    <g id="ytick_6">
     <g id="line2d_13">
      <g>
       <use xlink:href="#mefb2d93b87" x="58.074219" y="100.094328" style="stroke: #000000; stroke-width: 0.8"/>
      </g>
     </g>
     <g id="text_14">
      <!-- 0.05 -->
      <g transform="translate(24.824219 105.30214) scale(0.15 -0.15)">
       <use xlink:href="#TimesNewRomanPSMT-30"/>
       <use xlink:href="#TimesNewRomanPSMT-2e" x="50"/>
       <use xlink:href="#TimesNewRomanPSMT-30" x="75"/>
       <use xlink:href="#TimesNewRomanPSMT-35" x="125"/>
      </g>
     </g>
    </g>
    <g id="ytick_7">
     <g id="line2d_14">
      <g>
       <use xlink:href="#mefb2d93b87" x="58.074219" y="48.445443" style="stroke: #000000; stroke-width: 0.8"/>
      </g>
     </g>
     <g id="text_15">
      <!-- 0.06 -->
      <g transform="translate(24.824219 53.653256) scale(0.15 -0.15)">
       <use xlink:href="#TimesNewRomanPSMT-30"/>
       <use xlink:href="#TimesNewRomanPSMT-2e" x="50"/>
       <use xlink:href="#TimesNewRomanPSMT-30" x="75"/>
       <use xlink:href="#TimesNewRomanPSMT-36" x="125"/>
      </g>
     </g>
    </g>
    <g id="text_16">
     <!-- Frequency -->
     <g transform="translate(17.5875 223.674609) rotate(-90) scale(0.15 -0.15)">
      <defs>
       <path id="TimesNewRomanPSMT-46" d="M 1309 4006 
L 1309 2341 
L 2081 2341 
Q 2347 2341 2470 2458 
Q 2594 2575 2634 2922 
L 2750 2922 
L 2750 1488 
L 2634 1488 
Q 2631 1734 2570 1850 
Q 2509 1966 2401 2023 
Q 2294 2081 2081 2081 
L 1309 2081 
L 1309 750 
Q 1309 428 1350 325 
Q 1381 247 1481 191 
Q 1619 116 1769 116 
L 1922 116 
L 1922 0 
L 103 0 
L 103 116 
L 253 116 
Q 516 116 634 269 
Q 709 369 709 750 
L 709 3488 
Q 709 3809 669 3913 
Q 638 3991 541 4047 
Q 406 4122 253 4122 
L 103 4122 
L 103 4238 
L 3256 4238 
L 3297 3306 
L 3188 3306 
Q 3106 3603 2998 3742 
Q 2891 3881 2733 3943 
Q 2575 4006 2244 4006 
L 1309 4006 
z
" transform="scale(0.015625)"/>
       <path id="TimesNewRomanPSMT-72" d="M 1038 2947 
L 1038 2303 
Q 1397 2947 1775 2947 
Q 1947 2947 2059 2842 
Q 2172 2738 2172 2600 
Q 2172 2478 2090 2393 
Q 2009 2309 1897 2309 
Q 1788 2309 1652 2417 
Q 1516 2525 1450 2525 
Q 1394 2525 1328 2463 
Q 1188 2334 1038 2041 
L 1038 669 
Q 1038 431 1097 309 
Q 1138 225 1241 169 
Q 1344 113 1538 113 
L 1538 0 
L 72 0 
L 72 113 
Q 291 113 397 181 
Q 475 231 506 341 
Q 522 394 522 644 
L 522 1753 
Q 522 2253 501 2348 
Q 481 2444 426 2487 
Q 372 2531 291 2531 
Q 194 2531 72 2484 
L 41 2597 
L 906 2947 
L 1038 2947 
z
" transform="scale(0.015625)"/>
       <path id="TimesNewRomanPSMT-65" d="M 681 1784 
Q 678 1147 991 784 
Q 1303 422 1725 422 
Q 2006 422 2214 576 
Q 2422 731 2563 1106 
L 2659 1044 
Q 2594 616 2278 264 
Q 1963 -88 1488 -88 
Q 972 -88 605 314 
Q 238 716 238 1394 
Q 238 2128 614 2539 
Q 991 2950 1559 2950 
Q 2041 2950 2350 2633 
Q 2659 2316 2659 1784 
L 681 1784 
z
M 681 1966 
L 2006 1966 
Q 1991 2241 1941 2353 
Q 1863 2528 1708 2628 
Q 1553 2728 1384 2728 
Q 1125 2728 920 2526 
Q 716 2325 681 1966 
z
" transform="scale(0.015625)"/>
       <path id="TimesNewRomanPSMT-71" d="M 2734 2947 
L 2734 -734 
Q 2734 -1009 2771 -1087 
Q 2809 -1166 2889 -1209 
Q 2969 -1253 3200 -1253 
L 3200 -1369 
L 1756 -1369 
L 1756 -1253 
L 1816 -1253 
Q 1991 -1253 2081 -1203 
Q 2144 -1169 2181 -1080 
Q 2219 -991 2219 -734 
L 2219 497 
Q 1934 159 1721 35 
Q 1509 -88 1281 -88 
Q 866 -88 539 290 
Q 213 669 213 1303 
Q 213 2031 644 2489 
Q 1075 2947 1684 2947 
Q 1863 2947 2013 2897 
Q 2163 2847 2281 2747 
Q 2463 2834 2628 2947 
L 2734 2947 
z
M 2219 694 
L 2219 2038 
Q 2219 2272 2158 2406 
Q 2097 2541 1940 2634 
Q 1784 2728 1588 2728 
Q 1238 2728 988 2431 
Q 738 2134 738 1531 
Q 738 953 992 653 
Q 1247 353 1606 353 
Q 1791 353 1934 433 
Q 2078 513 2219 694 
z
" transform="scale(0.015625)"/>
       <path id="TimesNewRomanPSMT-75" d="M 2709 2863 
L 2709 1128 
Q 2709 631 2732 520 
Q 2756 409 2807 365 
Q 2859 322 2928 322 
Q 3025 322 3147 375 
L 3191 266 
L 2334 -88 
L 2194 -88 
L 2194 519 
Q 1825 119 1631 15 
Q 1438 -88 1222 -88 
Q 981 -88 804 51 
Q 628 191 559 409 
Q 491 628 491 1028 
L 491 2306 
Q 491 2509 447 2587 
Q 403 2666 317 2708 
Q 231 2750 6 2747 
L 6 2863 
L 1009 2863 
L 1009 947 
Q 1009 547 1148 422 
Q 1288 297 1484 297 
Q 1619 297 1789 381 
Q 1959 466 2194 703 
L 2194 2325 
Q 2194 2569 2105 2655 
Q 2016 2741 1734 2747 
L 1734 2863 
L 2709 2863 
z
" transform="scale(0.015625)"/>
       <path id="TimesNewRomanPSMT-6e" d="M 1034 2341 
Q 1538 2947 1994 2947 
Q 2228 2947 2397 2830 
Q 2566 2713 2666 2444 
Q 2734 2256 2734 1869 
L 2734 647 
Q 2734 375 2778 278 
Q 2813 200 2889 156 
Q 2966 113 3172 113 
L 3172 0 
L 1756 0 
L 1756 113 
L 1816 113 
Q 2016 113 2095 173 
Q 2175 234 2206 353 
Q 2219 400 2219 647 
L 2219 1819 
Q 2219 2209 2117 2386 
Q 2016 2563 1775 2563 
Q 1403 2563 1034 2156 
L 1034 647 
Q 1034 356 1069 288 
Q 1113 197 1189 155 
Q 1266 113 1500 113 
L 1500 0 
L 84 0 
L 84 113 
L 147 113 
Q 366 113 442 223 
Q 519 334 519 647 
L 519 1709 
Q 519 2225 495 2337 
Q 472 2450 423 2490 
Q 375 2531 294 2531 
Q 206 2531 84 2484 
L 38 2597 
L 900 2947 
L 1034 2947 
L 1034 2341 
z
" transform="scale(0.015625)"/>
       <path id="TimesNewRomanPSMT-63" d="M 2631 1088 
Q 2516 522 2178 217 
Q 1841 -88 1431 -88 
Q 944 -88 581 321 
Q 219 731 219 1428 
Q 219 2103 620 2525 
Q 1022 2947 1584 2947 
Q 2006 2947 2278 2723 
Q 2550 2500 2550 2259 
Q 2550 2141 2473 2067 
Q 2397 1994 2259 1994 
Q 2075 1994 1981 2113 
Q 1928 2178 1911 2362 
Q 1894 2547 1784 2644 
Q 1675 2738 1481 2738 
Q 1169 2738 978 2506 
Q 725 2200 725 1697 
Q 725 1184 976 792 
Q 1228 400 1656 400 
Q 1963 400 2206 609 
Q 2378 753 2541 1131 
L 2631 1088 
z
" transform="scale(0.015625)"/>
       <path id="TimesNewRomanPSMT-79" d="M 38 2863 
L 1372 2863 
L 1372 2747 
L 1306 2747 
Q 1166 2747 1095 2686 
Q 1025 2625 1025 2534 
Q 1025 2413 1128 2197 
L 1825 753 
L 2466 2334 
Q 2519 2463 2519 2588 
Q 2519 2644 2497 2672 
Q 2472 2706 2419 2726 
Q 2366 2747 2231 2747 
L 2231 2863 
L 3163 2863 
L 3163 2747 
Q 3047 2734 2984 2696 
Q 2922 2659 2847 2556 
Q 2819 2513 2741 2316 
L 1575 -541 
Q 1406 -956 1132 -1168 
Q 859 -1381 606 -1381 
Q 422 -1381 303 -1275 
Q 184 -1169 184 -1031 
Q 184 -900 270 -820 
Q 356 -741 506 -741 
Q 609 -741 788 -809 
Q 913 -856 944 -856 
Q 1038 -856 1148 -759 
Q 1259 -663 1372 -384 
L 1575 113 
L 547 2272 
Q 500 2369 397 2513 
Q 319 2622 269 2659 
Q 197 2709 38 2747 
L 38 2863 
z
" transform="scale(0.015625)"/>
      </defs>
      <use xlink:href="#TimesNewRomanPSMT-46"/>
      <use xlink:href="#TimesNewRomanPSMT-72" x="55.615234"/>
      <use xlink:href="#TimesNewRomanPSMT-65" x="88.916016"/>
      <use xlink:href="#TimesNewRomanPSMT-71" x="133.300781"/>
      <use xlink:href="#TimesNewRomanPSMT-75" x="183.300781"/>
      <use xlink:href="#TimesNewRomanPSMT-65" x="233.300781"/>
      <use xlink:href="#TimesNewRomanPSMT-6e" x="277.685547"/>
      <use xlink:href="#TimesNewRomanPSMT-63" x="327.685547"/>
      <use xlink:href="#TimesNewRomanPSMT-79" x="372.070312"/>
     </g>
    </g>
   </g>
   <g id="line2d_15">
    <path d="M 120.001185 358.302466 
L 124.77849 358.289279 
L 129.555795 358.271662 
L 134.3331 358.248265 
L 139.110405 358.217367 
L 143.887711 358.176799 
L 148.665016 358.12384 
L 153.442321 358.055105 
L 158.219626 357.966411 
L 162.996931 357.852624 
L 167.774236 357.707496 
L 172.551541 357.523472 
L 177.328846 357.291494 
L 182.106151 357.000782 
L 186.883456 356.63861 
L 191.660761 356.190083 
L 196.438066 355.637905 
L 201.215371 354.962179 
L 205.992676 354.140214 
L 210.769982 353.146378 
L 215.547287 351.952006 
L 220.324592 350.525368 
L 225.101897 348.83173 
L 229.879202 346.833513 
L 234.656507 344.490574 
L 239.433812 341.760626 
L 244.211117 338.599802 
L 248.988422 334.963382 
L 253.765727 330.806688 
L 258.543032 326.086143 
L 263.320337 320.760484 
L 268.097642 314.792129 
L 272.874948 308.148655 
L 277.652253 300.804377 
L 282.429558 292.741962 
L 287.206863 283.954055 
L 291.984168 274.444844 
L 296.761473 264.231504 
L 301.538778 253.345463 
L 306.316083 241.833412 
L 311.093388 229.758007 
L 315.870693 217.198182 
L 320.647998 204.24905 
L 325.425303 191.021322 
L 330.202608 177.640241 
L 334.979913 164.244005 
L 339.757219 150.9817 
L 344.534524 138.010769 
L 349.311829 125.494068 
L 354.089134 113.596577 
L 358.866439 102.481858 
L 363.643744 92.308361 
L 368.421049 83.225697 
L 373.198354 75.370985 
L 377.975659 68.865423 
L 382.752964 63.811175 
L 387.530269 60.288707 
L 392.307574 58.35465 
L 397.084879 58.04029 
L 401.862185 59.350726 
L 406.63949 62.26473 
L 411.416795 66.735321 
L 416.1941 72.691022 
L 420.971405 80.037766 
L 425.74871 88.661365 
L 430.526015 98.430458 
L 435.30332 109.199838 
L 440.080625 120.814033 
L 444.85793 133.111011 
L 449.635235 145.925911 
L 454.41254 159.09465 
L 459.189845 172.457324 
L 463.96715 185.861292 
L 468.744456 199.163878 
L 473.521761 212.234619 
L 478.299066 224.957034 
L 483.076371 237.229887 
L 487.853676 248.967954 
L 492.630981 260.102305 
L 497.408286 270.580142 
L 502.185591 280.364244 
L 506.962896 289.432065 
L 511.740201 297.774562 
L 516.517506 305.394809 
L 521.294811 312.306474 
L 526.072116 318.532207 
L 530.849422 324.10202 
L 535.626727 329.05168 
L 540.404032 333.421197 
L 545.181337 337.253407 
L 549.958642 340.592697 
L 554.735947 343.483885 
L 559.513252 345.971263 
L 564.290557 348.097805 
L 569.067862 349.90454 
L 573.845167 351.430078 
L 578.622472 352.710276 
L 583.399777 353.77804 
L 588.177082 354.663219 
L 592.954387 355.392608 
" clip-path="url(#p17bb0e2967)" style="fill: none; stroke: #ff0000; stroke-width: 1.5; stroke-linecap: square"/>
   </g>
   <g id="line2d_16">
    <path d="M 120.001185 354.936766 
L 124.77849 354.132953 
L 129.555795 353.166033 
L 134.3331 352.009627 
L 139.110405 350.634635 
L 143.887711 349.009291 
L 148.665016 347.099314 
L 153.442321 344.868149 
L 158.219626 342.277333 
L 162.996931 339.286988 
L 167.774236 335.856444 
L 172.551541 331.945007 
L 177.328846 327.512869 
L 182.106151 322.522144 
L 186.883456 316.938042 
L 191.660761 310.730138 
L 196.438066 303.873728 
L 201.215371 296.351231 
L 205.992676 288.1536 
L 210.769982 279.281697 
L 215.547287 269.747584 
L 220.324592 259.57567 
L 225.101897 248.803667 
L 229.879202 237.483292 
L 234.656507 225.680671 
L 239.433812 213.476393 
L 244.211117 200.965178 
L 248.988422 188.25514 
L 253.765727 175.466613 
L 258.543032 162.730566 
L 263.320337 150.186594 
L 268.097642 137.980551 
L 272.874948 126.261844 
L 277.652253 115.180479 
L 282.429558 104.883918 
L 287.206863 95.513846 
L 291.984168 87.202951 
L 296.761473 80.071804 
L 301.538778 74.225958 
L 306.316083 69.753344 
L 311.093388 66.722077 
L 315.870693 65.178727 
L 320.647998 65.147131 
L 325.425303 66.627777 
L 330.202608 69.597794 
L 334.979913 74.01154 
L 339.757219 79.801768 
L 344.534524 86.88133 
L 349.311829 95.145359 
L 354.089134 104.473855 
L 358.866439 114.734574 
L 363.643744 125.786139 
L 368.421049 137.481267 
L 373.198354 149.669994 
L 377.975659 162.202826 
L 382.752964 174.933707 
L 387.530269 187.722729 
L 392.307574 200.438523 
L 397.084879 212.960274 
L 401.862185 225.179336 
L 406.63949 237.00041 
L 411.416795 248.342309 
L 416.1941 259.138304 
L 420.971405 269.336081 
L 425.74871 278.897359 
L 430.526015 287.79719 
L 435.30332 296.023019 
L 440.080625 303.573543 
L 444.85793 310.457422 
L 449.635235 316.691911 
L 454.41254 322.301445 
L 459.189845 327.316236 
L 463.96715 331.77092 
L 468.744456 335.703277 
L 473.521761 339.153058 
L 478.299066 342.160938 
L 483.076371 344.767604 
L 487.853676 347.012982 
L 492.630981 348.935604 
L 497.408286 350.57211 
L 502.185591 351.956886 
L 506.962896 353.121805 
L 511.740201 354.096078 
L 516.517506 354.906199 
L 521.294811 355.575952 
L 526.072116 356.126494 
L 530.849422 356.576464 
L 535.626727 356.942152 
L 540.404032 357.237664 
L 545.181337 357.475125 
L 549.958642 357.664868 
L 554.735947 357.815636 
L 559.513252 357.934766 
L 564.290557 358.028376 
L 569.067862 358.101524 
L 573.845167 358.158368 
L 578.622472 358.202299 
L 583.399777 358.236063 
L 588.177082 358.261871 
L 592.954387 358.281489 
" clip-path="url(#p17bb0e2967)" style="fill: none; stroke: #008000; stroke-width: 1.5; stroke-linecap: square"/>
   </g>
   <g id="patch_103">
    <path d="M 58.074219 358.33875 
L 58.074219 25.69875 
" style="fill: none; stroke: #000000; stroke-width: 0.8; stroke-linejoin: miter; stroke-linecap: square"/>
   </g>
   <g id="patch_104">
    <path d="M 727.674219 358.33875 
L 727.674219 25.69875 
" style="fill: none; stroke: #000000; stroke-width: 0.8; stroke-linejoin: miter; stroke-linecap: square"/>
   </g>
   <g id="patch_105">
    <path d="M 58.074219 358.33875 
L 727.674219 358.33875 
" style="fill: none; stroke: #000000; stroke-width: 0.8; stroke-linejoin: miter; stroke-linecap: square"/>
   </g>
   <g id="patch_106">
    <path d="M 58.074219 25.69875 
L 727.674219 25.69875 
" style="fill: none; stroke: #000000; stroke-width: 0.8; stroke-linejoin: miter; stroke-linecap: square"/>
   </g>
   <g id="text_17">
    <!-- Histogram and Gaussian approx. of s1 and s2 -->
    <g transform="translate(229.397656 19.69875) scale(0.18 -0.18)">
     <defs>
      <path id="TimesNewRomanPSMT-48" d="M 1316 2272 
L 3284 2272 
L 3284 3484 
Q 3284 3809 3244 3913 
Q 3213 3991 3113 4047 
Q 2978 4122 2828 4122 
L 2678 4122 
L 2678 4238 
L 4491 4238 
L 4491 4122 
L 4341 4122 
Q 4191 4122 4056 4050 
Q 3956 4000 3920 3898 
Q 3884 3797 3884 3484 
L 3884 750 
Q 3884 428 3925 325 
Q 3956 247 4053 191 
Q 4191 116 4341 116 
L 4491 116 
L 4491 0 
L 2678 0 
L 2678 116 
L 2828 116 
Q 3088 116 3206 269 
Q 3284 369 3284 750 
L 3284 2041 
L 1316 2041 
L 1316 750 
Q 1316 428 1356 325 
Q 1388 247 1488 191 
Q 1622 116 1772 116 
L 1925 116 
L 1925 0 
L 109 0 
L 109 116 
L 259 116 
Q 522 116 641 269 
Q 716 369 716 750 
L 716 3484 
Q 716 3809 675 3913 
Q 644 3991 547 4047 
Q 409 4122 259 4122 
L 109 4122 
L 109 4238 
L 1925 4238 
L 1925 4122 
L 1772 4122 
Q 1622 4122 1488 4050 
Q 1391 4000 1353 3898 
Q 1316 3797 1316 3484 
L 1316 2272 
z
" transform="scale(0.015625)"/>
      <path id="TimesNewRomanPSMT-69" d="M 928 4444 
Q 1059 4444 1151 4351 
Q 1244 4259 1244 4128 
Q 1244 3997 1151 3903 
Q 1059 3809 928 3809 
Q 797 3809 703 3903 
Q 609 3997 609 4128 
Q 609 4259 701 4351 
Q 794 4444 928 4444 
z
M 1188 2947 
L 1188 647 
Q 1188 378 1227 289 
Q 1266 200 1342 156 
Q 1419 113 1622 113 
L 1622 0 
L 231 0 
L 231 113 
Q 441 113 512 153 
Q 584 194 626 287 
Q 669 381 669 647 
L 669 1750 
Q 669 2216 641 2353 
Q 619 2453 572 2492 
Q 525 2531 444 2531 
Q 356 2531 231 2484 
L 188 2597 
L 1050 2947 
L 1188 2947 
z
" transform="scale(0.015625)"/>
      <path id="TimesNewRomanPSMT-74" d="M 1031 3803 
L 1031 2863 
L 1700 2863 
L 1700 2644 
L 1031 2644 
L 1031 788 
Q 1031 509 1111 412 
Q 1191 316 1316 316 
Q 1419 316 1516 380 
Q 1613 444 1666 569 
L 1788 569 
Q 1678 263 1478 108 
Q 1278 -47 1066 -47 
Q 922 -47 784 33 
Q 647 113 581 261 
Q 516 409 516 719 
L 516 2644 
L 63 2644 
L 63 2747 
Q 234 2816 414 2980 
Q 594 3144 734 3369 
Q 806 3488 934 3803 
L 1031 3803 
z
" transform="scale(0.015625)"/>
      <path id="TimesNewRomanPSMT-6f" d="M 1600 2947 
Q 2250 2947 2644 2453 
Q 2978 2031 2978 1484 
Q 2978 1100 2793 706 
Q 2609 313 2286 112 
Q 1963 -88 1566 -88 
Q 919 -88 538 428 
Q 216 863 216 1403 
Q 216 1797 411 2186 
Q 606 2575 925 2761 
Q 1244 2947 1600 2947 
z
M 1503 2744 
Q 1338 2744 1170 2645 
Q 1003 2547 900 2300 
Q 797 2053 797 1666 
Q 797 1041 1045 587 
Q 1294 134 1700 134 
Q 2003 134 2200 384 
Q 2397 634 2397 1244 
Q 2397 2006 2069 2444 
Q 1847 2744 1503 2744 
z
" transform="scale(0.015625)"/>
      <path id="TimesNewRomanPSMT-67" d="M 966 1044 
Q 703 1172 562 1401 
Q 422 1631 422 1909 
Q 422 2334 742 2640 
Q 1063 2947 1563 2947 
Q 1972 2947 2272 2747 
L 2878 2747 
Q 3013 2747 3034 2739 
Q 3056 2731 3066 2713 
Q 3084 2684 3084 2613 
Q 3084 2531 3069 2500 
Q 3059 2484 3036 2475 
Q 3013 2466 2878 2466 
L 2506 2466 
Q 2681 2241 2681 1891 
Q 2681 1491 2375 1206 
Q 2069 922 1553 922 
Q 1341 922 1119 984 
Q 981 866 932 777 
Q 884 688 884 625 
Q 884 572 936 522 
Q 988 472 1138 450 
Q 1225 438 1575 428 
Q 2219 413 2409 384 
Q 2700 344 2873 169 
Q 3047 -6 3047 -263 
Q 3047 -616 2716 -925 
Q 2228 -1381 1444 -1381 
Q 841 -1381 425 -1109 
Q 191 -953 191 -784 
Q 191 -709 225 -634 
Q 278 -519 444 -313 
Q 466 -284 763 25 
Q 600 122 533 198 
Q 466 275 466 372 
Q 466 481 555 628 
Q 644 775 966 1044 
z
M 1509 2797 
Q 1278 2797 1122 2612 
Q 966 2428 966 2047 
Q 966 1553 1178 1281 
Q 1341 1075 1591 1075 
Q 1828 1075 1981 1253 
Q 2134 1431 2134 1813 
Q 2134 2309 1919 2591 
Q 1759 2797 1509 2797 
z
M 934 0 
Q 788 -159 713 -296 
Q 638 -434 638 -550 
Q 638 -700 819 -813 
Q 1131 -1006 1722 -1006 
Q 2284 -1006 2551 -807 
Q 2819 -609 2819 -384 
Q 2819 -222 2659 -153 
Q 2497 -84 2016 -72 
Q 1313 -53 934 0 
z
" transform="scale(0.015625)"/>
      <path id="TimesNewRomanPSMT-61" d="M 1822 413 
Q 1381 72 1269 19 
Q 1100 -59 909 -59 
Q 613 -59 420 144 
Q 228 347 228 678 
Q 228 888 322 1041 
Q 450 1253 767 1440 
Q 1084 1628 1822 1897 
L 1822 2009 
Q 1822 2438 1686 2597 
Q 1550 2756 1291 2756 
Q 1094 2756 978 2650 
Q 859 2544 859 2406 
L 866 2225 
Q 866 2081 792 2003 
Q 719 1925 600 1925 
Q 484 1925 411 2006 
Q 338 2088 338 2228 
Q 338 2497 613 2722 
Q 888 2947 1384 2947 
Q 1766 2947 2009 2819 
Q 2194 2722 2281 2516 
Q 2338 2381 2338 1966 
L 2338 994 
Q 2338 584 2353 492 
Q 2369 400 2405 369 
Q 2441 338 2488 338 
Q 2538 338 2575 359 
Q 2641 400 2828 588 
L 2828 413 
Q 2478 -56 2159 -56 
Q 2006 -56 1915 50 
Q 1825 156 1822 413 
z
M 1822 616 
L 1822 1706 
Q 1350 1519 1213 1441 
Q 966 1303 859 1153 
Q 753 1003 753 825 
Q 753 600 887 451 
Q 1022 303 1197 303 
Q 1434 303 1822 616 
z
" transform="scale(0.015625)"/>
      <path id="TimesNewRomanPSMT-6d" d="M 1050 2338 
Q 1363 2650 1419 2697 
Q 1559 2816 1721 2881 
Q 1884 2947 2044 2947 
Q 2313 2947 2506 2790 
Q 2700 2634 2766 2338 
Q 3088 2713 3309 2830 
Q 3531 2947 3766 2947 
Q 3994 2947 4170 2830 
Q 4347 2713 4450 2447 
Q 4519 2266 4519 1878 
L 4519 647 
Q 4519 378 4559 278 
Q 4591 209 4675 161 
Q 4759 113 4950 113 
L 4950 0 
L 3538 0 
L 3538 113 
L 3597 113 
Q 3781 113 3884 184 
Q 3956 234 3988 344 
Q 4000 397 4000 647 
L 4000 1878 
Q 4000 2228 3916 2372 
Q 3794 2572 3525 2572 
Q 3359 2572 3192 2489 
Q 3025 2406 2788 2181 
L 2781 2147 
L 2788 2013 
L 2788 647 
Q 2788 353 2820 281 
Q 2853 209 2943 161 
Q 3034 113 3253 113 
L 3253 0 
L 1806 0 
L 1806 113 
Q 2044 113 2133 169 
Q 2222 225 2256 338 
Q 2272 391 2272 647 
L 2272 1878 
Q 2272 2228 2169 2381 
Q 2031 2581 1784 2581 
Q 1616 2581 1450 2491 
Q 1191 2353 1050 2181 
L 1050 647 
Q 1050 366 1089 281 
Q 1128 197 1204 155 
Q 1281 113 1516 113 
L 1516 0 
L 100 0 
L 100 113 
Q 297 113 375 155 
Q 453 197 493 289 
Q 534 381 534 647 
L 534 1741 
Q 534 2213 506 2350 
Q 484 2453 437 2492 
Q 391 2531 309 2531 
Q 222 2531 100 2484 
L 53 2597 
L 916 2947 
L 1050 2947 
L 1050 2338 
z
" transform="scale(0.015625)"/>
      <path id="TimesNewRomanPSMT-64" d="M 2222 322 
Q 2013 103 1813 7 
Q 1613 -88 1381 -88 
Q 913 -88 563 304 
Q 213 697 213 1313 
Q 213 1928 600 2439 
Q 988 2950 1597 2950 
Q 1975 2950 2222 2709 
L 2222 3238 
Q 2222 3728 2198 3840 
Q 2175 3953 2125 3993 
Q 2075 4034 2000 4034 
Q 1919 4034 1784 3984 
L 1744 4094 
L 2597 4444 
L 2738 4444 
L 2738 1134 
Q 2738 631 2761 520 
Q 2784 409 2836 365 
Q 2888 322 2956 322 
Q 3041 322 3181 375 
L 3216 266 
L 2366 -88 
L 2222 -88 
L 2222 322 
z
M 2222 541 
L 2222 2016 
Q 2203 2228 2109 2403 
Q 2016 2578 1861 2667 
Q 1706 2756 1559 2756 
Q 1284 2756 1069 2509 
Q 784 2184 784 1559 
Q 784 928 1059 592 
Q 1334 256 1672 256 
Q 1956 256 2222 541 
z
" transform="scale(0.015625)"/>
      <path id="TimesNewRomanPSMT-47" d="M 3928 4334 
L 4038 2997 
L 3928 2997 
Q 3763 3497 3500 3750 
Q 3122 4116 2528 4116 
Q 1719 4116 1297 3475 
Q 944 2934 944 2188 
Q 944 1581 1178 1081 
Q 1413 581 1792 348 
Q 2172 116 2572 116 
Q 2806 116 3025 175 
Q 3244 234 3447 350 
L 3447 1575 
Q 3447 1894 3398 1992 
Q 3350 2091 3248 2142 
Q 3147 2194 2891 2194 
L 2891 2313 
L 4531 2313 
L 4531 2194 
L 4453 2194 
Q 4209 2194 4119 2031 
Q 4056 1916 4056 1575 
L 4056 278 
Q 3697 84 3347 -6 
Q 2997 -97 2569 -97 
Q 1341 -97 703 691 
Q 225 1281 225 2053 
Q 225 2613 494 3125 
Q 813 3734 1369 4063 
Q 1834 4334 2469 4334 
Q 2700 4334 2889 4296 
Q 3078 4259 3425 4131 
Q 3600 4066 3659 4066 
Q 3719 4066 3761 4120 
Q 3803 4175 3813 4334 
L 3928 4334 
z
" transform="scale(0.015625)"/>
      <path id="TimesNewRomanPSMT-70" d="M -6 2578 
L 875 2934 
L 994 2934 
L 994 2266 
Q 1216 2644 1439 2795 
Q 1663 2947 1909 2947 
Q 2341 2947 2628 2609 
Q 2981 2197 2981 1534 
Q 2981 794 2556 309 
Q 2206 -88 1675 -88 
Q 1444 -88 1275 -22 
Q 1150 25 994 166 
L 994 -706 
Q 994 -1000 1030 -1079 
Q 1066 -1159 1155 -1206 
Q 1244 -1253 1478 -1253 
L 1478 -1369 
L -22 -1369 
L -22 -1253 
L 56 -1253 
Q 228 -1256 350 -1188 
Q 409 -1153 442 -1076 
Q 475 -1000 475 -688 
L 475 2019 
Q 475 2297 450 2372 
Q 425 2447 370 2484 
Q 316 2522 222 2522 
Q 147 2522 31 2478 
L -6 2578 
z
M 994 2081 
L 994 1013 
Q 994 666 1022 556 
Q 1066 375 1236 237 
Q 1406 100 1666 100 
Q 1978 100 2172 344 
Q 2425 663 2425 1241 
Q 2425 1897 2138 2250 
Q 1938 2494 1663 2494 
Q 1513 2494 1366 2419 
Q 1253 2363 994 2081 
z
" transform="scale(0.015625)"/>
      <path id="TimesNewRomanPSMT-78" d="M 84 2863 
L 1431 2863 
L 1431 2747 
Q 1303 2747 1251 2703 
Q 1200 2659 1200 2588 
Q 1200 2513 1309 2356 
Q 1344 2306 1413 2200 
L 1616 1875 
L 1850 2200 
Q 2075 2509 2075 2591 
Q 2075 2656 2022 2701 
Q 1969 2747 1850 2747 
L 1850 2863 
L 2819 2863 
L 2819 2747 
Q 2666 2738 2553 2663 
Q 2400 2556 2134 2200 
L 1744 1678 
L 2456 653 
Q 2719 275 2831 198 
Q 2944 122 3122 113 
L 3122 0 
L 1772 0 
L 1772 113 
Q 1913 113 1991 175 
Q 2050 219 2050 291 
Q 2050 363 1850 653 
L 1431 1266 
L 972 653 
Q 759 369 759 316 
Q 759 241 829 180 
Q 900 119 1041 113 
L 1041 0 
L 106 0 
L 106 113 
Q 219 128 303 191 
Q 422 281 703 653 
L 1303 1450 
L 759 2238 
Q 528 2575 401 2661 
Q 275 2747 84 2747 
L 84 2863 
z
" transform="scale(0.015625)"/>
      <path id="TimesNewRomanPSMT-66" d="M 1319 2638 
L 1319 756 
Q 1319 356 1406 250 
Q 1522 113 1716 113 
L 1975 113 
L 1975 0 
L 266 0 
L 266 113 
L 394 113 
Q 519 113 622 175 
Q 725 238 764 344 
Q 803 450 803 756 
L 803 2638 
L 247 2638 
L 247 2863 
L 803 2863 
L 803 3050 
Q 803 3478 940 3775 
Q 1078 4072 1361 4255 
Q 1644 4438 1997 4438 
Q 2325 4438 2600 4225 
Q 2781 4084 2781 3909 
Q 2781 3816 2700 3733 
Q 2619 3650 2525 3650 
Q 2453 3650 2373 3701 
Q 2294 3753 2178 3923 
Q 2063 4094 1966 4153 
Q 1869 4213 1750 4213 
Q 1606 4213 1506 4136 
Q 1406 4059 1362 3898 
Q 1319 3738 1319 3069 
L 1319 2863 
L 2056 2863 
L 2056 2638 
L 1319 2638 
z
" transform="scale(0.015625)"/>
     </defs>
     <use xlink:href="#TimesNewRomanPSMT-48"/>
     <use xlink:href="#TimesNewRomanPSMT-69" x="72.216797"/>
     <use xlink:href="#TimesNewRomanPSMT-73" x="100"/>
     <use xlink:href="#TimesNewRomanPSMT-74" x="138.916016"/>
     <use xlink:href="#TimesNewRomanPSMT-6f" x="166.699219"/>
     <use xlink:href="#TimesNewRomanPSMT-67" x="216.699219"/>
     <use xlink:href="#TimesNewRomanPSMT-72" x="266.699219"/>
     <use xlink:href="#TimesNewRomanPSMT-61" x="300"/>
     <use xlink:href="#TimesNewRomanPSMT-6d" x="344.384766"/>
     <use xlink:href="#TimesNewRomanPSMT-20" x="422.167969"/>
     <use xlink:href="#TimesNewRomanPSMT-61" x="447.167969"/>
     <use xlink:href="#TimesNewRomanPSMT-6e" x="491.552734"/>
     <use xlink:href="#TimesNewRomanPSMT-64" x="541.552734"/>
     <use xlink:href="#TimesNewRomanPSMT-20" x="591.552734"/>
     <use xlink:href="#TimesNewRomanPSMT-47" x="616.552734"/>
     <use xlink:href="#TimesNewRomanPSMT-61" x="688.769531"/>
     <use xlink:href="#TimesNewRomanPSMT-75" x="733.154297"/>
     <use xlink:href="#TimesNewRomanPSMT-73" x="783.154297"/>
     <use xlink:href="#TimesNewRomanPSMT-73" x="822.070312"/>
     <use xlink:href="#TimesNewRomanPSMT-69" x="860.986328"/>
     <use xlink:href="#TimesNewRomanPSMT-61" x="888.769531"/>
     <use xlink:href="#TimesNewRomanPSMT-6e" x="933.154297"/>
     <use xlink:href="#TimesNewRomanPSMT-20" x="983.154297"/>
     <use xlink:href="#TimesNewRomanPSMT-61" x="1008.154297"/>
     <use xlink:href="#TimesNewRomanPSMT-70" x="1052.539062"/>
     <use xlink:href="#TimesNewRomanPSMT-70" x="1102.539062"/>
     <use xlink:href="#TimesNewRomanPSMT-72" x="1152.539062"/>
     <use xlink:href="#TimesNewRomanPSMT-6f" x="1185.839844"/>
     <use xlink:href="#TimesNewRomanPSMT-78" x="1235.839844"/>
     <use xlink:href="#TimesNewRomanPSMT-2e" x="1285.839844"/>
     <use xlink:href="#TimesNewRomanPSMT-20" x="1310.839844"/>
     <use xlink:href="#TimesNewRomanPSMT-6f" x="1335.839844"/>
     <use xlink:href="#TimesNewRomanPSMT-66" x="1385.839844"/>
     <use xlink:href="#TimesNewRomanPSMT-20" x="1419.140625"/>
     <use xlink:href="#TimesNewRomanPSMT-73" x="1444.140625"/>
     <use xlink:href="#TimesNewRomanPSMT-31" x="1483.056641"/>
     <use xlink:href="#TimesNewRomanPSMT-20" x="1533.056641"/>
     <use xlink:href="#TimesNewRomanPSMT-61" x="1558.056641"/>
     <use xlink:href="#TimesNewRomanPSMT-6e" x="1602.441406"/>
     <use xlink:href="#TimesNewRomanPSMT-64" x="1652.441406"/>
     <use xlink:href="#TimesNewRomanPSMT-20" x="1702.441406"/>
     <use xlink:href="#TimesNewRomanPSMT-73" x="1727.441406"/>
     <use xlink:href="#TimesNewRomanPSMT-32" x="1766.357422"/>
    </g>
   </g>
   <g id="legend_1">
    <g id="patch_107">
     <path d="M 505.861719 122.533125 
L 717.174219 122.533125 
Q 720.174219 122.533125 720.174219 119.533125 
L 720.174219 36.19875 
Q 720.174219 33.19875 717.174219 33.19875 
L 505.861719 33.19875 
Q 502.861719 33.19875 502.861719 36.19875 
L 502.861719 119.533125 
Q 502.861719 122.533125 505.861719 122.533125 
z
" style="fill: #ffffff; opacity: 0.8; stroke: #cccccc; stroke-linejoin: miter"/>
    </g>
    <g id="patch_108">
     <path d="M 508.861719 49.69875 
L 538.861719 49.69875 
L 538.861719 39.19875 
L 508.861719 39.19875 
z
" style="fill: #0000ff"/>
    </g>
    <g id="text_18">
     <!-- s1 samples -->
     <g transform="translate(550.861719 49.69875) scale(0.15 -0.15)">
      <defs>
       <path id="TimesNewRomanPSMT-6c" d="M 1184 4444 
L 1184 647 
Q 1184 378 1223 290 
Q 1263 203 1344 158 
Q 1425 113 1647 113 
L 1647 0 
L 244 0 
L 244 113 
Q 441 113 512 153 
Q 584 194 625 287 
Q 666 381 666 647 
L 666 3247 
Q 666 3731 644 3842 
Q 622 3953 573 3993 
Q 525 4034 450 4034 
Q 369 4034 244 3984 
L 191 4094 
L 1044 4444 
L 1184 4444 
z
" transform="scale(0.015625)"/>
      </defs>
      <use xlink:href="#TimesNewRomanPSMT-73"/>
      <use xlink:href="#TimesNewRomanPSMT-31" x="38.916016"/>
      <use xlink:href="#TimesNewRomanPSMT-20" x="88.916016"/>
      <use xlink:href="#TimesNewRomanPSMT-73" x="113.916016"/>
      <use xlink:href="#TimesNewRomanPSMT-61" x="152.832031"/>
      <use xlink:href="#TimesNewRomanPSMT-6d" x="197.216797"/>
      <use xlink:href="#TimesNewRomanPSMT-70" x="275"/>
      <use xlink:href="#TimesNewRomanPSMT-6c" x="325"/>
      <use xlink:href="#TimesNewRomanPSMT-65" x="352.783203"/>
      <use xlink:href="#TimesNewRomanPSMT-73" x="397.167969"/>
     </g>
    </g>
    <g id="line2d_17">
     <path d="M 508.861719 65.657344 
L 523.861719 65.657344 
L 538.861719 65.657344 
" style="fill: none; stroke: #ff0000; stroke-width: 1.5; stroke-linecap: square"/>
    </g>
    <g id="text_19">
     <!-- s1 Gaussian approximation -->
     <g transform="translate(550.861719 70.907344) scale(0.15 -0.15)">
      <use xlink:href="#TimesNewRomanPSMT-73"/>
      <use xlink:href="#TimesNewRomanPSMT-31" x="38.916016"/>
      <use xlink:href="#TimesNewRomanPSMT-20" x="88.916016"/>
      <use xlink:href="#TimesNewRomanPSMT-47" x="113.916016"/>
      <use xlink:href="#TimesNewRomanPSMT-61" x="186.132812"/>
      <use xlink:href="#TimesNewRomanPSMT-75" x="230.517578"/>
      <use xlink:href="#TimesNewRomanPSMT-73" x="280.517578"/>
      <use xlink:href="#TimesNewRomanPSMT-73" x="319.433594"/>
      <use xlink:href="#TimesNewRomanPSMT-69" x="358.349609"/>
      <use xlink:href="#TimesNewRomanPSMT-61" x="386.132812"/>
      <use xlink:href="#TimesNewRomanPSMT-6e" x="430.517578"/>
      <use xlink:href="#TimesNewRomanPSMT-20" x="480.517578"/>
      <use xlink:href="#TimesNewRomanPSMT-61" x="505.517578"/>
      <use xlink:href="#TimesNewRomanPSMT-70" x="549.902344"/>
      <use xlink:href="#TimesNewRomanPSMT-70" x="599.902344"/>
      <use xlink:href="#TimesNewRomanPSMT-72" x="649.902344"/>
      <use xlink:href="#TimesNewRomanPSMT-6f" x="683.203125"/>
      <use xlink:href="#TimesNewRomanPSMT-78" x="733.203125"/>
      <use xlink:href="#TimesNewRomanPSMT-69" x="783.203125"/>
      <use xlink:href="#TimesNewRomanPSMT-6d" x="810.986328"/>
      <use xlink:href="#TimesNewRomanPSMT-61" x="888.769531"/>
      <use xlink:href="#TimesNewRomanPSMT-74" x="933.154297"/>
      <use xlink:href="#TimesNewRomanPSMT-69" x="960.9375"/>
      <use xlink:href="#TimesNewRomanPSMT-6f" x="988.720703"/>
      <use xlink:href="#TimesNewRomanPSMT-6e" x="1038.720703"/>
     </g>
    </g>
    <g id="patch_109">
     <path d="M 508.861719 92.115937 
L 538.861719 92.115937 
L 538.861719 81.615937 
L 508.861719 81.615937 
z
" style="fill: #ffa500"/>
    </g>
    <g id="text_20">
     <!-- s2 samples -->
     <g transform="translate(550.861719 92.115937) scale(0.15 -0.15)">
      <use xlink:href="#TimesNewRomanPSMT-73"/>
      <use xlink:href="#TimesNewRomanPSMT-32" x="38.916016"/>
      <use xlink:href="#TimesNewRomanPSMT-20" x="88.916016"/>
      <use xlink:href="#TimesNewRomanPSMT-73" x="113.916016"/>
      <use xlink:href="#TimesNewRomanPSMT-61" x="152.832031"/>
      <use xlink:href="#TimesNewRomanPSMT-6d" x="197.216797"/>
      <use xlink:href="#TimesNewRomanPSMT-70" x="275"/>
      <use xlink:href="#TimesNewRomanPSMT-6c" x="325"/>
      <use xlink:href="#TimesNewRomanPSMT-65" x="352.783203"/>
      <use xlink:href="#TimesNewRomanPSMT-73" x="397.167969"/>
     </g>
    </g>
    <g id="line2d_18">
     <path d="M 508.861719 108.074531 
L 523.861719 108.074531 
L 538.861719 108.074531 
" style="fill: none; stroke: #008000; stroke-width: 1.5; stroke-linecap: square"/>
    </g>
    <g id="text_21">
     <!-- s2 Gaussian approximation -->
     <g transform="translate(550.861719 113.324531) scale(0.15 -0.15)">
      <use xlink:href="#TimesNewRomanPSMT-73"/>
      <use xlink:href="#TimesNewRomanPSMT-32" x="38.916016"/>
      <use xlink:href="#TimesNewRomanPSMT-20" x="88.916016"/>
      <use xlink:href="#TimesNewRomanPSMT-47" x="113.916016"/>
      <use xlink:href="#TimesNewRomanPSMT-61" x="186.132812"/>
      <use xlink:href="#TimesNewRomanPSMT-75" x="230.517578"/>
      <use xlink:href="#TimesNewRomanPSMT-73" x="280.517578"/>
      <use xlink:href="#TimesNewRomanPSMT-73" x="319.433594"/>
      <use xlink:href="#TimesNewRomanPSMT-69" x="358.349609"/>
      <use xlink:href="#TimesNewRomanPSMT-61" x="386.132812"/>
      <use xlink:href="#TimesNewRomanPSMT-6e" x="430.517578"/>
      <use xlink:href="#TimesNewRomanPSMT-20" x="480.517578"/>
      <use xlink:href="#TimesNewRomanPSMT-61" x="505.517578"/>
      <use xlink:href="#TimesNewRomanPSMT-70" x="549.902344"/>
      <use xlink:href="#TimesNewRomanPSMT-70" x="599.902344"/>
      <use xlink:href="#TimesNewRomanPSMT-72" x="649.902344"/>
      <use xlink:href="#TimesNewRomanPSMT-6f" x="683.203125"/>
      <use xlink:href="#TimesNewRomanPSMT-78" x="733.203125"/>
      <use xlink:href="#TimesNewRomanPSMT-69" x="783.203125"/>
      <use xlink:href="#TimesNewRomanPSMT-6d" x="810.986328"/>
      <use xlink:href="#TimesNewRomanPSMT-61" x="888.769531"/>
      <use xlink:href="#TimesNewRomanPSMT-74" x="933.154297"/>
      <use xlink:href="#TimesNewRomanPSMT-69" x="960.9375"/>
      <use xlink:href="#TimesNewRomanPSMT-6f" x="988.720703"/>
      <use xlink:href="#TimesNewRomanPSMT-6e" x="1038.720703"/>
     </g>
    </g>
   </g>
  </g>
 </g>
 <defs>
  <clipPath id="p17bb0e2967">
   <rect x="58.074219" y="25.69875" width="669.6" height="332.64"/>
  </clipPath>
 </defs>
</svg>
