<?xml version="1.0" encoding="utf-8" standalone="no"?>
<!DOCTYPE svg PUBLIC "-//W3C//DTD SVG 1.1//EN"
  "http://www.w3.org/Graphics/SVG/1.1/DTD/svg11.dtd">
<svg xmlns:xlink="http://www.w3.org/1999/xlink" width="723.624219pt" height="403.787187pt" viewBox="0 0 723.624219 403.787187" xmlns="http://www.w3.org/2000/svg" version="1.1">
 <metadata>
  <rdf:RDF xmlns:dc="http://purl.org/dc/elements/1.1/" xmlns:cc="http://creativecommons.org/ns#" xmlns:rdf="http://www.w3.org/1999/02/22-rdf-syntax-ns#">
   <cc:Work>
    <dc:type rdf:resource="http://purl.org/dc/dcmitype/StillImage"/>
    <dc:date>2023-10-17T13:57:52.098492</dc:date>
    <dc:format>image/svg+xml</dc:format>
    <dc:creator>
     <cc:Agent>
      <dc:title>Matplotlib v3.8.0, https://matplotlib.org/</dc:title>
     </cc:Agent>
    </dc:creator>
   </cc:Work>
  </rdf:RDF>
 </metadata>
 <defs>
  <style type="text/css">*{stroke-linejoin: round; stroke-linecap: butt}</style>
 </defs>
 <g id="figure_1">
  <g id="patch_1">
   <path d="M 0 403.787187 
L 723.624219 403.787187 
L 723.624219 0 
L 0 0 
z
" style="fill: #ffffff"/>
  </g>
  <g id="axes_1">
   <g id="patch_2">
    <path d="M 46.824219 358.33875 
L 716.424219 358.33875 
L 716.424219 25.69875 
L 46.824219 25.69875 
z
" style="fill: #ffffff"/>
   </g>
   <g id="matplotlib.axis_1">
    <g id="xtick_1">
     <g id="line2d_1">
      <defs>
       <path id="m4c717b1ea4" d="M 0 0 
L 0 3.5 
" style="stroke: #000000; stroke-width: 0.8"/>
      </defs>
      <g>
       <use xlink:href="#m4c717b1ea4" x="77.260582" y="358.33875" style="stroke: #000000; stroke-width: 0.8"/>
      </g>
     </g>
     <g id="text_1">
      <!-- 0 -->
      <g transform="translate(73.510582 375.754375) scale(0.15 -0.15)">
       <defs>
        <path id="TimesNewRomanPSMT-30" d="M 231 2094 
Q 231 2819 450 3342 
Q 669 3866 1031 4122 
Q 1313 4325 1613 4325 
Q 2100 4325 2488 3828 
Q 2972 3213 2972 2159 
Q 2972 1422 2759 906 
Q 2547 391 2217 158 
Q 1888 -75 1581 -75 
Q 975 -75 572 641 
Q 231 1244 231 2094 
z
M 844 2016 
Q 844 1141 1059 588 
Q 1238 122 1591 122 
Q 1759 122 1940 273 
Q 2122 425 2216 781 
Q 2359 1319 2359 2297 
Q 2359 3022 2209 3506 
Q 2097 3866 1919 4016 
Q 1791 4119 1609 4119 
Q 1397 4119 1231 3928 
Q 1006 3669 925 3112 
Q 844 2556 844 2016 
z
" transform="scale(0.015625)"/>
       </defs>
       <use xlink:href="#TimesNewRomanPSMT-30"/>
      </g>
     </g>
    </g>
    <g id="xtick_2">
     <g id="line2d_2">
      <g>
       <use xlink:href="#m4c717b1ea4" x="206.782535" y="358.33875" style="stroke: #000000; stroke-width: 0.8"/>
      </g>
     </g>
     <g id="text_2">
      <!-- 5000 -->
      <g transform="translate(191.782535 375.754375) scale(0.15 -0.15)">
       <defs>
        <path id="TimesNewRomanPSMT-35" d="M 2778 4238 
L 2534 3706 
L 1259 3706 
L 981 3138 
Q 1809 3016 2294 2522 
Q 2709 2097 2709 1522 
Q 2709 1188 2573 903 
Q 2438 619 2231 419 
Q 2025 219 1772 97 
Q 1413 -75 1034 -75 
Q 653 -75 479 54 
Q 306 184 306 341 
Q 306 428 378 495 
Q 450 563 559 563 
Q 641 563 702 538 
Q 763 513 909 409 
Q 1144 247 1384 247 
Q 1750 247 2026 523 
Q 2303 800 2303 1197 
Q 2303 1581 2056 1914 
Q 1809 2247 1375 2428 
Q 1034 2569 447 2591 
L 1259 4238 
L 2778 4238 
z
" transform="scale(0.015625)"/>
       </defs>
       <use xlink:href="#TimesNewRomanPSMT-35"/>
       <use xlink:href="#TimesNewRomanPSMT-30" x="50"/>
       <use xlink:href="#TimesNewRomanPSMT-30" x="100"/>
       <use xlink:href="#TimesNewRomanPSMT-30" x="150"/>
      </g>
     </g>
    </g>
    <g id="xtick_3">
     <g id="line2d_3">
      <g>
       <use xlink:href="#m4c717b1ea4" x="336.304488" y="358.33875" style="stroke: #000000; stroke-width: 0.8"/>
      </g>
     </g>
     <g id="text_3">
      <!-- 10000 -->
      <g transform="translate(317.554488 375.754375) scale(0.15 -0.15)">
       <defs>
        <path id="TimesNewRomanPSMT-31" d="M 750 3822 
L 1781 4325 
L 1884 4325 
L 1884 747 
Q 1884 391 1914 303 
Q 1944 216 2037 169 
Q 2131 122 2419 116 
L 2419 0 
L 825 0 
L 825 116 
Q 1125 122 1212 167 
Q 1300 213 1334 289 
Q 1369 366 1369 747 
L 1369 3034 
Q 1369 3497 1338 3628 
Q 1316 3728 1258 3775 
Q 1200 3822 1119 3822 
Q 1003 3822 797 3725 
L 750 3822 
z
" transform="scale(0.015625)"/>
       </defs>
       <use xlink:href="#TimesNewRomanPSMT-31"/>
       <use xlink:href="#TimesNewRomanPSMT-30" x="50"/>
       <use xlink:href="#TimesNewRomanPSMT-30" x="100"/>
       <use xlink:href="#TimesNewRomanPSMT-30" x="150"/>
       <use xlink:href="#TimesNewRomanPSMT-30" x="200"/>
      </g>
     </g>
    </g>
    <g id="xtick_4">
     <g id="line2d_4">
      <g>
       <use xlink:href="#m4c717b1ea4" x="465.82644" y="358.33875" style="stroke: #000000; stroke-width: 0.8"/>
      </g>
     </g>
     <g id="text_4">
      <!-- 15000 -->
      <g transform="translate(447.07644 375.754375) scale(0.15 -0.15)">
       <use xlink:href="#TimesNewRomanPSMT-31"/>
       <use xlink:href="#TimesNewRomanPSMT-35" x="50"/>
       <use xlink:href="#TimesNewRomanPSMT-30" x="100"/>
       <use xlink:href="#TimesNewRomanPSMT-30" x="150"/>
       <use xlink:href="#TimesNewRomanPSMT-30" x="200"/>
      </g>
     </g>
    </g>
    <g id="xtick_5">
     <g id="line2d_5">
      <g>
       <use xlink:href="#m4c717b1ea4" x="595.348393" y="358.33875" style="stroke: #000000; stroke-width: 0.8"/>
      </g>
     </g>
     <g id="text_5">
      <!-- 20000 -->
      <g transform="translate(576.598393 375.754375) scale(0.15 -0.15)">
       <defs>
        <path id="TimesNewRomanPSMT-32" d="M 2934 816 
L 2638 0 
L 138 0 
L 138 116 
Q 1241 1122 1691 1759 
Q 2141 2397 2141 2925 
Q 2141 3328 1894 3587 
Q 1647 3847 1303 3847 
Q 991 3847 742 3664 
Q 494 3481 375 3128 
L 259 3128 
Q 338 3706 661 4015 
Q 984 4325 1469 4325 
Q 1984 4325 2329 3994 
Q 2675 3663 2675 3213 
Q 2675 2891 2525 2569 
Q 2294 2063 1775 1497 
Q 997 647 803 472 
L 1909 472 
Q 2247 472 2383 497 
Q 2519 522 2628 598 
Q 2738 675 2819 816 
L 2934 816 
z
" transform="scale(0.015625)"/>
       </defs>
       <use xlink:href="#TimesNewRomanPSMT-32"/>
       <use xlink:href="#TimesNewRomanPSMT-30" x="50"/>
       <use xlink:href="#TimesNewRomanPSMT-30" x="100"/>
       <use xlink:href="#TimesNewRomanPSMT-30" x="150"/>
       <use xlink:href="#TimesNewRomanPSMT-30" x="200"/>
      </g>
     </g>
    </g>
    <g id="text_6">
     <!-- Iterations -->
     <g transform="translate(353.301172 393.378594) scale(0.15 -0.15)">
      <defs>
       <path id="TimesNewRomanPSMT-49" d="M 1975 116 
L 1975 0 
L 159 0 
L 159 116 
L 309 116 
Q 572 116 691 269 
Q 766 369 766 750 
L 766 3488 
Q 766 3809 725 3913 
Q 694 3991 597 4047 
Q 459 4122 309 4122 
L 159 4122 
L 159 4238 
L 1975 4238 
L 1975 4122 
L 1822 4122 
Q 1563 4122 1444 3969 
Q 1366 3869 1366 3488 
L 1366 750 
Q 1366 428 1406 325 
Q 1438 247 1538 191 
Q 1672 116 1822 116 
L 1975 116 
z
" transform="scale(0.015625)"/>
       <path id="TimesNewRomanPSMT-74" d="M 1031 3803 
L 1031 2863 
L 1700 2863 
L 1700 2644 
L 1031 2644 
L 1031 788 
Q 1031 509 1111 412 
Q 1191 316 1316 316 
Q 1419 316 1516 380 
Q 1613 444 1666 569 
L 1788 569 
Q 1678 263 1478 108 
Q 1278 -47 1066 -47 
Q 922 -47 784 33 
Q 647 113 581 261 
Q 516 409 516 719 
L 516 2644 
L 63 2644 
L 63 2747 
Q 234 2816 414 2980 
Q 594 3144 734 3369 
Q 806 3488 934 3803 
L 1031 3803 
z
" transform="scale(0.015625)"/>
       <path id="TimesNewRomanPSMT-65" d="M 681 1784 
Q 678 1147 991 784 
Q 1303 422 1725 422 
Q 2006 422 2214 576 
Q 2422 731 2563 1106 
L 2659 1044 
Q 2594 616 2278 264 
Q 1963 -88 1488 -88 
Q 972 -88 605 314 
Q 238 716 238 1394 
Q 238 2128 614 2539 
Q 991 2950 1559 2950 
Q 2041 2950 2350 2633 
Q 2659 2316 2659 1784 
L 681 1784 
z
M 681 1966 
L 2006 1966 
Q 1991 2241 1941 2353 
Q 1863 2528 1708 2628 
Q 1553 2728 1384 2728 
Q 1125 2728 920 2526 
Q 716 2325 681 1966 
z
" transform="scale(0.015625)"/>
       <path id="TimesNewRomanPSMT-72" d="M 1038 2947 
L 1038 2303 
Q 1397 2947 1775 2947 
Q 1947 2947 2059 2842 
Q 2172 2738 2172 2600 
Q 2172 2478 2090 2393 
Q 2009 2309 1897 2309 
Q 1788 2309 1652 2417 
Q 1516 2525 1450 2525 
Q 1394 2525 1328 2463 
Q 1188 2334 1038 2041 
L 1038 669 
Q 1038 431 1097 309 
Q 1138 225 1241 169 
Q 1344 113 1538 113 
L 1538 0 
L 72 0 
L 72 113 
Q 291 113 397 181 
Q 475 231 506 341 
Q 522 394 522 644 
L 522 1753 
Q 522 2253 501 2348 
Q 481 2444 426 2487 
Q 372 2531 291 2531 
Q 194 2531 72 2484 
L 41 2597 
L 906 2947 
L 1038 2947 
z
" transform="scale(0.015625)"/>
       <path id="TimesNewRomanPSMT-61" d="M 1822 413 
Q 1381 72 1269 19 
Q 1100 -59 909 -59 
Q 613 -59 420 144 
Q 228 347 228 678 
Q 228 888 322 1041 
Q 450 1253 767 1440 
Q 1084 1628 1822 1897 
L 1822 2009 
Q 1822 2438 1686 2597 
Q 1550 2756 1291 2756 
Q 1094 2756 978 2650 
Q 859 2544 859 2406 
L 866 2225 
Q 866 2081 792 2003 
Q 719 1925 600 1925 
Q 484 1925 411 2006 
Q 338 2088 338 2228 
Q 338 2497 613 2722 
Q 888 2947 1384 2947 
Q 1766 2947 2009 2819 
Q 2194 2722 2281 2516 
Q 2338 2381 2338 1966 
L 2338 994 
Q 2338 584 2353 492 
Q 2369 400 2405 369 
Q 2441 338 2488 338 
Q 2538 338 2575 359 
Q 2641 400 2828 588 
L 2828 413 
Q 2478 -56 2159 -56 
Q 2006 -56 1915 50 
Q 1825 156 1822 413 
z
M 1822 616 
L 1822 1706 
Q 1350 1519 1213 1441 
Q 966 1303 859 1153 
Q 753 1003 753 825 
Q 753 600 887 451 
Q 1022 303 1197 303 
Q 1434 303 1822 616 
z
" transform="scale(0.015625)"/>
       <path id="TimesNewRomanPSMT-69" d="M 928 4444 
Q 1059 4444 1151 4351 
Q 1244 4259 1244 4128 
Q 1244 3997 1151 3903 
Q 1059 3809 928 3809 
Q 797 3809 703 3903 
Q 609 3997 609 4128 
Q 609 4259 701 4351 
Q 794 4444 928 4444 
z
M 1188 2947 
L 1188 647 
Q 1188 378 1227 289 
Q 1266 200 1342 156 
Q 1419 113 1622 113 
L 1622 0 
L 231 0 
L 231 113 
Q 441 113 512 153 
Q 584 194 626 287 
Q 669 381 669 647 
L 669 1750 
Q 669 2216 641 2353 
Q 619 2453 572 2492 
Q 525 2531 444 2531 
Q 356 2531 231 2484 
L 188 2597 
L 1050 2947 
L 1188 2947 
z
" transform="scale(0.015625)"/>
       <path id="TimesNewRomanPSMT-6f" d="M 1600 2947 
Q 2250 2947 2644 2453 
Q 2978 2031 2978 1484 
Q 2978 1100 2793 706 
Q 2609 313 2286 112 
Q 1963 -88 1566 -88 
Q 919 -88 538 428 
Q 216 863 216 1403 
Q 216 1797 411 2186 
Q 606 2575 925 2761 
Q 1244 2947 1600 2947 
z
M 1503 2744 
Q 1338 2744 1170 2645 
Q 1003 2547 900 2300 
Q 797 2053 797 1666 
Q 797 1041 1045 587 
Q 1294 134 1700 134 
Q 2003 134 2200 384 
Q 2397 634 2397 1244 
Q 2397 2006 2069 2444 
Q 1847 2744 1503 2744 
z
" transform="scale(0.015625)"/>
       <path id="TimesNewRomanPSMT-6e" d="M 1034 2341 
Q 1538 2947 1994 2947 
Q 2228 2947 2397 2830 
Q 2566 2713 2666 2444 
Q 2734 2256 2734 1869 
L 2734 647 
Q 2734 375 2778 278 
Q 2813 200 2889 156 
Q 2966 113 3172 113 
L 3172 0 
L 1756 0 
L 1756 113 
L 1816 113 
Q 2016 113 2095 173 
Q 2175 234 2206 353 
Q 2219 400 2219 647 
L 2219 1819 
Q 2219 2209 2117 2386 
Q 2016 2563 1775 2563 
Q 1403 2563 1034 2156 
L 1034 647 
Q 1034 356 1069 288 
Q 1113 197 1189 155 
Q 1266 113 1500 113 
L 1500 0 
L 84 0 
L 84 113 
L 147 113 
Q 366 113 442 223 
Q 519 334 519 647 
L 519 1709 
Q 519 2225 495 2337 
Q 472 2450 423 2490 
Q 375 2531 294 2531 
Q 206 2531 84 2484 
L 38 2597 
L 900 2947 
L 1034 2947 
L 1034 2341 
z
" transform="scale(0.015625)"/>
       <path id="TimesNewRomanPSMT-73" d="M 2050 2947 
L 2050 1972 
L 1947 1972 
Q 1828 2431 1642 2597 
Q 1456 2763 1169 2763 
Q 950 2763 815 2647 
Q 681 2531 681 2391 
Q 681 2216 781 2091 
Q 878 1963 1175 1819 
L 1631 1597 
Q 2266 1288 2266 781 
Q 2266 391 1970 151 
Q 1675 -88 1309 -88 
Q 1047 -88 709 6 
Q 606 38 541 38 
Q 469 38 428 -44 
L 325 -44 
L 325 978 
L 428 978 
Q 516 541 762 319 
Q 1009 97 1316 97 
Q 1531 97 1667 223 
Q 1803 350 1803 528 
Q 1803 744 1651 891 
Q 1500 1038 1047 1263 
Q 594 1488 453 1669 
Q 313 1847 313 2119 
Q 313 2472 555 2709 
Q 797 2947 1181 2947 
Q 1350 2947 1591 2875 
Q 1750 2828 1803 2828 
Q 1853 2828 1881 2850 
Q 1909 2872 1947 2947 
L 2050 2947 
z
" transform="scale(0.015625)"/>
      </defs>
      <use xlink:href="#TimesNewRomanPSMT-49"/>
      <use xlink:href="#TimesNewRomanPSMT-74" x="33.300781"/>
      <use xlink:href="#TimesNewRomanPSMT-65" x="61.083984"/>
      <use xlink:href="#TimesNewRomanPSMT-72" x="105.46875"/>
      <use xlink:href="#TimesNewRomanPSMT-61" x="138.769531"/>
      <use xlink:href="#TimesNewRomanPSMT-74" x="183.154297"/>
      <use xlink:href="#TimesNewRomanPSMT-69" x="210.9375"/>
      <use xlink:href="#TimesNewRomanPSMT-6f" x="238.720703"/>
      <use xlink:href="#TimesNewRomanPSMT-6e" x="288.720703"/>
      <use xlink:href="#TimesNewRomanPSMT-73" x="338.720703"/>
     </g>
    </g>
   </g>
   <g id="matplotlib.axis_2">
    <g id="ytick_1">
     <g id="line2d_6">
      <defs>
       <path id="mbea100d40b" d="M 0 0 
L -3.5 0 
" style="stroke: #000000; stroke-width: 0.8"/>
      </defs>
      <g>
       <use xlink:href="#mbea100d40b" x="46.824219" y="343.21875" style="stroke: #000000; stroke-width: 0.8"/>
      </g>
     </g>
     <g id="text_7">
      <!-- 0 -->
      <g transform="translate(32.324219 348.426562) scale(0.15 -0.15)">
       <use xlink:href="#TimesNewRomanPSMT-30"/>
      </g>
     </g>
    </g>
    <g id="ytick_2">
     <g id="line2d_7">
      <g>
       <use xlink:href="#mbea100d40b" x="46.824219" y="292.511752" style="stroke: #000000; stroke-width: 0.8"/>
      </g>
     </g>
     <g id="text_8">
      <!-- 5 -->
      <g transform="translate(32.324219 297.719565) scale(0.15 -0.15)">
       <use xlink:href="#TimesNewRomanPSMT-35"/>
      </g>
     </g>
    </g>
    <g id="ytick_3">
     <g id="line2d_8">
      <g>
       <use xlink:href="#mbea100d40b" x="46.824219" y="241.804755" style="stroke: #000000; stroke-width: 0.8"/>
      </g>
     </g>
     <g id="text_9">
      <!-- 10 -->
      <g transform="translate(24.824219 247.012567) scale(0.15 -0.15)">
       <use xlink:href="#TimesNewRomanPSMT-31"/>
       <use xlink:href="#TimesNewRomanPSMT-30" x="50"/>
      </g>
     </g>
    </g>
    <g id="ytick_4">
     <g id="line2d_9">
      <g>
       <use xlink:href="#mbea100d40b" x="46.824219" y="191.097757" style="stroke: #000000; stroke-width: 0.8"/>
      </g>
     </g>
     <g id="text_10">
      <!-- 15 -->
      <g transform="translate(24.824219 196.305569) scale(0.15 -0.15)">
       <use xlink:href="#TimesNewRomanPSMT-31"/>
       <use xlink:href="#TimesNewRomanPSMT-35" x="50"/>
      </g>
     </g>
    </g>
    <g id="ytick_5">
     <g id="line2d_10">
      <g>
       <use xlink:href="#mbea100d40b" x="46.824219" y="140.390759" style="stroke: #000000; stroke-width: 0.8"/>
      </g>
     </g>
     <g id="text_11">
      <!-- 20 -->
      <g transform="translate(24.824219 145.598572) scale(0.15 -0.15)">
       <use xlink:href="#TimesNewRomanPSMT-32"/>
       <use xlink:href="#TimesNewRomanPSMT-30" x="50"/>
      </g>
     </g>
    </g>
    <g id="ytick_6">
     <g id="line2d_11">
      <g>
       <use xlink:href="#mbea100d40b" x="46.824219" y="89.683761" style="stroke: #000000; stroke-width: 0.8"/>
      </g>
     </g>
     <g id="text_12">
      <!-- 25 -->
      <g transform="translate(24.824219 94.891574) scale(0.15 -0.15)">
       <use xlink:href="#TimesNewRomanPSMT-32"/>
       <use xlink:href="#TimesNewRomanPSMT-35" x="50"/>
      </g>
     </g>
    </g>
    <g id="ytick_7">
     <g id="line2d_12">
      <g>
       <use xlink:href="#mbea100d40b" x="46.824219" y="38.976764" style="stroke: #000000; stroke-width: 0.8"/>
      </g>
     </g>
     <g id="text_13">
      <!-- 30 -->
      <g transform="translate(24.824219 44.184576) scale(0.15 -0.15)">
       <defs>
        <path id="TimesNewRomanPSMT-33" d="M 325 3431 
Q 506 3859 782 4092 
Q 1059 4325 1472 4325 
Q 1981 4325 2253 3994 
Q 2459 3747 2459 3466 
Q 2459 3003 1878 2509 
Q 2269 2356 2469 2072 
Q 2669 1788 2669 1403 
Q 2669 853 2319 450 
Q 1863 -75 997 -75 
Q 569 -75 414 31 
Q 259 138 259 259 
Q 259 350 332 419 
Q 406 488 509 488 
Q 588 488 669 463 
Q 722 447 909 348 
Q 1097 250 1169 231 
Q 1284 197 1416 197 
Q 1734 197 1970 444 
Q 2206 691 2206 1028 
Q 2206 1275 2097 1509 
Q 2016 1684 1919 1775 
Q 1784 1900 1550 2001 
Q 1316 2103 1072 2103 
L 972 2103 
L 972 2197 
Q 1219 2228 1467 2375 
Q 1716 2522 1828 2728 
Q 1941 2934 1941 3181 
Q 1941 3503 1739 3701 
Q 1538 3900 1238 3900 
Q 753 3900 428 3381 
L 325 3431 
z
" transform="scale(0.015625)"/>
       </defs>
       <use xlink:href="#TimesNewRomanPSMT-33"/>
       <use xlink:href="#TimesNewRomanPSMT-30" x="50"/>
      </g>
     </g>
    </g>
    <g id="text_14">
     <!-- s1, s2 -->
     <g transform="translate(17.615625 209.107031) rotate(-90) scale(0.15 -0.15)">
      <defs>
       <path id="TimesNewRomanPSMT-2c" d="M 344 -1066 
L 344 -928 
Q 666 -822 842 -598 
Q 1019 -375 1019 -125 
Q 1019 -66 991 -25 
Q 969 3 947 3 
Q 913 3 797 -59 
Q 741 -88 678 -88 
Q 525 -88 434 3 
Q 344 94 344 253 
Q 344 406 461 515 
Q 578 625 747 625 
Q 953 625 1114 445 
Q 1275 266 1275 -31 
Q 1275 -353 1051 -629 
Q 828 -906 344 -1066 
z
" transform="scale(0.015625)"/>
       <path id="TimesNewRomanPSMT-20" transform="scale(0.015625)"/>
      </defs>
      <use xlink:href="#TimesNewRomanPSMT-73"/>
      <use xlink:href="#TimesNewRomanPSMT-31" x="38.916016"/>
      <use xlink:href="#TimesNewRomanPSMT-2c" x="88.916016"/>
      <use xlink:href="#TimesNewRomanPSMT-20" x="113.916016"/>
      <use xlink:href="#TimesNewRomanPSMT-73" x="138.916016"/>
      <use xlink:href="#TimesNewRomanPSMT-32" x="177.832031"/>
     </g>
    </g>
   </g>
   <g id="line2d_13">
    <path d="M 77.260582 343.21875 
L 77.286487 89.683761 
L 77.390104 147.157566 
L 77.493722 109.77578 
L 77.545531 115.233674 
L 77.675053 75.704347 
L 77.726861 82.201063 
L 77.804575 76.208284 
L 77.830479 77.283274 
L 77.882288 80.470239 
L 77.934097 77.481886 
L 77.985905 73.092861 
L 78.063618 75.705174 
L 78.089523 76.803357 
L 78.115427 74.442985 
L 78.19314 72.412306 
L 78.348567 65.370854 
L 78.374471 67.530402 
L 78.400376 65.324842 
L 78.555802 57.644577 
L 78.633515 58.887434 
L 78.711228 56.463267 
L 78.763037 57.827763 
L 78.788941 57.490934 
L 78.944368 46.541127 
L 78.970272 46.924429 
L 78.996177 46.891679 
L 79.022081 47.459651 
L 79.047985 46.362237 
L 79.07389 46.914221 
L 79.332934 41.209453 
L 79.384742 42.119647 
L 79.410647 42.315475 
L 79.436551 42.30311 
L 79.462456 41.228439 
L 79.540169 42.200116 
L 79.566073 42.24701 
L 79.695595 40.951898 
L 79.90283 46.493633 
L 79.928735 46.426124 
L 80.395014 54.048483 
L 80.420918 53.894917 
L 80.446822 52.825504 
L 80.498631 54.49972 
L 80.524536 54.785082 
L 80.55044 53.782264 
L 80.602249 54.688183 
L 80.757675 57.949524 
L 80.809484 58.077415 
L 80.939006 56.174765 
L 80.990815 55.354167 
L 81.042623 55.560097 
L 81.146241 57.567785 
L 81.172145 57.341413 
L 81.19805 57.072146 
L 81.223954 57.473836 
L 81.249859 57.742394 
L 81.275763 57.211274 
L 81.327572 57.553286 
L 81.37938 56.652427 
L 81.482998 56.78265 
L 81.819755 58.557205 
L 81.84566 58.144865 
L 81.871564 58.859792 
L 81.897468 58.855499 
L 81.949277 58.609479 
L 82.052895 60.488849 
L 82.104703 60.467809 
L 82.130608 60.480185 
L 82.156512 60.708371 
L 82.208321 60.608703 
L 82.311939 59.918312 
L 82.337843 60.098771 
L 82.363747 60.040469 
L 82.389652 60.230649 
L 82.415556 60.082741 
L 82.830026 62.787555 
L 83.08907 61.266456 
L 83.114975 61.563434 
L 83.166783 60.926659 
L 83.192688 60.989616 
L 83.529445 58.102519 
L 83.684871 58.480458 
L 83.73668 58.774959 
L 83.788489 58.625356 
L 83.892106 57.918058 
L 83.918011 58.117026 
L 83.96982 58.64905 
L 84.047533 58.489033 
L 84.15115 58.894961 
L 84.177055 58.610158 
L 84.280672 58.377345 
L 84.332481 58.832872 
L 84.358385 58.369448 
L 84.513812 57.79106 
L 84.565621 58.132786 
L 84.643334 57.972616 
L 84.695142 57.727004 
L 84.746951 58.00206 
L 84.772856 57.945598 
L 84.79876 57.473802 
L 84.876473 57.859089 
L 84.902378 58.040638 
L 84.928282 57.757565 
L 85.109613 56.438414 
L 84.980091 57.766224 
L 85.135517 56.452562 
L 85.265039 57.19864 
L 85.290943 57.047981 
L 85.394561 56.534992 
L 85.524083 57.337531 
L 85.549987 57.143598 
L 85.601796 57.441016 
L 85.757222 58.361543 
L 85.809031 58.296077 
L 86.09398 59.236911 
L 86.119884 59.046572 
L 86.145788 59.333324 
L 86.197597 59.059166 
L 86.301215 59.853969 
L 86.353023 59.703748 
L 86.378928 59.754013 
L 86.404832 60.100495 
L 86.482545 59.878838 
L 86.715685 57.354351 
L 86.793398 57.495374 
L 86.845207 57.270174 
L 86.974729 56.238185 
L 87.078346 55.449604 
L 87.130155 55.48088 
L 87.233773 56.381985 
L 87.311486 56.109546 
L 87.363295 56.201743 
L 87.441008 55.597941 
L 87.518721 55.290023 
L 87.544625 55.560529 
L 87.596434 55.566217 
L 87.751861 54.531091 
L 87.933191 53.56096 
L 88.036809 54.194159 
L 88.140426 54.038997 
L 88.192235 54.065824 
L 88.21814 54.027591 
L 88.373566 53.222007 
L 88.39947 53.339083 
L 88.425375 53.390783 
L 88.658514 51.554372 
L 88.684419 51.638884 
L 88.865749 52.729196 
L 88.917558 52.412166 
L 88.943463 52.376771 
L 88.995271 52.47635 
L 89.098889 52.551159 
L 89.306124 51.577023 
L 89.383837 51.41855 
L 89.824212 48.76237 
L 89.876021 48.633331 
L 89.979638 49.142195 
L 90.083256 48.472118 
L 90.135064 48.625497 
L 90.316395 48.194965 
L 90.394108 48.333766 
L 90.420013 48.466983 
L 90.445917 48.40819 
L 90.575439 47.719865 
L 90.653152 47.915046 
L 90.704961 47.513806 
L 90.782674 47.588227 
L 90.808579 47.610124 
L 90.860387 47.39679 
L 90.912196 47.638351 
L 91.015814 47.887218 
L 91.300762 46.506346 
L 91.40438 46.664938 
L 91.456188 46.529976 
L 91.533902 46.354519 
L 91.559806 46.451796 
L 91.715232 46.941071 
L 91.741137 46.885726 
L 91.767041 46.972233 
L 91.792945 46.974679 
L 91.870659 47.326033 
L 91.948372 47.155482 
L 92.103798 47.273219 
L 92.259224 46.518253 
L 92.285129 46.586805 
L 92.336938 46.411683 
L 92.388746 46.197538 
L 92.46646 46.222793 
L 92.544173 46.358587 
L 92.595982 46.277639 
L 92.725504 45.853636 
L 92.777312 45.886303 
L 92.855025 46.08588 
L 92.88093 46.076872 
L 92.932739 45.801772 
L 92.984547 46.060391 
L 93.010452 46.032874 
L 93.036356 46.134441 
L 93.114069 46.196959 
L 93.139974 46.078903 
L 93.191783 45.947622 
L 93.217687 46.026339 
L 93.373113 46.704967 
L 93.502635 46.581568 
L 93.554444 46.710917 
L 93.580348 46.691432 
L 93.839392 45.260737 
L 93.891201 45.453125 
L 94.020723 45.048365 
L 94.072532 45.102016 
L 94.176149 45.589423 
L 94.253863 45.335976 
L 94.512906 44.206229 
L 94.538811 44.300975 
L 94.720142 44.529677 
L 94.797855 44.187841 
L 94.875568 43.845909 
L 94.927377 43.919126 
L 94.953281 44.054066 
L 95.00509 43.80777 
L 95.108707 43.457903 
L 95.134612 43.790426 
L 95.341847 44.496273 
L 95.393656 44.35253 
L 95.445465 44.423034 
L 95.626795 44.801205 
L 95.704508 44.581409 
L 95.730413 44.686842 
L 95.782222 44.851067 
L 95.808126 44.646272 
L 95.859935 44.800299 
L 96.015361 45.084889 
L 96.041266 44.963161 
L 96.118979 45.013543 
L 96.326214 45.601123 
L 96.378023 45.477296 
L 96.507545 45.163581 
L 96.559353 45.058587 
L 96.611162 45.146553 
L 96.662971 45.17346 
L 96.71478 45.352001 
L 96.740684 45.045036 
L 96.999728 44.502119 
L 97.181059 43.817446 
L 97.362389 43.798846 
L 97.466007 43.551778 
L 97.491911 43.595703 
L 97.595529 43.722493 
L 97.647338 43.642682 
L 97.673242 43.528471 
L 97.725051 43.743734 
L 97.802764 43.824454 
L 98.113617 44.567411 
L 98.19133 44.463639 
L 98.269043 44.251673 
L 98.320852 44.36027 
L 98.372661 44.215272 
L 98.424469 44.25969 
L 98.476278 44.570476 
L 98.553991 44.430565 
L 98.579896 44.538287 
L 98.631705 44.414625 
L 98.787131 43.629475 
L 99.02027 42.700418 
L 99.097984 42.813845 
L 99.149792 42.800223 
L 99.25341 42.76416 
L 99.279314 42.903916 
L 99.331123 42.733805 
L 99.408836 42.624017 
L 99.434741 42.651644 
L 99.771498 43.219488 
L 99.823307 43.180085 
L 99.849211 43.147838 
L 99.90102 43.220726 
L 100.004637 43.474105 
L 100.08235 43.38165 
L 100.237777 43.037082 
L 100.31549 42.783266 
L 100.341394 42.874767 
L 100.496821 43.214297 
L 100.522725 43.183815 
L 100.807673 42.378159 
L 100.833578 42.438486 
L 100.885387 42.44817 
L 100.911291 42.382194 
L 101.014908 42.071601 
L 101.14443 41.792545 
L 101.610709 42.310393 
L 101.714327 42.614463 
L 101.740231 42.574219 
L 101.869753 42.485618 
L 101.895658 42.548576 
L 101.947467 42.455183 
L 102.02518 42.34448 
L 102.051084 42.380974 
L 102.180606 42.620664 
L 102.20651 42.614362 
L 102.258319 42.612086 
L 102.284224 42.701071 
L 102.776407 42.952091 
L 102.957738 42.509468 
L 103.08726 42.690931 
L 103.113164 42.635269 
L 103.320399 42.86618 
L 103.346304 42.869938 
L 103.372208 43.045775 
L 103.424017 42.915372 
L 103.631252 42.224087 
L 103.657156 42.23309 
L 103.734869 42.181501 
L 103.864391 42.480369 
L 103.993913 42.226712 
L 104.019818 42.319676 
L 104.14934 42.576804 
L 104.278862 42.199202 
L 104.33067 42.284347 
L 104.486097 42.352429 
L 104.641523 42.164177 
L 104.771045 42.240945 
L 104.79695 42.1874 
L 104.822854 42.131621 
L 104.874663 42.224171 
L 104.952376 42.141366 
L 105.107802 41.511832 
L 105.315037 40.81875 
L 105.651794 41.093892 
L 105.677699 40.98425 
L 105.729508 41.14337 
L 105.884934 41.255573 
L 105.910838 41.226505 
L 105.936743 41.296924 
L 106.066265 41.561292 
L 106.092169 41.483984 
L 106.195787 41.44298 
L 106.221691 41.522854 
L 106.325309 41.6938 
L 106.377117 41.523839 
L 106.739779 41.130853 
L 106.791588 41.335475 
L 106.843396 41.39491 
L 107.024727 41.805191 
L 107.050631 41.781015 
L 107.206058 41.53885 
L 107.231962 41.554779 
L 107.283771 41.724176 
L 107.33558 41.560449 
L 107.491006 41.580628 
L 107.620528 41.454665 
L 107.646432 41.493081 
L 107.724146 41.551941 
L 108.060903 41.893131 
L 108.086807 41.87374 
L 108.190425 41.784563 
L 108.216329 41.847512 
L 108.242233 41.856707 
L 108.319947 42.059689 
L 108.371755 41.972384 
L 108.682608 42.122117 
L 108.889843 42.452772 
L 109.2266 42.408885 
L 109.304313 42.533497 
L 109.330218 42.496268 
L 109.45974 42.171385 
L 109.485644 42.21825 
L 109.511549 42.250287 
L 109.537453 42.165053 
L 109.563357 42.155807 
L 109.615166 42.052164 
L 109.692879 42.104367 
L 109.87421 42.339565 
L 109.951923 42.463029 
L 109.977828 42.381241 
L 110.210967 42.128152 
L 110.262776 42.211563 
L 110.444107 42.43785 
L 110.470011 42.423898 
L 110.573629 42.368776 
L 110.754959 42.188109 
L 110.858577 42.259274 
L 110.884481 42.241597 
L 111.221238 41.999903 
L 111.376665 41.820069 
L 111.480282 41.904133 
L 111.532091 41.999776 
L 111.5839 41.94036 
L 111.687517 41.890204 
L 112.41284 42.914809 
L 112.568267 42.742406 
L 112.594171 42.779812 
L 112.64598 42.735522 
L 112.775502 42.668668 
L 112.801406 42.764462 
L 112.879119 42.649629 
L 113.397207 42.932453 
L 113.423112 43.003326 
L 113.500825 42.945589 
L 113.526729 42.906821 
L 113.552633 43.046907 
L 113.604442 43.077324 
L 113.656251 43.003774 
L 114.12253 42.228725 
L 114.148434 42.266271 
L 114.200243 42.353773 
L 114.252052 42.256047 
L 114.381574 42.403228 
L 114.614714 42.621356 
L 114.821949 42.415475 
L 115.003279 42.12373 
L 115.055088 42.195593 
L 115.18461 42.328845 
L 115.288228 42.455863 
L 115.41775 42.588866 
L 115.469558 42.492343 
L 115.59908 41.982123 
L 115.650889 42.0395 
L 115.806315 41.981921 
L 116.117168 42.185414 
L 116.350308 41.897455 
L 116.531638 41.808427 
L 116.635256 41.888071 
L 116.66116 41.858931 
L 116.764778 41.800693 
L 116.790682 41.821061 
L 116.946109 41.986031 
L 116.972013 41.964718 
L 117.101535 41.843399 
L 117.127439 41.866695 
L 117.464196 42.114091 
L 117.490101 42.097548 
L 117.516005 42.196125 
L 117.697336 42.571653 
L 117.775049 42.535111 
L 117.878667 42.509904 
L 118.085902 42.085535 
L 118.267233 42.142528 
L 118.448563 42.22188 
L 118.681703 42.482967 
L 118.707607 42.537609 
L 118.759416 42.489293 
L 118.966651 42.131624 
L 118.992556 42.150784 
L 119.096173 42.138382 
L 119.199791 42.076132 
L 119.225695 42.113146 
L 119.355217 42.146955 
L 119.407026 42.126657 
L 119.43293 42.190432 
L 119.588356 42.135388 
L 119.691974 42.162173 
L 119.821496 42.287901 
L 120.08054 42.279451 
L 120.365488 42.581574 
L 120.935385 42.355366 
L 121.272142 42.531274 
L 121.298046 42.473611 
L 121.401664 42.400501 
L 121.582995 42.14427 
L 121.919752 42.520969 
L 122.075178 42.432909 
L 122.101082 42.455215 
L 122.2047 42.560703 
L 122.256509 42.515779 
L 122.437839 42.540671 
L 122.567361 42.600049 
L 122.670979 42.492979 
L 122.696883 42.50275 
L 122.955927 42.441117 
L 123.03364 42.586898 
L 123.111354 42.545723 
L 123.26678 42.680154 
L 123.396302 42.721902 
L 123.655346 42.305318 
L 123.707155 42.350029 
L 123.836677 42.340848 
L 124.043912 42.251882 
L 124.069816 42.288908 
L 124.121625 42.202781 
L 124.32886 42.005622 
L 124.406573 42.091219 
L 124.510191 42.161331 
L 124.536095 42.140074 
L 125.209609 42.376939 
L 125.365036 42.272546 
L 126.116263 42.206466 
L 126.530733 42.685101 
L 126.556638 42.6087 
L 126.634351 42.647602 
L 126.86749 42.611069 
L 127.10063 42.479124 
L 127.359674 42.53823 
L 127.774144 42.683627 
L 127.800048 42.599481 
L 127.877761 42.677504 
L 128.084997 42.865339 
L 128.628989 42.143006 
L 128.81032 42.372507 
L 128.888033 42.296456 
L 128.99165 42.329253 
L 129.043459 42.370779 
L 129.069363 42.277644 
L 129.198885 42.163036 
L 129.302503 42.167444 
L 129.328407 42.199435 
L 129.380216 42.129306 
L 129.483834 41.968782 
L 129.587451 41.728402 
L 129.63926 41.812539 
L 129.794686 41.753294 
L 129.820591 41.696563 
L 129.898304 41.772367 
L 129.924208 41.793708 
L 129.950113 41.741285 
L 130.027826 41.630463 
L 130.079635 41.693289 
L 130.882671 41.908863 
L 130.986288 41.822028 
L 131.012193 41.862368 
L 131.089906 41.786224 
L 131.245332 41.718909 
L 131.426663 41.764239 
L 131.556185 41.67467 
L 131.76342 41.757387 
L 132.488743 42.011125 
L 133.188162 42.37841 
L 133.447205 42.47295 
L 133.602632 42.558474 
L 133.835771 42.653301 
L 133.88758 42.731629 
L 133.991198 42.846848 
L 134.017102 42.805799 
L 134.068911 42.748985 
L 134.12072 42.844495 
L 134.30205 42.752076 
L 134.483381 42.484684 
L 134.846043 42.605737 
L 134.975564 42.508261 
L 135.001469 42.533857 
L 135.130991 42.567652 
L 135.286417 42.386757 
L 135.804505 42.251712 
L 135.985836 42.362068 
L 136.270784 42.223184 
L 136.42621 42.020873 
L 136.452115 42.089855 
L 136.581637 42.208257 
L 136.607541 42.152707 
L 136.685254 42.208693 
L 136.892489 42.268939 
L 137.151533 42.238331 
L 137.30696 42.179766 
L 137.384673 42.211716 
L 137.514195 42.352757 
L 137.540099 42.318078 
L 137.747334 42.021301 
L 137.954569 41.762176 
L 138.187709 41.823437 
L 138.317231 41.808862 
L 138.394944 41.833764 
L 138.420848 41.767684 
L 138.55037 41.722131 
L 138.576275 41.74219 
L 139.457024 42.252686 
L 140.337773 42.465448 
L 140.467295 42.454493 
L 140.545008 42.528521 
L 140.596817 42.497364 
L 140.726339 42.638708 
L 140.985383 42.813798 
L 141.218523 42.885324 
L 141.503471 43.06127 
L 141.917941 43.096248 
L 142.047463 43.063778 
L 142.228794 43.127749 
L 142.772786 43.300929 
L 142.902308 43.374362 
L 142.928212 43.35894 
L 143.472205 43.118895 
L 143.653535 42.962682 
L 143.783057 42.893703 
L 143.938484 42.77569 
L 144.09391 42.779864 
L 144.301145 42.74126 
L 144.378858 42.815407 
L 144.430667 42.740772 
L 144.482476 42.65605 
L 144.534285 42.714297 
L 144.74152 42.963622 
L 144.767424 42.944304 
L 144.92285 42.983762 
L 145.078277 43.071351 
L 145.207799 43.128127 
L 145.389129 43.186498 
L 145.8036 43.467539 
L 146.321688 43.549599 
L 146.528923 43.795132 
L 146.891584 43.831541 
L 147.072915 43.599367 
L 147.150628 43.576863 
L 147.383768 43.410491 
L 147.513289 43.44303 
L 147.824142 43.565583 
L 148.134995 43.836662 
L 148.730796 43.923567 
L 148.963935 44.090638 
L 149.248884 44.052846 
L 149.507928 44.09047 
L 149.766971 44.182038 
L 149.896493 44.230664 
L 150.05192 44.144231 
L 150.88086 44.089608 
L 151.036287 44.035843 
L 151.52847 44.208654 
L 151.657992 44.162653 
L 151.839323 44.235938 
L 152.072462 44.196679 
L 152.227889 44.18153 
L 152.383315 44.106462 
L 152.564646 44.196557 
L 152.59055 44.165406 
L 152.745976 44.138685 
L 153.264064 44.410256 
L 153.419491 44.319389 
L 153.523108 44.246784 
L 153.549012 44.275477 
L 153.756248 44.31631 
L 153.88577 44.260935 
L 153.911674 44.29477 
L 153.989387 44.357094 
L 154.041196 44.313726 
L 154.326144 44.254563 
L 154.429762 44.351715 
L 154.481571 44.312384 
L 154.766519 44.359897 
L 154.973754 44.499496 
L 155.180989 44.419855 
L 155.232798 44.409102 
L 155.258702 44.37363 
L 155.465937 44.319828 
L 155.621364 44.297775 
L 155.673172 44.274017 
L 155.699077 44.2129 
L 155.77679 44.155574 
L 155.828599 44.226896 
L 156.00993 44.295411 
L 156.165356 44.278885 
L 157.227436 44.322135 
L 157.356958 44.331218 
L 157.48648 44.344076 
L 157.823237 44.393518 
L 158.108185 44.482481 
L 158.289516 44.469977 
L 158.600369 44.505435 
L 158.729891 44.460715 
L 158.885317 44.469308 
L 159.429309 44.426226 
L 159.843779 44.077891 
L 160.335963 44.177371 
L 160.465485 44.186008 
L 160.724529 44.191847 
L 160.854051 44.21067 
L 161.216712 44.207917 
L 161.708895 44.174727 
L 162.201079 44.231361 
L 162.434218 44.203665 
L 162.641454 44.330391 
L 163.781247 44.174574 
L 163.936673 44.177967 
L 164.351143 44.132579 
L 164.584283 44.287336 
L 164.739709 44.237634 
L 164.843327 44.204715 
L 165.024657 44.118777 
L 165.465032 43.903763 
L 165.490936 43.945649 
L 166.034929 44.212551 
L 166.164451 44.271056 
L 166.190355 44.32393 
L 166.242164 44.258832 
L 166.371686 44.202746 
L 166.527112 44.252646 
L 166.786156 44.353314 
L 166.967487 44.457078 
L 166.993391 44.429707 
L 167.148817 44.422282 
L 167.45967 44.469412 
L 167.718714 44.687266 
L 167.87414 44.720918 
L 168.081376 44.785333 
L 168.210897 44.773039 
L 168.392228 44.8558 
L 168.52175 44.89253 
L 169.739257 45.217517 
L 169.972396 45.307548 
L 170.205536 45.293746 
L 170.412771 45.299095 
L 170.697719 45.180853 
L 170.827241 45.019787 
L 170.853145 45.061537 
L 171.215807 45.002098 
L 171.448946 44.954527 
L 171.837512 45.054368 
L 172.251982 45.242693 
L 172.407409 45.359911 
L 172.795975 45.4165 
L 173.055019 45.440844 
L 173.288158 45.248257 
L 173.547202 45.338985 
L 173.728533 45.455308 
L 174.790613 45.629226 
L 174.971943 45.70952 
L 175.360509 45.713618 
L 175.490031 45.720204 
L 175.77498 45.729168 
L 176.759346 45.609257 
L 177.01839 45.747725 
L 177.199721 45.751667 
L 177.640096 45.747847 
L 177.821426 45.771924 
L 178.002757 45.76849 
L 178.831698 45.805019 
L 179.064837 45.687578 
L 179.427499 45.789092 
L 179.582925 45.750787 
L 179.712447 45.681045 
L 179.841969 45.685105 
L 179.893778 45.714305 
L 179.945586 45.668746 
L 180.126917 45.656135 
L 181.473945 45.590631 
L 181.888416 45.496332 
L 182.121555 45.427463 
L 182.276982 45.468344 
L 182.484217 45.501907 
L 182.924591 45.633772 
L 183.183635 45.426751 
L 183.39087 45.424056 
L 183.649914 45.415429 
L 183.908958 45.436948 
L 184.012576 45.387825 
L 184.193906 45.322936 
L 185.489126 45.161944 
L 186.033118 45.37403 
L 186.188545 45.417658 
L 187.587382 45.68629 
L 187.820521 45.491696 
L 188.053661 45.415894 
L 188.209087 45.448908 
L 188.727175 45.308265 
L 188.960314 45.187083 
L 189.141645 45.186692 
L 189.400689 45.273677 
L 189.530211 45.278759 
L 189.76335 45.222218 
L 189.99649 45.101128 
L 190.151916 45.074104 
L 190.359151 45.063007 
L 190.592291 45.032752 
L 191.110379 44.979666 
L 191.447136 45.023153 
L 192.172459 44.799753 
L 192.405598 44.856906 
L 192.690547 44.879438 
L 192.975495 44.892983 
L 193.286348 44.828103 
L 193.674913 44.876555 
L 193.83034 44.975206 
L 194.063479 45.021771 
L 195.125559 45.137103 
L 195.358699 45.09149 
L 195.72136 45.01245 
L 195.850882 44.998536 
L 196.394874 44.994071 
L 196.576205 44.953486 
L 196.887058 44.882446 
L 197.172006 44.814391 
L 197.560572 44.809527 
L 197.741903 44.790419 
L 198.000947 44.891479 
L 198.285895 44.917238 
L 198.72627 44.944431 
L 199.296166 45.131571 
L 199.529306 45.010444 
L 199.866063 45.010521 
L 200.20282 45.036056 
L 200.487768 44.80449 
L 200.720908 44.7804 
L 201.446231 45.01838 
L 201.964318 45.053142 
L 202.197458 44.971249 
L 202.352884 44.902021 
L 202.663737 44.821307 
L 202.793259 44.846269 
L 202.97459 44.92508 
L 203.130016 44.973827 
L 203.414964 44.986189 
L 203.648104 45.081831 
L 204.373427 45.105362 
L 204.658375 45.135408 
L 205.124654 45.024443 
L 205.461411 44.871117 
L 206.653013 45.11673 
L 206.782535 45.12839 
L 207.145196 45.127879 
L 207.533762 45.029752 
L 207.792806 45.023476 
L 207.948233 45.050275 
L 208.336798 45.082848 
L 208.46632 45.119608 
L 208.906695 45.138495 
L 209.139835 45.053018 
L 209.735635 45.080199 
L 209.891062 45.129653 
L 210.072393 45.101227 
L 210.694098 45.230061 
L 211.704369 45.094679 
L 211.859796 45.094378 
L 212.222457 45.125941 
L 212.662832 45.154544 
L 215.07194 45.491749 
L 215.279175 45.465814 
L 215.615932 45.457244 
L 215.745454 45.46919 
L 215.90088 45.482451 
L 216.082211 45.560462 
L 217.247909 45.633167 
L 217.532857 45.584224 
L 217.714188 45.531274 
L 218.128658 45.367174 
L 218.491319 45.430149 
L 218.750363 45.458369 
L 219.009407 45.47737 
L 219.242547 45.523416 
L 219.631113 45.611773 
L 219.838348 45.650093 
L 220.045583 45.583078 
L 220.356436 45.595698 
L 221.418516 45.752423 
L 221.625751 45.836069 
L 222.299265 45.832925 
L 222.558309 45.827463 
L 222.713735 45.712486 
L 222.73964 45.739872 
L 222.869161 45.781529 
L 223.98305 45.610835 
L 224.190285 45.609602 
L 224.345712 45.607864 
L 224.578851 45.579394 
L 227.609665 45.408996 
L 228.024135 45.327308 
L 228.179562 45.325025 
L 228.412701 45.22635 
L 231.106758 45.310578 
L 231.313993 45.361937 
L 233.179109 45.592728 
L 234.111667 45.798642 
L 234.344806 45.674947 
L 234.992416 45.354163 
L 235.199651 45.343752 
L 235.458695 45.400004 
L 235.769548 45.368663 
L 236.106305 45.289442 
L 236.365349 45.185424 
L 236.676202 45.116305 
L 237.038863 45.098069 
L 238.230465 45.108952 
L 238.67084 45.198579 
L 239.163023 45.20226 
L 240.043772 45.149103 
L 240.276912 45.0646 
L 240.458243 45.128726 
L 240.795 45.201133 
L 241.079948 45.223455 
L 242.401072 45.29405 
L 243.799909 45.358309 
L 244.343901 45.333866 
L 244.913798 45.414048 
L 245.095129 45.413188 
L 245.509599 45.415059 
L 245.69093 45.426591 
L 245.87226 45.488147 
L 246.623488 45.15131 
L 247.685568 44.814148 
L 248.022325 44.8714 
L 248.462699 44.707527 
L 248.903074 44.662855 
L 249.213927 44.69122 
L 249.343449 44.666952 
L 249.757919 44.531264 
L 249.93925 44.582378 
L 251.933888 44.720686 
L 252.167027 44.786267 
L 252.607402 44.684621 
L 253.384534 44.608199 
L 253.591769 44.53816 
L 254.032143 44.664706 
L 254.213474 44.685802 
L 254.420709 44.714249 
L 254.964701 44.871522 
L 255.171936 44.932112 
L 255.43098 44.836944 
L 255.845451 44.716814 
L 256.026781 44.697624 
L 256.985244 44.6412 
L 257.218383 44.69593 
L 257.581045 44.761072 
L 258.43589 44.834816 
L 259.368448 44.87762 
L 259.549778 44.866223 
L 259.938344 44.800719 
L 260.352815 44.817041 
L 260.56005 44.829344 
L 260.870902 44.782114 
L 261.648034 44.784598 
L 262.373357 44.804168 
L 262.580592 44.754074 
L 263.409533 44.713422 
L 263.616768 44.727235 
L 263.953525 44.755001 
L 264.186664 44.707521 
L 264.523421 44.78418 
L 264.911987 44.813871 
L 265.559597 44.830951 
L 266.077685 44.533781 
L 266.414442 44.578716 
L 266.880721 44.588618 
L 267.165669 44.650895 
L 267.99461 44.502204 
L 268.279558 44.498565 
L 268.694028 44.522871 
L 269.108499 44.569321 
L 270.895901 44.680543 
L 271.154945 44.721939 
L 271.802555 44.723802 
L 272.139312 44.760021 
L 272.631496 44.786869 
L 274.418899 44.838146 
L 274.807464 44.843122 
L 275.040604 44.797915 
L 275.221935 44.811495 
L 275.377361 44.839439 
L 275.921353 44.827675 
L 276.25811 44.773804 
L 276.439441 44.763576 
L 280.040151 45.057821 
L 280.195578 45.017243 
L 281.38718 45.081467 
L 281.56851 45.094434 
L 282.112503 45.046563 
L 282.371546 45.042981 
L 282.786017 45.104215 
L 283.304105 45.037898 
L 283.666766 44.961002 
L 284.003523 44.907892 
L 287.034337 44.77519 
L 289.702489 44.873094 
L 289.88382 44.8196 
L 290.220577 44.81753 
L 291.438083 44.768933 
L 293.018251 44.723246 
L 294.209853 44.862992 
L 294.831558 44.888701 
L 294.986985 44.863498 
L 295.297837 44.79107 
L 296.826196 44.896714 
L 299.002165 44.991702 
L 299.157592 45.001838 
L 299.675679 44.902386 
L 300.064245 44.906904 
L 301.074516 44.848327 
L 301.385369 44.833448 
L 301.851648 44.820256 
L 302.525162 44.669584 
L 302.784206 44.702503 
L 303.017346 44.75368 
L 303.535434 44.82516 
L 304.364374 44.851418 
L 305.141506 44.847835 
L 305.374645 44.844724 
L 305.555976 44.80908 
L 308.146415 44.724311 
L 308.534981 44.778999 
L 309.674774 44.64957 
L 310.166958 44.617981 
L 311.850743 44.768929 
L 312.161596 44.751849 
L 313.793572 44.879943 
L 314.700226 44.854337 
L 315.503262 44.941903 
L 315.943637 44.9663 
L 316.202681 44.9399 
L 317.08343 44.854892 
L 317.368378 44.881923 
L 317.860561 44.919897 
L 318.197319 44.8552 
L 318.430458 44.89021 
L 318.663598 44.907399 
L 318.97445 44.95656 
L 319.285303 44.963641 
L 319.803391 45.001197 
L 320.03653 45.010599 
L 321.09861 44.916302 
L 321.513081 44.975377 
L 321.875742 44.997858 
L 324.854747 45.09966 
L 325.99454 45.136992 
L 326.40901 45.137646 
L 326.668054 45.17946 
L 327.496995 45.184374 
L 328.1187 45.209551 
L 329.854294 45.210844 
L 330.113338 45.181334 
L 330.320573 45.181683 
L 330.683235 45.199751 
L 330.942279 45.152209 
L 331.201323 45.112083 
L 331.615793 45.170924 
L 331.978454 45.232765 
L 332.237498 45.278193 
L 332.444733 45.277813 
L 332.988726 45.298108 
L 333.636335 45.321212 
L 334.309849 45.27143 
L 334.776129 45.287307 
L 335.061077 45.31181 
L 335.838209 45.359286 
L 336.226774 45.30796 
L 336.926193 45.304856 
L 337.651516 45.356721 
L 338.532265 45.29331 
L 340.941373 45.384286 
L 341.252226 45.389664 
L 341.666696 45.3957 
L 342.107071 45.376452 
L 343.298673 45.360615 
L 343.531812 45.375951 
L 343.816761 45.406782 
L 345.215598 45.524429 
L 345.863208 45.502861 
L 346.122252 45.531764 
L 346.433104 45.442199 
L 346.769861 45.345079 
L 347.23614 45.393329 
L 347.546993 45.382289 
L 350.00791 45.460868 
L 350.577807 45.480295 
L 350.785042 45.476325 
L 351.173608 45.490424 
L 351.665791 45.403981 
L 352.287496 45.481103 
L 353.323672 45.48146 
L 355.344215 45.695914 
L 355.784589 45.664919 
L 360.887754 45.670679 
L 361.172702 45.708841 
L 361.742599 45.64705 
L 361.949834 45.641464 
L 362.442018 45.61504 
L 363.115532 45.637291 
L 364.255325 45.635902 
L 365.498736 45.676742 
L 366.664433 45.843045 
L 369.12535 45.639301 
L 369.721151 45.617937 
L 370.0061 45.63969 
L 370.886849 45.665137 
L 371.48265 45.596921 
L 376.456293 45.613006 
L 376.896667 45.676006 
L 380.341951 45.628794 
L 381.45584 45.705426 
L 381.948024 45.700958 
L 383.036008 45.717302 
L 388.786783 45.764495 
L 389.874767 45.67754 
L 390.418759 45.653056 
L 391.558553 45.647379 
L 392.128449 45.67858 
L 392.620633 45.638264 
L 394.01947 45.681484 
L 394.641175 45.686307 
L 394.977932 45.722891 
L 395.547829 45.768471 
L 395.91049 45.753794 
L 396.454482 45.766254 
L 396.97257 45.771536 
L 398.345503 45.710272 
L 400.055193 45.713308 
L 400.443758 45.7092 
L 401.272699 45.67857 
L 401.661265 45.638502 
L 402.334779 45.644436 
L 402.775154 45.602626 
L 407.59337 45.267271 
L 408.137362 45.256547 
L 408.629546 45.204363 
L 409.069921 45.243655 
L 410.59828 45.046477 
L 410.857323 45.020975 
L 412.023021 45.002409 
L 412.644726 44.99077 
L 413.629093 45.00969 
L 414.043563 45.043778 
L 414.509843 45.067457 
L 416.349054 45.04474 
L 417.618369 44.987915 
L 420.441948 44.820654 
L 421.115462 44.811078 
L 421.814881 44.843723 
L 422.540204 44.804423 
L 422.980578 44.786401 
L 428.135552 44.950443 
L 429.767529 44.989617 
L 431.60674 44.698936 
L 432.176637 44.688348 
L 432.927864 44.636607 
L 433.186908 44.632556 
L 434.844789 44.574791 
L 436.943045 44.602955 
L 438.264169 44.660417 
L 438.834065 44.679155 
L 439.403962 44.671715 
L 439.973858 44.621373 
L 441.372695 44.628627 
L 441.683548 44.624803 
L 442.382967 44.682838 
L 444.843884 44.788768 
L 445.128832 44.743931 
L 445.621016 44.735091 
L 446.631287 44.689894 
L 447.304801 44.627089 
L 447.926506 44.657224 
L 452.66701 44.749707 
L 453.340524 44.772341 
L 453.832707 44.748882 
L 454.324891 44.785165 
L 458.702733 44.68676 
L 461.137745 44.70724 
L 461.422694 44.705427 
L 462.821531 44.71482 
L 463.443236 44.702752 
L 464.013133 44.703074 
L 464.634838 44.665375 
L 465.075213 44.672764 
L 467.613843 44.715212 
L 468.054218 44.770183 
L 468.831349 44.742903 
L 469.323533 44.742633 
L 470.929605 44.719656 
L 471.810354 44.641088 
L 472.328442 44.643047 
L 472.639295 44.653412 
L 473.183287 44.652478 
L 474.193558 44.611431 
L 475.152021 44.608531 
L 475.644204 44.667822 
L 476.550858 44.677031 
L 477.353894 44.673007 
L 478.15693 44.624982 
L 478.80454 44.659946 
L 479.814811 44.603568 
L 480.125664 44.590136 
L 480.540134 44.601828 
L 487.171658 44.714131 
L 487.508415 44.725756 
L 487.922885 44.725341 
L 488.440973 44.765103 
L 490.331994 44.760616 
L 491.212743 44.749162 
L 493.544138 44.795358 
L 494.373078 44.7974 
L 495.253828 44.736251 
L 496.989422 44.668663 
L 497.377988 44.687986 
L 498.647303 44.62204 
L 498.98406 44.602297 
L 501.600403 44.565814 
L 502.014874 44.555002 
L 506.081863 44.433202 
L 506.65176 44.403582 
L 507.325274 44.397134 
L 507.765648 44.405103 
L 508.206023 44.442845 
L 509.034964 44.460956 
L 509.967522 44.412845 
L 511.418167 44.369033 
L 512.169395 44.412858 
L 515.925531 44.439479 
L 521.002792 44.5011 
L 521.417262 44.515555 
L 525.53606 44.547055 
L 526.105957 44.561447 
L 527.452985 44.599016 
L 528.048786 44.646134 
L 534.706215 44.644733 
L 535.120685 44.603216 
L 535.97553 44.590974 
L 536.364095 44.599242 
L 536.752661 44.616084 
L 537.400271 44.646233 
L 538.255116 44.677194 
L 541.026886 44.683131 
L 542.011253 44.715673 
L 542.477532 44.72267 
L 543.099237 44.735186 
L 543.902273 44.697433 
L 544.342648 44.6873 
L 545.430632 44.661821 
L 560.766031 44.815554 
L 564.522168 44.731782 
L 565.661961 44.735925 
L 566.594519 44.738257 
L 566.931276 44.757455 
L 567.83793 44.768288 
L 569.54762 44.83081 
L 570.842839 44.741005 
L 572.811573 44.68112 
L 573.174234 44.678572 
L 574.573072 44.722651 
L 575.350203 44.77003 
L 576.697232 44.754804 
L 577.759312 44.771953 
L 578.536443 44.60325 
L 579.158149 44.519373 
L 580.142515 44.534653 
L 583.043807 44.515848 
L 583.458277 44.519027 
L 596.047811 44.618375 
L 597.1617 44.649545 
L 605.917384 44.660052 
L 606.590898 44.671175 
L 607.523456 44.659355 
L 608.067448 44.678877 
L 619.957564 44.670858 
L 620.372034 44.659459 
L 640.188893 44.778977 
L 641.535921 44.747101 
L 643.945029 44.782752 
L 644.851683 44.802588 
L 680.081654 45.174821 
L 680.496124 45.189801 
L 681.143734 45.222521 
L 682.672093 45.253793 
L 684.4854 45.269837 
L 684.899871 45.282861 
L 685.36615 45.278165 
L 685.987855 45.26712 
L 685.987855 45.26712 
" clip-path="url(#p3f5fcdc87e)" style="fill: none; stroke: #0000ff; stroke-width: 1.5; stroke-linecap: square"/>
   </g>
   <g id="line2d_14">
    <path d="M 167.925949 358.33875 
L 167.925949 25.69875 
" clip-path="url(#p3f5fcdc87e)" style="fill: none; stroke-dasharray: 5.55,2.4; stroke-dashoffset: 0; stroke: #ff0000; stroke-width: 1.5"/>
   </g>
   <g id="line2d_15">
    <path d="M 77.260582 343.21875 
L 77.286487 89.683761 
L 77.3642 131.761184 
L 77.390104 166.176389 
L 77.467818 157.555133 
L 77.623244 136.393195 
L 77.675053 125.349602 
L 77.726861 135.203845 
L 77.752766 133.976422 
L 77.804575 135.402554 
L 77.830479 136.455285 
L 77.882288 134.744088 
L 77.960001 130.434944 
L 78.037714 125.124177 
L 78.063618 126.867189 
L 78.167236 129.456576 
L 78.19314 128.486848 
L 78.244949 125.828361 
L 78.270854 126.674477 
L 78.374471 130.760646 
L 78.400376 129.159371 
L 78.503993 127.291717 
L 78.633515 133.563776 
L 78.685324 133.554416 
L 78.711228 132.897385 
L 78.866655 138.834852 
L 79.229316 159.906387 
L 79.358838 166.830192 
L 79.384742 165.461681 
L 79.825117 157.190124 
L 80.110065 151.529329 
L 80.213683 152.303201 
L 80.265492 153.296367 
L 80.3173 153.068421 
L 80.472727 150.299175 
L 80.498631 150.343338 
L 80.628153 151.852512 
L 80.55044 150.035676 
L 80.679962 151.369328 
L 80.705866 150.760977 
L 80.757675 151.707426 
L 80.783579 151.337978 
L 80.939006 152.992348 
L 81.068528 154.599177 
L 81.094432 154.258855 
L 81.301667 150.381922 
L 81.327572 150.886334 
L 81.353476 150.473403 
L 81.482998 149.050454 
L 81.923373 142.993753 
L 81.949277 142.544986 
L 82.001086 142.865317 
L 82.052895 143.311438 
L 82.104703 142.844503 
L 82.234225 141.030924 
L 82.311939 140.510454 
L 82.286034 141.052432 
L 82.363747 140.612746 
L 82.389652 140.612022 
L 82.467365 139.271332 
L 82.519174 140.114371 
L 82.545078 140.22501 
L 82.6746 138.911435 
L 82.700504 138.944963 
L 83.166783 133.667119 
L 83.192688 134.203971 
L 83.477636 137.238179 
L 83.555349 136.451917 
L 83.788489 134.221058 
L 83.995724 134.959718 
L 84.047533 135.269319 
L 84.099341 134.98984 
L 84.202959 134.402526 
L 84.228863 134.079839 
L 84.306577 134.362374 
L 84.332481 134.55706 
L 84.358385 134.227579 
L 84.617429 133.153313 
L 84.643334 133.167993 
L 84.79876 131.917498 
L 84.824664 132.168562 
L 84.980091 132.903741 
L 85.005995 132.888542 
L 85.0319 132.640215 
L 85.083708 132.650814 
L 85.161421 133.411962 
L 85.21323 133.132256 
L 85.265039 133.415326 
L 85.290943 133.137712 
L 85.368657 132.358542 
L 85.420465 132.547883 
L 85.653605 133.398462 
L 85.731318 133.201687 
L 85.834936 132.886638 
L 85.783127 133.295399 
L 85.86084 132.944362 
L 85.938553 133.310851 
L 85.990362 133.048534 
L 86.119884 132.879238 
L 86.145788 133.175103 
L 86.223502 133.127027 
L 86.249406 132.994218 
L 86.301215 133.210544 
L 86.327119 133.28208 
L 86.378928 133.121736 
L 86.404832 133.182044 
L 86.50845 132.904707 
L 86.560259 132.973153 
L 86.741589 134.493749 
L 87.181964 137.206285 
L 87.233773 137.110977 
L 87.259677 136.976831 
L 87.311486 137.135142 
L 87.33739 137.014524 
L 87.389199 136.940481 
L 87.415103 137.081983 
L 87.518721 136.661155 
L 87.544625 136.882579 
L 87.596434 137.135643 
L 87.622339 136.833264 
L 87.648243 136.543103 
L 87.725956 136.893197 
L 87.829574 136.864821 
L 88.036809 138.049176 
L 88.088618 137.702376 
L 88.140426 137.867735 
L 88.166331 137.979307 
L 88.192235 137.844001 
L 88.21814 137.899468 
L 88.244044 137.561724 
L 88.321757 137.841135 
L 88.554897 139.635491 
L 88.580801 139.66852 
L 88.606705 139.572278 
L 88.63261 139.612575 
L 88.658514 139.468324 
L 88.710323 139.501138 
L 88.865749 140.072327 
L 89.04708 139.386657 
L 89.28022 138.728613 
L 89.409742 138.269381 
L 89.435646 138.313409 
L 89.565168 138.769991 
L 89.850116 139.744821 
L 89.901925 139.55973 
L 89.927829 139.439119 
L 89.953734 139.558152 
L 89.979638 139.784133 
L 90.031447 139.344926 
L 90.394108 137.725397 
L 90.52363 138.281073 
L 90.471822 137.700635 
L 90.575439 138.197695 
L 90.886292 137.351132 
L 90.912196 137.525331 
L 91.093527 138.285767 
L 91.274858 140.029115 
L 91.300762 139.965549 
L 91.507997 139.864466 
L 91.611615 139.401065 
L 91.637519 139.490253 
L 91.663424 139.556221 
L 91.689328 139.378459 
L 91.715232 139.414473 
L 91.81885 139.074474 
L 91.870659 139.161695 
L 91.896563 139.211388 
L 91.948372 139.098736 
L 92.311033 137.569627 
L 92.336938 137.614689 
L 92.362842 137.461343 
L 92.544173 136.700793 
L 92.64779 136.831232 
L 92.699599 136.819442 
L 92.725504 136.687929 
L 92.751408 136.834719 
L 92.777312 136.762141 
L 92.88093 136.95072 
L 92.906834 136.902204 
L 93.010452 136.877691 
L 93.217687 137.056554 
L 93.52854 138.077391 
L 93.580348 137.990101 
L 93.761679 137.144971 
L 94.124341 138.38843 
L 94.227958 138.517073 
L 94.409289 139.264696 
L 94.512906 138.681413 
L 94.564715 138.832547 
L 94.720142 139.315352 
L 94.746046 139.105126 
L 94.797855 138.918806 
L 94.849664 138.984861 
L 94.901472 139.078307 
L 94.927377 138.876656 
L 95.160516 139.352106 
L 95.212325 139.312323 
L 95.523178 138.809048 
L 95.549082 138.828376 
L 95.678604 138.831633 
L 95.808126 138.570471 
L 95.83403 138.653344 
L 95.911744 138.681843 
L 95.963552 138.462728 
L 96.015361 138.645486 
L 96.041266 138.601588 
L 96.06717 138.720384 
L 96.093074 138.758198 
L 96.118979 138.669744 
L 96.274405 138.294103 
L 96.326214 138.741122 
L 96.403927 138.558833 
L 96.48164 138.410777 
L 96.533449 138.459396 
L 97.181059 140.342505 
L 97.232867 140.287922 
L 97.336485 140.123674 
L 97.466007 140.40451 
L 97.491911 140.399217 
L 97.595529 140.24668 
L 97.673242 140.119619 
L 97.699147 140.160236 
L 97.77686 140.329165 
L 97.802764 140.31603 
L 97.984095 140.02025 
L 98.035904 140.100006 
L 98.087712 139.982876 
L 98.217234 139.86077 
L 98.476278 140.656089 
L 98.553991 140.553399 
L 98.709418 141.202065 
L 98.735322 141.142167 
L 98.761227 141.266757 
L 99.072079 141.758951 
L 99.097984 141.655337 
L 99.512454 140.536607 
L 99.564263 140.586058 
L 99.875115 140.009534 
L 99.90102 139.925879 
L 99.952828 140.086731 
L 99.978733 140.155463 
L 100.004637 140.131775 
L 100.108255 139.803154 
L 100.134159 139.835196 
L 100.367299 139.475645 
L 100.445012 139.458754 
L 100.755865 140.48287 
L 100.807673 140.400272 
L 100.833578 140.493427 
L 100.989004 140.875188 
L 101.299857 140.780629 
L 101.37757 141.074529 
L 101.429379 140.927848 
L 101.532996 140.523902 
L 101.584805 140.347551 
L 101.636614 140.555438 
L 101.740231 140.46189 
L 101.766136 140.486602 
L 101.973371 140.840882 
L 102.128797 140.971002 
L 102.180606 140.86912 
L 102.595076 140.162006 
L 102.750503 140.329338 
L 102.828216 140.453867 
L 102.85412 140.303973 
L 102.931833 140.359999 
L 103.113164 139.881249 
L 103.139069 139.8635 
L 103.164973 139.97492 
L 103.372208 140.223517 
L 103.398112 140.125104 
L 103.449921 140.007204 
L 103.50173 140.10626 
L 103.708965 140.248975 
L 103.812583 140.062283 
L 103.838487 140.072228 
L 103.890296 140.013526 
L 103.9162 140.075326 
L 104.071627 140.413358 
L 104.175244 140.213177 
L 104.201149 140.271683 
L 104.304766 140.572586 
L 104.356575 140.523455 
L 104.512001 140.434829 
L 105.055993 140.527782 
L 105.237324 141.346249 
L 105.263229 141.289744 
L 105.418655 141.597149 
L 105.444559 141.524861 
L 105.677699 141.011051 
L 105.703603 141.08234 
L 105.755412 140.971532 
L 105.807221 140.832636 
L 106.04036 140.407921 
L 106.066265 140.507565 
L 106.377117 140.368186 
L 106.584352 140.6392 
L 106.662066 140.658921 
L 106.843396 140.340236 
L 106.895205 140.375494 
L 106.92111 140.269527 
L 106.947014 140.319245 
L 107.128345 139.822753 
L 107.154249 139.829729 
L 107.361484 140.093294 
L 107.413293 140.026505 
L 107.542815 139.672046 
L 107.568719 139.697318 
L 107.775954 140.059003 
L 107.827763 139.983083 
L 107.879572 140.090681 
L 108.138616 140.283384 
L 108.242233 140.120574 
L 108.268138 140.2267 
L 108.449469 139.984842 
L 108.656704 139.675208 
L 108.889843 139.536046 
L 108.967556 139.484912 
L 108.993461 139.526513 
L 109.148887 139.716032 
L 109.174792 139.625589 
L 109.252505 139.746574 
L 109.382027 139.614234 
L 109.511549 139.711659 
L 109.563357 139.622425 
L 109.718784 139.328375 
L 109.796497 139.45619 
L 109.951923 139.518919 
L 110.081445 139.340509 
L 110.10735 139.365931 
L 110.262776 139.051519 
L 110.366393 138.811042 
L 110.418202 138.890262 
L 110.729055 139.68037 
L 110.832672 139.963939 
L 110.884481 139.896355 
L 111.16943 139.395463 
L 111.273047 139.255282 
L 111.298952 139.313697 
L 111.324856 139.444141 
L 111.428473 139.401567 
L 111.687517 138.96482 
L 111.765231 139.098678 
L 111.817039 139.268555 
L 111.868848 139.135378 
L 111.972466 138.981012 
L 112.024274 138.77983 
L 112.101988 138.868668 
L 112.41284 139.039411 
L 112.516458 138.890855 
L 112.542362 138.917973 
L 113.241781 139.711209 
L 113.267685 139.636106 
L 113.29359 139.651983 
L 113.319494 139.570224 
L 113.449016 139.479849 
L 113.47492 139.524523 
L 113.526729 139.393517 
L 113.552633 139.475768 
L 113.682155 139.459573 
L 113.863486 139.905581 
L 114.12253 140.275938 
L 114.200243 140.468771 
L 114.252052 140.376569 
L 114.666522 140.107294 
L 114.718331 140.251252 
L 114.899662 140.649234 
L 114.925566 140.617401 
L 114.951471 140.696522 
L 115.080993 140.888333 
L 115.106897 140.817348 
L 115.132801 140.850526 
L 115.18461 140.792906 
L 115.314132 140.76183 
L 115.624985 141.432668 
L 115.676794 141.335418 
L 116.117168 141.514534 
L 116.505734 142.009004 
L 117.256961 142.306061 
L 117.282866 142.337256 
L 117.334675 142.283633 
L 117.490101 142.093079 
L 117.593718 142.113056 
L 117.775049 141.906809 
L 118.008189 142.19132 
L 118.034093 142.188035 
L 118.163615 142.48511 
L 118.189519 142.46222 
L 118.241328 142.41522 
L 118.267233 142.499313 
L 118.293137 142.598579 
L 118.396755 142.559511 
L 118.629894 142.59464 
L 118.759416 142.562766 
L 118.78532 142.529528 
L 118.811225 142.631507 
L 118.992556 142.710354 
L 119.355217 142.758297 
L 119.562452 142.430831 
L 119.743783 142.403919 
L 119.769687 142.45842 
L 119.8474 142.375623 
L 119.976922 142.423703 
L 120.002827 142.46724 
L 120.054636 142.369034 
L 120.08054 142.384901 
L 120.132349 142.401543 
L 120.158253 142.350908 
L 120.313679 142.224241 
L 120.339584 142.256717 
L 120.443201 142.292898 
L 120.72815 141.928099 
L 120.857672 141.964489 
L 121.064907 141.548113 
L 121.116716 141.619234 
L 121.634803 141.439828 
L 121.79023 141.332481 
L 122.489648 140.767671 
L 122.645075 140.816379 
L 123.344493 140.407709 
L 123.888485 140.982023 
L 123.940294 140.919031 
L 123.992103 141.008489 
L 124.406573 140.602359 
L 124.432478 140.666395 
L 124.561999 140.621622 
L 124.795139 140.31391 
L 124.846948 140.437539 
L 124.898757 140.343716 
L 124.97647 140.235617 
L 125.028278 140.311684 
L 125.235514 140.407055 
L 125.313227 140.498442 
L 125.494558 140.762717 
L 125.675888 140.603706 
L 125.753601 140.515686 
L 125.909028 140.400027 
L 125.934932 140.438449 
L 126.03855 140.382455 
L 126.116263 140.29813 
L 126.168072 140.363385 
L 126.323498 140.394664 
L 126.504829 140.205694 
L 127.022917 140.488888 
L 127.463291 140.398657 
L 127.618718 140.2827 
L 127.851857 140.343996 
L 128.059092 140.256484 
L 128.188614 140.310649 
L 128.240423 140.320934 
L 128.395849 140.464069 
L 128.706702 140.74183 
L 128.732606 140.71107 
L 129.380216 140.566218 
L 129.716973 140.873425 
L 129.742878 140.842395 
L 129.820591 140.782513 
L 129.8724 140.820124 
L 129.976017 140.859572 
L 130.001921 140.792412 
L 130.131443 140.842131 
L 130.312774 141.111957 
L 131.478472 140.739197 
L 131.659802 140.844495 
L 131.815229 140.838561 
L 131.970655 140.778005 
L 132.307412 140.507079 
L 132.618265 140.630057 
L 132.773691 140.424543 
L 133.05864 140.54633 
L 133.162257 140.47814 
L 133.576727 139.961768 
L 133.602632 139.98861 
L 133.732154 139.987564 
L 134.379763 139.772127 
L 134.664712 140.054981 
L 134.690616 140.033906 
L 134.871947 140.043884 
L 135.079182 139.837834 
L 135.234608 139.773407 
L 135.674983 139.964985 
L 135.985836 139.785908 
L 136.141262 139.916816 
L 136.270784 139.895823 
L 136.581637 139.997128 
L 136.762967 139.797642 
L 137.203342 140.022128 
L 137.30696 139.934993 
L 137.436482 139.874184 
L 137.850952 140.066911 
L 138.032283 140.226774 
L 138.084091 140.150683 
L 138.239518 140.054173 
L 138.343135 140.076918 
L 138.679892 139.869189 
L 138.757605 139.834979 
L 138.938936 139.701061 
L 139.120267 139.446016 
L 139.19798 139.371777 
L 139.249789 139.453713 
L 139.405215 139.397294 
L 139.482928 139.331527 
L 139.534737 139.355817 
L 139.690164 139.531623 
L 139.716068 139.497104 
L 139.871494 139.456813 
L 140.078729 139.371541 
L 140.234156 139.397325 
L 140.467295 139.374738 
L 140.545008 139.475489 
L 140.596817 139.452853 
L 140.881765 139.423807 
L 141.011287 139.296663 
L 141.037192 139.311199 
L 141.166714 139.328172 
L 141.32214 139.203851 
L 141.607088 139.181842 
L 141.788419 139.330453 
L 141.840228 139.262949 
L 142.254698 139.062579 
L 142.461933 138.998233 
L 142.591455 138.921355 
L 142.61736 138.942121 
L 142.695073 138.879561 
L 142.720977 138.821712 
L 142.79869 138.877003 
L 143.005926 138.881641 
L 143.264969 138.544914 
L 143.290874 138.580792 
L 143.4463 138.647504 
L 143.627631 138.697457 
L 143.67944 138.739064 
L 143.731248 138.666515 
L 143.912579 138.560452 
L 144.223432 138.604168 
L 144.301145 138.55311 
L 144.663807 138.386555 
L 144.819233 138.420773 
L 145.130086 138.40233 
L 145.233703 138.294855 
L 145.259607 138.333225 
L 145.337321 138.334414 
L 145.363225 138.288503 
L 145.518651 138.275452 
L 145.648173 138.266228 
L 145.855408 138.101114 
L 146.114452 138.038862 
L 146.269879 138.136836 
L 146.295783 138.105474 
L 146.425305 138.099765 
L 146.658445 138.088383 
L 146.969297 138.375329 
L 147.176532 138.612023 
L 147.487385 138.806768 
L 147.798238 138.66599 
L 147.92776 138.6626 
L 147.953664 138.686431 
L 148.005473 138.589332 
L 148.471752 138.629446 
L 148.678987 138.61117 
L 148.938031 138.567196 
L 149.145266 138.654574 
L 149.40431 138.620358 
L 149.559736 138.482641 
L 149.585641 138.499295 
L 149.741067 138.5686 
L 150.829051 138.104571 
L 151.010382 138.053449 
L 151.191713 138.029131 
L 151.29533 138.116321 
L 151.52847 138.082723 
L 151.657992 137.993899 
L 151.813418 138.076204 
L 151.968845 138.110256 
L 152.82369 137.780023 
L 153.00502 137.658434 
L 153.367682 137.664219 
L 154.041196 137.753441 
L 154.507475 137.952475 
L 154.688806 138.019035 
L 154.844232 137.942747 
L 155.051467 137.960789 
L 155.180989 137.936674 
L 155.36232 138.018068 
L 155.465937 138.07389 
L 155.673172 138.264844 
L 155.77679 138.294845 
L 155.854503 138.403602 
L 155.906312 138.380908 
L 156.268973 138.244743 
L 156.450304 138.163301 
L 156.631635 138.301882 
L 156.812966 138.325836 
L 157.07201 138.275307 
L 157.978663 138.369903 
L 158.496751 138.05721 
L 158.574464 138.080595 
L 158.600369 138.026539 
L 158.781699 137.931685 
L 159.455213 138.136633 
L 159.636544 138.178453 
L 160.02511 138.0196 
L 160.284154 137.88071 
L 160.387772 137.779412 
L 160.569102 137.708166 
L 161.242616 137.487605 
L 161.372138 137.496902 
L 161.631182 137.216061 
L 162.434218 136.931935 
L 162.56374 137.02689 
L 162.589645 137.001689 
L 162.745071 136.937231 
L 163.004115 136.980611 
L 163.289063 136.8211 
L 163.781247 136.844075 
L 163.962577 136.838232 
L 164.040291 136.896247 
L 164.195717 136.927641 
L 164.377048 136.963359 
L 164.454761 137.020078 
L 164.558378 136.990522 
L 165.128275 137.208483 
L 165.387319 137.232916 
L 165.620458 137.126025 
L 165.931311 137.154613 
L 166.164451 137.033124 
L 166.319877 137.150223 
L 166.475303 137.14191 
L 166.967487 137.198072 
L 167.381957 137.298308 
L 167.744618 137.296776 
L 167.900045 137.302105 
L 168.10728 137.236356 
L 168.262706 137.188101 
L 168.418133 137.084723 
L 168.444037 137.112955 
L 168.651272 137.157105 
L 168.832603 137.184921 
L 168.962125 137.113461 
L 169.16936 137.003319 
L 169.894683 136.798234 
L 170.050109 136.858544 
L 170.076014 136.81032 
L 170.257344 136.747348 
L 170.620006 136.70794 
L 170.723623 136.864577 
L 170.904954 137.011701 
L 171.241711 136.928075 
L 171.474851 136.943618 
L 171.733895 136.89128 
L 171.785703 136.912646 
L 171.837512 136.8493 
L 172.148365 136.841181 
L 172.485122 136.87306 
L 172.666453 136.800785 
L 173.00321 136.885638 
L 173.210445 137.004413 
L 173.236349 136.962472 
L 173.365871 136.990749 
L 173.495393 136.997101 
L 174.635186 136.608053 
L 174.89423 136.447544 
L 175.049657 136.360204 
L 175.256892 136.394279 
L 175.515936 136.371015 
L 175.852693 136.368377 
L 176.111737 136.338357 
L 177.096103 136.00105 
L 177.510574 135.967199 
L 178.184088 135.972946 
L 178.31361 136.003145 
L 178.494941 136.070071 
L 178.650367 136.065596 
L 178.909411 136.191167 
L 179.686542 136.087993 
L 179.816064 136.089142 
L 179.997395 136.030818 
L 182.121555 136.005697 
L 182.251077 136.01377 
L 182.432408 136.058895 
L 182.795069 136.047487 
L 183.131826 135.953898 
L 183.261348 135.951892 
L 183.416775 135.93801 
L 183.598105 135.841905 
L 184.03848 135.807665 
L 184.27162 135.890328 
L 184.478855 135.859953 
L 184.763803 135.831362 
L 184.971038 135.867978 
L 185.540935 135.807931 
L 186.447588 135.729045 
L 186.551206 135.713085 
L 186.57711 135.734225 
L 186.81025 135.705413 
L 188.053661 135.975696 
L 188.183183 135.951317 
L 188.416322 135.916701 
L 188.675366 136.071607 
L 188.93441 136.141267 
L 189.115741 136.180913 
L 189.374785 136.189969 
L 189.633828 136.106642 
L 189.789255 136.114371 
L 189.970586 136.082764 
L 190.462769 136.091503 
L 191.524849 136.098925 
L 191.991128 136.107889 
L 192.224267 136.256973 
L 192.561025 136.21928 
L 193.519487 136.058309 
L 193.674913 136.053759 
L 194.607471 135.972914 
L 194.762898 135.994178 
L 194.970133 136.038888 
L 195.255081 136.111214 
L 195.669551 135.965485 
L 195.824978 135.985921 
L 196.13583 136.027049 
L 196.912962 136.31526 
L 197.146102 136.329487 
L 197.327432 136.365902 
L 197.612381 136.414943 
L 197.84552 136.405743 
L 198.026851 136.449453 
L 198.156373 136.423636 
L 198.49313 136.461391 
L 199.632923 136.514527 
L 199.866063 136.429463 
L 200.073298 136.387408 
L 200.746812 136.823503 
L 200.876334 136.822616 
L 201.213091 136.87384 
L 201.420326 136.900655 
L 201.575752 136.911777 
L 201.808892 136.915026 
L 202.249267 137.006478 
L 202.404693 136.97298 
L 203.15592 136.962288 
L 203.518582 136.919022 
L 203.829434 136.906268 
L 204.192096 136.858235 
L 204.347522 136.854217 
L 205.046941 137.029562 
L 205.28008 137.107739 
L 205.772264 137.166475 
L 206.031308 137.256007 
L 206.264447 137.265971 
L 206.5753 137.337898 
L 206.808439 137.278337 
L 208.025946 137.390341 
L 208.69946 137.235919 
L 209.11393 137.308015 
L 209.839253 137.264529 
L 210.538672 137.298925 
L 210.720002 137.385992 
L 211.47123 137.490694 
L 211.65256 137.407884 
L 211.937509 137.402369 
L 212.507405 137.369972 
L 213.025493 137.462099 
L 213.802625 137.395905 
L 214.191191 137.456823 
L 214.372521 137.419191 
L 214.761087 137.349913 
L 216.574395 137.337286 
L 216.78163 137.303501 
L 217.040674 137.350027 
L 217.299718 137.431442 
L 217.947327 137.684277 
L 218.206371 137.754143 
L 218.543128 137.715249 
L 218.698555 137.665274 
L 219.32026 137.597123 
L 219.631113 137.564219 
L 219.96787 137.524139 
L 220.563671 137.50171 
L 220.745001 137.473966 
L 221.340802 137.305059 
L 221.548038 137.348459 
L 221.703464 137.29627 
L 221.910699 137.212714 
L 222.247456 137.185306 
L 222.428787 137.133121 
L 223.80172 137.16922 
L 223.957146 137.150532 
L 226.10721 137.189614 
L 226.314445 137.131475 
L 227.609665 137.060826 
L 227.868709 137.169045 
L 228.205466 137.134164 
L 229.11212 137.169535 
L 229.630207 137.102533 
L 233.54177 136.832362 
L 233.723101 136.829043 
L 234.111667 136.79372 
L 234.888799 137.161847 
L 235.25146 137.035357 
L 235.4846 137.004582 
L 236.132209 137.114594 
L 236.54668 137.240979 
L 236.831628 137.218694 
L 237.090672 137.183116 
L 237.297907 137.19508 
L 237.531047 137.214135 
L 239.266641 137.279701 
L 240.069677 137.212359 
L 240.251008 137.265402 
L 241.054044 137.278011 
L 241.287183 137.253405 
L 241.805271 137.216948 
L 242.452881 137.14993 
L 242.660116 137.099887 
L 243.048682 137.029831 
L 243.230012 136.987053 
L 243.618578 137.006935 
L 243.774005 137.014061 
L 244.033049 137.035051 
L 244.188475 137.009983 
L 245.198746 136.746876 
L 245.405981 136.72448 
L 246.234922 136.815336 
L 246.986149 137.161919 
L 247.245193 137.208484 
L 247.452428 137.327762 
L 247.659663 137.410843 
L 248.281369 137.438943 
L 250.405529 137.860254 
L 251.441704 137.887864 
L 251.882079 137.826157 
L 252.270645 137.772398 
L 252.918254 137.909083 
L 253.695386 137.827053 
L 254.18757 137.850087 
L 254.3689 137.781227 
L 254.627944 137.763567 
L 254.886988 137.751159 
L 255.094223 137.741631 
L 257.166575 137.698673 
L 257.684662 137.576419 
L 258.43589 137.480915 
L 258.694934 137.473015 
L 259.005786 137.352541 
L 259.187117 137.303727 
L 260.197388 137.314934 
L 260.404623 137.311927 
L 260.715476 137.404763 
L 261.026329 137.467069 
L 261.311277 137.555416 
L 262.114313 137.449431 
L 262.528783 137.49494 
L 262.761923 137.566377 
L 263.668577 137.458797 
L 263.953525 137.442488 
L 265.999972 137.485399 
L 266.621677 137.507335 
L 266.828912 137.463335 
L 267.036147 137.418785 
L 267.554235 137.419209 
L 268.64222 137.614524 
L 268.797646 137.620446 
L 269.186212 137.624286 
L 269.419351 137.582137 
L 270.610953 137.567427 
L 270.818188 137.548266 
L 272.786922 137.450569 
L 272.994157 137.502762 
L 273.227297 137.496795 
L 274.004428 137.459251 
L 274.237568 137.471924 
L 275.0147 137.425124 
L 275.273743 137.401763 
L 275.532787 137.359876 
L 275.973162 137.304633 
L 276.776198 137.264426 
L 276.957529 137.261694 
L 277.397904 137.237136 
L 277.915991 137.156058 
L 278.770836 137.122476 
L 280.894996 137.031282 
L 281.283562 136.950588 
L 281.594415 137.032221 
L 282.060694 137.118714 
L 282.319738 137.141365 
L 282.682399 137.088088 
L 283.122774 137.116866 
L 283.614957 137.229508 
L 284.055332 137.307365 
L 284.495707 137.213889 
L 284.806559 137.228331 
L 285.013794 137.304012 
L 285.531882 137.325434 
L 285.842735 137.359212 
L 286.075874 137.39125 
L 287.656042 137.259148 
L 287.837373 137.249965 
L 288.018704 137.208631 
L 288.251843 137.149968 
L 288.692218 137.182964 
L 289.106688 137.237332 
L 291.049517 137.094471 
L 292.65559 137.254624 
L 293.639956 137.177189 
L 293.899 137.174292 
L 295.349646 137.206855 
L 295.60869 137.218296 
L 296.204491 137.185627 
L 296.800292 137.126405 
L 297.266571 137.014832 
L 297.810563 137.037036 
L 298.250938 137.03217 
L 299.131687 137.023316 
L 299.597966 136.83838 
L 300.556429 136.872615 
L 300.815473 136.880532 
L 301.048612 136.935594 
L 301.281752 136.902192 
L 301.488987 136.884502 
L 301.903457 136.961602 
L 303.27639 136.983278 
L 303.716764 136.95331 
L 304.131235 136.943625 
L 304.33847 136.971193 
L 304.623418 136.93097 
L 305.530072 136.847624 
L 306.592152 137.026988 
L 308.146415 136.907937 
L 309.027164 137.024342 
L 309.208495 137.0136 
L 309.726583 137.066601 
L 310.037436 137.025098 
L 312.368831 137.076838 
L 312.653779 137.060476 
L 312.990536 137.046363 
L 313.24958 137.062503 
L 313.819477 137.067182 
L 314.337564 137.205576 
L 314.777939 137.201723 
L 315.114696 137.2181 
L 316.099063 137.170173 
L 316.43582 137.176764 
L 317.057525 137.200553 
L 317.575613 137.155961 
L 317.860561 137.113459 
L 318.223223 137.063083 
L 319.518442 136.964375 
L 319.829295 136.977097 
L 320.062435 136.95143 
L 322.16069 136.907914 
L 322.471543 136.868501 
L 322.730587 136.83727 
L 323.196866 136.794074 
L 323.481814 136.833364 
L 323.766763 136.846076 
L 324.025806 136.807715 
L 324.466181 136.769461 
L 324.725225 136.728797 
L 325.295122 136.652183 
L 325.735496 136.680705 
L 326.149966 136.61976 
L 326.538532 136.643945 
L 328.170509 136.593719 
L 328.377744 136.604927 
L 329.025354 136.62331 
L 330.113338 136.782549 
L 330.320573 136.824965 
L 330.760948 136.75898 
L 332.651968 136.722832 
L 333.040534 136.672266 
L 336.278583 136.57273 
L 336.563531 136.58563 
L 336.952097 136.591502 
L 337.988273 136.578603 
L 338.843118 136.484251 
L 344.723414 136.553916 
L 345.189693 136.553426 
L 345.526451 136.607933 
L 345.837303 136.61545 
L 346.277678 136.764007 
L 347.05481 136.880612 
L 347.313854 136.810576 
L 347.546993 136.825643 
L 348.557264 136.732369 
L 349.049448 136.705435 
L 349.59344 136.626453 
L 350.681424 136.569794 
L 350.966373 136.561772 
L 351.147703 136.550567 
L 351.7176 136.593594 
L 352.002548 136.582621 
L 353.60862 136.54067 
L 353.867664 136.526801 
L 354.463465 136.529515 
L 354.826127 136.532986 
L 355.836398 136.468421 
L 356.587625 136.391081 
L 358.219602 136.431455 
L 358.50455 136.410193 
L 358.685881 136.375696 
L 359.100351 136.426866 
L 359.385299 136.426222 
L 359.877483 136.479781 
L 360.550997 136.51381 
L 361.017276 136.442295 
L 361.224511 136.436213 
L 364.229421 136.247492 
L 364.436656 136.238002 
L 365.213787 136.220861 
L 365.52464 136.223168 
L 366.042728 136.143545 
L 366.793955 136.143015 
L 367.441565 136.091916 
L 367.778322 136.082414 
L 374.176706 136.223576 
L 374.720699 136.303125 
L 375.756874 136.361892 
L 376.093631 136.33849 
L 379.487107 136.408404 
L 379.927481 136.386078 
L 380.316047 136.371197 
L 381.766693 136.291045 
L 382.725155 136.274191 
L 383.087817 136.250894 
L 383.476383 136.289779 
L 385.445116 136.202613 
L 385.807778 136.253402 
L 388.527739 136.35464 
L 388.942209 136.421452 
L 390.18562 136.483354 
L 390.574186 136.463512 
L 391.195891 136.451282 
L 394.330322 136.379174 
L 394.84841 136.380478 
L 395.366498 136.329233 
L 396.169534 136.314038 
L 396.920761 136.253291 
L 397.335232 136.263735 
L 397.697893 136.246684 
L 398.345503 136.241956 
L 401.972118 136.135684 
L 402.231161 136.142895 
L 402.464301 136.142383 
L 403.552285 136.164746 
L 404.018564 136.092066 
L 404.433035 136.078427 
L 405.546923 136.240172 
L 406.142724 136.21557 
L 407.204804 136.220621 
L 407.59337 136.238525 
L 408.551833 136.219228 
L 409.225347 136.195178 
L 410.468758 136.26782 
L 410.831419 136.316764 
L 412.256161 136.25698 
L 412.592918 136.298221 
L 412.929675 136.253193 
L 413.836328 136.212565 
L 414.406225 136.18365 
L 414.976122 136.200755 
L 416.918951 136.107966 
L 418.03284 136.127096 
L 418.265979 136.103447 
L 418.602736 136.152279 
L 420.182904 136.285599 
L 420.545565 136.26865 
L 421.167271 136.250466 
L 422.332968 136.299673 
L 431.036844 136.064701 
L 431.83988 136.051442 
L 433.290526 136.135293 
L 434.197179 136.223421 
L 435.259259 136.242827 
L 435.596016 136.263585 
L 435.958678 136.255816 
L 436.528574 136.235987 
L 436.787618 136.216219 
L 437.590654 136.187204 
L 439.326249 136.21515 
L 440.517851 136.254134 
L 440.854608 136.235232 
L 442.020305 136.154509 
L 442.408871 136.141076 
L 443.160098 136.0932 
L 445.983677 136.116766 
L 447.589749 136.192425 
L 448.366881 136.15884 
L 448.755447 136.180504 
L 451.345886 136.162233 
L 455.179736 136.071943 
L 455.775537 136.057926 
L 457.433418 136.07943 
L 458.39188 136.083705 
L 459.972048 136.016504 
L 463.05467 135.977391 
L 464.323985 135.984374 
L 465.023404 135.967549 
L 465.386065 135.978528 
L 466.007771 135.957593 
L 466.655381 135.950948 
L 467.717461 135.956352 
L 468.002409 135.942462 
L 468.572306 135.957184 
L 471.13684 135.965375 
L 472.354347 136.129994 
L 473.545948 136.132329 
L 474.271271 136.151265 
L 487.637937 136.084171 
L 488.440973 136.083505 
L 488.77773 136.092441 
L 489.503053 136.148678 
L 490.228376 136.124715 
L 492.171205 135.984761 
L 492.818815 136.004375 
L 494.191748 136.001883 
L 494.942975 135.992187 
L 495.357445 135.956246 
L 495.901438 135.9736 
L 496.497238 135.980506 
L 498.699112 136.023072 
L 499.191295 136.102026 
L 499.994331 136.133653 
L 500.27928 136.130861 
L 500.667845 136.134842 
L 504.94207 136.093957 
L 505.537871 136.112688 
L 507.71384 136.169143 
L 508.206023 136.168788 
L 510.148852 136.277653 
L 512.273012 136.264811 
L 512.817005 136.225589 
L 515.770105 136.147662 
L 516.314097 136.110597 
L 516.961707 136.162852 
L 517.45389 136.142156 
L 517.894265 136.174357 
L 519.189485 136.217553 
L 521.754019 136.168227 
L 522.816099 136.130153 
L 523.385996 136.112421 
L 525.53606 136.157586 
L 526.105957 136.19407 
L 527.89336 136.191491 
L 530.121137 136.2414 
L 530.84646 136.26221 
L 531.571783 136.260174 
L 533.229664 136.209256 
L 534.162222 136.183546 
L 537.322558 136.250992 
L 540.40518 136.213849 
L 541.05279 136.209039 
L 541.752209 136.1848 
L 546.907182 136.16156 
L 547.528888 136.148915 
L 549.653048 136.158715 
L 550.585606 136.136407 
L 552.373009 136.154142 
L 553.409184 136.158479 
L 553.79775 136.159143 
L 555.041161 136.091196 
L 555.455631 136.086616 
L 556.025528 136.081399 
L 557.916548 136.159837 
L 558.823202 136.15112 
L 559.393099 136.140806 
L 560.688318 136.100436 
L 561.258215 136.117754 
L 561.87992 136.061879 
L 562.501626 136.115445 
L 565.636057 136.114088 
L 566.050527 136.123935 
L 567.397555 136.082941 
L 569.703046 136.020464 
L 570.19523 136.005332 
L 570.661509 136.022614 
L 572.034441 135.996624 
L 572.423007 135.953036 
L 574.391741 135.923831 
L 575.324299 135.877476 
L 576.127335 135.861909 
L 578.588252 135.945311 
L 579.054531 135.984103 
L 580.738316 135.965882 
L 581.100978 135.965115 
L 582.163058 135.970482 
L 582.629337 135.9877 
L 587.991546 136.130825 
L 588.354207 136.113604 
L 589.882566 136.130175 
L 590.193419 136.095652 
L 591.540447 136.061995 
L 592.369388 136.059371 
L 610.916931 135.853836 
L 611.668159 135.824163 
L 612.963378 135.77671 
L 613.74051 135.8065 
L 614.776686 135.834246 
L 615.21706 135.816843 
L 616.305045 135.828155 
L 616.874941 135.794776 
L 619.517189 135.865097 
L 620.035277 135.824861 
L 621.485923 135.828884 
L 622.47029 135.84285 
L 623.376943 135.845524 
L 626.951749 135.874586 
L 627.521646 135.873334 
L 633.50556 135.803296 
L 634.464022 135.793539 
L 635.111632 135.781333 
L 636.510469 135.814 
L 639.075004 135.899876 
L 639.541283 135.89907 
L 644.178169 136.014011 
L 645.110727 136.016461 
L 652.700713 136.031142 
L 653.944124 136.082593 
L 655.342961 136.137515 
L 657.28579 136.102699 
L 657.726165 136.154101 
L 659.150907 136.110138 
L 661.041927 136.082028 
L 662.104007 136.07041 
L 664.331785 135.987942 
L 664.746255 135.957116 
L 665.290247 135.932483 
L 670.885595 135.90632 
L 671.351874 135.871357 
L 671.844058 135.871887 
L 673.320608 135.838578 
L 674.589923 135.828627 
L 675.962856 135.857839 
L 676.63637 135.833136 
L 678.009303 135.788192 
L 678.605104 135.799829 
L 683.501034 135.732857 
L 683.889599 135.709988 
L 684.511305 135.699454 
L 685.13301 135.681841 
L 685.987855 135.665253 
L 685.987855 135.665253 
" clip-path="url(#p3f5fcdc87e)" style="fill: none; stroke: #ffa500; stroke-width: 1.5; stroke-linecap: square"/>
   </g>
   <g id="line2d_16">
    <path d="M 167.925949 358.33875 
L 167.925949 25.69875 
" clip-path="url(#p3f5fcdc87e)" style="fill: none; stroke-dasharray: 5.55,2.4; stroke-dashoffset: 0; stroke: #ff0000; stroke-width: 1.5"/>
   </g>
   <g id="patch_3">
    <path d="M 46.824219 358.33875 
L 46.824219 25.69875 
" style="fill: none; stroke: #000000; stroke-width: 0.8; stroke-linejoin: miter; stroke-linecap: square"/>
   </g>
   <g id="patch_4">
    <path d="M 716.424219 358.33875 
L 716.424219 25.69875 
" style="fill: none; stroke: #000000; stroke-width: 0.8; stroke-linejoin: miter; stroke-linecap: square"/>
   </g>
   <g id="patch_5">
    <path d="M 46.824219 358.33875 
L 716.424219 358.33875 
" style="fill: none; stroke: #000000; stroke-width: 0.8; stroke-linejoin: miter; stroke-linecap: square"/>
   </g>
   <g id="patch_6">
    <path d="M 46.824219 25.69875 
L 716.424219 25.69875 
" style="fill: none; stroke: #000000; stroke-width: 0.8; stroke-linejoin: miter; stroke-linecap: square"/>
   </g>
   <g id="text_15">
    <!-- Means of s1 and s2 -->
    <g transform="translate(312.130156 19.69875) scale(0.18 -0.18)">
     <defs>
      <path id="TimesNewRomanPSMT-4d" d="M 2619 0 
L 981 3566 
L 981 734 
Q 981 344 1066 247 
Q 1181 116 1431 116 
L 1581 116 
L 1581 0 
L 106 0 
L 106 116 
L 256 116 
Q 525 116 638 278 
Q 706 378 706 734 
L 706 3503 
Q 706 3784 644 3909 
Q 600 4000 483 4061 
Q 366 4122 106 4122 
L 106 4238 
L 1306 4238 
L 2844 922 
L 4356 4238 
L 5556 4238 
L 5556 4122 
L 5409 4122 
Q 5138 4122 5025 3959 
Q 4956 3859 4956 3503 
L 4956 734 
Q 4956 344 5044 247 
Q 5159 116 5409 116 
L 5556 116 
L 5556 0 
L 3756 0 
L 3756 116 
L 3906 116 
Q 4178 116 4288 278 
Q 4356 378 4356 734 
L 4356 3566 
L 2722 0 
L 2619 0 
z
" transform="scale(0.015625)"/>
      <path id="TimesNewRomanPSMT-66" d="M 1319 2638 
L 1319 756 
Q 1319 356 1406 250 
Q 1522 113 1716 113 
L 1975 113 
L 1975 0 
L 266 0 
L 266 113 
L 394 113 
Q 519 113 622 175 
Q 725 238 764 344 
Q 803 450 803 756 
L 803 2638 
L 247 2638 
L 247 2863 
L 803 2863 
L 803 3050 
Q 803 3478 940 3775 
Q 1078 4072 1361 4255 
Q 1644 4438 1997 4438 
Q 2325 4438 2600 4225 
Q 2781 4084 2781 3909 
Q 2781 3816 2700 3733 
Q 2619 3650 2525 3650 
Q 2453 3650 2373 3701 
Q 2294 3753 2178 3923 
Q 2063 4094 1966 4153 
Q 1869 4213 1750 4213 
Q 1606 4213 1506 4136 
Q 1406 4059 1362 3898 
Q 1319 3738 1319 3069 
L 1319 2863 
L 2056 2863 
L 2056 2638 
L 1319 2638 
z
" transform="scale(0.015625)"/>
      <path id="TimesNewRomanPSMT-64" d="M 2222 322 
Q 2013 103 1813 7 
Q 1613 -88 1381 -88 
Q 913 -88 563 304 
Q 213 697 213 1313 
Q 213 1928 600 2439 
Q 988 2950 1597 2950 
Q 1975 2950 2222 2709 
L 2222 3238 
Q 2222 3728 2198 3840 
Q 2175 3953 2125 3993 
Q 2075 4034 2000 4034 
Q 1919 4034 1784 3984 
L 1744 4094 
L 2597 4444 
L 2738 4444 
L 2738 1134 
Q 2738 631 2761 520 
Q 2784 409 2836 365 
Q 2888 322 2956 322 
Q 3041 322 3181 375 
L 3216 266 
L 2366 -88 
L 2222 -88 
L 2222 322 
z
M 2222 541 
L 2222 2016 
Q 2203 2228 2109 2403 
Q 2016 2578 1861 2667 
Q 1706 2756 1559 2756 
Q 1284 2756 1069 2509 
Q 784 2184 784 1559 
Q 784 928 1059 592 
Q 1334 256 1672 256 
Q 1956 256 2222 541 
z
" transform="scale(0.015625)"/>
     </defs>
     <use xlink:href="#TimesNewRomanPSMT-4d"/>
     <use xlink:href="#TimesNewRomanPSMT-65" x="88.916016"/>
     <use xlink:href="#TimesNewRomanPSMT-61" x="133.300781"/>
     <use xlink:href="#TimesNewRomanPSMT-6e" x="177.685547"/>
     <use xlink:href="#TimesNewRomanPSMT-73" x="227.685547"/>
     <use xlink:href="#TimesNewRomanPSMT-20" x="266.601562"/>
     <use xlink:href="#TimesNewRomanPSMT-6f" x="291.601562"/>
     <use xlink:href="#TimesNewRomanPSMT-66" x="341.601562"/>
     <use xlink:href="#TimesNewRomanPSMT-20" x="374.902344"/>
     <use xlink:href="#TimesNewRomanPSMT-73" x="399.902344"/>
     <use xlink:href="#TimesNewRomanPSMT-31" x="438.818359"/>
     <use xlink:href="#TimesNewRomanPSMT-20" x="488.818359"/>
     <use xlink:href="#TimesNewRomanPSMT-61" x="513.818359"/>
     <use xlink:href="#TimesNewRomanPSMT-6e" x="558.203125"/>
     <use xlink:href="#TimesNewRomanPSMT-64" x="608.203125"/>
     <use xlink:href="#TimesNewRomanPSMT-20" x="658.203125"/>
     <use xlink:href="#TimesNewRomanPSMT-73" x="683.203125"/>
     <use xlink:href="#TimesNewRomanPSMT-32" x="722.119141"/>
    </g>
   </g>
   <g id="legend_1">
    <g id="patch_7">
     <path d="M 608.351562 350.83875 
L 705.924219 350.83875 
Q 708.924219 350.83875 708.924219 347.83875 
L 708.924219 306.921562 
Q 708.924219 303.921562 705.924219 303.921562 
L 608.351562 303.921562 
Q 605.351562 303.921562 605.351562 306.921562 
L 605.351562 347.83875 
Q 605.351562 350.83875 608.351562 350.83875 
z
" style="fill: #ffffff; opacity: 0.8; stroke: #cccccc; stroke-linejoin: miter"/>
    </g>
    <g id="line2d_17">
     <path d="M 611.351562 315.171562 
L 626.351562 315.171562 
L 641.351562 315.171562 
" style="fill: none; stroke: #0000ff; stroke-width: 1.5; stroke-linecap: square"/>
    </g>
    <g id="text_16">
     <!-- s1 mean -->
     <g transform="translate(653.351562 320.421562) scale(0.15 -0.15)">
      <defs>
       <path id="TimesNewRomanPSMT-6d" d="M 1050 2338 
Q 1363 2650 1419 2697 
Q 1559 2816 1721 2881 
Q 1884 2947 2044 2947 
Q 2313 2947 2506 2790 
Q 2700 2634 2766 2338 
Q 3088 2713 3309 2830 
Q 3531 2947 3766 2947 
Q 3994 2947 4170 2830 
Q 4347 2713 4450 2447 
Q 4519 2266 4519 1878 
L 4519 647 
Q 4519 378 4559 278 
Q 4591 209 4675 161 
Q 4759 113 4950 113 
L 4950 0 
L 3538 0 
L 3538 113 
L 3597 113 
Q 3781 113 3884 184 
Q 3956 234 3988 344 
Q 4000 397 4000 647 
L 4000 1878 
Q 4000 2228 3916 2372 
Q 3794 2572 3525 2572 
Q 3359 2572 3192 2489 
Q 3025 2406 2788 2181 
L 2781 2147 
L 2788 2013 
L 2788 647 
Q 2788 353 2820 281 
Q 2853 209 2943 161 
Q 3034 113 3253 113 
L 3253 0 
L 1806 0 
L 1806 113 
Q 2044 113 2133 169 
Q 2222 225 2256 338 
Q 2272 391 2272 647 
L 2272 1878 
Q 2272 2228 2169 2381 
Q 2031 2581 1784 2581 
Q 1616 2581 1450 2491 
Q 1191 2353 1050 2181 
L 1050 647 
Q 1050 366 1089 281 
Q 1128 197 1204 155 
Q 1281 113 1516 113 
L 1516 0 
L 100 0 
L 100 113 
Q 297 113 375 155 
Q 453 197 493 289 
Q 534 381 534 647 
L 534 1741 
Q 534 2213 506 2350 
Q 484 2453 437 2492 
Q 391 2531 309 2531 
Q 222 2531 100 2484 
L 53 2597 
L 916 2947 
L 1050 2947 
L 1050 2338 
z
" transform="scale(0.015625)"/>
      </defs>
      <use xlink:href="#TimesNewRomanPSMT-73"/>
      <use xlink:href="#TimesNewRomanPSMT-31" x="38.916016"/>
      <use xlink:href="#TimesNewRomanPSMT-20" x="88.916016"/>
      <use xlink:href="#TimesNewRomanPSMT-6d" x="113.916016"/>
      <use xlink:href="#TimesNewRomanPSMT-65" x="191.699219"/>
      <use xlink:href="#TimesNewRomanPSMT-61" x="236.083984"/>
      <use xlink:href="#TimesNewRomanPSMT-6e" x="280.46875"/>
     </g>
    </g>
    <g id="line2d_18">
     <path d="M 611.351562 336.380156 
L 626.351562 336.380156 
L 641.351562 336.380156 
" style="fill: none; stroke: #ffa500; stroke-width: 1.5; stroke-linecap: square"/>
    </g>
    <g id="text_17">
     <!-- s2 mean -->
     <g transform="translate(653.351562 341.630156) scale(0.15 -0.15)">
      <use xlink:href="#TimesNewRomanPSMT-73"/>
      <use xlink:href="#TimesNewRomanPSMT-32" x="38.916016"/>
      <use xlink:href="#TimesNewRomanPSMT-20" x="88.916016"/>
      <use xlink:href="#TimesNewRomanPSMT-6d" x="113.916016"/>
      <use xlink:href="#TimesNewRomanPSMT-65" x="191.699219"/>
      <use xlink:href="#TimesNewRomanPSMT-61" x="236.083984"/>
      <use xlink:href="#TimesNewRomanPSMT-6e" x="280.46875"/>
     </g>
    </g>
   </g>
  </g>
 </g>
 <defs>
  <clipPath id="p3f5fcdc87e">
   <rect x="46.824219" y="25.69875" width="669.6" height="332.64"/>
  </clipPath>
 </defs>
</svg>
