<?xml version="1.0" encoding="utf-8" standalone="no"?>
<!DOCTYPE svg PUBLIC "-//W3C//DTD SVG 1.1//EN"
  "http://www.w3.org/Graphics/SVG/1.1/DTD/svg11.dtd">
<svg xmlns:xlink="http://www.w3.org/1999/xlink" width="739.364885pt" height="403.787187pt" viewBox="0 0 739.364885 403.787187" xmlns="http://www.w3.org/2000/svg" version="1.1">
 <metadata>
  <rdf:RDF xmlns:dc="http://purl.org/dc/elements/1.1/" xmlns:cc="http://creativecommons.org/ns#" xmlns:rdf="http://www.w3.org/1999/02/22-rdf-syntax-ns#">
   <cc:Work>
    <dc:type rdf:resource="http://purl.org/dc/dcmitype/StillImage"/>
    <dc:date>2023-10-17T14:36:33.417734</dc:date>
    <dc:format>image/svg+xml</dc:format>
    <dc:creator>
     <cc:Agent>
      <dc:title>Matplotlib v3.8.0, https://matplotlib.org/</dc:title>
     </cc:Agent>
    </dc:creator>
   </cc:Work>
  </rdf:RDF>
 </metadata>
 <defs>
  <style type="text/css">*{stroke-linejoin: round; stroke-linecap: butt}</style>
 </defs>
 <g id="figure_1">
  <g id="patch_1">
   <path d="M 0 403.787187 
L 739.364885 403.787187 
L 739.364885 0 
L 0 0 
z
" style="fill: #ffffff"/>
  </g>
  <g id="axes_1">
   <g id="patch_2">
    <path d="M 58.074219 358.33875 
L 727.674219 358.33875 
L 727.674219 25.69875 
L 58.074219 25.69875 
z
" style="fill: #ffffff"/>
   </g>
   <g id="patch_3">
    <path d="M 189.917108 358.33875 
L 200.063523 358.33875 
L 200.063523 357.390247 
L 189.917108 357.390247 
z
" clip-path="url(#pc38d15e7be)" style="fill: #0000ff"/>
   </g>
   <g id="patch_4">
    <path d="M 200.063523 358.33875 
L 210.209937 358.33875 
L 210.209937 357.864499 
L 200.063523 357.864499 
z
" clip-path="url(#pc38d15e7be)" style="fill: #0000ff"/>
   </g>
   <g id="patch_5">
    <path d="M 210.209937 358.33875 
L 220.356352 358.33875 
L 220.356352 357.390247 
L 210.209937 357.390247 
z
" clip-path="url(#pc38d15e7be)" style="fill: #0000ff"/>
   </g>
   <g id="patch_6">
    <path d="M 220.356352 358.33875 
L 230.502767 358.33875 
L 230.502767 357.390247 
L 220.356352 357.390247 
z
" clip-path="url(#pc38d15e7be)" style="fill: #0000ff"/>
   </g>
   <g id="patch_7">
    <path d="M 230.502767 358.33875 
L 240.649182 358.33875 
L 240.649182 356.915996 
L 230.502767 356.915996 
z
" clip-path="url(#pc38d15e7be)" style="fill: #0000ff"/>
   </g>
   <g id="patch_8">
    <path d="M 240.649182 358.33875 
L 250.795597 358.33875 
L 250.795597 355.967493 
L 240.649182 355.967493 
z
" clip-path="url(#pc38d15e7be)" style="fill: #0000ff"/>
   </g>
   <g id="patch_9">
    <path d="M 250.795597 358.33875 
L 260.942012 358.33875 
L 260.942012 350.750726 
L 250.795597 350.750726 
z
" clip-path="url(#pc38d15e7be)" style="fill: #0000ff"/>
   </g>
   <g id="patch_10">
    <path d="M 260.942012 358.33875 
L 271.088427 358.33875 
L 271.088427 351.224978 
L 260.942012 351.224978 
z
" clip-path="url(#pc38d15e7be)" style="fill: #0000ff"/>
   </g>
   <g id="patch_11">
    <path d="M 271.088427 358.33875 
L 281.234842 358.33875 
L 281.234842 345.53396 
L 271.088427 345.53396 
z
" clip-path="url(#pc38d15e7be)" style="fill: #0000ff"/>
   </g>
   <g id="patch_12">
    <path d="M 281.234842 358.33875 
L 291.381257 358.33875 
L 291.381257 331.306415 
L 281.234842 331.306415 
z
" clip-path="url(#pc38d15e7be)" style="fill: #0000ff"/>
   </g>
   <g id="patch_13">
    <path d="M 291.381257 358.33875 
L 301.527672 358.33875 
L 301.527672 335.574678 
L 291.381257 335.574678 
z
" clip-path="url(#pc38d15e7be)" style="fill: #0000ff"/>
   </g>
   <g id="patch_14">
    <path d="M 301.527672 358.33875 
L 311.674087 358.33875 
L 311.674087 320.872882 
L 301.527672 320.872882 
z
" clip-path="url(#pc38d15e7be)" style="fill: #0000ff"/>
   </g>
   <g id="patch_15">
    <path d="M 311.674087 358.33875 
L 321.820502 358.33875 
L 321.820502 297.634558 
L 311.674087 297.634558 
z
" clip-path="url(#pc38d15e7be)" style="fill: #0000ff"/>
   </g>
   <g id="patch_16">
    <path d="M 321.820502 358.33875 
L 331.966917 358.33875 
L 331.966917 284.829768 
L 321.820502 284.829768 
z
" clip-path="url(#pc38d15e7be)" style="fill: #0000ff"/>
   </g>
   <g id="patch_17">
    <path d="M 331.966917 358.33875 
L 342.113332 358.33875 
L 342.113332 262.065696 
L 331.966917 262.065696 
z
" clip-path="url(#pc38d15e7be)" style="fill: #0000ff"/>
   </g>
   <g id="patch_18">
    <path d="M 342.113332 358.33875 
L 352.259747 358.33875 
L 352.259747 236.456115 
L 342.113332 236.456115 
z
" clip-path="url(#pc38d15e7be)" style="fill: #0000ff"/>
   </g>
   <g id="patch_19">
    <path d="M 352.259747 358.33875 
L 362.406162 358.33875 
L 362.406162 195.196235 
L 352.259747 195.196235 
z
" clip-path="url(#pc38d15e7be)" style="fill: #0000ff"/>
   </g>
   <g id="patch_20">
    <path d="M 362.406162 358.33875 
L 372.552577 358.33875 
L 372.552577 162.472882 
L 362.406162 162.472882 
z
" clip-path="url(#pc38d15e7be)" style="fill: #0000ff"/>
   </g>
   <g id="patch_21">
    <path d="M 372.552577 358.33875 
L 382.698992 358.33875 
L 382.698992 161.050127 
L 372.552577 161.050127 
z
" clip-path="url(#pc38d15e7be)" style="fill: #0000ff"/>
   </g>
   <g id="patch_22">
    <path d="M 382.698992 358.33875 
L 392.845407 358.33875 
L 392.845407 123.584259 
L 382.698992 123.584259 
z
" clip-path="url(#pc38d15e7be)" style="fill: #0000ff"/>
   </g>
   <g id="patch_23">
    <path d="M 392.845407 358.33875 
L 402.991822 358.33875 
L 402.991822 71.416594 
L 392.845407 71.416594 
z
" clip-path="url(#pc38d15e7be)" style="fill: #0000ff"/>
   </g>
   <g id="patch_24">
    <path d="M 402.991822 358.33875 
L 413.138237 358.33875 
L 413.138237 88.9639 
L 402.991822 88.9639 
z
" clip-path="url(#pc38d15e7be)" style="fill: #0000ff"/>
   </g>
   <g id="patch_25">
    <path d="M 413.138237 358.33875 
L 423.284651 358.33875 
L 423.284651 61.457313 
L 413.138237 61.457313 
z
" clip-path="url(#pc38d15e7be)" style="fill: #0000ff"/>
   </g>
   <g id="patch_26">
    <path d="M 423.284651 358.33875 
L 433.431066 358.33875 
L 433.431066 69.99384 
L 423.284651 69.99384 
z
" clip-path="url(#pc38d15e7be)" style="fill: #0000ff"/>
   </g>
   <g id="patch_27">
    <path d="M 433.431066 358.33875 
L 443.577481 358.33875 
L 443.577481 41.53875 
L 433.431066 41.53875 
z
" clip-path="url(#pc38d15e7be)" style="fill: #0000ff"/>
   </g>
   <g id="patch_28">
    <path d="M 443.577481 358.33875 
L 453.723896 358.33875 
L 453.723896 53.395037 
L 443.577481 53.395037 
z
" clip-path="url(#pc38d15e7be)" style="fill: #0000ff"/>
   </g>
   <g id="patch_29">
    <path d="M 453.723896 358.33875 
L 463.870311 358.33875 
L 463.870311 71.890846 
L 453.723896 71.890846 
z
" clip-path="url(#pc38d15e7be)" style="fill: #0000ff"/>
   </g>
   <g id="patch_30">
    <path d="M 463.870311 358.33875 
L 474.016726 358.33875 
L 474.016726 97.500427 
L 463.870311 97.500427 
z
" clip-path="url(#pc38d15e7be)" style="fill: #0000ff"/>
   </g>
   <g id="patch_31">
    <path d="M 474.016726 358.33875 
L 484.163141 358.33875 
L 484.163141 124.05851 
L 474.016726 124.05851 
z
" clip-path="url(#pc38d15e7be)" style="fill: #0000ff"/>
   </g>
   <g id="patch_32">
    <path d="M 484.163141 358.33875 
L 494.309556 358.33875 
L 494.309556 137.337552 
L 484.163141 137.337552 
z
" clip-path="url(#pc38d15e7be)" style="fill: #0000ff"/>
   </g>
   <g id="patch_33">
    <path d="M 494.309556 358.33875 
L 504.455971 358.33875 
L 504.455971 177.64893 
L 494.309556 177.64893 
z
" clip-path="url(#pc38d15e7be)" style="fill: #0000ff"/>
   </g>
   <g id="patch_34">
    <path d="M 504.455971 358.33875 
L 514.602386 358.33875 
L 514.602386 190.927972 
L 504.455971 190.927972 
z
" clip-path="url(#pc38d15e7be)" style="fill: #0000ff"/>
   </g>
   <g id="patch_35">
    <path d="M 514.602386 358.33875 
L 524.748801 358.33875 
L 524.748801 215.589049 
L 514.602386 215.589049 
z
" clip-path="url(#pc38d15e7be)" style="fill: #0000ff"/>
   </g>
   <g id="patch_36">
    <path d="M 524.748801 358.33875 
L 534.895216 358.33875 
L 534.895216 245.466894 
L 524.748801 245.466894 
z
" clip-path="url(#pc38d15e7be)" style="fill: #0000ff"/>
   </g>
   <g id="patch_37">
    <path d="M 534.895216 358.33875 
L 545.041631 358.33875 
L 545.041631 278.190247 
L 534.895216 278.190247 
z
" clip-path="url(#pc38d15e7be)" style="fill: #0000ff"/>
   </g>
   <g id="patch_38">
    <path d="M 545.041631 358.33875 
L 555.188046 358.33875 
L 555.188046 283.407013 
L 545.041631 283.407013 
z
" clip-path="url(#pc38d15e7be)" style="fill: #0000ff"/>
   </g>
   <g id="patch_39">
    <path d="M 555.188046 358.33875 
L 565.334461 358.33875 
L 565.334461 300.480067 
L 555.188046 300.480067 
z
" clip-path="url(#pc38d15e7be)" style="fill: #0000ff"/>
   </g>
   <g id="patch_40">
    <path d="M 565.334461 358.33875 
L 575.480876 358.33875 
L 575.480876 317.07887 
L 565.334461 317.07887 
z
" clip-path="url(#pc38d15e7be)" style="fill: #0000ff"/>
   </g>
   <g id="patch_41">
    <path d="M 575.480876 358.33875 
L 585.627291 358.33875 
L 585.627291 336.04893 
L 575.480876 336.04893 
z
" clip-path="url(#pc38d15e7be)" style="fill: #0000ff"/>
   </g>
   <g id="patch_42">
    <path d="M 585.627291 358.33875 
L 595.773706 358.33875 
L 595.773706 336.523181 
L 585.627291 336.523181 
z
" clip-path="url(#pc38d15e7be)" style="fill: #0000ff"/>
   </g>
   <g id="patch_43">
    <path d="M 595.773706 358.33875 
L 605.920121 358.33875 
L 605.920121 342.688451 
L 595.773706 342.688451 
z
" clip-path="url(#pc38d15e7be)" style="fill: #0000ff"/>
   </g>
   <g id="patch_44">
    <path d="M 605.920121 358.33875 
L 616.066536 358.33875 
L 616.066536 351.224978 
L 605.920121 351.224978 
z
" clip-path="url(#pc38d15e7be)" style="fill: #0000ff"/>
   </g>
   <g id="patch_45">
    <path d="M 616.066536 358.33875 
L 626.21295 358.33875 
L 626.21295 349.327972 
L 616.066536 349.327972 
z
" clip-path="url(#pc38d15e7be)" style="fill: #0000ff"/>
   </g>
   <g id="patch_46">
    <path d="M 626.21295 358.33875 
L 636.359365 358.33875 
L 636.359365 354.544738 
L 626.21295 354.544738 
z
" clip-path="url(#pc38d15e7be)" style="fill: #0000ff"/>
   </g>
   <g id="patch_47">
    <path d="M 636.359365 358.33875 
L 646.50578 358.33875 
L 646.50578 356.915996 
L 636.359365 356.915996 
z
" clip-path="url(#pc38d15e7be)" style="fill: #0000ff"/>
   </g>
   <g id="patch_48">
    <path d="M 646.50578 358.33875 
L 656.652195 358.33875 
L 656.652195 354.544738 
L 646.50578 354.544738 
z
" clip-path="url(#pc38d15e7be)" style="fill: #0000ff"/>
   </g>
   <g id="patch_49">
    <path d="M 656.652195 358.33875 
L 666.79861 358.33875 
L 666.79861 357.390247 
L 656.652195 357.390247 
z
" clip-path="url(#pc38d15e7be)" style="fill: #0000ff"/>
   </g>
   <g id="patch_50">
    <path d="M 666.79861 358.33875 
L 676.945025 358.33875 
L 676.945025 355.967493 
L 666.79861 355.967493 
z
" clip-path="url(#pc38d15e7be)" style="fill: #0000ff"/>
   </g>
   <g id="patch_51">
    <path d="M 676.945025 358.33875 
L 687.09144 358.33875 
L 687.09144 356.915996 
L 676.945025 356.915996 
z
" clip-path="url(#pc38d15e7be)" style="fill: #0000ff"/>
   </g>
   <g id="patch_52">
    <path d="M 687.09144 358.33875 
L 697.237855 358.33875 
L 697.237855 357.390247 
L 687.09144 357.390247 
z
" clip-path="url(#pc38d15e7be)" style="fill: #0000ff"/>
   </g>
   <g id="patch_53">
    <path d="M 88.510582 358.33875 
L 98.211165 358.33875 
L 98.211165 357.842702 
L 88.510582 357.842702 
z
" clip-path="url(#pc38d15e7be)" style="fill: #ffa500"/>
   </g>
   <g id="patch_54">
    <path d="M 98.211165 358.33875 
L 107.911748 358.33875 
L 107.911748 358.33875 
L 98.211165 358.33875 
z
" clip-path="url(#pc38d15e7be)" style="fill: #ffa500"/>
   </g>
   <g id="patch_55">
    <path d="M 107.911748 358.33875 
L 117.612331 358.33875 
L 117.612331 357.842702 
L 107.911748 357.842702 
z
" clip-path="url(#pc38d15e7be)" style="fill: #ffa500"/>
   </g>
   <g id="patch_56">
    <path d="M 117.612331 358.33875 
L 127.312914 358.33875 
L 127.312914 357.842702 
L 117.612331 357.842702 
z
" clip-path="url(#pc38d15e7be)" style="fill: #ffa500"/>
   </g>
   <g id="patch_57">
    <path d="M 127.312914 358.33875 
L 137.013496 358.33875 
L 137.013496 356.850607 
L 127.312914 356.850607 
z
" clip-path="url(#pc38d15e7be)" style="fill: #ffa500"/>
   </g>
   <g id="patch_58">
    <path d="M 137.013496 358.33875 
L 146.714079 358.33875 
L 146.714079 355.858511 
L 137.013496 355.858511 
z
" clip-path="url(#pc38d15e7be)" style="fill: #ffa500"/>
   </g>
   <g id="patch_59">
    <path d="M 146.714079 358.33875 
L 156.414662 358.33875 
L 156.414662 355.362463 
L 146.714079 355.362463 
z
" clip-path="url(#pc38d15e7be)" style="fill: #ffa500"/>
   </g>
   <g id="patch_60">
    <path d="M 156.414662 358.33875 
L 166.115245 358.33875 
L 166.115245 352.882225 
L 156.414662 352.882225 
z
" clip-path="url(#pc38d15e7be)" style="fill: #ffa500"/>
   </g>
   <g id="patch_61">
    <path d="M 166.115245 358.33875 
L 175.815827 358.33875 
L 175.815827 348.913842 
L 166.115245 348.913842 
z
" clip-path="url(#pc38d15e7be)" style="fill: #ffa500"/>
   </g>
   <g id="patch_62">
    <path d="M 175.815827 358.33875 
L 185.51641 358.33875 
L 185.51641 344.449412 
L 175.815827 344.449412 
z
" clip-path="url(#pc38d15e7be)" style="fill: #ffa500"/>
   </g>
   <g id="patch_63">
    <path d="M 185.51641 358.33875 
L 195.216993 358.33875 
L 195.216993 338.992887 
L 185.51641 338.992887 
z
" clip-path="url(#pc38d15e7be)" style="fill: #ffa500"/>
   </g>
   <g id="patch_64">
    <path d="M 195.216993 358.33875 
L 204.917576 358.33875 
L 204.917576 336.0166 
L 195.216993 336.0166 
z
" clip-path="url(#pc38d15e7be)" style="fill: #ffa500"/>
   </g>
   <g id="patch_65">
    <path d="M 204.917576 358.33875 
L 214.618159 358.33875 
L 214.618159 333.536361 
L 204.917576 333.536361 
z
" clip-path="url(#pc38d15e7be)" style="fill: #ffa500"/>
   </g>
   <g id="patch_66">
    <path d="M 214.618159 358.33875 
L 224.318741 358.33875 
L 224.318741 317.662833 
L 214.618159 317.662833 
z
" clip-path="url(#pc38d15e7be)" style="fill: #ffa500"/>
   </g>
   <g id="patch_67">
    <path d="M 224.318741 358.33875 
L 234.019324 358.33875 
L 234.019324 313.69445 
L 224.318741 313.69445 
z
" clip-path="url(#pc38d15e7be)" style="fill: #ffa500"/>
   </g>
   <g id="patch_68">
    <path d="M 234.019324 358.33875 
L 243.719907 358.33875 
L 243.719907 289.38811 
L 234.019324 289.38811 
z
" clip-path="url(#pc38d15e7be)" style="fill: #ffa500"/>
   </g>
   <g id="patch_69">
    <path d="M 243.719907 358.33875 
L 253.42049 358.33875 
L 253.42049 280.955298 
L 243.719907 280.955298 
z
" clip-path="url(#pc38d15e7be)" style="fill: #ffa500"/>
   </g>
   <g id="patch_70">
    <path d="M 253.42049 358.33875 
L 263.121072 358.33875 
L 263.121072 240.775428 
L 253.42049 240.775428 
z
" clip-path="url(#pc38d15e7be)" style="fill: #ffa500"/>
   </g>
   <g id="patch_71">
    <path d="M 263.121072 358.33875 
L 272.821655 358.33875 
L 272.821655 237.799141 
L 263.121072 237.799141 
z
" clip-path="url(#pc38d15e7be)" style="fill: #ffa500"/>
   </g>
   <g id="patch_72">
    <path d="M 272.821655 358.33875 
L 282.522238 358.33875 
L 282.522238 217.461183 
L 272.821655 217.461183 
z
" clip-path="url(#pc38d15e7be)" style="fill: #ffa500"/>
   </g>
   <g id="patch_73">
    <path d="M 282.522238 358.33875 
L 292.222821 358.33875 
L 292.222821 175.297122 
L 282.522238 175.297122 
z
" clip-path="url(#pc38d15e7be)" style="fill: #ffa500"/>
   </g>
   <g id="patch_74">
    <path d="M 292.222821 358.33875 
L 301.923404 358.33875 
L 301.923404 148.014495 
L 292.222821 148.014495 
z
" clip-path="url(#pc38d15e7be)" style="fill: #ffa500"/>
   </g>
   <g id="patch_75">
    <path d="M 301.923404 358.33875 
L 311.623986 358.33875 
L 311.623986 116.763485 
L 301.923404 116.763485 
z
" clip-path="url(#pc38d15e7be)" style="fill: #ffa500"/>
   </g>
   <g id="patch_76">
    <path d="M 311.623986 358.33875 
L 321.324569 358.33875 
L 321.324569 114.283246 
L 311.623986 114.283246 
z
" clip-path="url(#pc38d15e7be)" style="fill: #ffa500"/>
   </g>
   <g id="patch_77">
    <path d="M 321.324569 358.33875 
L 331.025152 358.33875 
L 331.025152 90.969001 
L 321.324569 90.969001 
z
" clip-path="url(#pc38d15e7be)" style="fill: #ffa500"/>
   </g>
   <g id="patch_78">
    <path d="M 331.025152 358.33875 
L 340.725735 358.33875 
L 340.725735 70.134994 
L 331.025152 70.134994 
z
" clip-path="url(#pc38d15e7be)" style="fill: #ffa500"/>
   </g>
   <g id="patch_79">
    <path d="M 340.725735 358.33875 
L 350.426318 358.33875 
L 350.426318 43.348415 
L 340.725735 43.348415 
z
" clip-path="url(#pc38d15e7be)" style="fill: #ffa500"/>
   </g>
   <g id="patch_80">
    <path d="M 350.426318 358.33875 
L 360.1269 358.33875 
L 360.1269 53.26937 
L 350.426318 53.26937 
z
" clip-path="url(#pc38d15e7be)" style="fill: #ffa500"/>
   </g>
   <g id="patch_81">
    <path d="M 360.1269 358.33875 
L 369.827483 358.33875 
L 369.827483 49.300988 
L 360.1269 49.300988 
z
" clip-path="url(#pc38d15e7be)" style="fill: #ffa500"/>
   </g>
   <g id="patch_82">
    <path d="M 369.827483 358.33875 
L 379.528066 358.33875 
L 379.528066 74.599424 
L 369.827483 74.599424 
z
" clip-path="url(#pc38d15e7be)" style="fill: #ffa500"/>
   </g>
   <g id="patch_83">
    <path d="M 379.528066 358.33875 
L 389.228649 358.33875 
L 389.228649 60.710087 
L 379.528066 60.710087 
z
" clip-path="url(#pc38d15e7be)" style="fill: #ffa500"/>
   </g>
   <g id="patch_84">
    <path d="M 389.228649 358.33875 
L 398.929231 358.33875 
L 398.929231 106.842529 
L 389.228649 106.842529 
z
" clip-path="url(#pc38d15e7be)" style="fill: #ffa500"/>
   </g>
   <g id="patch_85">
    <path d="M 398.929231 358.33875 
L 408.629814 358.33875 
L 408.629814 121.723963 
L 398.929231 121.723963 
z
" clip-path="url(#pc38d15e7be)" style="fill: #ffa500"/>
   </g>
   <g id="patch_86">
    <path d="M 408.629814 358.33875 
L 418.330397 358.33875 
L 418.330397 162.895928 
L 408.629814 162.895928 
z
" clip-path="url(#pc38d15e7be)" style="fill: #ffa500"/>
   </g>
   <g id="patch_87">
    <path d="M 418.330397 358.33875 
L 428.03098 358.33875 
L 428.03098 164.880119 
L 418.330397 164.880119 
z
" clip-path="url(#pc38d15e7be)" style="fill: #ffa500"/>
   </g>
   <g id="patch_88">
    <path d="M 428.03098 358.33875 
L 437.731563 358.33875 
L 437.731563 218.453278 
L 428.03098 218.453278 
z
" clip-path="url(#pc38d15e7be)" style="fill: #ffa500"/>
   </g>
   <g id="patch_89">
    <path d="M 437.731563 358.33875 
L 447.432145 358.33875 
L 447.432145 231.35052 
L 437.731563 231.35052 
z
" clip-path="url(#pc38d15e7be)" style="fill: #ffa500"/>
   </g>
   <g id="patch_90">
    <path d="M 447.432145 358.33875 
L 457.132728 358.33875 
L 457.132728 247.224049 
L 447.432145 247.224049 
z
" clip-path="url(#pc38d15e7be)" style="fill: #ffa500"/>
   </g>
   <g id="patch_91">
    <path d="M 457.132728 358.33875 
L 466.833311 358.33875 
L 466.833311 279.467154 
L 457.132728 279.467154 
z
" clip-path="url(#pc38d15e7be)" style="fill: #ffa500"/>
   </g>
   <g id="patch_92">
    <path d="M 466.833311 358.33875 
L 476.533894 358.33875 
L 476.533894 300.797208 
L 466.833311 300.797208 
z
" clip-path="url(#pc38d15e7be)" style="fill: #ffa500"/>
   </g>
   <g id="patch_93">
    <path d="M 476.533894 358.33875 
L 486.234476 358.33875 
L 486.234476 311.710259 
L 476.533894 311.710259 
z
" clip-path="url(#pc38d15e7be)" style="fill: #ffa500"/>
   </g>
   <g id="patch_94">
    <path d="M 486.234476 358.33875 
L 495.935059 358.33875 
L 495.935059 321.135167 
L 486.234476 321.135167 
z
" clip-path="url(#pc38d15e7be)" style="fill: #ffa500"/>
   </g>
   <g id="patch_95">
    <path d="M 495.935059 358.33875 
L 505.635642 358.33875 
L 505.635642 331.55217 
L 495.935059 331.55217 
z
" clip-path="url(#pc38d15e7be)" style="fill: #ffa500"/>
   </g>
   <g id="patch_96">
    <path d="M 505.635642 358.33875 
L 515.336225 358.33875 
L 515.336225 344.94546 
L 505.635642 344.94546 
z
" clip-path="url(#pc38d15e7be)" style="fill: #ffa500"/>
   </g>
   <g id="patch_97">
    <path d="M 515.336225 358.33875 
L 525.036808 358.33875 
L 525.036808 346.929651 
L 515.336225 346.929651 
z
" clip-path="url(#pc38d15e7be)" style="fill: #ffa500"/>
   </g>
   <g id="patch_98">
    <path d="M 525.036808 358.33875 
L 534.73739 358.33875 
L 534.73739 344.94546 
L 525.036808 344.94546 
z
" clip-path="url(#pc38d15e7be)" style="fill: #ffa500"/>
   </g>
   <g id="patch_99">
    <path d="M 534.73739 358.33875 
L 544.437973 358.33875 
L 544.437973 353.87432 
L 534.73739 353.87432 
z
" clip-path="url(#pc38d15e7be)" style="fill: #ffa500"/>
   </g>
   <g id="patch_100">
    <path d="M 544.437973 358.33875 
L 554.138556 358.33875 
L 554.138556 356.354559 
L 544.437973 356.354559 
z
" clip-path="url(#pc38d15e7be)" style="fill: #ffa500"/>
   </g>
   <g id="patch_101">
    <path d="M 554.138556 358.33875 
L 563.839139 358.33875 
L 563.839139 356.850607 
L 554.138556 356.850607 
z
" clip-path="url(#pc38d15e7be)" style="fill: #ffa500"/>
   </g>
   <g id="patch_102">
    <path d="M 563.839139 358.33875 
L 573.539722 358.33875 
L 573.539722 357.346654 
L 563.839139 357.346654 
z
" clip-path="url(#pc38d15e7be)" style="fill: #ffa500"/>
   </g>
   <g id="matplotlib.axis_1">
    <g id="xtick_1">
     <g id="line2d_1">
      <defs>
       <path id="mabc9051b93" d="M 0 0 
L 0 3.5 
" style="stroke: #000000; stroke-width: 0.8"/>
      </defs>
      <g>
       <use xlink:href="#mabc9051b93" x="67.62672" y="358.33875" style="stroke: #000000; stroke-width: 0.8"/>
      </g>
     </g>
     <g id="text_1">
      <!-- −10 -->
      <g transform="translate(55.897423 375.754375) scale(0.15 -0.15)">
       <defs>
        <path id="TimesNewRomanPSMT-2212" d="M 3484 2000 
L 116 2000 
L 116 2256 
L 3484 2256 
L 3484 2000 
z
" transform="scale(0.015625)"/>
        <path id="TimesNewRomanPSMT-31" d="M 750 3822 
L 1781 4325 
L 1884 4325 
L 1884 747 
Q 1884 391 1914 303 
Q 1944 216 2037 169 
Q 2131 122 2419 116 
L 2419 0 
L 825 0 
L 825 116 
Q 1125 122 1212 167 
Q 1300 213 1334 289 
Q 1369 366 1369 747 
L 1369 3034 
Q 1369 3497 1338 3628 
Q 1316 3728 1258 3775 
Q 1200 3822 1119 3822 
Q 1003 3822 797 3725 
L 750 3822 
z
" transform="scale(0.015625)"/>
        <path id="TimesNewRomanPSMT-30" d="M 231 2094 
Q 231 2819 450 3342 
Q 669 3866 1031 4122 
Q 1313 4325 1613 4325 
Q 2100 4325 2488 3828 
Q 2972 3213 2972 2159 
Q 2972 1422 2759 906 
Q 2547 391 2217 158 
Q 1888 -75 1581 -75 
Q 975 -75 572 641 
Q 231 1244 231 2094 
z
M 844 2016 
Q 844 1141 1059 588 
Q 1238 122 1591 122 
Q 1759 122 1940 273 
Q 2122 425 2216 781 
Q 2359 1319 2359 2297 
Q 2359 3022 2209 3506 
Q 2097 3866 1919 4016 
Q 1791 4119 1609 4119 
Q 1397 4119 1231 3928 
Q 1006 3669 925 3112 
Q 844 2556 844 2016 
z
" transform="scale(0.015625)"/>
       </defs>
       <use xlink:href="#TimesNewRomanPSMT-2212"/>
       <use xlink:href="#TimesNewRomanPSMT-31" x="56.396484"/>
       <use xlink:href="#TimesNewRomanPSMT-30" x="106.396484"/>
      </g>
     </g>
    </g>
    <g id="xtick_2">
     <g id="line2d_2">
      <g>
       <use xlink:href="#mabc9051b93" x="161.489315" y="358.33875" style="stroke: #000000; stroke-width: 0.8"/>
      </g>
     </g>
     <g id="text_2">
      <!-- 0 -->
      <g transform="translate(157.739315 375.754375) scale(0.15 -0.15)">
       <use xlink:href="#TimesNewRomanPSMT-30"/>
      </g>
     </g>
    </g>
    <g id="xtick_3">
     <g id="line2d_3">
      <g>
       <use xlink:href="#mabc9051b93" x="255.35191" y="358.33875" style="stroke: #000000; stroke-width: 0.8"/>
      </g>
     </g>
     <g id="text_3">
      <!-- 10 -->
      <g transform="translate(247.85191 375.754375) scale(0.15 -0.15)">
       <use xlink:href="#TimesNewRomanPSMT-31"/>
       <use xlink:href="#TimesNewRomanPSMT-30" x="50"/>
      </g>
     </g>
    </g>
    <g id="xtick_4">
     <g id="line2d_4">
      <g>
       <use xlink:href="#mabc9051b93" x="349.214505" y="358.33875" style="stroke: #000000; stroke-width: 0.8"/>
      </g>
     </g>
     <g id="text_4">
      <!-- 20 -->
      <g transform="translate(341.714505 375.754375) scale(0.15 -0.15)">
       <defs>
        <path id="TimesNewRomanPSMT-32" d="M 2934 816 
L 2638 0 
L 138 0 
L 138 116 
Q 1241 1122 1691 1759 
Q 2141 2397 2141 2925 
Q 2141 3328 1894 3587 
Q 1647 3847 1303 3847 
Q 991 3847 742 3664 
Q 494 3481 375 3128 
L 259 3128 
Q 338 3706 661 4015 
Q 984 4325 1469 4325 
Q 1984 4325 2329 3994 
Q 2675 3663 2675 3213 
Q 2675 2891 2525 2569 
Q 2294 2063 1775 1497 
Q 997 647 803 472 
L 1909 472 
Q 2247 472 2383 497 
Q 2519 522 2628 598 
Q 2738 675 2819 816 
L 2934 816 
z
" transform="scale(0.015625)"/>
       </defs>
       <use xlink:href="#TimesNewRomanPSMT-32"/>
       <use xlink:href="#TimesNewRomanPSMT-30" x="50"/>
      </g>
     </g>
    </g>
    <g id="xtick_5">
     <g id="line2d_5">
      <g>
       <use xlink:href="#mabc9051b93" x="443.0771" y="358.33875" style="stroke: #000000; stroke-width: 0.8"/>
      </g>
     </g>
     <g id="text_5">
      <!-- 30 -->
      <g transform="translate(435.5771 375.754375) scale(0.15 -0.15)">
       <defs>
        <path id="TimesNewRomanPSMT-33" d="M 325 3431 
Q 506 3859 782 4092 
Q 1059 4325 1472 4325 
Q 1981 4325 2253 3994 
Q 2459 3747 2459 3466 
Q 2459 3003 1878 2509 
Q 2269 2356 2469 2072 
Q 2669 1788 2669 1403 
Q 2669 853 2319 450 
Q 1863 -75 997 -75 
Q 569 -75 414 31 
Q 259 138 259 259 
Q 259 350 332 419 
Q 406 488 509 488 
Q 588 488 669 463 
Q 722 447 909 348 
Q 1097 250 1169 231 
Q 1284 197 1416 197 
Q 1734 197 1970 444 
Q 2206 691 2206 1028 
Q 2206 1275 2097 1509 
Q 2016 1684 1919 1775 
Q 1784 1900 1550 2001 
Q 1316 2103 1072 2103 
L 972 2103 
L 972 2197 
Q 1219 2228 1467 2375 
Q 1716 2522 1828 2728 
Q 1941 2934 1941 3181 
Q 1941 3503 1739 3701 
Q 1538 3900 1238 3900 
Q 753 3900 428 3381 
L 325 3431 
z
" transform="scale(0.015625)"/>
       </defs>
       <use xlink:href="#TimesNewRomanPSMT-33"/>
       <use xlink:href="#TimesNewRomanPSMT-30" x="50"/>
      </g>
     </g>
    </g>
    <g id="xtick_6">
     <g id="line2d_6">
      <g>
       <use xlink:href="#mabc9051b93" x="536.939695" y="358.33875" style="stroke: #000000; stroke-width: 0.8"/>
      </g>
     </g>
     <g id="text_6">
      <!-- 40 -->
      <g transform="translate(529.439695 375.754375) scale(0.15 -0.15)">
       <defs>
        <path id="TimesNewRomanPSMT-34" d="M 2978 1563 
L 2978 1119 
L 2409 1119 
L 2409 0 
L 1894 0 
L 1894 1119 
L 100 1119 
L 100 1519 
L 2066 4325 
L 2409 4325 
L 2409 1563 
L 2978 1563 
z
M 1894 1563 
L 1894 3666 
L 406 1563 
L 1894 1563 
z
" transform="scale(0.015625)"/>
       </defs>
       <use xlink:href="#TimesNewRomanPSMT-34"/>
       <use xlink:href="#TimesNewRomanPSMT-30" x="50"/>
      </g>
     </g>
    </g>
    <g id="xtick_7">
     <g id="line2d_7">
      <g>
       <use xlink:href="#mabc9051b93" x="630.80229" y="358.33875" style="stroke: #000000; stroke-width: 0.8"/>
      </g>
     </g>
     <g id="text_7">
      <!-- 50 -->
      <g transform="translate(623.30229 375.754375) scale(0.15 -0.15)">
       <defs>
        <path id="TimesNewRomanPSMT-35" d="M 2778 4238 
L 2534 3706 
L 1259 3706 
L 981 3138 
Q 1809 3016 2294 2522 
Q 2709 2097 2709 1522 
Q 2709 1188 2573 903 
Q 2438 619 2231 419 
Q 2025 219 1772 97 
Q 1413 -75 1034 -75 
Q 653 -75 479 54 
Q 306 184 306 341 
Q 306 428 378 495 
Q 450 563 559 563 
Q 641 563 702 538 
Q 763 513 909 409 
Q 1144 247 1384 247 
Q 1750 247 2026 523 
Q 2303 800 2303 1197 
Q 2303 1581 2056 1914 
Q 1809 2247 1375 2428 
Q 1034 2569 447 2591 
L 1259 4238 
L 2778 4238 
z
" transform="scale(0.015625)"/>
       </defs>
       <use xlink:href="#TimesNewRomanPSMT-35"/>
       <use xlink:href="#TimesNewRomanPSMT-30" x="50"/>
      </g>
     </g>
    </g>
    <g id="xtick_8">
     <g id="line2d_8">
      <g>
       <use xlink:href="#mabc9051b93" x="724.664885" y="358.33875" style="stroke: #000000; stroke-width: 0.8"/>
      </g>
     </g>
     <g id="text_8">
      <!-- 60 -->
      <g transform="translate(717.164885 375.754375) scale(0.15 -0.15)">
       <defs>
        <path id="TimesNewRomanPSMT-36" d="M 2869 4325 
L 2869 4209 
Q 2456 4169 2195 4045 
Q 1934 3922 1679 3669 
Q 1425 3416 1258 3105 
Q 1091 2794 978 2366 
Q 1428 2675 1881 2675 
Q 2316 2675 2634 2325 
Q 2953 1975 2953 1425 
Q 2953 894 2631 456 
Q 2244 -75 1606 -75 
Q 1172 -75 869 213 
Q 275 772 275 1663 
Q 275 2231 503 2743 
Q 731 3256 1154 3653 
Q 1578 4050 1965 4187 
Q 2353 4325 2688 4325 
L 2869 4325 
z
M 925 2138 
Q 869 1716 869 1456 
Q 869 1156 980 804 
Q 1091 453 1309 247 
Q 1469 100 1697 100 
Q 1969 100 2183 356 
Q 2397 613 2397 1088 
Q 2397 1622 2184 2012 
Q 1972 2403 1581 2403 
Q 1463 2403 1327 2353 
Q 1191 2303 925 2138 
z
" transform="scale(0.015625)"/>
       </defs>
       <use xlink:href="#TimesNewRomanPSMT-36"/>
       <use xlink:href="#TimesNewRomanPSMT-30" x="50"/>
      </g>
     </g>
    </g>
    <g id="text_9">
     <!-- s1, s2 -->
     <g transform="translate(375.785937 393.378594) scale(0.15 -0.15)">
      <defs>
       <path id="TimesNewRomanPSMT-73" d="M 2050 2947 
L 2050 1972 
L 1947 1972 
Q 1828 2431 1642 2597 
Q 1456 2763 1169 2763 
Q 950 2763 815 2647 
Q 681 2531 681 2391 
Q 681 2216 781 2091 
Q 878 1963 1175 1819 
L 1631 1597 
Q 2266 1288 2266 781 
Q 2266 391 1970 151 
Q 1675 -88 1309 -88 
Q 1047 -88 709 6 
Q 606 38 541 38 
Q 469 38 428 -44 
L 325 -44 
L 325 978 
L 428 978 
Q 516 541 762 319 
Q 1009 97 1316 97 
Q 1531 97 1667 223 
Q 1803 350 1803 528 
Q 1803 744 1651 891 
Q 1500 1038 1047 1263 
Q 594 1488 453 1669 
Q 313 1847 313 2119 
Q 313 2472 555 2709 
Q 797 2947 1181 2947 
Q 1350 2947 1591 2875 
Q 1750 2828 1803 2828 
Q 1853 2828 1881 2850 
Q 1909 2872 1947 2947 
L 2050 2947 
z
" transform="scale(0.015625)"/>
       <path id="TimesNewRomanPSMT-2c" d="M 344 -1066 
L 344 -928 
Q 666 -822 842 -598 
Q 1019 -375 1019 -125 
Q 1019 -66 991 -25 
Q 969 3 947 3 
Q 913 3 797 -59 
Q 741 -88 678 -88 
Q 525 -88 434 3 
Q 344 94 344 253 
Q 344 406 461 515 
Q 578 625 747 625 
Q 953 625 1114 445 
Q 1275 266 1275 -31 
Q 1275 -353 1051 -629 
Q 828 -906 344 -1066 
z
" transform="scale(0.015625)"/>
       <path id="TimesNewRomanPSMT-20" transform="scale(0.015625)"/>
      </defs>
      <use xlink:href="#TimesNewRomanPSMT-73"/>
      <use xlink:href="#TimesNewRomanPSMT-31" x="38.916016"/>
      <use xlink:href="#TimesNewRomanPSMT-2c" x="88.916016"/>
      <use xlink:href="#TimesNewRomanPSMT-20" x="113.916016"/>
      <use xlink:href="#TimesNewRomanPSMT-73" x="138.916016"/>
      <use xlink:href="#TimesNewRomanPSMT-32" x="177.832031"/>
     </g>
    </g>
   </g>
   <g id="matplotlib.axis_2">
    <g id="ytick_1">
     <g id="line2d_9">
      <defs>
       <path id="m6316d841b6" d="M 0 0 
L -3.5 0 
" style="stroke: #000000; stroke-width: 0.8"/>
      </defs>
      <g>
       <use xlink:href="#m6316d841b6" x="58.074219" y="358.33875" style="stroke: #000000; stroke-width: 0.8"/>
      </g>
     </g>
     <g id="text_10">
      <!-- 0.00 -->
      <g transform="translate(24.824219 363.546562) scale(0.15 -0.15)">
       <defs>
        <path id="TimesNewRomanPSMT-2e" d="M 800 606 
Q 947 606 1047 504 
Q 1147 403 1147 259 
Q 1147 116 1045 14 
Q 944 -88 800 -88 
Q 656 -88 554 14 
Q 453 116 453 259 
Q 453 406 554 506 
Q 656 606 800 606 
z
" transform="scale(0.015625)"/>
       </defs>
       <use xlink:href="#TimesNewRomanPSMT-30"/>
       <use xlink:href="#TimesNewRomanPSMT-2e" x="50"/>
       <use xlink:href="#TimesNewRomanPSMT-30" x="75"/>
       <use xlink:href="#TimesNewRomanPSMT-30" x="125"/>
      </g>
     </g>
    </g>
    <g id="ytick_2">
     <g id="line2d_10">
      <g>
       <use xlink:href="#m6316d841b6" x="58.074219" y="304.509532" style="stroke: #000000; stroke-width: 0.8"/>
      </g>
     </g>
     <g id="text_11">
      <!-- 0.01 -->
      <g transform="translate(24.824219 309.717344) scale(0.15 -0.15)">
       <use xlink:href="#TimesNewRomanPSMT-30"/>
       <use xlink:href="#TimesNewRomanPSMT-2e" x="50"/>
       <use xlink:href="#TimesNewRomanPSMT-30" x="75"/>
       <use xlink:href="#TimesNewRomanPSMT-31" x="125"/>
      </g>
     </g>
    </g>
    <g id="ytick_3">
     <g id="line2d_11">
      <g>
       <use xlink:href="#m6316d841b6" x="58.074219" y="250.680314" style="stroke: #000000; stroke-width: 0.8"/>
      </g>
     </g>
     <g id="text_12">
      <!-- 0.02 -->
      <g transform="translate(24.824219 255.888126) scale(0.15 -0.15)">
       <use xlink:href="#TimesNewRomanPSMT-30"/>
       <use xlink:href="#TimesNewRomanPSMT-2e" x="50"/>
       <use xlink:href="#TimesNewRomanPSMT-30" x="75"/>
       <use xlink:href="#TimesNewRomanPSMT-32" x="125"/>
      </g>
     </g>
    </g>
    <g id="ytick_4">
     <g id="line2d_12">
      <g>
       <use xlink:href="#m6316d841b6" x="58.074219" y="196.851096" style="stroke: #000000; stroke-width: 0.8"/>
      </g>
     </g>
     <g id="text_13">
      <!-- 0.03 -->
      <g transform="translate(24.824219 202.058908) scale(0.15 -0.15)">
       <use xlink:href="#TimesNewRomanPSMT-30"/>
       <use xlink:href="#TimesNewRomanPSMT-2e" x="50"/>
       <use xlink:href="#TimesNewRomanPSMT-30" x="75"/>
       <use xlink:href="#TimesNewRomanPSMT-33" x="125"/>
      </g>
     </g>
    </g>
    <g id="ytick_5">
     <g id="line2d_13">
      <g>
       <use xlink:href="#m6316d841b6" x="58.074219" y="143.021877" style="stroke: #000000; stroke-width: 0.8"/>
      </g>
     </g>
     <g id="text_14">
      <!-- 0.04 -->
      <g transform="translate(24.824219 148.22969) scale(0.15 -0.15)">
       <use xlink:href="#TimesNewRomanPSMT-30"/>
       <use xlink:href="#TimesNewRomanPSMT-2e" x="50"/>
       <use xlink:href="#TimesNewRomanPSMT-30" x="75"/>
       <use xlink:href="#TimesNewRomanPSMT-34" x="125"/>
      </g>
     </g>
    </g>
    <g id="ytick_6">
     <g id="line2d_14">
      <g>
       <use xlink:href="#m6316d841b6" x="58.074219" y="89.192659" style="stroke: #000000; stroke-width: 0.8"/>
      </g>
     </g>
     <g id="text_15">
      <!-- 0.05 -->
      <g transform="translate(24.824219 94.400472) scale(0.15 -0.15)">
       <use xlink:href="#TimesNewRomanPSMT-30"/>
       <use xlink:href="#TimesNewRomanPSMT-2e" x="50"/>
       <use xlink:href="#TimesNewRomanPSMT-30" x="75"/>
       <use xlink:href="#TimesNewRomanPSMT-35" x="125"/>
      </g>
     </g>
    </g>
    <g id="ytick_7">
     <g id="line2d_15">
      <g>
       <use xlink:href="#m6316d841b6" x="58.074219" y="35.363441" style="stroke: #000000; stroke-width: 0.8"/>
      </g>
     </g>
     <g id="text_16">
      <!-- 0.06 -->
      <g transform="translate(24.824219 40.571254) scale(0.15 -0.15)">
       <use xlink:href="#TimesNewRomanPSMT-30"/>
       <use xlink:href="#TimesNewRomanPSMT-2e" x="50"/>
       <use xlink:href="#TimesNewRomanPSMT-30" x="75"/>
       <use xlink:href="#TimesNewRomanPSMT-36" x="125"/>
      </g>
     </g>
    </g>
    <g id="text_17">
     <!-- Frequency -->
     <g transform="translate(17.5875 223.674609) rotate(-90) scale(0.15 -0.15)">
      <defs>
       <path id="TimesNewRomanPSMT-46" d="M 1309 4006 
L 1309 2341 
L 2081 2341 
Q 2347 2341 2470 2458 
Q 2594 2575 2634 2922 
L 2750 2922 
L 2750 1488 
L 2634 1488 
Q 2631 1734 2570 1850 
Q 2509 1966 2401 2023 
Q 2294 2081 2081 2081 
L 1309 2081 
L 1309 750 
Q 1309 428 1350 325 
Q 1381 247 1481 191 
Q 1619 116 1769 116 
L 1922 116 
L 1922 0 
L 103 0 
L 103 116 
L 253 116 
Q 516 116 634 269 
Q 709 369 709 750 
L 709 3488 
Q 709 3809 669 3913 
Q 638 3991 541 4047 
Q 406 4122 253 4122 
L 103 4122 
L 103 4238 
L 3256 4238 
L 3297 3306 
L 3188 3306 
Q 3106 3603 2998 3742 
Q 2891 3881 2733 3943 
Q 2575 4006 2244 4006 
L 1309 4006 
z
" transform="scale(0.015625)"/>
       <path id="TimesNewRomanPSMT-72" d="M 1038 2947 
L 1038 2303 
Q 1397 2947 1775 2947 
Q 1947 2947 2059 2842 
Q 2172 2738 2172 2600 
Q 2172 2478 2090 2393 
Q 2009 2309 1897 2309 
Q 1788 2309 1652 2417 
Q 1516 2525 1450 2525 
Q 1394 2525 1328 2463 
Q 1188 2334 1038 2041 
L 1038 669 
Q 1038 431 1097 309 
Q 1138 225 1241 169 
Q 1344 113 1538 113 
L 1538 0 
L 72 0 
L 72 113 
Q 291 113 397 181 
Q 475 231 506 341 
Q 522 394 522 644 
L 522 1753 
Q 522 2253 501 2348 
Q 481 2444 426 2487 
Q 372 2531 291 2531 
Q 194 2531 72 2484 
L 41 2597 
L 906 2947 
L 1038 2947 
z
" transform="scale(0.015625)"/>
       <path id="TimesNewRomanPSMT-65" d="M 681 1784 
Q 678 1147 991 784 
Q 1303 422 1725 422 
Q 2006 422 2214 576 
Q 2422 731 2563 1106 
L 2659 1044 
Q 2594 616 2278 264 
Q 1963 -88 1488 -88 
Q 972 -88 605 314 
Q 238 716 238 1394 
Q 238 2128 614 2539 
Q 991 2950 1559 2950 
Q 2041 2950 2350 2633 
Q 2659 2316 2659 1784 
L 681 1784 
z
M 681 1966 
L 2006 1966 
Q 1991 2241 1941 2353 
Q 1863 2528 1708 2628 
Q 1553 2728 1384 2728 
Q 1125 2728 920 2526 
Q 716 2325 681 1966 
z
" transform="scale(0.015625)"/>
       <path id="TimesNewRomanPSMT-71" d="M 2734 2947 
L 2734 -734 
Q 2734 -1009 2771 -1087 
Q 2809 -1166 2889 -1209 
Q 2969 -1253 3200 -1253 
L 3200 -1369 
L 1756 -1369 
L 1756 -1253 
L 1816 -1253 
Q 1991 -1253 2081 -1203 
Q 2144 -1169 2181 -1080 
Q 2219 -991 2219 -734 
L 2219 497 
Q 1934 159 1721 35 
Q 1509 -88 1281 -88 
Q 866 -88 539 290 
Q 213 669 213 1303 
Q 213 2031 644 2489 
Q 1075 2947 1684 2947 
Q 1863 2947 2013 2897 
Q 2163 2847 2281 2747 
Q 2463 2834 2628 2947 
L 2734 2947 
z
M 2219 694 
L 2219 2038 
Q 2219 2272 2158 2406 
Q 2097 2541 1940 2634 
Q 1784 2728 1588 2728 
Q 1238 2728 988 2431 
Q 738 2134 738 1531 
Q 738 953 992 653 
Q 1247 353 1606 353 
Q 1791 353 1934 433 
Q 2078 513 2219 694 
z
" transform="scale(0.015625)"/>
       <path id="TimesNewRomanPSMT-75" d="M 2709 2863 
L 2709 1128 
Q 2709 631 2732 520 
Q 2756 409 2807 365 
Q 2859 322 2928 322 
Q 3025 322 3147 375 
L 3191 266 
L 2334 -88 
L 2194 -88 
L 2194 519 
Q 1825 119 1631 15 
Q 1438 -88 1222 -88 
Q 981 -88 804 51 
Q 628 191 559 409 
Q 491 628 491 1028 
L 491 2306 
Q 491 2509 447 2587 
Q 403 2666 317 2708 
Q 231 2750 6 2747 
L 6 2863 
L 1009 2863 
L 1009 947 
Q 1009 547 1148 422 
Q 1288 297 1484 297 
Q 1619 297 1789 381 
Q 1959 466 2194 703 
L 2194 2325 
Q 2194 2569 2105 2655 
Q 2016 2741 1734 2747 
L 1734 2863 
L 2709 2863 
z
" transform="scale(0.015625)"/>
       <path id="TimesNewRomanPSMT-6e" d="M 1034 2341 
Q 1538 2947 1994 2947 
Q 2228 2947 2397 2830 
Q 2566 2713 2666 2444 
Q 2734 2256 2734 1869 
L 2734 647 
Q 2734 375 2778 278 
Q 2813 200 2889 156 
Q 2966 113 3172 113 
L 3172 0 
L 1756 0 
L 1756 113 
L 1816 113 
Q 2016 113 2095 173 
Q 2175 234 2206 353 
Q 2219 400 2219 647 
L 2219 1819 
Q 2219 2209 2117 2386 
Q 2016 2563 1775 2563 
Q 1403 2563 1034 2156 
L 1034 647 
Q 1034 356 1069 288 
Q 1113 197 1189 155 
Q 1266 113 1500 113 
L 1500 0 
L 84 0 
L 84 113 
L 147 113 
Q 366 113 442 223 
Q 519 334 519 647 
L 519 1709 
Q 519 2225 495 2337 
Q 472 2450 423 2490 
Q 375 2531 294 2531 
Q 206 2531 84 2484 
L 38 2597 
L 900 2947 
L 1034 2947 
L 1034 2341 
z
" transform="scale(0.015625)"/>
       <path id="TimesNewRomanPSMT-63" d="M 2631 1088 
Q 2516 522 2178 217 
Q 1841 -88 1431 -88 
Q 944 -88 581 321 
Q 219 731 219 1428 
Q 219 2103 620 2525 
Q 1022 2947 1584 2947 
Q 2006 2947 2278 2723 
Q 2550 2500 2550 2259 
Q 2550 2141 2473 2067 
Q 2397 1994 2259 1994 
Q 2075 1994 1981 2113 
Q 1928 2178 1911 2362 
Q 1894 2547 1784 2644 
Q 1675 2738 1481 2738 
Q 1169 2738 978 2506 
Q 725 2200 725 1697 
Q 725 1184 976 792 
Q 1228 400 1656 400 
Q 1963 400 2206 609 
Q 2378 753 2541 1131 
L 2631 1088 
z
" transform="scale(0.015625)"/>
       <path id="TimesNewRomanPSMT-79" d="M 38 2863 
L 1372 2863 
L 1372 2747 
L 1306 2747 
Q 1166 2747 1095 2686 
Q 1025 2625 1025 2534 
Q 1025 2413 1128 2197 
L 1825 753 
L 2466 2334 
Q 2519 2463 2519 2588 
Q 2519 2644 2497 2672 
Q 2472 2706 2419 2726 
Q 2366 2747 2231 2747 
L 2231 2863 
L 3163 2863 
L 3163 2747 
Q 3047 2734 2984 2696 
Q 2922 2659 2847 2556 
Q 2819 2513 2741 2316 
L 1575 -541 
Q 1406 -956 1132 -1168 
Q 859 -1381 606 -1381 
Q 422 -1381 303 -1275 
Q 184 -1169 184 -1031 
Q 184 -900 270 -820 
Q 356 -741 506 -741 
Q 609 -741 788 -809 
Q 913 -856 944 -856 
Q 1038 -856 1148 -759 
Q 1259 -663 1372 -384 
L 1575 113 
L 547 2272 
Q 500 2369 397 2513 
Q 319 2622 269 2659 
Q 197 2709 38 2747 
L 38 2863 
z
" transform="scale(0.015625)"/>
      </defs>
      <use xlink:href="#TimesNewRomanPSMT-46"/>
      <use xlink:href="#TimesNewRomanPSMT-72" x="55.615234"/>
      <use xlink:href="#TimesNewRomanPSMT-65" x="88.916016"/>
      <use xlink:href="#TimesNewRomanPSMT-71" x="133.300781"/>
      <use xlink:href="#TimesNewRomanPSMT-75" x="183.300781"/>
      <use xlink:href="#TimesNewRomanPSMT-65" x="233.300781"/>
      <use xlink:href="#TimesNewRomanPSMT-6e" x="277.685547"/>
      <use xlink:href="#TimesNewRomanPSMT-63" x="327.685547"/>
      <use xlink:href="#TimesNewRomanPSMT-79" x="372.070312"/>
     </g>
    </g>
   </g>
   <g id="line2d_16">
    <path d="M 161.489315 358.289344 
L 166.22985 358.272248 
L 170.970385 358.249697 
L 175.71092 358.220111 
L 180.451455 358.181507 
L 185.19199 358.131412 
L 189.932525 358.066759 
L 194.67306 357.983779 
L 199.413596 357.87786 
L 204.154131 357.743407 
L 208.894666 357.573679 
L 213.635201 357.36061 
L 218.375736 357.09462 
L 223.116271 356.764421 
L 227.856806 356.356811 
L 232.597341 355.856474 
L 237.337876 355.245785 
L 242.078412 354.504637 
L 246.818947 353.610287 
L 251.559482 352.537254 
L 256.300017 351.257252 
L 261.040552 349.739208 
L 265.781087 347.949347 
L 270.521622 345.851383 
L 275.262157 343.406809 
L 280.002692 340.575326 
L 284.743227 337.315389 
L 289.483763 333.584903 
L 294.224298 329.342069 
L 298.964833 324.546356 
L 303.705368 319.15963 
L 308.445903 313.147385 
L 313.186438 306.48009 
L 317.926973 299.134595 
L 322.667508 291.095585 
L 327.408043 282.357022 
L 332.148578 272.923535 
L 336.889114 262.811698 
L 341.629649 252.051157 
L 346.370184 240.685528 
L 351.110719 228.773022 
L 355.851254 216.386752 
L 360.591789 203.614658 
L 365.332324 190.559041 
L 370.072859 177.335661 
L 374.813394 164.072392 
L 379.553929 150.90746 
L 384.294465 137.987257 
L 389.035 125.463793 
L 393.775535 113.491836 
L 398.51607 102.225797 
L 403.256605 91.816476 
L 407.99714 82.407723 
L 412.737675 74.133155 
L 417.47821 67.113002 
L 422.218745 61.451208 
L 426.959281 57.232868 
L 431.699816 54.522105 
L 436.440351 53.360445 
L 441.180886 53.765758 
L 445.921421 55.731805 
L 450.661956 59.228392 
L 455.402491 64.202146 
L 460.143026 70.577869 
L 464.883561 78.260429 
L 469.624096 87.137121 
L 474.364632 97.080416 
L 479.105167 107.951004 
L 483.845702 119.601026 
L 488.586237 131.877403 
L 493.326772 144.625139 
L 498.067307 157.690518 
L 502.807842 170.924092 
L 507.548377 184.183397 
L 512.288912 197.335307 
L 517.029447 210.258017 
L 521.769983 222.842583 
L 526.510518 234.994042 
L 531.251053 246.632083 
L 535.991588 257.691312 
L 540.732123 268.12112 
L 545.472658 277.885208 
L 550.213193 286.960816 
L 554.953728 295.337692 
L 559.694263 303.01689 
L 564.434798 310.009421 
L 569.175334 316.334831 
L 573.915869 322.019747 
L 578.656404 327.096444 
L 583.396939 331.601465 
L 588.137474 335.57433 
L 592.878009 339.056357 
L 597.618544 342.089611 
L 602.359079 344.715999 
L 607.099614 346.9765 
L 611.840149 348.910547 
L 616.580685 350.555544 
L 621.32122 351.946507 
L 626.061755 353.115834 
L 630.80229 354.093162 
" clip-path="url(#pc38d15e7be)" style="fill: none; stroke: #008000; stroke-width: 1.5; stroke-linecap: square"/>
   </g>
   <g id="line2d_17">
    <path d="M 161.489315 358.287972 
L 166.22985 358.270483 
L 170.970385 358.24744 
L 175.71092 358.217243 
L 180.451455 358.177886 
L 185.19199 358.126868 
L 189.932525 358.061096 
L 194.67306 357.976766 
L 199.413596 357.869235 
L 204.154131 357.732871 
L 208.894666 357.560898 
L 213.635201 357.345214 
L 218.375736 357.076208 
L 223.116271 356.742566 
L 227.856806 356.331065 
L 232.597341 355.826379 
L 237.337876 355.210892 
L 242.078412 354.464517 
L 246.818947 353.564558 
L 251.559482 352.485605 
L 256.300017 351.199477 
L 261.040552 349.675236 
L 265.781087 347.879283 
L 270.521622 345.775548 
L 275.262157 343.325784 
L 280.002692 340.489992 
L 284.743227 337.226971 
L 289.483763 333.495008 
L 294.224298 329.252713 
L 298.964833 324.459996 
L 303.705368 319.079169 
L 308.445903 313.076177 
L 313.186438 306.421921 
L 317.926973 299.093651 
L 322.667508 291.076398 
L 327.408043 282.364396 
L 332.148578 272.96245 
L 336.889114 262.887199 
L 341.629649 252.168217 
L 346.370184 240.848899 
L 351.110719 228.987076 
L 355.851254 216.655306 
L 360.591789 203.94081 
L 365.332324 190.944997 
L 370.072859 177.782578 
L 374.813394 164.580244 
L 379.553929 151.474919 
L 384.294465 138.611613 
L 389.035 126.140908 
L 393.775535 114.216138 
L 398.51607 102.990325 
L 403.256605 92.61296 
L 407.99714 83.226723 
L 412.737675 74.964231 
L 417.47821 67.944936 
L 422.218745 62.272247 
L 426.959281 58.031004 
L 431.699816 55.285364 
L 436.440351 54.077184 
L 441.180886 54.424966 
L 445.921421 56.323378 
L 450.661956 59.743397 
L 455.402491 64.633041 
L 460.143026 70.918687 
L 464.883561 78.506916 
L 469.624096 87.286819 
L 474.364632 97.132695 
L 479.105167 107.907039 
L 483.845702 119.463723 
L 488.586237 131.651275 
L 493.326772 144.316144 
L 498.067307 157.305859 
L 502.807842 170.471994 
L 507.548377 183.67286 
L 512.288912 196.77586 
L 517.029447 209.659462 
L 521.769983 222.214757 
L 526.510518 234.346587 
L 531.251053 245.974247 
L 535.991588 257.031766 
L 540.732123 267.467818 
L 545.472658 277.245272 
L 550.213193 286.340454 
L 554.953728 294.742156 
L 559.694263 302.450457 
L 564.434798 309.475407 
L 569.175334 315.835626 
L 573.915869 321.556873 
L 578.656404 326.670632 
L 583.396939 331.212736 
L 588.137474 335.222092 
L 592.878009 338.739499 
L 597.618544 341.806604 
L 602.359079 344.464985 
L 607.099614 346.755383 
L 611.840149 348.717077 
L 616.580685 350.387384 
L 621.32122 351.801302 
L 626.061755 352.991258 
L 630.80229 353.986966 
" clip-path="url(#pc38d15e7be)" style="fill: none; stroke: #ff0000; stroke-width: 1.5; stroke-linecap: square"/>
   </g>
   <g id="line2d_18">
    <path d="M 161.489315 353.886788 
L 166.22985 352.866836 
L 170.970385 351.647816 
L 175.71092 350.199323 
L 180.451455 348.488198 
L 185.19199 346.478687 
L 189.932525 344.132709 
L 194.67306 341.410239 
L 199.413596 338.269824 
L 204.154131 334.669247 
L 208.894666 330.566324 
L 213.635201 325.919861 
L 218.375736 320.690733 
L 223.116271 314.84311 
L 227.856806 308.345773 
L 232.597341 301.173524 
L 237.337876 293.308638 
L 242.078412 284.742323 
L 246.818947 275.47614 
L 251.559482 265.523328 
L 256.300017 254.909988 
L 261.040552 243.676051 
L 265.781087 231.875993 
L 270.521622 219.579232 
L 275.262157 206.870163 
L 280.002692 193.847798 
L 284.743227 180.624969 
L 289.483763 167.327102 
L 294.224298 154.090545 
L 298.964833 141.060479 
L 303.705368 128.388442 
L 308.445903 116.22952 
L 313.186438 104.739276 
L 317.926973 94.070492 
L 322.667508 84.369824 
L 327.408043 75.774467 
L 332.148578 68.408938 
L 336.889114 62.382079 
L 341.629649 57.784381 
L 346.370184 54.685727 
L 351.110719 53.133623 
L 355.851254 53.151988 
L 360.591789 54.740538 
L 365.332324 57.874795 
L 370.072859 62.506715 
L 374.813394 68.565912 
L 379.553929 75.961439 
L 384.294465 84.584056 
L 389.035 94.308916 
L 393.775535 104.998566 
L 398.51607 116.506168 
L 403.256605 128.678837 
L 407.99714 141.360986 
L 412.737675 154.397576 
L 417.47821 167.637187 
L 422.218745 180.934818 
L 426.959281 194.154353 
L 431.699816 207.170643 
L 436.440351 219.871165 
L 441.180886 232.157242 
L 445.921421 243.944825 
L 450.661956 255.164847 
L 455.402491 265.763177 
L 460.143026 275.700215 
L 464.883561 284.950173 
L 469.624096 293.500099 
L 474.364632 301.348688 
L 479.105167 308.504958 
L 483.845702 314.986824 
L 488.586237 320.819642 
L 493.326772 326.034752 
L 498.067307 330.668079 
L 502.807842 334.758807 
L 507.548377 338.348167 
L 512.288912 341.478351 
L 517.029447 344.191571 
L 521.769983 346.529249 
L 526.510518 348.531373 
L 531.251053 350.235974 
L 535.991588 351.678747 
L 540.732123 352.892786 
L 545.472658 353.908434 
L 550.213193 354.753213 
L 554.953728 355.451838 
L 559.694263 356.0263 
L 564.434798 356.495981 
L 569.175334 356.877821 
L 573.915869 357.186499 
L 578.656404 357.434633 
L 583.396939 357.632983 
L 588.137474 357.790652 
L 592.878009 357.915288 
L 597.618544 358.013265 
L 602.359079 358.08986 
L 607.099614 358.14941 
L 611.840149 358.195453 
L 616.580685 358.230857 
L 621.32122 358.257932 
L 626.061755 358.278525 
L 630.80229 358.294101 
" clip-path="url(#pc38d15e7be)" style="fill: none; stroke: #008000; stroke-width: 1.5; stroke-linecap: square"/>
   </g>
   <g id="line2d_19">
    <path d="M 161.489315 353.986966 
L 166.22985 352.991258 
L 170.970385 351.801302 
L 175.71092 350.387384 
L 180.451455 348.717077 
L 185.19199 346.755383 
L 189.932525 344.464985 
L 194.67306 341.806604 
L 199.413596 338.739499 
L 204.154131 335.222092 
L 208.894666 331.212736 
L 213.635201 326.670632 
L 218.375736 321.556873 
L 223.116271 315.835626 
L 227.856806 309.475407 
L 232.597341 302.450457 
L 237.337876 294.742156 
L 242.078412 286.340454 
L 246.818947 277.245272 
L 251.559482 267.467818 
L 256.300017 257.031766 
L 261.040552 245.974247 
L 265.781087 234.346587 
L 270.521622 222.214757 
L 275.262157 209.659462 
L 280.002692 196.77586 
L 284.743227 183.67286 
L 289.483763 170.471994 
L 294.224298 157.305859 
L 298.964833 144.316144 
L 303.705368 131.651275 
L 308.445903 119.463723 
L 313.186438 107.907039 
L 317.926973 97.132695 
L 322.667508 87.286819 
L 327.408043 78.506916 
L 332.148578 70.918687 
L 336.889114 64.633041 
L 341.629649 59.743397 
L 346.370184 56.323378 
L 351.110719 54.424966 
L 355.851254 54.077184 
L 360.591789 55.285364 
L 365.332324 58.031004 
L 370.072859 62.272247 
L 374.813394 67.944936 
L 379.553929 74.964231 
L 384.294465 83.226723 
L 389.035 92.61296 
L 393.775535 102.990325 
L 398.51607 114.216138 
L 403.256605 126.140908 
L 407.99714 138.611613 
L 412.737675 151.474919 
L 417.47821 164.580244 
L 422.218745 177.782578 
L 426.959281 190.944997 
L 431.699816 203.94081 
L 436.440351 216.655306 
L 441.180886 228.987076 
L 445.921421 240.848899 
L 450.661956 252.168217 
L 455.402491 262.887199 
L 460.143026 272.96245 
L 464.883561 282.364396 
L 469.624096 291.076398 
L 474.364632 299.093651 
L 479.105167 306.421921 
L 483.845702 313.076177 
L 488.586237 319.079169 
L 493.326772 324.459996 
L 498.067307 329.252713 
L 502.807842 333.495008 
L 507.548377 337.226971 
L 512.288912 340.489992 
L 517.029447 343.325784 
L 521.769983 345.775548 
L 526.510518 347.879283 
L 531.251053 349.675236 
L 535.991588 351.199477 
L 540.732123 352.485605 
L 545.472658 353.564558 
L 550.213193 354.464517 
L 554.953728 355.210892 
L 559.694263 355.826379 
L 564.434798 356.331065 
L 569.175334 356.742566 
L 573.915869 357.076208 
L 578.656404 357.345214 
L 583.396939 357.560898 
L 588.137474 357.732871 
L 592.878009 357.869235 
L 597.618544 357.976766 
L 602.359079 358.061096 
L 607.099614 358.126868 
L 611.840149 358.177886 
L 616.580685 358.217243 
L 621.32122 358.24744 
L 626.061755 358.270483 
L 630.80229 358.287972 
" clip-path="url(#pc38d15e7be)" style="fill: none; stroke: #ff0000; stroke-width: 1.5; stroke-linecap: square"/>
   </g>
   <g id="patch_103">
    <path d="M 58.074219 358.33875 
L 58.074219 25.69875 
" style="fill: none; stroke: #000000; stroke-width: 0.8; stroke-linejoin: miter; stroke-linecap: square"/>
   </g>
   <g id="patch_104">
    <path d="M 727.674219 358.33875 
L 727.674219 25.69875 
" style="fill: none; stroke: #000000; stroke-width: 0.8; stroke-linejoin: miter; stroke-linecap: square"/>
   </g>
   <g id="patch_105">
    <path d="M 58.074219 358.33875 
L 727.674219 358.33875 
" style="fill: none; stroke: #000000; stroke-width: 0.8; stroke-linejoin: miter; stroke-linecap: square"/>
   </g>
   <g id="patch_106">
    <path d="M 58.074219 25.69875 
L 727.674219 25.69875 
" style="fill: none; stroke: #000000; stroke-width: 0.8; stroke-linejoin: miter; stroke-linecap: square"/>
   </g>
   <g id="text_18">
    <!-- Histogram and Gaussian approx. of s1 &amp; s2 (Gibbs vs. moment matching) -->
    <g transform="translate(125.655781 19.69875) scale(0.18 -0.18)">
     <defs>
      <path id="TimesNewRomanPSMT-48" d="M 1316 2272 
L 3284 2272 
L 3284 3484 
Q 3284 3809 3244 3913 
Q 3213 3991 3113 4047 
Q 2978 4122 2828 4122 
L 2678 4122 
L 2678 4238 
L 4491 4238 
L 4491 4122 
L 4341 4122 
Q 4191 4122 4056 4050 
Q 3956 4000 3920 3898 
Q 3884 3797 3884 3484 
L 3884 750 
Q 3884 428 3925 325 
Q 3956 247 4053 191 
Q 4191 116 4341 116 
L 4491 116 
L 4491 0 
L 2678 0 
L 2678 116 
L 2828 116 
Q 3088 116 3206 269 
Q 3284 369 3284 750 
L 3284 2041 
L 1316 2041 
L 1316 750 
Q 1316 428 1356 325 
Q 1388 247 1488 191 
Q 1622 116 1772 116 
L 1925 116 
L 1925 0 
L 109 0 
L 109 116 
L 259 116 
Q 522 116 641 269 
Q 716 369 716 750 
L 716 3484 
Q 716 3809 675 3913 
Q 644 3991 547 4047 
Q 409 4122 259 4122 
L 109 4122 
L 109 4238 
L 1925 4238 
L 1925 4122 
L 1772 4122 
Q 1622 4122 1488 4050 
Q 1391 4000 1353 3898 
Q 1316 3797 1316 3484 
L 1316 2272 
z
" transform="scale(0.015625)"/>
      <path id="TimesNewRomanPSMT-69" d="M 928 4444 
Q 1059 4444 1151 4351 
Q 1244 4259 1244 4128 
Q 1244 3997 1151 3903 
Q 1059 3809 928 3809 
Q 797 3809 703 3903 
Q 609 3997 609 4128 
Q 609 4259 701 4351 
Q 794 4444 928 4444 
z
M 1188 2947 
L 1188 647 
Q 1188 378 1227 289 
Q 1266 200 1342 156 
Q 1419 113 1622 113 
L 1622 0 
L 231 0 
L 231 113 
Q 441 113 512 153 
Q 584 194 626 287 
Q 669 381 669 647 
L 669 1750 
Q 669 2216 641 2353 
Q 619 2453 572 2492 
Q 525 2531 444 2531 
Q 356 2531 231 2484 
L 188 2597 
L 1050 2947 
L 1188 2947 
z
" transform="scale(0.015625)"/>
      <path id="TimesNewRomanPSMT-74" d="M 1031 3803 
L 1031 2863 
L 1700 2863 
L 1700 2644 
L 1031 2644 
L 1031 788 
Q 1031 509 1111 412 
Q 1191 316 1316 316 
Q 1419 316 1516 380 
Q 1613 444 1666 569 
L 1788 569 
Q 1678 263 1478 108 
Q 1278 -47 1066 -47 
Q 922 -47 784 33 
Q 647 113 581 261 
Q 516 409 516 719 
L 516 2644 
L 63 2644 
L 63 2747 
Q 234 2816 414 2980 
Q 594 3144 734 3369 
Q 806 3488 934 3803 
L 1031 3803 
z
" transform="scale(0.015625)"/>
      <path id="TimesNewRomanPSMT-6f" d="M 1600 2947 
Q 2250 2947 2644 2453 
Q 2978 2031 2978 1484 
Q 2978 1100 2793 706 
Q 2609 313 2286 112 
Q 1963 -88 1566 -88 
Q 919 -88 538 428 
Q 216 863 216 1403 
Q 216 1797 411 2186 
Q 606 2575 925 2761 
Q 1244 2947 1600 2947 
z
M 1503 2744 
Q 1338 2744 1170 2645 
Q 1003 2547 900 2300 
Q 797 2053 797 1666 
Q 797 1041 1045 587 
Q 1294 134 1700 134 
Q 2003 134 2200 384 
Q 2397 634 2397 1244 
Q 2397 2006 2069 2444 
Q 1847 2744 1503 2744 
z
" transform="scale(0.015625)"/>
      <path id="TimesNewRomanPSMT-67" d="M 966 1044 
Q 703 1172 562 1401 
Q 422 1631 422 1909 
Q 422 2334 742 2640 
Q 1063 2947 1563 2947 
Q 1972 2947 2272 2747 
L 2878 2747 
Q 3013 2747 3034 2739 
Q 3056 2731 3066 2713 
Q 3084 2684 3084 2613 
Q 3084 2531 3069 2500 
Q 3059 2484 3036 2475 
Q 3013 2466 2878 2466 
L 2506 2466 
Q 2681 2241 2681 1891 
Q 2681 1491 2375 1206 
Q 2069 922 1553 922 
Q 1341 922 1119 984 
Q 981 866 932 777 
Q 884 688 884 625 
Q 884 572 936 522 
Q 988 472 1138 450 
Q 1225 438 1575 428 
Q 2219 413 2409 384 
Q 2700 344 2873 169 
Q 3047 -6 3047 -263 
Q 3047 -616 2716 -925 
Q 2228 -1381 1444 -1381 
Q 841 -1381 425 -1109 
Q 191 -953 191 -784 
Q 191 -709 225 -634 
Q 278 -519 444 -313 
Q 466 -284 763 25 
Q 600 122 533 198 
Q 466 275 466 372 
Q 466 481 555 628 
Q 644 775 966 1044 
z
M 1509 2797 
Q 1278 2797 1122 2612 
Q 966 2428 966 2047 
Q 966 1553 1178 1281 
Q 1341 1075 1591 1075 
Q 1828 1075 1981 1253 
Q 2134 1431 2134 1813 
Q 2134 2309 1919 2591 
Q 1759 2797 1509 2797 
z
M 934 0 
Q 788 -159 713 -296 
Q 638 -434 638 -550 
Q 638 -700 819 -813 
Q 1131 -1006 1722 -1006 
Q 2284 -1006 2551 -807 
Q 2819 -609 2819 -384 
Q 2819 -222 2659 -153 
Q 2497 -84 2016 -72 
Q 1313 -53 934 0 
z
" transform="scale(0.015625)"/>
      <path id="TimesNewRomanPSMT-61" d="M 1822 413 
Q 1381 72 1269 19 
Q 1100 -59 909 -59 
Q 613 -59 420 144 
Q 228 347 228 678 
Q 228 888 322 1041 
Q 450 1253 767 1440 
Q 1084 1628 1822 1897 
L 1822 2009 
Q 1822 2438 1686 2597 
Q 1550 2756 1291 2756 
Q 1094 2756 978 2650 
Q 859 2544 859 2406 
L 866 2225 
Q 866 2081 792 2003 
Q 719 1925 600 1925 
Q 484 1925 411 2006 
Q 338 2088 338 2228 
Q 338 2497 613 2722 
Q 888 2947 1384 2947 
Q 1766 2947 2009 2819 
Q 2194 2722 2281 2516 
Q 2338 2381 2338 1966 
L 2338 994 
Q 2338 584 2353 492 
Q 2369 400 2405 369 
Q 2441 338 2488 338 
Q 2538 338 2575 359 
Q 2641 400 2828 588 
L 2828 413 
Q 2478 -56 2159 -56 
Q 2006 -56 1915 50 
Q 1825 156 1822 413 
z
M 1822 616 
L 1822 1706 
Q 1350 1519 1213 1441 
Q 966 1303 859 1153 
Q 753 1003 753 825 
Q 753 600 887 451 
Q 1022 303 1197 303 
Q 1434 303 1822 616 
z
" transform="scale(0.015625)"/>
      <path id="TimesNewRomanPSMT-6d" d="M 1050 2338 
Q 1363 2650 1419 2697 
Q 1559 2816 1721 2881 
Q 1884 2947 2044 2947 
Q 2313 2947 2506 2790 
Q 2700 2634 2766 2338 
Q 3088 2713 3309 2830 
Q 3531 2947 3766 2947 
Q 3994 2947 4170 2830 
Q 4347 2713 4450 2447 
Q 4519 2266 4519 1878 
L 4519 647 
Q 4519 378 4559 278 
Q 4591 209 4675 161 
Q 4759 113 4950 113 
L 4950 0 
L 3538 0 
L 3538 113 
L 3597 113 
Q 3781 113 3884 184 
Q 3956 234 3988 344 
Q 4000 397 4000 647 
L 4000 1878 
Q 4000 2228 3916 2372 
Q 3794 2572 3525 2572 
Q 3359 2572 3192 2489 
Q 3025 2406 2788 2181 
L 2781 2147 
L 2788 2013 
L 2788 647 
Q 2788 353 2820 281 
Q 2853 209 2943 161 
Q 3034 113 3253 113 
L 3253 0 
L 1806 0 
L 1806 113 
Q 2044 113 2133 169 
Q 2222 225 2256 338 
Q 2272 391 2272 647 
L 2272 1878 
Q 2272 2228 2169 2381 
Q 2031 2581 1784 2581 
Q 1616 2581 1450 2491 
Q 1191 2353 1050 2181 
L 1050 647 
Q 1050 366 1089 281 
Q 1128 197 1204 155 
Q 1281 113 1516 113 
L 1516 0 
L 100 0 
L 100 113 
Q 297 113 375 155 
Q 453 197 493 289 
Q 534 381 534 647 
L 534 1741 
Q 534 2213 506 2350 
Q 484 2453 437 2492 
Q 391 2531 309 2531 
Q 222 2531 100 2484 
L 53 2597 
L 916 2947 
L 1050 2947 
L 1050 2338 
z
" transform="scale(0.015625)"/>
      <path id="TimesNewRomanPSMT-64" d="M 2222 322 
Q 2013 103 1813 7 
Q 1613 -88 1381 -88 
Q 913 -88 563 304 
Q 213 697 213 1313 
Q 213 1928 600 2439 
Q 988 2950 1597 2950 
Q 1975 2950 2222 2709 
L 2222 3238 
Q 2222 3728 2198 3840 
Q 2175 3953 2125 3993 
Q 2075 4034 2000 4034 
Q 1919 4034 1784 3984 
L 1744 4094 
L 2597 4444 
L 2738 4444 
L 2738 1134 
Q 2738 631 2761 520 
Q 2784 409 2836 365 
Q 2888 322 2956 322 
Q 3041 322 3181 375 
L 3216 266 
L 2366 -88 
L 2222 -88 
L 2222 322 
z
M 2222 541 
L 2222 2016 
Q 2203 2228 2109 2403 
Q 2016 2578 1861 2667 
Q 1706 2756 1559 2756 
Q 1284 2756 1069 2509 
Q 784 2184 784 1559 
Q 784 928 1059 592 
Q 1334 256 1672 256 
Q 1956 256 2222 541 
z
" transform="scale(0.015625)"/>
      <path id="TimesNewRomanPSMT-47" d="M 3928 4334 
L 4038 2997 
L 3928 2997 
Q 3763 3497 3500 3750 
Q 3122 4116 2528 4116 
Q 1719 4116 1297 3475 
Q 944 2934 944 2188 
Q 944 1581 1178 1081 
Q 1413 581 1792 348 
Q 2172 116 2572 116 
Q 2806 116 3025 175 
Q 3244 234 3447 350 
L 3447 1575 
Q 3447 1894 3398 1992 
Q 3350 2091 3248 2142 
Q 3147 2194 2891 2194 
L 2891 2313 
L 4531 2313 
L 4531 2194 
L 4453 2194 
Q 4209 2194 4119 2031 
Q 4056 1916 4056 1575 
L 4056 278 
Q 3697 84 3347 -6 
Q 2997 -97 2569 -97 
Q 1341 -97 703 691 
Q 225 1281 225 2053 
Q 225 2613 494 3125 
Q 813 3734 1369 4063 
Q 1834 4334 2469 4334 
Q 2700 4334 2889 4296 
Q 3078 4259 3425 4131 
Q 3600 4066 3659 4066 
Q 3719 4066 3761 4120 
Q 3803 4175 3813 4334 
L 3928 4334 
z
" transform="scale(0.015625)"/>
      <path id="TimesNewRomanPSMT-70" d="M -6 2578 
L 875 2934 
L 994 2934 
L 994 2266 
Q 1216 2644 1439 2795 
Q 1663 2947 1909 2947 
Q 2341 2947 2628 2609 
Q 2981 2197 2981 1534 
Q 2981 794 2556 309 
Q 2206 -88 1675 -88 
Q 1444 -88 1275 -22 
Q 1150 25 994 166 
L 994 -706 
Q 994 -1000 1030 -1079 
Q 1066 -1159 1155 -1206 
Q 1244 -1253 1478 -1253 
L 1478 -1369 
L -22 -1369 
L -22 -1253 
L 56 -1253 
Q 228 -1256 350 -1188 
Q 409 -1153 442 -1076 
Q 475 -1000 475 -688 
L 475 2019 
Q 475 2297 450 2372 
Q 425 2447 370 2484 
Q 316 2522 222 2522 
Q 147 2522 31 2478 
L -6 2578 
z
M 994 2081 
L 994 1013 
Q 994 666 1022 556 
Q 1066 375 1236 237 
Q 1406 100 1666 100 
Q 1978 100 2172 344 
Q 2425 663 2425 1241 
Q 2425 1897 2138 2250 
Q 1938 2494 1663 2494 
Q 1513 2494 1366 2419 
Q 1253 2363 994 2081 
z
" transform="scale(0.015625)"/>
      <path id="TimesNewRomanPSMT-78" d="M 84 2863 
L 1431 2863 
L 1431 2747 
Q 1303 2747 1251 2703 
Q 1200 2659 1200 2588 
Q 1200 2513 1309 2356 
Q 1344 2306 1413 2200 
L 1616 1875 
L 1850 2200 
Q 2075 2509 2075 2591 
Q 2075 2656 2022 2701 
Q 1969 2747 1850 2747 
L 1850 2863 
L 2819 2863 
L 2819 2747 
Q 2666 2738 2553 2663 
Q 2400 2556 2134 2200 
L 1744 1678 
L 2456 653 
Q 2719 275 2831 198 
Q 2944 122 3122 113 
L 3122 0 
L 1772 0 
L 1772 113 
Q 1913 113 1991 175 
Q 2050 219 2050 291 
Q 2050 363 1850 653 
L 1431 1266 
L 972 653 
Q 759 369 759 316 
Q 759 241 829 180 
Q 900 119 1041 113 
L 1041 0 
L 106 0 
L 106 113 
Q 219 128 303 191 
Q 422 281 703 653 
L 1303 1450 
L 759 2238 
Q 528 2575 401 2661 
Q 275 2747 84 2747 
L 84 2863 
z
" transform="scale(0.015625)"/>
      <path id="TimesNewRomanPSMT-66" d="M 1319 2638 
L 1319 756 
Q 1319 356 1406 250 
Q 1522 113 1716 113 
L 1975 113 
L 1975 0 
L 266 0 
L 266 113 
L 394 113 
Q 519 113 622 175 
Q 725 238 764 344 
Q 803 450 803 756 
L 803 2638 
L 247 2638 
L 247 2863 
L 803 2863 
L 803 3050 
Q 803 3478 940 3775 
Q 1078 4072 1361 4255 
Q 1644 4438 1997 4438 
Q 2325 4438 2600 4225 
Q 2781 4084 2781 3909 
Q 2781 3816 2700 3733 
Q 2619 3650 2525 3650 
Q 2453 3650 2373 3701 
Q 2294 3753 2178 3923 
Q 2063 4094 1966 4153 
Q 1869 4213 1750 4213 
Q 1606 4213 1506 4136 
Q 1406 4059 1362 3898 
Q 1319 3738 1319 3069 
L 1319 2863 
L 2056 2863 
L 2056 2638 
L 1319 2638 
z
" transform="scale(0.015625)"/>
      <path id="TimesNewRomanPSMT-26" d="M 3266 2728 
L 4578 2728 
L 4578 2613 
Q 4306 2591 4176 2492 
Q 4047 2394 3772 1897 
Q 3497 1400 3153 969 
Q 3431 644 3650 514 
Q 3869 384 4091 384 
Q 4306 384 4456 501 
Q 4606 619 4669 847 
L 4784 763 
Q 4669 322 4412 112 
Q 4156 -97 3816 -97 
Q 3559 -97 3295 42 
Q 3031 181 2719 513 
Q 2331 169 2020 36 
Q 1709 -97 1356 -97 
Q 841 -97 537 178 
Q 234 453 234 834 
Q 234 1213 506 1589 
Q 778 1966 1528 2369 
Q 1381 2694 1328 2901 
Q 1275 3109 1275 3300 
Q 1275 3834 1669 4116 
Q 1975 4334 2366 4334 
Q 2738 4334 2972 4114 
Q 3206 3894 3206 3572 
Q 3206 3241 2979 2991 
Q 2753 2741 2178 2444 
Q 2575 1738 3006 1150 
Q 3556 1806 3556 2256 
Q 3556 2400 3463 2513 
Q 3394 2597 3266 2613 
L 3266 2728 
z
M 2072 2647 
Q 2459 2831 2651 3065 
Q 2844 3300 2844 3588 
Q 2844 3813 2705 3959 
Q 2566 4106 2359 4106 
Q 2088 4106 1948 3917 
Q 1809 3728 1809 3547 
Q 1809 3394 1862 3205 
Q 1916 3016 2072 2647 
z
M 2556 694 
Q 2144 1256 1984 1515 
Q 1825 1775 1634 2159 
Q 1259 1944 1070 1684 
Q 881 1425 881 1122 
Q 881 788 1097 534 
Q 1313 281 1678 281 
Q 1875 281 2058 359 
Q 2241 438 2556 694 
z
" transform="scale(0.015625)"/>
      <path id="TimesNewRomanPSMT-28" d="M 1988 -1253 
L 1988 -1369 
Q 1516 -1131 1200 -813 
Q 750 -359 506 256 
Q 263 872 263 1534 
Q 263 2503 741 3301 
Q 1219 4100 1988 4444 
L 1988 4313 
Q 1603 4100 1356 3731 
Q 1109 3363 987 2797 
Q 866 2231 866 1616 
Q 866 947 969 400 
Q 1050 -31 1165 -292 
Q 1281 -553 1476 -793 
Q 1672 -1034 1988 -1253 
z
" transform="scale(0.015625)"/>
      <path id="TimesNewRomanPSMT-62" d="M 984 2369 
Q 1400 2947 1881 2947 
Q 2322 2947 2650 2570 
Q 2978 2194 2978 1541 
Q 2978 778 2472 313 
Q 2038 -88 1503 -88 
Q 1253 -88 995 3 
Q 738 94 469 275 
L 469 3241 
Q 469 3728 445 3840 
Q 422 3953 372 3993 
Q 322 4034 247 4034 
Q 159 4034 28 3984 
L -16 4094 
L 844 4444 
L 984 4444 
L 984 2369 
z
M 984 2169 
L 984 456 
Q 1144 300 1314 220 
Q 1484 141 1663 141 
Q 1947 141 2192 453 
Q 2438 766 2438 1363 
Q 2438 1913 2192 2208 
Q 1947 2503 1634 2503 
Q 1469 2503 1303 2419 
Q 1178 2356 984 2169 
z
" transform="scale(0.015625)"/>
      <path id="TimesNewRomanPSMT-76" d="M 53 2863 
L 1400 2863 
L 1400 2747 
L 1313 2747 
Q 1191 2747 1127 2687 
Q 1063 2628 1063 2528 
Q 1063 2419 1128 2269 
L 1794 688 
L 2463 2328 
Q 2534 2503 2534 2594 
Q 2534 2638 2509 2666 
Q 2475 2713 2422 2730 
Q 2369 2747 2206 2747 
L 2206 2863 
L 3141 2863 
L 3141 2747 
Q 2978 2734 2916 2681 
Q 2806 2588 2719 2369 
L 1703 -88 
L 1575 -88 
L 553 2328 
Q 484 2497 421 2570 
Q 359 2644 263 2694 
Q 209 2722 53 2747 
L 53 2863 
z
" transform="scale(0.015625)"/>
      <path id="TimesNewRomanPSMT-68" d="M 1041 4444 
L 1041 2350 
Q 1388 2731 1591 2839 
Q 1794 2947 1997 2947 
Q 2241 2947 2416 2812 
Q 2591 2678 2675 2391 
Q 2734 2191 2734 1659 
L 2734 647 
Q 2734 375 2778 275 
Q 2809 200 2884 156 
Q 2959 113 3159 113 
L 3159 0 
L 1753 0 
L 1753 113 
L 1819 113 
Q 2019 113 2097 173 
Q 2175 234 2206 353 
Q 2216 403 2216 647 
L 2216 1659 
Q 2216 2128 2167 2275 
Q 2119 2422 2012 2495 
Q 1906 2569 1756 2569 
Q 1603 2569 1437 2487 
Q 1272 2406 1041 2159 
L 1041 647 
Q 1041 353 1073 281 
Q 1106 209 1195 161 
Q 1284 113 1503 113 
L 1503 0 
L 84 0 
L 84 113 
Q 275 113 384 172 
Q 447 203 484 290 
Q 522 378 522 647 
L 522 3238 
Q 522 3728 498 3840 
Q 475 3953 426 3993 
Q 378 4034 297 4034 
Q 231 4034 84 3984 
L 41 4094 
L 897 4444 
L 1041 4444 
z
" transform="scale(0.015625)"/>
      <path id="TimesNewRomanPSMT-29" d="M 144 4313 
L 144 4444 
Q 619 4209 934 3891 
Q 1381 3434 1625 2820 
Q 1869 2206 1869 1541 
Q 1869 572 1392 -226 
Q 916 -1025 144 -1369 
L 144 -1253 
Q 528 -1038 776 -670 
Q 1025 -303 1145 264 
Q 1266 831 1266 1447 
Q 1266 2113 1163 2663 
Q 1084 3094 967 3353 
Q 850 3613 656 3853 
Q 463 4094 144 4313 
z
" transform="scale(0.015625)"/>
     </defs>
     <use xlink:href="#TimesNewRomanPSMT-48"/>
     <use xlink:href="#TimesNewRomanPSMT-69" x="72.216797"/>
     <use xlink:href="#TimesNewRomanPSMT-73" x="100"/>
     <use xlink:href="#TimesNewRomanPSMT-74" x="138.916016"/>
     <use xlink:href="#TimesNewRomanPSMT-6f" x="166.699219"/>
     <use xlink:href="#TimesNewRomanPSMT-67" x="216.699219"/>
     <use xlink:href="#TimesNewRomanPSMT-72" x="266.699219"/>
     <use xlink:href="#TimesNewRomanPSMT-61" x="300"/>
     <use xlink:href="#TimesNewRomanPSMT-6d" x="344.384766"/>
     <use xlink:href="#TimesNewRomanPSMT-20" x="422.167969"/>
     <use xlink:href="#TimesNewRomanPSMT-61" x="447.167969"/>
     <use xlink:href="#TimesNewRomanPSMT-6e" x="491.552734"/>
     <use xlink:href="#TimesNewRomanPSMT-64" x="541.552734"/>
     <use xlink:href="#TimesNewRomanPSMT-20" x="591.552734"/>
     <use xlink:href="#TimesNewRomanPSMT-47" x="616.552734"/>
     <use xlink:href="#TimesNewRomanPSMT-61" x="688.769531"/>
     <use xlink:href="#TimesNewRomanPSMT-75" x="733.154297"/>
     <use xlink:href="#TimesNewRomanPSMT-73" x="783.154297"/>
     <use xlink:href="#TimesNewRomanPSMT-73" x="822.070312"/>
     <use xlink:href="#TimesNewRomanPSMT-69" x="860.986328"/>
     <use xlink:href="#TimesNewRomanPSMT-61" x="888.769531"/>
     <use xlink:href="#TimesNewRomanPSMT-6e" x="933.154297"/>
     <use xlink:href="#TimesNewRomanPSMT-20" x="983.154297"/>
     <use xlink:href="#TimesNewRomanPSMT-61" x="1008.154297"/>
     <use xlink:href="#TimesNewRomanPSMT-70" x="1052.539062"/>
     <use xlink:href="#TimesNewRomanPSMT-70" x="1102.539062"/>
     <use xlink:href="#TimesNewRomanPSMT-72" x="1152.539062"/>
     <use xlink:href="#TimesNewRomanPSMT-6f" x="1185.839844"/>
     <use xlink:href="#TimesNewRomanPSMT-78" x="1235.839844"/>
     <use xlink:href="#TimesNewRomanPSMT-2e" x="1285.839844"/>
     <use xlink:href="#TimesNewRomanPSMT-20" x="1310.839844"/>
     <use xlink:href="#TimesNewRomanPSMT-6f" x="1335.839844"/>
     <use xlink:href="#TimesNewRomanPSMT-66" x="1385.839844"/>
     <use xlink:href="#TimesNewRomanPSMT-20" x="1419.140625"/>
     <use xlink:href="#TimesNewRomanPSMT-73" x="1444.140625"/>
     <use xlink:href="#TimesNewRomanPSMT-31" x="1483.056641"/>
     <use xlink:href="#TimesNewRomanPSMT-20" x="1533.056641"/>
     <use xlink:href="#TimesNewRomanPSMT-26" x="1558.056641"/>
     <use xlink:href="#TimesNewRomanPSMT-20" x="1635.839844"/>
     <use xlink:href="#TimesNewRomanPSMT-73" x="1660.839844"/>
     <use xlink:href="#TimesNewRomanPSMT-32" x="1699.755859"/>
     <use xlink:href="#TimesNewRomanPSMT-20" x="1749.755859"/>
     <use xlink:href="#TimesNewRomanPSMT-28" x="1774.755859"/>
     <use xlink:href="#TimesNewRomanPSMT-47" x="1808.056641"/>
     <use xlink:href="#TimesNewRomanPSMT-69" x="1880.273438"/>
     <use xlink:href="#TimesNewRomanPSMT-62" x="1908.056641"/>
     <use xlink:href="#TimesNewRomanPSMT-62" x="1958.056641"/>
     <use xlink:href="#TimesNewRomanPSMT-73" x="2008.056641"/>
     <use xlink:href="#TimesNewRomanPSMT-20" x="2046.972656"/>
     <use xlink:href="#TimesNewRomanPSMT-76" x="2071.972656"/>
     <use xlink:href="#TimesNewRomanPSMT-73" x="2121.972656"/>
     <use xlink:href="#TimesNewRomanPSMT-2e" x="2160.888672"/>
     <use xlink:href="#TimesNewRomanPSMT-20" x="2185.888672"/>
     <use xlink:href="#TimesNewRomanPSMT-6d" x="2210.888672"/>
     <use xlink:href="#TimesNewRomanPSMT-6f" x="2288.671875"/>
     <use xlink:href="#TimesNewRomanPSMT-6d" x="2338.671875"/>
     <use xlink:href="#TimesNewRomanPSMT-65" x="2416.455078"/>
     <use xlink:href="#TimesNewRomanPSMT-6e" x="2460.839844"/>
     <use xlink:href="#TimesNewRomanPSMT-74" x="2510.839844"/>
     <use xlink:href="#TimesNewRomanPSMT-20" x="2538.623047"/>
     <use xlink:href="#TimesNewRomanPSMT-6d" x="2563.623047"/>
     <use xlink:href="#TimesNewRomanPSMT-61" x="2641.40625"/>
     <use xlink:href="#TimesNewRomanPSMT-74" x="2685.791016"/>
     <use xlink:href="#TimesNewRomanPSMT-63" x="2713.574219"/>
     <use xlink:href="#TimesNewRomanPSMT-68" x="2757.958984"/>
     <use xlink:href="#TimesNewRomanPSMT-69" x="2807.958984"/>
     <use xlink:href="#TimesNewRomanPSMT-6e" x="2835.742188"/>
     <use xlink:href="#TimesNewRomanPSMT-67" x="2885.742188"/>
     <use xlink:href="#TimesNewRomanPSMT-29" x="2935.742188"/>
    </g>
   </g>
   <g id="legend_1">
    <g id="patch_107">
     <path d="M 68.574219 165.006562 
L 312.36875 165.006562 
Q 315.36875 165.006562 315.36875 162.006562 
L 315.36875 36.19875 
Q 315.36875 33.19875 312.36875 33.19875 
L 68.574219 33.19875 
Q 65.574219 33.19875 65.574219 36.19875 
L 65.574219 162.006562 
Q 65.574219 165.006562 68.574219 165.006562 
z
" style="fill: #ffffff; opacity: 0.8; stroke: #cccccc; stroke-linejoin: miter"/>
    </g>
    <g id="patch_108">
     <path d="M 71.574219 49.69875 
L 101.574219 49.69875 
L 101.574219 39.19875 
L 71.574219 39.19875 
z
" style="fill: #0000ff"/>
    </g>
    <g id="text_19">
     <!-- s1 samples -->
     <g transform="translate(113.574219 49.69875) scale(0.15 -0.15)">
      <defs>
       <path id="TimesNewRomanPSMT-6c" d="M 1184 4444 
L 1184 647 
Q 1184 378 1223 290 
Q 1263 203 1344 158 
Q 1425 113 1647 113 
L 1647 0 
L 244 0 
L 244 113 
Q 441 113 512 153 
Q 584 194 625 287 
Q 666 381 666 647 
L 666 3247 
Q 666 3731 644 3842 
Q 622 3953 573 3993 
Q 525 4034 450 4034 
Q 369 4034 244 3984 
L 191 4094 
L 1044 4444 
L 1184 4444 
z
" transform="scale(0.015625)"/>
      </defs>
      <use xlink:href="#TimesNewRomanPSMT-73"/>
      <use xlink:href="#TimesNewRomanPSMT-31" x="38.916016"/>
      <use xlink:href="#TimesNewRomanPSMT-20" x="88.916016"/>
      <use xlink:href="#TimesNewRomanPSMT-73" x="113.916016"/>
      <use xlink:href="#TimesNewRomanPSMT-61" x="152.832031"/>
      <use xlink:href="#TimesNewRomanPSMT-6d" x="197.216797"/>
      <use xlink:href="#TimesNewRomanPSMT-70" x="275"/>
      <use xlink:href="#TimesNewRomanPSMT-6c" x="325"/>
      <use xlink:href="#TimesNewRomanPSMT-65" x="352.783203"/>
      <use xlink:href="#TimesNewRomanPSMT-73" x="397.167969"/>
     </g>
    </g>
    <g id="line2d_20">
     <path d="M 71.574219 65.657344 
L 86.574219 65.657344 
L 101.574219 65.657344 
" style="fill: none; stroke: #008000; stroke-width: 1.5; stroke-linecap: square"/>
    </g>
    <g id="text_20">
     <!-- s1 Gaussian (samples) -->
     <g transform="translate(113.574219 70.907344) scale(0.15 -0.15)">
      <use xlink:href="#TimesNewRomanPSMT-73"/>
      <use xlink:href="#TimesNewRomanPSMT-31" x="38.916016"/>
      <use xlink:href="#TimesNewRomanPSMT-20" x="88.916016"/>
      <use xlink:href="#TimesNewRomanPSMT-47" x="113.916016"/>
      <use xlink:href="#TimesNewRomanPSMT-61" x="186.132812"/>
      <use xlink:href="#TimesNewRomanPSMT-75" x="230.517578"/>
      <use xlink:href="#TimesNewRomanPSMT-73" x="280.517578"/>
      <use xlink:href="#TimesNewRomanPSMT-73" x="319.433594"/>
      <use xlink:href="#TimesNewRomanPSMT-69" x="358.349609"/>
      <use xlink:href="#TimesNewRomanPSMT-61" x="386.132812"/>
      <use xlink:href="#TimesNewRomanPSMT-6e" x="430.517578"/>
      <use xlink:href="#TimesNewRomanPSMT-20" x="480.517578"/>
      <use xlink:href="#TimesNewRomanPSMT-28" x="505.517578"/>
      <use xlink:href="#TimesNewRomanPSMT-73" x="538.818359"/>
      <use xlink:href="#TimesNewRomanPSMT-61" x="577.734375"/>
      <use xlink:href="#TimesNewRomanPSMT-6d" x="622.119141"/>
      <use xlink:href="#TimesNewRomanPSMT-70" x="699.902344"/>
      <use xlink:href="#TimesNewRomanPSMT-6c" x="749.902344"/>
      <use xlink:href="#TimesNewRomanPSMT-65" x="777.685547"/>
      <use xlink:href="#TimesNewRomanPSMT-73" x="822.070312"/>
      <use xlink:href="#TimesNewRomanPSMT-29" x="860.986328"/>
     </g>
    </g>
    <g id="line2d_21">
     <path d="M 71.574219 86.865937 
L 86.574219 86.865937 
L 101.574219 86.865937 
" style="fill: none; stroke: #ff0000; stroke-width: 1.5; stroke-linecap: square"/>
    </g>
    <g id="text_21">
     <!-- s1 Gaussian (moment-matching) -->
     <g transform="translate(113.574219 92.115937) scale(0.15 -0.15)">
      <defs>
       <path id="TimesNewRomanPSMT-2d" d="M 259 1672 
L 1875 1672 
L 1875 1200 
L 259 1200 
L 259 1672 
z
" transform="scale(0.015625)"/>
      </defs>
      <use xlink:href="#TimesNewRomanPSMT-73"/>
      <use xlink:href="#TimesNewRomanPSMT-31" x="38.916016"/>
      <use xlink:href="#TimesNewRomanPSMT-20" x="88.916016"/>
      <use xlink:href="#TimesNewRomanPSMT-47" x="113.916016"/>
      <use xlink:href="#TimesNewRomanPSMT-61" x="186.132812"/>
      <use xlink:href="#TimesNewRomanPSMT-75" x="230.517578"/>
      <use xlink:href="#TimesNewRomanPSMT-73" x="280.517578"/>
      <use xlink:href="#TimesNewRomanPSMT-73" x="319.433594"/>
      <use xlink:href="#TimesNewRomanPSMT-69" x="358.349609"/>
      <use xlink:href="#TimesNewRomanPSMT-61" x="386.132812"/>
      <use xlink:href="#TimesNewRomanPSMT-6e" x="430.517578"/>
      <use xlink:href="#TimesNewRomanPSMT-20" x="480.517578"/>
      <use xlink:href="#TimesNewRomanPSMT-28" x="505.517578"/>
      <use xlink:href="#TimesNewRomanPSMT-6d" x="538.818359"/>
      <use xlink:href="#TimesNewRomanPSMT-6f" x="616.601562"/>
      <use xlink:href="#TimesNewRomanPSMT-6d" x="666.601562"/>
      <use xlink:href="#TimesNewRomanPSMT-65" x="744.384766"/>
      <use xlink:href="#TimesNewRomanPSMT-6e" x="788.769531"/>
      <use xlink:href="#TimesNewRomanPSMT-74" x="838.769531"/>
      <use xlink:href="#TimesNewRomanPSMT-2d" x="866.552734"/>
      <use xlink:href="#TimesNewRomanPSMT-6d" x="899.853516"/>
      <use xlink:href="#TimesNewRomanPSMT-61" x="977.636719"/>
      <use xlink:href="#TimesNewRomanPSMT-74" x="1022.021484"/>
      <use xlink:href="#TimesNewRomanPSMT-63" x="1049.804688"/>
      <use xlink:href="#TimesNewRomanPSMT-68" x="1094.189453"/>
      <use xlink:href="#TimesNewRomanPSMT-69" x="1144.189453"/>
      <use xlink:href="#TimesNewRomanPSMT-6e" x="1171.972656"/>
      <use xlink:href="#TimesNewRomanPSMT-67" x="1221.972656"/>
      <use xlink:href="#TimesNewRomanPSMT-29" x="1271.972656"/>
     </g>
    </g>
    <g id="patch_109">
     <path d="M 71.574219 113.352656 
L 101.574219 113.352656 
L 101.574219 102.852656 
L 71.574219 102.852656 
z
" style="fill: #ffa500"/>
    </g>
    <g id="text_22">
     <!-- s2 samples -->
     <g transform="translate(113.574219 113.352656) scale(0.15 -0.15)">
      <use xlink:href="#TimesNewRomanPSMT-73"/>
      <use xlink:href="#TimesNewRomanPSMT-32" x="38.916016"/>
      <use xlink:href="#TimesNewRomanPSMT-20" x="88.916016"/>
      <use xlink:href="#TimesNewRomanPSMT-73" x="113.916016"/>
      <use xlink:href="#TimesNewRomanPSMT-61" x="152.832031"/>
      <use xlink:href="#TimesNewRomanPSMT-6d" x="197.216797"/>
      <use xlink:href="#TimesNewRomanPSMT-70" x="275"/>
      <use xlink:href="#TimesNewRomanPSMT-6c" x="325"/>
      <use xlink:href="#TimesNewRomanPSMT-65" x="352.783203"/>
      <use xlink:href="#TimesNewRomanPSMT-73" x="397.167969"/>
     </g>
    </g>
    <g id="line2d_22">
     <path d="M 71.574219 129.31125 
L 86.574219 129.31125 
L 101.574219 129.31125 
" style="fill: none; stroke: #008000; stroke-width: 1.5; stroke-linecap: square"/>
    </g>
    <g id="text_23">
     <!-- s2 Gaussian (samples) -->
     <g transform="translate(113.574219 134.56125) scale(0.15 -0.15)">
      <use xlink:href="#TimesNewRomanPSMT-73"/>
      <use xlink:href="#TimesNewRomanPSMT-32" x="38.916016"/>
      <use xlink:href="#TimesNewRomanPSMT-20" x="88.916016"/>
      <use xlink:href="#TimesNewRomanPSMT-47" x="113.916016"/>
      <use xlink:href="#TimesNewRomanPSMT-61" x="186.132812"/>
      <use xlink:href="#TimesNewRomanPSMT-75" x="230.517578"/>
      <use xlink:href="#TimesNewRomanPSMT-73" x="280.517578"/>
      <use xlink:href="#TimesNewRomanPSMT-73" x="319.433594"/>
      <use xlink:href="#TimesNewRomanPSMT-69" x="358.349609"/>
      <use xlink:href="#TimesNewRomanPSMT-61" x="386.132812"/>
      <use xlink:href="#TimesNewRomanPSMT-6e" x="430.517578"/>
      <use xlink:href="#TimesNewRomanPSMT-20" x="480.517578"/>
      <use xlink:href="#TimesNewRomanPSMT-28" x="505.517578"/>
      <use xlink:href="#TimesNewRomanPSMT-73" x="538.818359"/>
      <use xlink:href="#TimesNewRomanPSMT-61" x="577.734375"/>
      <use xlink:href="#TimesNewRomanPSMT-6d" x="622.119141"/>
      <use xlink:href="#TimesNewRomanPSMT-70" x="699.902344"/>
      <use xlink:href="#TimesNewRomanPSMT-6c" x="749.902344"/>
      <use xlink:href="#TimesNewRomanPSMT-65" x="777.685547"/>
      <use xlink:href="#TimesNewRomanPSMT-73" x="822.070312"/>
      <use xlink:href="#TimesNewRomanPSMT-29" x="860.986328"/>
     </g>
    </g>
    <g id="line2d_23">
     <path d="M 71.574219 150.519844 
L 86.574219 150.519844 
L 101.574219 150.519844 
" style="fill: none; stroke: #ff0000; stroke-width: 1.5; stroke-linecap: square"/>
    </g>
    <g id="text_24">
     <!-- s2 Gaussian (moment-matching) -->
     <g transform="translate(113.574219 155.769844) scale(0.15 -0.15)">
      <use xlink:href="#TimesNewRomanPSMT-73"/>
      <use xlink:href="#TimesNewRomanPSMT-32" x="38.916016"/>
      <use xlink:href="#TimesNewRomanPSMT-20" x="88.916016"/>
      <use xlink:href="#TimesNewRomanPSMT-47" x="113.916016"/>
      <use xlink:href="#TimesNewRomanPSMT-61" x="186.132812"/>
      <use xlink:href="#TimesNewRomanPSMT-75" x="230.517578"/>
      <use xlink:href="#TimesNewRomanPSMT-73" x="280.517578"/>
      <use xlink:href="#TimesNewRomanPSMT-73" x="319.433594"/>
      <use xlink:href="#TimesNewRomanPSMT-69" x="358.349609"/>
      <use xlink:href="#TimesNewRomanPSMT-61" x="386.132812"/>
      <use xlink:href="#TimesNewRomanPSMT-6e" x="430.517578"/>
      <use xlink:href="#TimesNewRomanPSMT-20" x="480.517578"/>
      <use xlink:href="#TimesNewRomanPSMT-28" x="505.517578"/>
      <use xlink:href="#TimesNewRomanPSMT-6d" x="538.818359"/>
      <use xlink:href="#TimesNewRomanPSMT-6f" x="616.601562"/>
      <use xlink:href="#TimesNewRomanPSMT-6d" x="666.601562"/>
      <use xlink:href="#TimesNewRomanPSMT-65" x="744.384766"/>
      <use xlink:href="#TimesNewRomanPSMT-6e" x="788.769531"/>
      <use xlink:href="#TimesNewRomanPSMT-74" x="838.769531"/>
      <use xlink:href="#TimesNewRomanPSMT-2d" x="866.552734"/>
      <use xlink:href="#TimesNewRomanPSMT-6d" x="899.853516"/>
      <use xlink:href="#TimesNewRomanPSMT-61" x="977.636719"/>
      <use xlink:href="#TimesNewRomanPSMT-74" x="1022.021484"/>
      <use xlink:href="#TimesNewRomanPSMT-63" x="1049.804688"/>
      <use xlink:href="#TimesNewRomanPSMT-68" x="1094.189453"/>
      <use xlink:href="#TimesNewRomanPSMT-69" x="1144.189453"/>
      <use xlink:href="#TimesNewRomanPSMT-6e" x="1171.972656"/>
      <use xlink:href="#TimesNewRomanPSMT-67" x="1221.972656"/>
      <use xlink:href="#TimesNewRomanPSMT-29" x="1271.972656"/>
     </g>
    </g>
   </g>
  </g>
 </g>
 <defs>
  <clipPath id="pc38d15e7be">
   <rect x="58.074219" y="25.69875" width="669.6" height="332.64"/>
  </clipPath>
 </defs>
</svg>
