<?xml version="1.0" encoding="utf-8" standalone="no"?>
<!DOCTYPE svg PUBLIC "-//W3C//DTD SVG 1.1//EN"
  "http://www.w3.org/Graphics/SVG/1.1/DTD/svg11.dtd">
<svg xmlns:xlink="http://www.w3.org/1999/xlink" width="734.902344pt" height="403.787187pt" viewBox="0 0 734.902344 403.787187" xmlns="http://www.w3.org/2000/svg" version="1.1">
 <metadata>
  <rdf:RDF xmlns:dc="http://purl.org/dc/elements/1.1/" xmlns:cc="http://creativecommons.org/ns#" xmlns:rdf="http://www.w3.org/1999/02/22-rdf-syntax-ns#">
   <cc:Work>
    <dc:type rdf:resource="http://purl.org/dc/dcmitype/StillImage"/>
    <dc:date>2023-10-17T13:59:05.541270</dc:date>
    <dc:format>image/svg+xml</dc:format>
    <dc:creator>
     <cc:Agent>
      <dc:title>Matplotlib v3.8.0, https://matplotlib.org/</dc:title>
     </cc:Agent>
    </dc:creator>
   </cc:Work>
  </rdf:RDF>
 </metadata>
 <defs>
  <style type="text/css">*{stroke-linejoin: round; stroke-linecap: butt}</style>
 </defs>
 <g id="figure_1">
  <g id="patch_1">
   <path d="M 0 403.787187 
L 734.902344 403.787187 
L 734.902344 0 
L 0 0 
z
" style="fill: #ffffff"/>
  </g>
  <g id="axes_1">
   <g id="patch_2">
    <path d="M 58.102344 358.33875 
L 727.702344 358.33875 
L 727.702344 25.69875 
L 58.102344 25.69875 
z
" style="fill: #ffffff"/>
   </g>
   <g id="matplotlib.axis_1">
    <g id="xtick_1">
     <g id="line2d_1">
      <defs>
       <path id="mb1ae5c9c0d" d="M 0 0 
L 0 3.5 
" style="stroke: #000000; stroke-width: 0.8"/>
      </defs>
      <g>
       <use xlink:href="#mb1ae5c9c0d" x="88.538707" y="358.33875" style="stroke: #000000; stroke-width: 0.8"/>
      </g>
     </g>
     <g id="text_1">
      <!-- 0 -->
      <g transform="translate(84.788707 375.754375) scale(0.15 -0.15)">
       <defs>
        <path id="TimesNewRomanPSMT-30" d="M 231 2094 
Q 231 2819 450 3342 
Q 669 3866 1031 4122 
Q 1313 4325 1613 4325 
Q 2100 4325 2488 3828 
Q 2972 3213 2972 2159 
Q 2972 1422 2759 906 
Q 2547 391 2217 158 
Q 1888 -75 1581 -75 
Q 975 -75 572 641 
Q 231 1244 231 2094 
z
M 844 2016 
Q 844 1141 1059 588 
Q 1238 122 1591 122 
Q 1759 122 1940 273 
Q 2122 425 2216 781 
Q 2359 1319 2359 2297 
Q 2359 3022 2209 3506 
Q 2097 3866 1919 4016 
Q 1791 4119 1609 4119 
Q 1397 4119 1231 3928 
Q 1006 3669 925 3112 
Q 844 2556 844 2016 
z
" transform="scale(0.015625)"/>
       </defs>
       <use xlink:href="#TimesNewRomanPSMT-30"/>
      </g>
     </g>
    </g>
    <g id="xtick_2">
     <g id="line2d_2">
      <g>
       <use xlink:href="#mb1ae5c9c0d" x="210.284162" y="358.33875" style="stroke: #000000; stroke-width: 0.8"/>
      </g>
     </g>
     <g id="text_2">
      <!-- 10 -->
      <g transform="translate(202.784162 375.754375) scale(0.15 -0.15)">
       <defs>
        <path id="TimesNewRomanPSMT-31" d="M 750 3822 
L 1781 4325 
L 1884 4325 
L 1884 747 
Q 1884 391 1914 303 
Q 1944 216 2037 169 
Q 2131 122 2419 116 
L 2419 0 
L 825 0 
L 825 116 
Q 1125 122 1212 167 
Q 1300 213 1334 289 
Q 1369 366 1369 747 
L 1369 3034 
Q 1369 3497 1338 3628 
Q 1316 3728 1258 3775 
Q 1200 3822 1119 3822 
Q 1003 3822 797 3725 
L 750 3822 
z
" transform="scale(0.015625)"/>
       </defs>
       <use xlink:href="#TimesNewRomanPSMT-31"/>
       <use xlink:href="#TimesNewRomanPSMT-30" x="50"/>
      </g>
     </g>
    </g>
    <g id="xtick_3">
     <g id="line2d_3">
      <g>
       <use xlink:href="#mb1ae5c9c0d" x="332.029616" y="358.33875" style="stroke: #000000; stroke-width: 0.8"/>
      </g>
     </g>
     <g id="text_3">
      <!-- 20 -->
      <g transform="translate(324.529616 375.754375) scale(0.15 -0.15)">
       <defs>
        <path id="TimesNewRomanPSMT-32" d="M 2934 816 
L 2638 0 
L 138 0 
L 138 116 
Q 1241 1122 1691 1759 
Q 2141 2397 2141 2925 
Q 2141 3328 1894 3587 
Q 1647 3847 1303 3847 
Q 991 3847 742 3664 
Q 494 3481 375 3128 
L 259 3128 
Q 338 3706 661 4015 
Q 984 4325 1469 4325 
Q 1984 4325 2329 3994 
Q 2675 3663 2675 3213 
Q 2675 2891 2525 2569 
Q 2294 2063 1775 1497 
Q 997 647 803 472 
L 1909 472 
Q 2247 472 2383 497 
Q 2519 522 2628 598 
Q 2738 675 2819 816 
L 2934 816 
z
" transform="scale(0.015625)"/>
       </defs>
       <use xlink:href="#TimesNewRomanPSMT-32"/>
       <use xlink:href="#TimesNewRomanPSMT-30" x="50"/>
      </g>
     </g>
    </g>
    <g id="xtick_4">
     <g id="line2d_4">
      <g>
       <use xlink:href="#mb1ae5c9c0d" x="453.775071" y="358.33875" style="stroke: #000000; stroke-width: 0.8"/>
      </g>
     </g>
     <g id="text_4">
      <!-- 30 -->
      <g transform="translate(446.275071 375.754375) scale(0.15 -0.15)">
       <defs>
        <path id="TimesNewRomanPSMT-33" d="M 325 3431 
Q 506 3859 782 4092 
Q 1059 4325 1472 4325 
Q 1981 4325 2253 3994 
Q 2459 3747 2459 3466 
Q 2459 3003 1878 2509 
Q 2269 2356 2469 2072 
Q 2669 1788 2669 1403 
Q 2669 853 2319 450 
Q 1863 -75 997 -75 
Q 569 -75 414 31 
Q 259 138 259 259 
Q 259 350 332 419 
Q 406 488 509 488 
Q 588 488 669 463 
Q 722 447 909 348 
Q 1097 250 1169 231 
Q 1284 197 1416 197 
Q 1734 197 1970 444 
Q 2206 691 2206 1028 
Q 2206 1275 2097 1509 
Q 2016 1684 1919 1775 
Q 1784 1900 1550 2001 
Q 1316 2103 1072 2103 
L 972 2103 
L 972 2197 
Q 1219 2228 1467 2375 
Q 1716 2522 1828 2728 
Q 1941 2934 1941 3181 
Q 1941 3503 1739 3701 
Q 1538 3900 1238 3900 
Q 753 3900 428 3381 
L 325 3431 
z
" transform="scale(0.015625)"/>
       </defs>
       <use xlink:href="#TimesNewRomanPSMT-33"/>
       <use xlink:href="#TimesNewRomanPSMT-30" x="50"/>
      </g>
     </g>
    </g>
    <g id="xtick_5">
     <g id="line2d_5">
      <g>
       <use xlink:href="#mb1ae5c9c0d" x="575.520526" y="358.33875" style="stroke: #000000; stroke-width: 0.8"/>
      </g>
     </g>
     <g id="text_5">
      <!-- 40 -->
      <g transform="translate(568.020526 375.754375) scale(0.15 -0.15)">
       <defs>
        <path id="TimesNewRomanPSMT-34" d="M 2978 1563 
L 2978 1119 
L 2409 1119 
L 2409 0 
L 1894 0 
L 1894 1119 
L 100 1119 
L 100 1519 
L 2066 4325 
L 2409 4325 
L 2409 1563 
L 2978 1563 
z
M 1894 1563 
L 1894 3666 
L 406 1563 
L 1894 1563 
z
" transform="scale(0.015625)"/>
       </defs>
       <use xlink:href="#TimesNewRomanPSMT-34"/>
       <use xlink:href="#TimesNewRomanPSMT-30" x="50"/>
      </g>
     </g>
    </g>
    <g id="xtick_6">
     <g id="line2d_6">
      <g>
       <use xlink:href="#mb1ae5c9c0d" x="697.26598" y="358.33875" style="stroke: #000000; stroke-width: 0.8"/>
      </g>
     </g>
     <g id="text_6">
      <!-- 50 -->
      <g transform="translate(689.76598 375.754375) scale(0.15 -0.15)">
       <defs>
        <path id="TimesNewRomanPSMT-35" d="M 2778 4238 
L 2534 3706 
L 1259 3706 
L 981 3138 
Q 1809 3016 2294 2522 
Q 2709 2097 2709 1522 
Q 2709 1188 2573 903 
Q 2438 619 2231 419 
Q 2025 219 1772 97 
Q 1413 -75 1034 -75 
Q 653 -75 479 54 
Q 306 184 306 341 
Q 306 428 378 495 
Q 450 563 559 563 
Q 641 563 702 538 
Q 763 513 909 409 
Q 1144 247 1384 247 
Q 1750 247 2026 523 
Q 2303 800 2303 1197 
Q 2303 1581 2056 1914 
Q 1809 2247 1375 2428 
Q 1034 2569 447 2591 
L 1259 4238 
L 2778 4238 
z
" transform="scale(0.015625)"/>
       </defs>
       <use xlink:href="#TimesNewRomanPSMT-35"/>
       <use xlink:href="#TimesNewRomanPSMT-30" x="50"/>
      </g>
     </g>
    </g>
    <g id="text_7">
     <!-- s1, s2 -->
     <g transform="translate(375.814062 393.378594) scale(0.15 -0.15)">
      <defs>
       <path id="TimesNewRomanPSMT-73" d="M 2050 2947 
L 2050 1972 
L 1947 1972 
Q 1828 2431 1642 2597 
Q 1456 2763 1169 2763 
Q 950 2763 815 2647 
Q 681 2531 681 2391 
Q 681 2216 781 2091 
Q 878 1963 1175 1819 
L 1631 1597 
Q 2266 1288 2266 781 
Q 2266 391 1970 151 
Q 1675 -88 1309 -88 
Q 1047 -88 709 6 
Q 606 38 541 38 
Q 469 38 428 -44 
L 325 -44 
L 325 978 
L 428 978 
Q 516 541 762 319 
Q 1009 97 1316 97 
Q 1531 97 1667 223 
Q 1803 350 1803 528 
Q 1803 744 1651 891 
Q 1500 1038 1047 1263 
Q 594 1488 453 1669 
Q 313 1847 313 2119 
Q 313 2472 555 2709 
Q 797 2947 1181 2947 
Q 1350 2947 1591 2875 
Q 1750 2828 1803 2828 
Q 1853 2828 1881 2850 
Q 1909 2872 1947 2947 
L 2050 2947 
z
" transform="scale(0.015625)"/>
       <path id="TimesNewRomanPSMT-2c" d="M 344 -1066 
L 344 -928 
Q 666 -822 842 -598 
Q 1019 -375 1019 -125 
Q 1019 -66 991 -25 
Q 969 3 947 3 
Q 913 3 797 -59 
Q 741 -88 678 -88 
Q 525 -88 434 3 
Q 344 94 344 253 
Q 344 406 461 515 
Q 578 625 747 625 
Q 953 625 1114 445 
Q 1275 266 1275 -31 
Q 1275 -353 1051 -629 
Q 828 -906 344 -1066 
z
" transform="scale(0.015625)"/>
       <path id="TimesNewRomanPSMT-20" transform="scale(0.015625)"/>
      </defs>
      <use xlink:href="#TimesNewRomanPSMT-73"/>
      <use xlink:href="#TimesNewRomanPSMT-31" x="38.916016"/>
      <use xlink:href="#TimesNewRomanPSMT-2c" x="88.916016"/>
      <use xlink:href="#TimesNewRomanPSMT-20" x="113.916016"/>
      <use xlink:href="#TimesNewRomanPSMT-73" x="138.916016"/>
      <use xlink:href="#TimesNewRomanPSMT-32" x="177.832031"/>
     </g>
    </g>
   </g>
   <g id="matplotlib.axis_2">
    <g id="ytick_1">
     <g id="line2d_7">
      <defs>
       <path id="me04b1d35f0" d="M 0 0 
L -3.5 0 
" style="stroke: #000000; stroke-width: 0.8"/>
      </defs>
      <g>
       <use xlink:href="#me04b1d35f0" x="58.102344" y="343.267709" style="stroke: #000000; stroke-width: 0.8"/>
      </g>
     </g>
     <g id="text_8">
      <!-- 0.00 -->
      <g transform="translate(24.852344 348.475521) scale(0.15 -0.15)">
       <defs>
        <path id="TimesNewRomanPSMT-2e" d="M 800 606 
Q 947 606 1047 504 
Q 1147 403 1147 259 
Q 1147 116 1045 14 
Q 944 -88 800 -88 
Q 656 -88 554 14 
Q 453 116 453 259 
Q 453 406 554 506 
Q 656 606 800 606 
z
" transform="scale(0.015625)"/>
       </defs>
       <use xlink:href="#TimesNewRomanPSMT-30"/>
       <use xlink:href="#TimesNewRomanPSMT-2e" x="50"/>
       <use xlink:href="#TimesNewRomanPSMT-30" x="75"/>
       <use xlink:href="#TimesNewRomanPSMT-30" x="125"/>
      </g>
     </g>
    </g>
    <g id="ytick_2">
     <g id="line2d_8">
      <g>
       <use xlink:href="#me04b1d35f0" x="58.102344" y="289.865453" style="stroke: #000000; stroke-width: 0.8"/>
      </g>
     </g>
     <g id="text_9">
      <!-- 0.01 -->
      <g transform="translate(24.852344 295.073266) scale(0.15 -0.15)">
       <use xlink:href="#TimesNewRomanPSMT-30"/>
       <use xlink:href="#TimesNewRomanPSMT-2e" x="50"/>
       <use xlink:href="#TimesNewRomanPSMT-30" x="75"/>
       <use xlink:href="#TimesNewRomanPSMT-31" x="125"/>
      </g>
     </g>
    </g>
    <g id="ytick_3">
     <g id="line2d_9">
      <g>
       <use xlink:href="#me04b1d35f0" x="58.102344" y="236.463198" style="stroke: #000000; stroke-width: 0.8"/>
      </g>
     </g>
     <g id="text_10">
      <!-- 0.02 -->
      <g transform="translate(24.852344 241.67101) scale(0.15 -0.15)">
       <use xlink:href="#TimesNewRomanPSMT-30"/>
       <use xlink:href="#TimesNewRomanPSMT-2e" x="50"/>
       <use xlink:href="#TimesNewRomanPSMT-30" x="75"/>
       <use xlink:href="#TimesNewRomanPSMT-32" x="125"/>
      </g>
     </g>
    </g>
    <g id="ytick_4">
     <g id="line2d_10">
      <g>
       <use xlink:href="#me04b1d35f0" x="58.102344" y="183.060942" style="stroke: #000000; stroke-width: 0.8"/>
      </g>
     </g>
     <g id="text_11">
      <!-- 0.03 -->
      <g transform="translate(24.852344 188.268755) scale(0.15 -0.15)">
       <use xlink:href="#TimesNewRomanPSMT-30"/>
       <use xlink:href="#TimesNewRomanPSMT-2e" x="50"/>
       <use xlink:href="#TimesNewRomanPSMT-30" x="75"/>
       <use xlink:href="#TimesNewRomanPSMT-33" x="125"/>
      </g>
     </g>
    </g>
    <g id="ytick_5">
     <g id="line2d_11">
      <g>
       <use xlink:href="#me04b1d35f0" x="58.102344" y="129.658687" style="stroke: #000000; stroke-width: 0.8"/>
      </g>
     </g>
     <g id="text_12">
      <!-- 0.04 -->
      <g transform="translate(24.852344 134.866499) scale(0.15 -0.15)">
       <use xlink:href="#TimesNewRomanPSMT-30"/>
       <use xlink:href="#TimesNewRomanPSMT-2e" x="50"/>
       <use xlink:href="#TimesNewRomanPSMT-30" x="75"/>
       <use xlink:href="#TimesNewRomanPSMT-34" x="125"/>
      </g>
     </g>
    </g>
    <g id="ytick_6">
     <g id="line2d_12">
      <g>
       <use xlink:href="#me04b1d35f0" x="58.102344" y="76.256431" style="stroke: #000000; stroke-width: 0.8"/>
      </g>
     </g>
     <g id="text_13">
      <!-- 0.05 -->
      <g transform="translate(24.852344 81.464244) scale(0.15 -0.15)">
       <use xlink:href="#TimesNewRomanPSMT-30"/>
       <use xlink:href="#TimesNewRomanPSMT-2e" x="50"/>
       <use xlink:href="#TimesNewRomanPSMT-30" x="75"/>
       <use xlink:href="#TimesNewRomanPSMT-35" x="125"/>
      </g>
     </g>
    </g>
    <g id="text_14">
     <!-- Probability -->
     <g transform="translate(17.615625 225.350391) rotate(-90) scale(0.15 -0.15)">
      <defs>
       <path id="TimesNewRomanPSMT-50" d="M 1313 1984 
L 1313 750 
Q 1313 350 1400 253 
Q 1519 116 1759 116 
L 1922 116 
L 1922 0 
L 106 0 
L 106 116 
L 266 116 
Q 534 116 650 291 
Q 713 388 713 750 
L 713 3488 
Q 713 3888 628 3984 
Q 506 4122 266 4122 
L 106 4122 
L 106 4238 
L 1659 4238 
Q 2228 4238 2556 4120 
Q 2884 4003 3109 3725 
Q 3334 3447 3334 3066 
Q 3334 2547 2992 2222 
Q 2650 1897 2025 1897 
Q 1872 1897 1694 1919 
Q 1516 1941 1313 1984 
z
M 1313 2163 
Q 1478 2131 1606 2115 
Q 1734 2100 1825 2100 
Q 2150 2100 2386 2351 
Q 2622 2603 2622 3003 
Q 2622 3278 2509 3514 
Q 2397 3750 2190 3867 
Q 1984 3984 1722 3984 
Q 1563 3984 1313 3925 
L 1313 2163 
z
" transform="scale(0.015625)"/>
       <path id="TimesNewRomanPSMT-72" d="M 1038 2947 
L 1038 2303 
Q 1397 2947 1775 2947 
Q 1947 2947 2059 2842 
Q 2172 2738 2172 2600 
Q 2172 2478 2090 2393 
Q 2009 2309 1897 2309 
Q 1788 2309 1652 2417 
Q 1516 2525 1450 2525 
Q 1394 2525 1328 2463 
Q 1188 2334 1038 2041 
L 1038 669 
Q 1038 431 1097 309 
Q 1138 225 1241 169 
Q 1344 113 1538 113 
L 1538 0 
L 72 0 
L 72 113 
Q 291 113 397 181 
Q 475 231 506 341 
Q 522 394 522 644 
L 522 1753 
Q 522 2253 501 2348 
Q 481 2444 426 2487 
Q 372 2531 291 2531 
Q 194 2531 72 2484 
L 41 2597 
L 906 2947 
L 1038 2947 
z
" transform="scale(0.015625)"/>
       <path id="TimesNewRomanPSMT-6f" d="M 1600 2947 
Q 2250 2947 2644 2453 
Q 2978 2031 2978 1484 
Q 2978 1100 2793 706 
Q 2609 313 2286 112 
Q 1963 -88 1566 -88 
Q 919 -88 538 428 
Q 216 863 216 1403 
Q 216 1797 411 2186 
Q 606 2575 925 2761 
Q 1244 2947 1600 2947 
z
M 1503 2744 
Q 1338 2744 1170 2645 
Q 1003 2547 900 2300 
Q 797 2053 797 1666 
Q 797 1041 1045 587 
Q 1294 134 1700 134 
Q 2003 134 2200 384 
Q 2397 634 2397 1244 
Q 2397 2006 2069 2444 
Q 1847 2744 1503 2744 
z
" transform="scale(0.015625)"/>
       <path id="TimesNewRomanPSMT-62" d="M 984 2369 
Q 1400 2947 1881 2947 
Q 2322 2947 2650 2570 
Q 2978 2194 2978 1541 
Q 2978 778 2472 313 
Q 2038 -88 1503 -88 
Q 1253 -88 995 3 
Q 738 94 469 275 
L 469 3241 
Q 469 3728 445 3840 
Q 422 3953 372 3993 
Q 322 4034 247 4034 
Q 159 4034 28 3984 
L -16 4094 
L 844 4444 
L 984 4444 
L 984 2369 
z
M 984 2169 
L 984 456 
Q 1144 300 1314 220 
Q 1484 141 1663 141 
Q 1947 141 2192 453 
Q 2438 766 2438 1363 
Q 2438 1913 2192 2208 
Q 1947 2503 1634 2503 
Q 1469 2503 1303 2419 
Q 1178 2356 984 2169 
z
" transform="scale(0.015625)"/>
       <path id="TimesNewRomanPSMT-61" d="M 1822 413 
Q 1381 72 1269 19 
Q 1100 -59 909 -59 
Q 613 -59 420 144 
Q 228 347 228 678 
Q 228 888 322 1041 
Q 450 1253 767 1440 
Q 1084 1628 1822 1897 
L 1822 2009 
Q 1822 2438 1686 2597 
Q 1550 2756 1291 2756 
Q 1094 2756 978 2650 
Q 859 2544 859 2406 
L 866 2225 
Q 866 2081 792 2003 
Q 719 1925 600 1925 
Q 484 1925 411 2006 
Q 338 2088 338 2228 
Q 338 2497 613 2722 
Q 888 2947 1384 2947 
Q 1766 2947 2009 2819 
Q 2194 2722 2281 2516 
Q 2338 2381 2338 1966 
L 2338 994 
Q 2338 584 2353 492 
Q 2369 400 2405 369 
Q 2441 338 2488 338 
Q 2538 338 2575 359 
Q 2641 400 2828 588 
L 2828 413 
Q 2478 -56 2159 -56 
Q 2006 -56 1915 50 
Q 1825 156 1822 413 
z
M 1822 616 
L 1822 1706 
Q 1350 1519 1213 1441 
Q 966 1303 859 1153 
Q 753 1003 753 825 
Q 753 600 887 451 
Q 1022 303 1197 303 
Q 1434 303 1822 616 
z
" transform="scale(0.015625)"/>
       <path id="TimesNewRomanPSMT-69" d="M 928 4444 
Q 1059 4444 1151 4351 
Q 1244 4259 1244 4128 
Q 1244 3997 1151 3903 
Q 1059 3809 928 3809 
Q 797 3809 703 3903 
Q 609 3997 609 4128 
Q 609 4259 701 4351 
Q 794 4444 928 4444 
z
M 1188 2947 
L 1188 647 
Q 1188 378 1227 289 
Q 1266 200 1342 156 
Q 1419 113 1622 113 
L 1622 0 
L 231 0 
L 231 113 
Q 441 113 512 153 
Q 584 194 626 287 
Q 669 381 669 647 
L 669 1750 
Q 669 2216 641 2353 
Q 619 2453 572 2492 
Q 525 2531 444 2531 
Q 356 2531 231 2484 
L 188 2597 
L 1050 2947 
L 1188 2947 
z
" transform="scale(0.015625)"/>
       <path id="TimesNewRomanPSMT-6c" d="M 1184 4444 
L 1184 647 
Q 1184 378 1223 290 
Q 1263 203 1344 158 
Q 1425 113 1647 113 
L 1647 0 
L 244 0 
L 244 113 
Q 441 113 512 153 
Q 584 194 625 287 
Q 666 381 666 647 
L 666 3247 
Q 666 3731 644 3842 
Q 622 3953 573 3993 
Q 525 4034 450 4034 
Q 369 4034 244 3984 
L 191 4094 
L 1044 4444 
L 1184 4444 
z
" transform="scale(0.015625)"/>
       <path id="TimesNewRomanPSMT-74" d="M 1031 3803 
L 1031 2863 
L 1700 2863 
L 1700 2644 
L 1031 2644 
L 1031 788 
Q 1031 509 1111 412 
Q 1191 316 1316 316 
Q 1419 316 1516 380 
Q 1613 444 1666 569 
L 1788 569 
Q 1678 263 1478 108 
Q 1278 -47 1066 -47 
Q 922 -47 784 33 
Q 647 113 581 261 
Q 516 409 516 719 
L 516 2644 
L 63 2644 
L 63 2747 
Q 234 2816 414 2980 
Q 594 3144 734 3369 
Q 806 3488 934 3803 
L 1031 3803 
z
" transform="scale(0.015625)"/>
       <path id="TimesNewRomanPSMT-79" d="M 38 2863 
L 1372 2863 
L 1372 2747 
L 1306 2747 
Q 1166 2747 1095 2686 
Q 1025 2625 1025 2534 
Q 1025 2413 1128 2197 
L 1825 753 
L 2466 2334 
Q 2519 2463 2519 2588 
Q 2519 2644 2497 2672 
Q 2472 2706 2419 2726 
Q 2366 2747 2231 2747 
L 2231 2863 
L 3163 2863 
L 3163 2747 
Q 3047 2734 2984 2696 
Q 2922 2659 2847 2556 
Q 2819 2513 2741 2316 
L 1575 -541 
Q 1406 -956 1132 -1168 
Q 859 -1381 606 -1381 
Q 422 -1381 303 -1275 
Q 184 -1169 184 -1031 
Q 184 -900 270 -820 
Q 356 -741 506 -741 
Q 609 -741 788 -809 
Q 913 -856 944 -856 
Q 1038 -856 1148 -759 
Q 1259 -663 1372 -384 
L 1575 113 
L 547 2272 
Q 500 2369 397 2513 
Q 319 2622 269 2659 
Q 197 2709 38 2747 
L 38 2863 
z
" transform="scale(0.015625)"/>
      </defs>
      <use xlink:href="#TimesNewRomanPSMT-50"/>
      <use xlink:href="#TimesNewRomanPSMT-72" x="55.615234"/>
      <use xlink:href="#TimesNewRomanPSMT-6f" x="88.916016"/>
      <use xlink:href="#TimesNewRomanPSMT-62" x="138.916016"/>
      <use xlink:href="#TimesNewRomanPSMT-61" x="188.916016"/>
      <use xlink:href="#TimesNewRomanPSMT-62" x="233.300781"/>
      <use xlink:href="#TimesNewRomanPSMT-69" x="283.300781"/>
      <use xlink:href="#TimesNewRomanPSMT-6c" x="311.083984"/>
      <use xlink:href="#TimesNewRomanPSMT-69" x="338.867188"/>
      <use xlink:href="#TimesNewRomanPSMT-74" x="366.650391"/>
      <use xlink:href="#TimesNewRomanPSMT-79" x="394.433594"/>
     </g>
    </g>
   </g>
   <g id="line2d_13">
    <path d="M 88.538707 343.215152 
L 94.687468 343.197174 
L 100.836228 343.173526 
L 106.984988 343.142589 
L 113.133749 343.102333 
L 119.282509 343.050234 
L 125.431269 342.983175 
L 131.58003 342.897327 
L 137.72879 342.788025 
L 143.87755 342.64962 
L 150.026311 342.475324 
L 156.175071 342.257035 
L 162.323831 341.985153 
L 168.472592 341.648395 
L 174.621352 341.233592 
L 180.770112 340.725503 
L 186.918873 340.10663 
L 193.067633 339.35705 
L 199.216393 338.454282 
L 205.365154 337.373186 
L 211.513914 336.085916 
L 217.662674 334.561944 
L 223.811435 332.768153 
L 229.960195 330.669035 
L 236.108955 328.22699 
L 242.257716 325.402741 
L 248.406476 322.155884 
L 254.555236 318.44557 
L 260.703997 314.231325 
L 266.852757 309.474009 
L 273.001517 304.136899 
L 279.150278 298.186887 
L 285.299038 291.595777 
L 291.447798 284.341641 
L 297.596559 276.410211 
L 303.745319 267.796264 
L 309.894079 258.504948 
L 316.04284 248.553003 
L 322.1916 237.969829 
L 328.34036 226.798339 
L 334.489121 215.095546 
L 340.637881 202.932841 
L 346.786641 190.395918 
L 352.935402 177.584305 
L 359.084162 164.610497 
L 365.232922 151.598661 
L 371.381683 138.682936 
L 377.530443 126.005337 
L 383.679203 113.713312 
L 389.827964 101.956995 
L 395.976724 90.88623 
L 402.125484 80.647437 
L 408.274245 71.380421 
L 414.423005 63.215214 
L 420.571765 56.269043 
L 426.720526 50.643536 
L 432.869286 46.422249 
L 439.018046 43.668605 
L 445.166807 42.424302 
L 451.315567 42.708267 
L 457.464327 44.516177 
L 463.613088 47.820565 
L 469.761848 52.571519 
L 475.910608 58.697932 
L 482.059369 66.109277 
L 488.208129 74.697829 
L 494.356889 84.341266 
L 500.50565 94.905569 
L 506.65441 106.248103 
L 512.80317 118.220808 
L 518.951931 130.673372 
L 525.100691 143.456321 
L 531.249451 156.423918 
L 537.398212 169.436804 
L 543.546972 182.364316 
L 549.695732 195.086442 
L 555.844493 207.495373 
L 561.993253 219.496632 
L 568.142013 231.009803 
L 574.290774 241.968841 
L 580.439534 252.322016 
L 586.588294 262.031515 
L 592.737054 271.072747 
L 598.885815 279.433409 
L 605.034575 287.112351 
L 611.183335 294.118312 
L 617.332096 300.468566 
L 623.480856 306.187529 
L 629.629616 311.305374 
L 635.778377 315.856699 
L 641.927137 319.879257 
L 648.075897 323.412805 
L 654.224658 326.498059 
L 660.373418 329.175791 
L 666.522178 331.486059 
L 672.670939 333.467576 
L 678.819699 335.157207 
L 684.968459 336.589601 
L 691.11722 337.796933 
L 697.26598 338.80874 
" clip-path="url(#pd4a3d04577)" style="fill: none; stroke: #0000ff; stroke-width: 1.5; stroke-linecap: square"/>
   </g>
   <g id="line2d_14">
    <path d="M 88.538707 340.42766 
L 94.687468 339.867616 
L 100.836228 339.212057 
L 106.984988 338.44784 
L 113.133749 337.56062 
L 119.282509 336.53486 
L 125.431269 335.353858 
L 131.58003 333.999802 
L 137.72879 332.453861 
L 143.87755 330.696308 
L 150.026311 328.706687 
L 156.175071 326.464012 
L 162.323831 323.94702 
L 168.472592 321.134459 
L 174.621352 318.005429 
L 180.770112 314.539754 
L 186.918873 310.718407 
L 193.067633 306.523963 
L 199.216393 301.94108 
L 205.365154 296.957011 
L 211.513914 291.562123 
L 217.662674 285.750421 
L 223.811435 279.520066 
L 229.960195 272.873868 
L 236.108955 265.819749 
L 242.257716 258.371147 
L 248.406476 250.547369 
L 254.555236 242.373853 
L 260.703997 233.882343 
L 266.852757 225.110962 
L 273.001517 216.104166 
L 279.150278 206.912571 
L 285.299038 197.592654 
L 291.447798 188.206319 
L 297.596559 178.820333 
L 303.745319 169.505624 
L 309.894079 160.336467 
L 316.04284 151.389549 
L 322.1916 142.742951 
L 328.34036 134.475037 
L 334.489121 126.663296 
L 340.637881 119.38315 
L 346.786641 112.706745 
L 352.935402 106.701771 
L 359.084162 101.430322 
L 365.232922 96.947829 
L 371.381683 93.302087 
L 377.530443 90.532413 
L 383.679203 88.668935 
L 389.827964 87.73205 
L 395.976724 87.73205 
L 402.125484 88.668935 
L 408.274245 90.532413 
L 414.423005 93.302087 
L 420.571765 96.947829 
L 426.720526 101.430322 
L 432.869286 106.701771 
L 439.018046 112.706745 
L 445.166807 119.38315 
L 451.315567 126.663296 
L 457.464327 134.475037 
L 463.613088 142.742951 
L 469.761848 151.389549 
L 475.910608 160.336467 
L 482.059369 169.505624 
L 488.208129 178.820333 
L 494.356889 188.206319 
L 500.50565 197.592654 
L 506.65441 206.912571 
L 512.80317 216.104166 
L 518.951931 225.110962 
L 525.100691 233.882343 
L 531.249451 242.373853 
L 537.398212 250.547369 
L 543.546972 258.371147 
L 549.695732 265.819749 
L 555.844493 272.873868 
L 561.993253 279.520066 
L 568.142013 285.750421 
L 574.290774 291.562123 
L 580.439534 296.957011 
L 586.588294 301.94108 
L 592.737054 306.523963 
L 598.885815 310.718407 
L 605.034575 314.539754 
L 611.183335 318.005429 
L 617.332096 321.134459 
L 623.480856 323.94702 
L 629.629616 326.464012 
L 635.778377 328.706687 
L 641.927137 330.696308 
L 648.075897 332.453861 
L 654.224658 333.999802 
L 660.373418 335.353858 
L 666.522178 336.53486 
L 672.670939 337.56062 
L 678.819699 338.44784 
L 684.968459 339.212057 
L 691.11722 339.867616 
L 697.26598 340.42766 
" clip-path="url(#pd4a3d04577)" style="fill: none; stroke: #ff0000; stroke-width: 1.5; stroke-linecap: square"/>
   </g>
   <g id="line2d_15">
    <path d="M 88.538707 339.025364 
L 94.687468 338.050106 
L 100.836228 336.883565 
L 106.984988 335.496281 
L 113.133749 333.856064 
L 119.282509 331.928133 
L 125.431269 329.675356 
L 131.58003 327.058603 
L 137.72879 324.037233 
L 143.87755 320.569711 
L 150.026311 316.61437 
L 156.175071 312.130314 
L 162.323831 307.078468 
L 168.472592 301.422741 
L 174.621352 295.131313 
L 180.770112 288.178003 
L 186.918873 280.543687 
L 193.067633 272.217738 
L 199.216393 263.199434 
L 205.365154 253.499286 
L 211.513914 243.14023 
L 217.662674 232.158635 
L 223.811435 220.605061 
L 229.960195 208.544722 
L 236.108955 196.057602 
L 242.257716 183.238184 
L 248.406476 170.194772 
L 254.555236 157.048374 
L 260.703997 143.931158 
L 266.852757 130.984489 
L 273.001517 118.356575 
L 279.150278 106.199781 
L 285.299038 94.667659 
L 291.447798 83.91178 
L 297.596559 74.078461 
L 303.745319 65.305472 
L 309.894079 57.718839 
L 316.04284 51.429833 
L 322.1916 46.532265 
L 328.34036 43.100149 
L 334.489121 41.185851 
L 340.637881 40.81875 
L 346.786641 42.004496 
L 352.935402 44.724859 
L 359.084162 48.938201 
L 365.232922 54.580531 
L 371.381683 61.567126 
L 377.530443 69.794645 
L 383.679203 79.143672 
L 389.827964 89.481593 
L 395.976724 100.665724 
L 402.125484 112.546562 
L 408.274245 124.971088 
L 414.423005 137.785993 
L 420.571765 150.84075 
L 426.720526 163.990448 
L 432.869286 177.098305 
L 439.018046 190.037825 
L 445.166807 202.694536 
L 451.315567 214.967318 
L 457.464327 226.769279 
L 463.613088 238.028221 
L 469.761848 248.686701 
L 475.910608 258.701724 
L 482.059369 268.044121 
L 488.208129 276.69765 
L 494.356889 284.657888 
L 500.50565 291.930955 
L 506.65441 298.532138 
L 512.80317 304.484466 
L 518.951931 309.817271 
L 525.100691 314.56479 
L 531.249451 318.764843 
L 537.398212 322.457604 
L 543.546972 325.684498 
L 549.695732 328.487224 
L 555.844493 330.906933 
L 561.993253 332.983536 
L 568.142013 334.755161 
L 574.290774 336.257737 
L 580.439534 337.524699 
L 586.588294 338.586808 
L 592.737054 339.472061 
L 598.885815 340.205683 
L 605.034575 340.810181 
L 611.183335 341.305458 
L 617.332096 341.708956 
L 623.480856 342.035834 
L 629.629616 342.299158 
L 635.778377 342.510101 
L 641.927137 342.678141 
L 648.075897 342.811263 
L 654.224658 342.916139 
L 660.373418 342.998307 
L 666.522178 343.06233 
L 672.670939 343.111941 
L 678.819699 343.150174 
L 684.968459 343.179478 
L 691.11722 343.201815 
L 697.26598 343.21875 
" clip-path="url(#pd4a3d04577)" style="fill: none; stroke: #ffa500; stroke-width: 1.5; stroke-linecap: square"/>
   </g>
   <g id="patch_3">
    <path d="M 58.102344 358.33875 
L 58.102344 25.69875 
" style="fill: none; stroke: #000000; stroke-width: 0.8; stroke-linejoin: miter; stroke-linecap: square"/>
   </g>
   <g id="patch_4">
    <path d="M 727.702344 358.33875 
L 727.702344 25.69875 
" style="fill: none; stroke: #000000; stroke-width: 0.8; stroke-linejoin: miter; stroke-linecap: square"/>
   </g>
   <g id="patch_5">
    <path d="M 58.102344 358.33875 
L 727.702344 358.33875 
" style="fill: none; stroke: #000000; stroke-width: 0.8; stroke-linejoin: miter; stroke-linecap: square"/>
   </g>
   <g id="patch_6">
    <path d="M 58.102344 25.69875 
L 727.702344 25.69875 
" style="fill: none; stroke: #000000; stroke-width: 0.8; stroke-linejoin: miter; stroke-linecap: square"/>
   </g>
   <g id="text_15">
    <!-- Posterior and prior distributions of s1 and s2 -->
    <g transform="translate(232.664375 19.69875) scale(0.18 -0.18)">
     <defs>
      <path id="TimesNewRomanPSMT-65" d="M 681 1784 
Q 678 1147 991 784 
Q 1303 422 1725 422 
Q 2006 422 2214 576 
Q 2422 731 2563 1106 
L 2659 1044 
Q 2594 616 2278 264 
Q 1963 -88 1488 -88 
Q 972 -88 605 314 
Q 238 716 238 1394 
Q 238 2128 614 2539 
Q 991 2950 1559 2950 
Q 2041 2950 2350 2633 
Q 2659 2316 2659 1784 
L 681 1784 
z
M 681 1966 
L 2006 1966 
Q 1991 2241 1941 2353 
Q 1863 2528 1708 2628 
Q 1553 2728 1384 2728 
Q 1125 2728 920 2526 
Q 716 2325 681 1966 
z
" transform="scale(0.015625)"/>
      <path id="TimesNewRomanPSMT-6e" d="M 1034 2341 
Q 1538 2947 1994 2947 
Q 2228 2947 2397 2830 
Q 2566 2713 2666 2444 
Q 2734 2256 2734 1869 
L 2734 647 
Q 2734 375 2778 278 
Q 2813 200 2889 156 
Q 2966 113 3172 113 
L 3172 0 
L 1756 0 
L 1756 113 
L 1816 113 
Q 2016 113 2095 173 
Q 2175 234 2206 353 
Q 2219 400 2219 647 
L 2219 1819 
Q 2219 2209 2117 2386 
Q 2016 2563 1775 2563 
Q 1403 2563 1034 2156 
L 1034 647 
Q 1034 356 1069 288 
Q 1113 197 1189 155 
Q 1266 113 1500 113 
L 1500 0 
L 84 0 
L 84 113 
L 147 113 
Q 366 113 442 223 
Q 519 334 519 647 
L 519 1709 
Q 519 2225 495 2337 
Q 472 2450 423 2490 
Q 375 2531 294 2531 
Q 206 2531 84 2484 
L 38 2597 
L 900 2947 
L 1034 2947 
L 1034 2341 
z
" transform="scale(0.015625)"/>
      <path id="TimesNewRomanPSMT-64" d="M 2222 322 
Q 2013 103 1813 7 
Q 1613 -88 1381 -88 
Q 913 -88 563 304 
Q 213 697 213 1313 
Q 213 1928 600 2439 
Q 988 2950 1597 2950 
Q 1975 2950 2222 2709 
L 2222 3238 
Q 2222 3728 2198 3840 
Q 2175 3953 2125 3993 
Q 2075 4034 2000 4034 
Q 1919 4034 1784 3984 
L 1744 4094 
L 2597 4444 
L 2738 4444 
L 2738 1134 
Q 2738 631 2761 520 
Q 2784 409 2836 365 
Q 2888 322 2956 322 
Q 3041 322 3181 375 
L 3216 266 
L 2366 -88 
L 2222 -88 
L 2222 322 
z
M 2222 541 
L 2222 2016 
Q 2203 2228 2109 2403 
Q 2016 2578 1861 2667 
Q 1706 2756 1559 2756 
Q 1284 2756 1069 2509 
Q 784 2184 784 1559 
Q 784 928 1059 592 
Q 1334 256 1672 256 
Q 1956 256 2222 541 
z
" transform="scale(0.015625)"/>
      <path id="TimesNewRomanPSMT-70" d="M -6 2578 
L 875 2934 
L 994 2934 
L 994 2266 
Q 1216 2644 1439 2795 
Q 1663 2947 1909 2947 
Q 2341 2947 2628 2609 
Q 2981 2197 2981 1534 
Q 2981 794 2556 309 
Q 2206 -88 1675 -88 
Q 1444 -88 1275 -22 
Q 1150 25 994 166 
L 994 -706 
Q 994 -1000 1030 -1079 
Q 1066 -1159 1155 -1206 
Q 1244 -1253 1478 -1253 
L 1478 -1369 
L -22 -1369 
L -22 -1253 
L 56 -1253 
Q 228 -1256 350 -1188 
Q 409 -1153 442 -1076 
Q 475 -1000 475 -688 
L 475 2019 
Q 475 2297 450 2372 
Q 425 2447 370 2484 
Q 316 2522 222 2522 
Q 147 2522 31 2478 
L -6 2578 
z
M 994 2081 
L 994 1013 
Q 994 666 1022 556 
Q 1066 375 1236 237 
Q 1406 100 1666 100 
Q 1978 100 2172 344 
Q 2425 663 2425 1241 
Q 2425 1897 2138 2250 
Q 1938 2494 1663 2494 
Q 1513 2494 1366 2419 
Q 1253 2363 994 2081 
z
" transform="scale(0.015625)"/>
      <path id="TimesNewRomanPSMT-75" d="M 2709 2863 
L 2709 1128 
Q 2709 631 2732 520 
Q 2756 409 2807 365 
Q 2859 322 2928 322 
Q 3025 322 3147 375 
L 3191 266 
L 2334 -88 
L 2194 -88 
L 2194 519 
Q 1825 119 1631 15 
Q 1438 -88 1222 -88 
Q 981 -88 804 51 
Q 628 191 559 409 
Q 491 628 491 1028 
L 491 2306 
Q 491 2509 447 2587 
Q 403 2666 317 2708 
Q 231 2750 6 2747 
L 6 2863 
L 1009 2863 
L 1009 947 
Q 1009 547 1148 422 
Q 1288 297 1484 297 
Q 1619 297 1789 381 
Q 1959 466 2194 703 
L 2194 2325 
Q 2194 2569 2105 2655 
Q 2016 2741 1734 2747 
L 1734 2863 
L 2709 2863 
z
" transform="scale(0.015625)"/>
      <path id="TimesNewRomanPSMT-66" d="M 1319 2638 
L 1319 756 
Q 1319 356 1406 250 
Q 1522 113 1716 113 
L 1975 113 
L 1975 0 
L 266 0 
L 266 113 
L 394 113 
Q 519 113 622 175 
Q 725 238 764 344 
Q 803 450 803 756 
L 803 2638 
L 247 2638 
L 247 2863 
L 803 2863 
L 803 3050 
Q 803 3478 940 3775 
Q 1078 4072 1361 4255 
Q 1644 4438 1997 4438 
Q 2325 4438 2600 4225 
Q 2781 4084 2781 3909 
Q 2781 3816 2700 3733 
Q 2619 3650 2525 3650 
Q 2453 3650 2373 3701 
Q 2294 3753 2178 3923 
Q 2063 4094 1966 4153 
Q 1869 4213 1750 4213 
Q 1606 4213 1506 4136 
Q 1406 4059 1362 3898 
Q 1319 3738 1319 3069 
L 1319 2863 
L 2056 2863 
L 2056 2638 
L 1319 2638 
z
" transform="scale(0.015625)"/>
     </defs>
     <use xlink:href="#TimesNewRomanPSMT-50"/>
     <use xlink:href="#TimesNewRomanPSMT-6f" x="55.615234"/>
     <use xlink:href="#TimesNewRomanPSMT-73" x="105.615234"/>
     <use xlink:href="#TimesNewRomanPSMT-74" x="144.53125"/>
     <use xlink:href="#TimesNewRomanPSMT-65" x="172.314453"/>
     <use xlink:href="#TimesNewRomanPSMT-72" x="216.699219"/>
     <use xlink:href="#TimesNewRomanPSMT-69" x="250"/>
     <use xlink:href="#TimesNewRomanPSMT-6f" x="277.783203"/>
     <use xlink:href="#TimesNewRomanPSMT-72" x="327.783203"/>
     <use xlink:href="#TimesNewRomanPSMT-20" x="361.083984"/>
     <use xlink:href="#TimesNewRomanPSMT-61" x="386.083984"/>
     <use xlink:href="#TimesNewRomanPSMT-6e" x="430.46875"/>
     <use xlink:href="#TimesNewRomanPSMT-64" x="480.46875"/>
     <use xlink:href="#TimesNewRomanPSMT-20" x="530.46875"/>
     <use xlink:href="#TimesNewRomanPSMT-70" x="555.46875"/>
     <use xlink:href="#TimesNewRomanPSMT-72" x="605.46875"/>
     <use xlink:href="#TimesNewRomanPSMT-69" x="638.769531"/>
     <use xlink:href="#TimesNewRomanPSMT-6f" x="666.552734"/>
     <use xlink:href="#TimesNewRomanPSMT-72" x="716.552734"/>
     <use xlink:href="#TimesNewRomanPSMT-20" x="749.853516"/>
     <use xlink:href="#TimesNewRomanPSMT-64" x="774.853516"/>
     <use xlink:href="#TimesNewRomanPSMT-69" x="824.853516"/>
     <use xlink:href="#TimesNewRomanPSMT-73" x="852.636719"/>
     <use xlink:href="#TimesNewRomanPSMT-74" x="891.552734"/>
     <use xlink:href="#TimesNewRomanPSMT-72" x="919.335938"/>
     <use xlink:href="#TimesNewRomanPSMT-69" x="952.636719"/>
     <use xlink:href="#TimesNewRomanPSMT-62" x="980.419922"/>
     <use xlink:href="#TimesNewRomanPSMT-75" x="1030.419922"/>
     <use xlink:href="#TimesNewRomanPSMT-74" x="1080.419922"/>
     <use xlink:href="#TimesNewRomanPSMT-69" x="1108.203125"/>
     <use xlink:href="#TimesNewRomanPSMT-6f" x="1135.986328"/>
     <use xlink:href="#TimesNewRomanPSMT-6e" x="1185.986328"/>
     <use xlink:href="#TimesNewRomanPSMT-73" x="1235.986328"/>
     <use xlink:href="#TimesNewRomanPSMT-20" x="1274.902344"/>
     <use xlink:href="#TimesNewRomanPSMT-6f" x="1299.902344"/>
     <use xlink:href="#TimesNewRomanPSMT-66" x="1349.902344"/>
     <use xlink:href="#TimesNewRomanPSMT-20" x="1383.203125"/>
     <use xlink:href="#TimesNewRomanPSMT-73" x="1408.203125"/>
     <use xlink:href="#TimesNewRomanPSMT-31" x="1447.119141"/>
     <use xlink:href="#TimesNewRomanPSMT-20" x="1497.119141"/>
     <use xlink:href="#TimesNewRomanPSMT-61" x="1522.119141"/>
     <use xlink:href="#TimesNewRomanPSMT-6e" x="1566.503906"/>
     <use xlink:href="#TimesNewRomanPSMT-64" x="1616.503906"/>
     <use xlink:href="#TimesNewRomanPSMT-20" x="1666.503906"/>
     <use xlink:href="#TimesNewRomanPSMT-73" x="1691.503906"/>
     <use xlink:href="#TimesNewRomanPSMT-32" x="1730.419922"/>
    </g>
   </g>
   <g id="legend_1">
    <g id="patch_7">
     <path d="M 564.216406 101.324531 
L 717.202344 101.324531 
Q 720.202344 101.324531 720.202344 98.324531 
L 720.202344 36.19875 
Q 720.202344 33.19875 717.202344 33.19875 
L 564.216406 33.19875 
Q 561.216406 33.19875 561.216406 36.19875 
L 561.216406 98.324531 
Q 561.216406 101.324531 564.216406 101.324531 
z
" style="fill: #ffffff; opacity: 0.8; stroke: #cccccc; stroke-linejoin: miter"/>
    </g>
    <g id="line2d_16">
     <path d="M 567.216406 44.44875 
L 582.216406 44.44875 
L 597.216406 44.44875 
" style="fill: none; stroke: #0000ff; stroke-width: 1.5; stroke-linecap: square"/>
    </g>
    <g id="text_16">
     <!-- posterior of s1 -->
     <g transform="translate(609.216406 49.69875) scale(0.15 -0.15)">
      <use xlink:href="#TimesNewRomanPSMT-70"/>
      <use xlink:href="#TimesNewRomanPSMT-6f" x="50"/>
      <use xlink:href="#TimesNewRomanPSMT-73" x="100"/>
      <use xlink:href="#TimesNewRomanPSMT-74" x="138.916016"/>
      <use xlink:href="#TimesNewRomanPSMT-65" x="166.699219"/>
      <use xlink:href="#TimesNewRomanPSMT-72" x="211.083984"/>
      <use xlink:href="#TimesNewRomanPSMT-69" x="244.384766"/>
      <use xlink:href="#TimesNewRomanPSMT-6f" x="272.167969"/>
      <use xlink:href="#TimesNewRomanPSMT-72" x="322.167969"/>
      <use xlink:href="#TimesNewRomanPSMT-20" x="355.46875"/>
      <use xlink:href="#TimesNewRomanPSMT-6f" x="380.46875"/>
      <use xlink:href="#TimesNewRomanPSMT-66" x="430.46875"/>
      <use xlink:href="#TimesNewRomanPSMT-20" x="463.769531"/>
      <use xlink:href="#TimesNewRomanPSMT-73" x="488.769531"/>
      <use xlink:href="#TimesNewRomanPSMT-31" x="527.685547"/>
     </g>
    </g>
    <g id="line2d_17">
     <path d="M 567.216406 65.657344 
L 582.216406 65.657344 
L 597.216406 65.657344 
" style="fill: none; stroke: #ff0000; stroke-width: 1.5; stroke-linecap: square"/>
    </g>
    <g id="text_17">
     <!-- prior of s1 and s2 -->
     <g transform="translate(609.216406 70.907344) scale(0.15 -0.15)">
      <use xlink:href="#TimesNewRomanPSMT-70"/>
      <use xlink:href="#TimesNewRomanPSMT-72" x="50"/>
      <use xlink:href="#TimesNewRomanPSMT-69" x="83.300781"/>
      <use xlink:href="#TimesNewRomanPSMT-6f" x="111.083984"/>
      <use xlink:href="#TimesNewRomanPSMT-72" x="161.083984"/>
      <use xlink:href="#TimesNewRomanPSMT-20" x="194.384766"/>
      <use xlink:href="#TimesNewRomanPSMT-6f" x="219.384766"/>
      <use xlink:href="#TimesNewRomanPSMT-66" x="269.384766"/>
      <use xlink:href="#TimesNewRomanPSMT-20" x="302.685547"/>
      <use xlink:href="#TimesNewRomanPSMT-73" x="327.685547"/>
      <use xlink:href="#TimesNewRomanPSMT-31" x="366.601562"/>
      <use xlink:href="#TimesNewRomanPSMT-20" x="416.601562"/>
      <use xlink:href="#TimesNewRomanPSMT-61" x="441.601562"/>
      <use xlink:href="#TimesNewRomanPSMT-6e" x="485.986328"/>
      <use xlink:href="#TimesNewRomanPSMT-64" x="535.986328"/>
      <use xlink:href="#TimesNewRomanPSMT-20" x="585.986328"/>
      <use xlink:href="#TimesNewRomanPSMT-73" x="610.986328"/>
      <use xlink:href="#TimesNewRomanPSMT-32" x="649.902344"/>
     </g>
    </g>
    <g id="line2d_18">
     <path d="M 567.216406 86.865937 
L 582.216406 86.865937 
L 597.216406 86.865937 
" style="fill: none; stroke: #ffa500; stroke-width: 1.5; stroke-linecap: square"/>
    </g>
    <g id="text_18">
     <!-- posterior of s2 -->
     <g transform="translate(609.216406 92.115937) scale(0.15 -0.15)">
      <use xlink:href="#TimesNewRomanPSMT-70"/>
      <use xlink:href="#TimesNewRomanPSMT-6f" x="50"/>
      <use xlink:href="#TimesNewRomanPSMT-73" x="100"/>
      <use xlink:href="#TimesNewRomanPSMT-74" x="138.916016"/>
      <use xlink:href="#TimesNewRomanPSMT-65" x="166.699219"/>
      <use xlink:href="#TimesNewRomanPSMT-72" x="211.083984"/>
      <use xlink:href="#TimesNewRomanPSMT-69" x="244.384766"/>
      <use xlink:href="#TimesNewRomanPSMT-6f" x="272.167969"/>
      <use xlink:href="#TimesNewRomanPSMT-72" x="322.167969"/>
      <use xlink:href="#TimesNewRomanPSMT-20" x="355.46875"/>
      <use xlink:href="#TimesNewRomanPSMT-6f" x="380.46875"/>
      <use xlink:href="#TimesNewRomanPSMT-66" x="430.46875"/>
      <use xlink:href="#TimesNewRomanPSMT-20" x="463.769531"/>
      <use xlink:href="#TimesNewRomanPSMT-73" x="488.769531"/>
      <use xlink:href="#TimesNewRomanPSMT-32" x="527.685547"/>
     </g>
    </g>
   </g>
  </g>
 </g>
 <defs>
  <clipPath id="pd4a3d04577">
   <rect x="58.102344" y="25.69875" width="669.6" height="332.64"/>
  </clipPath>
 </defs>
</svg>
