<?xml version="1.0" encoding="utf-8" standalone="no"?>
<!DOCTYPE svg PUBLIC "-//W3C//DTD SVG 1.1//EN"
  "http://www.w3.org/Graphics/SVG/1.1/DTD/svg11.dtd">
<svg xmlns:xlink="http://www.w3.org/1999/xlink" width="734.874219pt" height="403.787187pt" viewBox="0 0 734.874219 403.787187" xmlns="http://www.w3.org/2000/svg" version="1.1">
 <metadata>
  <rdf:RDF xmlns:dc="http://purl.org/dc/elements/1.1/" xmlns:cc="http://creativecommons.org/ns#" xmlns:rdf="http://www.w3.org/1999/02/22-rdf-syntax-ns#">
   <cc:Work>
    <dc:type rdf:resource="http://purl.org/dc/dcmitype/StillImage"/>
    <dc:date>2023-10-17T13:58:32.641147</dc:date>
    <dc:format>image/svg+xml</dc:format>
    <dc:creator>
     <cc:Agent>
      <dc:title>Matplotlib v3.8.0, https://matplotlib.org/</dc:title>
     </cc:Agent>
    </dc:creator>
   </cc:Work>
  </rdf:RDF>
 </metadata>
 <defs>
  <style type="text/css">*{stroke-linejoin: round; stroke-linecap: butt}</style>
 </defs>
 <g id="figure_1">
  <g id="patch_1">
   <path d="M 0 403.787187 
L 734.874219 403.787187 
L 734.874219 0 
L 0 0 
z
" style="fill: #ffffff"/>
  </g>
  <g id="axes_1">
   <g id="patch_2">
    <path d="M 58.074219 358.33875 
L 727.674219 358.33875 
L 727.674219 25.69875 
L 58.074219 25.69875 
z
" style="fill: #ffffff"/>
   </g>
   <g id="patch_3">
    <path d="M 216.49603 358.33875 
L 226.110866 358.33875 
L 226.110866 358.072212 
L 216.49603 358.072212 
z
" clip-path="url(#p85c3cafcf7)" style="fill: #0000ff"/>
   </g>
   <g id="patch_4">
    <path d="M 226.110866 358.33875 
L 235.725703 358.33875 
L 235.725703 357.716828 
L 226.110866 357.716828 
z
" clip-path="url(#p85c3cafcf7)" style="fill: #0000ff"/>
   </g>
   <g id="patch_5">
    <path d="M 235.725703 358.33875 
L 245.340539 358.33875 
L 245.340539 357.627982 
L 235.725703 357.627982 
z
" clip-path="url(#p85c3cafcf7)" style="fill: #0000ff"/>
   </g>
   <g id="patch_6">
    <path d="M 245.340539 358.33875 
L 254.955376 358.33875 
L 254.955376 357.272597 
L 245.340539 357.272597 
z
" clip-path="url(#p85c3cafcf7)" style="fill: #0000ff"/>
   </g>
   <g id="patch_7">
    <path d="M 254.955376 358.33875 
L 264.570212 358.33875 
L 264.570212 355.939907 
L 254.955376 355.939907 
z
" clip-path="url(#p85c3cafcf7)" style="fill: #0000ff"/>
   </g>
   <g id="patch_8">
    <path d="M 264.570212 358.33875 
L 274.185049 358.33875 
L 274.185049 354.07414 
L 264.570212 354.07414 
z
" clip-path="url(#p85c3cafcf7)" style="fill: #0000ff"/>
   </g>
   <g id="patch_9">
    <path d="M 274.185049 358.33875 
L 283.799885 358.33875 
L 283.799885 351.14222 
L 274.185049 351.14222 
z
" clip-path="url(#p85c3cafcf7)" style="fill: #0000ff"/>
   </g>
   <g id="patch_10">
    <path d="M 283.799885 358.33875 
L 293.414722 358.33875 
L 293.414722 347.854916 
L 283.799885 347.854916 
z
" clip-path="url(#p85c3cafcf7)" style="fill: #0000ff"/>
   </g>
   <g id="patch_11">
    <path d="M 293.414722 358.33875 
L 303.029558 358.33875 
L 303.029558 342.168769 
L 293.414722 342.168769 
z
" clip-path="url(#p85c3cafcf7)" style="fill: #0000ff"/>
   </g>
   <g id="patch_12">
    <path d="M 303.029558 358.33875 
L 312.644395 358.33875 
L 312.644395 334.7057 
L 303.029558 334.7057 
z
" clip-path="url(#p85c3cafcf7)" style="fill: #0000ff"/>
   </g>
   <g id="patch_13">
    <path d="M 312.644395 358.33875 
L 322.259231 358.33875 
L 322.259231 321.289947 
L 312.644395 321.289947 
z
" clip-path="url(#p85c3cafcf7)" style="fill: #0000ff"/>
   </g>
   <g id="patch_14">
    <path d="M 322.259231 358.33875 
L 331.874068 358.33875 
L 331.874068 307.252271 
L 322.259231 307.252271 
z
" clip-path="url(#p85c3cafcf7)" style="fill: #0000ff"/>
   </g>
   <g id="patch_15">
    <path d="M 331.874068 358.33875 
L 341.488904 358.33875 
L 341.488904 288.949984 
L 331.874068 288.949984 
z
" clip-path="url(#p85c3cafcf7)" style="fill: #0000ff"/>
   </g>
   <g id="patch_16">
    <path d="M 341.488904 358.33875 
L 351.103741 358.33875 
L 351.103741 262.829245 
L 341.488904 262.829245 
z
" clip-path="url(#p85c3cafcf7)" style="fill: #0000ff"/>
   </g>
   <g id="patch_17">
    <path d="M 351.103741 358.33875 
L 360.718577 358.33875 
L 360.718577 237.241583 
L 351.103741 237.241583 
z
" clip-path="url(#p85c3cafcf7)" style="fill: #0000ff"/>
   </g>
   <g id="patch_18">
    <path d="M 360.718577 358.33875 
L 370.333414 358.33875 
L 370.333414 201.614316 
L 360.718577 201.614316 
z
" clip-path="url(#p85c3cafcf7)" style="fill: #0000ff"/>
   </g>
   <g id="patch_19">
    <path d="M 370.333414 358.33875 
L 379.94825 358.33875 
L 379.94825 167.586279 
L 370.333414 167.586279 
z
" clip-path="url(#p85c3cafcf7)" style="fill: #0000ff"/>
   </g>
   <g id="patch_20">
    <path d="M 379.94825 358.33875 
L 389.563087 358.33875 
L 389.563087 141.90977 
L 379.94825 141.90977 
z
" clip-path="url(#p85c3cafcf7)" style="fill: #0000ff"/>
   </g>
   <g id="patch_21">
    <path d="M 389.563087 358.33875 
L 399.177923 358.33875 
L 399.177923 104.860967 
L 389.563087 104.860967 
z
" clip-path="url(#p85c3cafcf7)" style="fill: #0000ff"/>
   </g>
   <g id="patch_22">
    <path d="M 399.177923 358.33875 
L 408.79276 358.33875 
L 408.79276 77.318691 
L 399.177923 77.318691 
z
" clip-path="url(#p85c3cafcf7)" style="fill: #0000ff"/>
   </g>
   <g id="patch_23">
    <path d="M 408.79276 358.33875 
L 418.407596 358.33875 
L 418.407596 54.39641 
L 408.79276 54.39641 
z
" clip-path="url(#p85c3cafcf7)" style="fill: #0000ff"/>
   </g>
   <g id="patch_24">
    <path d="M 418.407596 358.33875 
L 428.022433 358.33875 
L 428.022433 42.93527 
L 418.407596 42.93527 
z
" clip-path="url(#p85c3cafcf7)" style="fill: #0000ff"/>
   </g>
   <g id="patch_25">
    <path d="M 428.022433 358.33875 
L 437.637269 358.33875 
L 437.637269 44.445653 
L 428.022433 44.445653 
z
" clip-path="url(#p85c3cafcf7)" style="fill: #0000ff"/>
   </g>
   <g id="patch_26">
    <path d="M 437.637269 358.33875 
L 447.252106 358.33875 
L 447.252106 47.288726 
L 437.637269 47.288726 
z
" clip-path="url(#p85c3cafcf7)" style="fill: #0000ff"/>
   </g>
   <g id="patch_27">
    <path d="M 447.252106 358.33875 
L 456.866942 358.33875 
L 456.866942 57.32833 
L 447.252106 57.32833 
z
" clip-path="url(#p85c3cafcf7)" style="fill: #0000ff"/>
   </g>
   <g id="patch_28">
    <path d="M 456.866942 358.33875 
L 466.481779 358.33875 
L 466.481779 68.078702 
L 456.866942 68.078702 
z
" clip-path="url(#p85c3cafcf7)" style="fill: #0000ff"/>
   </g>
   <g id="patch_29">
    <path d="M 466.481779 358.33875 
L 476.096615 358.33875 
L 476.096615 102.906354 
L 466.481779 102.906354 
z
" clip-path="url(#p85c3cafcf7)" style="fill: #0000ff"/>
   </g>
   <g id="patch_30">
    <path d="M 476.096615 358.33875 
L 485.711452 358.33875 
L 485.711452 127.339018 
L 476.096615 127.339018 
z
" clip-path="url(#p85c3cafcf7)" style="fill: #0000ff"/>
   </g>
   <g id="patch_31">
    <path d="M 485.711452 358.33875 
L 495.326288 358.33875 
L 495.326288 166.075896 
L 485.711452 166.075896 
z
" clip-path="url(#p85c3cafcf7)" style="fill: #0000ff"/>
   </g>
   <g id="patch_32">
    <path d="M 495.326288 358.33875 
L 504.941125 358.33875 
L 504.941125 200.63701 
L 495.326288 200.63701 
z
" clip-path="url(#p85c3cafcf7)" style="fill: #0000ff"/>
   </g>
   <g id="patch_33">
    <path d="M 504.941125 358.33875 
L 514.555961 358.33875 
L 514.555961 231.733128 
L 504.941125 231.733128 
z
" clip-path="url(#p85c3cafcf7)" style="fill: #0000ff"/>
   </g>
   <g id="patch_34">
    <path d="M 514.555961 358.33875 
L 524.170798 358.33875 
L 524.170798 253.233872 
L 514.555961 253.233872 
z
" clip-path="url(#p85c3cafcf7)" style="fill: #0000ff"/>
   </g>
   <g id="patch_35">
    <path d="M 524.170798 358.33875 
L 533.785634 358.33875 
L 533.785634 272.158081 
L 524.170798 272.158081 
z
" clip-path="url(#p85c3cafcf7)" style="fill: #0000ff"/>
   </g>
   <g id="patch_36">
    <path d="M 533.785634 358.33875 
L 543.400471 358.33875 
L 543.400471 296.946129 
L 533.785634 296.946129 
z
" clip-path="url(#p85c3cafcf7)" style="fill: #0000ff"/>
   </g>
   <g id="patch_37">
    <path d="M 543.400471 358.33875 
L 553.015307 358.33875 
L 553.015307 309.029192 
L 543.400471 309.029192 
z
" clip-path="url(#p85c3cafcf7)" style="fill: #0000ff"/>
   </g>
   <g id="patch_38">
    <path d="M 553.015307 358.33875 
L 562.630144 358.33875 
L 562.630144 321.823023 
L 553.015307 321.823023 
z
" clip-path="url(#p85c3cafcf7)" style="fill: #0000ff"/>
   </g>
   <g id="patch_39">
    <path d="M 562.630144 358.33875 
L 572.24498 358.33875 
L 572.24498 334.172624 
L 562.630144 334.172624 
z
" clip-path="url(#p85c3cafcf7)" style="fill: #0000ff"/>
   </g>
   <g id="patch_40">
    <path d="M 572.24498 358.33875 
L 581.859817 358.33875 
L 581.859817 341.191462 
L 572.24498 341.191462 
z
" clip-path="url(#p85c3cafcf7)" style="fill: #0000ff"/>
   </g>
   <g id="patch_41">
    <path d="M 581.859817 358.33875 
L 591.474653 358.33875 
L 591.474653 347.32184 
L 581.859817 347.32184 
z
" clip-path="url(#p85c3cafcf7)" style="fill: #0000ff"/>
   </g>
   <g id="patch_42">
    <path d="M 591.474653 358.33875 
L 601.08949 358.33875 
L 601.08949 350.164913 
L 591.474653 350.164913 
z
" clip-path="url(#p85c3cafcf7)" style="fill: #0000ff"/>
   </g>
   <g id="patch_43">
    <path d="M 601.08949 358.33875 
L 610.704327 358.33875 
L 610.704327 353.274525 
L 601.08949 353.274525 
z
" clip-path="url(#p85c3cafcf7)" style="fill: #0000ff"/>
   </g>
   <g id="patch_44">
    <path d="M 610.704327 358.33875 
L 620.319163 358.33875 
L 620.319163 353.718755 
L 610.704327 353.718755 
z
" clip-path="url(#p85c3cafcf7)" style="fill: #0000ff"/>
   </g>
   <g id="patch_45">
    <path d="M 620.319163 358.33875 
L 629.934 358.33875 
L 629.934 354.9626 
L 620.319163 354.9626 
z
" clip-path="url(#p85c3cafcf7)" style="fill: #0000ff"/>
   </g>
   <g id="patch_46">
    <path d="M 629.934 358.33875 
L 639.548836 358.33875 
L 639.548836 357.272597 
L 629.934 357.272597 
z
" clip-path="url(#p85c3cafcf7)" style="fill: #0000ff"/>
   </g>
   <g id="patch_47">
    <path d="M 639.548836 358.33875 
L 649.163673 358.33875 
L 649.163673 357.006059 
L 639.548836 357.006059 
z
" clip-path="url(#p85c3cafcf7)" style="fill: #0000ff"/>
   </g>
   <g id="patch_48">
    <path d="M 649.163673 358.33875 
L 658.778509 358.33875 
L 658.778509 357.983366 
L 649.163673 357.983366 
z
" clip-path="url(#p85c3cafcf7)" style="fill: #0000ff"/>
   </g>
   <g id="patch_49">
    <path d="M 658.778509 358.33875 
L 668.393346 358.33875 
L 668.393346 358.072212 
L 658.778509 358.072212 
z
" clip-path="url(#p85c3cafcf7)" style="fill: #0000ff"/>
   </g>
   <g id="patch_50">
    <path d="M 668.393346 358.33875 
L 678.008182 358.33875 
L 678.008182 358.249904 
L 668.393346 358.249904 
z
" clip-path="url(#p85c3cafcf7)" style="fill: #0000ff"/>
   </g>
   <g id="patch_51">
    <path d="M 678.008182 358.33875 
L 687.623019 358.33875 
L 687.623019 358.33875 
L 678.008182 358.33875 
z
" clip-path="url(#p85c3cafcf7)" style="fill: #0000ff"/>
   </g>
   <g id="patch_52">
    <path d="M 687.623019 358.33875 
L 697.237855 358.33875 
L 697.237855 358.161058 
L 687.623019 358.161058 
z
" clip-path="url(#p85c3cafcf7)" style="fill: #0000ff"/>
   </g>
   <g id="patch_53">
    <path d="M 88.510582 358.33875 
L 98.161543 358.33875 
L 98.161543 358.250237 
L 88.510582 358.250237 
z
" clip-path="url(#p85c3cafcf7)" style="fill: #ffa500"/>
   </g>
   <g id="patch_54">
    <path d="M 98.161543 358.33875 
L 107.812504 358.33875 
L 107.812504 358.161723 
L 98.161543 358.161723 
z
" clip-path="url(#p85c3cafcf7)" style="fill: #ffa500"/>
   </g>
   <g id="patch_55">
    <path d="M 107.812504 358.33875 
L 117.463465 358.33875 
L 117.463465 358.33875 
L 107.812504 358.33875 
z
" clip-path="url(#p85c3cafcf7)" style="fill: #ffa500"/>
   </g>
   <g id="patch_56">
    <path d="M 117.463465 358.33875 
L 127.114426 358.33875 
L 127.114426 358.250237 
L 117.463465 358.250237 
z
" clip-path="url(#p85c3cafcf7)" style="fill: #ffa500"/>
   </g>
   <g id="patch_57">
    <path d="M 127.114426 358.33875 
L 136.765387 358.33875 
L 136.765387 358.07321 
L 127.114426 358.07321 
z
" clip-path="url(#p85c3cafcf7)" style="fill: #ffa500"/>
   </g>
   <g id="patch_58">
    <path d="M 136.765387 358.33875 
L 146.416348 358.33875 
L 146.416348 358.161723 
L 136.765387 358.161723 
z
" clip-path="url(#p85c3cafcf7)" style="fill: #ffa500"/>
   </g>
   <g id="patch_59">
    <path d="M 146.416348 358.33875 
L 156.067309 358.33875 
L 156.067309 357.807669 
L 146.416348 357.807669 
z
" clip-path="url(#p85c3cafcf7)" style="fill: #ffa500"/>
   </g>
   <g id="patch_60">
    <path d="M 156.067309 358.33875 
L 165.71827 358.33875 
L 165.71827 357.188075 
L 156.067309 357.188075 
z
" clip-path="url(#p85c3cafcf7)" style="fill: #ffa500"/>
   </g>
   <g id="patch_61">
    <path d="M 165.71827 358.33875 
L 175.369231 358.33875 
L 175.369231 356.834021 
L 165.71827 356.834021 
z
" clip-path="url(#p85c3cafcf7)" style="fill: #ffa500"/>
   </g>
   <g id="patch_62">
    <path d="M 175.369231 358.33875 
L 185.020192 358.33875 
L 185.020192 355.506318 
L 175.369231 355.506318 
z
" clip-path="url(#p85c3cafcf7)" style="fill: #ffa500"/>
   </g>
   <g id="patch_63">
    <path d="M 185.020192 358.33875 
L 194.671153 358.33875 
L 194.671153 353.204967 
L 185.020192 353.204967 
z
" clip-path="url(#p85c3cafcf7)" style="fill: #ffa500"/>
   </g>
   <g id="patch_64">
    <path d="M 194.671153 358.33875 
L 204.322114 358.33875 
L 204.322114 350.638076 
L 194.671153 350.638076 
z
" clip-path="url(#p85c3cafcf7)" style="fill: #ffa500"/>
   </g>
   <g id="patch_65">
    <path d="M 204.322114 358.33875 
L 213.973075 358.33875 
L 213.973075 348.159698 
L 204.322114 348.159698 
z
" clip-path="url(#p85c3cafcf7)" style="fill: #ffa500"/>
   </g>
   <g id="patch_66">
    <path d="M 213.973075 358.33875 
L 223.624036 358.33875 
L 223.624036 342.671862 
L 213.973075 342.671862 
z
" clip-path="url(#p85c3cafcf7)" style="fill: #ffa500"/>
   </g>
   <g id="patch_67">
    <path d="M 223.624036 358.33875 
L 233.274997 358.33875 
L 233.274997 335.325242 
L 223.624036 335.325242 
z
" clip-path="url(#p85c3cafcf7)" style="fill: #ffa500"/>
   </g>
   <g id="patch_68">
    <path d="M 233.274997 358.33875 
L 242.925958 358.33875 
L 242.925958 325.234704 
L 233.274997 325.234704 
z
" clip-path="url(#p85c3cafcf7)" style="fill: #ffa500"/>
   </g>
   <g id="patch_69">
    <path d="M 242.925958 358.33875 
L 252.576919 358.33875 
L 252.576919 315.586734 
L 242.925958 315.586734 
z
" clip-path="url(#p85c3cafcf7)" style="fill: #ffa500"/>
   </g>
   <g id="patch_70">
    <path d="M 252.576919 358.33875 
L 262.22788 358.33875 
L 262.22788 299.300251 
L 252.576919 299.300251 
z
" clip-path="url(#p85c3cafcf7)" style="fill: #ffa500"/>
   </g>
   <g id="patch_71">
    <path d="M 262.22788 358.33875 
L 271.878841 358.33875 
L 271.878841 276.19823 
L 262.22788 276.19823 
z
" clip-path="url(#p85c3cafcf7)" style="fill: #ffa500"/>
   </g>
   <g id="patch_72">
    <path d="M 271.878841 358.33875 
L 281.529802 358.33875 
L 281.529802 258.761072 
L 271.878841 258.761072 
z
" clip-path="url(#p85c3cafcf7)" style="fill: #ffa500"/>
   </g>
   <g id="patch_73">
    <path d="M 281.529802 358.33875 
L 291.180763 358.33875 
L 291.180763 239.288104 
L 281.529802 239.288104 
z
" clip-path="url(#p85c3cafcf7)" style="fill: #ffa500"/>
   </g>
   <g id="patch_74">
    <path d="M 291.180763 358.33875 
L 300.831724 358.33875 
L 300.831724 205.033382 
L 291.180763 205.033382 
z
" clip-path="url(#p85c3cafcf7)" style="fill: #ffa500"/>
   </g>
   <g id="patch_75">
    <path d="M 300.831724 358.33875 
L 310.482685 358.33875 
L 310.482685 174.584741 
L 300.831724 174.584741 
z
" clip-path="url(#p85c3cafcf7)" style="fill: #ffa500"/>
   </g>
   <g id="patch_76">
    <path d="M 310.482685 358.33875 
L 320.133646 358.33875 
L 320.133646 145.286776 
L 310.482685 145.286776 
z
" clip-path="url(#p85c3cafcf7)" style="fill: #ffa500"/>
   </g>
   <g id="patch_77">
    <path d="M 320.133646 358.33875 
L 329.784607 358.33875 
L 329.784607 114.21854 
L 320.133646 114.21854 
z
" clip-path="url(#p85c3cafcf7)" style="fill: #ffa500"/>
   </g>
   <g id="patch_78">
    <path d="M 329.784607 358.33875 
L 339.435568 358.33875 
L 339.435568 86.159763 
L 329.784607 86.159763 
z
" clip-path="url(#p85c3cafcf7)" style="fill: #ffa500"/>
   </g>
   <g id="patch_79">
    <path d="M 339.435568 358.33875 
L 349.086528 358.33875 
L 349.086528 71.643551 
L 339.435568 71.643551 
z
" clip-path="url(#p85c3cafcf7)" style="fill: #ffa500"/>
   </g>
   <g id="patch_80">
    <path d="M 349.086528 358.33875 
L 358.737489 358.33875 
L 358.737489 48.453016 
L 349.086528 48.453016 
z
" clip-path="url(#p85c3cafcf7)" style="fill: #ffa500"/>
   </g>
   <g id="patch_81">
    <path d="M 358.737489 358.33875 
L 368.38845 358.33875 
L 368.38845 46.240179 
L 358.737489 46.240179 
z
" clip-path="url(#p85c3cafcf7)" style="fill: #ffa500"/>
   </g>
   <g id="patch_82">
    <path d="M 368.38845 358.33875 
L 378.039411 358.33875 
L 378.039411 47.744908 
L 368.38845 47.744908 
z
" clip-path="url(#p85c3cafcf7)" style="fill: #ffa500"/>
   </g>
   <g id="patch_83">
    <path d="M 378.039411 358.33875 
L 387.690372 358.33875 
L 387.690372 53.852339 
L 378.039411 53.852339 
z
" clip-path="url(#p85c3cafcf7)" style="fill: #ffa500"/>
   </g>
   <g id="patch_84">
    <path d="M 387.690372 358.33875 
L 397.341333 358.33875 
L 397.341333 72.351659 
L 387.690372 72.351659 
z
" clip-path="url(#p85c3cafcf7)" style="fill: #ffa500"/>
   </g>
   <g id="patch_85">
    <path d="M 397.341333 358.33875 
L 406.992294 358.33875 
L 406.992294 92.798275 
L 397.341333 92.798275 
z
" clip-path="url(#p85c3cafcf7)" style="fill: #ffa500"/>
   </g>
   <g id="patch_86">
    <path d="M 406.992294 358.33875 
L 416.643255 358.33875 
L 416.643255 125.902321 
L 406.992294 125.902321 
z
" clip-path="url(#p85c3cafcf7)" style="fill: #ffa500"/>
   </g>
   <g id="patch_87">
    <path d="M 416.643255 358.33875 
L 426.294216 358.33875 
L 426.294216 162.723933 
L 416.643255 162.723933 
z
" clip-path="url(#p85c3cafcf7)" style="fill: #ffa500"/>
   </g>
   <g id="patch_88">
    <path d="M 426.294216 358.33875 
L 435.945177 358.33875 
L 435.945177 196.270547 
L 426.294216 196.270547 
z
" clip-path="url(#p85c3cafcf7)" style="fill: #ffa500"/>
   </g>
   <g id="patch_89">
    <path d="M 435.945177 358.33875 
L 445.596138 358.33875 
L 445.596138 226.807701 
L 435.945177 226.807701 
z
" clip-path="url(#p85c3cafcf7)" style="fill: #ffa500"/>
   </g>
   <g id="patch_90">
    <path d="M 445.596138 358.33875 
L 455.247099 358.33875 
L 455.247099 254.335397 
L 445.596138 254.335397 
z
" clip-path="url(#p85c3cafcf7)" style="fill: #ffa500"/>
   </g>
   <g id="patch_91">
    <path d="M 455.247099 358.33875 
L 464.89806 358.33875 
L 464.89806 277.260392 
L 455.247099 277.260392 
z
" clip-path="url(#p85c3cafcf7)" style="fill: #ffa500"/>
   </g>
   <g id="patch_92">
    <path d="M 464.89806 358.33875 
L 474.549021 358.33875 
L 474.549021 299.034711 
L 464.89806 299.034711 
z
" clip-path="url(#p85c3cafcf7)" style="fill: #ffa500"/>
   </g>
   <g id="patch_93">
    <path d="M 474.549021 358.33875 
L 484.199982 358.33875 
L 484.199982 314.170518 
L 474.549021 314.170518 
z
" clip-path="url(#p85c3cafcf7)" style="fill: #ffa500"/>
   </g>
   <g id="patch_94">
    <path d="M 484.199982 358.33875 
L 493.850943 358.33875 
L 493.850943 329.925919 
L 484.199982 329.925919 
z
" clip-path="url(#p85c3cafcf7)" style="fill: #ffa500"/>
   </g>
   <g id="patch_95">
    <path d="M 493.850943 358.33875 
L 503.501904 358.33875 
L 503.501904 338.511728 
L 493.850943 338.511728 
z
" clip-path="url(#p85c3cafcf7)" style="fill: #ffa500"/>
   </g>
   <g id="patch_96">
    <path d="M 503.501904 358.33875 
L 513.152865 358.33875 
L 513.152865 345.769834 
L 503.501904 345.769834 
z
" clip-path="url(#p85c3cafcf7)" style="fill: #ffa500"/>
   </g>
   <g id="patch_97">
    <path d="M 513.152865 358.33875 
L 522.803826 358.33875 
L 522.803826 349.22186 
L 513.152865 349.22186 
z
" clip-path="url(#p85c3cafcf7)" style="fill: #ffa500"/>
   </g>
   <g id="patch_98">
    <path d="M 522.803826 358.33875 
L 532.454787 358.33875 
L 532.454787 354.886724 
L 522.803826 354.886724 
z
" clip-path="url(#p85c3cafcf7)" style="fill: #ffa500"/>
   </g>
   <g id="patch_99">
    <path d="M 532.454787 358.33875 
L 542.105748 358.33875 
L 542.105748 355.240778 
L 532.454787 355.240778 
z
" clip-path="url(#p85c3cafcf7)" style="fill: #ffa500"/>
   </g>
   <g id="patch_100">
    <path d="M 542.105748 358.33875 
L 551.756709 358.33875 
L 551.756709 356.745507 
L 542.105748 356.745507 
z
" clip-path="url(#p85c3cafcf7)" style="fill: #ffa500"/>
   </g>
   <g id="patch_101">
    <path d="M 551.756709 358.33875 
L 561.40767 358.33875 
L 561.40767 357.365102 
L 551.756709 357.365102 
z
" clip-path="url(#p85c3cafcf7)" style="fill: #ffa500"/>
   </g>
   <g id="patch_102">
    <path d="M 561.40767 358.33875 
L 571.058631 358.33875 
L 571.058631 357.984696 
L 561.40767 357.984696 
z
" clip-path="url(#p85c3cafcf7)" style="fill: #ffa500"/>
   </g>
   <g id="matplotlib.axis_1">
    <g id="xtick_1">
     <g id="line2d_1">
      <defs>
       <path id="m21a4697519" d="M 0 0 
L 0 3.5 
" style="stroke: #000000; stroke-width: 0.8"/>
      </defs>
      <g>
       <use xlink:href="#m21a4697519" x="112.691731" y="358.33875" style="stroke: #000000; stroke-width: 0.8"/>
      </g>
     </g>
     <g id="text_1">
      <!-- −10 -->
      <g transform="translate(100.962434 375.754375) scale(0.15 -0.15)">
       <defs>
        <path id="TimesNewRomanPSMT-2212" d="M 3484 2000 
L 116 2000 
L 116 2256 
L 3484 2256 
L 3484 2000 
z
" transform="scale(0.015625)"/>
        <path id="TimesNewRomanPSMT-31" d="M 750 3822 
L 1781 4325 
L 1884 4325 
L 1884 747 
Q 1884 391 1914 303 
Q 1944 216 2037 169 
Q 2131 122 2419 116 
L 2419 0 
L 825 0 
L 825 116 
Q 1125 122 1212 167 
Q 1300 213 1334 289 
Q 1369 366 1369 747 
L 1369 3034 
Q 1369 3497 1338 3628 
Q 1316 3728 1258 3775 
Q 1200 3822 1119 3822 
Q 1003 3822 797 3725 
L 750 3822 
z
" transform="scale(0.015625)"/>
        <path id="TimesNewRomanPSMT-30" d="M 231 2094 
Q 231 2819 450 3342 
Q 669 3866 1031 4122 
Q 1313 4325 1613 4325 
Q 2100 4325 2488 3828 
Q 2972 3213 2972 2159 
Q 2972 1422 2759 906 
Q 2547 391 2217 158 
Q 1888 -75 1581 -75 
Q 975 -75 572 641 
Q 231 1244 231 2094 
z
M 844 2016 
Q 844 1141 1059 588 
Q 1238 122 1591 122 
Q 1759 122 1940 273 
Q 2122 425 2216 781 
Q 2359 1319 2359 2297 
Q 2359 3022 2209 3506 
Q 2097 3866 1919 4016 
Q 1791 4119 1609 4119 
Q 1397 4119 1231 3928 
Q 1006 3669 925 3112 
Q 844 2556 844 2016 
z
" transform="scale(0.015625)"/>
       </defs>
       <use xlink:href="#TimesNewRomanPSMT-2212"/>
       <use xlink:href="#TimesNewRomanPSMT-31" x="56.396484"/>
       <use xlink:href="#TimesNewRomanPSMT-30" x="106.396484"/>
      </g>
     </g>
    </g>
    <g id="xtick_2">
     <g id="line2d_2">
      <g>
       <use xlink:href="#m21a4697519" x="194.663878" y="358.33875" style="stroke: #000000; stroke-width: 0.8"/>
      </g>
     </g>
     <g id="text_2">
      <!-- 0 -->
      <g transform="translate(190.913878 375.754375) scale(0.15 -0.15)">
       <use xlink:href="#TimesNewRomanPSMT-30"/>
      </g>
     </g>
    </g>
    <g id="xtick_3">
     <g id="line2d_3">
      <g>
       <use xlink:href="#m21a4697519" x="276.636024" y="358.33875" style="stroke: #000000; stroke-width: 0.8"/>
      </g>
     </g>
     <g id="text_3">
      <!-- 10 -->
      <g transform="translate(269.136024 375.754375) scale(0.15 -0.15)">
       <use xlink:href="#TimesNewRomanPSMT-31"/>
       <use xlink:href="#TimesNewRomanPSMT-30" x="50"/>
      </g>
     </g>
    </g>
    <g id="xtick_4">
     <g id="line2d_4">
      <g>
       <use xlink:href="#m21a4697519" x="358.608171" y="358.33875" style="stroke: #000000; stroke-width: 0.8"/>
      </g>
     </g>
     <g id="text_4">
      <!-- 20 -->
      <g transform="translate(351.108171 375.754375) scale(0.15 -0.15)">
       <defs>
        <path id="TimesNewRomanPSMT-32" d="M 2934 816 
L 2638 0 
L 138 0 
L 138 116 
Q 1241 1122 1691 1759 
Q 2141 2397 2141 2925 
Q 2141 3328 1894 3587 
Q 1647 3847 1303 3847 
Q 991 3847 742 3664 
Q 494 3481 375 3128 
L 259 3128 
Q 338 3706 661 4015 
Q 984 4325 1469 4325 
Q 1984 4325 2329 3994 
Q 2675 3663 2675 3213 
Q 2675 2891 2525 2569 
Q 2294 2063 1775 1497 
Q 997 647 803 472 
L 1909 472 
Q 2247 472 2383 497 
Q 2519 522 2628 598 
Q 2738 675 2819 816 
L 2934 816 
z
" transform="scale(0.015625)"/>
       </defs>
       <use xlink:href="#TimesNewRomanPSMT-32"/>
       <use xlink:href="#TimesNewRomanPSMT-30" x="50"/>
      </g>
     </g>
    </g>
    <g id="xtick_5">
     <g id="line2d_5">
      <g>
       <use xlink:href="#m21a4697519" x="440.580317" y="358.33875" style="stroke: #000000; stroke-width: 0.8"/>
      </g>
     </g>
     <g id="text_5">
      <!-- 30 -->
      <g transform="translate(433.080317 375.754375) scale(0.15 -0.15)">
       <defs>
        <path id="TimesNewRomanPSMT-33" d="M 325 3431 
Q 506 3859 782 4092 
Q 1059 4325 1472 4325 
Q 1981 4325 2253 3994 
Q 2459 3747 2459 3466 
Q 2459 3003 1878 2509 
Q 2269 2356 2469 2072 
Q 2669 1788 2669 1403 
Q 2669 853 2319 450 
Q 1863 -75 997 -75 
Q 569 -75 414 31 
Q 259 138 259 259 
Q 259 350 332 419 
Q 406 488 509 488 
Q 588 488 669 463 
Q 722 447 909 348 
Q 1097 250 1169 231 
Q 1284 197 1416 197 
Q 1734 197 1970 444 
Q 2206 691 2206 1028 
Q 2206 1275 2097 1509 
Q 2016 1684 1919 1775 
Q 1784 1900 1550 2001 
Q 1316 2103 1072 2103 
L 972 2103 
L 972 2197 
Q 1219 2228 1467 2375 
Q 1716 2522 1828 2728 
Q 1941 2934 1941 3181 
Q 1941 3503 1739 3701 
Q 1538 3900 1238 3900 
Q 753 3900 428 3381 
L 325 3431 
z
" transform="scale(0.015625)"/>
       </defs>
       <use xlink:href="#TimesNewRomanPSMT-33"/>
       <use xlink:href="#TimesNewRomanPSMT-30" x="50"/>
      </g>
     </g>
    </g>
    <g id="xtick_6">
     <g id="line2d_6">
      <g>
       <use xlink:href="#m21a4697519" x="522.552464" y="358.33875" style="stroke: #000000; stroke-width: 0.8"/>
      </g>
     </g>
     <g id="text_6">
      <!-- 40 -->
      <g transform="translate(515.052464 375.754375) scale(0.15 -0.15)">
       <defs>
        <path id="TimesNewRomanPSMT-34" d="M 2978 1563 
L 2978 1119 
L 2409 1119 
L 2409 0 
L 1894 0 
L 1894 1119 
L 100 1119 
L 100 1519 
L 2066 4325 
L 2409 4325 
L 2409 1563 
L 2978 1563 
z
M 1894 1563 
L 1894 3666 
L 406 1563 
L 1894 1563 
z
" transform="scale(0.015625)"/>
       </defs>
       <use xlink:href="#TimesNewRomanPSMT-34"/>
       <use xlink:href="#TimesNewRomanPSMT-30" x="50"/>
      </g>
     </g>
    </g>
    <g id="xtick_7">
     <g id="line2d_7">
      <g>
       <use xlink:href="#m21a4697519" x="604.52461" y="358.33875" style="stroke: #000000; stroke-width: 0.8"/>
      </g>
     </g>
     <g id="text_7">
      <!-- 50 -->
      <g transform="translate(597.02461 375.754375) scale(0.15 -0.15)">
       <defs>
        <path id="TimesNewRomanPSMT-35" d="M 2778 4238 
L 2534 3706 
L 1259 3706 
L 981 3138 
Q 1809 3016 2294 2522 
Q 2709 2097 2709 1522 
Q 2709 1188 2573 903 
Q 2438 619 2231 419 
Q 2025 219 1772 97 
Q 1413 -75 1034 -75 
Q 653 -75 479 54 
Q 306 184 306 341 
Q 306 428 378 495 
Q 450 563 559 563 
Q 641 563 702 538 
Q 763 513 909 409 
Q 1144 247 1384 247 
Q 1750 247 2026 523 
Q 2303 800 2303 1197 
Q 2303 1581 2056 1914 
Q 1809 2247 1375 2428 
Q 1034 2569 447 2591 
L 1259 4238 
L 2778 4238 
z
" transform="scale(0.015625)"/>
       </defs>
       <use xlink:href="#TimesNewRomanPSMT-35"/>
       <use xlink:href="#TimesNewRomanPSMT-30" x="50"/>
      </g>
     </g>
    </g>
    <g id="xtick_8">
     <g id="line2d_8">
      <g>
       <use xlink:href="#m21a4697519" x="686.496756" y="358.33875" style="stroke: #000000; stroke-width: 0.8"/>
      </g>
     </g>
     <g id="text_8">
      <!-- 60 -->
      <g transform="translate(678.996756 375.754375) scale(0.15 -0.15)">
       <defs>
        <path id="TimesNewRomanPSMT-36" d="M 2869 4325 
L 2869 4209 
Q 2456 4169 2195 4045 
Q 1934 3922 1679 3669 
Q 1425 3416 1258 3105 
Q 1091 2794 978 2366 
Q 1428 2675 1881 2675 
Q 2316 2675 2634 2325 
Q 2953 1975 2953 1425 
Q 2953 894 2631 456 
Q 2244 -75 1606 -75 
Q 1172 -75 869 213 
Q 275 772 275 1663 
Q 275 2231 503 2743 
Q 731 3256 1154 3653 
Q 1578 4050 1965 4187 
Q 2353 4325 2688 4325 
L 2869 4325 
z
M 925 2138 
Q 869 1716 869 1456 
Q 869 1156 980 804 
Q 1091 453 1309 247 
Q 1469 100 1697 100 
Q 1969 100 2183 356 
Q 2397 613 2397 1088 
Q 2397 1622 2184 2012 
Q 1972 2403 1581 2403 
Q 1463 2403 1327 2353 
Q 1191 2303 925 2138 
z
" transform="scale(0.015625)"/>
       </defs>
       <use xlink:href="#TimesNewRomanPSMT-36"/>
       <use xlink:href="#TimesNewRomanPSMT-30" x="50"/>
      </g>
     </g>
    </g>
    <g id="text_9">
     <!-- s1, s2 -->
     <g transform="translate(375.785937 393.378594) scale(0.15 -0.15)">
      <defs>
       <path id="TimesNewRomanPSMT-73" d="M 2050 2947 
L 2050 1972 
L 1947 1972 
Q 1828 2431 1642 2597 
Q 1456 2763 1169 2763 
Q 950 2763 815 2647 
Q 681 2531 681 2391 
Q 681 2216 781 2091 
Q 878 1963 1175 1819 
L 1631 1597 
Q 2266 1288 2266 781 
Q 2266 391 1970 151 
Q 1675 -88 1309 -88 
Q 1047 -88 709 6 
Q 606 38 541 38 
Q 469 38 428 -44 
L 325 -44 
L 325 978 
L 428 978 
Q 516 541 762 319 
Q 1009 97 1316 97 
Q 1531 97 1667 223 
Q 1803 350 1803 528 
Q 1803 744 1651 891 
Q 1500 1038 1047 1263 
Q 594 1488 453 1669 
Q 313 1847 313 2119 
Q 313 2472 555 2709 
Q 797 2947 1181 2947 
Q 1350 2947 1591 2875 
Q 1750 2828 1803 2828 
Q 1853 2828 1881 2850 
Q 1909 2872 1947 2947 
L 2050 2947 
z
" transform="scale(0.015625)"/>
       <path id="TimesNewRomanPSMT-2c" d="M 344 -1066 
L 344 -928 
Q 666 -822 842 -598 
Q 1019 -375 1019 -125 
Q 1019 -66 991 -25 
Q 969 3 947 3 
Q 913 3 797 -59 
Q 741 -88 678 -88 
Q 525 -88 434 3 
Q 344 94 344 253 
Q 344 406 461 515 
Q 578 625 747 625 
Q 953 625 1114 445 
Q 1275 266 1275 -31 
Q 1275 -353 1051 -629 
Q 828 -906 344 -1066 
z
" transform="scale(0.015625)"/>
       <path id="TimesNewRomanPSMT-20" transform="scale(0.015625)"/>
      </defs>
      <use xlink:href="#TimesNewRomanPSMT-73"/>
      <use xlink:href="#TimesNewRomanPSMT-31" x="38.916016"/>
      <use xlink:href="#TimesNewRomanPSMT-2c" x="88.916016"/>
      <use xlink:href="#TimesNewRomanPSMT-20" x="113.916016"/>
      <use xlink:href="#TimesNewRomanPSMT-73" x="138.916016"/>
      <use xlink:href="#TimesNewRomanPSMT-32" x="177.832031"/>
     </g>
    </g>
   </g>
   <g id="matplotlib.axis_2">
    <g id="ytick_1">
     <g id="line2d_9">
      <defs>
       <path id="mc9ef6d9ae2" d="M 0 0 
L -3.5 0 
" style="stroke: #000000; stroke-width: 0.8"/>
      </defs>
      <g>
       <use xlink:href="#mc9ef6d9ae2" x="58.074219" y="358.33875" style="stroke: #000000; stroke-width: 0.8"/>
      </g>
     </g>
     <g id="text_10">
      <!-- 0.00 -->
      <g transform="translate(24.824219 363.546562) scale(0.15 -0.15)">
       <defs>
        <path id="TimesNewRomanPSMT-2e" d="M 800 606 
Q 947 606 1047 504 
Q 1147 403 1147 259 
Q 1147 116 1045 14 
Q 944 -88 800 -88 
Q 656 -88 554 14 
Q 453 116 453 259 
Q 453 406 554 506 
Q 656 606 800 606 
z
" transform="scale(0.015625)"/>
       </defs>
       <use xlink:href="#TimesNewRomanPSMT-30"/>
       <use xlink:href="#TimesNewRomanPSMT-2e" x="50"/>
       <use xlink:href="#TimesNewRomanPSMT-30" x="75"/>
       <use xlink:href="#TimesNewRomanPSMT-30" x="125"/>
      </g>
     </g>
    </g>
    <g id="ytick_2">
     <g id="line2d_10">
      <g>
       <use xlink:href="#mc9ef6d9ae2" x="58.074219" y="302.585844" style="stroke: #000000; stroke-width: 0.8"/>
      </g>
     </g>
     <g id="text_11">
      <!-- 0.01 -->
      <g transform="translate(24.824219 307.793657) scale(0.15 -0.15)">
       <use xlink:href="#TimesNewRomanPSMT-30"/>
       <use xlink:href="#TimesNewRomanPSMT-2e" x="50"/>
       <use xlink:href="#TimesNewRomanPSMT-30" x="75"/>
       <use xlink:href="#TimesNewRomanPSMT-31" x="125"/>
      </g>
     </g>
    </g>
    <g id="ytick_3">
     <g id="line2d_11">
      <g>
       <use xlink:href="#mc9ef6d9ae2" x="58.074219" y="246.832939" style="stroke: #000000; stroke-width: 0.8"/>
      </g>
     </g>
     <g id="text_12">
      <!-- 0.02 -->
      <g transform="translate(24.824219 252.040751) scale(0.15 -0.15)">
       <use xlink:href="#TimesNewRomanPSMT-30"/>
       <use xlink:href="#TimesNewRomanPSMT-2e" x="50"/>
       <use xlink:href="#TimesNewRomanPSMT-30" x="75"/>
       <use xlink:href="#TimesNewRomanPSMT-32" x="125"/>
      </g>
     </g>
    </g>
    <g id="ytick_4">
     <g id="line2d_12">
      <g>
       <use xlink:href="#mc9ef6d9ae2" x="58.074219" y="191.080033" style="stroke: #000000; stroke-width: 0.8"/>
      </g>
     </g>
     <g id="text_13">
      <!-- 0.03 -->
      <g transform="translate(24.824219 196.287845) scale(0.15 -0.15)">
       <use xlink:href="#TimesNewRomanPSMT-30"/>
       <use xlink:href="#TimesNewRomanPSMT-2e" x="50"/>
       <use xlink:href="#TimesNewRomanPSMT-30" x="75"/>
       <use xlink:href="#TimesNewRomanPSMT-33" x="125"/>
      </g>
     </g>
    </g>
    <g id="ytick_5">
     <g id="line2d_13">
      <g>
       <use xlink:href="#mc9ef6d9ae2" x="58.074219" y="135.327127" style="stroke: #000000; stroke-width: 0.8"/>
      </g>
     </g>
     <g id="text_14">
      <!-- 0.04 -->
      <g transform="translate(24.824219 140.53494) scale(0.15 -0.15)">
       <use xlink:href="#TimesNewRomanPSMT-30"/>
       <use xlink:href="#TimesNewRomanPSMT-2e" x="50"/>
       <use xlink:href="#TimesNewRomanPSMT-30" x="75"/>
       <use xlink:href="#TimesNewRomanPSMT-34" x="125"/>
      </g>
     </g>
    </g>
    <g id="ytick_6">
     <g id="line2d_14">
      <g>
       <use xlink:href="#mc9ef6d9ae2" x="58.074219" y="79.574221" style="stroke: #000000; stroke-width: 0.8"/>
      </g>
     </g>
     <g id="text_15">
      <!-- 0.05 -->
      <g transform="translate(24.824219 84.782034) scale(0.15 -0.15)">
       <use xlink:href="#TimesNewRomanPSMT-30"/>
       <use xlink:href="#TimesNewRomanPSMT-2e" x="50"/>
       <use xlink:href="#TimesNewRomanPSMT-30" x="75"/>
       <use xlink:href="#TimesNewRomanPSMT-35" x="125"/>
      </g>
     </g>
    </g>
    <g id="text_16">
     <!-- Frequency -->
     <g transform="translate(17.5875 223.674609) rotate(-90) scale(0.15 -0.15)">
      <defs>
       <path id="TimesNewRomanPSMT-46" d="M 1309 4006 
L 1309 2341 
L 2081 2341 
Q 2347 2341 2470 2458 
Q 2594 2575 2634 2922 
L 2750 2922 
L 2750 1488 
L 2634 1488 
Q 2631 1734 2570 1850 
Q 2509 1966 2401 2023 
Q 2294 2081 2081 2081 
L 1309 2081 
L 1309 750 
Q 1309 428 1350 325 
Q 1381 247 1481 191 
Q 1619 116 1769 116 
L 1922 116 
L 1922 0 
L 103 0 
L 103 116 
L 253 116 
Q 516 116 634 269 
Q 709 369 709 750 
L 709 3488 
Q 709 3809 669 3913 
Q 638 3991 541 4047 
Q 406 4122 253 4122 
L 103 4122 
L 103 4238 
L 3256 4238 
L 3297 3306 
L 3188 3306 
Q 3106 3603 2998 3742 
Q 2891 3881 2733 3943 
Q 2575 4006 2244 4006 
L 1309 4006 
z
" transform="scale(0.015625)"/>
       <path id="TimesNewRomanPSMT-72" d="M 1038 2947 
L 1038 2303 
Q 1397 2947 1775 2947 
Q 1947 2947 2059 2842 
Q 2172 2738 2172 2600 
Q 2172 2478 2090 2393 
Q 2009 2309 1897 2309 
Q 1788 2309 1652 2417 
Q 1516 2525 1450 2525 
Q 1394 2525 1328 2463 
Q 1188 2334 1038 2041 
L 1038 669 
Q 1038 431 1097 309 
Q 1138 225 1241 169 
Q 1344 113 1538 113 
L 1538 0 
L 72 0 
L 72 113 
Q 291 113 397 181 
Q 475 231 506 341 
Q 522 394 522 644 
L 522 1753 
Q 522 2253 501 2348 
Q 481 2444 426 2487 
Q 372 2531 291 2531 
Q 194 2531 72 2484 
L 41 2597 
L 906 2947 
L 1038 2947 
z
" transform="scale(0.015625)"/>
       <path id="TimesNewRomanPSMT-65" d="M 681 1784 
Q 678 1147 991 784 
Q 1303 422 1725 422 
Q 2006 422 2214 576 
Q 2422 731 2563 1106 
L 2659 1044 
Q 2594 616 2278 264 
Q 1963 -88 1488 -88 
Q 972 -88 605 314 
Q 238 716 238 1394 
Q 238 2128 614 2539 
Q 991 2950 1559 2950 
Q 2041 2950 2350 2633 
Q 2659 2316 2659 1784 
L 681 1784 
z
M 681 1966 
L 2006 1966 
Q 1991 2241 1941 2353 
Q 1863 2528 1708 2628 
Q 1553 2728 1384 2728 
Q 1125 2728 920 2526 
Q 716 2325 681 1966 
z
" transform="scale(0.015625)"/>
       <path id="TimesNewRomanPSMT-71" d="M 2734 2947 
L 2734 -734 
Q 2734 -1009 2771 -1087 
Q 2809 -1166 2889 -1209 
Q 2969 -1253 3200 -1253 
L 3200 -1369 
L 1756 -1369 
L 1756 -1253 
L 1816 -1253 
Q 1991 -1253 2081 -1203 
Q 2144 -1169 2181 -1080 
Q 2219 -991 2219 -734 
L 2219 497 
Q 1934 159 1721 35 
Q 1509 -88 1281 -88 
Q 866 -88 539 290 
Q 213 669 213 1303 
Q 213 2031 644 2489 
Q 1075 2947 1684 2947 
Q 1863 2947 2013 2897 
Q 2163 2847 2281 2747 
Q 2463 2834 2628 2947 
L 2734 2947 
z
M 2219 694 
L 2219 2038 
Q 2219 2272 2158 2406 
Q 2097 2541 1940 2634 
Q 1784 2728 1588 2728 
Q 1238 2728 988 2431 
Q 738 2134 738 1531 
Q 738 953 992 653 
Q 1247 353 1606 353 
Q 1791 353 1934 433 
Q 2078 513 2219 694 
z
" transform="scale(0.015625)"/>
       <path id="TimesNewRomanPSMT-75" d="M 2709 2863 
L 2709 1128 
Q 2709 631 2732 520 
Q 2756 409 2807 365 
Q 2859 322 2928 322 
Q 3025 322 3147 375 
L 3191 266 
L 2334 -88 
L 2194 -88 
L 2194 519 
Q 1825 119 1631 15 
Q 1438 -88 1222 -88 
Q 981 -88 804 51 
Q 628 191 559 409 
Q 491 628 491 1028 
L 491 2306 
Q 491 2509 447 2587 
Q 403 2666 317 2708 
Q 231 2750 6 2747 
L 6 2863 
L 1009 2863 
L 1009 947 
Q 1009 547 1148 422 
Q 1288 297 1484 297 
Q 1619 297 1789 381 
Q 1959 466 2194 703 
L 2194 2325 
Q 2194 2569 2105 2655 
Q 2016 2741 1734 2747 
L 1734 2863 
L 2709 2863 
z
" transform="scale(0.015625)"/>
       <path id="TimesNewRomanPSMT-6e" d="M 1034 2341 
Q 1538 2947 1994 2947 
Q 2228 2947 2397 2830 
Q 2566 2713 2666 2444 
Q 2734 2256 2734 1869 
L 2734 647 
Q 2734 375 2778 278 
Q 2813 200 2889 156 
Q 2966 113 3172 113 
L 3172 0 
L 1756 0 
L 1756 113 
L 1816 113 
Q 2016 113 2095 173 
Q 2175 234 2206 353 
Q 2219 400 2219 647 
L 2219 1819 
Q 2219 2209 2117 2386 
Q 2016 2563 1775 2563 
Q 1403 2563 1034 2156 
L 1034 647 
Q 1034 356 1069 288 
Q 1113 197 1189 155 
Q 1266 113 1500 113 
L 1500 0 
L 84 0 
L 84 113 
L 147 113 
Q 366 113 442 223 
Q 519 334 519 647 
L 519 1709 
Q 519 2225 495 2337 
Q 472 2450 423 2490 
Q 375 2531 294 2531 
Q 206 2531 84 2484 
L 38 2597 
L 900 2947 
L 1034 2947 
L 1034 2341 
z
" transform="scale(0.015625)"/>
       <path id="TimesNewRomanPSMT-63" d="M 2631 1088 
Q 2516 522 2178 217 
Q 1841 -88 1431 -88 
Q 944 -88 581 321 
Q 219 731 219 1428 
Q 219 2103 620 2525 
Q 1022 2947 1584 2947 
Q 2006 2947 2278 2723 
Q 2550 2500 2550 2259 
Q 2550 2141 2473 2067 
Q 2397 1994 2259 1994 
Q 2075 1994 1981 2113 
Q 1928 2178 1911 2362 
Q 1894 2547 1784 2644 
Q 1675 2738 1481 2738 
Q 1169 2738 978 2506 
Q 725 2200 725 1697 
Q 725 1184 976 792 
Q 1228 400 1656 400 
Q 1963 400 2206 609 
Q 2378 753 2541 1131 
L 2631 1088 
z
" transform="scale(0.015625)"/>
       <path id="TimesNewRomanPSMT-79" d="M 38 2863 
L 1372 2863 
L 1372 2747 
L 1306 2747 
Q 1166 2747 1095 2686 
Q 1025 2625 1025 2534 
Q 1025 2413 1128 2197 
L 1825 753 
L 2466 2334 
Q 2519 2463 2519 2588 
Q 2519 2644 2497 2672 
Q 2472 2706 2419 2726 
Q 2366 2747 2231 2747 
L 2231 2863 
L 3163 2863 
L 3163 2747 
Q 3047 2734 2984 2696 
Q 2922 2659 2847 2556 
Q 2819 2513 2741 2316 
L 1575 -541 
Q 1406 -956 1132 -1168 
Q 859 -1381 606 -1381 
Q 422 -1381 303 -1275 
Q 184 -1169 184 -1031 
Q 184 -900 270 -820 
Q 356 -741 506 -741 
Q 609 -741 788 -809 
Q 913 -856 944 -856 
Q 1038 -856 1148 -759 
Q 1259 -663 1372 -384 
L 1575 113 
L 547 2272 
Q 500 2369 397 2513 
Q 319 2622 269 2659 
Q 197 2709 38 2747 
L 38 2863 
z
" transform="scale(0.015625)"/>
      </defs>
      <use xlink:href="#TimesNewRomanPSMT-46"/>
      <use xlink:href="#TimesNewRomanPSMT-72" x="55.615234"/>
      <use xlink:href="#TimesNewRomanPSMT-65" x="88.916016"/>
      <use xlink:href="#TimesNewRomanPSMT-71" x="133.300781"/>
      <use xlink:href="#TimesNewRomanPSMT-75" x="183.300781"/>
      <use xlink:href="#TimesNewRomanPSMT-65" x="233.300781"/>
      <use xlink:href="#TimesNewRomanPSMT-6e" x="277.685547"/>
      <use xlink:href="#TimesNewRomanPSMT-63" x="327.685547"/>
      <use xlink:href="#TimesNewRomanPSMT-79" x="372.070312"/>
     </g>
    </g>
   </g>
   <g id="line2d_15">
    <path d="M 194.663878 358.289647 
L 198.803885 358.27255 
L 202.943893 358.249961 
L 207.0839 358.220278 
L 211.223907 358.181489 
L 215.363915 358.131078 
L 219.503922 358.065923 
L 223.64393 357.982176 
L 227.783937 357.875129 
L 231.923944 357.739056 
L 236.063952 357.567051 
L 240.203959 357.350838 
L 244.343966 357.080576 
L 248.483974 356.744652 
L 252.623981 356.329464 
L 256.763989 355.819215 
L 260.903996 355.195701 
L 265.044003 354.438127 
L 269.184011 353.522944 
L 273.324018 352.423733 
L 277.464026 351.111132 
L 281.604033 349.552846 
L 285.74404 347.713729 
L 289.884048 345.555973 
L 294.024055 343.039408 
L 298.164063 340.121938 
L 302.30407 336.760108 
L 306.444077 332.909829 
L 310.584085 328.527249 
L 314.724092 323.569779 
L 318.8641 317.997259 
L 323.004107 311.773264 
L 327.144114 304.866503 
L 331.284122 297.25231 
L 335.424129 288.914164 
L 339.564137 279.845218 
L 343.704144 270.049762 
L 347.844151 259.544583 
L 351.984159 248.360156 
L 356.124166 236.541603 
L 360.264174 224.149365 
L 364.404181 211.259535 
L 368.544188 197.963798 
L 372.684196 184.368948 
L 376.824203 170.595948 
L 380.964211 156.778534 
L 385.104218 143.061355 
L 389.244225 129.597686 
L 393.384233 116.546743 
L 397.52424 104.070673 
L 401.664248 92.331281 
L 405.804255 81.486589 
L 409.944262 71.687329 
L 414.08427 63.073474 
L 418.224277 55.770923 
L 422.364285 49.88844 
L 426.504292 45.514962 
L 430.644299 42.717363 
L 434.784307 41.53875 
L 438.924314 41.997362 
L 443.064322 44.086096 
L 447.204329 47.772695 
L 451.344336 53.00057 
L 455.484344 59.690253 
L 459.624351 67.7414 
L 463.764359 77.035299 
L 467.904366 87.437777 
L 472.044373 98.802417 
L 476.184381 110.973973 
L 480.324388 123.791877 
L 484.464396 137.093717 
L 488.604403 150.718596 
L 492.74441 164.510274 
L 496.884418 178.319998 
L 501.024425 192.008972 
L 505.164432 205.450411 
L 509.30444 218.531139 
L 513.444447 231.152735 
L 517.584455 243.23221 
L 521.724462 254.702251 
L 525.864469 265.511056 
L 530.004477 275.621806 
L 534.144484 285.01182 
L 538.284492 293.671467 
L 542.424499 301.602867 
L 546.564506 308.818467 
L 550.704514 315.339536 
L 554.844521 321.194636 
L 558.984529 326.41811 
L 563.124536 331.048641 
L 567.264543 335.1279 
L 571.404551 338.699319 
L 575.544558 341.806998 
L 579.684566 344.494771 
L 583.824573 346.80541 
L 587.96458 348.779995 
L 592.104588 350.457417 
L 596.244595 351.874024 
L 600.384603 353.063384 
L 604.52461 354.056152 
" clip-path="url(#p85c3cafcf7)" style="fill: none; stroke: #ff0000; stroke-width: 1.5; stroke-linecap: square"/>
   </g>
   <g id="line2d_16">
    <path d="M 194.663878 353.866724 
L 198.803885 352.846599 
L 202.943893 351.628006 
L 207.0839 350.180652 
L 211.223907 348.471474 
L 215.363915 346.464786 
L 219.503922 344.122528 
L 223.64393 341.404625 
L 227.783937 338.269489 
L 231.923944 334.674645 
L 236.063952 330.577511 
L 240.203959 325.936313 
L 244.343966 320.711146 
L 248.483974 314.865157 
L 252.623981 308.365848 
L 256.763989 301.186456 
L 260.903996 293.307389 
L 265.044003 284.717688 
L 269.184011 275.416441 
L 273.324018 265.414137 
L 277.464026 254.733872 
L 281.604033 243.412373 
L 285.74404 231.500776 
L 289.884048 219.065105 
L 294.024055 206.186402 
L 298.164063 192.960481 
L 302.30407 179.497253 
L 306.444077 165.919634 
L 310.584085 152.361998 
L 314.724092 138.968232 
L 318.8641 125.889373 
L 323.004107 113.280922 
L 327.144114 101.299857 
L 331.284122 90.101449 
L 335.424129 79.835948 
L 339.564137 70.64526 
L 343.704144 62.65969 
L 347.844151 55.994877 
L 351.984159 50.749012 
L 356.124166 47.000427 
L 360.264174 44.805656 
L 364.404181 44.198009 
L 368.544188 45.186737 
L 372.684196 47.756795 
L 376.824203 51.869223 
L 380.964211 57.462126 
L 385.104218 64.452232 
L 389.244225 72.736945 
L 393.384233 82.196856 
L 397.52424 92.698598 
L 401.664248 104.097971 
L 405.804255 116.243222 
L 409.944262 128.978374 
L 414.08427 142.146518 
L 418.224277 155.592959 
L 422.364285 169.168134 
L 426.504292 182.730233 
L 430.644299 196.147455 
L 434.784307 209.299871 
L 438.924314 222.080854 
L 443.064322 234.398077 
L 447.204329 246.174078 
L 451.344336 257.346419 
L 455.484344 267.867462 
L 459.624351 277.70382 
L 463.764359 286.835509 
L 467.904366 295.254883 
L 472.044373 302.96538 
L 476.184381 309.980155 
L 480.324388 316.320645 
L 484.464396 322.015114 
L 488.604403 327.097225 
L 492.74441 331.604671 
L 496.884418 335.57791 
L 501.024425 339.059 
L 505.164432 342.090575 
L 509.30444 344.714963 
L 513.444447 346.973443 
L 517.584455 348.905647 
L 521.724462 350.549098 
L 525.864469 351.938874 
L 530.004477 353.107383 
L 534.144484 354.084247 
L 538.284492 354.896261 
L 542.424499 355.567432 
L 546.564506 356.11907 
L 550.704514 356.569928 
L 554.844521 356.936362 
L 558.984529 357.232528 
L 563.124536 357.470577 
L 567.264543 357.660858 
L 571.404551 357.812121 
L 575.544558 357.931708 
L 579.684566 358.025736 
L 583.824573 358.099265 
L 587.96458 358.156452 
L 592.104588 358.200687 
L 596.244595 358.234719 
L 600.384603 358.26076 
L 604.52461 358.28058 
" clip-path="url(#p85c3cafcf7)" style="fill: none; stroke: #008000; stroke-width: 1.5; stroke-linecap: square"/>
   </g>
   <g id="patch_103">
    <path d="M 58.074219 358.33875 
L 58.074219 25.69875 
" style="fill: none; stroke: #000000; stroke-width: 0.8; stroke-linejoin: miter; stroke-linecap: square"/>
   </g>
   <g id="patch_104">
    <path d="M 727.674219 358.33875 
L 727.674219 25.69875 
" style="fill: none; stroke: #000000; stroke-width: 0.8; stroke-linejoin: miter; stroke-linecap: square"/>
   </g>
   <g id="patch_105">
    <path d="M 58.074219 358.33875 
L 727.674219 358.33875 
" style="fill: none; stroke: #000000; stroke-width: 0.8; stroke-linejoin: miter; stroke-linecap: square"/>
   </g>
   <g id="patch_106">
    <path d="M 58.074219 25.69875 
L 727.674219 25.69875 
" style="fill: none; stroke: #000000; stroke-width: 0.8; stroke-linejoin: miter; stroke-linecap: square"/>
   </g>
   <g id="text_17">
    <!-- Histogram and Gaussian approx. of s1 and s2 -->
    <g transform="translate(229.397656 19.69875) scale(0.18 -0.18)">
     <defs>
      <path id="TimesNewRomanPSMT-48" d="M 1316 2272 
L 3284 2272 
L 3284 3484 
Q 3284 3809 3244 3913 
Q 3213 3991 3113 4047 
Q 2978 4122 2828 4122 
L 2678 4122 
L 2678 4238 
L 4491 4238 
L 4491 4122 
L 4341 4122 
Q 4191 4122 4056 4050 
Q 3956 4000 3920 3898 
Q 3884 3797 3884 3484 
L 3884 750 
Q 3884 428 3925 325 
Q 3956 247 4053 191 
Q 4191 116 4341 116 
L 4491 116 
L 4491 0 
L 2678 0 
L 2678 116 
L 2828 116 
Q 3088 116 3206 269 
Q 3284 369 3284 750 
L 3284 2041 
L 1316 2041 
L 1316 750 
Q 1316 428 1356 325 
Q 1388 247 1488 191 
Q 1622 116 1772 116 
L 1925 116 
L 1925 0 
L 109 0 
L 109 116 
L 259 116 
Q 522 116 641 269 
Q 716 369 716 750 
L 716 3484 
Q 716 3809 675 3913 
Q 644 3991 547 4047 
Q 409 4122 259 4122 
L 109 4122 
L 109 4238 
L 1925 4238 
L 1925 4122 
L 1772 4122 
Q 1622 4122 1488 4050 
Q 1391 4000 1353 3898 
Q 1316 3797 1316 3484 
L 1316 2272 
z
" transform="scale(0.015625)"/>
      <path id="TimesNewRomanPSMT-69" d="M 928 4444 
Q 1059 4444 1151 4351 
Q 1244 4259 1244 4128 
Q 1244 3997 1151 3903 
Q 1059 3809 928 3809 
Q 797 3809 703 3903 
Q 609 3997 609 4128 
Q 609 4259 701 4351 
Q 794 4444 928 4444 
z
M 1188 2947 
L 1188 647 
Q 1188 378 1227 289 
Q 1266 200 1342 156 
Q 1419 113 1622 113 
L 1622 0 
L 231 0 
L 231 113 
Q 441 113 512 153 
Q 584 194 626 287 
Q 669 381 669 647 
L 669 1750 
Q 669 2216 641 2353 
Q 619 2453 572 2492 
Q 525 2531 444 2531 
Q 356 2531 231 2484 
L 188 2597 
L 1050 2947 
L 1188 2947 
z
" transform="scale(0.015625)"/>
      <path id="TimesNewRomanPSMT-74" d="M 1031 3803 
L 1031 2863 
L 1700 2863 
L 1700 2644 
L 1031 2644 
L 1031 788 
Q 1031 509 1111 412 
Q 1191 316 1316 316 
Q 1419 316 1516 380 
Q 1613 444 1666 569 
L 1788 569 
Q 1678 263 1478 108 
Q 1278 -47 1066 -47 
Q 922 -47 784 33 
Q 647 113 581 261 
Q 516 409 516 719 
L 516 2644 
L 63 2644 
L 63 2747 
Q 234 2816 414 2980 
Q 594 3144 734 3369 
Q 806 3488 934 3803 
L 1031 3803 
z
" transform="scale(0.015625)"/>
      <path id="TimesNewRomanPSMT-6f" d="M 1600 2947 
Q 2250 2947 2644 2453 
Q 2978 2031 2978 1484 
Q 2978 1100 2793 706 
Q 2609 313 2286 112 
Q 1963 -88 1566 -88 
Q 919 -88 538 428 
Q 216 863 216 1403 
Q 216 1797 411 2186 
Q 606 2575 925 2761 
Q 1244 2947 1600 2947 
z
M 1503 2744 
Q 1338 2744 1170 2645 
Q 1003 2547 900 2300 
Q 797 2053 797 1666 
Q 797 1041 1045 587 
Q 1294 134 1700 134 
Q 2003 134 2200 384 
Q 2397 634 2397 1244 
Q 2397 2006 2069 2444 
Q 1847 2744 1503 2744 
z
" transform="scale(0.015625)"/>
      <path id="TimesNewRomanPSMT-67" d="M 966 1044 
Q 703 1172 562 1401 
Q 422 1631 422 1909 
Q 422 2334 742 2640 
Q 1063 2947 1563 2947 
Q 1972 2947 2272 2747 
L 2878 2747 
Q 3013 2747 3034 2739 
Q 3056 2731 3066 2713 
Q 3084 2684 3084 2613 
Q 3084 2531 3069 2500 
Q 3059 2484 3036 2475 
Q 3013 2466 2878 2466 
L 2506 2466 
Q 2681 2241 2681 1891 
Q 2681 1491 2375 1206 
Q 2069 922 1553 922 
Q 1341 922 1119 984 
Q 981 866 932 777 
Q 884 688 884 625 
Q 884 572 936 522 
Q 988 472 1138 450 
Q 1225 438 1575 428 
Q 2219 413 2409 384 
Q 2700 344 2873 169 
Q 3047 -6 3047 -263 
Q 3047 -616 2716 -925 
Q 2228 -1381 1444 -1381 
Q 841 -1381 425 -1109 
Q 191 -953 191 -784 
Q 191 -709 225 -634 
Q 278 -519 444 -313 
Q 466 -284 763 25 
Q 600 122 533 198 
Q 466 275 466 372 
Q 466 481 555 628 
Q 644 775 966 1044 
z
M 1509 2797 
Q 1278 2797 1122 2612 
Q 966 2428 966 2047 
Q 966 1553 1178 1281 
Q 1341 1075 1591 1075 
Q 1828 1075 1981 1253 
Q 2134 1431 2134 1813 
Q 2134 2309 1919 2591 
Q 1759 2797 1509 2797 
z
M 934 0 
Q 788 -159 713 -296 
Q 638 -434 638 -550 
Q 638 -700 819 -813 
Q 1131 -1006 1722 -1006 
Q 2284 -1006 2551 -807 
Q 2819 -609 2819 -384 
Q 2819 -222 2659 -153 
Q 2497 -84 2016 -72 
Q 1313 -53 934 0 
z
" transform="scale(0.015625)"/>
      <path id="TimesNewRomanPSMT-61" d="M 1822 413 
Q 1381 72 1269 19 
Q 1100 -59 909 -59 
Q 613 -59 420 144 
Q 228 347 228 678 
Q 228 888 322 1041 
Q 450 1253 767 1440 
Q 1084 1628 1822 1897 
L 1822 2009 
Q 1822 2438 1686 2597 
Q 1550 2756 1291 2756 
Q 1094 2756 978 2650 
Q 859 2544 859 2406 
L 866 2225 
Q 866 2081 792 2003 
Q 719 1925 600 1925 
Q 484 1925 411 2006 
Q 338 2088 338 2228 
Q 338 2497 613 2722 
Q 888 2947 1384 2947 
Q 1766 2947 2009 2819 
Q 2194 2722 2281 2516 
Q 2338 2381 2338 1966 
L 2338 994 
Q 2338 584 2353 492 
Q 2369 400 2405 369 
Q 2441 338 2488 338 
Q 2538 338 2575 359 
Q 2641 400 2828 588 
L 2828 413 
Q 2478 -56 2159 -56 
Q 2006 -56 1915 50 
Q 1825 156 1822 413 
z
M 1822 616 
L 1822 1706 
Q 1350 1519 1213 1441 
Q 966 1303 859 1153 
Q 753 1003 753 825 
Q 753 600 887 451 
Q 1022 303 1197 303 
Q 1434 303 1822 616 
z
" transform="scale(0.015625)"/>
      <path id="TimesNewRomanPSMT-6d" d="M 1050 2338 
Q 1363 2650 1419 2697 
Q 1559 2816 1721 2881 
Q 1884 2947 2044 2947 
Q 2313 2947 2506 2790 
Q 2700 2634 2766 2338 
Q 3088 2713 3309 2830 
Q 3531 2947 3766 2947 
Q 3994 2947 4170 2830 
Q 4347 2713 4450 2447 
Q 4519 2266 4519 1878 
L 4519 647 
Q 4519 378 4559 278 
Q 4591 209 4675 161 
Q 4759 113 4950 113 
L 4950 0 
L 3538 0 
L 3538 113 
L 3597 113 
Q 3781 113 3884 184 
Q 3956 234 3988 344 
Q 4000 397 4000 647 
L 4000 1878 
Q 4000 2228 3916 2372 
Q 3794 2572 3525 2572 
Q 3359 2572 3192 2489 
Q 3025 2406 2788 2181 
L 2781 2147 
L 2788 2013 
L 2788 647 
Q 2788 353 2820 281 
Q 2853 209 2943 161 
Q 3034 113 3253 113 
L 3253 0 
L 1806 0 
L 1806 113 
Q 2044 113 2133 169 
Q 2222 225 2256 338 
Q 2272 391 2272 647 
L 2272 1878 
Q 2272 2228 2169 2381 
Q 2031 2581 1784 2581 
Q 1616 2581 1450 2491 
Q 1191 2353 1050 2181 
L 1050 647 
Q 1050 366 1089 281 
Q 1128 197 1204 155 
Q 1281 113 1516 113 
L 1516 0 
L 100 0 
L 100 113 
Q 297 113 375 155 
Q 453 197 493 289 
Q 534 381 534 647 
L 534 1741 
Q 534 2213 506 2350 
Q 484 2453 437 2492 
Q 391 2531 309 2531 
Q 222 2531 100 2484 
L 53 2597 
L 916 2947 
L 1050 2947 
L 1050 2338 
z
" transform="scale(0.015625)"/>
      <path id="TimesNewRomanPSMT-64" d="M 2222 322 
Q 2013 103 1813 7 
Q 1613 -88 1381 -88 
Q 913 -88 563 304 
Q 213 697 213 1313 
Q 213 1928 600 2439 
Q 988 2950 1597 2950 
Q 1975 2950 2222 2709 
L 2222 3238 
Q 2222 3728 2198 3840 
Q 2175 3953 2125 3993 
Q 2075 4034 2000 4034 
Q 1919 4034 1784 3984 
L 1744 4094 
L 2597 4444 
L 2738 4444 
L 2738 1134 
Q 2738 631 2761 520 
Q 2784 409 2836 365 
Q 2888 322 2956 322 
Q 3041 322 3181 375 
L 3216 266 
L 2366 -88 
L 2222 -88 
L 2222 322 
z
M 2222 541 
L 2222 2016 
Q 2203 2228 2109 2403 
Q 2016 2578 1861 2667 
Q 1706 2756 1559 2756 
Q 1284 2756 1069 2509 
Q 784 2184 784 1559 
Q 784 928 1059 592 
Q 1334 256 1672 256 
Q 1956 256 2222 541 
z
" transform="scale(0.015625)"/>
      <path id="TimesNewRomanPSMT-47" d="M 3928 4334 
L 4038 2997 
L 3928 2997 
Q 3763 3497 3500 3750 
Q 3122 4116 2528 4116 
Q 1719 4116 1297 3475 
Q 944 2934 944 2188 
Q 944 1581 1178 1081 
Q 1413 581 1792 348 
Q 2172 116 2572 116 
Q 2806 116 3025 175 
Q 3244 234 3447 350 
L 3447 1575 
Q 3447 1894 3398 1992 
Q 3350 2091 3248 2142 
Q 3147 2194 2891 2194 
L 2891 2313 
L 4531 2313 
L 4531 2194 
L 4453 2194 
Q 4209 2194 4119 2031 
Q 4056 1916 4056 1575 
L 4056 278 
Q 3697 84 3347 -6 
Q 2997 -97 2569 -97 
Q 1341 -97 703 691 
Q 225 1281 225 2053 
Q 225 2613 494 3125 
Q 813 3734 1369 4063 
Q 1834 4334 2469 4334 
Q 2700 4334 2889 4296 
Q 3078 4259 3425 4131 
Q 3600 4066 3659 4066 
Q 3719 4066 3761 4120 
Q 3803 4175 3813 4334 
L 3928 4334 
z
" transform="scale(0.015625)"/>
      <path id="TimesNewRomanPSMT-70" d="M -6 2578 
L 875 2934 
L 994 2934 
L 994 2266 
Q 1216 2644 1439 2795 
Q 1663 2947 1909 2947 
Q 2341 2947 2628 2609 
Q 2981 2197 2981 1534 
Q 2981 794 2556 309 
Q 2206 -88 1675 -88 
Q 1444 -88 1275 -22 
Q 1150 25 994 166 
L 994 -706 
Q 994 -1000 1030 -1079 
Q 1066 -1159 1155 -1206 
Q 1244 -1253 1478 -1253 
L 1478 -1369 
L -22 -1369 
L -22 -1253 
L 56 -1253 
Q 228 -1256 350 -1188 
Q 409 -1153 442 -1076 
Q 475 -1000 475 -688 
L 475 2019 
Q 475 2297 450 2372 
Q 425 2447 370 2484 
Q 316 2522 222 2522 
Q 147 2522 31 2478 
L -6 2578 
z
M 994 2081 
L 994 1013 
Q 994 666 1022 556 
Q 1066 375 1236 237 
Q 1406 100 1666 100 
Q 1978 100 2172 344 
Q 2425 663 2425 1241 
Q 2425 1897 2138 2250 
Q 1938 2494 1663 2494 
Q 1513 2494 1366 2419 
Q 1253 2363 994 2081 
z
" transform="scale(0.015625)"/>
      <path id="TimesNewRomanPSMT-78" d="M 84 2863 
L 1431 2863 
L 1431 2747 
Q 1303 2747 1251 2703 
Q 1200 2659 1200 2588 
Q 1200 2513 1309 2356 
Q 1344 2306 1413 2200 
L 1616 1875 
L 1850 2200 
Q 2075 2509 2075 2591 
Q 2075 2656 2022 2701 
Q 1969 2747 1850 2747 
L 1850 2863 
L 2819 2863 
L 2819 2747 
Q 2666 2738 2553 2663 
Q 2400 2556 2134 2200 
L 1744 1678 
L 2456 653 
Q 2719 275 2831 198 
Q 2944 122 3122 113 
L 3122 0 
L 1772 0 
L 1772 113 
Q 1913 113 1991 175 
Q 2050 219 2050 291 
Q 2050 363 1850 653 
L 1431 1266 
L 972 653 
Q 759 369 759 316 
Q 759 241 829 180 
Q 900 119 1041 113 
L 1041 0 
L 106 0 
L 106 113 
Q 219 128 303 191 
Q 422 281 703 653 
L 1303 1450 
L 759 2238 
Q 528 2575 401 2661 
Q 275 2747 84 2747 
L 84 2863 
z
" transform="scale(0.015625)"/>
      <path id="TimesNewRomanPSMT-66" d="M 1319 2638 
L 1319 756 
Q 1319 356 1406 250 
Q 1522 113 1716 113 
L 1975 113 
L 1975 0 
L 266 0 
L 266 113 
L 394 113 
Q 519 113 622 175 
Q 725 238 764 344 
Q 803 450 803 756 
L 803 2638 
L 247 2638 
L 247 2863 
L 803 2863 
L 803 3050 
Q 803 3478 940 3775 
Q 1078 4072 1361 4255 
Q 1644 4438 1997 4438 
Q 2325 4438 2600 4225 
Q 2781 4084 2781 3909 
Q 2781 3816 2700 3733 
Q 2619 3650 2525 3650 
Q 2453 3650 2373 3701 
Q 2294 3753 2178 3923 
Q 2063 4094 1966 4153 
Q 1869 4213 1750 4213 
Q 1606 4213 1506 4136 
Q 1406 4059 1362 3898 
Q 1319 3738 1319 3069 
L 1319 2863 
L 2056 2863 
L 2056 2638 
L 1319 2638 
z
" transform="scale(0.015625)"/>
     </defs>
     <use xlink:href="#TimesNewRomanPSMT-48"/>
     <use xlink:href="#TimesNewRomanPSMT-69" x="72.216797"/>
     <use xlink:href="#TimesNewRomanPSMT-73" x="100"/>
     <use xlink:href="#TimesNewRomanPSMT-74" x="138.916016"/>
     <use xlink:href="#TimesNewRomanPSMT-6f" x="166.699219"/>
     <use xlink:href="#TimesNewRomanPSMT-67" x="216.699219"/>
     <use xlink:href="#TimesNewRomanPSMT-72" x="266.699219"/>
     <use xlink:href="#TimesNewRomanPSMT-61" x="300"/>
     <use xlink:href="#TimesNewRomanPSMT-6d" x="344.384766"/>
     <use xlink:href="#TimesNewRomanPSMT-20" x="422.167969"/>
     <use xlink:href="#TimesNewRomanPSMT-61" x="447.167969"/>
     <use xlink:href="#TimesNewRomanPSMT-6e" x="491.552734"/>
     <use xlink:href="#TimesNewRomanPSMT-64" x="541.552734"/>
     <use xlink:href="#TimesNewRomanPSMT-20" x="591.552734"/>
     <use xlink:href="#TimesNewRomanPSMT-47" x="616.552734"/>
     <use xlink:href="#TimesNewRomanPSMT-61" x="688.769531"/>
     <use xlink:href="#TimesNewRomanPSMT-75" x="733.154297"/>
     <use xlink:href="#TimesNewRomanPSMT-73" x="783.154297"/>
     <use xlink:href="#TimesNewRomanPSMT-73" x="822.070312"/>
     <use xlink:href="#TimesNewRomanPSMT-69" x="860.986328"/>
     <use xlink:href="#TimesNewRomanPSMT-61" x="888.769531"/>
     <use xlink:href="#TimesNewRomanPSMT-6e" x="933.154297"/>
     <use xlink:href="#TimesNewRomanPSMT-20" x="983.154297"/>
     <use xlink:href="#TimesNewRomanPSMT-61" x="1008.154297"/>
     <use xlink:href="#TimesNewRomanPSMT-70" x="1052.539062"/>
     <use xlink:href="#TimesNewRomanPSMT-70" x="1102.539062"/>
     <use xlink:href="#TimesNewRomanPSMT-72" x="1152.539062"/>
     <use xlink:href="#TimesNewRomanPSMT-6f" x="1185.839844"/>
     <use xlink:href="#TimesNewRomanPSMT-78" x="1235.839844"/>
     <use xlink:href="#TimesNewRomanPSMT-2e" x="1285.839844"/>
     <use xlink:href="#TimesNewRomanPSMT-20" x="1310.839844"/>
     <use xlink:href="#TimesNewRomanPSMT-6f" x="1335.839844"/>
     <use xlink:href="#TimesNewRomanPSMT-66" x="1385.839844"/>
     <use xlink:href="#TimesNewRomanPSMT-20" x="1419.140625"/>
     <use xlink:href="#TimesNewRomanPSMT-73" x="1444.140625"/>
     <use xlink:href="#TimesNewRomanPSMT-31" x="1483.056641"/>
     <use xlink:href="#TimesNewRomanPSMT-20" x="1533.056641"/>
     <use xlink:href="#TimesNewRomanPSMT-61" x="1558.056641"/>
     <use xlink:href="#TimesNewRomanPSMT-6e" x="1602.441406"/>
     <use xlink:href="#TimesNewRomanPSMT-64" x="1652.441406"/>
     <use xlink:href="#TimesNewRomanPSMT-20" x="1702.441406"/>
     <use xlink:href="#TimesNewRomanPSMT-73" x="1727.441406"/>
     <use xlink:href="#TimesNewRomanPSMT-32" x="1766.357422"/>
    </g>
   </g>
   <g id="legend_1">
    <g id="patch_107">
     <path d="M 505.861719 122.533125 
L 717.174219 122.533125 
Q 720.174219 122.533125 720.174219 119.533125 
L 720.174219 36.19875 
Q 720.174219 33.19875 717.174219 33.19875 
L 505.861719 33.19875 
Q 502.861719 33.19875 502.861719 36.19875 
L 502.861719 119.533125 
Q 502.861719 122.533125 505.861719 122.533125 
z
" style="fill: #ffffff; opacity: 0.8; stroke: #cccccc; stroke-linejoin: miter"/>
    </g>
    <g id="patch_108">
     <path d="M 508.861719 49.69875 
L 538.861719 49.69875 
L 538.861719 39.19875 
L 508.861719 39.19875 
z
" style="fill: #0000ff"/>
    </g>
    <g id="text_18">
     <!-- s1 samples -->
     <g transform="translate(550.861719 49.69875) scale(0.15 -0.15)">
      <defs>
       <path id="TimesNewRomanPSMT-6c" d="M 1184 4444 
L 1184 647 
Q 1184 378 1223 290 
Q 1263 203 1344 158 
Q 1425 113 1647 113 
L 1647 0 
L 244 0 
L 244 113 
Q 441 113 512 153 
Q 584 194 625 287 
Q 666 381 666 647 
L 666 3247 
Q 666 3731 644 3842 
Q 622 3953 573 3993 
Q 525 4034 450 4034 
Q 369 4034 244 3984 
L 191 4094 
L 1044 4444 
L 1184 4444 
z
" transform="scale(0.015625)"/>
      </defs>
      <use xlink:href="#TimesNewRomanPSMT-73"/>
      <use xlink:href="#TimesNewRomanPSMT-31" x="38.916016"/>
      <use xlink:href="#TimesNewRomanPSMT-20" x="88.916016"/>
      <use xlink:href="#TimesNewRomanPSMT-73" x="113.916016"/>
      <use xlink:href="#TimesNewRomanPSMT-61" x="152.832031"/>
      <use xlink:href="#TimesNewRomanPSMT-6d" x="197.216797"/>
      <use xlink:href="#TimesNewRomanPSMT-70" x="275"/>
      <use xlink:href="#TimesNewRomanPSMT-6c" x="325"/>
      <use xlink:href="#TimesNewRomanPSMT-65" x="352.783203"/>
      <use xlink:href="#TimesNewRomanPSMT-73" x="397.167969"/>
     </g>
    </g>
    <g id="line2d_17">
     <path d="M 508.861719 65.657344 
L 523.861719 65.657344 
L 538.861719 65.657344 
" style="fill: none; stroke: #ff0000; stroke-width: 1.5; stroke-linecap: square"/>
    </g>
    <g id="text_19">
     <!-- s1 Gaussian approximation -->
     <g transform="translate(550.861719 70.907344) scale(0.15 -0.15)">
      <use xlink:href="#TimesNewRomanPSMT-73"/>
      <use xlink:href="#TimesNewRomanPSMT-31" x="38.916016"/>
      <use xlink:href="#TimesNewRomanPSMT-20" x="88.916016"/>
      <use xlink:href="#TimesNewRomanPSMT-47" x="113.916016"/>
      <use xlink:href="#TimesNewRomanPSMT-61" x="186.132812"/>
      <use xlink:href="#TimesNewRomanPSMT-75" x="230.517578"/>
      <use xlink:href="#TimesNewRomanPSMT-73" x="280.517578"/>
      <use xlink:href="#TimesNewRomanPSMT-73" x="319.433594"/>
      <use xlink:href="#TimesNewRomanPSMT-69" x="358.349609"/>
      <use xlink:href="#TimesNewRomanPSMT-61" x="386.132812"/>
      <use xlink:href="#TimesNewRomanPSMT-6e" x="430.517578"/>
      <use xlink:href="#TimesNewRomanPSMT-20" x="480.517578"/>
      <use xlink:href="#TimesNewRomanPSMT-61" x="505.517578"/>
      <use xlink:href="#TimesNewRomanPSMT-70" x="549.902344"/>
      <use xlink:href="#TimesNewRomanPSMT-70" x="599.902344"/>
      <use xlink:href="#TimesNewRomanPSMT-72" x="649.902344"/>
      <use xlink:href="#TimesNewRomanPSMT-6f" x="683.203125"/>
      <use xlink:href="#TimesNewRomanPSMT-78" x="733.203125"/>
      <use xlink:href="#TimesNewRomanPSMT-69" x="783.203125"/>
      <use xlink:href="#TimesNewRomanPSMT-6d" x="810.986328"/>
      <use xlink:href="#TimesNewRomanPSMT-61" x="888.769531"/>
      <use xlink:href="#TimesNewRomanPSMT-74" x="933.154297"/>
      <use xlink:href="#TimesNewRomanPSMT-69" x="960.9375"/>
      <use xlink:href="#TimesNewRomanPSMT-6f" x="988.720703"/>
      <use xlink:href="#TimesNewRomanPSMT-6e" x="1038.720703"/>
     </g>
    </g>
    <g id="patch_109">
     <path d="M 508.861719 92.115937 
L 538.861719 92.115937 
L 538.861719 81.615937 
L 508.861719 81.615937 
z
" style="fill: #ffa500"/>
    </g>
    <g id="text_20">
     <!-- s2 samples -->
     <g transform="translate(550.861719 92.115937) scale(0.15 -0.15)">
      <use xlink:href="#TimesNewRomanPSMT-73"/>
      <use xlink:href="#TimesNewRomanPSMT-32" x="38.916016"/>
      <use xlink:href="#TimesNewRomanPSMT-20" x="88.916016"/>
      <use xlink:href="#TimesNewRomanPSMT-73" x="113.916016"/>
      <use xlink:href="#TimesNewRomanPSMT-61" x="152.832031"/>
      <use xlink:href="#TimesNewRomanPSMT-6d" x="197.216797"/>
      <use xlink:href="#TimesNewRomanPSMT-70" x="275"/>
      <use xlink:href="#TimesNewRomanPSMT-6c" x="325"/>
      <use xlink:href="#TimesNewRomanPSMT-65" x="352.783203"/>
      <use xlink:href="#TimesNewRomanPSMT-73" x="397.167969"/>
     </g>
    </g>
    <g id="line2d_18">
     <path d="M 508.861719 108.074531 
L 523.861719 108.074531 
L 538.861719 108.074531 
" style="fill: none; stroke: #008000; stroke-width: 1.5; stroke-linecap: square"/>
    </g>
    <g id="text_21">
     <!-- s2 Gaussian approximation -->
     <g transform="translate(550.861719 113.324531) scale(0.15 -0.15)">
      <use xlink:href="#TimesNewRomanPSMT-73"/>
      <use xlink:href="#TimesNewRomanPSMT-32" x="38.916016"/>
      <use xlink:href="#TimesNewRomanPSMT-20" x="88.916016"/>
      <use xlink:href="#TimesNewRomanPSMT-47" x="113.916016"/>
      <use xlink:href="#TimesNewRomanPSMT-61" x="186.132812"/>
      <use xlink:href="#TimesNewRomanPSMT-75" x="230.517578"/>
      <use xlink:href="#TimesNewRomanPSMT-73" x="280.517578"/>
      <use xlink:href="#TimesNewRomanPSMT-73" x="319.433594"/>
      <use xlink:href="#TimesNewRomanPSMT-69" x="358.349609"/>
      <use xlink:href="#TimesNewRomanPSMT-61" x="386.132812"/>
      <use xlink:href="#TimesNewRomanPSMT-6e" x="430.517578"/>
      <use xlink:href="#TimesNewRomanPSMT-20" x="480.517578"/>
      <use xlink:href="#TimesNewRomanPSMT-61" x="505.517578"/>
      <use xlink:href="#TimesNewRomanPSMT-70" x="549.902344"/>
      <use xlink:href="#TimesNewRomanPSMT-70" x="599.902344"/>
      <use xlink:href="#TimesNewRomanPSMT-72" x="649.902344"/>
      <use xlink:href="#TimesNewRomanPSMT-6f" x="683.203125"/>
      <use xlink:href="#TimesNewRomanPSMT-78" x="733.203125"/>
      <use xlink:href="#TimesNewRomanPSMT-69" x="783.203125"/>
      <use xlink:href="#TimesNewRomanPSMT-6d" x="810.986328"/>
      <use xlink:href="#TimesNewRomanPSMT-61" x="888.769531"/>
      <use xlink:href="#TimesNewRomanPSMT-74" x="933.154297"/>
      <use xlink:href="#TimesNewRomanPSMT-69" x="960.9375"/>
      <use xlink:href="#TimesNewRomanPSMT-6f" x="988.720703"/>
      <use xlink:href="#TimesNewRomanPSMT-6e" x="1038.720703"/>
     </g>
    </g>
   </g>
  </g>
 </g>
 <defs>
  <clipPath id="p85c3cafcf7">
   <rect x="58.074219" y="25.69875" width="669.6" height="332.64"/>
  </clipPath>
 </defs>
</svg>
