<?xml version="1.0" encoding="utf-8" standalone="no"?>
<!DOCTYPE svg PUBLIC "-//W3C//DTD SVG 1.1//EN"
  "http://www.w3.org/Graphics/SVG/1.1/DTD/svg11.dtd">
<svg xmlns:xlink="http://www.w3.org/1999/xlink" width="734.874219pt" height="403.787187pt" viewBox="0 0 734.874219 403.787187" xmlns="http://www.w3.org/2000/svg" version="1.1">
 <metadata>
  <rdf:RDF xmlns:dc="http://purl.org/dc/elements/1.1/" xmlns:cc="http://creativecommons.org/ns#" xmlns:rdf="http://www.w3.org/1999/02/22-rdf-syntax-ns#">
   <cc:Work>
    <dc:type rdf:resource="http://purl.org/dc/dcmitype/StillImage"/>
    <dc:date>2023-10-17T13:58:10.123480</dc:date>
    <dc:format>image/svg+xml</dc:format>
    <dc:creator>
     <cc:Agent>
      <dc:title>Matplotlib v3.8.0, https://matplotlib.org/</dc:title>
     </cc:Agent>
    </dc:creator>
   </cc:Work>
  </rdf:RDF>
 </metadata>
 <defs>
  <style type="text/css">*{stroke-linejoin: round; stroke-linecap: butt}</style>
 </defs>
 <g id="figure_1">
  <g id="patch_1">
   <path d="M 0 403.787187 
L 734.874219 403.787187 
L 734.874219 0 
L 0 0 
z
" style="fill: #ffffff"/>
  </g>
  <g id="axes_1">
   <g id="patch_2">
    <path d="M 58.074219 358.33875 
L 727.674219 358.33875 
L 727.674219 25.69875 
L 58.074219 25.69875 
z
" style="fill: #ffffff"/>
   </g>
   <g id="patch_3">
    <path d="M 171.247267 358.33875 
L 181.767079 358.33875 
L 181.767079 358.148659 
L 171.247267 358.148659 
z
" clip-path="url(#p648749bc98)" style="fill: #0000ff"/>
   </g>
   <g id="patch_4">
    <path d="M 181.767079 358.33875 
L 192.286891 358.33875 
L 192.286891 358.33875 
L 181.767079 358.33875 
z
" clip-path="url(#p648749bc98)" style="fill: #0000ff"/>
   </g>
   <g id="patch_5">
    <path d="M 192.286891 358.33875 
L 202.806702 358.33875 
L 202.806702 358.33875 
L 192.286891 358.33875 
z
" clip-path="url(#p648749bc98)" style="fill: #0000ff"/>
   </g>
   <g id="patch_6">
    <path d="M 202.806702 358.33875 
L 213.326514 358.33875 
L 213.326514 358.33875 
L 202.806702 358.33875 
z
" clip-path="url(#p648749bc98)" style="fill: #0000ff"/>
   </g>
   <g id="patch_7">
    <path d="M 213.326514 358.33875 
L 223.846326 358.33875 
L 223.846326 357.958569 
L 213.326514 357.958569 
z
" clip-path="url(#p648749bc98)" style="fill: #0000ff"/>
   </g>
   <g id="patch_8">
    <path d="M 223.846326 358.33875 
L 234.366138 358.33875 
L 234.366138 357.958569 
L 223.846326 357.958569 
z
" clip-path="url(#p648749bc98)" style="fill: #0000ff"/>
   </g>
   <g id="patch_9">
    <path d="M 234.366138 358.33875 
L 244.885949 358.33875 
L 244.885949 356.057662 
L 234.366138 356.057662 
z
" clip-path="url(#p648749bc98)" style="fill: #0000ff"/>
   </g>
   <g id="patch_10">
    <path d="M 244.885949 358.33875 
L 255.405761 358.33875 
L 255.405761 354.156756 
L 244.885949 354.156756 
z
" clip-path="url(#p648749bc98)" style="fill: #0000ff"/>
   </g>
   <g id="patch_11">
    <path d="M 255.405761 358.33875 
L 265.925573 358.33875 
L 265.925573 350.925216 
L 255.405761 350.925216 
z
" clip-path="url(#p648749bc98)" style="fill: #0000ff"/>
   </g>
   <g id="patch_12">
    <path d="M 265.925573 358.33875 
L 276.445385 358.33875 
L 276.445385 349.2144 
L 265.925573 349.2144 
z
" clip-path="url(#p648749bc98)" style="fill: #0000ff"/>
   </g>
   <g id="patch_13">
    <path d="M 276.445385 358.33875 
L 286.965197 358.33875 
L 286.965197 341.990956 
L 276.445385 341.990956 
z
" clip-path="url(#p648749bc98)" style="fill: #0000ff"/>
   </g>
   <g id="patch_14">
    <path d="M 286.965197 358.33875 
L 297.485008 358.33875 
L 297.485008 334.387331 
L 286.965197 334.387331 
z
" clip-path="url(#p648749bc98)" style="fill: #0000ff"/>
   </g>
   <g id="patch_15">
    <path d="M 297.485008 358.33875 
L 308.00482 358.33875 
L 308.00482 320.130534 
L 297.485008 320.130534 
z
" clip-path="url(#p648749bc98)" style="fill: #0000ff"/>
   </g>
   <g id="patch_16">
    <path d="M 308.00482 358.33875 
L 318.524632 358.33875 
L 318.524632 307.774643 
L 308.00482 307.774643 
z
" clip-path="url(#p648749bc98)" style="fill: #0000ff"/>
   </g>
   <g id="patch_17">
    <path d="M 318.524632 358.33875 
L 329.044444 358.33875 
L 329.044444 287.625036 
L 318.524632 287.625036 
z
" clip-path="url(#p648749bc98)" style="fill: #0000ff"/>
   </g>
   <g id="patch_18">
    <path d="M 329.044444 358.33875 
L 339.564255 358.33875 
L 339.564255 263.863708 
L 329.044444 263.863708 
z
" clip-path="url(#p648749bc98)" style="fill: #0000ff"/>
   </g>
   <g id="patch_19">
    <path d="M 339.564255 358.33875 
L 350.084067 358.33875 
L 350.084067 230.407758 
L 339.564255 230.407758 
z
" clip-path="url(#p648749bc98)" style="fill: #0000ff"/>
   </g>
   <g id="patch_20">
    <path d="M 350.084067 358.33875 
L 360.603879 358.33875 
L 360.603879 209.87797 
L 350.084067 209.87797 
z
" clip-path="url(#p648749bc98)" style="fill: #0000ff"/>
   </g>
   <g id="patch_21">
    <path d="M 360.603879 358.33875 
L 371.123691 358.33875 
L 371.123691 162.165222 
L 360.603879 162.165222 
z
" clip-path="url(#p648749bc98)" style="fill: #0000ff"/>
   </g>
   <g id="patch_22">
    <path d="M 371.123691 358.33875 
L 381.643502 358.33875 
L 381.643502 125.09755 
L 371.123691 125.09755 
z
" clip-path="url(#p648749bc98)" style="fill: #0000ff"/>
   </g>
   <g id="patch_23">
    <path d="M 381.643502 358.33875 
L 392.163314 358.33875 
L 392.163314 104.567762 
L 381.643502 104.567762 
z
" clip-path="url(#p648749bc98)" style="fill: #0000ff"/>
   </g>
   <g id="patch_24">
    <path d="M 392.163314 358.33875 
L 402.683126 358.33875 
L 402.683126 87.269515 
L 392.163314 87.269515 
z
" clip-path="url(#p648749bc98)" style="fill: #0000ff"/>
   </g>
   <g id="patch_25">
    <path d="M 402.683126 358.33875 
L 413.202938 358.33875 
L 413.202938 55.52438 
L 402.683126 55.52438 
z
" clip-path="url(#p648749bc98)" style="fill: #0000ff"/>
   </g>
   <g id="patch_26">
    <path d="M 413.202938 358.33875 
L 423.722749 358.33875 
L 423.722749 65.789274 
L 413.202938 65.789274 
z
" clip-path="url(#p648749bc98)" style="fill: #0000ff"/>
   </g>
   <g id="patch_27">
    <path d="M 423.722749 358.33875 
L 434.242561 358.33875 
L 434.242561 47.540574 
L 423.722749 47.540574 
z
" clip-path="url(#p648749bc98)" style="fill: #0000ff"/>
   </g>
   <g id="patch_28">
    <path d="M 434.242561 358.33875 
L 444.762373 358.33875 
L 444.762373 67.880271 
L 434.242561 67.880271 
z
" clip-path="url(#p648749bc98)" style="fill: #0000ff"/>
   </g>
   <g id="patch_29">
    <path d="M 444.762373 358.33875 
L 455.282185 358.33875 
L 455.282185 77.194712 
L 444.762373 77.194712 
z
" clip-path="url(#p648749bc98)" style="fill: #0000ff"/>
   </g>
   <g id="patch_30">
    <path d="M 455.282185 358.33875 
L 465.801996 358.33875 
L 465.801996 98.104681 
L 455.282185 98.104681 
z
" clip-path="url(#p648749bc98)" style="fill: #0000ff"/>
   </g>
   <g id="patch_31">
    <path d="M 465.801996 358.33875 
L 476.321808 358.33875 
L 476.321808 126.048003 
L 465.801996 126.048003 
z
" clip-path="url(#p648749bc98)" style="fill: #0000ff"/>
   </g>
   <g id="patch_32">
    <path d="M 476.321808 358.33875 
L 486.84162 358.33875 
L 486.84162 151.710238 
L 476.321808 151.710238 
z
" clip-path="url(#p648749bc98)" style="fill: #0000ff"/>
   </g>
   <g id="patch_33">
    <path d="M 486.84162 358.33875 
L 497.361432 358.33875 
L 497.361432 187.257185 
L 486.84162 187.257185 
z
" clip-path="url(#p648749bc98)" style="fill: #0000ff"/>
   </g>
   <g id="patch_34">
    <path d="M 497.361432 358.33875 
L 507.881243 358.33875 
L 507.881243 219.572592 
L 497.361432 219.572592 
z
" clip-path="url(#p648749bc98)" style="fill: #0000ff"/>
   </g>
   <g id="patch_35">
    <path d="M 507.881243 358.33875 
L 518.401055 358.33875 
L 518.401055 241.052833 
L 507.881243 241.052833 
z
" clip-path="url(#p648749bc98)" style="fill: #0000ff"/>
   </g>
   <g id="patch_36">
    <path d="M 518.401055 358.33875 
L 528.920867 358.33875 
L 528.920867 272.797968 
L 518.401055 272.797968 
z
" clip-path="url(#p648749bc98)" style="fill: #0000ff"/>
   </g>
   <g id="patch_37">
    <path d="M 528.920867 358.33875 
L 539.440679 358.33875 
L 539.440679 294.468299 
L 528.920867 294.468299 
z
" clip-path="url(#p648749bc98)" style="fill: #0000ff"/>
   </g>
   <g id="patch_38">
    <path d="M 539.440679 358.33875 
L 549.96049 358.33875 
L 549.96049 311.196274 
L 539.440679 311.196274 
z
" clip-path="url(#p648749bc98)" style="fill: #0000ff"/>
   </g>
   <g id="patch_39">
    <path d="M 549.96049 358.33875 
L 560.480302 358.33875 
L 560.480302 319.180081 
L 549.96049 319.180081 
z
" clip-path="url(#p648749bc98)" style="fill: #0000ff"/>
   </g>
   <g id="patch_40">
    <path d="M 560.480302 358.33875 
L 571.000114 358.33875 
L 571.000114 328.684612 
L 560.480302 328.684612 
z
" clip-path="url(#p648749bc98)" style="fill: #0000ff"/>
   </g>
   <g id="patch_41">
    <path d="M 571.000114 358.33875 
L 581.519926 358.33875 
L 581.519926 345.032406 
L 571.000114 345.032406 
z
" clip-path="url(#p648749bc98)" style="fill: #0000ff"/>
   </g>
   <g id="patch_42">
    <path d="M 581.519926 358.33875 
L 592.039738 358.33875 
L 592.039738 345.222497 
L 581.519926 345.222497 
z
" clip-path="url(#p648749bc98)" style="fill: #0000ff"/>
   </g>
   <g id="patch_43">
    <path d="M 592.039738 358.33875 
L 602.559549 358.33875 
L 602.559549 350.925216 
L 592.039738 350.925216 
z
" clip-path="url(#p648749bc98)" style="fill: #0000ff"/>
   </g>
   <g id="patch_44">
    <path d="M 602.559549 358.33875 
L 613.079361 358.33875 
L 613.079361 352.25585 
L 602.559549 352.25585 
z
" clip-path="url(#p648749bc98)" style="fill: #0000ff"/>
   </g>
   <g id="patch_45">
    <path d="M 613.079361 358.33875 
L 623.599173 358.33875 
L 623.599173 354.346847 
L 613.079361 354.346847 
z
" clip-path="url(#p648749bc98)" style="fill: #0000ff"/>
   </g>
   <g id="patch_46">
    <path d="M 623.599173 358.33875 
L 634.118985 358.33875 
L 634.118985 356.437844 
L 623.599173 356.437844 
z
" clip-path="url(#p648749bc98)" style="fill: #0000ff"/>
   </g>
   <g id="patch_47">
    <path d="M 634.118985 358.33875 
L 644.638796 358.33875 
L 644.638796 356.437844 
L 634.118985 356.437844 
z
" clip-path="url(#p648749bc98)" style="fill: #0000ff"/>
   </g>
   <g id="patch_48">
    <path d="M 644.638796 358.33875 
L 655.158608 358.33875 
L 655.158608 357.768478 
L 644.638796 357.768478 
z
" clip-path="url(#p648749bc98)" style="fill: #0000ff"/>
   </g>
   <g id="patch_49">
    <path d="M 655.158608 358.33875 
L 665.67842 358.33875 
L 665.67842 358.33875 
L 655.158608 358.33875 
z
" clip-path="url(#p648749bc98)" style="fill: #0000ff"/>
   </g>
   <g id="patch_50">
    <path d="M 665.67842 358.33875 
L 676.198232 358.33875 
L 676.198232 358.33875 
L 665.67842 358.33875 
z
" clip-path="url(#p648749bc98)" style="fill: #0000ff"/>
   </g>
   <g id="patch_51">
    <path d="M 676.198232 358.33875 
L 686.718043 358.33875 
L 686.718043 358.33875 
L 676.198232 358.33875 
z
" clip-path="url(#p648749bc98)" style="fill: #0000ff"/>
   </g>
   <g id="patch_52">
    <path d="M 686.718043 358.33875 
L 697.237855 358.33875 
L 697.237855 357.768478 
L 686.718043 357.768478 
z
" clip-path="url(#p648749bc98)" style="fill: #0000ff"/>
   </g>
   <g id="patch_53">
    <path d="M 88.510582 358.33875 
L 98.149373 358.33875 
L 98.149373 358.131284 
L 88.510582 358.131284 
z
" clip-path="url(#p648749bc98)" style="fill: #ffa500"/>
   </g>
   <g id="patch_54">
    <path d="M 98.149373 358.33875 
L 107.788163 358.33875 
L 107.788163 358.131284 
L 98.149373 358.131284 
z
" clip-path="url(#p648749bc98)" style="fill: #ffa500"/>
   </g>
   <g id="patch_55">
    <path d="M 107.788163 358.33875 
L 117.426954 358.33875 
L 117.426954 358.33875 
L 107.788163 358.33875 
z
" clip-path="url(#p648749bc98)" style="fill: #ffa500"/>
   </g>
   <g id="patch_56">
    <path d="M 117.426954 358.33875 
L 127.065744 358.33875 
L 127.065744 358.33875 
L 117.426954 358.33875 
z
" clip-path="url(#p648749bc98)" style="fill: #ffa500"/>
   </g>
   <g id="patch_57">
    <path d="M 127.065744 358.33875 
L 136.704535 358.33875 
L 136.704535 357.923819 
L 127.065744 357.923819 
z
" clip-path="url(#p648749bc98)" style="fill: #ffa500"/>
   </g>
   <g id="patch_58">
    <path d="M 136.704535 358.33875 
L 146.343325 358.33875 
L 146.343325 357.093956 
L 136.704535 357.093956 
z
" clip-path="url(#p648749bc98)" style="fill: #ffa500"/>
   </g>
   <g id="patch_59">
    <path d="M 146.343325 358.33875 
L 155.982115 358.33875 
L 155.982115 355.849163 
L 146.343325 355.849163 
z
" clip-path="url(#p648749bc98)" style="fill: #ffa500"/>
   </g>
   <g id="patch_60">
    <path d="M 155.982115 358.33875 
L 165.620906 358.33875 
L 165.620906 356.679025 
L 155.982115 356.679025 
z
" clip-path="url(#p648749bc98)" style="fill: #ffa500"/>
   </g>
   <g id="patch_61">
    <path d="M 165.620906 358.33875 
L 175.259696 358.33875 
L 175.259696 353.981972 
L 165.620906 353.981972 
z
" clip-path="url(#p648749bc98)" style="fill: #ffa500"/>
   </g>
   <g id="patch_62">
    <path d="M 175.259696 358.33875 
L 184.898487 358.33875 
L 184.898487 352.114781 
L 175.259696 352.114781 
z
" clip-path="url(#p648749bc98)" style="fill: #ffa500"/>
   </g>
   <g id="patch_63">
    <path d="M 184.898487 358.33875 
L 194.537277 358.33875 
L 194.537277 347.343072 
L 184.898487 347.343072 
z
" clip-path="url(#p648749bc98)" style="fill: #ffa500"/>
   </g>
   <g id="patch_64">
    <path d="M 194.537277 358.33875 
L 204.176067 358.33875 
L 204.176067 346.51321 
L 194.537277 346.51321 
z
" clip-path="url(#p648749bc98)" style="fill: #ffa500"/>
   </g>
   <g id="patch_65">
    <path d="M 204.176067 358.33875 
L 213.814858 358.33875 
L 213.814858 336.969791 
L 204.176067 336.969791 
z
" clip-path="url(#p648749bc98)" style="fill: #ffa500"/>
   </g>
   <g id="patch_66">
    <path d="M 213.814858 358.33875 
L 223.453648 358.33875 
L 223.453648 331.990616 
L 213.814858 331.990616 
z
" clip-path="url(#p648749bc98)" style="fill: #ffa500"/>
   </g>
   <g id="patch_67">
    <path d="M 223.453648 358.33875 
L 233.092439 358.33875 
L 233.092439 317.468023 
L 223.453648 317.468023 
z
" clip-path="url(#p648749bc98)" style="fill: #ffa500"/>
   </g>
   <g id="patch_68">
    <path d="M 233.092439 358.33875 
L 242.731229 358.33875 
L 242.731229 309.376864 
L 233.092439 309.376864 
z
" clip-path="url(#p648749bc98)" style="fill: #ffa500"/>
   </g>
   <g id="patch_69">
    <path d="M 242.731229 358.33875 
L 252.37002 358.33875 
L 252.37002 294.439339 
L 242.731229 294.439339 
z
" clip-path="url(#p648749bc98)" style="fill: #ffa500"/>
   </g>
   <g id="patch_70">
    <path d="M 252.37002 358.33875 
L 262.00881 358.33875 
L 262.00881 269.958396 
L 252.37002 269.958396 
z
" clip-path="url(#p648749bc98)" style="fill: #ffa500"/>
   </g>
   <g id="patch_71">
    <path d="M 262.00881 358.33875 
L 271.6476 358.33875 
L 271.6476 252.73875 
L 262.00881 252.73875 
z
" clip-path="url(#p648749bc98)" style="fill: #ffa500"/>
   </g>
   <g id="patch_72">
    <path d="M 271.6476 358.33875 
L 281.286391 358.33875 
L 281.286391 231.162326 
L 271.6476 231.162326 
z
" clip-path="url(#p648749bc98)" style="fill: #ffa500"/>
   </g>
   <g id="patch_73">
    <path d="M 281.286391 358.33875 
L 290.925181 358.33875 
L 290.925181 194.855842 
L 281.286391 194.855842 
z
" clip-path="url(#p648749bc98)" style="fill: #ffa500"/>
   </g>
   <g id="patch_74">
    <path d="M 290.925181 358.33875 
L 300.563972 358.33875 
L 300.563972 160.001618 
L 290.925181 160.001618 
z
" clip-path="url(#p648749bc98)" style="fill: #ffa500"/>
   </g>
   <g id="patch_75">
    <path d="M 300.563972 358.33875 
L 310.202762 358.33875 
L 310.202762 134.898278 
L 300.563972 134.898278 
z
" clip-path="url(#p648749bc98)" style="fill: #ffa500"/>
   </g>
   <g id="patch_76">
    <path d="M 310.202762 358.33875 
L 319.841553 358.33875 
L 319.841553 113.52932 
L 310.202762 113.52932 
z
" clip-path="url(#p648749bc98)" style="fill: #ffa500"/>
   </g>
   <g id="patch_77">
    <path d="M 319.841553 358.33875 
L 329.480343 358.33875 
L 329.480343 86.351324 
L 319.841553 86.351324 
z
" clip-path="url(#p648749bc98)" style="fill: #ffa500"/>
   </g>
   <g id="patch_78">
    <path d="M 329.480343 358.33875 
L 339.119133 358.33875 
L 339.119133 63.32264 
L 329.480343 63.32264 
z
" clip-path="url(#p648749bc98)" style="fill: #ffa500"/>
   </g>
   <g id="patch_79">
    <path d="M 339.119133 358.33875 
L 348.757924 358.33875 
L 348.757924 41.53875 
L 339.119133 41.53875 
z
" clip-path="url(#p648749bc98)" style="fill: #ffa500"/>
   </g>
   <g id="patch_80">
    <path d="M 348.757924 358.33875 
L 358.396714 358.33875 
L 358.396714 46.517925 
L 348.757924 46.517925 
z
" clip-path="url(#p648749bc98)" style="fill: #ffa500"/>
   </g>
   <g id="patch_81">
    <path d="M 358.396714 358.33875 
L 368.035505 358.33875 
L 368.035505 50.459772 
L 358.396714 50.459772 
z
" clip-path="url(#p648749bc98)" style="fill: #ffa500"/>
   </g>
   <g id="patch_82">
    <path d="M 368.035505 358.33875 
L 377.674295 358.33875 
L 377.674295 58.550931 
L 368.035505 58.550931 
z
" clip-path="url(#p648749bc98)" style="fill: #ffa500"/>
   </g>
   <g id="patch_83">
    <path d="M 377.674295 358.33875 
L 387.313086 358.33875 
L 387.313086 81.994546 
L 377.674295 81.994546 
z
" clip-path="url(#p648749bc98)" style="fill: #ffa500"/>
   </g>
   <g id="patch_84">
    <path d="M 387.313086 358.33875 
L 396.951876 358.33875 
L 396.951876 110.417335 
L 387.313086 110.417335 
z
" clip-path="url(#p648749bc98)" style="fill: #ffa500"/>
   </g>
   <g id="patch_85">
    <path d="M 396.951876 358.33875 
L 406.590666 358.33875 
L 406.590666 122.657807 
L 396.951876 122.657807 
z
" clip-path="url(#p648749bc98)" style="fill: #ffa500"/>
   </g>
   <g id="patch_86">
    <path d="M 406.590666 358.33875 
L 416.229457 358.33875 
L 416.229457 165.810656 
L 406.590666 165.810656 
z
" clip-path="url(#p648749bc98)" style="fill: #ffa500"/>
   </g>
   <g id="patch_87">
    <path d="M 416.229457 358.33875 
L 425.868247 358.33875 
L 425.868247 195.063308 
L 416.229457 195.063308 
z
" clip-path="url(#p648749bc98)" style="fill: #ffa500"/>
   </g>
   <g id="patch_88">
    <path d="M 425.868247 358.33875 
L 435.507038 358.33875 
L 435.507038 218.921854 
L 425.868247 218.921854 
z
" clip-path="url(#p648749bc98)" style="fill: #ffa500"/>
   </g>
   <g id="patch_89">
    <path d="M 435.507038 358.33875 
L 445.145828 358.33875 
L 445.145828 241.950538 
L 435.507038 241.950538 
z
" clip-path="url(#p648749bc98)" style="fill: #ffa500"/>
   </g>
   <g id="patch_90">
    <path d="M 445.145828 358.33875 
L 454.784619 358.33875 
L 454.784619 268.506137 
L 445.145828 268.506137 
z
" clip-path="url(#p648749bc98)" style="fill: #ffa500"/>
   </g>
   <g id="patch_91">
    <path d="M 454.784619 358.33875 
L 464.423409 358.33875 
L 464.423409 292.779614 
L 454.784619 292.779614 
z
" clip-path="url(#p648749bc98)" style="fill: #ffa500"/>
   </g>
   <g id="patch_92">
    <path d="M 464.423409 358.33875 
L 474.062199 358.33875 
L 474.062199 311.244055 
L 464.423409 311.244055 
z
" clip-path="url(#p648749bc98)" style="fill: #ffa500"/>
   </g>
   <g id="patch_93">
    <path d="M 474.062199 358.33875 
L 483.70099 358.33875 
L 483.70099 323.691992 
L 474.062199 323.691992 
z
" clip-path="url(#p648749bc98)" style="fill: #ffa500"/>
   </g>
   <g id="patch_94">
    <path d="M 483.70099 358.33875 
L 493.33978 358.33875 
L 493.33978 334.272738 
L 483.70099 334.272738 
z
" clip-path="url(#p648749bc98)" style="fill: #ffa500"/>
   </g>
   <g id="patch_95">
    <path d="M 493.33978 358.33875 
L 502.978571 358.33875 
L 502.978571 340.496707 
L 493.33978 340.496707 
z
" clip-path="url(#p648749bc98)" style="fill: #ffa500"/>
   </g>
   <g id="patch_96">
    <path d="M 502.978571 358.33875 
L 512.617361 358.33875 
L 512.617361 346.51321 
L 502.978571 346.51321 
z
" clip-path="url(#p648749bc98)" style="fill: #ffa500"/>
   </g>
   <g id="patch_97">
    <path d="M 512.617361 358.33875 
L 522.256152 358.33875 
L 522.256152 351.907316 
L 512.617361 351.907316 
z
" clip-path="url(#p648749bc98)" style="fill: #ffa500"/>
   </g>
   <g id="patch_98">
    <path d="M 522.256152 358.33875 
L 531.894942 358.33875 
L 531.894942 353.359575 
L 522.256152 353.359575 
z
" clip-path="url(#p648749bc98)" style="fill: #ffa500"/>
   </g>
   <g id="patch_99">
    <path d="M 531.894942 358.33875 
L 541.533732 358.33875 
L 541.533732 356.056628 
L 531.894942 356.056628 
z
" clip-path="url(#p648749bc98)" style="fill: #ffa500"/>
   </g>
   <g id="patch_100">
    <path d="M 541.533732 358.33875 
L 551.172523 358.33875 
L 551.172523 356.679025 
L 541.533732 356.679025 
z
" clip-path="url(#p648749bc98)" style="fill: #ffa500"/>
   </g>
   <g id="patch_101">
    <path d="M 551.172523 358.33875 
L 560.811313 358.33875 
L 560.811313 357.301422 
L 551.172523 357.301422 
z
" clip-path="url(#p648749bc98)" style="fill: #ffa500"/>
   </g>
   <g id="patch_102">
    <path d="M 560.811313 358.33875 
L 570.450104 358.33875 
L 570.450104 357.301422 
L 560.811313 357.301422 
z
" clip-path="url(#p648749bc98)" style="fill: #ffa500"/>
   </g>
   <g id="matplotlib.axis_1">
    <g id="xtick_1">
     <g id="line2d_1">
      <defs>
       <path id="m3c709947f9" d="M 0 0 
L 0 3.5 
" style="stroke: #000000; stroke-width: 0.8"/>
      </defs>
      <g>
       <use xlink:href="#m3c709947f9" x="88.318092" y="358.33875" style="stroke: #000000; stroke-width: 0.8"/>
      </g>
     </g>
     <g id="text_1">
      <!-- −10 -->
      <g transform="translate(76.588795 375.754375) scale(0.15 -0.15)">
       <defs>
        <path id="TimesNewRomanPSMT-2212" d="M 3484 2000 
L 116 2000 
L 116 2256 
L 3484 2256 
L 3484 2000 
z
" transform="scale(0.015625)"/>
        <path id="TimesNewRomanPSMT-31" d="M 750 3822 
L 1781 4325 
L 1884 4325 
L 1884 747 
Q 1884 391 1914 303 
Q 1944 216 2037 169 
Q 2131 122 2419 116 
L 2419 0 
L 825 0 
L 825 116 
Q 1125 122 1212 167 
Q 1300 213 1334 289 
Q 1369 366 1369 747 
L 1369 3034 
Q 1369 3497 1338 3628 
Q 1316 3728 1258 3775 
Q 1200 3822 1119 3822 
Q 1003 3822 797 3725 
L 750 3822 
z
" transform="scale(0.015625)"/>
        <path id="TimesNewRomanPSMT-30" d="M 231 2094 
Q 231 2819 450 3342 
Q 669 3866 1031 4122 
Q 1313 4325 1613 4325 
Q 2100 4325 2488 3828 
Q 2972 3213 2972 2159 
Q 2972 1422 2759 906 
Q 2547 391 2217 158 
Q 1888 -75 1581 -75 
Q 975 -75 572 641 
Q 231 1244 231 2094 
z
M 844 2016 
Q 844 1141 1059 588 
Q 1238 122 1591 122 
Q 1759 122 1940 273 
Q 2122 425 2216 781 
Q 2359 1319 2359 2297 
Q 2359 3022 2209 3506 
Q 2097 3866 1919 4016 
Q 1791 4119 1609 4119 
Q 1397 4119 1231 3928 
Q 1006 3669 925 3112 
Q 844 2556 844 2016 
z
" transform="scale(0.015625)"/>
       </defs>
       <use xlink:href="#TimesNewRomanPSMT-2212"/>
       <use xlink:href="#TimesNewRomanPSMT-31" x="56.396484"/>
       <use xlink:href="#TimesNewRomanPSMT-30" x="106.396484"/>
      </g>
     </g>
    </g>
    <g id="xtick_2">
     <g id="line2d_2">
      <g>
       <use xlink:href="#m3c709947f9" x="174.609582" y="358.33875" style="stroke: #000000; stroke-width: 0.8"/>
      </g>
     </g>
     <g id="text_2">
      <!-- 0 -->
      <g transform="translate(170.859582 375.754375) scale(0.15 -0.15)">
       <use xlink:href="#TimesNewRomanPSMT-30"/>
      </g>
     </g>
    </g>
    <g id="xtick_3">
     <g id="line2d_3">
      <g>
       <use xlink:href="#m3c709947f9" x="260.901073" y="358.33875" style="stroke: #000000; stroke-width: 0.8"/>
      </g>
     </g>
     <g id="text_3">
      <!-- 10 -->
      <g transform="translate(253.401073 375.754375) scale(0.15 -0.15)">
       <use xlink:href="#TimesNewRomanPSMT-31"/>
       <use xlink:href="#TimesNewRomanPSMT-30" x="50"/>
      </g>
     </g>
    </g>
    <g id="xtick_4">
     <g id="line2d_4">
      <g>
       <use xlink:href="#m3c709947f9" x="347.192563" y="358.33875" style="stroke: #000000; stroke-width: 0.8"/>
      </g>
     </g>
     <g id="text_4">
      <!-- 20 -->
      <g transform="translate(339.692563 375.754375) scale(0.15 -0.15)">
       <defs>
        <path id="TimesNewRomanPSMT-32" d="M 2934 816 
L 2638 0 
L 138 0 
L 138 116 
Q 1241 1122 1691 1759 
Q 2141 2397 2141 2925 
Q 2141 3328 1894 3587 
Q 1647 3847 1303 3847 
Q 991 3847 742 3664 
Q 494 3481 375 3128 
L 259 3128 
Q 338 3706 661 4015 
Q 984 4325 1469 4325 
Q 1984 4325 2329 3994 
Q 2675 3663 2675 3213 
Q 2675 2891 2525 2569 
Q 2294 2063 1775 1497 
Q 997 647 803 472 
L 1909 472 
Q 2247 472 2383 497 
Q 2519 522 2628 598 
Q 2738 675 2819 816 
L 2934 816 
z
" transform="scale(0.015625)"/>
       </defs>
       <use xlink:href="#TimesNewRomanPSMT-32"/>
       <use xlink:href="#TimesNewRomanPSMT-30" x="50"/>
      </g>
     </g>
    </g>
    <g id="xtick_5">
     <g id="line2d_5">
      <g>
       <use xlink:href="#m3c709947f9" x="433.484053" y="358.33875" style="stroke: #000000; stroke-width: 0.8"/>
      </g>
     </g>
     <g id="text_5">
      <!-- 30 -->
      <g transform="translate(425.984053 375.754375) scale(0.15 -0.15)">
       <defs>
        <path id="TimesNewRomanPSMT-33" d="M 325 3431 
Q 506 3859 782 4092 
Q 1059 4325 1472 4325 
Q 1981 4325 2253 3994 
Q 2459 3747 2459 3466 
Q 2459 3003 1878 2509 
Q 2269 2356 2469 2072 
Q 2669 1788 2669 1403 
Q 2669 853 2319 450 
Q 1863 -75 997 -75 
Q 569 -75 414 31 
Q 259 138 259 259 
Q 259 350 332 419 
Q 406 488 509 488 
Q 588 488 669 463 
Q 722 447 909 348 
Q 1097 250 1169 231 
Q 1284 197 1416 197 
Q 1734 197 1970 444 
Q 2206 691 2206 1028 
Q 2206 1275 2097 1509 
Q 2016 1684 1919 1775 
Q 1784 1900 1550 2001 
Q 1316 2103 1072 2103 
L 972 2103 
L 972 2197 
Q 1219 2228 1467 2375 
Q 1716 2522 1828 2728 
Q 1941 2934 1941 3181 
Q 1941 3503 1739 3701 
Q 1538 3900 1238 3900 
Q 753 3900 428 3381 
L 325 3431 
z
" transform="scale(0.015625)"/>
       </defs>
       <use xlink:href="#TimesNewRomanPSMT-33"/>
       <use xlink:href="#TimesNewRomanPSMT-30" x="50"/>
      </g>
     </g>
    </g>
    <g id="xtick_6">
     <g id="line2d_6">
      <g>
       <use xlink:href="#m3c709947f9" x="519.775543" y="358.33875" style="stroke: #000000; stroke-width: 0.8"/>
      </g>
     </g>
     <g id="text_6">
      <!-- 40 -->
      <g transform="translate(512.275543 375.754375) scale(0.15 -0.15)">
       <defs>
        <path id="TimesNewRomanPSMT-34" d="M 2978 1563 
L 2978 1119 
L 2409 1119 
L 2409 0 
L 1894 0 
L 1894 1119 
L 100 1119 
L 100 1519 
L 2066 4325 
L 2409 4325 
L 2409 1563 
L 2978 1563 
z
M 1894 1563 
L 1894 3666 
L 406 1563 
L 1894 1563 
z
" transform="scale(0.015625)"/>
       </defs>
       <use xlink:href="#TimesNewRomanPSMT-34"/>
       <use xlink:href="#TimesNewRomanPSMT-30" x="50"/>
      </g>
     </g>
    </g>
    <g id="xtick_7">
     <g id="line2d_7">
      <g>
       <use xlink:href="#m3c709947f9" x="606.067034" y="358.33875" style="stroke: #000000; stroke-width: 0.8"/>
      </g>
     </g>
     <g id="text_7">
      <!-- 50 -->
      <g transform="translate(598.567034 375.754375) scale(0.15 -0.15)">
       <defs>
        <path id="TimesNewRomanPSMT-35" d="M 2778 4238 
L 2534 3706 
L 1259 3706 
L 981 3138 
Q 1809 3016 2294 2522 
Q 2709 2097 2709 1522 
Q 2709 1188 2573 903 
Q 2438 619 2231 419 
Q 2025 219 1772 97 
Q 1413 -75 1034 -75 
Q 653 -75 479 54 
Q 306 184 306 341 
Q 306 428 378 495 
Q 450 563 559 563 
Q 641 563 702 538 
Q 763 513 909 409 
Q 1144 247 1384 247 
Q 1750 247 2026 523 
Q 2303 800 2303 1197 
Q 2303 1581 2056 1914 
Q 1809 2247 1375 2428 
Q 1034 2569 447 2591 
L 1259 4238 
L 2778 4238 
z
" transform="scale(0.015625)"/>
       </defs>
       <use xlink:href="#TimesNewRomanPSMT-35"/>
       <use xlink:href="#TimesNewRomanPSMT-30" x="50"/>
      </g>
     </g>
    </g>
    <g id="xtick_8">
     <g id="line2d_8">
      <g>
       <use xlink:href="#m3c709947f9" x="692.358524" y="358.33875" style="stroke: #000000; stroke-width: 0.8"/>
      </g>
     </g>
     <g id="text_8">
      <!-- 60 -->
      <g transform="translate(684.858524 375.754375) scale(0.15 -0.15)">
       <defs>
        <path id="TimesNewRomanPSMT-36" d="M 2869 4325 
L 2869 4209 
Q 2456 4169 2195 4045 
Q 1934 3922 1679 3669 
Q 1425 3416 1258 3105 
Q 1091 2794 978 2366 
Q 1428 2675 1881 2675 
Q 2316 2675 2634 2325 
Q 2953 1975 2953 1425 
Q 2953 894 2631 456 
Q 2244 -75 1606 -75 
Q 1172 -75 869 213 
Q 275 772 275 1663 
Q 275 2231 503 2743 
Q 731 3256 1154 3653 
Q 1578 4050 1965 4187 
Q 2353 4325 2688 4325 
L 2869 4325 
z
M 925 2138 
Q 869 1716 869 1456 
Q 869 1156 980 804 
Q 1091 453 1309 247 
Q 1469 100 1697 100 
Q 1969 100 2183 356 
Q 2397 613 2397 1088 
Q 2397 1622 2184 2012 
Q 1972 2403 1581 2403 
Q 1463 2403 1327 2353 
Q 1191 2303 925 2138 
z
" transform="scale(0.015625)"/>
       </defs>
       <use xlink:href="#TimesNewRomanPSMT-36"/>
       <use xlink:href="#TimesNewRomanPSMT-30" x="50"/>
      </g>
     </g>
    </g>
    <g id="text_9">
     <!-- s1, s2 -->
     <g transform="translate(375.785937 393.378594) scale(0.15 -0.15)">
      <defs>
       <path id="TimesNewRomanPSMT-73" d="M 2050 2947 
L 2050 1972 
L 1947 1972 
Q 1828 2431 1642 2597 
Q 1456 2763 1169 2763 
Q 950 2763 815 2647 
Q 681 2531 681 2391 
Q 681 2216 781 2091 
Q 878 1963 1175 1819 
L 1631 1597 
Q 2266 1288 2266 781 
Q 2266 391 1970 151 
Q 1675 -88 1309 -88 
Q 1047 -88 709 6 
Q 606 38 541 38 
Q 469 38 428 -44 
L 325 -44 
L 325 978 
L 428 978 
Q 516 541 762 319 
Q 1009 97 1316 97 
Q 1531 97 1667 223 
Q 1803 350 1803 528 
Q 1803 744 1651 891 
Q 1500 1038 1047 1263 
Q 594 1488 453 1669 
Q 313 1847 313 2119 
Q 313 2472 555 2709 
Q 797 2947 1181 2947 
Q 1350 2947 1591 2875 
Q 1750 2828 1803 2828 
Q 1853 2828 1881 2850 
Q 1909 2872 1947 2947 
L 2050 2947 
z
" transform="scale(0.015625)"/>
       <path id="TimesNewRomanPSMT-2c" d="M 344 -1066 
L 344 -928 
Q 666 -822 842 -598 
Q 1019 -375 1019 -125 
Q 1019 -66 991 -25 
Q 969 3 947 3 
Q 913 3 797 -59 
Q 741 -88 678 -88 
Q 525 -88 434 3 
Q 344 94 344 253 
Q 344 406 461 515 
Q 578 625 747 625 
Q 953 625 1114 445 
Q 1275 266 1275 -31 
Q 1275 -353 1051 -629 
Q 828 -906 344 -1066 
z
" transform="scale(0.015625)"/>
       <path id="TimesNewRomanPSMT-20" transform="scale(0.015625)"/>
      </defs>
      <use xlink:href="#TimesNewRomanPSMT-73"/>
      <use xlink:href="#TimesNewRomanPSMT-31" x="38.916016"/>
      <use xlink:href="#TimesNewRomanPSMT-2c" x="88.916016"/>
      <use xlink:href="#TimesNewRomanPSMT-20" x="113.916016"/>
      <use xlink:href="#TimesNewRomanPSMT-73" x="138.916016"/>
      <use xlink:href="#TimesNewRomanPSMT-32" x="177.832031"/>
     </g>
    </g>
   </g>
   <g id="matplotlib.axis_2">
    <g id="ytick_1">
     <g id="line2d_9">
      <defs>
       <path id="mcb08d3245b" d="M 0 0 
L -3.5 0 
" style="stroke: #000000; stroke-width: 0.8"/>
      </defs>
      <g>
       <use xlink:href="#mcb08d3245b" x="58.074219" y="358.33875" style="stroke: #000000; stroke-width: 0.8"/>
      </g>
     </g>
     <g id="text_10">
      <!-- 0.00 -->
      <g transform="translate(24.824219 363.546562) scale(0.15 -0.15)">
       <defs>
        <path id="TimesNewRomanPSMT-2e" d="M 800 606 
Q 947 606 1047 504 
Q 1147 403 1147 259 
Q 1147 116 1045 14 
Q 944 -88 800 -88 
Q 656 -88 554 14 
Q 453 116 453 259 
Q 453 406 554 506 
Q 656 606 800 606 
z
" transform="scale(0.015625)"/>
       </defs>
       <use xlink:href="#TimesNewRomanPSMT-30"/>
       <use xlink:href="#TimesNewRomanPSMT-2e" x="50"/>
       <use xlink:href="#TimesNewRomanPSMT-30" x="75"/>
       <use xlink:href="#TimesNewRomanPSMT-30" x="125"/>
      </g>
     </g>
    </g>
    <g id="ytick_2">
     <g id="line2d_10">
      <g>
       <use xlink:href="#mcb08d3245b" x="58.074219" y="303.879887" style="stroke: #000000; stroke-width: 0.8"/>
      </g>
     </g>
     <g id="text_11">
      <!-- 0.01 -->
      <g transform="translate(24.824219 309.0877) scale(0.15 -0.15)">
       <use xlink:href="#TimesNewRomanPSMT-30"/>
       <use xlink:href="#TimesNewRomanPSMT-2e" x="50"/>
       <use xlink:href="#TimesNewRomanPSMT-30" x="75"/>
       <use xlink:href="#TimesNewRomanPSMT-31" x="125"/>
      </g>
     </g>
    </g>
    <g id="ytick_3">
     <g id="line2d_11">
      <g>
       <use xlink:href="#mcb08d3245b" x="58.074219" y="249.421025" style="stroke: #000000; stroke-width: 0.8"/>
      </g>
     </g>
     <g id="text_12">
      <!-- 0.02 -->
      <g transform="translate(24.824219 254.628837) scale(0.15 -0.15)">
       <use xlink:href="#TimesNewRomanPSMT-30"/>
       <use xlink:href="#TimesNewRomanPSMT-2e" x="50"/>
       <use xlink:href="#TimesNewRomanPSMT-30" x="75"/>
       <use xlink:href="#TimesNewRomanPSMT-32" x="125"/>
      </g>
     </g>
    </g>
    <g id="ytick_4">
     <g id="line2d_12">
      <g>
       <use xlink:href="#mcb08d3245b" x="58.074219" y="194.962162" style="stroke: #000000; stroke-width: 0.8"/>
      </g>
     </g>
     <g id="text_13">
      <!-- 0.03 -->
      <g transform="translate(24.824219 200.169975) scale(0.15 -0.15)">
       <use xlink:href="#TimesNewRomanPSMT-30"/>
       <use xlink:href="#TimesNewRomanPSMT-2e" x="50"/>
       <use xlink:href="#TimesNewRomanPSMT-30" x="75"/>
       <use xlink:href="#TimesNewRomanPSMT-33" x="125"/>
      </g>
     </g>
    </g>
    <g id="ytick_5">
     <g id="line2d_13">
      <g>
       <use xlink:href="#mcb08d3245b" x="58.074219" y="140.5033" style="stroke: #000000; stroke-width: 0.8"/>
      </g>
     </g>
     <g id="text_14">
      <!-- 0.04 -->
      <g transform="translate(24.824219 145.711112) scale(0.15 -0.15)">
       <use xlink:href="#TimesNewRomanPSMT-30"/>
       <use xlink:href="#TimesNewRomanPSMT-2e" x="50"/>
       <use xlink:href="#TimesNewRomanPSMT-30" x="75"/>
       <use xlink:href="#TimesNewRomanPSMT-34" x="125"/>
      </g>
     </g>
    </g>
    <g id="ytick_6">
     <g id="line2d_14">
      <g>
       <use xlink:href="#mcb08d3245b" x="58.074219" y="86.044437" style="stroke: #000000; stroke-width: 0.8"/>
      </g>
     </g>
     <g id="text_15">
      <!-- 0.05 -->
      <g transform="translate(24.824219 91.25225) scale(0.15 -0.15)">
       <use xlink:href="#TimesNewRomanPSMT-30"/>
       <use xlink:href="#TimesNewRomanPSMT-2e" x="50"/>
       <use xlink:href="#TimesNewRomanPSMT-30" x="75"/>
       <use xlink:href="#TimesNewRomanPSMT-35" x="125"/>
      </g>
     </g>
    </g>
    <g id="ytick_7">
     <g id="line2d_15">
      <g>
       <use xlink:href="#mcb08d3245b" x="58.074219" y="31.585575" style="stroke: #000000; stroke-width: 0.8"/>
      </g>
     </g>
     <g id="text_16">
      <!-- 0.06 -->
      <g transform="translate(24.824219 36.793387) scale(0.15 -0.15)">
       <use xlink:href="#TimesNewRomanPSMT-30"/>
       <use xlink:href="#TimesNewRomanPSMT-2e" x="50"/>
       <use xlink:href="#TimesNewRomanPSMT-30" x="75"/>
       <use xlink:href="#TimesNewRomanPSMT-36" x="125"/>
      </g>
     </g>
    </g>
    <g id="text_17">
     <!-- Frequency -->
     <g transform="translate(17.5875 223.674609) rotate(-90) scale(0.15 -0.15)">
      <defs>
       <path id="TimesNewRomanPSMT-46" d="M 1309 4006 
L 1309 2341 
L 2081 2341 
Q 2347 2341 2470 2458 
Q 2594 2575 2634 2922 
L 2750 2922 
L 2750 1488 
L 2634 1488 
Q 2631 1734 2570 1850 
Q 2509 1966 2401 2023 
Q 2294 2081 2081 2081 
L 1309 2081 
L 1309 750 
Q 1309 428 1350 325 
Q 1381 247 1481 191 
Q 1619 116 1769 116 
L 1922 116 
L 1922 0 
L 103 0 
L 103 116 
L 253 116 
Q 516 116 634 269 
Q 709 369 709 750 
L 709 3488 
Q 709 3809 669 3913 
Q 638 3991 541 4047 
Q 406 4122 253 4122 
L 103 4122 
L 103 4238 
L 3256 4238 
L 3297 3306 
L 3188 3306 
Q 3106 3603 2998 3742 
Q 2891 3881 2733 3943 
Q 2575 4006 2244 4006 
L 1309 4006 
z
" transform="scale(0.015625)"/>
       <path id="TimesNewRomanPSMT-72" d="M 1038 2947 
L 1038 2303 
Q 1397 2947 1775 2947 
Q 1947 2947 2059 2842 
Q 2172 2738 2172 2600 
Q 2172 2478 2090 2393 
Q 2009 2309 1897 2309 
Q 1788 2309 1652 2417 
Q 1516 2525 1450 2525 
Q 1394 2525 1328 2463 
Q 1188 2334 1038 2041 
L 1038 669 
Q 1038 431 1097 309 
Q 1138 225 1241 169 
Q 1344 113 1538 113 
L 1538 0 
L 72 0 
L 72 113 
Q 291 113 397 181 
Q 475 231 506 341 
Q 522 394 522 644 
L 522 1753 
Q 522 2253 501 2348 
Q 481 2444 426 2487 
Q 372 2531 291 2531 
Q 194 2531 72 2484 
L 41 2597 
L 906 2947 
L 1038 2947 
z
" transform="scale(0.015625)"/>
       <path id="TimesNewRomanPSMT-65" d="M 681 1784 
Q 678 1147 991 784 
Q 1303 422 1725 422 
Q 2006 422 2214 576 
Q 2422 731 2563 1106 
L 2659 1044 
Q 2594 616 2278 264 
Q 1963 -88 1488 -88 
Q 972 -88 605 314 
Q 238 716 238 1394 
Q 238 2128 614 2539 
Q 991 2950 1559 2950 
Q 2041 2950 2350 2633 
Q 2659 2316 2659 1784 
L 681 1784 
z
M 681 1966 
L 2006 1966 
Q 1991 2241 1941 2353 
Q 1863 2528 1708 2628 
Q 1553 2728 1384 2728 
Q 1125 2728 920 2526 
Q 716 2325 681 1966 
z
" transform="scale(0.015625)"/>
       <path id="TimesNewRomanPSMT-71" d="M 2734 2947 
L 2734 -734 
Q 2734 -1009 2771 -1087 
Q 2809 -1166 2889 -1209 
Q 2969 -1253 3200 -1253 
L 3200 -1369 
L 1756 -1369 
L 1756 -1253 
L 1816 -1253 
Q 1991 -1253 2081 -1203 
Q 2144 -1169 2181 -1080 
Q 2219 -991 2219 -734 
L 2219 497 
Q 1934 159 1721 35 
Q 1509 -88 1281 -88 
Q 866 -88 539 290 
Q 213 669 213 1303 
Q 213 2031 644 2489 
Q 1075 2947 1684 2947 
Q 1863 2947 2013 2897 
Q 2163 2847 2281 2747 
Q 2463 2834 2628 2947 
L 2734 2947 
z
M 2219 694 
L 2219 2038 
Q 2219 2272 2158 2406 
Q 2097 2541 1940 2634 
Q 1784 2728 1588 2728 
Q 1238 2728 988 2431 
Q 738 2134 738 1531 
Q 738 953 992 653 
Q 1247 353 1606 353 
Q 1791 353 1934 433 
Q 2078 513 2219 694 
z
" transform="scale(0.015625)"/>
       <path id="TimesNewRomanPSMT-75" d="M 2709 2863 
L 2709 1128 
Q 2709 631 2732 520 
Q 2756 409 2807 365 
Q 2859 322 2928 322 
Q 3025 322 3147 375 
L 3191 266 
L 2334 -88 
L 2194 -88 
L 2194 519 
Q 1825 119 1631 15 
Q 1438 -88 1222 -88 
Q 981 -88 804 51 
Q 628 191 559 409 
Q 491 628 491 1028 
L 491 2306 
Q 491 2509 447 2587 
Q 403 2666 317 2708 
Q 231 2750 6 2747 
L 6 2863 
L 1009 2863 
L 1009 947 
Q 1009 547 1148 422 
Q 1288 297 1484 297 
Q 1619 297 1789 381 
Q 1959 466 2194 703 
L 2194 2325 
Q 2194 2569 2105 2655 
Q 2016 2741 1734 2747 
L 1734 2863 
L 2709 2863 
z
" transform="scale(0.015625)"/>
       <path id="TimesNewRomanPSMT-6e" d="M 1034 2341 
Q 1538 2947 1994 2947 
Q 2228 2947 2397 2830 
Q 2566 2713 2666 2444 
Q 2734 2256 2734 1869 
L 2734 647 
Q 2734 375 2778 278 
Q 2813 200 2889 156 
Q 2966 113 3172 113 
L 3172 0 
L 1756 0 
L 1756 113 
L 1816 113 
Q 2016 113 2095 173 
Q 2175 234 2206 353 
Q 2219 400 2219 647 
L 2219 1819 
Q 2219 2209 2117 2386 
Q 2016 2563 1775 2563 
Q 1403 2563 1034 2156 
L 1034 647 
Q 1034 356 1069 288 
Q 1113 197 1189 155 
Q 1266 113 1500 113 
L 1500 0 
L 84 0 
L 84 113 
L 147 113 
Q 366 113 442 223 
Q 519 334 519 647 
L 519 1709 
Q 519 2225 495 2337 
Q 472 2450 423 2490 
Q 375 2531 294 2531 
Q 206 2531 84 2484 
L 38 2597 
L 900 2947 
L 1034 2947 
L 1034 2341 
z
" transform="scale(0.015625)"/>
       <path id="TimesNewRomanPSMT-63" d="M 2631 1088 
Q 2516 522 2178 217 
Q 1841 -88 1431 -88 
Q 944 -88 581 321 
Q 219 731 219 1428 
Q 219 2103 620 2525 
Q 1022 2947 1584 2947 
Q 2006 2947 2278 2723 
Q 2550 2500 2550 2259 
Q 2550 2141 2473 2067 
Q 2397 1994 2259 1994 
Q 2075 1994 1981 2113 
Q 1928 2178 1911 2362 
Q 1894 2547 1784 2644 
Q 1675 2738 1481 2738 
Q 1169 2738 978 2506 
Q 725 2200 725 1697 
Q 725 1184 976 792 
Q 1228 400 1656 400 
Q 1963 400 2206 609 
Q 2378 753 2541 1131 
L 2631 1088 
z
" transform="scale(0.015625)"/>
       <path id="TimesNewRomanPSMT-79" d="M 38 2863 
L 1372 2863 
L 1372 2747 
L 1306 2747 
Q 1166 2747 1095 2686 
Q 1025 2625 1025 2534 
Q 1025 2413 1128 2197 
L 1825 753 
L 2466 2334 
Q 2519 2463 2519 2588 
Q 2519 2644 2497 2672 
Q 2472 2706 2419 2726 
Q 2366 2747 2231 2747 
L 2231 2863 
L 3163 2863 
L 3163 2747 
Q 3047 2734 2984 2696 
Q 2922 2659 2847 2556 
Q 2819 2513 2741 2316 
L 1575 -541 
Q 1406 -956 1132 -1168 
Q 859 -1381 606 -1381 
Q 422 -1381 303 -1275 
Q 184 -1169 184 -1031 
Q 184 -900 270 -820 
Q 356 -741 506 -741 
Q 609 -741 788 -809 
Q 913 -856 944 -856 
Q 1038 -856 1148 -759 
Q 1259 -663 1372 -384 
L 1575 113 
L 547 2272 
Q 500 2369 397 2513 
Q 319 2622 269 2659 
Q 197 2709 38 2747 
L 38 2863 
z
" transform="scale(0.015625)"/>
      </defs>
      <use xlink:href="#TimesNewRomanPSMT-46"/>
      <use xlink:href="#TimesNewRomanPSMT-72" x="55.615234"/>
      <use xlink:href="#TimesNewRomanPSMT-65" x="88.916016"/>
      <use xlink:href="#TimesNewRomanPSMT-71" x="133.300781"/>
      <use xlink:href="#TimesNewRomanPSMT-75" x="183.300781"/>
      <use xlink:href="#TimesNewRomanPSMT-65" x="233.300781"/>
      <use xlink:href="#TimesNewRomanPSMT-6e" x="277.685547"/>
      <use xlink:href="#TimesNewRomanPSMT-63" x="327.685547"/>
      <use xlink:href="#TimesNewRomanPSMT-79" x="372.070312"/>
     </g>
    </g>
   </g>
   <g id="line2d_16">
    <path d="M 174.609582 358.277773 
L 178.967738 358.257204 
L 183.325894 358.230246 
L 187.684051 358.195103 
L 192.042207 358.149534 
L 196.400363 358.090764 
L 200.758519 358.015376 
L 205.116675 357.919191 
L 209.474831 357.797136 
L 213.832987 357.643092 
L 218.191143 357.449732 
L 222.549299 357.208344 
L 226.907455 356.908647 
L 231.265611 356.538597 
L 235.623767 356.084197 
L 239.981923 355.529305 
L 244.340079 354.85546 
L 248.698236 354.041726 
L 253.056392 353.064569 
L 257.414548 351.897781 
L 261.772704 350.51245 
L 266.13086 348.877014 
L 270.489016 346.95739 
L 274.847172 344.7172 
L 279.205328 342.118111 
L 283.563484 339.120298 
L 287.92164 335.683028 
L 292.279796 331.765391 
L 296.637952 327.327161 
L 300.996108 322.329785 
L 305.354265 316.737508 
L 309.712421 310.518594 
L 314.070577 303.646635 
L 318.428733 296.101916 
L 322.786889 287.872802 
L 327.145045 278.957095 
L 331.503201 269.363333 
L 335.861357 259.111956 
L 340.219513 248.236315 
L 344.577669 236.783442 
L 348.935825 224.814554 
L 353.293981 212.405232 
L 357.652137 199.645238 
L 362.010293 186.637945 
L 366.36845 173.499359 
L 370.726606 160.356724 
L 375.084762 147.346725 
L 379.442918 134.613319 
L 383.801074 122.305217 
L 388.15923 110.573099 
L 392.517386 99.566603 
L 396.875542 89.431198 
L 401.233698 80.305007 
L 405.591854 72.315687 
L 409.95001 65.577469 
L 414.308166 60.188441 
L 418.666322 56.228175 
L 423.024479 53.755771 
L 427.382635 52.808391 
L 431.740791 53.400327 
L 436.098947 55.522645 
L 440.457103 59.143409 
L 444.815259 64.208479 
L 449.173415 70.64286 
L 453.531571 78.352546 
L 457.889727 87.22681 
L 462.247883 97.140841 
L 466.606039 107.958662 
L 470.964195 119.536224 
L 475.322351 131.724569 
L 479.680507 144.372985 
L 484.038664 157.332049 
L 488.39682 170.45647 
L 492.754976 183.607677 
L 497.113132 196.656067 
L 501.471288 209.4829 
L 505.829444 221.981778 
L 510.1876 234.059728 
L 514.545756 245.637861 
L 518.903912 256.651641 
L 523.262068 267.050792 
L 527.620224 276.798859 
L 531.97838 285.872498 
L 536.336536 294.260519 
L 540.694693 301.962749 
L 545.052849 308.988762 
L 549.411005 315.356526 
L 553.769161 321.091025 
L 558.127317 326.222883 
L 562.485473 330.787038 
L 566.843629 334.821498 
L 571.201785 338.366196 
L 575.559941 341.461967 
L 579.918097 344.149653 
L 584.276253 346.469346 
L 588.634409 348.459771 
L 592.992565 350.15779 
L 597.350721 351.598041 
L 601.708878 352.812687 
L 606.067034 353.831256 
" clip-path="url(#p648749bc98)" style="fill: none; stroke: #ff0000; stroke-width: 1.5; stroke-linecap: square"/>
   </g>
   <g id="line2d_17">
    <path d="M 174.609582 354.260727 
L 178.967738 353.313699 
L 183.325894 352.178632 
L 187.684051 350.826063 
L 192.042207 349.223696 
L 196.400363 347.336515 
L 200.758519 345.127002 
L 205.116675 342.555467 
L 209.474831 339.580508 
L 213.832987 336.159614 
L 218.191143 332.249906 
L 222.549299 327.809035 
L 226.907455 322.796218 
L 231.265611 317.173412 
L 235.623767 310.906609 
L 239.981923 303.967231 
L 244.340079 296.333577 
L 248.698236 287.992317 
L 253.056392 278.939948 
L 257.414548 269.184197 
L 261.772704 258.745292 
L 266.13086 247.657054 
L 270.489016 235.967751 
L 274.847172 223.740655 
L 279.205328 211.054254 
L 283.563484 198.00208 
L 287.92164 184.692106 
L 292.279796 171.245708 
L 296.637952 157.796175 
L 300.996108 144.486784 
L 305.354265 131.468466 
L 309.712421 118.897104 
L 314.070577 106.930529 
L 318.428733 95.725299 
L 322.786889 85.433326 
L 327.145045 76.198481 
L 331.503201 68.153259 
L 335.861357 61.415627 
L 340.219513 56.086144 
L 344.577669 52.24547 
L 348.935825 49.952329 
L 353.293981 49.242024 
L 357.652137 50.125523 
L 362.010293 52.589185 
L 366.36845 56.595106 
L 370.726606 62.08209 
L 375.084762 68.967205 
L 379.442918 77.14787 
L 383.801074 86.504392 
L 388.15923 96.902881 
L 392.517386 108.198427 
L 396.875542 120.238447 
L 401.233698 132.866085 
L 405.591854 145.923567 
L 409.95001 159.255408 
L 414.308166 172.711386 
L 418.666322 186.149204 
L 423.024479 199.436784 
L 427.382635 212.454143 
L 431.740791 225.094837 
L 436.098947 237.266951 
L 440.457103 248.893651 
L 444.815259 259.913313 
L 449.173415 270.279275 
L 453.531571 279.95924 
L 457.889727 288.934399 
L 462.247883 297.198309 
L 466.606039 304.755612 
L 470.964195 311.620623 
L 475.322351 317.81586 
L 479.680507 323.370563 
L 484.038664 328.319246 
L 488.39682 332.700308 
L 492.754976 336.554759 
L 497.113132 339.925053 
L 501.471288 342.85407 
L 505.829444 345.384234 
L 510.1876 347.556787 
L 514.545756 349.411202 
L 518.903912 350.984739 
L 523.262068 352.312127 
L 527.620224 353.425356 
L 531.97838 354.353581 
L 536.336536 355.123093 
L 540.694693 355.75738 
L 545.052849 356.277225 
L 549.411005 356.70086 
L 553.769161 357.044142 
L 558.127317 357.320745 
L 562.485473 357.542373 
L 566.843629 357.718958 
L 571.201785 357.858872 
L 575.559941 357.969115 
L 579.918097 358.055498 
L 584.276253 358.122811 
L 588.634409 358.174976 
L 592.992565 358.215178 
L 597.350721 358.245992 
L 601.708878 358.269481 
L 606.067034 358.287288 
" clip-path="url(#p648749bc98)" style="fill: none; stroke: #008000; stroke-width: 1.5; stroke-linecap: square"/>
   </g>
   <g id="patch_103">
    <path d="M 58.074219 358.33875 
L 58.074219 25.69875 
" style="fill: none; stroke: #000000; stroke-width: 0.8; stroke-linejoin: miter; stroke-linecap: square"/>
   </g>
   <g id="patch_104">
    <path d="M 727.674219 358.33875 
L 727.674219 25.69875 
" style="fill: none; stroke: #000000; stroke-width: 0.8; stroke-linejoin: miter; stroke-linecap: square"/>
   </g>
   <g id="patch_105">
    <path d="M 58.074219 358.33875 
L 727.674219 358.33875 
" style="fill: none; stroke: #000000; stroke-width: 0.8; stroke-linejoin: miter; stroke-linecap: square"/>
   </g>
   <g id="patch_106">
    <path d="M 58.074219 25.69875 
L 727.674219 25.69875 
" style="fill: none; stroke: #000000; stroke-width: 0.8; stroke-linejoin: miter; stroke-linecap: square"/>
   </g>
   <g id="text_18">
    <!-- Histogram and Gaussian approx. of s1 and s2 -->
    <g transform="translate(229.397656 19.69875) scale(0.18 -0.18)">
     <defs>
      <path id="TimesNewRomanPSMT-48" d="M 1316 2272 
L 3284 2272 
L 3284 3484 
Q 3284 3809 3244 3913 
Q 3213 3991 3113 4047 
Q 2978 4122 2828 4122 
L 2678 4122 
L 2678 4238 
L 4491 4238 
L 4491 4122 
L 4341 4122 
Q 4191 4122 4056 4050 
Q 3956 4000 3920 3898 
Q 3884 3797 3884 3484 
L 3884 750 
Q 3884 428 3925 325 
Q 3956 247 4053 191 
Q 4191 116 4341 116 
L 4491 116 
L 4491 0 
L 2678 0 
L 2678 116 
L 2828 116 
Q 3088 116 3206 269 
Q 3284 369 3284 750 
L 3284 2041 
L 1316 2041 
L 1316 750 
Q 1316 428 1356 325 
Q 1388 247 1488 191 
Q 1622 116 1772 116 
L 1925 116 
L 1925 0 
L 109 0 
L 109 116 
L 259 116 
Q 522 116 641 269 
Q 716 369 716 750 
L 716 3484 
Q 716 3809 675 3913 
Q 644 3991 547 4047 
Q 409 4122 259 4122 
L 109 4122 
L 109 4238 
L 1925 4238 
L 1925 4122 
L 1772 4122 
Q 1622 4122 1488 4050 
Q 1391 4000 1353 3898 
Q 1316 3797 1316 3484 
L 1316 2272 
z
" transform="scale(0.015625)"/>
      <path id="TimesNewRomanPSMT-69" d="M 928 4444 
Q 1059 4444 1151 4351 
Q 1244 4259 1244 4128 
Q 1244 3997 1151 3903 
Q 1059 3809 928 3809 
Q 797 3809 703 3903 
Q 609 3997 609 4128 
Q 609 4259 701 4351 
Q 794 4444 928 4444 
z
M 1188 2947 
L 1188 647 
Q 1188 378 1227 289 
Q 1266 200 1342 156 
Q 1419 113 1622 113 
L 1622 0 
L 231 0 
L 231 113 
Q 441 113 512 153 
Q 584 194 626 287 
Q 669 381 669 647 
L 669 1750 
Q 669 2216 641 2353 
Q 619 2453 572 2492 
Q 525 2531 444 2531 
Q 356 2531 231 2484 
L 188 2597 
L 1050 2947 
L 1188 2947 
z
" transform="scale(0.015625)"/>
      <path id="TimesNewRomanPSMT-74" d="M 1031 3803 
L 1031 2863 
L 1700 2863 
L 1700 2644 
L 1031 2644 
L 1031 788 
Q 1031 509 1111 412 
Q 1191 316 1316 316 
Q 1419 316 1516 380 
Q 1613 444 1666 569 
L 1788 569 
Q 1678 263 1478 108 
Q 1278 -47 1066 -47 
Q 922 -47 784 33 
Q 647 113 581 261 
Q 516 409 516 719 
L 516 2644 
L 63 2644 
L 63 2747 
Q 234 2816 414 2980 
Q 594 3144 734 3369 
Q 806 3488 934 3803 
L 1031 3803 
z
" transform="scale(0.015625)"/>
      <path id="TimesNewRomanPSMT-6f" d="M 1600 2947 
Q 2250 2947 2644 2453 
Q 2978 2031 2978 1484 
Q 2978 1100 2793 706 
Q 2609 313 2286 112 
Q 1963 -88 1566 -88 
Q 919 -88 538 428 
Q 216 863 216 1403 
Q 216 1797 411 2186 
Q 606 2575 925 2761 
Q 1244 2947 1600 2947 
z
M 1503 2744 
Q 1338 2744 1170 2645 
Q 1003 2547 900 2300 
Q 797 2053 797 1666 
Q 797 1041 1045 587 
Q 1294 134 1700 134 
Q 2003 134 2200 384 
Q 2397 634 2397 1244 
Q 2397 2006 2069 2444 
Q 1847 2744 1503 2744 
z
" transform="scale(0.015625)"/>
      <path id="TimesNewRomanPSMT-67" d="M 966 1044 
Q 703 1172 562 1401 
Q 422 1631 422 1909 
Q 422 2334 742 2640 
Q 1063 2947 1563 2947 
Q 1972 2947 2272 2747 
L 2878 2747 
Q 3013 2747 3034 2739 
Q 3056 2731 3066 2713 
Q 3084 2684 3084 2613 
Q 3084 2531 3069 2500 
Q 3059 2484 3036 2475 
Q 3013 2466 2878 2466 
L 2506 2466 
Q 2681 2241 2681 1891 
Q 2681 1491 2375 1206 
Q 2069 922 1553 922 
Q 1341 922 1119 984 
Q 981 866 932 777 
Q 884 688 884 625 
Q 884 572 936 522 
Q 988 472 1138 450 
Q 1225 438 1575 428 
Q 2219 413 2409 384 
Q 2700 344 2873 169 
Q 3047 -6 3047 -263 
Q 3047 -616 2716 -925 
Q 2228 -1381 1444 -1381 
Q 841 -1381 425 -1109 
Q 191 -953 191 -784 
Q 191 -709 225 -634 
Q 278 -519 444 -313 
Q 466 -284 763 25 
Q 600 122 533 198 
Q 466 275 466 372 
Q 466 481 555 628 
Q 644 775 966 1044 
z
M 1509 2797 
Q 1278 2797 1122 2612 
Q 966 2428 966 2047 
Q 966 1553 1178 1281 
Q 1341 1075 1591 1075 
Q 1828 1075 1981 1253 
Q 2134 1431 2134 1813 
Q 2134 2309 1919 2591 
Q 1759 2797 1509 2797 
z
M 934 0 
Q 788 -159 713 -296 
Q 638 -434 638 -550 
Q 638 -700 819 -813 
Q 1131 -1006 1722 -1006 
Q 2284 -1006 2551 -807 
Q 2819 -609 2819 -384 
Q 2819 -222 2659 -153 
Q 2497 -84 2016 -72 
Q 1313 -53 934 0 
z
" transform="scale(0.015625)"/>
      <path id="TimesNewRomanPSMT-61" d="M 1822 413 
Q 1381 72 1269 19 
Q 1100 -59 909 -59 
Q 613 -59 420 144 
Q 228 347 228 678 
Q 228 888 322 1041 
Q 450 1253 767 1440 
Q 1084 1628 1822 1897 
L 1822 2009 
Q 1822 2438 1686 2597 
Q 1550 2756 1291 2756 
Q 1094 2756 978 2650 
Q 859 2544 859 2406 
L 866 2225 
Q 866 2081 792 2003 
Q 719 1925 600 1925 
Q 484 1925 411 2006 
Q 338 2088 338 2228 
Q 338 2497 613 2722 
Q 888 2947 1384 2947 
Q 1766 2947 2009 2819 
Q 2194 2722 2281 2516 
Q 2338 2381 2338 1966 
L 2338 994 
Q 2338 584 2353 492 
Q 2369 400 2405 369 
Q 2441 338 2488 338 
Q 2538 338 2575 359 
Q 2641 400 2828 588 
L 2828 413 
Q 2478 -56 2159 -56 
Q 2006 -56 1915 50 
Q 1825 156 1822 413 
z
M 1822 616 
L 1822 1706 
Q 1350 1519 1213 1441 
Q 966 1303 859 1153 
Q 753 1003 753 825 
Q 753 600 887 451 
Q 1022 303 1197 303 
Q 1434 303 1822 616 
z
" transform="scale(0.015625)"/>
      <path id="TimesNewRomanPSMT-6d" d="M 1050 2338 
Q 1363 2650 1419 2697 
Q 1559 2816 1721 2881 
Q 1884 2947 2044 2947 
Q 2313 2947 2506 2790 
Q 2700 2634 2766 2338 
Q 3088 2713 3309 2830 
Q 3531 2947 3766 2947 
Q 3994 2947 4170 2830 
Q 4347 2713 4450 2447 
Q 4519 2266 4519 1878 
L 4519 647 
Q 4519 378 4559 278 
Q 4591 209 4675 161 
Q 4759 113 4950 113 
L 4950 0 
L 3538 0 
L 3538 113 
L 3597 113 
Q 3781 113 3884 184 
Q 3956 234 3988 344 
Q 4000 397 4000 647 
L 4000 1878 
Q 4000 2228 3916 2372 
Q 3794 2572 3525 2572 
Q 3359 2572 3192 2489 
Q 3025 2406 2788 2181 
L 2781 2147 
L 2788 2013 
L 2788 647 
Q 2788 353 2820 281 
Q 2853 209 2943 161 
Q 3034 113 3253 113 
L 3253 0 
L 1806 0 
L 1806 113 
Q 2044 113 2133 169 
Q 2222 225 2256 338 
Q 2272 391 2272 647 
L 2272 1878 
Q 2272 2228 2169 2381 
Q 2031 2581 1784 2581 
Q 1616 2581 1450 2491 
Q 1191 2353 1050 2181 
L 1050 647 
Q 1050 366 1089 281 
Q 1128 197 1204 155 
Q 1281 113 1516 113 
L 1516 0 
L 100 0 
L 100 113 
Q 297 113 375 155 
Q 453 197 493 289 
Q 534 381 534 647 
L 534 1741 
Q 534 2213 506 2350 
Q 484 2453 437 2492 
Q 391 2531 309 2531 
Q 222 2531 100 2484 
L 53 2597 
L 916 2947 
L 1050 2947 
L 1050 2338 
z
" transform="scale(0.015625)"/>
      <path id="TimesNewRomanPSMT-64" d="M 2222 322 
Q 2013 103 1813 7 
Q 1613 -88 1381 -88 
Q 913 -88 563 304 
Q 213 697 213 1313 
Q 213 1928 600 2439 
Q 988 2950 1597 2950 
Q 1975 2950 2222 2709 
L 2222 3238 
Q 2222 3728 2198 3840 
Q 2175 3953 2125 3993 
Q 2075 4034 2000 4034 
Q 1919 4034 1784 3984 
L 1744 4094 
L 2597 4444 
L 2738 4444 
L 2738 1134 
Q 2738 631 2761 520 
Q 2784 409 2836 365 
Q 2888 322 2956 322 
Q 3041 322 3181 375 
L 3216 266 
L 2366 -88 
L 2222 -88 
L 2222 322 
z
M 2222 541 
L 2222 2016 
Q 2203 2228 2109 2403 
Q 2016 2578 1861 2667 
Q 1706 2756 1559 2756 
Q 1284 2756 1069 2509 
Q 784 2184 784 1559 
Q 784 928 1059 592 
Q 1334 256 1672 256 
Q 1956 256 2222 541 
z
" transform="scale(0.015625)"/>
      <path id="TimesNewRomanPSMT-47" d="M 3928 4334 
L 4038 2997 
L 3928 2997 
Q 3763 3497 3500 3750 
Q 3122 4116 2528 4116 
Q 1719 4116 1297 3475 
Q 944 2934 944 2188 
Q 944 1581 1178 1081 
Q 1413 581 1792 348 
Q 2172 116 2572 116 
Q 2806 116 3025 175 
Q 3244 234 3447 350 
L 3447 1575 
Q 3447 1894 3398 1992 
Q 3350 2091 3248 2142 
Q 3147 2194 2891 2194 
L 2891 2313 
L 4531 2313 
L 4531 2194 
L 4453 2194 
Q 4209 2194 4119 2031 
Q 4056 1916 4056 1575 
L 4056 278 
Q 3697 84 3347 -6 
Q 2997 -97 2569 -97 
Q 1341 -97 703 691 
Q 225 1281 225 2053 
Q 225 2613 494 3125 
Q 813 3734 1369 4063 
Q 1834 4334 2469 4334 
Q 2700 4334 2889 4296 
Q 3078 4259 3425 4131 
Q 3600 4066 3659 4066 
Q 3719 4066 3761 4120 
Q 3803 4175 3813 4334 
L 3928 4334 
z
" transform="scale(0.015625)"/>
      <path id="TimesNewRomanPSMT-70" d="M -6 2578 
L 875 2934 
L 994 2934 
L 994 2266 
Q 1216 2644 1439 2795 
Q 1663 2947 1909 2947 
Q 2341 2947 2628 2609 
Q 2981 2197 2981 1534 
Q 2981 794 2556 309 
Q 2206 -88 1675 -88 
Q 1444 -88 1275 -22 
Q 1150 25 994 166 
L 994 -706 
Q 994 -1000 1030 -1079 
Q 1066 -1159 1155 -1206 
Q 1244 -1253 1478 -1253 
L 1478 -1369 
L -22 -1369 
L -22 -1253 
L 56 -1253 
Q 228 -1256 350 -1188 
Q 409 -1153 442 -1076 
Q 475 -1000 475 -688 
L 475 2019 
Q 475 2297 450 2372 
Q 425 2447 370 2484 
Q 316 2522 222 2522 
Q 147 2522 31 2478 
L -6 2578 
z
M 994 2081 
L 994 1013 
Q 994 666 1022 556 
Q 1066 375 1236 237 
Q 1406 100 1666 100 
Q 1978 100 2172 344 
Q 2425 663 2425 1241 
Q 2425 1897 2138 2250 
Q 1938 2494 1663 2494 
Q 1513 2494 1366 2419 
Q 1253 2363 994 2081 
z
" transform="scale(0.015625)"/>
      <path id="TimesNewRomanPSMT-78" d="M 84 2863 
L 1431 2863 
L 1431 2747 
Q 1303 2747 1251 2703 
Q 1200 2659 1200 2588 
Q 1200 2513 1309 2356 
Q 1344 2306 1413 2200 
L 1616 1875 
L 1850 2200 
Q 2075 2509 2075 2591 
Q 2075 2656 2022 2701 
Q 1969 2747 1850 2747 
L 1850 2863 
L 2819 2863 
L 2819 2747 
Q 2666 2738 2553 2663 
Q 2400 2556 2134 2200 
L 1744 1678 
L 2456 653 
Q 2719 275 2831 198 
Q 2944 122 3122 113 
L 3122 0 
L 1772 0 
L 1772 113 
Q 1913 113 1991 175 
Q 2050 219 2050 291 
Q 2050 363 1850 653 
L 1431 1266 
L 972 653 
Q 759 369 759 316 
Q 759 241 829 180 
Q 900 119 1041 113 
L 1041 0 
L 106 0 
L 106 113 
Q 219 128 303 191 
Q 422 281 703 653 
L 1303 1450 
L 759 2238 
Q 528 2575 401 2661 
Q 275 2747 84 2747 
L 84 2863 
z
" transform="scale(0.015625)"/>
      <path id="TimesNewRomanPSMT-66" d="M 1319 2638 
L 1319 756 
Q 1319 356 1406 250 
Q 1522 113 1716 113 
L 1975 113 
L 1975 0 
L 266 0 
L 266 113 
L 394 113 
Q 519 113 622 175 
Q 725 238 764 344 
Q 803 450 803 756 
L 803 2638 
L 247 2638 
L 247 2863 
L 803 2863 
L 803 3050 
Q 803 3478 940 3775 
Q 1078 4072 1361 4255 
Q 1644 4438 1997 4438 
Q 2325 4438 2600 4225 
Q 2781 4084 2781 3909 
Q 2781 3816 2700 3733 
Q 2619 3650 2525 3650 
Q 2453 3650 2373 3701 
Q 2294 3753 2178 3923 
Q 2063 4094 1966 4153 
Q 1869 4213 1750 4213 
Q 1606 4213 1506 4136 
Q 1406 4059 1362 3898 
Q 1319 3738 1319 3069 
L 1319 2863 
L 2056 2863 
L 2056 2638 
L 1319 2638 
z
" transform="scale(0.015625)"/>
     </defs>
     <use xlink:href="#TimesNewRomanPSMT-48"/>
     <use xlink:href="#TimesNewRomanPSMT-69" x="72.216797"/>
     <use xlink:href="#TimesNewRomanPSMT-73" x="100"/>
     <use xlink:href="#TimesNewRomanPSMT-74" x="138.916016"/>
     <use xlink:href="#TimesNewRomanPSMT-6f" x="166.699219"/>
     <use xlink:href="#TimesNewRomanPSMT-67" x="216.699219"/>
     <use xlink:href="#TimesNewRomanPSMT-72" x="266.699219"/>
     <use xlink:href="#TimesNewRomanPSMT-61" x="300"/>
     <use xlink:href="#TimesNewRomanPSMT-6d" x="344.384766"/>
     <use xlink:href="#TimesNewRomanPSMT-20" x="422.167969"/>
     <use xlink:href="#TimesNewRomanPSMT-61" x="447.167969"/>
     <use xlink:href="#TimesNewRomanPSMT-6e" x="491.552734"/>
     <use xlink:href="#TimesNewRomanPSMT-64" x="541.552734"/>
     <use xlink:href="#TimesNewRomanPSMT-20" x="591.552734"/>
     <use xlink:href="#TimesNewRomanPSMT-47" x="616.552734"/>
     <use xlink:href="#TimesNewRomanPSMT-61" x="688.769531"/>
     <use xlink:href="#TimesNewRomanPSMT-75" x="733.154297"/>
     <use xlink:href="#TimesNewRomanPSMT-73" x="783.154297"/>
     <use xlink:href="#TimesNewRomanPSMT-73" x="822.070312"/>
     <use xlink:href="#TimesNewRomanPSMT-69" x="860.986328"/>
     <use xlink:href="#TimesNewRomanPSMT-61" x="888.769531"/>
     <use xlink:href="#TimesNewRomanPSMT-6e" x="933.154297"/>
     <use xlink:href="#TimesNewRomanPSMT-20" x="983.154297"/>
     <use xlink:href="#TimesNewRomanPSMT-61" x="1008.154297"/>
     <use xlink:href="#TimesNewRomanPSMT-70" x="1052.539062"/>
     <use xlink:href="#TimesNewRomanPSMT-70" x="1102.539062"/>
     <use xlink:href="#TimesNewRomanPSMT-72" x="1152.539062"/>
     <use xlink:href="#TimesNewRomanPSMT-6f" x="1185.839844"/>
     <use xlink:href="#TimesNewRomanPSMT-78" x="1235.839844"/>
     <use xlink:href="#TimesNewRomanPSMT-2e" x="1285.839844"/>
     <use xlink:href="#TimesNewRomanPSMT-20" x="1310.839844"/>
     <use xlink:href="#TimesNewRomanPSMT-6f" x="1335.839844"/>
     <use xlink:href="#TimesNewRomanPSMT-66" x="1385.839844"/>
     <use xlink:href="#TimesNewRomanPSMT-20" x="1419.140625"/>
     <use xlink:href="#TimesNewRomanPSMT-73" x="1444.140625"/>
     <use xlink:href="#TimesNewRomanPSMT-31" x="1483.056641"/>
     <use xlink:href="#TimesNewRomanPSMT-20" x="1533.056641"/>
     <use xlink:href="#TimesNewRomanPSMT-61" x="1558.056641"/>
     <use xlink:href="#TimesNewRomanPSMT-6e" x="1602.441406"/>
     <use xlink:href="#TimesNewRomanPSMT-64" x="1652.441406"/>
     <use xlink:href="#TimesNewRomanPSMT-20" x="1702.441406"/>
     <use xlink:href="#TimesNewRomanPSMT-73" x="1727.441406"/>
     <use xlink:href="#TimesNewRomanPSMT-32" x="1766.357422"/>
    </g>
   </g>
   <g id="legend_1">
    <g id="patch_107">
     <path d="M 505.861719 122.533125 
L 717.174219 122.533125 
Q 720.174219 122.533125 720.174219 119.533125 
L 720.174219 36.19875 
Q 720.174219 33.19875 717.174219 33.19875 
L 505.861719 33.19875 
Q 502.861719 33.19875 502.861719 36.19875 
L 502.861719 119.533125 
Q 502.861719 122.533125 505.861719 122.533125 
z
" style="fill: #ffffff; opacity: 0.8; stroke: #cccccc; stroke-linejoin: miter"/>
    </g>
    <g id="patch_108">
     <path d="M 508.861719 49.69875 
L 538.861719 49.69875 
L 538.861719 39.19875 
L 508.861719 39.19875 
z
" style="fill: #0000ff"/>
    </g>
    <g id="text_19">
     <!-- s1 samples -->
     <g transform="translate(550.861719 49.69875) scale(0.15 -0.15)">
      <defs>
       <path id="TimesNewRomanPSMT-6c" d="M 1184 4444 
L 1184 647 
Q 1184 378 1223 290 
Q 1263 203 1344 158 
Q 1425 113 1647 113 
L 1647 0 
L 244 0 
L 244 113 
Q 441 113 512 153 
Q 584 194 625 287 
Q 666 381 666 647 
L 666 3247 
Q 666 3731 644 3842 
Q 622 3953 573 3993 
Q 525 4034 450 4034 
Q 369 4034 244 3984 
L 191 4094 
L 1044 4444 
L 1184 4444 
z
" transform="scale(0.015625)"/>
      </defs>
      <use xlink:href="#TimesNewRomanPSMT-73"/>
      <use xlink:href="#TimesNewRomanPSMT-31" x="38.916016"/>
      <use xlink:href="#TimesNewRomanPSMT-20" x="88.916016"/>
      <use xlink:href="#TimesNewRomanPSMT-73" x="113.916016"/>
      <use xlink:href="#TimesNewRomanPSMT-61" x="152.832031"/>
      <use xlink:href="#TimesNewRomanPSMT-6d" x="197.216797"/>
      <use xlink:href="#TimesNewRomanPSMT-70" x="275"/>
      <use xlink:href="#TimesNewRomanPSMT-6c" x="325"/>
      <use xlink:href="#TimesNewRomanPSMT-65" x="352.783203"/>
      <use xlink:href="#TimesNewRomanPSMT-73" x="397.167969"/>
     </g>
    </g>
    <g id="line2d_18">
     <path d="M 508.861719 65.657344 
L 523.861719 65.657344 
L 538.861719 65.657344 
" style="fill: none; stroke: #ff0000; stroke-width: 1.5; stroke-linecap: square"/>
    </g>
    <g id="text_20">
     <!-- s1 Gaussian approximation -->
     <g transform="translate(550.861719 70.907344) scale(0.15 -0.15)">
      <use xlink:href="#TimesNewRomanPSMT-73"/>
      <use xlink:href="#TimesNewRomanPSMT-31" x="38.916016"/>
      <use xlink:href="#TimesNewRomanPSMT-20" x="88.916016"/>
      <use xlink:href="#TimesNewRomanPSMT-47" x="113.916016"/>
      <use xlink:href="#TimesNewRomanPSMT-61" x="186.132812"/>
      <use xlink:href="#TimesNewRomanPSMT-75" x="230.517578"/>
      <use xlink:href="#TimesNewRomanPSMT-73" x="280.517578"/>
      <use xlink:href="#TimesNewRomanPSMT-73" x="319.433594"/>
      <use xlink:href="#TimesNewRomanPSMT-69" x="358.349609"/>
      <use xlink:href="#TimesNewRomanPSMT-61" x="386.132812"/>
      <use xlink:href="#TimesNewRomanPSMT-6e" x="430.517578"/>
      <use xlink:href="#TimesNewRomanPSMT-20" x="480.517578"/>
      <use xlink:href="#TimesNewRomanPSMT-61" x="505.517578"/>
      <use xlink:href="#TimesNewRomanPSMT-70" x="549.902344"/>
      <use xlink:href="#TimesNewRomanPSMT-70" x="599.902344"/>
      <use xlink:href="#TimesNewRomanPSMT-72" x="649.902344"/>
      <use xlink:href="#TimesNewRomanPSMT-6f" x="683.203125"/>
      <use xlink:href="#TimesNewRomanPSMT-78" x="733.203125"/>
      <use xlink:href="#TimesNewRomanPSMT-69" x="783.203125"/>
      <use xlink:href="#TimesNewRomanPSMT-6d" x="810.986328"/>
      <use xlink:href="#TimesNewRomanPSMT-61" x="888.769531"/>
      <use xlink:href="#TimesNewRomanPSMT-74" x="933.154297"/>
      <use xlink:href="#TimesNewRomanPSMT-69" x="960.9375"/>
      <use xlink:href="#TimesNewRomanPSMT-6f" x="988.720703"/>
      <use xlink:href="#TimesNewRomanPSMT-6e" x="1038.720703"/>
     </g>
    </g>
    <g id="patch_109">
     <path d="M 508.861719 92.115937 
L 538.861719 92.115937 
L 538.861719 81.615937 
L 508.861719 81.615937 
z
" style="fill: #ffa500"/>
    </g>
    <g id="text_21">
     <!-- s2 samples -->
     <g transform="translate(550.861719 92.115937) scale(0.15 -0.15)">
      <use xlink:href="#TimesNewRomanPSMT-73"/>
      <use xlink:href="#TimesNewRomanPSMT-32" x="38.916016"/>
      <use xlink:href="#TimesNewRomanPSMT-20" x="88.916016"/>
      <use xlink:href="#TimesNewRomanPSMT-73" x="113.916016"/>
      <use xlink:href="#TimesNewRomanPSMT-61" x="152.832031"/>
      <use xlink:href="#TimesNewRomanPSMT-6d" x="197.216797"/>
      <use xlink:href="#TimesNewRomanPSMT-70" x="275"/>
      <use xlink:href="#TimesNewRomanPSMT-6c" x="325"/>
      <use xlink:href="#TimesNewRomanPSMT-65" x="352.783203"/>
      <use xlink:href="#TimesNewRomanPSMT-73" x="397.167969"/>
     </g>
    </g>
    <g id="line2d_19">
     <path d="M 508.861719 108.074531 
L 523.861719 108.074531 
L 538.861719 108.074531 
" style="fill: none; stroke: #008000; stroke-width: 1.5; stroke-linecap: square"/>
    </g>
    <g id="text_22">
     <!-- s2 Gaussian approximation -->
     <g transform="translate(550.861719 113.324531) scale(0.15 -0.15)">
      <use xlink:href="#TimesNewRomanPSMT-73"/>
      <use xlink:href="#TimesNewRomanPSMT-32" x="38.916016"/>
      <use xlink:href="#TimesNewRomanPSMT-20" x="88.916016"/>
      <use xlink:href="#TimesNewRomanPSMT-47" x="113.916016"/>
      <use xlink:href="#TimesNewRomanPSMT-61" x="186.132812"/>
      <use xlink:href="#TimesNewRomanPSMT-75" x="230.517578"/>
      <use xlink:href="#TimesNewRomanPSMT-73" x="280.517578"/>
      <use xlink:href="#TimesNewRomanPSMT-73" x="319.433594"/>
      <use xlink:href="#TimesNewRomanPSMT-69" x="358.349609"/>
      <use xlink:href="#TimesNewRomanPSMT-61" x="386.132812"/>
      <use xlink:href="#TimesNewRomanPSMT-6e" x="430.517578"/>
      <use xlink:href="#TimesNewRomanPSMT-20" x="480.517578"/>
      <use xlink:href="#TimesNewRomanPSMT-61" x="505.517578"/>
      <use xlink:href="#TimesNewRomanPSMT-70" x="549.902344"/>
      <use xlink:href="#TimesNewRomanPSMT-70" x="599.902344"/>
      <use xlink:href="#TimesNewRomanPSMT-72" x="649.902344"/>
      <use xlink:href="#TimesNewRomanPSMT-6f" x="683.203125"/>
      <use xlink:href="#TimesNewRomanPSMT-78" x="733.203125"/>
      <use xlink:href="#TimesNewRomanPSMT-69" x="783.203125"/>
      <use xlink:href="#TimesNewRomanPSMT-6d" x="810.986328"/>
      <use xlink:href="#TimesNewRomanPSMT-61" x="888.769531"/>
      <use xlink:href="#TimesNewRomanPSMT-74" x="933.154297"/>
      <use xlink:href="#TimesNewRomanPSMT-69" x="960.9375"/>
      <use xlink:href="#TimesNewRomanPSMT-6f" x="988.720703"/>
      <use xlink:href="#TimesNewRomanPSMT-6e" x="1038.720703"/>
     </g>
    </g>
   </g>
  </g>
 </g>
 <defs>
  <clipPath id="p648749bc98">
   <rect x="58.074219" y="25.69875" width="669.6" height="332.64"/>
  </clipPath>
 </defs>
</svg>
