<?xml version="1.0" encoding="utf-8" standalone="no"?>
<!DOCTYPE svg PUBLIC "-//W3C//DTD SVG 1.1//EN"
  "http://www.w3.org/Graphics/SVG/1.1/DTD/svg11.dtd">
<svg xmlns:xlink="http://www.w3.org/1999/xlink" width="734.874219pt" height="403.787187pt" viewBox="0 0 734.874219 403.787187" xmlns="http://www.w3.org/2000/svg" version="1.1">
 <metadata>
  <rdf:RDF xmlns:dc="http://purl.org/dc/elements/1.1/" xmlns:cc="http://creativecommons.org/ns#" xmlns:rdf="http://www.w3.org/1999/02/22-rdf-syntax-ns#">
   <cc:Work>
    <dc:type rdf:resource="http://purl.org/dc/dcmitype/StillImage"/>
    <dc:date>2023-10-17T13:58:03.426445</dc:date>
    <dc:format>image/svg+xml</dc:format>
    <dc:creator>
     <cc:Agent>
      <dc:title>Matplotlib v3.8.0, https://matplotlib.org/</dc:title>
     </cc:Agent>
    </dc:creator>
   </cc:Work>
  </rdf:RDF>
 </metadata>
 <defs>
  <style type="text/css">*{stroke-linejoin: round; stroke-linecap: butt}</style>
 </defs>
 <g id="figure_1">
  <g id="patch_1">
   <path d="M 0 403.787187 
L 734.874219 403.787187 
L 734.874219 0 
L 0 0 
z
" style="fill: #ffffff"/>
  </g>
  <g id="axes_1">
   <g id="patch_2">
    <path d="M 58.074219 358.33875 
L 727.674219 358.33875 
L 727.674219 25.69875 
L 58.074219 25.69875 
z
" style="fill: #ffffff"/>
   </g>
   <g id="patch_3">
    <path d="M 214.164189 358.33875 
L 223.825662 358.33875 
L 223.825662 357.674525 
L 214.164189 357.674525 
z
" clip-path="url(#pc273da5064)" style="fill: #0000ff"/>
   </g>
   <g id="patch_4">
    <path d="M 223.825662 358.33875 
L 233.487136 358.33875 
L 233.487136 358.33875 
L 223.825662 358.33875 
z
" clip-path="url(#pc273da5064)" style="fill: #0000ff"/>
   </g>
   <g id="patch_5">
    <path d="M 233.487136 358.33875 
L 243.148609 358.33875 
L 243.148609 357.342413 
L 233.487136 357.342413 
z
" clip-path="url(#pc273da5064)" style="fill: #0000ff"/>
   </g>
   <g id="patch_6">
    <path d="M 243.148609 358.33875 
L 252.810082 358.33875 
L 252.810082 355.681851 
L 243.148609 355.681851 
z
" clip-path="url(#pc273da5064)" style="fill: #0000ff"/>
   </g>
   <g id="patch_7">
    <path d="M 252.810082 358.33875 
L 262.471556 358.33875 
L 262.471556 354.685515 
L 252.810082 354.685515 
z
" clip-path="url(#pc273da5064)" style="fill: #0000ff"/>
   </g>
   <g id="patch_8">
    <path d="M 262.471556 358.33875 
L 272.133029 358.33875 
L 272.133029 349.039605 
L 262.471556 349.039605 
z
" clip-path="url(#pc273da5064)" style="fill: #0000ff"/>
   </g>
   <g id="patch_9">
    <path d="M 272.133029 358.33875 
L 281.794502 358.33875 
L 281.794502 344.722145 
L 272.133029 344.722145 
z
" clip-path="url(#pc273da5064)" style="fill: #0000ff"/>
   </g>
   <g id="patch_10">
    <path d="M 281.794502 358.33875 
L 291.455976 358.33875 
L 291.455976 340.404685 
L 281.794502 340.404685 
z
" clip-path="url(#pc273da5064)" style="fill: #0000ff"/>
   </g>
   <g id="patch_11">
    <path d="M 291.455976 358.33875 
L 301.117449 358.33875 
L 301.117449 332.433989 
L 291.455976 332.433989 
z
" clip-path="url(#pc273da5064)" style="fill: #0000ff"/>
   </g>
   <g id="patch_12">
    <path d="M 301.117449 358.33875 
L 310.778922 358.33875 
L 310.778922 320.477946 
L 301.117449 320.477946 
z
" clip-path="url(#pc273da5064)" style="fill: #0000ff"/>
   </g>
   <g id="patch_13">
    <path d="M 310.778922 358.33875 
L 320.440396 358.33875 
L 320.440396 292.912624 
L 310.778922 292.912624 
z
" clip-path="url(#pc273da5064)" style="fill: #0000ff"/>
   </g>
   <g id="patch_14">
    <path d="M 320.440396 358.33875 
L 330.101869 358.33875 
L 330.101869 275.642783 
L 320.440396 275.642783 
z
" clip-path="url(#pc273da5064)" style="fill: #0000ff"/>
   </g>
   <g id="patch_15">
    <path d="M 330.101869 358.33875 
L 339.763342 358.33875 
L 339.763342 246.749012 
L 330.101869 246.749012 
z
" clip-path="url(#pc273da5064)" style="fill: #0000ff"/>
   </g>
   <g id="patch_16">
    <path d="M 339.763342 358.33875 
L 349.424816 358.33875 
L 349.424816 226.822273 
L 339.763342 226.822273 
z
" clip-path="url(#pc273da5064)" style="fill: #0000ff"/>
   </g>
   <g id="patch_17">
    <path d="M 349.424816 358.33875 
L 359.086289 358.33875 
L 359.086289 203.906523 
L 349.424816 203.906523 
z
" clip-path="url(#pc273da5064)" style="fill: #0000ff"/>
   </g>
   <g id="patch_18">
    <path d="M 359.086289 358.33875 
L 368.747762 358.33875 
L 368.747762 162.724596 
L 359.086289 162.724596 
z
" clip-path="url(#pc273da5064)" style="fill: #0000ff"/>
   </g>
   <g id="patch_19">
    <path d="M 368.747762 358.33875 
L 378.409235 358.33875 
L 378.409235 112.575636 
L 368.747762 112.575636 
z
" clip-path="url(#pc273da5064)" style="fill: #0000ff"/>
   </g>
   <g id="patch_20">
    <path d="M 378.409235 358.33875 
L 388.070709 358.33875 
L 388.070709 95.970021 
L 378.409235 95.970021 
z
" clip-path="url(#pc273da5064)" style="fill: #0000ff"/>
   </g>
   <g id="patch_21">
    <path d="M 388.070709 358.33875 
L 397.732182 358.33875 
L 397.732182 78.70018 
L 388.070709 78.70018 
z
" clip-path="url(#pc273da5064)" style="fill: #0000ff"/>
   </g>
   <g id="patch_22">
    <path d="M 397.732182 358.33875 
L 407.393655 358.33875 
L 407.393655 55.452318 
L 397.732182 55.452318 
z
" clip-path="url(#pc273da5064)" style="fill: #0000ff"/>
   </g>
   <g id="patch_23">
    <path d="M 407.393655 358.33875 
L 417.055129 358.33875 
L 417.055129 48.145847 
L 407.393655 48.145847 
z
" clip-path="url(#pc273da5064)" style="fill: #0000ff"/>
   </g>
   <g id="patch_24">
    <path d="M 417.055129 358.33875 
L 426.716602 358.33875 
L 426.716602 64.419351 
L 417.055129 64.419351 
z
" clip-path="url(#pc273da5064)" style="fill: #0000ff"/>
   </g>
   <g id="patch_25">
    <path d="M 426.716602 358.33875 
L 436.378075 358.33875 
L 436.378075 71.725822 
L 426.716602 71.725822 
z
" clip-path="url(#pc273da5064)" style="fill: #0000ff"/>
   </g>
   <g id="patch_26">
    <path d="M 436.378075 358.33875 
L 446.039549 358.33875 
L 446.039549 76.043282 
L 436.378075 76.043282 
z
" clip-path="url(#pc273da5064)" style="fill: #0000ff"/>
   </g>
   <g id="patch_27">
    <path d="M 446.039549 358.33875 
L 455.701022 358.33875 
L 455.701022 115.564647 
L 446.039549 115.564647 
z
" clip-path="url(#pc273da5064)" style="fill: #0000ff"/>
   </g>
   <g id="patch_28">
    <path d="M 455.701022 358.33875 
L 465.362495 358.33875 
L 465.362495 124.863792 
L 455.701022 124.863792 
z
" clip-path="url(#pc273da5064)" style="fill: #0000ff"/>
   </g>
   <g id="patch_29">
    <path d="M 465.362495 358.33875 
L 475.023969 358.33875 
L 475.023969 161.728259 
L 465.362495 161.728259 
z
" clip-path="url(#pc273da5064)" style="fill: #0000ff"/>
   </g>
   <g id="patch_30">
    <path d="M 475.023969 358.33875 
L 484.685442 358.33875 
L 484.685442 199.256951 
L 475.023969 199.256951 
z
" clip-path="url(#pc273da5064)" style="fill: #0000ff"/>
   </g>
   <g id="patch_31">
    <path d="M 484.685442 358.33875 
L 494.346915 358.33875 
L 494.346915 224.165374 
L 484.685442 224.165374 
z
" clip-path="url(#pc273da5064)" style="fill: #0000ff"/>
   </g>
   <g id="patch_32">
    <path d="M 494.346915 358.33875 
L 504.008389 358.33875 
L 504.008389 266.343639 
L 494.346915 266.343639 
z
" clip-path="url(#pc273da5064)" style="fill: #0000ff"/>
   </g>
   <g id="patch_33">
    <path d="M 504.008389 358.33875 
L 513.669862 358.33875 
L 513.669862 271.657436 
L 504.008389 271.657436 
z
" clip-path="url(#pc273da5064)" style="fill: #0000ff"/>
   </g>
   <g id="patch_34">
    <path d="M 513.669862 358.33875 
L 523.331335 358.33875 
L 523.331335 287.930939 
L 513.669862 287.930939 
z
" clip-path="url(#pc273da5064)" style="fill: #0000ff"/>
   </g>
   <g id="patch_35">
    <path d="M 523.331335 358.33875 
L 532.992809 358.33875 
L 532.992809 313.8357 
L 523.331335 313.8357 
z
" clip-path="url(#pc273da5064)" style="fill: #0000ff"/>
   </g>
   <g id="patch_36">
    <path d="M 532.992809 358.33875 
L 542.654282 358.33875 
L 542.654282 324.131181 
L 532.992809 324.131181 
z
" clip-path="url(#pc273da5064)" style="fill: #0000ff"/>
   </g>
   <g id="patch_37">
    <path d="M 542.654282 358.33875 
L 552.315755 358.33875 
L 552.315755 337.083562 
L 542.654282 337.083562 
z
" clip-path="url(#pc273da5064)" style="fill: #0000ff"/>
   </g>
   <g id="patch_38">
    <path d="M 552.315755 358.33875 
L 561.977229 358.33875 
L 561.977229 341.733134 
L 552.315755 341.733134 
z
" clip-path="url(#pc273da5064)" style="fill: #0000ff"/>
   </g>
   <g id="patch_39">
    <path d="M 561.977229 358.33875 
L 571.638702 358.33875 
L 571.638702 342.065247 
L 561.977229 342.065247 
z
" clip-path="url(#pc273da5064)" style="fill: #0000ff"/>
   </g>
   <g id="patch_40">
    <path d="M 571.638702 358.33875 
L 581.300175 358.33875 
L 581.300175 351.032279 
L 571.638702 351.032279 
z
" clip-path="url(#pc273da5064)" style="fill: #0000ff"/>
   </g>
   <g id="patch_41">
    <path d="M 581.300175 358.33875 
L 590.961649 358.33875 
L 590.961649 354.353402 
L 581.300175 354.353402 
z
" clip-path="url(#pc273da5064)" style="fill: #0000ff"/>
   </g>
   <g id="patch_42">
    <path d="M 590.961649 358.33875 
L 600.623122 358.33875 
L 600.623122 354.685515 
L 590.961649 354.685515 
z
" clip-path="url(#pc273da5064)" style="fill: #0000ff"/>
   </g>
   <g id="patch_43">
    <path d="M 600.623122 358.33875 
L 610.284595 358.33875 
L 610.284595 357.342413 
L 600.623122 357.342413 
z
" clip-path="url(#pc273da5064)" style="fill: #0000ff"/>
   </g>
   <g id="patch_44">
    <path d="M 610.284595 358.33875 
L 619.946069 358.33875 
L 619.946069 358.33875 
L 610.284595 358.33875 
z
" clip-path="url(#pc273da5064)" style="fill: #0000ff"/>
   </g>
   <g id="patch_45">
    <path d="M 619.946069 358.33875 
L 629.607542 358.33875 
L 629.607542 357.010301 
L 619.946069 357.010301 
z
" clip-path="url(#pc273da5064)" style="fill: #0000ff"/>
   </g>
   <g id="patch_46">
    <path d="M 629.607542 358.33875 
L 639.269015 358.33875 
L 639.269015 358.006638 
L 629.607542 358.006638 
z
" clip-path="url(#pc273da5064)" style="fill: #0000ff"/>
   </g>
   <g id="patch_47">
    <path d="M 639.269015 358.33875 
L 648.930489 358.33875 
L 648.930489 358.33875 
L 639.269015 358.33875 
z
" clip-path="url(#pc273da5064)" style="fill: #0000ff"/>
   </g>
   <g id="patch_48">
    <path d="M 648.930489 358.33875 
L 658.591962 358.33875 
L 658.591962 358.33875 
L 648.930489 358.33875 
z
" clip-path="url(#pc273da5064)" style="fill: #0000ff"/>
   </g>
   <g id="patch_49">
    <path d="M 658.591962 358.33875 
L 668.253435 358.33875 
L 668.253435 358.33875 
L 658.591962 358.33875 
z
" clip-path="url(#pc273da5064)" style="fill: #0000ff"/>
   </g>
   <g id="patch_50">
    <path d="M 668.253435 358.33875 
L 677.914908 358.33875 
L 677.914908 358.33875 
L 668.253435 358.33875 
z
" clip-path="url(#pc273da5064)" style="fill: #0000ff"/>
   </g>
   <g id="patch_51">
    <path d="M 677.914908 358.33875 
L 687.576382 358.33875 
L 687.576382 358.33875 
L 677.914908 358.33875 
z
" clip-path="url(#pc273da5064)" style="fill: #0000ff"/>
   </g>
   <g id="patch_52">
    <path d="M 687.576382 358.33875 
L 697.237855 358.33875 
L 697.237855 358.006638 
L 687.576382 358.006638 
z
" clip-path="url(#pc273da5064)" style="fill: #0000ff"/>
   </g>
   <g id="patch_53">
    <path d="M 88.510582 358.33875 
L 98.041458 358.33875 
L 98.041458 357.665424 
L 88.510582 357.665424 
z
" clip-path="url(#pc273da5064)" style="fill: #ffa500"/>
   </g>
   <g id="patch_54">
    <path d="M 98.041458 358.33875 
L 107.572333 358.33875 
L 107.572333 358.33875 
L 98.041458 358.33875 
z
" clip-path="url(#pc273da5064)" style="fill: #ffa500"/>
   </g>
   <g id="patch_55">
    <path d="M 107.572333 358.33875 
L 117.103208 358.33875 
L 117.103208 358.33875 
L 107.572333 358.33875 
z
" clip-path="url(#pc273da5064)" style="fill: #ffa500"/>
   </g>
   <g id="patch_56">
    <path d="M 117.103208 358.33875 
L 126.634084 358.33875 
L 126.634084 358.33875 
L 117.103208 358.33875 
z
" clip-path="url(#pc273da5064)" style="fill: #ffa500"/>
   </g>
   <g id="patch_57">
    <path d="M 126.634084 358.33875 
L 136.164959 358.33875 
L 136.164959 358.002087 
L 126.634084 358.002087 
z
" clip-path="url(#pc273da5064)" style="fill: #ffa500"/>
   </g>
   <g id="patch_58">
    <path d="M 136.164959 358.33875 
L 145.695835 358.33875 
L 145.695835 357.665424 
L 136.164959 357.665424 
z
" clip-path="url(#pc273da5064)" style="fill: #ffa500"/>
   </g>
   <g id="patch_59">
    <path d="M 145.695835 358.33875 
L 155.22671 358.33875 
L 155.22671 356.992098 
L 145.695835 356.992098 
z
" clip-path="url(#pc273da5064)" style="fill: #ffa500"/>
   </g>
   <g id="patch_60">
    <path d="M 155.22671 358.33875 
L 164.757585 358.33875 
L 164.757585 357.328761 
L 155.22671 357.328761 
z
" clip-path="url(#pc273da5064)" style="fill: #ffa500"/>
   </g>
   <g id="patch_61">
    <path d="M 164.757585 358.33875 
L 174.288461 358.33875 
L 174.288461 355.982108 
L 164.757585 355.982108 
z
" clip-path="url(#pc273da5064)" style="fill: #ffa500"/>
   </g>
   <g id="patch_62">
    <path d="M 174.288461 358.33875 
L 183.819336 358.33875 
L 183.819336 349.922172 
L 174.288461 349.922172 
z
" clip-path="url(#pc273da5064)" style="fill: #ffa500"/>
   </g>
   <g id="patch_63">
    <path d="M 183.819336 358.33875 
L 193.350211 358.33875 
L 193.350211 348.575519 
L 183.819336 348.575519 
z
" clip-path="url(#pc273da5064)" style="fill: #ffa500"/>
   </g>
   <g id="patch_64">
    <path d="M 193.350211 358.33875 
L 202.881087 358.33875 
L 202.881087 344.872225 
L 193.350211 344.872225 
z
" clip-path="url(#pc273da5064)" style="fill: #ffa500"/>
   </g>
   <g id="patch_65">
    <path d="M 202.881087 358.33875 
L 212.411962 358.33875 
L 212.411962 340.158941 
L 202.881087 340.158941 
z
" clip-path="url(#pc273da5064)" style="fill: #ffa500"/>
   </g>
   <g id="patch_66">
    <path d="M 212.411962 358.33875 
L 221.942837 358.33875 
L 221.942837 328.375732 
L 212.411962 328.375732 
z
" clip-path="url(#pc273da5064)" style="fill: #ffa500"/>
   </g>
   <g id="patch_67">
    <path d="M 221.942837 358.33875 
L 231.473713 358.33875 
L 231.473713 326.01909 
L 221.942837 326.01909 
z
" clip-path="url(#pc273da5064)" style="fill: #ffa500"/>
   </g>
   <g id="patch_68">
    <path d="M 231.473713 358.33875 
L 241.004588 358.33875 
L 241.004588 309.185934 
L 231.473713 309.185934 
z
" clip-path="url(#pc273da5064)" style="fill: #ffa500"/>
   </g>
   <g id="patch_69">
    <path d="M 241.004588 358.33875 
L 250.535464 358.33875 
L 250.535464 290.669462 
L 241.004588 290.669462 
z
" clip-path="url(#pc273da5064)" style="fill: #ffa500"/>
   </g>
   <g id="patch_70">
    <path d="M 250.535464 358.33875 
L 260.066339 358.33875 
L 260.066339 276.529611 
L 250.535464 276.529611 
z
" clip-path="url(#pc273da5064)" style="fill: #ffa500"/>
   </g>
   <g id="patch_71">
    <path d="M 260.066339 358.33875 
L 269.597214 358.33875 
L 269.597214 253.973181 
L 260.066339 253.973181 
z
" clip-path="url(#pc273da5064)" style="fill: #ffa500"/>
   </g>
   <g id="patch_72">
    <path d="M 269.597214 358.33875 
L 279.12809 358.33875 
L 279.12809 239.496667 
L 269.597214 239.496667 
z
" clip-path="url(#pc273da5064)" style="fill: #ffa500"/>
   </g>
   <g id="patch_73">
    <path d="M 279.12809 358.33875 
L 288.658965 358.33875 
L 288.658965 202.800387 
L 279.12809 202.800387 
z
" clip-path="url(#pc273da5064)" style="fill: #ffa500"/>
   </g>
   <g id="patch_74">
    <path d="M 288.658965 358.33875 
L 298.18984 358.33875 
L 298.18984 164.42079 
L 288.658965 164.42079 
z
" clip-path="url(#pc273da5064)" style="fill: #ffa500"/>
   </g>
   <g id="patch_75">
    <path d="M 298.18984 358.33875 
L 307.720716 358.33875 
L 307.720716 146.240982 
L 298.18984 146.240982 
z
" clip-path="url(#pc273da5064)" style="fill: #ffa500"/>
   </g>
   <g id="patch_76">
    <path d="M 307.720716 358.33875 
L 317.251591 358.33875 
L 317.251591 114.257985 
L 307.720716 114.257985 
z
" clip-path="url(#pc273da5064)" style="fill: #ffa500"/>
   </g>
   <g id="patch_77">
    <path d="M 317.251591 358.33875 
L 326.782466 358.33875 
L 326.782466 93.384871 
L 317.251591 93.384871 
z
" clip-path="url(#pc273da5064)" style="fill: #ffa500"/>
   </g>
   <g id="patch_78">
    <path d="M 326.782466 358.33875 
L 336.313342 358.33875 
L 336.313342 52.648633 
L 326.782466 52.648633 
z
" clip-path="url(#pc273da5064)" style="fill: #ffa500"/>
   </g>
   <g id="patch_79">
    <path d="M 336.313342 358.33875 
L 345.844217 358.33875 
L 345.844217 51.975307 
L 336.313342 51.975307 
z
" clip-path="url(#pc273da5064)" style="fill: #ffa500"/>
   </g>
   <g id="patch_80">
    <path d="M 345.844217 358.33875 
L 355.375093 358.33875 
L 355.375093 41.53875 
L 345.844217 41.53875 
z
" clip-path="url(#pc273da5064)" style="fill: #ffa500"/>
   </g>
   <g id="patch_81">
    <path d="M 355.375093 358.33875 
L 364.905968 358.33875 
L 364.905968 60.728548 
L 355.375093 60.728548 
z
" clip-path="url(#pc273da5064)" style="fill: #ffa500"/>
   </g>
   <g id="patch_82">
    <path d="M 364.905968 358.33875 
L 374.436843 358.33875 
L 374.436843 91.701556 
L 364.905968 91.701556 
z
" clip-path="url(#pc273da5064)" style="fill: #ffa500"/>
   </g>
   <g id="patch_83">
    <path d="M 374.436843 358.33875 
L 383.967719 358.33875 
L 383.967719 93.721534 
L 374.436843 93.721534 
z
" clip-path="url(#pc273da5064)" style="fill: #ffa500"/>
   </g>
   <g id="patch_84">
    <path d="M 383.967719 358.33875 
L 393.498594 358.33875 
L 393.498594 116.95129 
L 383.967719 116.95129 
z
" clip-path="url(#pc273da5064)" style="fill: #ffa500"/>
   </g>
   <g id="patch_85">
    <path d="M 393.498594 358.33875 
L 403.029469 358.33875 
L 403.029469 140.854372 
L 393.498594 140.854372 
z
" clip-path="url(#pc273da5064)" style="fill: #ffa500"/>
   </g>
   <g id="patch_86">
    <path d="M 403.029469 358.33875 
L 412.560345 358.33875 
L 412.560345 187.650546 
L 403.029469 187.650546 
z
" clip-path="url(#pc273da5064)" style="fill: #ffa500"/>
   </g>
   <g id="patch_87">
    <path d="M 412.560345 358.33875 
L 422.09122 358.33875 
L 422.09122 214.246933 
L 412.560345 214.246933 
z
" clip-path="url(#pc273da5064)" style="fill: #ffa500"/>
   </g>
   <g id="patch_88">
    <path d="M 422.09122 358.33875 
L 431.622095 358.33875 
L 431.622095 253.299855 
L 422.09122 253.299855 
z
" clip-path="url(#pc273da5064)" style="fill: #ffa500"/>
   </g>
   <g id="patch_89">
    <path d="M 431.622095 358.33875 
L 441.152971 358.33875 
L 441.152971 275.182958 
L 431.622095 275.182958 
z
" clip-path="url(#pc273da5064)" style="fill: #ffa500"/>
   </g>
   <g id="patch_90">
    <path d="M 441.152971 358.33875 
L 450.683846 358.33875 
L 450.683846 292.016115 
L 441.152971 292.016115 
z
" clip-path="url(#pc273da5064)" style="fill: #ffa500"/>
   </g>
   <g id="patch_91">
    <path d="M 450.683846 358.33875 
L 460.214722 358.33875 
L 460.214722 307.502618 
L 450.683846 307.502618 
z
" clip-path="url(#pc273da5064)" style="fill: #ffa500"/>
   </g>
   <g id="patch_92">
    <path d="M 460.214722 358.33875 
L 469.745597 358.33875 
L 469.745597 320.63248 
L 460.214722 320.63248 
z
" clip-path="url(#pc273da5064)" style="fill: #ffa500"/>
   </g>
   <g id="patch_93">
    <path d="M 469.745597 358.33875 
L 479.276472 358.33875 
L 479.276472 334.099005 
L 469.745597 334.099005 
z
" clip-path="url(#pc273da5064)" style="fill: #ffa500"/>
   </g>
   <g id="patch_94">
    <path d="M 479.276472 358.33875 
L 488.807348 358.33875 
L 488.807348 341.842257 
L 479.276472 341.842257 
z
" clip-path="url(#pc273da5064)" style="fill: #ffa500"/>
   </g>
   <g id="patch_95">
    <path d="M 488.807348 358.33875 
L 498.338223 358.33875 
L 498.338223 349.248846 
L 488.807348 349.248846 
z
" clip-path="url(#pc273da5064)" style="fill: #ffa500"/>
   </g>
   <g id="patch_96">
    <path d="M 498.338223 358.33875 
L 507.869098 358.33875 
L 507.869098 353.962129 
L 498.338223 353.962129 
z
" clip-path="url(#pc273da5064)" style="fill: #ffa500"/>
   </g>
   <g id="patch_97">
    <path d="M 507.869098 358.33875 
L 517.399974 358.33875 
L 517.399974 355.308782 
L 507.869098 355.308782 
z
" clip-path="url(#pc273da5064)" style="fill: #ffa500"/>
   </g>
   <g id="patch_98">
    <path d="M 517.399974 358.33875 
L 526.930849 358.33875 
L 526.930849 357.328761 
L 517.399974 357.328761 
z
" clip-path="url(#pc273da5064)" style="fill: #ffa500"/>
   </g>
   <g id="patch_99">
    <path d="M 526.930849 358.33875 
L 536.461724 358.33875 
L 536.461724 358.33875 
L 526.930849 358.33875 
z
" clip-path="url(#pc273da5064)" style="fill: #ffa500"/>
   </g>
   <g id="patch_100">
    <path d="M 536.461724 358.33875 
L 545.9926 358.33875 
L 545.9926 358.002087 
L 536.461724 358.002087 
z
" clip-path="url(#pc273da5064)" style="fill: #ffa500"/>
   </g>
   <g id="patch_101">
    <path d="M 545.9926 358.33875 
L 555.523475 358.33875 
L 555.523475 358.002087 
L 545.9926 358.002087 
z
" clip-path="url(#pc273da5064)" style="fill: #ffa500"/>
   </g>
   <g id="patch_102">
    <path d="M 555.523475 358.33875 
L 565.054351 358.33875 
L 565.054351 357.665424 
L 555.523475 357.665424 
z
" clip-path="url(#pc273da5064)" style="fill: #ffa500"/>
   </g>
   <g id="matplotlib.axis_1">
    <g id="xtick_1">
     <g id="line2d_1">
      <defs>
       <path id="m5cdc5e8f8c" d="M 0 0 
L 0 3.5 
" style="stroke: #000000; stroke-width: 0.8"/>
      </defs>
      <g>
       <use xlink:href="#m5cdc5e8f8c" x="101.360077" y="358.33875" style="stroke: #000000; stroke-width: 0.8"/>
      </g>
     </g>
     <g id="text_1">
      <!-- −10 -->
      <g transform="translate(89.63078 375.754375) scale(0.15 -0.15)">
       <defs>
        <path id="TimesNewRomanPSMT-2212" d="M 3484 2000 
L 116 2000 
L 116 2256 
L 3484 2256 
L 3484 2000 
z
" transform="scale(0.015625)"/>
        <path id="TimesNewRomanPSMT-31" d="M 750 3822 
L 1781 4325 
L 1884 4325 
L 1884 747 
Q 1884 391 1914 303 
Q 1944 216 2037 169 
Q 2131 122 2419 116 
L 2419 0 
L 825 0 
L 825 116 
Q 1125 122 1212 167 
Q 1300 213 1334 289 
Q 1369 366 1369 747 
L 1369 3034 
Q 1369 3497 1338 3628 
Q 1316 3728 1258 3775 
Q 1200 3822 1119 3822 
Q 1003 3822 797 3725 
L 750 3822 
z
" transform="scale(0.015625)"/>
        <path id="TimesNewRomanPSMT-30" d="M 231 2094 
Q 231 2819 450 3342 
Q 669 3866 1031 4122 
Q 1313 4325 1613 4325 
Q 2100 4325 2488 3828 
Q 2972 3213 2972 2159 
Q 2972 1422 2759 906 
Q 2547 391 2217 158 
Q 1888 -75 1581 -75 
Q 975 -75 572 641 
Q 231 1244 231 2094 
z
M 844 2016 
Q 844 1141 1059 588 
Q 1238 122 1591 122 
Q 1759 122 1940 273 
Q 2122 425 2216 781 
Q 2359 1319 2359 2297 
Q 2359 3022 2209 3506 
Q 2097 3866 1919 4016 
Q 1791 4119 1609 4119 
Q 1397 4119 1231 3928 
Q 1006 3669 925 3112 
Q 844 2556 844 2016 
z
" transform="scale(0.015625)"/>
       </defs>
       <use xlink:href="#TimesNewRomanPSMT-2212"/>
       <use xlink:href="#TimesNewRomanPSMT-31" x="56.396484"/>
       <use xlink:href="#TimesNewRomanPSMT-30" x="106.396484"/>
      </g>
     </g>
    </g>
    <g id="xtick_2">
     <g id="line2d_2">
      <g>
       <use xlink:href="#m5cdc5e8f8c" x="181.627274" y="358.33875" style="stroke: #000000; stroke-width: 0.8"/>
      </g>
     </g>
     <g id="text_2">
      <!-- 0 -->
      <g transform="translate(177.877274 375.754375) scale(0.15 -0.15)">
       <use xlink:href="#TimesNewRomanPSMT-30"/>
      </g>
     </g>
    </g>
    <g id="xtick_3">
     <g id="line2d_3">
      <g>
       <use xlink:href="#m5cdc5e8f8c" x="261.89447" y="358.33875" style="stroke: #000000; stroke-width: 0.8"/>
      </g>
     </g>
     <g id="text_3">
      <!-- 10 -->
      <g transform="translate(254.39447 375.754375) scale(0.15 -0.15)">
       <use xlink:href="#TimesNewRomanPSMT-31"/>
       <use xlink:href="#TimesNewRomanPSMT-30" x="50"/>
      </g>
     </g>
    </g>
    <g id="xtick_4">
     <g id="line2d_4">
      <g>
       <use xlink:href="#m5cdc5e8f8c" x="342.161667" y="358.33875" style="stroke: #000000; stroke-width: 0.8"/>
      </g>
     </g>
     <g id="text_4">
      <!-- 20 -->
      <g transform="translate(334.661667 375.754375) scale(0.15 -0.15)">
       <defs>
        <path id="TimesNewRomanPSMT-32" d="M 2934 816 
L 2638 0 
L 138 0 
L 138 116 
Q 1241 1122 1691 1759 
Q 2141 2397 2141 2925 
Q 2141 3328 1894 3587 
Q 1647 3847 1303 3847 
Q 991 3847 742 3664 
Q 494 3481 375 3128 
L 259 3128 
Q 338 3706 661 4015 
Q 984 4325 1469 4325 
Q 1984 4325 2329 3994 
Q 2675 3663 2675 3213 
Q 2675 2891 2525 2569 
Q 2294 2063 1775 1497 
Q 997 647 803 472 
L 1909 472 
Q 2247 472 2383 497 
Q 2519 522 2628 598 
Q 2738 675 2819 816 
L 2934 816 
z
" transform="scale(0.015625)"/>
       </defs>
       <use xlink:href="#TimesNewRomanPSMT-32"/>
       <use xlink:href="#TimesNewRomanPSMT-30" x="50"/>
      </g>
     </g>
    </g>
    <g id="xtick_5">
     <g id="line2d_5">
      <g>
       <use xlink:href="#m5cdc5e8f8c" x="422.428863" y="358.33875" style="stroke: #000000; stroke-width: 0.8"/>
      </g>
     </g>
     <g id="text_5">
      <!-- 30 -->
      <g transform="translate(414.928863 375.754375) scale(0.15 -0.15)">
       <defs>
        <path id="TimesNewRomanPSMT-33" d="M 325 3431 
Q 506 3859 782 4092 
Q 1059 4325 1472 4325 
Q 1981 4325 2253 3994 
Q 2459 3747 2459 3466 
Q 2459 3003 1878 2509 
Q 2269 2356 2469 2072 
Q 2669 1788 2669 1403 
Q 2669 853 2319 450 
Q 1863 -75 997 -75 
Q 569 -75 414 31 
Q 259 138 259 259 
Q 259 350 332 419 
Q 406 488 509 488 
Q 588 488 669 463 
Q 722 447 909 348 
Q 1097 250 1169 231 
Q 1284 197 1416 197 
Q 1734 197 1970 444 
Q 2206 691 2206 1028 
Q 2206 1275 2097 1509 
Q 2016 1684 1919 1775 
Q 1784 1900 1550 2001 
Q 1316 2103 1072 2103 
L 972 2103 
L 972 2197 
Q 1219 2228 1467 2375 
Q 1716 2522 1828 2728 
Q 1941 2934 1941 3181 
Q 1941 3503 1739 3701 
Q 1538 3900 1238 3900 
Q 753 3900 428 3381 
L 325 3431 
z
" transform="scale(0.015625)"/>
       </defs>
       <use xlink:href="#TimesNewRomanPSMT-33"/>
       <use xlink:href="#TimesNewRomanPSMT-30" x="50"/>
      </g>
     </g>
    </g>
    <g id="xtick_6">
     <g id="line2d_6">
      <g>
       <use xlink:href="#m5cdc5e8f8c" x="502.69606" y="358.33875" style="stroke: #000000; stroke-width: 0.8"/>
      </g>
     </g>
     <g id="text_6">
      <!-- 40 -->
      <g transform="translate(495.19606 375.754375) scale(0.15 -0.15)">
       <defs>
        <path id="TimesNewRomanPSMT-34" d="M 2978 1563 
L 2978 1119 
L 2409 1119 
L 2409 0 
L 1894 0 
L 1894 1119 
L 100 1119 
L 100 1519 
L 2066 4325 
L 2409 4325 
L 2409 1563 
L 2978 1563 
z
M 1894 1563 
L 1894 3666 
L 406 1563 
L 1894 1563 
z
" transform="scale(0.015625)"/>
       </defs>
       <use xlink:href="#TimesNewRomanPSMT-34"/>
       <use xlink:href="#TimesNewRomanPSMT-30" x="50"/>
      </g>
     </g>
    </g>
    <g id="xtick_7">
     <g id="line2d_7">
      <g>
       <use xlink:href="#m5cdc5e8f8c" x="582.963256" y="358.33875" style="stroke: #000000; stroke-width: 0.8"/>
      </g>
     </g>
     <g id="text_7">
      <!-- 50 -->
      <g transform="translate(575.463256 375.754375) scale(0.15 -0.15)">
       <defs>
        <path id="TimesNewRomanPSMT-35" d="M 2778 4238 
L 2534 3706 
L 1259 3706 
L 981 3138 
Q 1809 3016 2294 2522 
Q 2709 2097 2709 1522 
Q 2709 1188 2573 903 
Q 2438 619 2231 419 
Q 2025 219 1772 97 
Q 1413 -75 1034 -75 
Q 653 -75 479 54 
Q 306 184 306 341 
Q 306 428 378 495 
Q 450 563 559 563 
Q 641 563 702 538 
Q 763 513 909 409 
Q 1144 247 1384 247 
Q 1750 247 2026 523 
Q 2303 800 2303 1197 
Q 2303 1581 2056 1914 
Q 1809 2247 1375 2428 
Q 1034 2569 447 2591 
L 1259 4238 
L 2778 4238 
z
" transform="scale(0.015625)"/>
       </defs>
       <use xlink:href="#TimesNewRomanPSMT-35"/>
       <use xlink:href="#TimesNewRomanPSMT-30" x="50"/>
      </g>
     </g>
    </g>
    <g id="xtick_8">
     <g id="line2d_8">
      <g>
       <use xlink:href="#m5cdc5e8f8c" x="663.230453" y="358.33875" style="stroke: #000000; stroke-width: 0.8"/>
      </g>
     </g>
     <g id="text_8">
      <!-- 60 -->
      <g transform="translate(655.730453 375.754375) scale(0.15 -0.15)">
       <defs>
        <path id="TimesNewRomanPSMT-36" d="M 2869 4325 
L 2869 4209 
Q 2456 4169 2195 4045 
Q 1934 3922 1679 3669 
Q 1425 3416 1258 3105 
Q 1091 2794 978 2366 
Q 1428 2675 1881 2675 
Q 2316 2675 2634 2325 
Q 2953 1975 2953 1425 
Q 2953 894 2631 456 
Q 2244 -75 1606 -75 
Q 1172 -75 869 213 
Q 275 772 275 1663 
Q 275 2231 503 2743 
Q 731 3256 1154 3653 
Q 1578 4050 1965 4187 
Q 2353 4325 2688 4325 
L 2869 4325 
z
M 925 2138 
Q 869 1716 869 1456 
Q 869 1156 980 804 
Q 1091 453 1309 247 
Q 1469 100 1697 100 
Q 1969 100 2183 356 
Q 2397 613 2397 1088 
Q 2397 1622 2184 2012 
Q 1972 2403 1581 2403 
Q 1463 2403 1327 2353 
Q 1191 2303 925 2138 
z
" transform="scale(0.015625)"/>
       </defs>
       <use xlink:href="#TimesNewRomanPSMT-36"/>
       <use xlink:href="#TimesNewRomanPSMT-30" x="50"/>
      </g>
     </g>
    </g>
    <g id="text_9">
     <!-- s1, s2 -->
     <g transform="translate(375.785937 393.378594) scale(0.15 -0.15)">
      <defs>
       <path id="TimesNewRomanPSMT-73" d="M 2050 2947 
L 2050 1972 
L 1947 1972 
Q 1828 2431 1642 2597 
Q 1456 2763 1169 2763 
Q 950 2763 815 2647 
Q 681 2531 681 2391 
Q 681 2216 781 2091 
Q 878 1963 1175 1819 
L 1631 1597 
Q 2266 1288 2266 781 
Q 2266 391 1970 151 
Q 1675 -88 1309 -88 
Q 1047 -88 709 6 
Q 606 38 541 38 
Q 469 38 428 -44 
L 325 -44 
L 325 978 
L 428 978 
Q 516 541 762 319 
Q 1009 97 1316 97 
Q 1531 97 1667 223 
Q 1803 350 1803 528 
Q 1803 744 1651 891 
Q 1500 1038 1047 1263 
Q 594 1488 453 1669 
Q 313 1847 313 2119 
Q 313 2472 555 2709 
Q 797 2947 1181 2947 
Q 1350 2947 1591 2875 
Q 1750 2828 1803 2828 
Q 1853 2828 1881 2850 
Q 1909 2872 1947 2947 
L 2050 2947 
z
" transform="scale(0.015625)"/>
       <path id="TimesNewRomanPSMT-2c" d="M 344 -1066 
L 344 -928 
Q 666 -822 842 -598 
Q 1019 -375 1019 -125 
Q 1019 -66 991 -25 
Q 969 3 947 3 
Q 913 3 797 -59 
Q 741 -88 678 -88 
Q 525 -88 434 3 
Q 344 94 344 253 
Q 344 406 461 515 
Q 578 625 747 625 
Q 953 625 1114 445 
Q 1275 266 1275 -31 
Q 1275 -353 1051 -629 
Q 828 -906 344 -1066 
z
" transform="scale(0.015625)"/>
       <path id="TimesNewRomanPSMT-20" transform="scale(0.015625)"/>
      </defs>
      <use xlink:href="#TimesNewRomanPSMT-73"/>
      <use xlink:href="#TimesNewRomanPSMT-31" x="38.916016"/>
      <use xlink:href="#TimesNewRomanPSMT-2c" x="88.916016"/>
      <use xlink:href="#TimesNewRomanPSMT-20" x="113.916016"/>
      <use xlink:href="#TimesNewRomanPSMT-73" x="138.916016"/>
      <use xlink:href="#TimesNewRomanPSMT-32" x="177.832031"/>
     </g>
    </g>
   </g>
   <g id="matplotlib.axis_2">
    <g id="ytick_1">
     <g id="line2d_9">
      <defs>
       <path id="m01a0b9262c" d="M 0 0 
L -3.5 0 
" style="stroke: #000000; stroke-width: 0.8"/>
      </defs>
      <g>
       <use xlink:href="#m01a0b9262c" x="58.074219" y="358.33875" style="stroke: #000000; stroke-width: 0.8"/>
      </g>
     </g>
     <g id="text_10">
      <!-- 0.00 -->
      <g transform="translate(24.824219 363.546562) scale(0.15 -0.15)">
       <defs>
        <path id="TimesNewRomanPSMT-2e" d="M 800 606 
Q 947 606 1047 504 
Q 1147 403 1147 259 
Q 1147 116 1045 14 
Q 944 -88 800 -88 
Q 656 -88 554 14 
Q 453 116 453 259 
Q 453 406 554 506 
Q 656 606 800 606 
z
" transform="scale(0.015625)"/>
       </defs>
       <use xlink:href="#TimesNewRomanPSMT-30"/>
       <use xlink:href="#TimesNewRomanPSMT-2e" x="50"/>
       <use xlink:href="#TimesNewRomanPSMT-30" x="75"/>
       <use xlink:href="#TimesNewRomanPSMT-30" x="125"/>
      </g>
     </g>
    </g>
    <g id="ytick_2">
     <g id="line2d_10">
      <g>
       <use xlink:href="#m01a0b9262c" x="58.074219" y="304.37228" style="stroke: #000000; stroke-width: 0.8"/>
      </g>
     </g>
     <g id="text_11">
      <!-- 0.01 -->
      <g transform="translate(24.824219 309.580092) scale(0.15 -0.15)">
       <use xlink:href="#TimesNewRomanPSMT-30"/>
       <use xlink:href="#TimesNewRomanPSMT-2e" x="50"/>
       <use xlink:href="#TimesNewRomanPSMT-30" x="75"/>
       <use xlink:href="#TimesNewRomanPSMT-31" x="125"/>
      </g>
     </g>
    </g>
    <g id="ytick_3">
     <g id="line2d_11">
      <g>
       <use xlink:href="#m01a0b9262c" x="58.074219" y="250.405809" style="stroke: #000000; stroke-width: 0.8"/>
      </g>
     </g>
     <g id="text_12">
      <!-- 0.02 -->
      <g transform="translate(24.824219 255.613622) scale(0.15 -0.15)">
       <use xlink:href="#TimesNewRomanPSMT-30"/>
       <use xlink:href="#TimesNewRomanPSMT-2e" x="50"/>
       <use xlink:href="#TimesNewRomanPSMT-30" x="75"/>
       <use xlink:href="#TimesNewRomanPSMT-32" x="125"/>
      </g>
     </g>
    </g>
    <g id="ytick_4">
     <g id="line2d_12">
      <g>
       <use xlink:href="#m01a0b9262c" x="58.074219" y="196.439339" style="stroke: #000000; stroke-width: 0.8"/>
      </g>
     </g>
     <g id="text_13">
      <!-- 0.03 -->
      <g transform="translate(24.824219 201.647152) scale(0.15 -0.15)">
       <use xlink:href="#TimesNewRomanPSMT-30"/>
       <use xlink:href="#TimesNewRomanPSMT-2e" x="50"/>
       <use xlink:href="#TimesNewRomanPSMT-30" x="75"/>
       <use xlink:href="#TimesNewRomanPSMT-33" x="125"/>
      </g>
     </g>
    </g>
    <g id="ytick_5">
     <g id="line2d_13">
      <g>
       <use xlink:href="#m01a0b9262c" x="58.074219" y="142.472869" style="stroke: #000000; stroke-width: 0.8"/>
      </g>
     </g>
     <g id="text_14">
      <!-- 0.04 -->
      <g transform="translate(24.824219 147.680681) scale(0.15 -0.15)">
       <use xlink:href="#TimesNewRomanPSMT-30"/>
       <use xlink:href="#TimesNewRomanPSMT-2e" x="50"/>
       <use xlink:href="#TimesNewRomanPSMT-30" x="75"/>
       <use xlink:href="#TimesNewRomanPSMT-34" x="125"/>
      </g>
     </g>
    </g>
    <g id="ytick_6">
     <g id="line2d_14">
      <g>
       <use xlink:href="#m01a0b9262c" x="58.074219" y="88.506399" style="stroke: #000000; stroke-width: 0.8"/>
      </g>
     </g>
     <g id="text_15">
      <!-- 0.05 -->
      <g transform="translate(24.824219 93.714211) scale(0.15 -0.15)">
       <use xlink:href="#TimesNewRomanPSMT-30"/>
       <use xlink:href="#TimesNewRomanPSMT-2e" x="50"/>
       <use xlink:href="#TimesNewRomanPSMT-30" x="75"/>
       <use xlink:href="#TimesNewRomanPSMT-35" x="125"/>
      </g>
     </g>
    </g>
    <g id="ytick_7">
     <g id="line2d_15">
      <g>
       <use xlink:href="#m01a0b9262c" x="58.074219" y="34.539928" style="stroke: #000000; stroke-width: 0.8"/>
      </g>
     </g>
     <g id="text_16">
      <!-- 0.06 -->
      <g transform="translate(24.824219 39.747741) scale(0.15 -0.15)">
       <use xlink:href="#TimesNewRomanPSMT-30"/>
       <use xlink:href="#TimesNewRomanPSMT-2e" x="50"/>
       <use xlink:href="#TimesNewRomanPSMT-30" x="75"/>
       <use xlink:href="#TimesNewRomanPSMT-36" x="125"/>
      </g>
     </g>
    </g>
    <g id="text_17">
     <!-- Frequency -->
     <g transform="translate(17.5875 223.674609) rotate(-90) scale(0.15 -0.15)">
      <defs>
       <path id="TimesNewRomanPSMT-46" d="M 1309 4006 
L 1309 2341 
L 2081 2341 
Q 2347 2341 2470 2458 
Q 2594 2575 2634 2922 
L 2750 2922 
L 2750 1488 
L 2634 1488 
Q 2631 1734 2570 1850 
Q 2509 1966 2401 2023 
Q 2294 2081 2081 2081 
L 1309 2081 
L 1309 750 
Q 1309 428 1350 325 
Q 1381 247 1481 191 
Q 1619 116 1769 116 
L 1922 116 
L 1922 0 
L 103 0 
L 103 116 
L 253 116 
Q 516 116 634 269 
Q 709 369 709 750 
L 709 3488 
Q 709 3809 669 3913 
Q 638 3991 541 4047 
Q 406 4122 253 4122 
L 103 4122 
L 103 4238 
L 3256 4238 
L 3297 3306 
L 3188 3306 
Q 3106 3603 2998 3742 
Q 2891 3881 2733 3943 
Q 2575 4006 2244 4006 
L 1309 4006 
z
" transform="scale(0.015625)"/>
       <path id="TimesNewRomanPSMT-72" d="M 1038 2947 
L 1038 2303 
Q 1397 2947 1775 2947 
Q 1947 2947 2059 2842 
Q 2172 2738 2172 2600 
Q 2172 2478 2090 2393 
Q 2009 2309 1897 2309 
Q 1788 2309 1652 2417 
Q 1516 2525 1450 2525 
Q 1394 2525 1328 2463 
Q 1188 2334 1038 2041 
L 1038 669 
Q 1038 431 1097 309 
Q 1138 225 1241 169 
Q 1344 113 1538 113 
L 1538 0 
L 72 0 
L 72 113 
Q 291 113 397 181 
Q 475 231 506 341 
Q 522 394 522 644 
L 522 1753 
Q 522 2253 501 2348 
Q 481 2444 426 2487 
Q 372 2531 291 2531 
Q 194 2531 72 2484 
L 41 2597 
L 906 2947 
L 1038 2947 
z
" transform="scale(0.015625)"/>
       <path id="TimesNewRomanPSMT-65" d="M 681 1784 
Q 678 1147 991 784 
Q 1303 422 1725 422 
Q 2006 422 2214 576 
Q 2422 731 2563 1106 
L 2659 1044 
Q 2594 616 2278 264 
Q 1963 -88 1488 -88 
Q 972 -88 605 314 
Q 238 716 238 1394 
Q 238 2128 614 2539 
Q 991 2950 1559 2950 
Q 2041 2950 2350 2633 
Q 2659 2316 2659 1784 
L 681 1784 
z
M 681 1966 
L 2006 1966 
Q 1991 2241 1941 2353 
Q 1863 2528 1708 2628 
Q 1553 2728 1384 2728 
Q 1125 2728 920 2526 
Q 716 2325 681 1966 
z
" transform="scale(0.015625)"/>
       <path id="TimesNewRomanPSMT-71" d="M 2734 2947 
L 2734 -734 
Q 2734 -1009 2771 -1087 
Q 2809 -1166 2889 -1209 
Q 2969 -1253 3200 -1253 
L 3200 -1369 
L 1756 -1369 
L 1756 -1253 
L 1816 -1253 
Q 1991 -1253 2081 -1203 
Q 2144 -1169 2181 -1080 
Q 2219 -991 2219 -734 
L 2219 497 
Q 1934 159 1721 35 
Q 1509 -88 1281 -88 
Q 866 -88 539 290 
Q 213 669 213 1303 
Q 213 2031 644 2489 
Q 1075 2947 1684 2947 
Q 1863 2947 2013 2897 
Q 2163 2847 2281 2747 
Q 2463 2834 2628 2947 
L 2734 2947 
z
M 2219 694 
L 2219 2038 
Q 2219 2272 2158 2406 
Q 2097 2541 1940 2634 
Q 1784 2728 1588 2728 
Q 1238 2728 988 2431 
Q 738 2134 738 1531 
Q 738 953 992 653 
Q 1247 353 1606 353 
Q 1791 353 1934 433 
Q 2078 513 2219 694 
z
" transform="scale(0.015625)"/>
       <path id="TimesNewRomanPSMT-75" d="M 2709 2863 
L 2709 1128 
Q 2709 631 2732 520 
Q 2756 409 2807 365 
Q 2859 322 2928 322 
Q 3025 322 3147 375 
L 3191 266 
L 2334 -88 
L 2194 -88 
L 2194 519 
Q 1825 119 1631 15 
Q 1438 -88 1222 -88 
Q 981 -88 804 51 
Q 628 191 559 409 
Q 491 628 491 1028 
L 491 2306 
Q 491 2509 447 2587 
Q 403 2666 317 2708 
Q 231 2750 6 2747 
L 6 2863 
L 1009 2863 
L 1009 947 
Q 1009 547 1148 422 
Q 1288 297 1484 297 
Q 1619 297 1789 381 
Q 1959 466 2194 703 
L 2194 2325 
Q 2194 2569 2105 2655 
Q 2016 2741 1734 2747 
L 1734 2863 
L 2709 2863 
z
" transform="scale(0.015625)"/>
       <path id="TimesNewRomanPSMT-6e" d="M 1034 2341 
Q 1538 2947 1994 2947 
Q 2228 2947 2397 2830 
Q 2566 2713 2666 2444 
Q 2734 2256 2734 1869 
L 2734 647 
Q 2734 375 2778 278 
Q 2813 200 2889 156 
Q 2966 113 3172 113 
L 3172 0 
L 1756 0 
L 1756 113 
L 1816 113 
Q 2016 113 2095 173 
Q 2175 234 2206 353 
Q 2219 400 2219 647 
L 2219 1819 
Q 2219 2209 2117 2386 
Q 2016 2563 1775 2563 
Q 1403 2563 1034 2156 
L 1034 647 
Q 1034 356 1069 288 
Q 1113 197 1189 155 
Q 1266 113 1500 113 
L 1500 0 
L 84 0 
L 84 113 
L 147 113 
Q 366 113 442 223 
Q 519 334 519 647 
L 519 1709 
Q 519 2225 495 2337 
Q 472 2450 423 2490 
Q 375 2531 294 2531 
Q 206 2531 84 2484 
L 38 2597 
L 900 2947 
L 1034 2947 
L 1034 2341 
z
" transform="scale(0.015625)"/>
       <path id="TimesNewRomanPSMT-63" d="M 2631 1088 
Q 2516 522 2178 217 
Q 1841 -88 1431 -88 
Q 944 -88 581 321 
Q 219 731 219 1428 
Q 219 2103 620 2525 
Q 1022 2947 1584 2947 
Q 2006 2947 2278 2723 
Q 2550 2500 2550 2259 
Q 2550 2141 2473 2067 
Q 2397 1994 2259 1994 
Q 2075 1994 1981 2113 
Q 1928 2178 1911 2362 
Q 1894 2547 1784 2644 
Q 1675 2738 1481 2738 
Q 1169 2738 978 2506 
Q 725 2200 725 1697 
Q 725 1184 976 792 
Q 1228 400 1656 400 
Q 1963 400 2206 609 
Q 2378 753 2541 1131 
L 2631 1088 
z
" transform="scale(0.015625)"/>
       <path id="TimesNewRomanPSMT-79" d="M 38 2863 
L 1372 2863 
L 1372 2747 
L 1306 2747 
Q 1166 2747 1095 2686 
Q 1025 2625 1025 2534 
Q 1025 2413 1128 2197 
L 1825 753 
L 2466 2334 
Q 2519 2463 2519 2588 
Q 2519 2644 2497 2672 
Q 2472 2706 2419 2726 
Q 2366 2747 2231 2747 
L 2231 2863 
L 3163 2863 
L 3163 2747 
Q 3047 2734 2984 2696 
Q 2922 2659 2847 2556 
Q 2819 2513 2741 2316 
L 1575 -541 
Q 1406 -956 1132 -1168 
Q 859 -1381 606 -1381 
Q 422 -1381 303 -1275 
Q 184 -1169 184 -1031 
Q 184 -900 270 -820 
Q 356 -741 506 -741 
Q 609 -741 788 -809 
Q 913 -856 944 -856 
Q 1038 -856 1148 -759 
Q 1259 -663 1372 -384 
L 1575 113 
L 547 2272 
Q 500 2369 397 2513 
Q 319 2622 269 2659 
Q 197 2709 38 2747 
L 38 2863 
z
" transform="scale(0.015625)"/>
      </defs>
      <use xlink:href="#TimesNewRomanPSMT-46"/>
      <use xlink:href="#TimesNewRomanPSMT-72" x="55.615234"/>
      <use xlink:href="#TimesNewRomanPSMT-65" x="88.916016"/>
      <use xlink:href="#TimesNewRomanPSMT-71" x="133.300781"/>
      <use xlink:href="#TimesNewRomanPSMT-75" x="183.300781"/>
      <use xlink:href="#TimesNewRomanPSMT-65" x="233.300781"/>
      <use xlink:href="#TimesNewRomanPSMT-6e" x="277.685547"/>
      <use xlink:href="#TimesNewRomanPSMT-63" x="327.685547"/>
      <use xlink:href="#TimesNewRomanPSMT-79" x="372.070312"/>
     </g>
    </g>
   </g>
   <g id="line2d_16">
    <path d="M 181.627274 358.282624 
L 185.681172 358.263558 
L 189.735071 358.238524 
L 193.78897 358.20583 
L 197.842869 358.163362 
L 201.896768 358.108493 
L 205.950667 358.037984 
L 210.004565 357.947869 
L 214.058464 357.833319 
L 218.112363 357.688498 
L 222.166262 357.506406 
L 226.220161 357.278701 
L 230.274059 356.995519 
L 234.327958 356.645281 
L 238.381857 356.214501 
L 242.435756 355.687593 
L 246.489655 355.046694 
L 250.543553 354.271503 
L 254.597452 353.339144 
L 258.651351 352.224085 
L 262.70525 350.898092 
L 266.759149 349.330266 
L 270.813048 347.487149 
L 274.866946 345.332933 
L 278.920845 342.829771 
L 282.974744 339.938212 
L 287.028643 336.617762 
L 291.082542 332.827582 
L 295.13644 328.527317 
L 299.190339 323.678069 
L 303.244238 318.243488 
L 307.298137 312.190975 
L 311.352036 305.492983 
L 315.405935 298.128369 
L 319.459833 290.083779 
L 323.513732 281.355025 
L 327.567631 271.948388 
L 331.62153 261.881828 
L 335.675429 251.186021 
L 339.729327 239.905183 
L 343.783226 228.097633 
L 347.837125 215.836031 
L 351.891024 203.207275 
L 355.944923 190.312 
L 359.998821 177.263679 
L 364.05272 164.187302 
L 368.106619 151.217653 
L 372.160518 138.497202 
L 376.214417 126.173646 
L 380.268316 114.397162 
L 384.322214 103.317434 
L 388.376113 93.080529 
L 392.430012 83.825726 
L 396.483911 75.682372 
L 400.53781 68.766888 
L 404.591708 63.180001 
L 408.645607 59.004305 
L 412.699506 56.302226 
L 416.753405 55.114476 
L 420.807304 55.459027 
L 424.861203 57.330661 
L 428.915101 60.701099 
L 432.969 65.519717 
L 437.022899 71.714805 
L 441.076798 79.195347 
L 445.130697 87.853242 
L 449.184595 97.565903 
L 453.238494 108.19914 
L 457.292393 119.610232 
L 461.346292 131.651096 
L 465.400191 144.171448 
L 469.454089 157.021867 
L 473.507988 170.05668 
L 477.561887 183.136587 
L 481.615786 196.130965 
L 485.669685 208.919807 
L 489.723584 221.395271 
L 493.777482 233.462805 
L 497.831381 245.041869 
L 501.88528 256.066255 
L 505.939179 266.484029 
L 509.993078 276.257144 
L 514.046976 285.360753 
L 518.100875 293.782281 
L 522.154774 301.520306 
L 526.208673 308.583303 
L 530.262572 314.988295 
L 534.316471 320.759473 
L 538.370369 325.926818 
L 542.424268 330.524769 
L 546.478167 334.590965 
L 550.532066 338.165085 
L 554.585965 341.287814 
L 558.639863 343.999931 
L 562.693762 346.341539 
L 566.747661 348.351431 
L 570.80156 350.066583 
L 574.855459 351.52178 
L 578.909357 352.74935 
L 582.963256 353.779003 
" clip-path="url(#pc273da5064)" style="fill: none; stroke: #ff0000; stroke-width: 1.5; stroke-linecap: square"/>
   </g>
   <g id="line2d_17">
    <path d="M 181.627274 353.539846 
L 185.681172 352.472183 
L 189.735071 351.202725 
L 193.78897 349.701829 
L 197.842869 347.937348 
L 201.896768 345.874817 
L 205.950667 343.47773 
L 210.004565 340.707932 
L 214.058464 337.526138 
L 218.112363 333.892568 
L 222.166262 329.767727 
L 226.220161 325.113302 
L 230.274059 319.893189 
L 234.327958 314.074627 
L 238.381857 307.629424 
L 242.435756 300.535252 
L 246.489655 292.776975 
L 250.543553 284.347973 
L 254.597452 275.251423 
L 258.651351 265.501496 
L 262.70525 255.124397 
L 266.759149 244.159231 
L 270.813048 232.658618 
L 274.866946 220.689023 
L 278.920845 208.330762 
L 282.974744 195.677643 
L 287.028643 182.836226 
L 291.082542 169.924687 
L 295.13644 157.071288 
L 299.190339 144.412474 
L 303.244238 132.090621 
L 307.298137 120.251483 
L 311.352036 109.041408 
L 315.405935 98.604374 
L 319.459833 89.078947 
L 323.513732 80.59524 
L 327.567631 73.271962 
L 331.62153 67.213664 
L 335.675429 62.508252 
L 339.729327 59.224871 
L 343.783226 57.412211 
L 347.837125 57.097305 
L 351.891024 58.284861 
L 355.944923 60.957143 
L 359.998821 65.074412 
L 364.05272 70.575911 
L 368.106619 77.381353 
L 372.160518 85.392873 
L 376.214417 94.497369 
L 380.268316 104.569152 
L 384.322214 115.47283 
L 388.376113 127.066318 
L 392.430012 139.203893 
L 396.483911 151.739202 
L 400.53781 164.528128 
L 404.591708 177.43145 
L 408.645607 190.317229 
L 412.699506 203.062856 
L 416.753405 215.556747 
L 420.807304 227.699641 
L 424.861203 239.405509 
L 428.915101 250.602066 
L 432.969 261.230917 
L 437.022899 271.24736 
L 441.076798 280.619878 
L 445.130697 289.32938 
L 449.184595 297.368224 
L 453.238494 304.739078 
L 457.292393 311.453674 
L 461.346292 317.531491 
L 465.400191 322.998426 
L 469.454089 327.88548 
L 473.507988 332.227501 
L 477.561887 336.062008 
L 481.615786 339.42812 
L 485.669685 342.365598 
L 489.723584 344.91402 
L 493.777482 347.112084 
L 497.831381 348.99704 
L 501.88528 350.60425 
L 505.939179 351.966858 
L 509.993078 353.115572 
L 514.046976 354.078534 
L 518.100875 354.881278 
L 522.154774 355.546746 
L 526.208673 356.095365 
L 530.262572 356.545166 
L 534.316471 356.911927 
L 538.370369 357.209348 
L 542.424268 357.449226 
L 546.478167 357.641647 
L 550.532066 357.795166 
L 554.585965 357.916989 
L 558.639863 358.013141 
L 562.693762 358.088625 
L 566.747661 358.147568 
L 570.80156 358.193349 
L 574.855459 358.228718 
L 578.909357 358.255898 
L 582.963256 358.276675 
" clip-path="url(#pc273da5064)" style="fill: none; stroke: #008000; stroke-width: 1.5; stroke-linecap: square"/>
   </g>
   <g id="patch_103">
    <path d="M 58.074219 358.33875 
L 58.074219 25.69875 
" style="fill: none; stroke: #000000; stroke-width: 0.8; stroke-linejoin: miter; stroke-linecap: square"/>
   </g>
   <g id="patch_104">
    <path d="M 727.674219 358.33875 
L 727.674219 25.69875 
" style="fill: none; stroke: #000000; stroke-width: 0.8; stroke-linejoin: miter; stroke-linecap: square"/>
   </g>
   <g id="patch_105">
    <path d="M 58.074219 358.33875 
L 727.674219 358.33875 
" style="fill: none; stroke: #000000; stroke-width: 0.8; stroke-linejoin: miter; stroke-linecap: square"/>
   </g>
   <g id="patch_106">
    <path d="M 58.074219 25.69875 
L 727.674219 25.69875 
" style="fill: none; stroke: #000000; stroke-width: 0.8; stroke-linejoin: miter; stroke-linecap: square"/>
   </g>
   <g id="text_18">
    <!-- Histogram and Gaussian approx. of s1 and s2 -->
    <g transform="translate(229.397656 19.69875) scale(0.18 -0.18)">
     <defs>
      <path id="TimesNewRomanPSMT-48" d="M 1316 2272 
L 3284 2272 
L 3284 3484 
Q 3284 3809 3244 3913 
Q 3213 3991 3113 4047 
Q 2978 4122 2828 4122 
L 2678 4122 
L 2678 4238 
L 4491 4238 
L 4491 4122 
L 4341 4122 
Q 4191 4122 4056 4050 
Q 3956 4000 3920 3898 
Q 3884 3797 3884 3484 
L 3884 750 
Q 3884 428 3925 325 
Q 3956 247 4053 191 
Q 4191 116 4341 116 
L 4491 116 
L 4491 0 
L 2678 0 
L 2678 116 
L 2828 116 
Q 3088 116 3206 269 
Q 3284 369 3284 750 
L 3284 2041 
L 1316 2041 
L 1316 750 
Q 1316 428 1356 325 
Q 1388 247 1488 191 
Q 1622 116 1772 116 
L 1925 116 
L 1925 0 
L 109 0 
L 109 116 
L 259 116 
Q 522 116 641 269 
Q 716 369 716 750 
L 716 3484 
Q 716 3809 675 3913 
Q 644 3991 547 4047 
Q 409 4122 259 4122 
L 109 4122 
L 109 4238 
L 1925 4238 
L 1925 4122 
L 1772 4122 
Q 1622 4122 1488 4050 
Q 1391 4000 1353 3898 
Q 1316 3797 1316 3484 
L 1316 2272 
z
" transform="scale(0.015625)"/>
      <path id="TimesNewRomanPSMT-69" d="M 928 4444 
Q 1059 4444 1151 4351 
Q 1244 4259 1244 4128 
Q 1244 3997 1151 3903 
Q 1059 3809 928 3809 
Q 797 3809 703 3903 
Q 609 3997 609 4128 
Q 609 4259 701 4351 
Q 794 4444 928 4444 
z
M 1188 2947 
L 1188 647 
Q 1188 378 1227 289 
Q 1266 200 1342 156 
Q 1419 113 1622 113 
L 1622 0 
L 231 0 
L 231 113 
Q 441 113 512 153 
Q 584 194 626 287 
Q 669 381 669 647 
L 669 1750 
Q 669 2216 641 2353 
Q 619 2453 572 2492 
Q 525 2531 444 2531 
Q 356 2531 231 2484 
L 188 2597 
L 1050 2947 
L 1188 2947 
z
" transform="scale(0.015625)"/>
      <path id="TimesNewRomanPSMT-74" d="M 1031 3803 
L 1031 2863 
L 1700 2863 
L 1700 2644 
L 1031 2644 
L 1031 788 
Q 1031 509 1111 412 
Q 1191 316 1316 316 
Q 1419 316 1516 380 
Q 1613 444 1666 569 
L 1788 569 
Q 1678 263 1478 108 
Q 1278 -47 1066 -47 
Q 922 -47 784 33 
Q 647 113 581 261 
Q 516 409 516 719 
L 516 2644 
L 63 2644 
L 63 2747 
Q 234 2816 414 2980 
Q 594 3144 734 3369 
Q 806 3488 934 3803 
L 1031 3803 
z
" transform="scale(0.015625)"/>
      <path id="TimesNewRomanPSMT-6f" d="M 1600 2947 
Q 2250 2947 2644 2453 
Q 2978 2031 2978 1484 
Q 2978 1100 2793 706 
Q 2609 313 2286 112 
Q 1963 -88 1566 -88 
Q 919 -88 538 428 
Q 216 863 216 1403 
Q 216 1797 411 2186 
Q 606 2575 925 2761 
Q 1244 2947 1600 2947 
z
M 1503 2744 
Q 1338 2744 1170 2645 
Q 1003 2547 900 2300 
Q 797 2053 797 1666 
Q 797 1041 1045 587 
Q 1294 134 1700 134 
Q 2003 134 2200 384 
Q 2397 634 2397 1244 
Q 2397 2006 2069 2444 
Q 1847 2744 1503 2744 
z
" transform="scale(0.015625)"/>
      <path id="TimesNewRomanPSMT-67" d="M 966 1044 
Q 703 1172 562 1401 
Q 422 1631 422 1909 
Q 422 2334 742 2640 
Q 1063 2947 1563 2947 
Q 1972 2947 2272 2747 
L 2878 2747 
Q 3013 2747 3034 2739 
Q 3056 2731 3066 2713 
Q 3084 2684 3084 2613 
Q 3084 2531 3069 2500 
Q 3059 2484 3036 2475 
Q 3013 2466 2878 2466 
L 2506 2466 
Q 2681 2241 2681 1891 
Q 2681 1491 2375 1206 
Q 2069 922 1553 922 
Q 1341 922 1119 984 
Q 981 866 932 777 
Q 884 688 884 625 
Q 884 572 936 522 
Q 988 472 1138 450 
Q 1225 438 1575 428 
Q 2219 413 2409 384 
Q 2700 344 2873 169 
Q 3047 -6 3047 -263 
Q 3047 -616 2716 -925 
Q 2228 -1381 1444 -1381 
Q 841 -1381 425 -1109 
Q 191 -953 191 -784 
Q 191 -709 225 -634 
Q 278 -519 444 -313 
Q 466 -284 763 25 
Q 600 122 533 198 
Q 466 275 466 372 
Q 466 481 555 628 
Q 644 775 966 1044 
z
M 1509 2797 
Q 1278 2797 1122 2612 
Q 966 2428 966 2047 
Q 966 1553 1178 1281 
Q 1341 1075 1591 1075 
Q 1828 1075 1981 1253 
Q 2134 1431 2134 1813 
Q 2134 2309 1919 2591 
Q 1759 2797 1509 2797 
z
M 934 0 
Q 788 -159 713 -296 
Q 638 -434 638 -550 
Q 638 -700 819 -813 
Q 1131 -1006 1722 -1006 
Q 2284 -1006 2551 -807 
Q 2819 -609 2819 -384 
Q 2819 -222 2659 -153 
Q 2497 -84 2016 -72 
Q 1313 -53 934 0 
z
" transform="scale(0.015625)"/>
      <path id="TimesNewRomanPSMT-61" d="M 1822 413 
Q 1381 72 1269 19 
Q 1100 -59 909 -59 
Q 613 -59 420 144 
Q 228 347 228 678 
Q 228 888 322 1041 
Q 450 1253 767 1440 
Q 1084 1628 1822 1897 
L 1822 2009 
Q 1822 2438 1686 2597 
Q 1550 2756 1291 2756 
Q 1094 2756 978 2650 
Q 859 2544 859 2406 
L 866 2225 
Q 866 2081 792 2003 
Q 719 1925 600 1925 
Q 484 1925 411 2006 
Q 338 2088 338 2228 
Q 338 2497 613 2722 
Q 888 2947 1384 2947 
Q 1766 2947 2009 2819 
Q 2194 2722 2281 2516 
Q 2338 2381 2338 1966 
L 2338 994 
Q 2338 584 2353 492 
Q 2369 400 2405 369 
Q 2441 338 2488 338 
Q 2538 338 2575 359 
Q 2641 400 2828 588 
L 2828 413 
Q 2478 -56 2159 -56 
Q 2006 -56 1915 50 
Q 1825 156 1822 413 
z
M 1822 616 
L 1822 1706 
Q 1350 1519 1213 1441 
Q 966 1303 859 1153 
Q 753 1003 753 825 
Q 753 600 887 451 
Q 1022 303 1197 303 
Q 1434 303 1822 616 
z
" transform="scale(0.015625)"/>
      <path id="TimesNewRomanPSMT-6d" d="M 1050 2338 
Q 1363 2650 1419 2697 
Q 1559 2816 1721 2881 
Q 1884 2947 2044 2947 
Q 2313 2947 2506 2790 
Q 2700 2634 2766 2338 
Q 3088 2713 3309 2830 
Q 3531 2947 3766 2947 
Q 3994 2947 4170 2830 
Q 4347 2713 4450 2447 
Q 4519 2266 4519 1878 
L 4519 647 
Q 4519 378 4559 278 
Q 4591 209 4675 161 
Q 4759 113 4950 113 
L 4950 0 
L 3538 0 
L 3538 113 
L 3597 113 
Q 3781 113 3884 184 
Q 3956 234 3988 344 
Q 4000 397 4000 647 
L 4000 1878 
Q 4000 2228 3916 2372 
Q 3794 2572 3525 2572 
Q 3359 2572 3192 2489 
Q 3025 2406 2788 2181 
L 2781 2147 
L 2788 2013 
L 2788 647 
Q 2788 353 2820 281 
Q 2853 209 2943 161 
Q 3034 113 3253 113 
L 3253 0 
L 1806 0 
L 1806 113 
Q 2044 113 2133 169 
Q 2222 225 2256 338 
Q 2272 391 2272 647 
L 2272 1878 
Q 2272 2228 2169 2381 
Q 2031 2581 1784 2581 
Q 1616 2581 1450 2491 
Q 1191 2353 1050 2181 
L 1050 647 
Q 1050 366 1089 281 
Q 1128 197 1204 155 
Q 1281 113 1516 113 
L 1516 0 
L 100 0 
L 100 113 
Q 297 113 375 155 
Q 453 197 493 289 
Q 534 381 534 647 
L 534 1741 
Q 534 2213 506 2350 
Q 484 2453 437 2492 
Q 391 2531 309 2531 
Q 222 2531 100 2484 
L 53 2597 
L 916 2947 
L 1050 2947 
L 1050 2338 
z
" transform="scale(0.015625)"/>
      <path id="TimesNewRomanPSMT-64" d="M 2222 322 
Q 2013 103 1813 7 
Q 1613 -88 1381 -88 
Q 913 -88 563 304 
Q 213 697 213 1313 
Q 213 1928 600 2439 
Q 988 2950 1597 2950 
Q 1975 2950 2222 2709 
L 2222 3238 
Q 2222 3728 2198 3840 
Q 2175 3953 2125 3993 
Q 2075 4034 2000 4034 
Q 1919 4034 1784 3984 
L 1744 4094 
L 2597 4444 
L 2738 4444 
L 2738 1134 
Q 2738 631 2761 520 
Q 2784 409 2836 365 
Q 2888 322 2956 322 
Q 3041 322 3181 375 
L 3216 266 
L 2366 -88 
L 2222 -88 
L 2222 322 
z
M 2222 541 
L 2222 2016 
Q 2203 2228 2109 2403 
Q 2016 2578 1861 2667 
Q 1706 2756 1559 2756 
Q 1284 2756 1069 2509 
Q 784 2184 784 1559 
Q 784 928 1059 592 
Q 1334 256 1672 256 
Q 1956 256 2222 541 
z
" transform="scale(0.015625)"/>
      <path id="TimesNewRomanPSMT-47" d="M 3928 4334 
L 4038 2997 
L 3928 2997 
Q 3763 3497 3500 3750 
Q 3122 4116 2528 4116 
Q 1719 4116 1297 3475 
Q 944 2934 944 2188 
Q 944 1581 1178 1081 
Q 1413 581 1792 348 
Q 2172 116 2572 116 
Q 2806 116 3025 175 
Q 3244 234 3447 350 
L 3447 1575 
Q 3447 1894 3398 1992 
Q 3350 2091 3248 2142 
Q 3147 2194 2891 2194 
L 2891 2313 
L 4531 2313 
L 4531 2194 
L 4453 2194 
Q 4209 2194 4119 2031 
Q 4056 1916 4056 1575 
L 4056 278 
Q 3697 84 3347 -6 
Q 2997 -97 2569 -97 
Q 1341 -97 703 691 
Q 225 1281 225 2053 
Q 225 2613 494 3125 
Q 813 3734 1369 4063 
Q 1834 4334 2469 4334 
Q 2700 4334 2889 4296 
Q 3078 4259 3425 4131 
Q 3600 4066 3659 4066 
Q 3719 4066 3761 4120 
Q 3803 4175 3813 4334 
L 3928 4334 
z
" transform="scale(0.015625)"/>
      <path id="TimesNewRomanPSMT-70" d="M -6 2578 
L 875 2934 
L 994 2934 
L 994 2266 
Q 1216 2644 1439 2795 
Q 1663 2947 1909 2947 
Q 2341 2947 2628 2609 
Q 2981 2197 2981 1534 
Q 2981 794 2556 309 
Q 2206 -88 1675 -88 
Q 1444 -88 1275 -22 
Q 1150 25 994 166 
L 994 -706 
Q 994 -1000 1030 -1079 
Q 1066 -1159 1155 -1206 
Q 1244 -1253 1478 -1253 
L 1478 -1369 
L -22 -1369 
L -22 -1253 
L 56 -1253 
Q 228 -1256 350 -1188 
Q 409 -1153 442 -1076 
Q 475 -1000 475 -688 
L 475 2019 
Q 475 2297 450 2372 
Q 425 2447 370 2484 
Q 316 2522 222 2522 
Q 147 2522 31 2478 
L -6 2578 
z
M 994 2081 
L 994 1013 
Q 994 666 1022 556 
Q 1066 375 1236 237 
Q 1406 100 1666 100 
Q 1978 100 2172 344 
Q 2425 663 2425 1241 
Q 2425 1897 2138 2250 
Q 1938 2494 1663 2494 
Q 1513 2494 1366 2419 
Q 1253 2363 994 2081 
z
" transform="scale(0.015625)"/>
      <path id="TimesNewRomanPSMT-78" d="M 84 2863 
L 1431 2863 
L 1431 2747 
Q 1303 2747 1251 2703 
Q 1200 2659 1200 2588 
Q 1200 2513 1309 2356 
Q 1344 2306 1413 2200 
L 1616 1875 
L 1850 2200 
Q 2075 2509 2075 2591 
Q 2075 2656 2022 2701 
Q 1969 2747 1850 2747 
L 1850 2863 
L 2819 2863 
L 2819 2747 
Q 2666 2738 2553 2663 
Q 2400 2556 2134 2200 
L 1744 1678 
L 2456 653 
Q 2719 275 2831 198 
Q 2944 122 3122 113 
L 3122 0 
L 1772 0 
L 1772 113 
Q 1913 113 1991 175 
Q 2050 219 2050 291 
Q 2050 363 1850 653 
L 1431 1266 
L 972 653 
Q 759 369 759 316 
Q 759 241 829 180 
Q 900 119 1041 113 
L 1041 0 
L 106 0 
L 106 113 
Q 219 128 303 191 
Q 422 281 703 653 
L 1303 1450 
L 759 2238 
Q 528 2575 401 2661 
Q 275 2747 84 2747 
L 84 2863 
z
" transform="scale(0.015625)"/>
      <path id="TimesNewRomanPSMT-66" d="M 1319 2638 
L 1319 756 
Q 1319 356 1406 250 
Q 1522 113 1716 113 
L 1975 113 
L 1975 0 
L 266 0 
L 266 113 
L 394 113 
Q 519 113 622 175 
Q 725 238 764 344 
Q 803 450 803 756 
L 803 2638 
L 247 2638 
L 247 2863 
L 803 2863 
L 803 3050 
Q 803 3478 940 3775 
Q 1078 4072 1361 4255 
Q 1644 4438 1997 4438 
Q 2325 4438 2600 4225 
Q 2781 4084 2781 3909 
Q 2781 3816 2700 3733 
Q 2619 3650 2525 3650 
Q 2453 3650 2373 3701 
Q 2294 3753 2178 3923 
Q 2063 4094 1966 4153 
Q 1869 4213 1750 4213 
Q 1606 4213 1506 4136 
Q 1406 4059 1362 3898 
Q 1319 3738 1319 3069 
L 1319 2863 
L 2056 2863 
L 2056 2638 
L 1319 2638 
z
" transform="scale(0.015625)"/>
     </defs>
     <use xlink:href="#TimesNewRomanPSMT-48"/>
     <use xlink:href="#TimesNewRomanPSMT-69" x="72.216797"/>
     <use xlink:href="#TimesNewRomanPSMT-73" x="100"/>
     <use xlink:href="#TimesNewRomanPSMT-74" x="138.916016"/>
     <use xlink:href="#TimesNewRomanPSMT-6f" x="166.699219"/>
     <use xlink:href="#TimesNewRomanPSMT-67" x="216.699219"/>
     <use xlink:href="#TimesNewRomanPSMT-72" x="266.699219"/>
     <use xlink:href="#TimesNewRomanPSMT-61" x="300"/>
     <use xlink:href="#TimesNewRomanPSMT-6d" x="344.384766"/>
     <use xlink:href="#TimesNewRomanPSMT-20" x="422.167969"/>
     <use xlink:href="#TimesNewRomanPSMT-61" x="447.167969"/>
     <use xlink:href="#TimesNewRomanPSMT-6e" x="491.552734"/>
     <use xlink:href="#TimesNewRomanPSMT-64" x="541.552734"/>
     <use xlink:href="#TimesNewRomanPSMT-20" x="591.552734"/>
     <use xlink:href="#TimesNewRomanPSMT-47" x="616.552734"/>
     <use xlink:href="#TimesNewRomanPSMT-61" x="688.769531"/>
     <use xlink:href="#TimesNewRomanPSMT-75" x="733.154297"/>
     <use xlink:href="#TimesNewRomanPSMT-73" x="783.154297"/>
     <use xlink:href="#TimesNewRomanPSMT-73" x="822.070312"/>
     <use xlink:href="#TimesNewRomanPSMT-69" x="860.986328"/>
     <use xlink:href="#TimesNewRomanPSMT-61" x="888.769531"/>
     <use xlink:href="#TimesNewRomanPSMT-6e" x="933.154297"/>
     <use xlink:href="#TimesNewRomanPSMT-20" x="983.154297"/>
     <use xlink:href="#TimesNewRomanPSMT-61" x="1008.154297"/>
     <use xlink:href="#TimesNewRomanPSMT-70" x="1052.539062"/>
     <use xlink:href="#TimesNewRomanPSMT-70" x="1102.539062"/>
     <use xlink:href="#TimesNewRomanPSMT-72" x="1152.539062"/>
     <use xlink:href="#TimesNewRomanPSMT-6f" x="1185.839844"/>
     <use xlink:href="#TimesNewRomanPSMT-78" x="1235.839844"/>
     <use xlink:href="#TimesNewRomanPSMT-2e" x="1285.839844"/>
     <use xlink:href="#TimesNewRomanPSMT-20" x="1310.839844"/>
     <use xlink:href="#TimesNewRomanPSMT-6f" x="1335.839844"/>
     <use xlink:href="#TimesNewRomanPSMT-66" x="1385.839844"/>
     <use xlink:href="#TimesNewRomanPSMT-20" x="1419.140625"/>
     <use xlink:href="#TimesNewRomanPSMT-73" x="1444.140625"/>
     <use xlink:href="#TimesNewRomanPSMT-31" x="1483.056641"/>
     <use xlink:href="#TimesNewRomanPSMT-20" x="1533.056641"/>
     <use xlink:href="#TimesNewRomanPSMT-61" x="1558.056641"/>
     <use xlink:href="#TimesNewRomanPSMT-6e" x="1602.441406"/>
     <use xlink:href="#TimesNewRomanPSMT-64" x="1652.441406"/>
     <use xlink:href="#TimesNewRomanPSMT-20" x="1702.441406"/>
     <use xlink:href="#TimesNewRomanPSMT-73" x="1727.441406"/>
     <use xlink:href="#TimesNewRomanPSMT-32" x="1766.357422"/>
    </g>
   </g>
   <g id="legend_1">
    <g id="patch_107">
     <path d="M 505.861719 122.533125 
L 717.174219 122.533125 
Q 720.174219 122.533125 720.174219 119.533125 
L 720.174219 36.19875 
Q 720.174219 33.19875 717.174219 33.19875 
L 505.861719 33.19875 
Q 502.861719 33.19875 502.861719 36.19875 
L 502.861719 119.533125 
Q 502.861719 122.533125 505.861719 122.533125 
z
" style="fill: #ffffff; opacity: 0.8; stroke: #cccccc; stroke-linejoin: miter"/>
    </g>
    <g id="patch_108">
     <path d="M 508.861719 49.69875 
L 538.861719 49.69875 
L 538.861719 39.19875 
L 508.861719 39.19875 
z
" style="fill: #0000ff"/>
    </g>
    <g id="text_19">
     <!-- s1 samples -->
     <g transform="translate(550.861719 49.69875) scale(0.15 -0.15)">
      <defs>
       <path id="TimesNewRomanPSMT-6c" d="M 1184 4444 
L 1184 647 
Q 1184 378 1223 290 
Q 1263 203 1344 158 
Q 1425 113 1647 113 
L 1647 0 
L 244 0 
L 244 113 
Q 441 113 512 153 
Q 584 194 625 287 
Q 666 381 666 647 
L 666 3247 
Q 666 3731 644 3842 
Q 622 3953 573 3993 
Q 525 4034 450 4034 
Q 369 4034 244 3984 
L 191 4094 
L 1044 4444 
L 1184 4444 
z
" transform="scale(0.015625)"/>
      </defs>
      <use xlink:href="#TimesNewRomanPSMT-73"/>
      <use xlink:href="#TimesNewRomanPSMT-31" x="38.916016"/>
      <use xlink:href="#TimesNewRomanPSMT-20" x="88.916016"/>
      <use xlink:href="#TimesNewRomanPSMT-73" x="113.916016"/>
      <use xlink:href="#TimesNewRomanPSMT-61" x="152.832031"/>
      <use xlink:href="#TimesNewRomanPSMT-6d" x="197.216797"/>
      <use xlink:href="#TimesNewRomanPSMT-70" x="275"/>
      <use xlink:href="#TimesNewRomanPSMT-6c" x="325"/>
      <use xlink:href="#TimesNewRomanPSMT-65" x="352.783203"/>
      <use xlink:href="#TimesNewRomanPSMT-73" x="397.167969"/>
     </g>
    </g>
    <g id="line2d_18">
     <path d="M 508.861719 65.657344 
L 523.861719 65.657344 
L 538.861719 65.657344 
" style="fill: none; stroke: #ff0000; stroke-width: 1.5; stroke-linecap: square"/>
    </g>
    <g id="text_20">
     <!-- s1 Gaussian approximation -->
     <g transform="translate(550.861719 70.907344) scale(0.15 -0.15)">
      <use xlink:href="#TimesNewRomanPSMT-73"/>
      <use xlink:href="#TimesNewRomanPSMT-31" x="38.916016"/>
      <use xlink:href="#TimesNewRomanPSMT-20" x="88.916016"/>
      <use xlink:href="#TimesNewRomanPSMT-47" x="113.916016"/>
      <use xlink:href="#TimesNewRomanPSMT-61" x="186.132812"/>
      <use xlink:href="#TimesNewRomanPSMT-75" x="230.517578"/>
      <use xlink:href="#TimesNewRomanPSMT-73" x="280.517578"/>
      <use xlink:href="#TimesNewRomanPSMT-73" x="319.433594"/>
      <use xlink:href="#TimesNewRomanPSMT-69" x="358.349609"/>
      <use xlink:href="#TimesNewRomanPSMT-61" x="386.132812"/>
      <use xlink:href="#TimesNewRomanPSMT-6e" x="430.517578"/>
      <use xlink:href="#TimesNewRomanPSMT-20" x="480.517578"/>
      <use xlink:href="#TimesNewRomanPSMT-61" x="505.517578"/>
      <use xlink:href="#TimesNewRomanPSMT-70" x="549.902344"/>
      <use xlink:href="#TimesNewRomanPSMT-70" x="599.902344"/>
      <use xlink:href="#TimesNewRomanPSMT-72" x="649.902344"/>
      <use xlink:href="#TimesNewRomanPSMT-6f" x="683.203125"/>
      <use xlink:href="#TimesNewRomanPSMT-78" x="733.203125"/>
      <use xlink:href="#TimesNewRomanPSMT-69" x="783.203125"/>
      <use xlink:href="#TimesNewRomanPSMT-6d" x="810.986328"/>
      <use xlink:href="#TimesNewRomanPSMT-61" x="888.769531"/>
      <use xlink:href="#TimesNewRomanPSMT-74" x="933.154297"/>
      <use xlink:href="#TimesNewRomanPSMT-69" x="960.9375"/>
      <use xlink:href="#TimesNewRomanPSMT-6f" x="988.720703"/>
      <use xlink:href="#TimesNewRomanPSMT-6e" x="1038.720703"/>
     </g>
    </g>
    <g id="patch_109">
     <path d="M 508.861719 92.115937 
L 538.861719 92.115937 
L 538.861719 81.615937 
L 508.861719 81.615937 
z
" style="fill: #ffa500"/>
    </g>
    <g id="text_21">
     <!-- s2 samples -->
     <g transform="translate(550.861719 92.115937) scale(0.15 -0.15)">
      <use xlink:href="#TimesNewRomanPSMT-73"/>
      <use xlink:href="#TimesNewRomanPSMT-32" x="38.916016"/>
      <use xlink:href="#TimesNewRomanPSMT-20" x="88.916016"/>
      <use xlink:href="#TimesNewRomanPSMT-73" x="113.916016"/>
      <use xlink:href="#TimesNewRomanPSMT-61" x="152.832031"/>
      <use xlink:href="#TimesNewRomanPSMT-6d" x="197.216797"/>
      <use xlink:href="#TimesNewRomanPSMT-70" x="275"/>
      <use xlink:href="#TimesNewRomanPSMT-6c" x="325"/>
      <use xlink:href="#TimesNewRomanPSMT-65" x="352.783203"/>
      <use xlink:href="#TimesNewRomanPSMT-73" x="397.167969"/>
     </g>
    </g>
    <g id="line2d_19">
     <path d="M 508.861719 108.074531 
L 523.861719 108.074531 
L 538.861719 108.074531 
" style="fill: none; stroke: #008000; stroke-width: 1.5; stroke-linecap: square"/>
    </g>
    <g id="text_22">
     <!-- s2 Gaussian approximation -->
     <g transform="translate(550.861719 113.324531) scale(0.15 -0.15)">
      <use xlink:href="#TimesNewRomanPSMT-73"/>
      <use xlink:href="#TimesNewRomanPSMT-32" x="38.916016"/>
      <use xlink:href="#TimesNewRomanPSMT-20" x="88.916016"/>
      <use xlink:href="#TimesNewRomanPSMT-47" x="113.916016"/>
      <use xlink:href="#TimesNewRomanPSMT-61" x="186.132812"/>
      <use xlink:href="#TimesNewRomanPSMT-75" x="230.517578"/>
      <use xlink:href="#TimesNewRomanPSMT-73" x="280.517578"/>
      <use xlink:href="#TimesNewRomanPSMT-73" x="319.433594"/>
      <use xlink:href="#TimesNewRomanPSMT-69" x="358.349609"/>
      <use xlink:href="#TimesNewRomanPSMT-61" x="386.132812"/>
      <use xlink:href="#TimesNewRomanPSMT-6e" x="430.517578"/>
      <use xlink:href="#TimesNewRomanPSMT-20" x="480.517578"/>
      <use xlink:href="#TimesNewRomanPSMT-61" x="505.517578"/>
      <use xlink:href="#TimesNewRomanPSMT-70" x="549.902344"/>
      <use xlink:href="#TimesNewRomanPSMT-70" x="599.902344"/>
      <use xlink:href="#TimesNewRomanPSMT-72" x="649.902344"/>
      <use xlink:href="#TimesNewRomanPSMT-6f" x="683.203125"/>
      <use xlink:href="#TimesNewRomanPSMT-78" x="733.203125"/>
      <use xlink:href="#TimesNewRomanPSMT-69" x="783.203125"/>
      <use xlink:href="#TimesNewRomanPSMT-6d" x="810.986328"/>
      <use xlink:href="#TimesNewRomanPSMT-61" x="888.769531"/>
      <use xlink:href="#TimesNewRomanPSMT-74" x="933.154297"/>
      <use xlink:href="#TimesNewRomanPSMT-69" x="960.9375"/>
      <use xlink:href="#TimesNewRomanPSMT-6f" x="988.720703"/>
      <use xlink:href="#TimesNewRomanPSMT-6e" x="1038.720703"/>
     </g>
    </g>
   </g>
  </g>
 </g>
 <defs>
  <clipPath id="pc273da5064">
   <rect x="58.074219" y="25.69875" width="669.6" height="332.64"/>
  </clipPath>
 </defs>
</svg>
