<?xml version="1.0" encoding="utf-8" standalone="no"?>
<!DOCTYPE svg PUBLIC "-//W3C//DTD SVG 1.1//EN"
  "http://www.w3.org/Graphics/SVG/1.1/DTD/svg11.dtd">
<svg xmlns:xlink="http://www.w3.org/1999/xlink" width="723.624219pt" height="403.787187pt" viewBox="0 0 723.624219 403.787187" xmlns="http://www.w3.org/2000/svg" version="1.1">
 <metadata>
  <rdf:RDF xmlns:dc="http://purl.org/dc/elements/1.1/" xmlns:cc="http://creativecommons.org/ns#" xmlns:rdf="http://www.w3.org/1999/02/22-rdf-syntax-ns#">
   <cc:Work>
    <dc:type rdf:resource="http://purl.org/dc/dcmitype/StillImage"/>
    <dc:date>2023-10-17T13:57:43.936190</dc:date>
    <dc:format>image/svg+xml</dc:format>
    <dc:creator>
     <cc:Agent>
      <dc:title>Matplotlib v3.8.0, https://matplotlib.org/</dc:title>
     </cc:Agent>
    </dc:creator>
   </cc:Work>
  </rdf:RDF>
 </metadata>
 <defs>
  <style type="text/css">*{stroke-linejoin: round; stroke-linecap: butt}</style>
 </defs>
 <g id="figure_1">
  <g id="patch_1">
   <path d="M 0 403.787187 
L 723.624219 403.787187 
L 723.624219 0 
L 0 0 
z
" style="fill: #ffffff"/>
  </g>
  <g id="axes_1">
   <g id="patch_2">
    <path d="M 46.824219 358.33875 
L 716.424219 358.33875 
L 716.424219 25.69875 
L 46.824219 25.69875 
z
" style="fill: #ffffff"/>
   </g>
   <g id="matplotlib.axis_1">
    <g id="xtick_1">
     <g id="line2d_1">
      <defs>
       <path id="med601d53f6" d="M 0 0 
L 0 3.5 
" style="stroke: #000000; stroke-width: 0.8"/>
      </defs>
      <g>
       <use xlink:href="#med601d53f6" x="77.260582" y="358.33875" style="stroke: #000000; stroke-width: 0.8"/>
      </g>
     </g>
     <g id="text_1">
      <!-- 0 -->
      <g transform="translate(73.510582 375.754375) scale(0.15 -0.15)">
       <defs>
        <path id="TimesNewRomanPSMT-30" d="M 231 2094 
Q 231 2819 450 3342 
Q 669 3866 1031 4122 
Q 1313 4325 1613 4325 
Q 2100 4325 2488 3828 
Q 2972 3213 2972 2159 
Q 2972 1422 2759 906 
Q 2547 391 2217 158 
Q 1888 -75 1581 -75 
Q 975 -75 572 641 
Q 231 1244 231 2094 
z
M 844 2016 
Q 844 1141 1059 588 
Q 1238 122 1591 122 
Q 1759 122 1940 273 
Q 2122 425 2216 781 
Q 2359 1319 2359 2297 
Q 2359 3022 2209 3506 
Q 2097 3866 1919 4016 
Q 1791 4119 1609 4119 
Q 1397 4119 1231 3928 
Q 1006 3669 925 3112 
Q 844 2556 844 2016 
z
" transform="scale(0.015625)"/>
       </defs>
       <use xlink:href="#TimesNewRomanPSMT-30"/>
      </g>
     </g>
    </g>
    <g id="xtick_2">
     <g id="line2d_2">
      <g>
       <use xlink:href="#med601d53f6" x="206.782535" y="358.33875" style="stroke: #000000; stroke-width: 0.8"/>
      </g>
     </g>
     <g id="text_2">
      <!-- 5000 -->
      <g transform="translate(191.782535 375.754375) scale(0.15 -0.15)">
       <defs>
        <path id="TimesNewRomanPSMT-35" d="M 2778 4238 
L 2534 3706 
L 1259 3706 
L 981 3138 
Q 1809 3016 2294 2522 
Q 2709 2097 2709 1522 
Q 2709 1188 2573 903 
Q 2438 619 2231 419 
Q 2025 219 1772 97 
Q 1413 -75 1034 -75 
Q 653 -75 479 54 
Q 306 184 306 341 
Q 306 428 378 495 
Q 450 563 559 563 
Q 641 563 702 538 
Q 763 513 909 409 
Q 1144 247 1384 247 
Q 1750 247 2026 523 
Q 2303 800 2303 1197 
Q 2303 1581 2056 1914 
Q 1809 2247 1375 2428 
Q 1034 2569 447 2591 
L 1259 4238 
L 2778 4238 
z
" transform="scale(0.015625)"/>
       </defs>
       <use xlink:href="#TimesNewRomanPSMT-35"/>
       <use xlink:href="#TimesNewRomanPSMT-30" x="50"/>
       <use xlink:href="#TimesNewRomanPSMT-30" x="100"/>
       <use xlink:href="#TimesNewRomanPSMT-30" x="150"/>
      </g>
     </g>
    </g>
    <g id="xtick_3">
     <g id="line2d_3">
      <g>
       <use xlink:href="#med601d53f6" x="336.304488" y="358.33875" style="stroke: #000000; stroke-width: 0.8"/>
      </g>
     </g>
     <g id="text_3">
      <!-- 10000 -->
      <g transform="translate(317.554488 375.754375) scale(0.15 -0.15)">
       <defs>
        <path id="TimesNewRomanPSMT-31" d="M 750 3822 
L 1781 4325 
L 1884 4325 
L 1884 747 
Q 1884 391 1914 303 
Q 1944 216 2037 169 
Q 2131 122 2419 116 
L 2419 0 
L 825 0 
L 825 116 
Q 1125 122 1212 167 
Q 1300 213 1334 289 
Q 1369 366 1369 747 
L 1369 3034 
Q 1369 3497 1338 3628 
Q 1316 3728 1258 3775 
Q 1200 3822 1119 3822 
Q 1003 3822 797 3725 
L 750 3822 
z
" transform="scale(0.015625)"/>
       </defs>
       <use xlink:href="#TimesNewRomanPSMT-31"/>
       <use xlink:href="#TimesNewRomanPSMT-30" x="50"/>
       <use xlink:href="#TimesNewRomanPSMT-30" x="100"/>
       <use xlink:href="#TimesNewRomanPSMT-30" x="150"/>
       <use xlink:href="#TimesNewRomanPSMT-30" x="200"/>
      </g>
     </g>
    </g>
    <g id="xtick_4">
     <g id="line2d_4">
      <g>
       <use xlink:href="#med601d53f6" x="465.82644" y="358.33875" style="stroke: #000000; stroke-width: 0.8"/>
      </g>
     </g>
     <g id="text_4">
      <!-- 15000 -->
      <g transform="translate(447.07644 375.754375) scale(0.15 -0.15)">
       <use xlink:href="#TimesNewRomanPSMT-31"/>
       <use xlink:href="#TimesNewRomanPSMT-35" x="50"/>
       <use xlink:href="#TimesNewRomanPSMT-30" x="100"/>
       <use xlink:href="#TimesNewRomanPSMT-30" x="150"/>
       <use xlink:href="#TimesNewRomanPSMT-30" x="200"/>
      </g>
     </g>
    </g>
    <g id="xtick_5">
     <g id="line2d_5">
      <g>
       <use xlink:href="#med601d53f6" x="595.348393" y="358.33875" style="stroke: #000000; stroke-width: 0.8"/>
      </g>
     </g>
     <g id="text_5">
      <!-- 20000 -->
      <g transform="translate(576.598393 375.754375) scale(0.15 -0.15)">
       <defs>
        <path id="TimesNewRomanPSMT-32" d="M 2934 816 
L 2638 0 
L 138 0 
L 138 116 
Q 1241 1122 1691 1759 
Q 2141 2397 2141 2925 
Q 2141 3328 1894 3587 
Q 1647 3847 1303 3847 
Q 991 3847 742 3664 
Q 494 3481 375 3128 
L 259 3128 
Q 338 3706 661 4015 
Q 984 4325 1469 4325 
Q 1984 4325 2329 3994 
Q 2675 3663 2675 3213 
Q 2675 2891 2525 2569 
Q 2294 2063 1775 1497 
Q 997 647 803 472 
L 1909 472 
Q 2247 472 2383 497 
Q 2519 522 2628 598 
Q 2738 675 2819 816 
L 2934 816 
z
" transform="scale(0.015625)"/>
       </defs>
       <use xlink:href="#TimesNewRomanPSMT-32"/>
       <use xlink:href="#TimesNewRomanPSMT-30" x="50"/>
       <use xlink:href="#TimesNewRomanPSMT-30" x="100"/>
       <use xlink:href="#TimesNewRomanPSMT-30" x="150"/>
       <use xlink:href="#TimesNewRomanPSMT-30" x="200"/>
      </g>
     </g>
    </g>
    <g id="text_6">
     <!-- Iterations -->
     <g transform="translate(353.301172 393.378594) scale(0.15 -0.15)">
      <defs>
       <path id="TimesNewRomanPSMT-49" d="M 1975 116 
L 1975 0 
L 159 0 
L 159 116 
L 309 116 
Q 572 116 691 269 
Q 766 369 766 750 
L 766 3488 
Q 766 3809 725 3913 
Q 694 3991 597 4047 
Q 459 4122 309 4122 
L 159 4122 
L 159 4238 
L 1975 4238 
L 1975 4122 
L 1822 4122 
Q 1563 4122 1444 3969 
Q 1366 3869 1366 3488 
L 1366 750 
Q 1366 428 1406 325 
Q 1438 247 1538 191 
Q 1672 116 1822 116 
L 1975 116 
z
" transform="scale(0.015625)"/>
       <path id="TimesNewRomanPSMT-74" d="M 1031 3803 
L 1031 2863 
L 1700 2863 
L 1700 2644 
L 1031 2644 
L 1031 788 
Q 1031 509 1111 412 
Q 1191 316 1316 316 
Q 1419 316 1516 380 
Q 1613 444 1666 569 
L 1788 569 
Q 1678 263 1478 108 
Q 1278 -47 1066 -47 
Q 922 -47 784 33 
Q 647 113 581 261 
Q 516 409 516 719 
L 516 2644 
L 63 2644 
L 63 2747 
Q 234 2816 414 2980 
Q 594 3144 734 3369 
Q 806 3488 934 3803 
L 1031 3803 
z
" transform="scale(0.015625)"/>
       <path id="TimesNewRomanPSMT-65" d="M 681 1784 
Q 678 1147 991 784 
Q 1303 422 1725 422 
Q 2006 422 2214 576 
Q 2422 731 2563 1106 
L 2659 1044 
Q 2594 616 2278 264 
Q 1963 -88 1488 -88 
Q 972 -88 605 314 
Q 238 716 238 1394 
Q 238 2128 614 2539 
Q 991 2950 1559 2950 
Q 2041 2950 2350 2633 
Q 2659 2316 2659 1784 
L 681 1784 
z
M 681 1966 
L 2006 1966 
Q 1991 2241 1941 2353 
Q 1863 2528 1708 2628 
Q 1553 2728 1384 2728 
Q 1125 2728 920 2526 
Q 716 2325 681 1966 
z
" transform="scale(0.015625)"/>
       <path id="TimesNewRomanPSMT-72" d="M 1038 2947 
L 1038 2303 
Q 1397 2947 1775 2947 
Q 1947 2947 2059 2842 
Q 2172 2738 2172 2600 
Q 2172 2478 2090 2393 
Q 2009 2309 1897 2309 
Q 1788 2309 1652 2417 
Q 1516 2525 1450 2525 
Q 1394 2525 1328 2463 
Q 1188 2334 1038 2041 
L 1038 669 
Q 1038 431 1097 309 
Q 1138 225 1241 169 
Q 1344 113 1538 113 
L 1538 0 
L 72 0 
L 72 113 
Q 291 113 397 181 
Q 475 231 506 341 
Q 522 394 522 644 
L 522 1753 
Q 522 2253 501 2348 
Q 481 2444 426 2487 
Q 372 2531 291 2531 
Q 194 2531 72 2484 
L 41 2597 
L 906 2947 
L 1038 2947 
z
" transform="scale(0.015625)"/>
       <path id="TimesNewRomanPSMT-61" d="M 1822 413 
Q 1381 72 1269 19 
Q 1100 -59 909 -59 
Q 613 -59 420 144 
Q 228 347 228 678 
Q 228 888 322 1041 
Q 450 1253 767 1440 
Q 1084 1628 1822 1897 
L 1822 2009 
Q 1822 2438 1686 2597 
Q 1550 2756 1291 2756 
Q 1094 2756 978 2650 
Q 859 2544 859 2406 
L 866 2225 
Q 866 2081 792 2003 
Q 719 1925 600 1925 
Q 484 1925 411 2006 
Q 338 2088 338 2228 
Q 338 2497 613 2722 
Q 888 2947 1384 2947 
Q 1766 2947 2009 2819 
Q 2194 2722 2281 2516 
Q 2338 2381 2338 1966 
L 2338 994 
Q 2338 584 2353 492 
Q 2369 400 2405 369 
Q 2441 338 2488 338 
Q 2538 338 2575 359 
Q 2641 400 2828 588 
L 2828 413 
Q 2478 -56 2159 -56 
Q 2006 -56 1915 50 
Q 1825 156 1822 413 
z
M 1822 616 
L 1822 1706 
Q 1350 1519 1213 1441 
Q 966 1303 859 1153 
Q 753 1003 753 825 
Q 753 600 887 451 
Q 1022 303 1197 303 
Q 1434 303 1822 616 
z
" transform="scale(0.015625)"/>
       <path id="TimesNewRomanPSMT-69" d="M 928 4444 
Q 1059 4444 1151 4351 
Q 1244 4259 1244 4128 
Q 1244 3997 1151 3903 
Q 1059 3809 928 3809 
Q 797 3809 703 3903 
Q 609 3997 609 4128 
Q 609 4259 701 4351 
Q 794 4444 928 4444 
z
M 1188 2947 
L 1188 647 
Q 1188 378 1227 289 
Q 1266 200 1342 156 
Q 1419 113 1622 113 
L 1622 0 
L 231 0 
L 231 113 
Q 441 113 512 153 
Q 584 194 626 287 
Q 669 381 669 647 
L 669 1750 
Q 669 2216 641 2353 
Q 619 2453 572 2492 
Q 525 2531 444 2531 
Q 356 2531 231 2484 
L 188 2597 
L 1050 2947 
L 1188 2947 
z
" transform="scale(0.015625)"/>
       <path id="TimesNewRomanPSMT-6f" d="M 1600 2947 
Q 2250 2947 2644 2453 
Q 2978 2031 2978 1484 
Q 2978 1100 2793 706 
Q 2609 313 2286 112 
Q 1963 -88 1566 -88 
Q 919 -88 538 428 
Q 216 863 216 1403 
Q 216 1797 411 2186 
Q 606 2575 925 2761 
Q 1244 2947 1600 2947 
z
M 1503 2744 
Q 1338 2744 1170 2645 
Q 1003 2547 900 2300 
Q 797 2053 797 1666 
Q 797 1041 1045 587 
Q 1294 134 1700 134 
Q 2003 134 2200 384 
Q 2397 634 2397 1244 
Q 2397 2006 2069 2444 
Q 1847 2744 1503 2744 
z
" transform="scale(0.015625)"/>
       <path id="TimesNewRomanPSMT-6e" d="M 1034 2341 
Q 1538 2947 1994 2947 
Q 2228 2947 2397 2830 
Q 2566 2713 2666 2444 
Q 2734 2256 2734 1869 
L 2734 647 
Q 2734 375 2778 278 
Q 2813 200 2889 156 
Q 2966 113 3172 113 
L 3172 0 
L 1756 0 
L 1756 113 
L 1816 113 
Q 2016 113 2095 173 
Q 2175 234 2206 353 
Q 2219 400 2219 647 
L 2219 1819 
Q 2219 2209 2117 2386 
Q 2016 2563 1775 2563 
Q 1403 2563 1034 2156 
L 1034 647 
Q 1034 356 1069 288 
Q 1113 197 1189 155 
Q 1266 113 1500 113 
L 1500 0 
L 84 0 
L 84 113 
L 147 113 
Q 366 113 442 223 
Q 519 334 519 647 
L 519 1709 
Q 519 2225 495 2337 
Q 472 2450 423 2490 
Q 375 2531 294 2531 
Q 206 2531 84 2484 
L 38 2597 
L 900 2947 
L 1034 2947 
L 1034 2341 
z
" transform="scale(0.015625)"/>
       <path id="TimesNewRomanPSMT-73" d="M 2050 2947 
L 2050 1972 
L 1947 1972 
Q 1828 2431 1642 2597 
Q 1456 2763 1169 2763 
Q 950 2763 815 2647 
Q 681 2531 681 2391 
Q 681 2216 781 2091 
Q 878 1963 1175 1819 
L 1631 1597 
Q 2266 1288 2266 781 
Q 2266 391 1970 151 
Q 1675 -88 1309 -88 
Q 1047 -88 709 6 
Q 606 38 541 38 
Q 469 38 428 -44 
L 325 -44 
L 325 978 
L 428 978 
Q 516 541 762 319 
Q 1009 97 1316 97 
Q 1531 97 1667 223 
Q 1803 350 1803 528 
Q 1803 744 1651 891 
Q 1500 1038 1047 1263 
Q 594 1488 453 1669 
Q 313 1847 313 2119 
Q 313 2472 555 2709 
Q 797 2947 1181 2947 
Q 1350 2947 1591 2875 
Q 1750 2828 1803 2828 
Q 1853 2828 1881 2850 
Q 1909 2872 1947 2947 
L 2050 2947 
z
" transform="scale(0.015625)"/>
      </defs>
      <use xlink:href="#TimesNewRomanPSMT-49"/>
      <use xlink:href="#TimesNewRomanPSMT-74" x="33.300781"/>
      <use xlink:href="#TimesNewRomanPSMT-65" x="61.083984"/>
      <use xlink:href="#TimesNewRomanPSMT-72" x="105.46875"/>
      <use xlink:href="#TimesNewRomanPSMT-61" x="138.769531"/>
      <use xlink:href="#TimesNewRomanPSMT-74" x="183.154297"/>
      <use xlink:href="#TimesNewRomanPSMT-69" x="210.9375"/>
      <use xlink:href="#TimesNewRomanPSMT-6f" x="238.720703"/>
      <use xlink:href="#TimesNewRomanPSMT-6e" x="288.720703"/>
      <use xlink:href="#TimesNewRomanPSMT-73" x="338.720703"/>
     </g>
    </g>
   </g>
   <g id="matplotlib.axis_2">
    <g id="ytick_1">
     <g id="line2d_6">
      <defs>
       <path id="m3d4787a180" d="M 0 0 
L -3.5 0 
" style="stroke: #000000; stroke-width: 0.8"/>
      </defs>
      <g>
       <use xlink:href="#m3d4787a180" x="46.824219" y="343.21875" style="stroke: #000000; stroke-width: 0.8"/>
      </g>
     </g>
     <g id="text_7">
      <!-- 0 -->
      <g transform="translate(32.324219 348.426562) scale(0.15 -0.15)">
       <use xlink:href="#TimesNewRomanPSMT-30"/>
      </g>
     </g>
    </g>
    <g id="ytick_2">
     <g id="line2d_7">
      <g>
       <use xlink:href="#m3d4787a180" x="46.824219" y="299.20349" style="stroke: #000000; stroke-width: 0.8"/>
      </g>
     </g>
     <g id="text_8">
      <!-- 5 -->
      <g transform="translate(32.324219 304.411302) scale(0.15 -0.15)">
       <use xlink:href="#TimesNewRomanPSMT-35"/>
      </g>
     </g>
    </g>
    <g id="ytick_3">
     <g id="line2d_8">
      <g>
       <use xlink:href="#m3d4787a180" x="46.824219" y="255.18823" style="stroke: #000000; stroke-width: 0.8"/>
      </g>
     </g>
     <g id="text_9">
      <!-- 10 -->
      <g transform="translate(24.824219 260.396042) scale(0.15 -0.15)">
       <use xlink:href="#TimesNewRomanPSMT-31"/>
       <use xlink:href="#TimesNewRomanPSMT-30" x="50"/>
      </g>
     </g>
    </g>
    <g id="ytick_4">
     <g id="line2d_9">
      <g>
       <use xlink:href="#m3d4787a180" x="46.824219" y="211.17297" style="stroke: #000000; stroke-width: 0.8"/>
      </g>
     </g>
     <g id="text_10">
      <!-- 15 -->
      <g transform="translate(24.824219 216.380782) scale(0.15 -0.15)">
       <use xlink:href="#TimesNewRomanPSMT-31"/>
       <use xlink:href="#TimesNewRomanPSMT-35" x="50"/>
      </g>
     </g>
    </g>
    <g id="ytick_5">
     <g id="line2d_10">
      <g>
       <use xlink:href="#m3d4787a180" x="46.824219" y="167.15771" style="stroke: #000000; stroke-width: 0.8"/>
      </g>
     </g>
     <g id="text_11">
      <!-- 20 -->
      <g transform="translate(24.824219 172.365522) scale(0.15 -0.15)">
       <use xlink:href="#TimesNewRomanPSMT-32"/>
       <use xlink:href="#TimesNewRomanPSMT-30" x="50"/>
      </g>
     </g>
    </g>
    <g id="ytick_6">
     <g id="line2d_11">
      <g>
       <use xlink:href="#m3d4787a180" x="46.824219" y="123.14245" style="stroke: #000000; stroke-width: 0.8"/>
      </g>
     </g>
     <g id="text_12">
      <!-- 25 -->
      <g transform="translate(24.824219 128.350262) scale(0.15 -0.15)">
       <use xlink:href="#TimesNewRomanPSMT-32"/>
       <use xlink:href="#TimesNewRomanPSMT-35" x="50"/>
      </g>
     </g>
    </g>
    <g id="ytick_7">
     <g id="line2d_12">
      <g>
       <use xlink:href="#m3d4787a180" x="46.824219" y="79.127189" style="stroke: #000000; stroke-width: 0.8"/>
      </g>
     </g>
     <g id="text_13">
      <!-- 30 -->
      <g transform="translate(24.824219 84.335002) scale(0.15 -0.15)">
       <defs>
        <path id="TimesNewRomanPSMT-33" d="M 325 3431 
Q 506 3859 782 4092 
Q 1059 4325 1472 4325 
Q 1981 4325 2253 3994 
Q 2459 3747 2459 3466 
Q 2459 3003 1878 2509 
Q 2269 2356 2469 2072 
Q 2669 1788 2669 1403 
Q 2669 853 2319 450 
Q 1863 -75 997 -75 
Q 569 -75 414 31 
Q 259 138 259 259 
Q 259 350 332 419 
Q 406 488 509 488 
Q 588 488 669 463 
Q 722 447 909 348 
Q 1097 250 1169 231 
Q 1284 197 1416 197 
Q 1734 197 1970 444 
Q 2206 691 2206 1028 
Q 2206 1275 2097 1509 
Q 2016 1684 1919 1775 
Q 1784 1900 1550 2001 
Q 1316 2103 1072 2103 
L 972 2103 
L 972 2197 
Q 1219 2228 1467 2375 
Q 1716 2522 1828 2728 
Q 1941 2934 1941 3181 
Q 1941 3503 1739 3701 
Q 1538 3900 1238 3900 
Q 753 3900 428 3381 
L 325 3431 
z
" transform="scale(0.015625)"/>
       </defs>
       <use xlink:href="#TimesNewRomanPSMT-33"/>
       <use xlink:href="#TimesNewRomanPSMT-30" x="50"/>
      </g>
     </g>
    </g>
    <g id="ytick_8">
     <g id="line2d_13">
      <g>
       <use xlink:href="#m3d4787a180" x="46.824219" y="35.111929" style="stroke: #000000; stroke-width: 0.8"/>
      </g>
     </g>
     <g id="text_14">
      <!-- 35 -->
      <g transform="translate(24.824219 40.319742) scale(0.15 -0.15)">
       <use xlink:href="#TimesNewRomanPSMT-33"/>
       <use xlink:href="#TimesNewRomanPSMT-35" x="50"/>
      </g>
     </g>
    </g>
    <g id="text_15">
     <!-- s1, s2 -->
     <g transform="translate(17.615625 209.107031) rotate(-90) scale(0.15 -0.15)">
      <defs>
       <path id="TimesNewRomanPSMT-2c" d="M 344 -1066 
L 344 -928 
Q 666 -822 842 -598 
Q 1019 -375 1019 -125 
Q 1019 -66 991 -25 
Q 969 3 947 3 
Q 913 3 797 -59 
Q 741 -88 678 -88 
Q 525 -88 434 3 
Q 344 94 344 253 
Q 344 406 461 515 
Q 578 625 747 625 
Q 953 625 1114 445 
Q 1275 266 1275 -31 
Q 1275 -353 1051 -629 
Q 828 -906 344 -1066 
z
" transform="scale(0.015625)"/>
       <path id="TimesNewRomanPSMT-20" transform="scale(0.015625)"/>
      </defs>
      <use xlink:href="#TimesNewRomanPSMT-73"/>
      <use xlink:href="#TimesNewRomanPSMT-31" x="38.916016"/>
      <use xlink:href="#TimesNewRomanPSMT-2c" x="88.916016"/>
      <use xlink:href="#TimesNewRomanPSMT-20" x="113.916016"/>
      <use xlink:href="#TimesNewRomanPSMT-73" x="138.916016"/>
      <use xlink:href="#TimesNewRomanPSMT-32" x="177.832031"/>
     </g>
    </g>
   </g>
   <g id="line2d_14">
    <path d="M 77.260582 343.21875 
L 77.390104 118.479007 
L 77.519626 132.684864 
L 77.441913 118.366057 
L 77.545531 122.714812 
L 77.752766 76.503619 
L 77.985905 50.451825 
L 78.141332 41.242463 
L 78.167236 40.81875 
L 78.19314 41.579142 
L 78.84075 78.333576 
L 78.944368 77.545729 
L 78.970272 77.260274 
L 78.996177 78.18496 
L 79.022081 78.737278 
L 79.07389 78.337773 
L 79.099794 77.919382 
L 79.125699 78.736864 
L 79.307029 85.839405 
L 79.358838 86.641439 
L 79.410647 86.115121 
L 79.643786 89.025868 
L 79.747404 88.561658 
L 79.980543 79.30553 
L 80.084161 81.153397 
L 80.110065 81.184996 
L 80.55044 88.163701 
L 80.576344 88.086537 
L 80.654058 88.970008 
L 80.679962 89.571552 
L 80.731771 89.20818 
L 80.835388 87.929619 
L 80.887197 88.246686 
L 80.913101 88.309384 
L 80.939006 88.222779 
L 81.016719 87.130153 
L 81.068528 87.826941 
L 81.120337 87.572521 
L 81.275763 88.931664 
L 81.405285 87.1737 
L 81.457094 87.511486 
L 81.482998 86.947822 
L 81.638424 86.287218 
L 81.767946 87.029339 
L 81.793851 86.330769 
L 81.871564 86.835475 
L 81.949277 85.834095 
L 82.052895 86.280469 
L 82.156512 86.601554 
L 82.44146 82.669148 
L 82.519174 82.414217 
L 82.622791 83.562995 
L 82.6746 83.396743 
L 82.700504 83.487556 
L 82.855931 84.372226 
L 82.881835 84.032191 
L 82.959548 84.457878 
L 82.985453 84.712098 
L 83.011357 84.42037 
L 83.037261 84.440902 
L 83.08907 84.1357 
L 83.114975 84.637877 
L 83.140879 84.55892 
L 83.166783 84.641354 
L 83.192688 84.942956 
L 83.270401 84.848872 
L 83.503541 83.655855 
L 83.529445 83.981521 
L 83.581254 83.85676 
L 83.710776 84.44517 
L 83.762584 84.062285 
L 83.814393 84.411156 
L 83.840298 84.352276 
L 83.866202 84.558222 
L 84.047533 85.234555 
L 84.073437 85.2213 
L 84.202959 84.826438 
L 84.306577 84.072872 
L 84.332481 84.137716 
L 84.487907 83.68156 
L 84.539716 84.405045 
L 84.617429 83.935897 
L 84.643334 83.909475 
L 84.669238 83.989876 
L 84.695142 83.99301 
L 84.746951 84.114857 
L 84.772856 84.069189 
L 84.79876 83.934405 
L 84.850569 84.165619 
L 85.0319 84.676188 
L 84.928282 84.127751 
L 85.057804 84.607579 
L 85.135517 84.416362 
L 85.161421 84.474326 
L 85.265039 85.080546 
L 85.316848 84.956818 
L 85.342752 84.773937 
L 85.394561 85.052097 
L 85.679509 86.669372 
L 85.757222 86.417217 
L 85.809031 86.455431 
L 85.990362 85.692011 
L 86.119884 86.644286 
L 86.145788 86.510405 
L 86.301215 85.865937 
L 86.353023 86.241322 
L 86.534354 87.103155 
L 86.612067 87.006271 
L 86.637972 86.896898 
L 86.689781 87.112815 
L 86.871111 87.635037 
L 86.897016 87.503199 
L 86.974729 87.03525 
L 87.026538 87.141973 
L 87.104251 87.060996 
L 87.181964 87.567297 
L 87.415103 87.765208 
L 87.596434 86.848422 
L 87.700052 87.222128 
L 87.725956 87.042128 
L 87.777765 86.853909 
L 87.829574 87.057613 
L 87.881382 87.017605 
L 87.907287 87.101405 
L 88.010904 87.285979 
L 88.036809 87.216115 
L 88.062713 87.234495 
L 88.21814 88.089545 
L 88.269948 88.021659 
L 88.295853 88.20968 
L 88.321757 88.029753 
L 88.373566 88.388569 
L 88.425375 88.269902 
L 88.658514 87.296895 
L 88.736227 87.233802 
L 88.865749 87.586869 
L 88.917558 87.60677 
L 88.995271 87.166102 
L 89.072984 87.260414 
L 89.254315 86.338223 
L 89.306124 86.406804 
L 89.332028 86.532933 
L 89.357933 86.253796 
L 89.591072 85.134607 
L 89.642881 85.16085 
L 89.824212 85.774814 
L 90.264586 84.509963 
L 90.290491 84.541774 
L 90.471822 85.354991 
L 90.575439 85.570122 
L 90.704961 85.968966 
L 90.75677 85.507383 
L 90.808579 85.861724 
L 90.938101 86.032644 
L 91.093527 86.448449 
L 91.248953 86.205272 
L 91.430284 86.351434 
L 91.456188 86.407375 
L 91.482093 86.335003 
L 91.974276 83.955574 
L 92.000181 84.002611 
L 92.103798 84.06821 
L 92.259224 83.649372 
L 92.388746 83.720356 
L 92.595982 84.006275 
L 92.725504 83.636265 
L 93.114069 84.455257 
L 93.139974 84.366894 
L 93.165878 84.308567 
L 93.191783 84.346576 
L 93.347209 84.841051 
L 93.450826 84.647511 
L 93.476731 84.680911 
L 93.52854 84.864422 
L 93.580348 84.716381 
L 93.632157 84.682735 
L 93.787584 85.079077 
L 94.124341 83.353162 
L 94.331576 82.101191 
L 94.461098 82.325396 
L 94.512906 82.2676 
L 94.538811 82.22377 
L 94.564715 82.332129 
L 94.59062 82.320725 
L 94.694237 82.472814 
L 94.720142 82.406648 
L 95.00509 81.439005 
L 95.030994 81.484429 
L 95.056899 81.341343 
L 95.108707 81.265383 
L 95.238229 80.925345 
L 95.290038 80.972794 
L 95.341847 81.03662 
L 95.367751 81.118807 
L 95.445465 81.076629 
L 95.471369 81.042792 
L 95.497273 81.112365 
L 95.600891 81.500207 
L 95.626795 81.32257 
L 95.678604 81.421111 
L 95.704508 81.370162 
L 95.911744 80.774497 
L 96.015361 80.673821 
L 96.041266 80.728029 
L 96.093074 80.923704 
L 96.144883 80.784683 
L 96.196692 80.840657 
L 96.248501 80.826598 
L 96.429831 81.36793 
L 96.455736 81.253421 
L 96.740684 81.606689 
L 96.999728 80.835506 
L 97.051537 80.794056 
L 97.077441 80.885358 
L 97.181059 80.958304 
L 97.206963 80.935746 
L 97.258772 80.907829 
L 97.336485 80.677732 
L 97.388294 80.774199 
L 97.466007 80.988449 
L 97.54372 80.959525 
L 97.621433 80.852194 
L 97.647338 80.934157 
L 97.699147 81.099237 
L 97.750955 80.915865 
L 97.880477 80.659989 
L 97.932286 80.745252 
L 97.984095 80.967015 
L 98.113617 80.859529 
L 98.19133 80.663222 
L 98.217234 80.680735 
L 98.269043 80.85046 
L 98.346756 80.787139 
L 98.424469 81.070724 
L 98.502183 80.948221 
L 98.631705 80.83674 
L 98.83894 80.160143 
L 98.864844 80.207491 
L 98.916653 80.30824 
L 98.968462 80.170201 
L 99.046175 79.940049 
L 99.175697 79.470491 
L 99.25341 79.535102 
L 99.408836 80.007637 
L 99.460645 79.95377 
L 99.538358 80.065936 
L 99.693785 80.283657 
L 99.849211 79.98622 
L 99.875115 80.010675 
L 99.90102 79.984319 
L 99.952828 80.061719 
L 100.237777 80.195725 
L 100.289586 80.07092 
L 100.341394 80.141461 
L 100.367299 80.156244 
L 100.548629 80.587219 
L 100.574534 80.608009 
L 100.600438 80.55784 
L 100.72996 80.210404 
L 100.781769 80.306088 
L 100.885387 80.415472 
L 100.937195 80.286914 
L 101.092622 79.926407 
L 101.222144 79.977651 
L 101.325761 79.780734 
L 101.351666 79.789784 
L 101.455283 79.864325 
L 101.610709 79.656399 
L 101.662518 79.739374 
L 101.714327 79.66032 
L 101.895658 79.426796 
L 101.921562 79.515676 
L 101.973371 79.694522 
L 102.051084 79.646544 
L 102.465554 79.238865 
L 102.517363 79.264595 
L 102.543268 79.193812 
L 103.242686 78.126116 
L 103.294495 78.168886 
L 103.449921 78.36116 
L 103.760774 78.475027 
L 103.812583 78.550198 
L 103.838487 78.39123 
L 104.071627 78.335722 
L 104.304766 78.807844 
L 104.460192 78.917198 
L 104.693332 79.171336 
L 104.771045 79.003562 
L 104.822854 79.083369 
L 105.133707 79.004103 
L 105.263229 78.792773 
L 105.444559 79.089127 
L 106.04036 79.841069 
L 106.092169 79.792929 
L 106.143978 79.836279 
L 106.325309 80.185032 
L 106.377117 80.105581 
L 106.45483 79.975345 
L 106.532544 80.067893 
L 106.558448 80.101136 
L 106.584352 80.048516 
L 106.713874 79.869514 
L 106.843396 79.742017 
L 107.050631 79.47111 
L 107.076536 79.541502 
L 107.206058 79.537964 
L 107.413293 79.492433 
L 107.516911 79.458503 
L 107.75005 79.865419 
L 107.775954 79.796087 
L 107.905476 79.551018 
L 107.931381 79.633018 
L 108.112711 79.875819 
L 108.190425 79.937303 
L 108.216329 79.894621 
L 108.345851 79.885647 
L 108.553086 80.060694 
L 108.630799 79.888049 
L 108.708512 80.004203 
L 108.838034 80.122237 
L 108.863939 80.105306 
L 109.122983 79.730442 
L 109.278409 79.868983 
L 109.330218 79.849375 
L 109.356122 79.895396 
L 109.407931 80.076345 
L 109.45974 79.980897 
L 109.485644 79.96793 
L 109.563357 80.204478 
L 109.641071 80.185444 
L 109.692879 80.114161 
L 109.718784 80.062818 
L 109.770592 80.18447 
L 109.796497 80.11346 
L 109.926019 80.059473 
L 110.081445 79.841223 
L 110.677246 80.218438 
L 110.703151 80.176354 
L 110.754959 80.080212 
L 110.832672 79.93647 
L 110.884481 79.98471 
L 110.910386 80.038115 
L 110.962194 79.911436 
L 111.091716 79.87603 
L 111.376665 80.039629 
L 111.532091 80.126573 
L 111.687517 79.702156 
L 111.868848 79.299097 
L 112.076083 79.462863 
L 112.179701 79.328946 
L 112.23151 79.465366 
L 112.464649 79.709238 
L 112.542362 79.722396 
L 112.568267 79.784146 
L 112.64598 79.710899 
L 112.827311 79.839012 
L 112.853215 79.782091 
L 113.345398 79.753839 
L 113.552633 79.931576 
L 113.630347 79.767427 
L 113.70806 79.815537 
L 113.941199 79.866905 
L 114.070721 79.730436 
L 114.096626 79.74325 
L 114.200243 79.737647 
L 114.35567 79.412672 
L 114.407478 79.460272 
L 114.433383 79.533522 
L 114.485192 79.467183 
L 114.640618 79.298271 
L 114.666522 79.34707 
L 114.951471 79.684829 
L 115.391845 79.816012 
L 115.573176 80.056124 
L 115.676794 80.145015 
L 115.806315 80.285428 
L 115.83222 80.271937 
L 116.091264 79.918782 
L 116.117168 79.943429 
L 116.143073 80.000073 
L 116.194881 79.938268 
L 116.376212 79.799844 
L 116.428021 79.889488 
L 116.609352 80.113841 
L 116.790682 80.24444 
L 116.972013 80.281033 
L 117.049726 80.234599 
L 117.075631 80.321886 
L 117.30877 80.518352 
L 117.490101 80.703024 
L 117.593718 80.686684 
L 117.619623 80.762689 
L 117.697336 80.678164 
L 117.904571 80.70682 
L 118.137711 80.865614 
L 118.552181 80.637779 
L 118.578085 80.687673 
L 118.655798 80.637646 
L 118.837129 80.578953 
L 119.147982 80.831028 
L 119.173886 80.771221 
L 119.251599 80.856771 
L 119.562452 80.807952 
L 119.588356 80.751357 
L 119.66607 80.83108 
L 119.691974 80.818121 
L 119.717878 80.90383 
L 119.925114 80.962721 
L 120.961289 80.905829 
L 121.246237 81.066597 
L 121.375759 81.100319 
L 121.479377 81.207149 
L 121.505281 81.192422 
L 121.660708 81.233561 
L 121.997465 81.325925 
L 122.256509 81.140228 
L 122.411935 81.15845 
L 122.437839 81.112362 
L 122.515553 81.171058 
L 122.645075 81.232412 
L 122.800501 81.048836 
L 122.826405 81.083311 
L 122.981832 81.130743 
L 123.111354 81.238653 
L 123.189067 81.207203 
L 123.214971 81.257518 
L 123.396302 81.23895 
L 123.810772 80.579526 
L 123.91439 80.598441 
L 124.018007 80.707306 
L 124.043912 80.675233 
L 124.380669 80.635535 
L 124.406573 80.672843 
L 124.458382 80.595989 
L 124.924661 80.496849 
L 125.080087 80.613777 
L 125.105992 80.577463 
L 125.365036 80.128764 
L 125.520462 79.93672 
L 125.857219 80.190982 
L 125.883123 80.161663 
L 126.012645 80.152918 
L 126.375307 80.322208 
L 126.530733 80.265825 
L 126.634351 80.224851 
L 126.660255 80.262259 
L 126.789777 80.365024 
L 126.86749 80.354702 
L 126.893395 80.405571 
L 127.10063 80.589706 
L 127.152439 80.560163 
L 127.178343 80.59425 
L 127.28196 80.700602 
L 127.307865 80.671857 
L 127.385578 80.605209 
L 127.411482 80.70411 
L 127.74824 80.975345 
L 127.877761 81.000004 
L 128.292232 81.024864 
L 128.447658 81.009208 
L 128.57718 80.949686 
L 128.836224 80.796991 
L 128.99165 80.653772 
L 129.043459 80.704457 
L 129.095268 80.649731 
L 130.468201 80.562976 
L 130.545914 80.432052 
L 130.623627 80.522455 
L 130.779053 80.692972 
L 131.038097 80.511838 
L 131.478472 80.557326 
L 131.659802 80.414185 
L 131.76342 80.324852 
L 131.789324 80.353396 
L 132.022464 80.474493 
L 132.048368 80.412255 
L 132.17789 80.389251 
L 132.41103 80.471254 
L 132.566456 80.4854 
L 132.929118 80.760954 
L 133.084544 80.733628 
L 133.421301 80.744838 
L 133.628536 80.574931 
L 133.654441 80.607391 
L 134.068911 80.888308 
L 134.12072 80.917313 
L 134.146624 80.87467 
L 134.353859 80.73 
L 134.483381 80.779725 
L 134.638807 80.82341 
L 135.053278 81.09837 
L 135.36413 80.594264 
L 135.390035 80.606915 
L 135.493652 80.654014 
L 135.649079 80.779965 
L 135.674983 80.760556 
L 135.934027 80.657656 
L 136.193071 80.733016 
L 136.762967 80.34854 
L 136.892489 80.415923 
L 137.07382 80.440486 
L 137.462386 80.564212 
L 137.799143 80.464698 
L 138.084091 80.489496 
L 138.291326 80.339288 
L 138.990745 80.688762 
L 139.172076 80.672639 
L 139.664259 80.734614 
L 139.741972 80.784058 
L 139.793781 80.703165 
L 140.104634 80.46382 
L 140.26006 80.525994 
L 140.881765 80.306858 
L 141.140809 80.304254 
L 141.296236 80.339381 
L 141.943846 80.544186 
L 142.099272 80.480215 
L 142.202889 80.573967 
L 142.306507 80.584018 
L 142.332411 80.563327 
L 142.695073 80.786075 
L 143.472205 80.941626 
L 143.67944 80.895415 
L 143.834866 80.929283 
L 144.09391 80.618637 
L 144.119814 80.681096 
L 144.197527 80.610811 
L 144.404763 80.502962 
L 144.534285 80.532306 
L 144.611998 80.456935 
L 144.663807 80.481845 
L 144.871042 80.592664 
L 145.052372 80.494169 
L 145.415034 80.58096 
L 145.57046 80.593525 
L 146.839775 80.588969 
L 146.995202 80.714317 
L 147.487385 80.856564 
L 147.642811 80.925634 
L 148.083186 81.004796 
L 148.212708 80.997232 
L 148.782605 80.897189 
L 148.963935 80.911884 
L 149.041649 80.934878 
L 149.067553 80.881613 
L 149.40431 80.762895 
L 149.533832 80.834408 
L 149.559736 80.807614 
L 149.766971 80.804187 
L 150.026015 80.851478 
L 150.518199 80.869947 
L 150.673625 81.02464 
L 150.699529 81.005937 
L 150.854956 80.974633 
L 151.010382 81.095899 
L 151.52847 81.234756 
L 151.787514 81.188018 
L 151.994749 81.337562 
L 152.642359 81.455403 
L 152.771881 81.316048 
L 152.797785 81.329234 
L 152.953211 81.275437 
L 153.289969 80.951994 
L 153.445395 80.875683 
L 153.730343 80.800387 
L 153.88577 80.855358 
L 154.533379 80.627727 
L 155.232798 80.751628 
L 155.440033 80.781317 
L 155.595459 80.829119 
L 156.528017 81.093353 
L 156.657539 81.121908 
L 156.787061 81.152178 
L 157.07201 81.143156 
L 157.201532 81.122805 
L 157.460575 81.191739 
L 157.564193 81.205934 
L 157.745524 81.225761 
L 158.082281 81.203911 
L 158.833508 81.229374 
L 159.222074 81.448383 
L 159.3775 81.46537 
L 159.61064 81.593589 
L 160.724529 81.57461 
L 160.854051 81.501441 
L 160.879955 81.528 
L 161.009477 81.587847 
L 161.164903 81.644706 
L 161.50166 81.739932 
L 161.657087 81.707331 
L 161.993844 81.796227 
L 162.14927 81.829981 
L 163.237255 81.924948 
L 163.366776 81.935969 
L 163.522203 81.893208 
L 163.729438 81.771268 
L 164.843327 81.938503 
L 165.024657 81.986412 
L 165.33551 81.933662 
L 165.516841 81.977038 
L 165.698172 82.013745 
L 165.879502 82.002515 
L 166.604825 81.858702 
L 166.786156 81.760625 
L 167.433766 81.399923 
L 167.718714 81.491756 
L 167.848236 81.49075 
L 168.236802 81.596149 
L 168.677177 81.494238 
L 169.402499 81.47846 
L 169.894683 81.620703 
L 170.464579 81.772081 
L 170.64591 81.786896 
L 172.588739 82.221864 
L 172.744166 82.314038 
L 172.77007 82.28669 
L 173.132732 82.283423 
L 174.091194 81.90778 
L 174.272525 81.851493 
L 174.402047 81.810716 
L 176.888868 82.018905 
L 177.173817 82.134569 
L 177.510574 82.211965 
L 177.769618 82.142273 
L 178.417227 81.968284 
L 178.520845 81.93989 
L 179.427499 81.613138 
L 179.557021 81.570514 
L 179.712447 81.557207 
L 179.893778 81.564765 
L 180.075108 81.559102 
L 180.282343 81.59146 
L 180.515483 81.713424 
L 180.826336 81.717835 
L 180.955858 81.722362 
L 182.32879 81.170789 
L 182.665547 81.203719 
L 183.002304 81.303774 
L 183.235444 81.395833 
L 184.660185 81.624482 
L 184.815612 81.658326 
L 185.048751 81.69647 
L 185.230082 81.75263 
L 185.359604 81.698299 
L 185.540935 81.628006 
L 186.033118 81.43965 
L 186.292162 81.417902 
L 186.603015 81.513534 
L 186.965676 81.587503 
L 187.22472 81.646026 
L 187.587382 81.592896 
L 187.768712 81.618495 
L 187.924139 81.644268 
L 188.234991 81.660875 
L 188.778984 81.598633 
L 189.219358 81.732666 
L 189.400689 81.746881 
L 189.711542 81.812374 
L 189.892872 81.886413 
L 190.074203 81.958613 
L 191.602562 82.047065 
L 191.809797 82.112212 
L 192.042937 82.107375 
L 193.545391 82.168027 
L 194.037575 82.309169 
L 195.047846 82.120561 
L 195.30689 82.144722 
L 196.472588 82.239038 
L 196.653918 82.234643 
L 197.379241 82.384212 
L 198.026851 82.425538 
L 198.234086 82.492737 
L 198.415417 82.504374 
L 199.114835 82.620373 
L 199.425688 82.635263 
L 199.866063 82.715029 
L 200.254629 82.878462 
L 201.2649 82.739196 
L 201.394422 82.761328 
L 203.285442 82.95438 
L 203.492677 82.914391 
L 203.674008 82.914732 
L 204.088478 82.686235 
L 204.606566 82.591086 
L 204.813801 82.47065 
L 207.870519 82.760767 
L 208.207276 82.666528 
L 208.518129 82.725076 
L 208.69946 82.612756 
L 210.331436 82.428448 
L 211.004951 82.655647 
L 211.186281 82.606847 
L 213.388155 82.691747 
L 213.59539 82.798798 
L 213.750816 82.842787 
L 214.864705 82.96285 
L 215.097844 83.001321 
L 215.590028 82.981998 
L 215.849072 82.916878 
L 216.185829 82.745766 
L 216.678012 82.651881 
L 216.96296 82.637896 
L 217.1961 82.52962 
L 217.455144 82.541676 
L 217.636475 82.559073 
L 218.309989 82.601367 
L 219.32026 82.514903 
L 219.864252 82.621251 
L 220.1492 82.541355 
L 220.589575 82.591482 
L 221.314898 82.470155 
L 221.729368 82.430281 
L 221.962508 82.462888 
L 222.169743 82.447404 
L 222.661926 82.373037 
L 222.92097 82.346276 
L 223.076397 82.341405 
L 223.335441 82.327202 
L 225.407792 82.44485 
L 226.003593 82.307629 
L 226.392159 82.321285 
L 226.547585 82.32483 
L 227.091577 82.232725 
L 228.775363 82.600365 
L 229.008502 82.609445 
L 229.215737 82.57496 
L 229.474781 82.608039 
L 229.785634 82.53659 
L 230.096486 82.517603 
L 230.562765 82.420543 
L 232.06522 82.765419 
L 232.220646 82.761147 
L 233.386344 82.827927 
L 233.515866 82.860161 
L 234.033954 82.932231 
L 235.614122 82.753463 
L 235.795452 82.722192 
L 236.287636 82.673024 
L 237.634664 82.506702 
L 238.075039 82.582344 
L 238.359987 82.633023 
L 238.515413 82.650987 
L 238.696744 82.69474 
L 239.188927 82.705409 
L 240.173294 82.77932 
L 240.510051 82.783492 
L 240.769095 82.719583 
L 241.20947 82.664233 
L 241.546227 82.74451 
L 241.727558 82.752999 
L 241.908889 82.754311 
L 242.193837 82.713655 
L 242.815542 82.706593 
L 243.437248 82.709994 
L 243.696291 82.689104 
L 245.380077 82.768102 
L 245.924069 82.681835 
L 246.1054 82.669629 
L 246.390348 82.710538 
L 248.022325 82.793118 
L 248.64403 82.690848 
L 248.825361 82.707702 
L 249.110309 82.735817 
L 249.343449 82.754896 
L 249.602492 82.780227 
L 249.861536 82.763878 
L 250.327815 82.773964 
L 250.457337 82.741351 
L 251.079043 82.496613 
L 251.519417 82.588298 
L 254.550231 82.447993 
L 254.731562 82.480048 
L 254.964701 82.499919 
L 255.197841 82.457868 
L 255.482789 82.477869 
L 255.871355 82.559179 
L 256.441252 82.512756 
L 256.622582 82.518574 
L 256.985244 82.401448 
L 258.125037 82.379924 
L 258.539507 82.368607 
L 258.876264 82.429874 
L 260.275101 82.581012 
L 260.611858 82.478343 
L 261.311277 82.517154 
L 262.140217 82.657221 
L 262.399261 82.694575 
L 263.564959 82.751306 
L 264.108951 82.607985 
L 264.419804 82.636833 
L 265.093318 82.614573 
L 265.455979 82.632241 
L 266.129494 82.740166 
L 266.621677 82.78005 
L 267.217478 82.797214 
L 268.590411 82.885533 
L 268.978977 82.951972 
L 269.341638 82.922718 
L 269.782013 82.951235 
L 270.066961 82.918081 
L 270.351909 82.874648 
L 270.740475 82.842654 
L 271.284467 82.851391 
L 271.465798 82.849531 
L 271.621224 82.88159 
L 271.854364 82.910169 
L 272.424261 82.951956 
L 272.786922 82.932617 
L 273.693576 82.954015 
L 274.159855 83.010205 
L 274.574325 83.00224 
L 274.885178 83.026592 
L 277.32019 83.019683 
L 277.527425 83.038713 
L 283.485435 83.001243 
L 283.951714 83.111538 
L 284.236663 83.118255 
L 284.495707 83.163045 
L 285.246934 83.154532 
L 290.919995 82.744521 
L 291.230848 82.81657 
L 291.59351 82.767297 
L 292.603781 82.701299 
L 294.235757 82.721038 
L 294.702036 82.798798 
L 295.375551 82.857584 
L 295.815925 82.830866 
L 296.282204 82.808107 
L 297.266571 82.825292 
L 297.551519 82.808378 
L 298.458173 82.799898 
L 298.872643 82.808222 
L 299.494349 82.781964 
L 299.727488 82.755172 
L 301.773935 82.793561 
L 302.62878 82.741089 
L 302.991441 82.727867 
L 303.561338 82.683538 
L 304.10533 82.684772 
L 305.659594 82.687474 
L 307.472901 82.767964 
L 307.731945 82.774275 
L 319.026259 83.058184 
L 319.311207 83.014277 
L 319.829295 82.891991 
L 320.062435 82.903967 
L 320.658236 82.903224 
L 320.91728 82.891468 
L 321.09861 82.900798 
L 321.823933 82.954482 
L 322.704683 82.869337 
L 323.274579 82.93885 
L 325.761401 82.904057 
L 326.098158 82.909991 
L 329.077163 82.916754 
L 329.517537 82.879018 
L 330.476 82.917963 
L 332.263403 82.782308 
L 333.092343 82.751017 
L 333.714048 82.784425 
L 335.941826 82.681714 
L 337.055715 82.699595 
L 337.781038 82.647602 
L 338.195508 82.609192 
L 340.060624 82.65191 
L 343.454099 82.678965 
L 343.998092 82.689723 
L 344.360753 82.621847 
L 345.267407 82.663456 
L 345.837303 82.683938 
L 346.096347 82.665428 
L 346.355391 82.621038 
L 346.743957 82.612501 
L 347.495184 82.561268 
L 348.375934 82.589648 
L 348.738595 82.596896 
L 348.94583 82.578409 
L 349.256683 82.543942 
L 349.722962 82.523936 
L 350.059719 82.522007 
L 350.448285 82.504403 
L 350.759137 82.477925 
L 351.277225 82.47872 
L 351.769409 82.532994 
L 352.77968 82.641508 
L 353.893569 82.524656 
L 354.852031 82.433726 
L 355.085171 82.413112 
L 355.292406 82.405651 
L 355.810494 82.447016 
L 362.908297 82.415773 
L 363.167341 82.397278 
L 364.333038 82.45689 
L 364.799317 82.393307 
L 365.861397 82.417818 
L 366.198154 82.419096 
L 366.405389 82.395688 
L 366.768051 82.410396 
L 367.519278 82.435168 
L 367.804226 82.417206 
L 368.814498 82.437852 
L 380.575091 82.602486 
L 380.937752 82.537799 
L 381.300414 82.601955 
L 381.922119 82.617278 
L 382.388398 82.615866 
L 383.061912 82.624318 
L 383.502287 82.625271 
L 386.325866 82.600846 
L 386.895762 82.589029 
L 387.154806 82.581523 
L 387.776511 82.612599 
L 388.605452 82.689485 
L 391.169987 82.764742 
L 392.439302 82.783793 
L 392.776059 82.731429 
L 393.13872 82.674418 
L 393.501382 82.637931 
L 393.78633 82.644986 
L 395.185167 82.649979 
L 395.651446 82.673895 
L 398.552738 82.613688 
L 399.226252 82.635264 
L 399.873862 82.698864 
L 400.210619 82.672191 
L 401.065464 82.659309 
L 401.661265 82.57846 
L 403.241433 82.567028 
L 403.629998 82.57693 
L 405.080644 82.656573 
L 406.194533 82.603188 
L 406.790334 82.631709 
L 412.4893 82.573501 
L 412.826057 82.580216 
L 413.577284 82.653003 
L 414.017659 82.676827 
L 416.141819 82.635658 
L 416.556289 82.623784 
L 417.100282 82.634739 
L 417.618369 82.620092 
L 417.981031 82.582101 
L 419.353964 82.551182 
L 419.742529 82.595646 
L 442.486584 82.681513 
L 442.849246 82.65405 
L 443.496855 82.701172 
L 446.553574 82.798335 
L 446.993948 82.806251 
L 449.532578 82.878694 
L 450.024762 82.81851 
L 451.579025 82.842245 
L 460.878702 83.047668 
L 461.57812 83.068503 
L 462.018495 83.109558 
L 463.70228 83.115723 
L 463.883611 83.12124 
L 465.904153 83.052433 
L 466.318624 83.022156 
L 467.043946 83.055799 
L 467.665652 83.098755 
L 468.390975 83.10143 
L 468.857254 83.125038 
L 469.556672 83.14805 
L 470.359708 83.115633 
L 471.007318 83.136516 
L 471.78445 83.079464 
L 472.224825 83.075593 
L 473.882706 83.08122 
L 474.348985 83.100369 
L 476.110483 83.046323 
L 477.794269 82.98298 
L 478.286452 83.00957 
L 478.856349 83.064456 
L 481.187744 83.108588 
L 481.524501 83.106654 
L 481.964875 83.099515 
L 482.63839 83.125654 
L 484.581219 83.141235 
L 485.902343 83.163018 
L 495.124306 83.264974 
L 495.771916 83.30293 
L 497.352083 83.287125 
L 498.077406 83.293382 
L 499.009964 83.300107 
L 499.553957 83.300156 
L 500.46061 83.337645 
L 501.367264 83.319566 
L 505.071592 83.346496 
L 506.729473 83.314258 
L 509.009059 83.293317 
L 509.915713 83.213288 
L 510.925984 83.209077 
L 512.946526 83.127877 
L 513.386901 83.130041 
L 514.656216 83.170833 
L 514.992973 83.126748 
L 515.925531 83.094473 
L 516.365906 83.078157 
L 523.670944 83.297767 
L 524.499885 83.372894 
L 527.349368 83.447186 
L 527.945169 83.432312 
L 528.670492 83.413782 
L 529.318101 83.407204 
L 529.758476 83.405022 
L 530.276564 83.429211 
L 531.001887 83.433459 
L 533.462804 83.427004 
L 533.929083 83.429461 
L 537.503889 83.466859 
L 537.970168 83.473725 
L 538.565969 83.47504 
L 539.239483 83.431187 
L 543.047428 83.327936 
L 543.41009 83.31693 
L 547.528888 83.260374 
L 548.07288 83.273836 
L 551.440451 83.243443 
L 552.580244 83.196664 
L 559.962995 83.120037 
L 560.843745 83.150656 
L 562.190773 83.141348 
L 562.449817 83.148221 
L 563.071522 83.168879 
L 563.667323 83.140153 
L 564.444455 83.148336 
L 565.351108 83.15262 
L 566.801754 83.156855 
L 567.345747 83.139204 
L 568.174687 83.144791 
L 587.965641 83.43083 
L 589.830758 83.383113 
L 590.581985 83.334162 
L 591.695874 83.342553 
L 592.550719 83.403768 
L 597.135796 83.546214 
L 597.80931 83.591654 
L 600.140705 83.614652 
L 600.76241 83.631008 
L 601.176881 83.645053 
L 603.974555 83.650218 
L 607.031273 83.674861 
L 607.756596 83.644315 
L 608.84458 83.642711 
L 609.362668 83.653006 
L 610.735601 83.756142 
L 624.568545 83.629142 
L 625.060729 83.62491 
L 626.796323 83.672376 
L 627.184889 83.64968 
L 628.790961 83.596166 
L 629.438571 83.574231 
L 632.02901 83.529035 
L 632.44348 83.511418 
L 633.401942 83.499824 
L 633.997743 83.512632 
L 634.852588 83.497339 
L 635.836955 83.527385 
L 638.790056 83.546522 
L 640.603363 83.580596 
L 641.613634 83.590482 
L 644.851683 83.606563 
L 645.758337 83.579209 
L 646.846321 83.609991 
L 648.063827 83.600722 
L 649.229525 83.600838 
L 649.980752 83.609785 
L 652.985662 83.571787 
L 654.798969 83.618536 
L 660.601552 83.575267 
L 662.285338 83.639087 
L 665.108916 83.697972 
L 666.01557 83.698329 
L 667.440312 83.751813 
L 685.987855 83.599586 
L 685.987855 83.599586 
" clip-path="url(#p8c52e49a97)" style="fill: none; stroke: #0000ff; stroke-width: 1.5; stroke-linecap: square"/>
   </g>
   <g id="line2d_15">
    <path d="M 77.260582 343.21875 
L 77.286487 123.14245 
L 77.390104 140.621439 
L 77.649148 199.653928 
L 77.700957 195.190033 
L 77.726861 199.164599 
L 77.985905 220.264054 
L 78.659419 181.247993 
L 78.685324 183.147251 
L 78.711228 184.269683 
L 78.788941 183.242226 
L 78.892559 181.557917 
L 78.918463 182.151426 
L 78.944368 182.397362 
L 78.970272 181.747228 
L 79.022081 179.249543 
L 79.099794 175.667027 
L 79.151603 176.386156 
L 79.307029 180.571662 
L 79.332934 180.42204 
L 79.721499 171.399978 
L 79.799213 171.269915 
L 79.851021 172.918066 
L 79.90283 173.032445 
L 79.980543 172.364305 
L 80.110065 170.870507 
L 80.13597 171.419679 
L 80.213683 172.772561 
L 80.291396 172.638411 
L 80.835388 167.71541 
L 80.861293 167.9809 
L 80.96491 168.799823 
L 81.042623 167.452981 
L 81.068528 168.192141 
L 81.094432 168.579491 
L 81.120337 167.907038 
L 81.19805 168.541463 
L 81.301667 167.944465 
L 81.275763 168.554592 
L 81.327572 167.985644 
L 81.353476 167.874093 
L 81.586616 171.036856 
L 81.664329 171.746742 
L 81.690233 171.683576 
L 81.819755 170.328534 
L 81.84566 170.568914 
L 81.897468 170.04459 
L 82.182417 168.124933 
L 82.208321 168.28147 
L 82.415556 169.448589 
L 82.44146 169.318977 
L 82.519174 168.279578 
L 82.596887 168.431825 
L 82.622791 168.533763 
L 82.648696 168.310902 
L 82.6746 167.971467 
L 82.726409 168.670176 
L 82.778218 168.654441 
L 82.855931 168.902845 
L 83.011357 166.94793 
L 83.037261 167.056821 
L 83.08907 166.40047 
L 83.140879 166.922207 
L 83.166783 166.962451 
L 83.32221 168.256094 
L 83.374019 167.998086 
L 83.399923 168.297742 
L 83.451732 168.941428 
L 83.633062 170.372755 
L 83.73668 169.578761 
L 83.762584 169.673685 
L 83.840298 170.230303 
L 83.943915 170.075879 
L 84.099341 169.123758 
L 84.332481 170.537115 
L 84.410194 170.80043 
L 84.462003 170.607504 
L 84.695142 169.536576 
L 84.721047 169.657071 
L 84.79876 169.518122 
L 84.824664 169.591654 
L 84.850569 169.47925 
L 85.368657 167.081867 
L 85.394561 167.153258 
L 85.420465 167.295942 
L 85.44637 167.090972 
L 85.472274 167.138358 
L 85.731318 166.637878 
L 85.938553 166.016005 
L 85.990362 166.117937 
L 86.09398 167.20683 
L 86.145788 166.914765 
L 86.301215 166.305764 
L 86.327119 166.333468 
L 86.353023 166.375875 
L 86.378928 166.27954 
L 86.845207 164.990958 
L 86.871111 165.087108 
L 86.897016 164.869403 
L 86.92292 164.880586 
L 86.974729 164.695401 
L 87.000633 164.785863 
L 87.052442 165.339923 
L 87.130155 165.055523 
L 87.285582 164.462002 
L 87.389199 164.014619 
L 87.441008 164.032533 
L 87.492817 164.114279 
L 87.648243 164.831998 
L 87.674147 164.815426 
L 87.725956 164.636357 
L 87.803669 164.17394 
L 87.829574 164.489752 
L 87.933191 164.744903 
L 87.985 164.630406 
L 88.114522 164.170863 
L 88.140426 164.191937 
L 88.21814 164.329452 
L 88.244044 164.27912 
L 88.321757 163.963976 
L 88.347662 164.228029 
L 88.373566 164.452881 
L 88.425375 164.220251 
L 88.580801 163.769634 
L 88.684419 164.253999 
L 88.788036 164.221562 
L 89.021176 163.476139 
L 89.098889 163.512595 
L 89.124793 163.547247 
L 89.150698 163.449126 
L 89.202506 163.54165 
L 89.228411 163.419737 
L 89.357933 162.650912 
L 89.409742 162.766641 
L 89.513359 163.123566 
L 89.539263 163.083499 
L 89.668785 162.519225 
L 89.69469 162.525965 
L 89.746499 162.427204 
L 89.953734 161.653874 
L 90.10916 162.441676 
L 90.160969 162.322777 
L 90.264586 161.955288 
L 90.290491 161.977162 
L 90.420013 162.21437 
L 90.601344 162.609709 
L 90.679057 162.563405 
L 90.730865 162.17228 
L 90.938101 161.656615 
L 91.015814 161.713864 
L 91.041718 161.672187 
L 91.197144 161.384377 
L 91.248953 161.523151 
L 91.274858 161.542087 
L 91.40438 161.050611 
L 91.430284 161.126658 
L 91.533902 161.39919 
L 91.559806 161.364394 
L 91.611615 161.351685 
L 91.81885 162.210956 
L 91.974276 161.992001 
L 92.155607 162.420474 
L 92.181511 162.355436 
L 92.207416 162.534938 
L 92.285129 162.590872 
L 92.259224 162.460139 
L 92.311033 162.507555 
L 92.388746 162.619748 
L 92.440555 162.493212 
L 92.492364 162.217982 
L 92.570077 162.327537 
L 92.595982 162.48626 
L 92.621886 162.249059 
L 92.64779 162.329119 
L 92.829121 161.992034 
L 92.906834 161.81137 
L 92.958643 161.973938 
L 93.114069 162.552842 
L 93.399018 163.272011 
L 93.424922 163.156353 
L 93.476731 162.987612 
L 93.52854 163.183654 
L 93.683966 163.411002 
L 93.735775 163.178982 
L 93.813488 163.207284 
L 94.35748 165.490403 
L 94.746046 164.502189 
L 94.797855 164.794988 
L 94.927377 165.080057 
L 95.030994 165.088582 
L 95.160516 164.506915 
L 95.186421 164.557478 
L 95.238229 164.432682 
L 95.290038 164.573832 
L 95.367751 165.005972 
L 95.445465 164.919402 
L 95.471369 164.886574 
L 95.497273 164.949421 
L 95.523178 165.007177 
L 95.549082 164.91482 
L 95.600891 164.911602 
L 95.730413 164.523563 
L 95.756317 164.580446 
L 95.782222 164.55237 
L 95.808126 164.677642 
L 96.015361 165.599514 
L 96.041266 165.561728 
L 96.06717 165.480027 
L 96.093074 165.587236 
L 96.118979 165.521348 
L 96.144883 165.610071 
L 96.196692 165.568489 
L 96.378023 165.232386 
L 96.507545 165.296378 
L 96.637066 165.064335 
L 96.662971 165.141017 
L 96.870206 165.775974 
L 96.947919 166.106011 
L 96.999728 165.973302 
L 97.155154 165.751368 
L 97.362389 166.108559 
L 97.569625 165.383537 
L 97.621433 165.228919 
L 97.673242 165.378461 
L 97.699147 165.489347 
L 97.750955 165.37586 
L 97.880477 164.978235 
L 97.932286 165.026202 
L 97.95819 164.996128 
L 97.984095 165.113721 
L 98.009999 165.10351 
L 98.113617 165.063188 
L 98.139521 165.031846 
L 98.165426 165.089986 
L 98.243139 165.34656 
L 98.269043 165.25416 
L 98.398565 164.817715 
L 98.424469 164.903725 
L 98.528087 164.75184 
L 98.579896 164.608802 
L 98.6058 164.67425 
L 99.046175 166.319725 
L 99.097984 166.453002 
L 99.123888 166.386274 
L 99.149792 166.495596 
L 99.227506 166.431834 
L 99.305219 166.415075 
L 99.486549 166.047846 
L 99.512454 166.072384 
L 99.564263 166.016445 
L 99.926924 165.771178 
L 100.341394 166.116646 
L 100.470916 165.919781 
L 100.522725 166.032131 
L 100.652247 166.326275 
L 100.678151 166.228979 
L 100.9631 165.665847 
L 100.989004 165.744049 
L 101.14443 165.807661 
L 101.170335 165.764728 
L 101.196239 165.874135 
L 101.222144 166.035502 
L 101.299857 166.012974 
L 101.532996 165.54553 
L 101.714327 166.002632 
L 101.79204 165.849409 
L 101.895658 165.653936 
L 101.921562 165.711758 
L 101.973371 165.830178 
L 102.02518 165.70005 
L 102.284224 166.041636 
L 102.336032 166.014957 
L 102.361937 166.047192 
L 102.672789 166.515824 
L 102.698694 166.451422 
L 102.750503 166.515707 
L 102.828216 166.712 
L 102.880025 166.606057 
L 103.113164 166.941907 
L 103.26859 167.056667 
L 103.398112 166.821407 
L 103.424017 166.845234 
L 103.475826 166.858715 
L 103.657156 166.44573 
L 103.864391 165.968689 
L 103.942105 166.110677 
L 104.045722 166.02703 
L 104.175244 165.847101 
L 104.201149 165.911001 
L 104.227053 165.810244 
L 104.278862 165.823777 
L 104.408384 166.060403 
L 104.434288 165.881187 
L 104.537906 165.805003 
L 104.771045 165.400201 
L 105.004185 165.120469 
L 105.055993 165.169365 
L 105.185515 165.29377 
L 105.237324 165.240114 
L 105.366846 165.266873 
L 105.444559 165.29971 
L 105.470464 165.275723 
L 105.651794 164.849461 
L 105.833125 164.835876 
L 106.092169 164.54074 
L 106.118073 164.578367 
L 106.169882 164.630516 
L 106.247595 164.710829 
L 106.2735 164.655196 
L 106.377117 164.763443 
L 106.506639 164.978579 
L 106.610257 164.879459 
L 106.636161 164.926634 
L 106.972918 165.698158 
L 107.024727 165.646926 
L 107.050631 165.536845 
L 107.128345 165.650401 
L 107.257867 165.59643 
L 107.33558 165.521681 
L 107.361484 165.626589 
L 107.491006 165.759186 
L 107.620528 165.54878 
L 107.75005 165.449296 
L 107.775954 165.394149 
L 107.827763 165.476197 
L 108.009094 165.724775 
L 108.190425 165.752897 
L 108.501277 165.802296 
L 108.578991 165.903296 
L 108.604895 165.836501 
L 108.81213 165.568481 
L 108.838034 165.596031 
L 108.941652 165.579721 
L 108.993461 165.63273 
L 109.071174 165.510241 
L 109.2266 165.783453 
L 109.252505 165.729718 
L 109.433835 165.641934 
L 109.589262 165.482905 
L 109.770592 165.615859 
L 109.87421 165.303875 
L 109.926019 165.324651 
L 110.470011 164.501817 
L 110.52182 164.541967 
L 110.599533 164.580463 
L 110.651342 164.532894 
L 110.780864 164.650194 
L 110.910386 164.898719 
L 110.93629 164.86072 
L 110.988099 164.782838 
L 111.039908 164.890784 
L 111.117621 164.785918 
L 111.247143 164.67202 
L 111.273047 164.692496 
L 111.402569 164.764771 
L 111.635709 164.686072 
L 111.765231 164.985026 
L 111.791135 164.933128 
L 111.946561 164.776248 
L 112.076083 164.778557 
L 112.153796 164.59863 
L 112.309223 164.497247 
L 112.853215 163.848613 
L 113.06045 163.974503 
L 113.319494 163.717707 
L 113.47492 163.668534 
L 113.552633 163.651718 
L 113.733964 163.491704 
L 113.837582 163.455239 
L 113.863486 163.411497 
L 113.915295 163.507498 
L 114.018913 163.672315 
L 114.070721 163.580488 
L 114.537 163.896199 
L 114.873757 163.606498 
L 114.899662 163.646281 
L 115.055088 163.65848 
L 115.210514 163.261156 
L 115.236419 163.306642 
L 115.41775 163.446747 
L 115.59908 163.158963 
L 115.624985 163.189359 
L 115.987646 163.18973 
L 116.194881 163.583141 
L 116.298499 163.621575 
L 116.324403 163.59016 
L 116.376212 163.534849 
L 116.428021 163.477878 
L 116.47983 163.50583 
L 116.557543 163.463511 
L 116.712969 163.396426 
L 116.920204 163.410683 
L 117.101535 163.181245 
L 117.127439 163.194345 
L 117.334675 163.367603 
L 117.360579 163.300522 
L 117.386483 163.241046 
L 117.464196 163.335353 
L 117.567814 163.235852 
L 117.72324 163.131345 
L 117.749145 163.153321 
L 117.852762 163.237938 
L 117.930475 163.248557 
L 117.95638 163.202868 
L 118.422659 163.050236 
L 118.578085 163.246878 
L 118.629894 163.176402 
L 118.966651 162.883942 
L 118.992556 162.936184 
L 119.277504 162.981628 
L 119.43293 162.718035 
L 119.458835 162.744232 
L 119.562452 162.722321 
L 119.743783 162.651663 
L 119.976922 162.806706 
L 120.028731 162.703368 
L 120.184157 162.562835 
L 120.391393 162.62221 
L 120.520915 162.720924 
L 120.883576 162.500789 
L 121.013098 162.439174 
L 121.168524 162.454087 
L 121.427568 162.315974 
L 121.505281 162.322193 
L 121.531186 162.262851 
L 122.049274 162.299805 
L 122.178796 162.330945 
L 122.2047 162.287318 
L 122.774597 162.066285 
L 122.826405 162.180595 
L 123.007736 162.293728 
L 123.03364 162.269788 
L 123.189067 162.157268 
L 123.344493 162.319156 
L 123.396302 162.271648 
L 123.448111 162.3252 
L 123.966198 162.821852 
L 124.09572 162.730203 
L 124.121625 162.75036 
L 124.173434 162.669976 
L 124.354764 162.452767 
L 124.561999 162.54721 
L 124.74333 162.697743 
L 124.846948 162.646199 
L 125.028278 162.634705 
L 125.209609 162.626961 
L 125.598175 163.196622 
L 125.624079 163.20965 
L 125.649984 163.116085 
L 125.883123 163.000063 
L 126.012645 163.015091 
L 126.142167 163.063731 
L 126.297594 163.010037 
L 126.504829 162.978359 
L 126.712064 162.683648 
L 126.789777 162.628849 
L 126.971108 162.564684 
L 127.126534 162.55734 
L 127.256056 162.559515 
L 127.359674 162.567597 
L 127.385578 162.545335 
L 127.437387 162.621514 
L 128.059092 162.68176 
L 128.266327 162.472408 
L 128.939841 162.207332 
L 129.121172 162.097096 
L 129.147077 162.109056 
L 129.172981 162.014417 
L 129.63926 161.772968 
L 129.768782 161.780936 
L 130.027826 161.654755 
L 130.209157 161.784927 
L 130.779053 161.967153 
L 130.804958 161.896416 
L 130.882671 161.953383 
L 131.34895 161.981931 
L 131.478472 161.961009 
L 131.867038 161.937153 
L 131.944751 161.892699 
L 132.074273 161.758146 
L 132.100177 161.778054 
L 132.333317 161.767766 
L 132.385125 161.761453 
L 132.41103 161.719974 
L 132.566456 161.548323 
L 132.592361 161.568219 
L 132.799596 161.592378 
L 132.929118 161.523628 
L 133.05864 161.458403 
L 133.550823 161.754305 
L 133.732154 161.864793 
L 133.835771 161.811366 
L 133.991198 161.657963 
L 134.017102 161.691464 
L 134.094815 161.729434 
L 134.12072 161.691702 
L 134.172528 161.623197 
L 134.224337 161.703091 
L 134.250242 161.74292 
L 134.327955 161.690346 
L 134.431572 161.740003 
L 134.612903 161.828929 
L 134.768329 161.759959 
L 135.027373 161.838106 
L 135.338226 162.204576 
L 135.571365 162.111295 
L 135.726792 162.167395 
L 135.752696 162.135194 
L 135.959931 162.154207 
L 136.089453 162.112008 
L 136.218975 162.068693 
L 136.762967 161.87267 
L 136.788872 161.945479 
L 136.866585 161.888852 
L 137.022011 161.824416 
L 137.30696 161.584376 
L 137.384673 161.620393 
L 137.410577 161.558101 
L 138.084091 161.603299 
L 138.343135 161.659427 
L 138.446753 161.70485 
L 138.757605 161.72916 
L 138.964841 161.576787 
L 138.990745 161.614899 
L 139.042554 161.54975 
L 139.223884 161.387146 
L 139.405215 161.393974 
L 139.664259 161.455208 
L 140.104634 161.724434 
L 140.182347 161.780278 
L 140.208251 161.740113 
L 140.285965 161.717754 
L 140.311869 161.736663 
L 140.881765 162.087882 
L 141.373949 161.841493 
L 141.684802 161.962804 
L 141.73661 161.921377 
L 141.788419 161.980736 
L 142.591455 162.043583 
L 142.824595 161.916157 
L 143.083639 161.945295 
L 143.316778 161.757068 
L 143.627631 161.764332 
L 143.653535 161.720723 
L 143.731248 161.790631 
L 144.327049 162.156869 
L 144.948755 161.897323 
L 145.15599 161.943673 
L 145.699982 161.852954 
L 145.751791 161.848568 
L 145.777695 161.779752 
L 145.933122 161.749904 
L 146.373496 161.678012 
L 146.503018 161.62684 
L 146.787967 161.655645 
L 146.839775 161.627363 
L 146.891584 161.699304 
L 147.098819 161.636155 
L 147.565098 161.645951 
L 147.798238 161.448873 
L 148.160899 161.34378 
L 148.34223 161.21241 
L 149.222979 161.509499 
L 149.40431 161.627765 
L 149.922398 161.61221 
L 150.103729 161.533061 
L 151.347139 161.324648 
L 151.450757 161.426187 
L 151.502566 161.353739 
L 151.968845 161.197813 
L 152.279697 161.133138 
L 152.564646 161.075971 
L 153.264064 161.357981 
L 153.523108 161.476554 
L 154.559284 161.777881 
L 154.71471 161.712302 
L 156.450304 161.386814 
L 156.553922 161.357718 
L 156.890679 161.294654 
L 157.123818 161.379751 
L 158.263612 161.103964 
L 158.393133 161.150322 
L 158.522655 161.125093 
L 158.937126 161.095171 
L 159.170265 161.131939 
L 159.662449 160.995161 
L 159.869684 160.917133 
L 160.154632 160.848199 
L 160.491389 160.812097 
L 160.802242 160.629012 
L 160.983573 160.663366 
L 161.346234 160.705611 
L 161.449852 160.666596 
L 161.475756 160.69388 
L 162.900497 160.770334 
L 163.081828 160.789574 
L 163.548107 160.773234 
L 163.781247 160.989489 
L 164.092099 160.958751 
L 164.27343 160.893971 
L 164.402952 160.902426 
L 164.558378 160.879027 
L 165.542745 160.913201 
L 165.724076 160.94848 
L 165.879502 160.931807 
L 166.112642 160.890782 
L 166.242164 160.929674 
L 166.527112 160.843135 
L 166.682538 160.862491 
L 167.071104 161.296098 
L 167.097009 161.273764 
L 167.278339 161.279091 
L 167.537383 161.197945 
L 167.744618 161.212948 
L 168.003662 161.241724 
L 168.159089 161.270467 
L 168.884412 161.411388 
L 169.065742 161.394018 
L 169.376595 161.514887 
L 169.661543 161.534535 
L 169.81697 161.587642 
L 169.972396 161.564428 
L 170.309153 161.551982 
L 170.490484 161.497715 
L 172.485122 161.481694 
L 172.640548 161.472308 
L 172.873688 161.469721 
L 173.106827 161.453877 
L 173.650819 161.702514 
L 173.961672 161.815672 
L 174.143003 161.750424 
L 174.298429 161.797769 
L 174.402047 161.844413 
L 174.557473 161.875961 
L 175.386414 161.810618 
L 175.645458 161.859968 
L 176.37078 161.602887 
L 176.655729 161.576619 
L 176.966581 161.59295 
L 177.199721 161.612692 
L 177.406956 161.585604 
L 178.209992 161.874865 
L 178.598558 161.846941 
L 178.805793 161.910416 
L 179.013028 161.938563 
L 179.14255 161.913914 
L 179.453403 161.975956 
L 180.308248 162.094312 
L 180.43777 162.117143 
L 180.826336 162.178656 
L 180.929953 162.136304 
L 181.188997 162.076481 
L 181.810703 162.481811 
L 185.048751 162.58405 
L 185.255986 162.609553 
L 186.084927 162.869317 
L 186.499397 163.018224 
L 186.784345 162.913309 
L 186.965676 162.911407 
L 187.975947 162.858501 
L 188.131374 162.835642 
L 188.338609 162.850024 
L 188.468131 162.867271 
L 189.76335 162.895242 
L 189.918777 162.888542 
L 190.203725 162.809418 
L 190.540482 162.698036 
L 190.747717 162.654 
L 195.047846 162.412426 
L 195.203272 162.382953 
L 196.446683 162.383515 
L 197.120197 162.26379 
L 197.327432 162.236534 
L 197.715998 162.082936 
L 197.897329 162.153847 
L 198.337704 162.186213 
L 198.648556 162.140919 
L 199.114835 162.100676 
L 199.32207 162.122168 
L 199.477497 162.131776 
L 199.710636 162.107594 
L 199.917871 162.114932 
L 200.384151 162.137554 
L 200.669099 162.08743 
L 201.161282 162.208391 
L 202.845068 162.300954 
L 203.078207 162.338559 
L 203.414964 162.315228 
L 204.86561 162.608626 
L 205.616837 162.642046 
L 205.92769 162.672009 
L 206.083116 162.676491 
L 207.663284 162.639945 
L 208.336798 162.769349 
L 208.518129 162.819016 
L 209.321165 162.995294 
L 209.632018 163.061333 
L 209.865157 163.058413 
L 210.201915 163.068223 
L 210.59048 163.129439 
L 211.833891 163.055149 
L 212.041126 163.073086 
L 214.268904 162.854614 
L 215.201462 162.768001 
L 215.382793 162.789963 
L 215.590028 162.820899 
L 215.849072 162.91628 
L 216.289446 163.180146 
L 216.78163 163.220659 
L 216.937056 163.27521 
L 217.170196 163.375911 
L 217.325622 163.357649 
L 217.584666 163.372826 
L 218.284084 163.360695 
L 218.90579 163.387941 
L 219.113025 163.349221 
L 219.32026 163.405805 
L 219.890157 163.306483 
L 220.097392 163.402067 
L 220.874523 163.268282 
L 221.548038 163.359602 
L 221.755273 163.350129 
L 222.247456 163.324425 
L 222.713735 163.317243 
L 223.024588 163.271996 
L 224.837895 163.137983 
L 225.096939 163.118004 
L 225.304174 163.175823 
L 225.640931 163.225745 
L 225.92588 163.297339 
L 226.443967 163.227963 
L 226.625298 163.198922 
L 226.832533 163.171864 
L 227.506047 163.125302 
L 227.894613 163.067854 
L 228.904884 163.130474 
L 229.215737 163.268594 
L 229.630207 163.258963 
L 230.044678 163.229686 
L 230.200104 163.232849 
L 235.380982 163.003434 
L 235.924974 163.108694 
L 236.209923 163.134736 
L 237.090672 163.316992 
L 237.323811 163.291609 
L 237.712377 163.214829 
L 237.841899 163.226834 
L 238.644935 163.248716 
L 238.903979 163.247715 
L 239.784728 163.246855 
L 240.043772 163.211275 
L 240.924522 163.327855 
L 241.338992 163.349017 
L 241.831175 163.268896 
L 242.323359 163.254428 
L 243.204108 163.027638 
L 244.473423 162.872364 
L 244.991511 162.948063 
L 245.846356 162.974468 
L 246.1054 162.980919 
L 248.100038 162.986666 
L 248.799456 163.130234 
L 249.213927 163.075802 
L 250.897712 163.127655 
L 251.053138 163.159062 
L 251.804366 163.079012 
L 252.141123 163.037481 
L 252.47788 163.074488 
L 253.021872 163.095338 
L 253.229107 163.15623 
L 253.436342 163.219619 
L 255.275554 163.362852 
L 255.638215 163.315371 
L 256.052686 163.320789 
L 256.49306 163.225685 
L 257.062957 163.288877 
L 257.425618 163.259424 
L 257.632854 163.260119 
L 259.083499 163.002214 
L 259.290735 162.967938 
L 262.502879 162.857159 
L 262.995062 162.769684 
L 263.357724 162.759696 
L 263.564959 162.796842 
L 264.419804 162.9608 
L 265.585501 162.999669 
L 265.896354 163.012472 
L 266.233111 162.969234 
L 266.984339 162.955193 
L 268.901263 162.852045 
L 269.108499 162.826343 
L 269.522969 162.847364 
L 269.859726 162.771361 
L 271.465798 162.844318 
L 271.621224 162.849533 
L 272.061599 162.838495 
L 272.372452 162.777738 
L 273.020062 162.687169 
L 273.279105 162.64112 
L 273.615862 162.555474 
L 274.211663 162.530163 
L 274.418899 162.572052 
L 274.807464 162.520756 
L 279.02988 162.439862 
L 279.237115 162.464725 
L 287.293381 162.350811 
L 287.500616 162.440366 
L 287.811468 162.448091 
L 288.433174 162.615031 
L 288.666313 162.630571 
L 289.080784 162.582496 
L 292.577876 162.601584 
L 293.121869 162.558764 
L 293.329104 162.517992 
L 293.588148 162.497673 
L 293.924905 162.526406 
L 294.77975 162.453347 
L 295.116507 162.472881 
L 295.401455 162.477184 
L 295.764116 162.405304 
L 297.991894 162.23747 
L 298.458173 162.166189 
L 298.872643 162.227377 
L 299.597966 162.269912 
L 301.074516 162.363152 
L 301.359465 162.306681 
L 305.245123 162.347342 
L 306.695769 162.325224 
L 307.187953 162.418269 
L 309.027164 162.25868 
L 309.286208 162.276897 
L 311.306751 162.152439 
L 311.721221 162.121669 
L 314.337564 162.09845 
L 314.700226 162.125223 
L 315.062887 162.178542 
L 315.995445 162.149793 
L 316.66896 162.217109 
L 316.876195 162.239255 
L 318.197319 162.256845 
L 318.663598 162.290806 
L 319.129877 162.306639 
L 319.492538 162.337337 
L 319.907008 162.365789 
L 320.321479 162.340691 
L 323.248675 162.389171 
L 323.507719 162.375338 
L 324.388468 162.338908 
L 324.699321 162.333474 
L 325.605974 162.387101 
L 328.999449 162.040942 
L 329.310302 162.072607 
L 330.553713 162.152254 
L 331.382653 162.104277 
L 332.211594 162.17305 
L 332.470638 162.196491 
L 334.776129 162.21352 
L 335.035172 162.196662 
L 337.651516 162.133792 
L 338.065986 162.166799 
L 338.376839 162.154076 
L 338.765405 162.116784 
L 339.102162 162.100151 
L 343.687239 161.9645 
L 344.023996 161.962886 
L 344.386657 162.036138 
L 344.775223 162.007186 
L 345.733686 162.105577 
L 346.251774 162.107839 
L 347.676515 162.180633 
L 348.194603 162.166375 
L 349.049448 162.267258 
L 349.852484 162.286893 
L 350.42238 162.305453 
L 350.65552 162.31816 
L 351.329034 162.31689 
L 352.054357 162.304643 
L 352.287496 162.296732 
L 353.19415 162.385216 
L 354.748414 162.3298 
L 355.111075 162.334858 
L 355.888207 162.325807 
L 356.276773 162.341238 
L 356.61353 162.348621 
L 356.976191 162.371729 
L 358.789499 162.357723 
L 359.229873 162.381457 
L 359.592535 162.391487 
L 360.784137 162.403625 
L 361.250416 162.410642 
L 361.846217 162.379086 
L 362.882392 162.413133 
L 364.747508 162.427219 
L 365.058361 162.423414 
L 365.576449 162.361919 
L 368.840402 162.378358 
L 369.77296 162.377712 
L 375.575544 162.367795 
L 376.093631 162.360379 
L 377.026189 162.350911 
L 377.932843 162.330931 
L 378.425027 162.339324 
L 379.875672 162.265728 
L 380.212429 162.273235 
L 380.704613 162.389089 
L 381.559458 162.400615 
L 381.896215 162.423055 
L 383.139626 162.416405 
L 383.450478 162.435514 
L 386.662623 162.504056 
L 388.139173 162.413145 
L 388.424121 162.406165 
L 389.53801 162.46593 
L 389.848863 162.479267 
L 391.195891 162.532832 
L 391.66217 162.48427 
L 395.832777 162.560436 
L 397.853319 162.517263 
L 398.319598 162.568603 
L 399.407583 162.489875 
L 399.899766 162.459551 
L 404.148086 162.47832 
L 404.8216 162.516911 
L 405.210166 162.487833 
L 406.712621 162.493998 
L 407.049378 162.479475 
L 407.645179 162.450007 
L 408.00784 162.439182 
L 410.883228 162.387197 
L 411.42722 162.414293 
L 411.738073 162.431471 
L 412.178447 162.409305 
L 414.535747 162.32639 
L 419.172633 162.393684 
L 419.690721 162.429385 
L 420.441948 162.418879 
L 421.296793 162.486406 
L 422.358873 162.432685 
L 427.643369 162.359287 
L 427.928317 162.357701 
L 429.871146 162.414924 
L 430.259712 162.417972 
L 431.140461 162.432049 
L 431.632645 162.440052 
L 432.202541 162.436388 
L 433.186908 162.467855 
L 435.492399 162.560743 
L 437.202089 162.548725 
L 437.487037 162.564612 
L 438.160551 162.529393 
L 438.885874 162.497887 
L 440.880512 162.440852 
L 441.761261 162.393993 
L 442.616106 162.417566 
L 444.558936 162.398056 
L 444.947501 162.411893 
L 445.854155 162.353255 
L 448.522307 162.342931 
L 449.169917 162.274801 
L 449.610292 162.256487 
L 450.672372 162.262029 
L 451.060938 162.269083 
L 453.08148 162.231138 
L 459.143107 162.06969 
L 459.557578 162.070727 
L 461.422694 162.000068 
L 462.743818 161.981831 
L 463.080575 161.976632 
L 463.495045 161.973537 
L 464.272177 162.00281 
L 467.147564 161.949433 
L 467.665652 161.915675 
L 473.701375 161.850279 
L 474.193558 161.848908 
L 474.73755 161.863639 
L 475.126116 161.854972 
L 476.654475 161.880448 
L 482.716103 161.71975 
L 483.078764 161.705977 
L 484.555314 161.605136 
L 485.202924 161.610476 
L 486.161387 161.564164 
L 486.88671 161.61887 
L 487.612033 161.574021 
L 488.026503 161.583902 
L 488.674113 161.587915 
L 489.554862 161.541798 
L 490.513324 161.496041 
L 492.145301 161.451869 
L 492.559771 161.418465 
L 493.725469 161.443649 
L 494.08813 161.404046 
L 496.367717 161.350755 
L 496.678569 161.369003 
L 497.326179 161.369184 
L 499.035869 161.375363 
L 499.528052 161.357695 
L 503.828181 161.292694 
L 504.605313 161.327759 
L 505.796915 161.475051 
L 506.392716 161.468388 
L 509.216294 161.439863 
L 510.122948 161.454473 
L 510.66694 161.407688 
L 512.609769 161.591292 
L 526.131861 161.62491 
L 526.494523 161.633897 
L 527.090324 161.628032 
L 561.724494 161.837724 
L 563.485992 161.846492 
L 564.314933 161.866703 
L 564.884829 161.82085 
L 566.387284 161.870424 
L 567.060798 161.868797 
L 567.630695 161.894031 
L 568.174687 161.878119 
L 569.159054 161.857454 
L 569.858472 161.867236 
L 585.297489 161.647351 
L 587.473458 161.685945 
L 588.01745 161.670595 
L 588.587347 161.692313 
L 590.530176 161.761011 
L 591.695874 161.760034 
L 593.276041 161.711875 
L 597.032178 161.699395 
L 597.679788 161.726452 
L 598.301493 161.713355 
L 599.648522 161.683409 
L 600.114801 161.694598 
L 601.306403 161.703181 
L 602.109439 161.693978 
L 603.845033 161.693002 
L 606.95356 161.694291 
L 607.342126 161.719705 
L 614.103171 161.684536 
L 617.34122 161.673563 
L 617.911117 161.672477 
L 619.076814 161.628357 
L 621.097357 161.607869 
L 621.978106 161.660521 
L 622.703429 161.73727 
L 624.179979 161.766857 
L 624.827589 161.84418 
L 626.433661 161.856771 
L 629.723519 161.945718 
L 630.604268 161.898612 
L 631.744061 161.924858 
L 642.054009 162.001294 
L 642.494383 162.017971 
L 643.867316 162.000657 
L 645.317962 162.041551 
L 645.991476 162.097019 
L 650.757884 162.097968 
L 651.379589 162.115137 
L 652.389861 162.105918 
L 653.089279 162.117716 
L 653.788698 162.109499 
L 656.016475 162.083204 
L 672.051293 161.965825 
L 672.776616 161.951385 
L 677.905685 161.946814 
L 678.605104 161.96218 
L 681.920866 161.993461 
L 683.501034 162.010819 
L 684.07093 162.012659 
L 685.003488 162.017748 
L 685.728811 162.025801 
L 685.987855 162.01603 
L 685.987855 162.01603 
" clip-path="url(#p8c52e49a97)" style="fill: none; stroke: #ffa500; stroke-width: 1.5; stroke-linecap: square"/>
   </g>
   <g id="patch_3">
    <path d="M 46.824219 358.33875 
L 46.824219 25.69875 
" style="fill: none; stroke: #000000; stroke-width: 0.8; stroke-linejoin: miter; stroke-linecap: square"/>
   </g>
   <g id="patch_4">
    <path d="M 716.424219 358.33875 
L 716.424219 25.69875 
" style="fill: none; stroke: #000000; stroke-width: 0.8; stroke-linejoin: miter; stroke-linecap: square"/>
   </g>
   <g id="patch_5">
    <path d="M 46.824219 358.33875 
L 716.424219 358.33875 
" style="fill: none; stroke: #000000; stroke-width: 0.8; stroke-linejoin: miter; stroke-linecap: square"/>
   </g>
   <g id="patch_6">
    <path d="M 46.824219 25.69875 
L 716.424219 25.69875 
" style="fill: none; stroke: #000000; stroke-width: 0.8; stroke-linejoin: miter; stroke-linecap: square"/>
   </g>
   <g id="text_16">
    <!-- Means of s1 and s2 -->
    <g transform="translate(312.130156 19.69875) scale(0.18 -0.18)">
     <defs>
      <path id="TimesNewRomanPSMT-4d" d="M 2619 0 
L 981 3566 
L 981 734 
Q 981 344 1066 247 
Q 1181 116 1431 116 
L 1581 116 
L 1581 0 
L 106 0 
L 106 116 
L 256 116 
Q 525 116 638 278 
Q 706 378 706 734 
L 706 3503 
Q 706 3784 644 3909 
Q 600 4000 483 4061 
Q 366 4122 106 4122 
L 106 4238 
L 1306 4238 
L 2844 922 
L 4356 4238 
L 5556 4238 
L 5556 4122 
L 5409 4122 
Q 5138 4122 5025 3959 
Q 4956 3859 4956 3503 
L 4956 734 
Q 4956 344 5044 247 
Q 5159 116 5409 116 
L 5556 116 
L 5556 0 
L 3756 0 
L 3756 116 
L 3906 116 
Q 4178 116 4288 278 
Q 4356 378 4356 734 
L 4356 3566 
L 2722 0 
L 2619 0 
z
" transform="scale(0.015625)"/>
      <path id="TimesNewRomanPSMT-66" d="M 1319 2638 
L 1319 756 
Q 1319 356 1406 250 
Q 1522 113 1716 113 
L 1975 113 
L 1975 0 
L 266 0 
L 266 113 
L 394 113 
Q 519 113 622 175 
Q 725 238 764 344 
Q 803 450 803 756 
L 803 2638 
L 247 2638 
L 247 2863 
L 803 2863 
L 803 3050 
Q 803 3478 940 3775 
Q 1078 4072 1361 4255 
Q 1644 4438 1997 4438 
Q 2325 4438 2600 4225 
Q 2781 4084 2781 3909 
Q 2781 3816 2700 3733 
Q 2619 3650 2525 3650 
Q 2453 3650 2373 3701 
Q 2294 3753 2178 3923 
Q 2063 4094 1966 4153 
Q 1869 4213 1750 4213 
Q 1606 4213 1506 4136 
Q 1406 4059 1362 3898 
Q 1319 3738 1319 3069 
L 1319 2863 
L 2056 2863 
L 2056 2638 
L 1319 2638 
z
" transform="scale(0.015625)"/>
      <path id="TimesNewRomanPSMT-64" d="M 2222 322 
Q 2013 103 1813 7 
Q 1613 -88 1381 -88 
Q 913 -88 563 304 
Q 213 697 213 1313 
Q 213 1928 600 2439 
Q 988 2950 1597 2950 
Q 1975 2950 2222 2709 
L 2222 3238 
Q 2222 3728 2198 3840 
Q 2175 3953 2125 3993 
Q 2075 4034 2000 4034 
Q 1919 4034 1784 3984 
L 1744 4094 
L 2597 4444 
L 2738 4444 
L 2738 1134 
Q 2738 631 2761 520 
Q 2784 409 2836 365 
Q 2888 322 2956 322 
Q 3041 322 3181 375 
L 3216 266 
L 2366 -88 
L 2222 -88 
L 2222 322 
z
M 2222 541 
L 2222 2016 
Q 2203 2228 2109 2403 
Q 2016 2578 1861 2667 
Q 1706 2756 1559 2756 
Q 1284 2756 1069 2509 
Q 784 2184 784 1559 
Q 784 928 1059 592 
Q 1334 256 1672 256 
Q 1956 256 2222 541 
z
" transform="scale(0.015625)"/>
     </defs>
     <use xlink:href="#TimesNewRomanPSMT-4d"/>
     <use xlink:href="#TimesNewRomanPSMT-65" x="88.916016"/>
     <use xlink:href="#TimesNewRomanPSMT-61" x="133.300781"/>
     <use xlink:href="#TimesNewRomanPSMT-6e" x="177.685547"/>
     <use xlink:href="#TimesNewRomanPSMT-73" x="227.685547"/>
     <use xlink:href="#TimesNewRomanPSMT-20" x="266.601562"/>
     <use xlink:href="#TimesNewRomanPSMT-6f" x="291.601562"/>
     <use xlink:href="#TimesNewRomanPSMT-66" x="341.601562"/>
     <use xlink:href="#TimesNewRomanPSMT-20" x="374.902344"/>
     <use xlink:href="#TimesNewRomanPSMT-73" x="399.902344"/>
     <use xlink:href="#TimesNewRomanPSMT-31" x="438.818359"/>
     <use xlink:href="#TimesNewRomanPSMT-20" x="488.818359"/>
     <use xlink:href="#TimesNewRomanPSMT-61" x="513.818359"/>
     <use xlink:href="#TimesNewRomanPSMT-6e" x="558.203125"/>
     <use xlink:href="#TimesNewRomanPSMT-64" x="608.203125"/>
     <use xlink:href="#TimesNewRomanPSMT-20" x="658.203125"/>
     <use xlink:href="#TimesNewRomanPSMT-73" x="683.203125"/>
     <use xlink:href="#TimesNewRomanPSMT-32" x="722.119141"/>
    </g>
   </g>
   <g id="legend_1">
    <g id="patch_7">
     <path d="M 608.351562 80.115937 
L 705.924219 80.115937 
Q 708.924219 80.115937 708.924219 77.115937 
L 708.924219 36.19875 
Q 708.924219 33.19875 705.924219 33.19875 
L 608.351562 33.19875 
Q 605.351562 33.19875 605.351562 36.19875 
L 605.351562 77.115937 
Q 605.351562 80.115937 608.351562 80.115937 
z
" style="fill: #ffffff; opacity: 0.8; stroke: #cccccc; stroke-linejoin: miter"/>
    </g>
    <g id="line2d_16">
     <path d="M 611.351562 44.44875 
L 626.351562 44.44875 
L 641.351562 44.44875 
" style="fill: none; stroke: #0000ff; stroke-width: 1.5; stroke-linecap: square"/>
    </g>
    <g id="text_17">
     <!-- s1 mean -->
     <g transform="translate(653.351562 49.69875) scale(0.15 -0.15)">
      <defs>
       <path id="TimesNewRomanPSMT-6d" d="M 1050 2338 
Q 1363 2650 1419 2697 
Q 1559 2816 1721 2881 
Q 1884 2947 2044 2947 
Q 2313 2947 2506 2790 
Q 2700 2634 2766 2338 
Q 3088 2713 3309 2830 
Q 3531 2947 3766 2947 
Q 3994 2947 4170 2830 
Q 4347 2713 4450 2447 
Q 4519 2266 4519 1878 
L 4519 647 
Q 4519 378 4559 278 
Q 4591 209 4675 161 
Q 4759 113 4950 113 
L 4950 0 
L 3538 0 
L 3538 113 
L 3597 113 
Q 3781 113 3884 184 
Q 3956 234 3988 344 
Q 4000 397 4000 647 
L 4000 1878 
Q 4000 2228 3916 2372 
Q 3794 2572 3525 2572 
Q 3359 2572 3192 2489 
Q 3025 2406 2788 2181 
L 2781 2147 
L 2788 2013 
L 2788 647 
Q 2788 353 2820 281 
Q 2853 209 2943 161 
Q 3034 113 3253 113 
L 3253 0 
L 1806 0 
L 1806 113 
Q 2044 113 2133 169 
Q 2222 225 2256 338 
Q 2272 391 2272 647 
L 2272 1878 
Q 2272 2228 2169 2381 
Q 2031 2581 1784 2581 
Q 1616 2581 1450 2491 
Q 1191 2353 1050 2181 
L 1050 647 
Q 1050 366 1089 281 
Q 1128 197 1204 155 
Q 1281 113 1516 113 
L 1516 0 
L 100 0 
L 100 113 
Q 297 113 375 155 
Q 453 197 493 289 
Q 534 381 534 647 
L 534 1741 
Q 534 2213 506 2350 
Q 484 2453 437 2492 
Q 391 2531 309 2531 
Q 222 2531 100 2484 
L 53 2597 
L 916 2947 
L 1050 2947 
L 1050 2338 
z
" transform="scale(0.015625)"/>
      </defs>
      <use xlink:href="#TimesNewRomanPSMT-73"/>
      <use xlink:href="#TimesNewRomanPSMT-31" x="38.916016"/>
      <use xlink:href="#TimesNewRomanPSMT-20" x="88.916016"/>
      <use xlink:href="#TimesNewRomanPSMT-6d" x="113.916016"/>
      <use xlink:href="#TimesNewRomanPSMT-65" x="191.699219"/>
      <use xlink:href="#TimesNewRomanPSMT-61" x="236.083984"/>
      <use xlink:href="#TimesNewRomanPSMT-6e" x="280.46875"/>
     </g>
    </g>
    <g id="line2d_17">
     <path d="M 611.351562 65.657344 
L 626.351562 65.657344 
L 641.351562 65.657344 
" style="fill: none; stroke: #ffa500; stroke-width: 1.5; stroke-linecap: square"/>
    </g>
    <g id="text_18">
     <!-- s2 mean -->
     <g transform="translate(653.351562 70.907344) scale(0.15 -0.15)">
      <use xlink:href="#TimesNewRomanPSMT-73"/>
      <use xlink:href="#TimesNewRomanPSMT-32" x="38.916016"/>
      <use xlink:href="#TimesNewRomanPSMT-20" x="88.916016"/>
      <use xlink:href="#TimesNewRomanPSMT-6d" x="113.916016"/>
      <use xlink:href="#TimesNewRomanPSMT-65" x="191.699219"/>
      <use xlink:href="#TimesNewRomanPSMT-61" x="236.083984"/>
      <use xlink:href="#TimesNewRomanPSMT-6e" x="280.46875"/>
     </g>
    </g>
   </g>
  </g>
 </g>
 <defs>
  <clipPath id="p8c52e49a97">
   <rect x="46.824219" y="25.69875" width="669.6" height="332.64"/>
  </clipPath>
 </defs>
</svg>
